M48
;DRILL file {KiCad no-vcs-found-undefined} date Sun Nov  6 11:42:47 2016
;FORMAT={-:-/ absolute / metric / decimal}
FMAT,2
METRIC,TZ
T1C0.300
T2C0.400
T3C1.016
T4C1.300
T5C0.300
%
G90
G05
M71
T1
X27.076Y-133.782
X27.076Y-134.595
X28.753Y-153.797
X30.683Y-151.613
X30.785Y-136.22
X31.547Y-136.22
X32.36Y-136.22
X33.172Y-136.22
X33.426Y-149.835
X33.985Y-136.22
X34.747Y-136.22
X35.117Y-141.473
X35.117Y-142.473
X35.117Y-143.473
X35.117Y-144.473
X35.117Y-145.473
X35.56Y-136.22
X36.117Y-141.473
X36.117Y-142.473
X36.117Y-143.473
X36.117Y-144.473
X36.117Y-145.473
X36.322Y-136.22
X37.084Y-136.22
X37.117Y-141.473
X37.117Y-142.473
X37.117Y-143.473
X37.117Y-144.473
X37.117Y-145.473
X37.846Y-136.22
X38.117Y-141.473
X38.117Y-142.473
X38.117Y-143.473
X38.117Y-144.473
X38.117Y-145.473
X38.608Y-136.22
X39.117Y-141.473
X39.117Y-142.473
X39.117Y-143.473
X39.117Y-144.473
X39.117Y-145.473
X39.37Y-136.22
X40.132Y-136.22
X40.894Y-136.22
X41.605Y-136.22
X42.367Y-136.22
X43.129Y-136.22
X43.84Y-136.22
X46.482Y-133.883
X46.482Y-134.645
X56.457Y-99.566
X58.641Y-101.496
X60.401Y-133.782
X60.401Y-134.595
X60.419Y-104.239
X62.078Y-153.797
X64.008Y-151.613
X64.11Y-136.22
X64.781Y-105.93
X64.781Y-106.93
X64.781Y-107.93
X64.781Y-108.93
X64.781Y-109.93
X64.872Y-136.22
X65.684Y-136.22
X65.781Y-105.93
X65.781Y-106.93
X65.781Y-107.93
X65.781Y-108.93
X65.781Y-109.93
X66.497Y-136.22
X66.751Y-149.835
X66.781Y-105.93
X66.781Y-106.93
X66.781Y-107.93
X66.781Y-108.93
X66.781Y-109.93
X67.31Y-136.22
X67.781Y-105.93
X67.781Y-106.93
X67.781Y-107.93
X67.781Y-108.93
X67.781Y-109.93
X68.072Y-136.22
X68.442Y-141.473
X68.442Y-142.473
X68.442Y-143.473
X68.442Y-144.473
X68.442Y-145.473
X68.781Y-105.93
X68.781Y-106.93
X68.781Y-107.93
X68.781Y-108.93
X68.781Y-109.93
X68.885Y-136.22
X69.442Y-141.473
X69.442Y-142.473
X69.442Y-143.473
X69.442Y-144.473
X69.442Y-145.473
X69.647Y-136.22
X70.409Y-136.22
X70.442Y-141.473
X70.442Y-142.473
X70.442Y-143.473
X70.442Y-144.473
X70.442Y-145.473
X71.171Y-136.22
X71.442Y-141.473
X71.442Y-142.473
X71.442Y-143.473
X71.442Y-144.473
X71.442Y-145.473
X71.933Y-136.22
X72.442Y-141.473
X72.442Y-142.473
X72.442Y-143.473
X72.442Y-144.473
X72.442Y-145.473
X72.695Y-136.22
X73.457Y-136.22
X74.034Y-101.598
X74.034Y-102.36
X74.034Y-103.173
X74.034Y-103.985
X74.034Y-104.798
X74.034Y-105.56
X74.034Y-106.373
X74.034Y-107.135
X74.034Y-107.897
X74.034Y-108.659
X74.034Y-109.421
X74.034Y-110.183
X74.034Y-110.945
X74.034Y-111.707
X74.034Y-112.418
X74.034Y-113.18
X74.034Y-113.942
X74.034Y-114.653
X74.219Y-136.22
X74.93Y-136.22
X75.609Y-117.295
X75.659Y-97.889
X75.692Y-136.22
X76.371Y-117.295
X76.454Y-136.22
X76.472Y-97.889
X77.165Y-136.22
X79.807Y-133.883
X79.807Y-134.645
X94.844Y-93.726
X94.844Y-143.129
X98.4Y-95.504
X98.4Y-144.907
X99.162Y-95.504
X99.162Y-144.907
X99.924Y-95.504
X99.924Y-144.907
X100.736Y-95.504
X100.736Y-144.907
X101.549Y-95.504
X101.549Y-144.907
X102.362Y-95.504
X102.362Y-144.907
X103.124Y-95.504
X103.124Y-144.907
X103.886Y-95.504
X103.886Y-144.907
X104.597Y-95.504
X104.597Y-144.907
X105.359Y-95.504
X105.359Y-144.907
X106.121Y-95.504
X106.121Y-144.907
X106.832Y-95.504
X106.832Y-144.907
X107.645Y-95.504
X107.645Y-144.907
X108.356Y-95.504
X108.356Y-144.907
X109.118Y-95.504
X109.118Y-144.907
X111.912Y-93.574
X111.912Y-142.977
T2
X29.21Y-144.653
X29.21Y-137.033
X29.21Y-138.303
X29.21Y-143.383
X29.21Y-145.923
X29.21Y-151.13
X29.21Y-152.273
X29.261Y-180.467
X29.787Y-100.074
X29.914Y-115.771
X30.353Y-162.687
X30.48Y-167.386
X30.607Y-169.291
X32.385Y-152.019
X33.655Y-152.019
X34.925Y-155.448
X36.195Y-155.448
X40.963Y-101.42
X42.868Y-101.293
X44.45Y-144.653
X44.45Y-145.923
X44.45Y-151.003
X44.45Y-152.273
X44.45Y-153.797
X44.958Y-180.34
X47.567Y-101.166
X54.806Y-105.738
X54.806Y-107.008
X56.457Y-115.263
X57.981Y-100.023
X57.981Y-115.263
X58.235Y-103.198
X58.235Y-104.468
X59.124Y-100.023
X59.251Y-115.263
X62.535Y-144.653
X62.535Y-137.033
X62.535Y-138.303
X62.535Y-143.383
X62.535Y-145.923
X62.535Y-151.13
X62.535Y-152.273
X62.586Y-180.467
X63.678Y-162.687
X63.805Y-167.386
X63.932Y-169.291
X64.331Y-100.023
X64.331Y-115.263
X65.601Y-100.023
X65.601Y-115.263
X65.71Y-152.019
X66.871Y-100.023
X66.98Y-152.019
X68.25Y-155.448
X69.52Y-155.448
X71.951Y-100.023
X73.221Y-100.023
X77.775Y-144.653
X77.775Y-145.923
X77.775Y-151.003
X77.775Y-152.273
X77.775Y-153.797
X78.283Y-180.34
X93.878Y-119.228
X93.878Y-168.631
X95.656Y-131.928
X95.656Y-181.331
X96.926Y-96.368
X96.926Y-108.306
X96.926Y-145.771
X96.926Y-157.709
X98.704Y-109.576
X98.704Y-158.979
X99.974Y-109.576
X99.974Y-158.979
X101.752Y-109.576
X101.752Y-115.418
X101.752Y-158.979
X101.752Y-164.821
X103.276Y-109.576
X103.276Y-158.979
X104.8Y-112.878
X104.8Y-162.281
X106.324Y-109.576
X106.324Y-158.979
X106.578Y-130.15
X106.578Y-179.553
X107.848Y-112.878
X107.848Y-162.281
X109.372Y-108.306
X109.372Y-157.709
X109.504Y-112.746
X109.504Y-162.149
X109.631Y-122.788
X109.631Y-172.191
T3
X24.13Y-136.017
X24.13Y-138.557
X24.13Y-141.097
X24.13Y-143.637
X24.13Y-146.177
X24.13Y-148.717
X24.13Y-151.257
X24.13Y-153.797
X24.13Y-156.337
X24.13Y-158.877
X24.13Y-161.417
X24.13Y-163.957
X24.13Y-166.497
X24.13Y-169.037
X24.13Y-171.577
X24.13Y-174.117
X24.13Y-176.657
X24.13Y-179.197
X24.13Y-181.737
X28.517Y-94.943
X28.517Y-120.343
X31.057Y-94.943
X31.057Y-120.343
X33.597Y-94.943
X33.597Y-120.343
X36.137Y-94.943
X36.137Y-120.343
X38.677Y-94.943
X38.677Y-120.343
X41.217Y-94.943
X41.217Y-120.343
X43.757Y-94.943
X43.757Y-120.343
X46.297Y-94.943
X46.297Y-120.343
X48.837Y-94.943
X48.837Y-120.343
X49.53Y-136.017
X49.53Y-138.557
X49.53Y-141.097
X49.53Y-143.637
X49.53Y-146.177
X49.53Y-148.717
X49.53Y-151.257
X49.53Y-153.797
X49.53Y-156.337
X49.53Y-158.877
X49.53Y-161.417
X49.53Y-163.957
X49.53Y-166.497
X49.53Y-169.037
X49.53Y-171.577
X49.53Y-174.117
X49.53Y-176.657
X49.53Y-179.197
X49.53Y-181.737
X51.377Y-94.943
X51.377Y-120.343
X53.917Y-94.943
X53.917Y-120.343
X56.457Y-94.943
X56.457Y-120.343
X57.455Y-136.017
X57.455Y-138.557
X57.455Y-141.097
X57.455Y-143.637
X57.455Y-146.177
X57.455Y-148.717
X57.455Y-151.257
X57.455Y-153.797
X57.455Y-156.337
X57.455Y-158.877
X57.455Y-161.417
X57.455Y-163.957
X57.455Y-166.497
X57.455Y-169.037
X57.455Y-171.577
X57.455Y-174.117
X57.455Y-176.657
X57.455Y-179.197
X57.455Y-181.737
X58.997Y-94.943
X58.997Y-120.343
X61.537Y-94.943
X61.537Y-120.343
X64.077Y-94.943
X64.077Y-120.343
X66.617Y-94.943
X66.617Y-120.343
X69.157Y-94.943
X69.157Y-120.343
X71.697Y-94.943
X71.697Y-120.343
X74.237Y-94.943
X74.237Y-120.343
X82.855Y-136.017
X82.855Y-138.557
X82.855Y-141.097
X82.855Y-143.637
X82.855Y-146.177
X82.855Y-148.717
X82.855Y-151.257
X82.855Y-153.797
X82.855Y-156.337
X82.855Y-158.877
X82.855Y-161.417
X82.855Y-163.957
X82.855Y-166.497
X82.855Y-169.037
X82.855Y-171.577
X82.855Y-174.117
X82.855Y-176.657
X82.855Y-179.197
X82.855Y-181.737
X90.576Y-94.844
X90.576Y-97.384
X90.576Y-99.924
X90.576Y-102.464
X90.576Y-105.004
X90.576Y-107.544
X90.576Y-110.084
X90.576Y-112.624
X90.576Y-115.164
X90.576Y-117.704
X90.576Y-120.244
X90.576Y-122.784
X90.576Y-125.324
X90.576Y-127.864
X90.576Y-130.404
X90.576Y-132.944
X90.576Y-144.247
X90.576Y-146.787
X90.576Y-149.327
X90.576Y-151.867
X90.576Y-154.407
X90.576Y-156.947
X90.576Y-159.487
X90.576Y-162.027
X90.576Y-164.567
X90.576Y-167.107
X90.576Y-169.647
X90.576Y-172.187
X90.576Y-174.727
X90.576Y-177.267
X90.576Y-179.807
X90.576Y-182.347
X115.976Y-94.844
X115.976Y-97.384
X115.976Y-99.924
X115.976Y-102.464
X115.976Y-105.004
X115.976Y-107.544
X115.976Y-110.084
X115.976Y-112.624
X115.976Y-115.164
X115.976Y-117.704
X115.976Y-120.244
X115.976Y-122.784
X115.976Y-125.324
X115.976Y-127.864
X115.976Y-130.404
X115.976Y-132.944
X115.976Y-144.247
X115.976Y-146.787
X115.976Y-149.327
X115.976Y-151.867
X115.976Y-154.407
X115.976Y-156.947
X115.976Y-159.487
X115.976Y-162.027
X115.976Y-164.567
X115.976Y-167.107
X115.976Y-169.647
X115.976Y-172.187
X115.976Y-174.727
X115.976Y-177.267
X115.976Y-179.807
X115.976Y-182.347
T4
X25.342Y-105.183
X25.342Y-110.183
X34.37Y-184.912
X39.37Y-184.912
X67.695Y-184.912
X72.695Y-184.912
X100.812Y-135.517
X100.812Y-184.92
X105.812Y-135.517
X105.812Y-184.92
T5
X21.336Y-159.757
X21.336Y-160.257
X21.336Y-160.757
X21.336Y-161.257
X21.336Y-161.757
X22.294Y-106.651
X22.294Y-107.151
X22.294Y-107.651
X22.294Y-108.151
X22.294Y-108.651
X35.83Y-132.588
X35.838Y-187.96
X36.33Y-132.588
X36.338Y-187.96
X36.83Y-132.588
X36.838Y-187.96
X37.33Y-132.588
X37.338Y-187.96
X37.83Y-132.588
X37.838Y-187.96
X48.447Y-123.137
X48.497Y-92.149
X48.947Y-123.137
X48.997Y-92.149
X49.447Y-123.137
X49.497Y-92.149
X49.947Y-123.137
X49.997Y-92.149
X50.447Y-123.137
X50.497Y-92.149
X52.324Y-159.807
X52.324Y-160.307
X52.324Y-160.807
X52.324Y-161.307
X52.324Y-161.807
X54.661Y-159.757
X54.661Y-160.257
X54.661Y-160.757
X54.661Y-161.257
X54.661Y-161.757
X69.155Y-132.588
X69.163Y-187.96
X69.655Y-132.588
X69.663Y-187.96
X70.155Y-132.588
X70.163Y-187.96
X70.655Y-132.588
X70.663Y-187.96
X71.155Y-132.588
X71.163Y-187.96
X77.666Y-106.643
X77.666Y-107.143
X77.666Y-107.643
X77.666Y-108.143
X77.666Y-108.643
X85.649Y-159.807
X85.649Y-160.307
X85.649Y-160.807
X85.649Y-161.307
X85.649Y-161.807
X87.782Y-119.244
X87.782Y-119.744
X87.782Y-120.244
X87.782Y-120.744
X87.782Y-121.244
X87.782Y-168.647
X87.782Y-169.147
X87.782Y-169.647
X87.782Y-170.147
X87.782Y-170.647
X102.276Y-92.05
X102.276Y-141.453
X102.284Y-138.532
X102.284Y-187.935
X102.776Y-92.05
X102.776Y-141.453
X102.784Y-138.532
X102.784Y-187.935
X103.276Y-92.05
X103.276Y-141.453
X103.284Y-138.532
X103.284Y-187.935
X103.776Y-92.05
X103.776Y-141.453
X103.784Y-138.532
X103.784Y-187.935
X104.276Y-92.05
X104.276Y-141.453
X104.284Y-138.532
X104.284Y-187.935
X118.77Y-119.244
X118.77Y-119.744
X118.77Y-120.244
X118.77Y-120.744
X118.77Y-121.244
X118.77Y-168.647
X118.77Y-169.147
X118.77Y-169.647
X118.77Y-170.147
X118.77Y-170.647
T0
M30
