G04 #@! TF.FileFunction,Profile,NP*
%FSLAX46Y46*%
G04 Gerber Fmt 4.6, Leading zero omitted, Abs format (unit mm)*
G04 Created by KiCad (PCBNEW no-vcs-found-undefined) date Sun Nov  6 11:42:32 2016*
%MOMM*%
%LPD*%
G01*
G04 APERTURE LIST*
%ADD10C,0.100000*%
%ADD11C,0.500000*%
%ADD12C,0.010000*%
G04 APERTURE END LIST*
D10*
D11*
X85648800Y-133604000D02*
G75*
G03X84632800Y-132588000I-1016000J0D01*
G01*
X67614800Y-132588000D02*
X55676800Y-132588000D01*
X84632800Y-132588000D02*
X72694800Y-132588000D01*
D12*
X54914800Y-132588000D02*
X85394800Y-132588000D01*
D11*
X55676800Y-132588000D02*
G75*
G03X54660800Y-133604000I0J-1016000D01*
G01*
X72694800Y-187960000D02*
X84632800Y-187960000D01*
X67614800Y-187960000D02*
X55676800Y-187960000D01*
X54660800Y-186944000D02*
G75*
G03X55676800Y-187960000I1016000J0D01*
G01*
X84632800Y-187960000D02*
G75*
G03X85648800Y-186944000I0J1016000D01*
G01*
D12*
X85394800Y-187960000D02*
X54914800Y-187960000D01*
X54660800Y-179044600D02*
X54660800Y-132562600D01*
D11*
X54660800Y-133578600D02*
X54660800Y-158216600D01*
D12*
X85648800Y-179095400D02*
X85648800Y-132613400D01*
D11*
X85648800Y-133629400D02*
X85648800Y-158267400D01*
X85648800Y-163957000D02*
X85648800Y-186918600D01*
X54660800Y-163957000D02*
X54660800Y-186969400D01*
X118770400Y-93065600D02*
G75*
G03X117754400Y-92049600I-1016000J0D01*
G01*
X88798400Y-92049600D02*
G75*
G03X87782400Y-93065600I0J-1016000D01*
G01*
X87782400Y-93065600D02*
X87782400Y-117703600D01*
X100736400Y-92049600D02*
X88798400Y-92049600D01*
X117754400Y-92049600D02*
X105816400Y-92049600D01*
X118770400Y-117703600D02*
X118770400Y-93065600D01*
X87782400Y-137515600D02*
G75*
G03X88798400Y-138531600I1016000J0D01*
G01*
X87782400Y-137515600D02*
X87782400Y-122783600D01*
X100736400Y-138531600D02*
X88798400Y-138531600D01*
X117754400Y-138531600D02*
G75*
G03X118770400Y-137515600I0J1016000D01*
G01*
X118770400Y-137515600D02*
X118770400Y-122783600D01*
X105816400Y-138531600D02*
X117754400Y-138531600D01*
D12*
X87782400Y-138531600D02*
X87782400Y-92049600D01*
X88036400Y-92049600D02*
X118516400Y-92049600D01*
X118516400Y-138531600D02*
X88036400Y-138531600D01*
X118770400Y-92049600D02*
X118770400Y-137769600D01*
X118770400Y-141452600D02*
X118770400Y-187172600D01*
X118516400Y-187934600D02*
X88036400Y-187934600D01*
X88036400Y-141452600D02*
X118516400Y-141452600D01*
X87782400Y-187934600D02*
X87782400Y-141452600D01*
D11*
X105816400Y-187934600D02*
X117754400Y-187934600D01*
X118770400Y-186918600D02*
X118770400Y-172186600D01*
X117754400Y-187934600D02*
G75*
G03X118770400Y-186918600I0J1016000D01*
G01*
X100736400Y-187934600D02*
X88798400Y-187934600D01*
X87782400Y-186918600D02*
X87782400Y-172186600D01*
X87782400Y-186918600D02*
G75*
G03X88798400Y-187934600I1016000J0D01*
G01*
X118770400Y-167106600D02*
X118770400Y-142468600D01*
X117754400Y-141452600D02*
X105816400Y-141452600D01*
X100736400Y-141452600D02*
X88798400Y-141452600D01*
X87782400Y-142468600D02*
X87782400Y-167106600D01*
X88798400Y-141452600D02*
G75*
G03X87782400Y-142468600I0J-1016000D01*
G01*
X118770400Y-142468600D02*
G75*
G03X117754400Y-141452600I-1016000J0D01*
G01*
X76650000Y-123137000D02*
G75*
G03X77666000Y-122121000I0J1016000D01*
G01*
X77666000Y-105103000D02*
X77666000Y-93165000D01*
X77666000Y-122121000D02*
X77666000Y-110183000D01*
D12*
X77666000Y-92403000D02*
X77666000Y-122883000D01*
D11*
X77666000Y-93165000D02*
G75*
G03X76650000Y-92149000I-1016000J0D01*
G01*
X22294000Y-110183000D02*
X22294000Y-122121000D01*
X22294000Y-105103000D02*
X22294000Y-93165000D01*
X23310000Y-92149000D02*
G75*
G03X22294000Y-93165000I0J-1016000D01*
G01*
X22294000Y-122121000D02*
G75*
G03X23310000Y-123137000I1016000J0D01*
G01*
D12*
X22294000Y-122883000D02*
X22294000Y-92403000D01*
X31209400Y-92149000D02*
X77691400Y-92149000D01*
D11*
X76675400Y-92149000D02*
X52037400Y-92149000D01*
D12*
X31158600Y-123137000D02*
X77640600Y-123137000D01*
D11*
X76624600Y-123137000D02*
X51986600Y-123137000D01*
X46297000Y-123137000D02*
X23335400Y-123137000D01*
X46297000Y-92149000D02*
X23284600Y-92149000D01*
X21336000Y-163957000D02*
X21336000Y-186969400D01*
X52324000Y-163957000D02*
X52324000Y-186918600D01*
X52324000Y-133629400D02*
X52324000Y-158267400D01*
D12*
X52324000Y-179095400D02*
X52324000Y-132613400D01*
D11*
X21336000Y-133578600D02*
X21336000Y-158216600D01*
D12*
X21336000Y-179044600D02*
X21336000Y-132562600D01*
X52070000Y-187960000D02*
X21590000Y-187960000D01*
D11*
X51308000Y-187960000D02*
G75*
G03X52324000Y-186944000I0J1016000D01*
G01*
X21336000Y-186944000D02*
G75*
G03X22352000Y-187960000I1016000J0D01*
G01*
X34290000Y-187960000D02*
X22352000Y-187960000D01*
X39370000Y-187960000D02*
X51308000Y-187960000D01*
X22352000Y-132588000D02*
G75*
G03X21336000Y-133604000I0J-1016000D01*
G01*
D12*
X21590000Y-132588000D02*
X52070000Y-132588000D01*
D11*
X51308000Y-132588000D02*
X39370000Y-132588000D01*
X34290000Y-132588000D02*
X22352000Y-132588000D01*
X52324000Y-133604000D02*
G75*
G03X51308000Y-132588000I-1016000J0D01*
G01*
M02*
