G04 #@! TF.FileFunction,Soldermask,Top*
%FSLAX46Y46*%
G04 Gerber Fmt 4.6, Leading zero omitted, Abs format (unit mm)*
G04 Created by KiCad (PCBNEW no-vcs-found-undefined) date Sun Nov  6 11:42:32 2016*
%MOMM*%
%LPD*%
G01*
G04 APERTURE LIST*
%ADD10C,0.100000*%
%ADD11R,2.203400X2.000200*%
%ADD12R,1.901140X3.100020*%
%ADD13R,2.432000X1.416000*%
%ADD14R,2.432000X4.057600*%
%ADD15R,1.400760X1.400760*%
%ADD16R,1.299160X1.400760*%
%ADD17R,1.400760X1.299160*%
%ADD18R,1.400760X0.999440*%
%ADD19R,2.432000X2.127200*%
%ADD20O,2.432000X2.127200*%
%ADD21C,1.200000*%
%ADD22R,6.400000X6.400000*%
%ADD23R,1.750000X1.300000*%
%ADD24R,1.300000X1.750000*%
%ADD25C,2.900000*%
%ADD26R,2.000200X2.203400*%
%ADD27R,3.100020X1.901140*%
%ADD28R,1.416000X2.432000*%
%ADD29R,4.057600X2.432000*%
%ADD30R,0.999440X1.400760*%
%ADD31R,2.127200X2.432000*%
%ADD32O,2.127200X2.432000*%
G04 APERTURE END LIST*
D10*
D11*
X76504800Y-161798000D03*
X76504800Y-164592000D03*
X61899800Y-161798000D03*
X61899800Y-164592000D03*
D12*
X67259200Y-170942000D03*
X72059800Y-170942000D03*
D13*
X66090800Y-161036000D03*
X66090800Y-165608000D03*
X66090800Y-163322000D03*
D14*
X72694800Y-163322000D03*
D15*
X77139800Y-171152820D03*
X77139800Y-178351180D03*
X62534800Y-178351180D03*
X62534800Y-171152820D03*
D16*
X71191120Y-176022000D03*
X72694800Y-176022000D03*
D17*
X62534800Y-167660320D03*
X62534800Y-169164000D03*
D18*
X68249800Y-176022000D03*
X66136520Y-175069500D03*
X68249800Y-174117000D03*
D19*
X82854800Y-181737000D03*
D20*
X82854800Y-179197000D03*
X82854800Y-176657000D03*
X82854800Y-174117000D03*
X82854800Y-171577000D03*
X82854800Y-169037000D03*
X82854800Y-166497000D03*
X82854800Y-163957000D03*
X82854800Y-161417000D03*
X82854800Y-158877000D03*
X82854800Y-156337000D03*
X82854800Y-153797000D03*
X82854800Y-151257000D03*
X82854800Y-148717000D03*
X82854800Y-146177000D03*
X82854800Y-143637000D03*
X82854800Y-141097000D03*
X82854800Y-138557000D03*
X82854800Y-136017000D03*
X57454800Y-181737000D03*
X57454800Y-179197000D03*
X57454800Y-176657000D03*
X57454800Y-174117000D03*
X57454800Y-171577000D03*
X57454800Y-169037000D03*
X57454800Y-166497000D03*
X57454800Y-163957000D03*
X57454800Y-161417000D03*
X57454800Y-158877000D03*
X57454800Y-156337000D03*
X57454800Y-153797000D03*
X57454800Y-151257000D03*
X57454800Y-148717000D03*
X57454800Y-146177000D03*
X57454800Y-143637000D03*
X57454800Y-141097000D03*
X57454800Y-138557000D03*
D19*
X57454800Y-136017000D03*
D21*
X68441800Y-141473000D03*
D22*
X70441800Y-143473000D03*
D23*
X61141800Y-135763000D03*
X61141800Y-137033000D03*
X61141800Y-138303000D03*
X61141800Y-139573000D03*
X61141800Y-140843000D03*
X61141800Y-142113000D03*
X61141800Y-143383000D03*
X61141800Y-144653000D03*
X61141800Y-145923000D03*
X61141800Y-147193000D03*
X61141800Y-148463000D03*
X61141800Y-149733000D03*
X61141800Y-151003000D03*
X61141800Y-152273000D03*
D24*
X64441800Y-153773000D03*
X65711800Y-153773000D03*
X66981800Y-153773000D03*
X68251800Y-153773000D03*
X69521800Y-153773000D03*
X70791800Y-153773000D03*
X72061800Y-153773000D03*
X73331800Y-153773000D03*
X74601800Y-153773000D03*
X75871800Y-153773000D03*
D23*
X79171800Y-152273000D03*
X79171800Y-151003000D03*
X79171800Y-149733000D03*
X79171800Y-148463000D03*
X79171800Y-147193000D03*
X79171800Y-145923000D03*
X79171800Y-144653000D03*
X79171800Y-143383000D03*
X79171800Y-142113000D03*
X79171800Y-140843000D03*
X79171800Y-139573000D03*
X79171800Y-138303000D03*
X79171800Y-137033000D03*
X79171800Y-135763000D03*
D21*
X68441800Y-142473000D03*
X68441800Y-143473000D03*
X68441800Y-144473000D03*
X68441800Y-145473000D03*
X69441800Y-145473000D03*
X69441800Y-144473000D03*
X69441800Y-143473000D03*
X69441800Y-142473000D03*
X69441800Y-141473000D03*
X71441800Y-141473000D03*
X71441800Y-142473000D03*
X71441800Y-143473000D03*
X71441800Y-144473000D03*
X71441800Y-145473000D03*
X70441800Y-145473000D03*
X70441800Y-144473000D03*
X70441800Y-143473000D03*
X70441800Y-142473000D03*
X70441800Y-141473000D03*
X72441800Y-145473000D03*
X72441800Y-144473000D03*
X72441800Y-143473000D03*
X72441800Y-142473000D03*
X72441800Y-141473000D03*
D25*
X67694800Y-184912000D03*
X72694800Y-184912000D03*
X105812000Y-135517000D03*
X100812000Y-135517000D03*
X105812000Y-184920000D03*
X100812000Y-184920000D03*
X25342000Y-110183000D03*
X25342000Y-105183000D03*
X39370000Y-184912000D03*
X34370000Y-184912000D03*
D21*
X39117000Y-141473000D03*
X39117000Y-142473000D03*
X39117000Y-143473000D03*
X39117000Y-144473000D03*
X39117000Y-145473000D03*
X37117000Y-141473000D03*
X37117000Y-142473000D03*
X37117000Y-143473000D03*
X37117000Y-144473000D03*
X37117000Y-145473000D03*
X38117000Y-145473000D03*
X38117000Y-144473000D03*
X38117000Y-143473000D03*
X38117000Y-142473000D03*
X38117000Y-141473000D03*
X36117000Y-141473000D03*
X36117000Y-142473000D03*
X36117000Y-143473000D03*
X36117000Y-144473000D03*
X36117000Y-145473000D03*
X35117000Y-145473000D03*
X35117000Y-144473000D03*
X35117000Y-143473000D03*
X35117000Y-142473000D03*
D23*
X45847000Y-135763000D03*
X45847000Y-137033000D03*
X45847000Y-138303000D03*
X45847000Y-139573000D03*
X45847000Y-140843000D03*
X45847000Y-142113000D03*
X45847000Y-143383000D03*
X45847000Y-144653000D03*
X45847000Y-145923000D03*
X45847000Y-147193000D03*
X45847000Y-148463000D03*
X45847000Y-149733000D03*
X45847000Y-151003000D03*
X45847000Y-152273000D03*
D24*
X42547000Y-153773000D03*
X41277000Y-153773000D03*
X40007000Y-153773000D03*
X38737000Y-153773000D03*
X37467000Y-153773000D03*
X36197000Y-153773000D03*
X34927000Y-153773000D03*
X33657000Y-153773000D03*
X32387000Y-153773000D03*
X31117000Y-153773000D03*
D23*
X27817000Y-152273000D03*
X27817000Y-151003000D03*
X27817000Y-149733000D03*
X27817000Y-148463000D03*
X27817000Y-147193000D03*
X27817000Y-145923000D03*
X27817000Y-144653000D03*
X27817000Y-143383000D03*
X27817000Y-142113000D03*
X27817000Y-140843000D03*
X27817000Y-139573000D03*
X27817000Y-138303000D03*
X27817000Y-137033000D03*
X27817000Y-135763000D03*
D22*
X37117000Y-143473000D03*
D21*
X35117000Y-141473000D03*
X68781000Y-109930000D03*
X67781000Y-109930000D03*
X66781000Y-109930000D03*
X65781000Y-109930000D03*
X64781000Y-109930000D03*
X68781000Y-107930000D03*
X67781000Y-107930000D03*
X66781000Y-107930000D03*
X65781000Y-107930000D03*
X64781000Y-107930000D03*
X64781000Y-108930000D03*
X65781000Y-108930000D03*
X66781000Y-108930000D03*
X67781000Y-108930000D03*
X68781000Y-108930000D03*
X68781000Y-106930000D03*
X67781000Y-106930000D03*
X66781000Y-106930000D03*
X65781000Y-106930000D03*
X64781000Y-106930000D03*
X64781000Y-105930000D03*
X65781000Y-105930000D03*
X66781000Y-105930000D03*
X67781000Y-105930000D03*
D24*
X74491000Y-116660000D03*
X73221000Y-116660000D03*
X71951000Y-116660000D03*
X70681000Y-116660000D03*
X69411000Y-116660000D03*
X68141000Y-116660000D03*
X66871000Y-116660000D03*
X65601000Y-116660000D03*
X64331000Y-116660000D03*
X63061000Y-116660000D03*
X61791000Y-116660000D03*
X60521000Y-116660000D03*
X59251000Y-116660000D03*
X57981000Y-116660000D03*
D23*
X56481000Y-113360000D03*
X56481000Y-112090000D03*
X56481000Y-110820000D03*
X56481000Y-109550000D03*
X56481000Y-108280000D03*
X56481000Y-107010000D03*
X56481000Y-105740000D03*
X56481000Y-104470000D03*
X56481000Y-103200000D03*
X56481000Y-101930000D03*
D24*
X57981000Y-98630000D03*
X59251000Y-98630000D03*
X60521000Y-98630000D03*
X61791000Y-98630000D03*
X63061000Y-98630000D03*
X64331000Y-98630000D03*
X65601000Y-98630000D03*
X66871000Y-98630000D03*
X68141000Y-98630000D03*
X69411000Y-98630000D03*
X70681000Y-98630000D03*
X71951000Y-98630000D03*
X73221000Y-98630000D03*
X74491000Y-98630000D03*
D22*
X66781000Y-107930000D03*
D21*
X68781000Y-105930000D03*
D23*
X111275400Y-159256600D03*
X111275400Y-157756600D03*
X111275400Y-156256600D03*
X111275400Y-154756600D03*
X111275400Y-153256600D03*
X111275400Y-151756600D03*
X111275400Y-150256600D03*
X111275400Y-148756600D03*
X111275400Y-147256600D03*
X111275400Y-145756600D03*
X111275400Y-144256600D03*
X95275400Y-144256600D03*
X95275400Y-145756600D03*
X95275400Y-147256600D03*
X95275400Y-148756600D03*
X95275400Y-150256600D03*
X95275400Y-151756600D03*
X95275400Y-153256600D03*
X95275400Y-154756600D03*
X95275400Y-156256600D03*
X95275400Y-157756600D03*
X95275400Y-159256600D03*
D24*
X109275400Y-160756600D03*
X107775400Y-160756600D03*
X106275400Y-160756600D03*
X104775400Y-160756600D03*
X103275400Y-160756600D03*
X101775400Y-160756600D03*
X100275400Y-160756600D03*
X98775400Y-160756600D03*
X97275400Y-160756600D03*
D23*
X111275400Y-109853600D03*
X111275400Y-108353600D03*
X111275400Y-106853600D03*
X111275400Y-105353600D03*
X111275400Y-103853600D03*
X111275400Y-102353600D03*
X111275400Y-100853600D03*
X111275400Y-99353600D03*
X111275400Y-97853600D03*
X111275400Y-96353600D03*
X111275400Y-94853600D03*
X95275400Y-94853600D03*
X95275400Y-96353600D03*
X95275400Y-97853600D03*
X95275400Y-99353600D03*
X95275400Y-100853600D03*
X95275400Y-102353600D03*
X95275400Y-103853600D03*
X95275400Y-105353600D03*
X95275400Y-106853600D03*
X95275400Y-108353600D03*
X95275400Y-109853600D03*
D24*
X109275400Y-111353600D03*
X107775400Y-111353600D03*
X106275400Y-111353600D03*
X104775400Y-111353600D03*
X103275400Y-111353600D03*
X101775400Y-111353600D03*
X100275400Y-111353600D03*
X98775400Y-111353600D03*
X97275400Y-111353600D03*
D19*
X90576400Y-94843600D03*
D20*
X90576400Y-97383600D03*
X90576400Y-99923600D03*
X90576400Y-102463600D03*
X90576400Y-105003600D03*
X90576400Y-107543600D03*
X90576400Y-110083600D03*
X90576400Y-112623600D03*
X90576400Y-115163600D03*
X90576400Y-117703600D03*
X90576400Y-120243600D03*
X90576400Y-122783600D03*
X90576400Y-125323600D03*
X90576400Y-127863600D03*
X90576400Y-130403600D03*
X90576400Y-132943600D03*
X115976400Y-94843600D03*
X115976400Y-97383600D03*
X115976400Y-99923600D03*
X115976400Y-102463600D03*
X115976400Y-105003600D03*
X115976400Y-107543600D03*
X115976400Y-110083600D03*
X115976400Y-112623600D03*
X115976400Y-115163600D03*
X115976400Y-117703600D03*
X115976400Y-120243600D03*
X115976400Y-122783600D03*
X115976400Y-125323600D03*
X115976400Y-127863600D03*
X115976400Y-130403600D03*
D19*
X115976400Y-132943600D03*
D18*
X101793040Y-128816100D03*
X99679760Y-127863600D03*
X101793040Y-126911100D03*
D17*
X95656400Y-120995440D03*
X95656400Y-119491760D03*
D16*
X106568240Y-127863600D03*
X105064560Y-127863600D03*
D15*
X95656400Y-130192780D03*
X95656400Y-122994420D03*
X110896400Y-130192780D03*
X110896400Y-122994420D03*
D13*
X99720400Y-115417600D03*
X99720400Y-119989600D03*
X99720400Y-117703600D03*
D14*
X106324400Y-117703600D03*
D12*
X102146100Y-124053600D03*
X106946700Y-124053600D03*
D11*
X110388400Y-116306600D03*
X110388400Y-119100600D03*
X95656400Y-117322600D03*
X95656400Y-114528600D03*
X95656400Y-163931600D03*
X95656400Y-166725600D03*
X110388400Y-168503600D03*
X110388400Y-165709600D03*
D12*
X106946700Y-173456600D03*
X102146100Y-173456600D03*
D14*
X106324400Y-167106600D03*
D13*
X99720400Y-167106600D03*
X99720400Y-169392600D03*
X99720400Y-164820600D03*
D15*
X110896400Y-172397420D03*
X110896400Y-179595780D03*
X95656400Y-172397420D03*
X95656400Y-179595780D03*
D16*
X105064560Y-177266600D03*
X106568240Y-177266600D03*
D17*
X95656400Y-168894760D03*
X95656400Y-170398440D03*
D18*
X101793040Y-176314100D03*
X99679760Y-177266600D03*
X101793040Y-178219100D03*
D19*
X115976400Y-182346600D03*
D20*
X115976400Y-179806600D03*
X115976400Y-177266600D03*
X115976400Y-174726600D03*
X115976400Y-172186600D03*
X115976400Y-169646600D03*
X115976400Y-167106600D03*
X115976400Y-164566600D03*
X115976400Y-162026600D03*
X115976400Y-159486600D03*
X115976400Y-156946600D03*
X115976400Y-154406600D03*
X115976400Y-151866600D03*
X115976400Y-149326600D03*
X115976400Y-146786600D03*
X115976400Y-144246600D03*
X90576400Y-182346600D03*
X90576400Y-179806600D03*
X90576400Y-177266600D03*
X90576400Y-174726600D03*
X90576400Y-172186600D03*
X90576400Y-169646600D03*
X90576400Y-167106600D03*
X90576400Y-164566600D03*
X90576400Y-162026600D03*
X90576400Y-159486600D03*
X90576400Y-156946600D03*
X90576400Y-154406600D03*
X90576400Y-151866600D03*
X90576400Y-149326600D03*
X90576400Y-146786600D03*
D19*
X90576400Y-144246600D03*
D26*
X48456000Y-113993000D03*
X45662000Y-113993000D03*
X48456000Y-99388000D03*
X45662000Y-99388000D03*
D27*
X39312000Y-104747400D03*
X39312000Y-109548000D03*
D28*
X49218000Y-103579000D03*
X44646000Y-103579000D03*
X46932000Y-103579000D03*
D29*
X46932000Y-110183000D03*
D15*
X39101180Y-114628000D03*
X31902820Y-114628000D03*
X31902820Y-100023000D03*
X39101180Y-100023000D03*
D17*
X34232000Y-108679320D03*
X34232000Y-110183000D03*
D16*
X42593680Y-100023000D03*
X41090000Y-100023000D03*
D30*
X34232000Y-105738000D03*
X35184500Y-103624720D03*
X36137000Y-105738000D03*
D31*
X28517000Y-120343000D03*
D32*
X31057000Y-120343000D03*
X33597000Y-120343000D03*
X36137000Y-120343000D03*
X38677000Y-120343000D03*
X41217000Y-120343000D03*
X43757000Y-120343000D03*
X46297000Y-120343000D03*
X48837000Y-120343000D03*
X51377000Y-120343000D03*
X53917000Y-120343000D03*
X56457000Y-120343000D03*
X58997000Y-120343000D03*
X61537000Y-120343000D03*
X64077000Y-120343000D03*
X66617000Y-120343000D03*
X69157000Y-120343000D03*
X71697000Y-120343000D03*
X74237000Y-120343000D03*
X28517000Y-94943000D03*
X31057000Y-94943000D03*
X33597000Y-94943000D03*
X36137000Y-94943000D03*
X38677000Y-94943000D03*
X41217000Y-94943000D03*
X43757000Y-94943000D03*
X46297000Y-94943000D03*
X48837000Y-94943000D03*
X51377000Y-94943000D03*
X53917000Y-94943000D03*
X56457000Y-94943000D03*
X58997000Y-94943000D03*
X61537000Y-94943000D03*
X64077000Y-94943000D03*
X66617000Y-94943000D03*
X69157000Y-94943000D03*
X71697000Y-94943000D03*
D31*
X74237000Y-94943000D03*
D19*
X24130000Y-136017000D03*
D20*
X24130000Y-138557000D03*
X24130000Y-141097000D03*
X24130000Y-143637000D03*
X24130000Y-146177000D03*
X24130000Y-148717000D03*
X24130000Y-151257000D03*
X24130000Y-153797000D03*
X24130000Y-156337000D03*
X24130000Y-158877000D03*
X24130000Y-161417000D03*
X24130000Y-163957000D03*
X24130000Y-166497000D03*
X24130000Y-169037000D03*
X24130000Y-171577000D03*
X24130000Y-174117000D03*
X24130000Y-176657000D03*
X24130000Y-179197000D03*
X24130000Y-181737000D03*
X49530000Y-136017000D03*
X49530000Y-138557000D03*
X49530000Y-141097000D03*
X49530000Y-143637000D03*
X49530000Y-146177000D03*
X49530000Y-148717000D03*
X49530000Y-151257000D03*
X49530000Y-153797000D03*
X49530000Y-156337000D03*
X49530000Y-158877000D03*
X49530000Y-161417000D03*
X49530000Y-163957000D03*
X49530000Y-166497000D03*
X49530000Y-169037000D03*
X49530000Y-171577000D03*
X49530000Y-174117000D03*
X49530000Y-176657000D03*
X49530000Y-179197000D03*
D19*
X49530000Y-181737000D03*
D18*
X34925000Y-174117000D03*
X32811720Y-175069500D03*
X34925000Y-176022000D03*
D17*
X29210000Y-169164000D03*
X29210000Y-167660320D03*
D16*
X39370000Y-176022000D03*
X37866320Y-176022000D03*
D15*
X29210000Y-171152820D03*
X29210000Y-178351180D03*
X43815000Y-178351180D03*
X43815000Y-171152820D03*
D14*
X39370000Y-163322000D03*
D13*
X32766000Y-163322000D03*
X32766000Y-165608000D03*
X32766000Y-161036000D03*
D12*
X38735000Y-170942000D03*
X33934400Y-170942000D03*
D11*
X28575000Y-164592000D03*
X28575000Y-161798000D03*
X43180000Y-164592000D03*
X43180000Y-161798000D03*
M02*
