G04 #@! TF.FileFunction,Soldermask,Bot*
%FSLAX46Y46*%
G04 Gerber Fmt 4.6, Leading zero omitted, Abs format (unit mm)*
G04 Created by KiCad (PCBNEW no-vcs-found-undefined) date Sun Nov  6 11:42:32 2016*
%MOMM*%
%LPD*%
G01*
G04 APERTURE LIST*
%ADD10C,0.100000*%
%ADD11R,2.432000X2.127200*%
%ADD12O,2.432000X2.127200*%
%ADD13C,1.200000*%
%ADD14C,2.900000*%
%ADD15R,2.127200X2.432000*%
%ADD16O,2.127200X2.432000*%
G04 APERTURE END LIST*
D10*
D11*
X82854800Y-181737000D03*
D12*
X82854800Y-179197000D03*
X82854800Y-176657000D03*
X82854800Y-174117000D03*
X82854800Y-171577000D03*
X82854800Y-169037000D03*
X82854800Y-166497000D03*
X82854800Y-163957000D03*
X82854800Y-161417000D03*
X82854800Y-158877000D03*
X82854800Y-156337000D03*
X82854800Y-153797000D03*
X82854800Y-151257000D03*
X82854800Y-148717000D03*
X82854800Y-146177000D03*
X82854800Y-143637000D03*
X82854800Y-141097000D03*
X82854800Y-138557000D03*
X82854800Y-136017000D03*
X57454800Y-181737000D03*
X57454800Y-179197000D03*
X57454800Y-176657000D03*
X57454800Y-174117000D03*
X57454800Y-171577000D03*
X57454800Y-169037000D03*
X57454800Y-166497000D03*
X57454800Y-163957000D03*
X57454800Y-161417000D03*
X57454800Y-158877000D03*
X57454800Y-156337000D03*
X57454800Y-153797000D03*
X57454800Y-151257000D03*
X57454800Y-148717000D03*
X57454800Y-146177000D03*
X57454800Y-143637000D03*
X57454800Y-141097000D03*
X57454800Y-138557000D03*
D11*
X57454800Y-136017000D03*
D13*
X68441800Y-141473000D03*
X68441800Y-142473000D03*
X68441800Y-143473000D03*
X68441800Y-144473000D03*
X68441800Y-145473000D03*
X69441800Y-145473000D03*
X69441800Y-144473000D03*
X69441800Y-143473000D03*
X69441800Y-142473000D03*
X69441800Y-141473000D03*
X71441800Y-141473000D03*
X71441800Y-142473000D03*
X71441800Y-143473000D03*
X71441800Y-144473000D03*
X71441800Y-145473000D03*
X70441800Y-145473000D03*
X70441800Y-144473000D03*
X70441800Y-143473000D03*
X70441800Y-142473000D03*
X70441800Y-141473000D03*
X72441800Y-145473000D03*
X72441800Y-144473000D03*
X72441800Y-143473000D03*
X72441800Y-142473000D03*
X72441800Y-141473000D03*
D14*
X67694800Y-184912000D03*
X72694800Y-184912000D03*
X105812000Y-135517000D03*
X100812000Y-135517000D03*
X105812000Y-184920000D03*
X100812000Y-184920000D03*
X25342000Y-110183000D03*
X25342000Y-105183000D03*
X39370000Y-184912000D03*
X34370000Y-184912000D03*
D13*
X39117000Y-141473000D03*
X39117000Y-142473000D03*
X39117000Y-143473000D03*
X39117000Y-144473000D03*
X39117000Y-145473000D03*
X37117000Y-141473000D03*
X37117000Y-142473000D03*
X37117000Y-143473000D03*
X37117000Y-144473000D03*
X37117000Y-145473000D03*
X38117000Y-145473000D03*
X38117000Y-144473000D03*
X38117000Y-143473000D03*
X38117000Y-142473000D03*
X38117000Y-141473000D03*
X36117000Y-141473000D03*
X36117000Y-142473000D03*
X36117000Y-143473000D03*
X36117000Y-144473000D03*
X36117000Y-145473000D03*
X35117000Y-145473000D03*
X35117000Y-144473000D03*
X35117000Y-143473000D03*
X35117000Y-142473000D03*
X35117000Y-141473000D03*
X68781000Y-109930000D03*
X67781000Y-109930000D03*
X66781000Y-109930000D03*
X65781000Y-109930000D03*
X64781000Y-109930000D03*
X68781000Y-107930000D03*
X67781000Y-107930000D03*
X66781000Y-107930000D03*
X65781000Y-107930000D03*
X64781000Y-107930000D03*
X64781000Y-108930000D03*
X65781000Y-108930000D03*
X66781000Y-108930000D03*
X67781000Y-108930000D03*
X68781000Y-108930000D03*
X68781000Y-106930000D03*
X67781000Y-106930000D03*
X66781000Y-106930000D03*
X65781000Y-106930000D03*
X64781000Y-106930000D03*
X64781000Y-105930000D03*
X65781000Y-105930000D03*
X66781000Y-105930000D03*
X67781000Y-105930000D03*
X68781000Y-105930000D03*
D11*
X90576400Y-94843600D03*
D12*
X90576400Y-97383600D03*
X90576400Y-99923600D03*
X90576400Y-102463600D03*
X90576400Y-105003600D03*
X90576400Y-107543600D03*
X90576400Y-110083600D03*
X90576400Y-112623600D03*
X90576400Y-115163600D03*
X90576400Y-117703600D03*
X90576400Y-120243600D03*
X90576400Y-122783600D03*
X90576400Y-125323600D03*
X90576400Y-127863600D03*
X90576400Y-130403600D03*
X90576400Y-132943600D03*
X115976400Y-94843600D03*
X115976400Y-97383600D03*
X115976400Y-99923600D03*
X115976400Y-102463600D03*
X115976400Y-105003600D03*
X115976400Y-107543600D03*
X115976400Y-110083600D03*
X115976400Y-112623600D03*
X115976400Y-115163600D03*
X115976400Y-117703600D03*
X115976400Y-120243600D03*
X115976400Y-122783600D03*
X115976400Y-125323600D03*
X115976400Y-127863600D03*
X115976400Y-130403600D03*
D11*
X115976400Y-132943600D03*
X115976400Y-182346600D03*
D12*
X115976400Y-179806600D03*
X115976400Y-177266600D03*
X115976400Y-174726600D03*
X115976400Y-172186600D03*
X115976400Y-169646600D03*
X115976400Y-167106600D03*
X115976400Y-164566600D03*
X115976400Y-162026600D03*
X115976400Y-159486600D03*
X115976400Y-156946600D03*
X115976400Y-154406600D03*
X115976400Y-151866600D03*
X115976400Y-149326600D03*
X115976400Y-146786600D03*
X115976400Y-144246600D03*
X90576400Y-182346600D03*
X90576400Y-179806600D03*
X90576400Y-177266600D03*
X90576400Y-174726600D03*
X90576400Y-172186600D03*
X90576400Y-169646600D03*
X90576400Y-167106600D03*
X90576400Y-164566600D03*
X90576400Y-162026600D03*
X90576400Y-159486600D03*
X90576400Y-156946600D03*
X90576400Y-154406600D03*
X90576400Y-151866600D03*
X90576400Y-149326600D03*
X90576400Y-146786600D03*
D11*
X90576400Y-144246600D03*
D15*
X28517000Y-120343000D03*
D16*
X31057000Y-120343000D03*
X33597000Y-120343000D03*
X36137000Y-120343000D03*
X38677000Y-120343000D03*
X41217000Y-120343000D03*
X43757000Y-120343000D03*
X46297000Y-120343000D03*
X48837000Y-120343000D03*
X51377000Y-120343000D03*
X53917000Y-120343000D03*
X56457000Y-120343000D03*
X58997000Y-120343000D03*
X61537000Y-120343000D03*
X64077000Y-120343000D03*
X66617000Y-120343000D03*
X69157000Y-120343000D03*
X71697000Y-120343000D03*
X74237000Y-120343000D03*
X28517000Y-94943000D03*
X31057000Y-94943000D03*
X33597000Y-94943000D03*
X36137000Y-94943000D03*
X38677000Y-94943000D03*
X41217000Y-94943000D03*
X43757000Y-94943000D03*
X46297000Y-94943000D03*
X48837000Y-94943000D03*
X51377000Y-94943000D03*
X53917000Y-94943000D03*
X56457000Y-94943000D03*
X58997000Y-94943000D03*
X61537000Y-94943000D03*
X64077000Y-94943000D03*
X66617000Y-94943000D03*
X69157000Y-94943000D03*
X71697000Y-94943000D03*
D15*
X74237000Y-94943000D03*
D11*
X24130000Y-136017000D03*
D12*
X24130000Y-138557000D03*
X24130000Y-141097000D03*
X24130000Y-143637000D03*
X24130000Y-146177000D03*
X24130000Y-148717000D03*
X24130000Y-151257000D03*
X24130000Y-153797000D03*
X24130000Y-156337000D03*
X24130000Y-158877000D03*
X24130000Y-161417000D03*
X24130000Y-163957000D03*
X24130000Y-166497000D03*
X24130000Y-169037000D03*
X24130000Y-171577000D03*
X24130000Y-174117000D03*
X24130000Y-176657000D03*
X24130000Y-179197000D03*
X24130000Y-181737000D03*
X49530000Y-136017000D03*
X49530000Y-138557000D03*
X49530000Y-141097000D03*
X49530000Y-143637000D03*
X49530000Y-146177000D03*
X49530000Y-148717000D03*
X49530000Y-151257000D03*
X49530000Y-153797000D03*
X49530000Y-156337000D03*
X49530000Y-158877000D03*
X49530000Y-161417000D03*
X49530000Y-163957000D03*
X49530000Y-166497000D03*
X49530000Y-169037000D03*
X49530000Y-171577000D03*
X49530000Y-174117000D03*
X49530000Y-176657000D03*
X49530000Y-179197000D03*
D11*
X49530000Y-181737000D03*
M02*
