G04 #@! TF.GenerationSoftware,KiCad,Pcbnew,no-vcs-found-91ed3e2~59~ubuntu16.04.1*
G04 #@! TF.CreationDate,2017-08-21T18:57:55+02:00*
G04 #@! TF.ProjectId,ESP32-bat-monitor-latch-pan,45535033322D6261742D6D6F6E69746F,rev?*
G04 #@! TF.SameCoordinates,Original*
G04 #@! TF.FileFunction,Copper,L2,Bot,Signal*
G04 #@! TF.FilePolarity,Positive*
%FSLAX46Y46*%
G04 Gerber Fmt 4.6, Leading zero omitted, Abs format (unit mm)*
G04 Created by KiCad (PCBNEW no-vcs-found-91ed3e2~59~ubuntu16.04.1) date Mon Aug 21 18:57:55 2017*
%MOMM*%
%LPD*%
G01*
G04 APERTURE LIST*
%ADD10C,0.800000*%
%ADD11C,2.500000*%
%ADD12O,2.199640X1.524000*%
%ADD13R,2.199640X1.524000*%
%ADD14C,0.600000*%
%ADD15C,2.999740*%
%ADD16C,0.250000*%
%ADD17C,0.254000*%
G04 APERTURE END LIST*
D10*
X71392000Y-96800000D03*
X71392000Y-97800000D03*
X71392000Y-98800000D03*
X71392000Y-99800000D03*
X71392000Y-100800000D03*
X69392000Y-96800000D03*
X69392000Y-97800000D03*
X69392000Y-98800000D03*
X69392000Y-99800000D03*
X69392000Y-100800000D03*
X70392000Y-100800000D03*
X70392000Y-99800000D03*
X70392000Y-98800000D03*
X70392000Y-97800000D03*
X70392000Y-96800000D03*
X68392000Y-96800000D03*
X68392000Y-97800000D03*
X68392000Y-98800000D03*
X68392000Y-99800000D03*
X68392000Y-100800000D03*
X67392000Y-100800000D03*
X67392000Y-99800000D03*
X67392000Y-98800000D03*
X67392000Y-97800000D03*
X67392000Y-96800000D03*
D11*
X72240000Y-186048000D03*
X67240000Y-186048000D03*
D10*
X71392000Y-146800000D03*
X71392000Y-147800000D03*
X71392000Y-148800000D03*
X71392000Y-149800000D03*
X71392000Y-150800000D03*
X69392000Y-146800000D03*
X69392000Y-147800000D03*
X69392000Y-148800000D03*
X69392000Y-149800000D03*
X69392000Y-150800000D03*
X70392000Y-150800000D03*
X70392000Y-149800000D03*
X70392000Y-148800000D03*
X70392000Y-147800000D03*
X70392000Y-146800000D03*
X68392000Y-146800000D03*
X68392000Y-147800000D03*
X68392000Y-148800000D03*
X68392000Y-149800000D03*
X68392000Y-150800000D03*
X67392000Y-150800000D03*
X67392000Y-149800000D03*
X67392000Y-148800000D03*
X67392000Y-147800000D03*
X67392000Y-146800000D03*
D12*
X84218000Y-154958000D03*
X84218000Y-152418000D03*
X84218000Y-149878000D03*
X84218000Y-147338000D03*
D13*
X84218000Y-144798000D03*
D14*
X70248000Y-174618000D03*
D11*
X82186000Y-181174000D03*
X82186000Y-176174000D03*
X82186000Y-165006000D03*
X82186000Y-170006000D03*
X57400000Y-181182000D03*
X57400000Y-176182000D03*
X57400000Y-165037000D03*
X57400000Y-170037000D03*
D14*
X73610000Y-172840000D03*
D15*
X83356000Y-159958000D03*
X83356000Y-186958000D03*
X56356000Y-186958000D03*
X56356000Y-159958000D03*
D14*
X64660000Y-168014000D03*
X67454000Y-173348000D03*
X59580000Y-161156000D03*
X61104000Y-171570000D03*
X77106000Y-172840000D03*
X79392000Y-160902000D03*
X76344000Y-184016000D03*
X57802000Y-153282000D03*
X80916000Y-153028000D03*
X57040000Y-144900000D03*
D10*
X104392000Y-96800000D03*
X104392000Y-97800000D03*
X104392000Y-98800000D03*
X104392000Y-99800000D03*
X104392000Y-100800000D03*
X102392000Y-96800000D03*
X102392000Y-97800000D03*
X102392000Y-98800000D03*
X102392000Y-99800000D03*
X102392000Y-100800000D03*
X103392000Y-100800000D03*
X103392000Y-99800000D03*
X103392000Y-98800000D03*
X103392000Y-97800000D03*
X103392000Y-96800000D03*
X101392000Y-96800000D03*
X101392000Y-97800000D03*
X101392000Y-98800000D03*
X101392000Y-99800000D03*
X101392000Y-100800000D03*
X100392000Y-100800000D03*
X100392000Y-99800000D03*
X100392000Y-98800000D03*
X100392000Y-97800000D03*
X100392000Y-96800000D03*
D12*
X117218000Y-104958000D03*
X117218000Y-102418000D03*
X117218000Y-99878000D03*
X117218000Y-97338000D03*
D13*
X117218000Y-94798000D03*
D11*
X105240000Y-136048000D03*
X100240000Y-136048000D03*
D14*
X103248000Y-124618000D03*
D11*
X115186000Y-131174000D03*
X115186000Y-126174000D03*
X115186000Y-115006000D03*
X115186000Y-120006000D03*
X90400000Y-131182000D03*
X90400000Y-126182000D03*
X90400000Y-115037000D03*
X90400000Y-120037000D03*
D14*
X106610000Y-122840000D03*
D15*
X116356000Y-109958000D03*
X116356000Y-136958000D03*
X89356000Y-136958000D03*
X89356000Y-109958000D03*
D14*
X97660000Y-118014000D03*
X100454000Y-123348000D03*
X92580000Y-111156000D03*
X94104000Y-121570000D03*
X110106000Y-122840000D03*
X112392000Y-110902000D03*
X109344000Y-134016000D03*
X90802000Y-103282000D03*
X113916000Y-103028000D03*
X90040000Y-94900000D03*
D12*
X84218000Y-104958000D03*
X84218000Y-102418000D03*
X84218000Y-99878000D03*
X84218000Y-97338000D03*
D13*
X84218000Y-94798000D03*
D11*
X72240000Y-136048000D03*
X67240000Y-136048000D03*
D14*
X70248000Y-124618000D03*
D11*
X82186000Y-131174000D03*
X82186000Y-126174000D03*
X82186000Y-115006000D03*
X82186000Y-120006000D03*
X57400000Y-131182000D03*
X57400000Y-126182000D03*
X57400000Y-115037000D03*
X57400000Y-120037000D03*
D14*
X73610000Y-122840000D03*
D15*
X83356000Y-109958000D03*
X83356000Y-136958000D03*
X56356000Y-136958000D03*
X56356000Y-109958000D03*
D14*
X64660000Y-118014000D03*
X67454000Y-123348000D03*
X59580000Y-111156000D03*
X61104000Y-121570000D03*
X77106000Y-122840000D03*
X79392000Y-110902000D03*
X76344000Y-134016000D03*
X57802000Y-103282000D03*
X80916000Y-103028000D03*
X57040000Y-94900000D03*
D10*
X38392000Y-96800000D03*
X38392000Y-97800000D03*
X38392000Y-98800000D03*
X38392000Y-99800000D03*
X38392000Y-100800000D03*
X36392000Y-96800000D03*
X36392000Y-97800000D03*
X36392000Y-98800000D03*
X36392000Y-99800000D03*
X36392000Y-100800000D03*
X37392000Y-100800000D03*
X37392000Y-99800000D03*
X37392000Y-98800000D03*
X37392000Y-97800000D03*
X37392000Y-96800000D03*
X35392000Y-96800000D03*
X35392000Y-97800000D03*
X35392000Y-98800000D03*
X35392000Y-99800000D03*
X35392000Y-100800000D03*
X34392000Y-100800000D03*
X34392000Y-99800000D03*
X34392000Y-98800000D03*
X34392000Y-97800000D03*
X34392000Y-96800000D03*
D12*
X51218000Y-104958000D03*
X51218000Y-102418000D03*
X51218000Y-99878000D03*
X51218000Y-97338000D03*
D13*
X51218000Y-94798000D03*
D11*
X39240000Y-136048000D03*
X34240000Y-136048000D03*
D14*
X37248000Y-124618000D03*
D11*
X49186000Y-131174000D03*
X49186000Y-126174000D03*
X49186000Y-115006000D03*
X49186000Y-120006000D03*
X24400000Y-131182000D03*
X24400000Y-126182000D03*
X24400000Y-115037000D03*
X24400000Y-120037000D03*
D14*
X40610000Y-122840000D03*
D15*
X50356000Y-109958000D03*
X50356000Y-136958000D03*
X23356000Y-136958000D03*
X23356000Y-109958000D03*
D14*
X31660000Y-118014000D03*
X34454000Y-123348000D03*
X26580000Y-111156000D03*
X28104000Y-121570000D03*
X44106000Y-122840000D03*
X46392000Y-110902000D03*
X43344000Y-134016000D03*
X24802000Y-103282000D03*
X47916000Y-103028000D03*
X24040000Y-94900000D03*
D10*
X38392000Y-146800000D03*
X38392000Y-147800000D03*
X38392000Y-148800000D03*
X38392000Y-149800000D03*
X38392000Y-150800000D03*
X36392000Y-146800000D03*
X36392000Y-147800000D03*
X36392000Y-148800000D03*
X36392000Y-149800000D03*
X36392000Y-150800000D03*
X37392000Y-150800000D03*
X37392000Y-149800000D03*
X37392000Y-148800000D03*
X37392000Y-147800000D03*
X37392000Y-146800000D03*
X35392000Y-146800000D03*
X35392000Y-147800000D03*
X35392000Y-148800000D03*
X35392000Y-149800000D03*
X35392000Y-150800000D03*
X34392000Y-150800000D03*
X34392000Y-149800000D03*
X34392000Y-148800000D03*
X34392000Y-147800000D03*
X34392000Y-146800000D03*
D12*
X51218000Y-154958000D03*
X51218000Y-152418000D03*
X51218000Y-149878000D03*
X51218000Y-147338000D03*
D13*
X51218000Y-144798000D03*
D11*
X39240000Y-186048000D03*
X34240000Y-186048000D03*
D14*
X37248000Y-174618000D03*
D11*
X49186000Y-181174000D03*
X49186000Y-176174000D03*
X49186000Y-165006000D03*
X49186000Y-170006000D03*
X24400000Y-181182000D03*
X24400000Y-176182000D03*
X24400000Y-165037000D03*
X24400000Y-170037000D03*
D14*
X40610000Y-172840000D03*
D15*
X50356000Y-159958000D03*
X50356000Y-186958000D03*
X23356000Y-186958000D03*
X23356000Y-159958000D03*
D14*
X31660000Y-168014000D03*
X34454000Y-173348000D03*
X26580000Y-161156000D03*
X28104000Y-171570000D03*
X44106000Y-172840000D03*
X46392000Y-160902000D03*
X43344000Y-184016000D03*
X24802000Y-153282000D03*
X47916000Y-153028000D03*
X24040000Y-144900000D03*
X90040000Y-144900000D03*
X113916000Y-153028000D03*
X90802000Y-153282000D03*
X109344000Y-184016000D03*
X112392000Y-160902000D03*
X110106000Y-172840000D03*
X94104000Y-171570000D03*
X92580000Y-161156000D03*
X100454000Y-173348000D03*
X97660000Y-168014000D03*
D15*
X89356000Y-159958000D03*
X89356000Y-186958000D03*
X116356000Y-186958000D03*
X116356000Y-159958000D03*
D14*
X106610000Y-172840000D03*
D11*
X90400000Y-170037000D03*
X90400000Y-165037000D03*
X90400000Y-176182000D03*
X90400000Y-181182000D03*
X115186000Y-170006000D03*
X115186000Y-165006000D03*
X115186000Y-176174000D03*
X115186000Y-181174000D03*
D14*
X103248000Y-174618000D03*
D11*
X100240000Y-186048000D03*
X105240000Y-186048000D03*
D13*
X117218000Y-144798000D03*
D12*
X117218000Y-147338000D03*
X117218000Y-149878000D03*
X117218000Y-152418000D03*
X117218000Y-154958000D03*
D10*
X100392000Y-146800000D03*
X100392000Y-147800000D03*
X100392000Y-148800000D03*
X100392000Y-149800000D03*
X100392000Y-150800000D03*
X101392000Y-150800000D03*
X101392000Y-149800000D03*
X101392000Y-148800000D03*
X101392000Y-147800000D03*
X101392000Y-146800000D03*
X103392000Y-146800000D03*
X103392000Y-147800000D03*
X103392000Y-148800000D03*
X103392000Y-149800000D03*
X103392000Y-150800000D03*
X102392000Y-150800000D03*
X102392000Y-149800000D03*
X102392000Y-148800000D03*
X102392000Y-147800000D03*
X102392000Y-146800000D03*
X104392000Y-150800000D03*
X104392000Y-149800000D03*
X104392000Y-148800000D03*
X104392000Y-147800000D03*
X104392000Y-146800000D03*
X76344000Y-155568000D03*
X109344000Y-105568000D03*
X76344000Y-105568000D03*
X43344000Y-105568000D03*
X43344000Y-155568000D03*
X109344000Y-155568000D03*
X73804000Y-164204000D03*
X75074000Y-153790000D03*
X106804000Y-114204000D03*
X108074000Y-103790000D03*
X73804000Y-114204000D03*
X75074000Y-103790000D03*
X40804000Y-114204000D03*
X42074000Y-103790000D03*
X40804000Y-164204000D03*
X42074000Y-153790000D03*
X108074000Y-153790000D03*
X106804000Y-164204000D03*
X72534000Y-143630000D03*
X105534000Y-93630000D03*
X72534000Y-93630000D03*
X39534000Y-93630000D03*
X39534000Y-143630000D03*
X105534000Y-143630000D03*
D16*
X76344000Y-155568000D02*
X78376000Y-157600000D01*
X78376000Y-172364000D02*
X82186000Y-176174000D01*
X78376000Y-157600000D02*
X78376000Y-172364000D01*
X109344000Y-105568000D02*
X111376000Y-107600000D01*
X111376000Y-122364000D02*
X115186000Y-126174000D01*
X111376000Y-107600000D02*
X111376000Y-122364000D01*
X76344000Y-105568000D02*
X78376000Y-107600000D01*
X78376000Y-122364000D02*
X82186000Y-126174000D01*
X78376000Y-107600000D02*
X78376000Y-122364000D01*
X43344000Y-105568000D02*
X45376000Y-107600000D01*
X45376000Y-122364000D02*
X49186000Y-126174000D01*
X45376000Y-107600000D02*
X45376000Y-122364000D01*
X43344000Y-155568000D02*
X45376000Y-157600000D01*
X45376000Y-172364000D02*
X49186000Y-176174000D01*
X45376000Y-157600000D02*
X45376000Y-172364000D01*
X111376000Y-157600000D02*
X111376000Y-172364000D01*
X111376000Y-172364000D02*
X115186000Y-176174000D01*
X109344000Y-155568000D02*
X111376000Y-157600000D01*
X75058000Y-174046000D02*
X82186000Y-181174000D01*
X75058000Y-165458000D02*
X75058000Y-174046000D01*
X73804000Y-164204000D02*
X75058000Y-165458000D01*
X75074000Y-162934000D02*
X73804000Y-164204000D01*
X75074000Y-153790000D02*
X75074000Y-162934000D01*
X108058000Y-124046000D02*
X115186000Y-131174000D01*
X108058000Y-115458000D02*
X108058000Y-124046000D01*
X106804000Y-114204000D02*
X108058000Y-115458000D01*
X108074000Y-112934000D02*
X106804000Y-114204000D01*
X108074000Y-103790000D02*
X108074000Y-112934000D01*
X75058000Y-124046000D02*
X82186000Y-131174000D01*
X75058000Y-115458000D02*
X75058000Y-124046000D01*
X73804000Y-114204000D02*
X75058000Y-115458000D01*
X75074000Y-112934000D02*
X73804000Y-114204000D01*
X75074000Y-103790000D02*
X75074000Y-112934000D01*
X42058000Y-124046000D02*
X49186000Y-131174000D01*
X42058000Y-115458000D02*
X42058000Y-124046000D01*
X40804000Y-114204000D02*
X42058000Y-115458000D01*
X42074000Y-112934000D02*
X40804000Y-114204000D01*
X42074000Y-103790000D02*
X42074000Y-112934000D01*
X42058000Y-174046000D02*
X49186000Y-181174000D01*
X42058000Y-165458000D02*
X42058000Y-174046000D01*
X40804000Y-164204000D02*
X42058000Y-165458000D01*
X42074000Y-162934000D02*
X40804000Y-164204000D01*
X42074000Y-153790000D02*
X42074000Y-162934000D01*
X108074000Y-153790000D02*
X108074000Y-162934000D01*
X108074000Y-162934000D02*
X106804000Y-164204000D01*
X106804000Y-164204000D02*
X108058000Y-165458000D01*
X108058000Y-165458000D02*
X108058000Y-174046000D01*
X108058000Y-174046000D02*
X115186000Y-181174000D01*
X76242000Y-147338000D02*
X84218000Y-147338000D01*
X72534000Y-143630000D02*
X76242000Y-147338000D01*
X109242000Y-97338000D02*
X117218000Y-97338000D01*
X105534000Y-93630000D02*
X109242000Y-97338000D01*
X76242000Y-97338000D02*
X84218000Y-97338000D01*
X72534000Y-93630000D02*
X76242000Y-97338000D01*
X43242000Y-97338000D02*
X51218000Y-97338000D01*
X39534000Y-93630000D02*
X43242000Y-97338000D01*
X43242000Y-147338000D02*
X51218000Y-147338000D01*
X39534000Y-143630000D02*
X43242000Y-147338000D01*
X105534000Y-143630000D02*
X109242000Y-147338000D01*
X109242000Y-147338000D02*
X117218000Y-147338000D01*
D17*
G36*
X118471000Y-143412130D02*
X118444130Y-143401000D01*
X117503750Y-143401000D01*
X117345000Y-143559750D01*
X117345000Y-144671000D01*
X117365000Y-144671000D01*
X117365000Y-144925000D01*
X117345000Y-144925000D01*
X117345000Y-144945000D01*
X117091000Y-144945000D01*
X117091000Y-144925000D01*
X115641930Y-144925000D01*
X115483180Y-145083750D01*
X115483180Y-145686309D01*
X115579853Y-145919698D01*
X115758481Y-146098327D01*
X115991870Y-146195000D01*
X116090596Y-146195000D01*
X115858365Y-146350172D01*
X115706135Y-146578000D01*
X109556802Y-146578000D01*
X106888493Y-143909691D01*
X115483180Y-143909691D01*
X115483180Y-144512250D01*
X115641930Y-144671000D01*
X117091000Y-144671000D01*
X117091000Y-143559750D01*
X116932250Y-143401000D01*
X115991870Y-143401000D01*
X115758481Y-143497673D01*
X115579853Y-143676302D01*
X115483180Y-143909691D01*
X106888493Y-143909691D01*
X106569035Y-143590233D01*
X106569179Y-143425029D01*
X106411942Y-143044485D01*
X106121046Y-142753081D01*
X105740777Y-142595180D01*
X105329029Y-142594821D01*
X104948485Y-142752058D01*
X104657081Y-143042954D01*
X104499180Y-143423223D01*
X104498821Y-143834971D01*
X104656058Y-144215515D01*
X104946954Y-144506919D01*
X105327223Y-144664820D01*
X105494164Y-144664966D01*
X108704599Y-147875401D01*
X108951161Y-148040148D01*
X109242000Y-148098000D01*
X115706135Y-148098000D01*
X115858365Y-148325828D01*
X116280664Y-148608000D01*
X115858365Y-148890172D01*
X115555533Y-149343391D01*
X115449193Y-149878000D01*
X115555533Y-150412609D01*
X115858365Y-150865828D01*
X116280664Y-151148000D01*
X115858365Y-151430172D01*
X115555533Y-151883391D01*
X115449193Y-152418000D01*
X115555533Y-152952609D01*
X115858365Y-153405828D01*
X116280664Y-153688000D01*
X115858365Y-153970172D01*
X115555533Y-154423391D01*
X115449193Y-154958000D01*
X115555533Y-155492609D01*
X115858365Y-155945828D01*
X116311584Y-156248660D01*
X116846193Y-156355000D01*
X117589807Y-156355000D01*
X118124416Y-156248660D01*
X118471000Y-156017079D01*
X118471000Y-159486226D01*
X118166910Y-158750273D01*
X117566886Y-158149200D01*
X116782515Y-157823501D01*
X115933211Y-157822760D01*
X115148273Y-158147090D01*
X114547200Y-158747114D01*
X114221501Y-159531485D01*
X114220760Y-160380789D01*
X114545090Y-161165727D01*
X115145114Y-161766800D01*
X115929485Y-162092499D01*
X116778789Y-162093240D01*
X117563727Y-161768910D01*
X118164800Y-161168886D01*
X118471000Y-160431474D01*
X118471000Y-186486226D01*
X118166910Y-185750273D01*
X117566886Y-185149200D01*
X116782515Y-184823501D01*
X115933211Y-184822760D01*
X115148273Y-185147090D01*
X114547200Y-185747114D01*
X114221501Y-186531485D01*
X114220760Y-187380789D01*
X114545090Y-188165727D01*
X115145114Y-188766800D01*
X115882526Y-189073000D01*
X89827774Y-189073000D01*
X90563727Y-188768910D01*
X91164800Y-188168886D01*
X91490499Y-187384515D01*
X91491240Y-186535211D01*
X91444175Y-186421305D01*
X98354674Y-186421305D01*
X98641043Y-187114372D01*
X99170839Y-187645093D01*
X99863405Y-187932672D01*
X100613305Y-187933326D01*
X101306372Y-187646957D01*
X101572472Y-187381320D01*
X104086285Y-187381320D01*
X104215533Y-187674123D01*
X104915806Y-187942388D01*
X105665435Y-187922250D01*
X106264467Y-187674123D01*
X106393715Y-187381320D01*
X105240000Y-186227605D01*
X104086285Y-187381320D01*
X101572472Y-187381320D01*
X101837093Y-187117161D01*
X102124672Y-186424595D01*
X102125283Y-185723806D01*
X103345612Y-185723806D01*
X103365750Y-186473435D01*
X103613877Y-187072467D01*
X103906680Y-187201715D01*
X105060395Y-186048000D01*
X105419605Y-186048000D01*
X106573320Y-187201715D01*
X106866123Y-187072467D01*
X107134388Y-186372194D01*
X107114250Y-185622565D01*
X106866123Y-185023533D01*
X106573320Y-184894285D01*
X105419605Y-186048000D01*
X105060395Y-186048000D01*
X103906680Y-184894285D01*
X103613877Y-185023533D01*
X103345612Y-185723806D01*
X102125283Y-185723806D01*
X102125326Y-185674695D01*
X101838957Y-184981628D01*
X101572475Y-184714680D01*
X104086285Y-184714680D01*
X105240000Y-185868395D01*
X106393715Y-184714680D01*
X106264467Y-184421877D01*
X105564194Y-184153612D01*
X104814565Y-184173750D01*
X104215533Y-184421877D01*
X104086285Y-184714680D01*
X101572475Y-184714680D01*
X101309161Y-184450907D01*
X100616595Y-184163328D01*
X99866695Y-184162674D01*
X99173628Y-184449043D01*
X98642907Y-184978839D01*
X98355328Y-185671405D01*
X98354674Y-186421305D01*
X91444175Y-186421305D01*
X91166910Y-185750273D01*
X90566886Y-185149200D01*
X89782515Y-184823501D01*
X88933211Y-184822760D01*
X88148273Y-185147090D01*
X87547200Y-185747114D01*
X87241000Y-186484526D01*
X87241000Y-182515320D01*
X89246285Y-182515320D01*
X89375533Y-182808123D01*
X90075806Y-183076388D01*
X90825435Y-183056250D01*
X91424467Y-182808123D01*
X91553715Y-182515320D01*
X90400000Y-181361605D01*
X89246285Y-182515320D01*
X87241000Y-182515320D01*
X87241000Y-180857806D01*
X88505612Y-180857806D01*
X88525750Y-181607435D01*
X88773877Y-182206467D01*
X89066680Y-182335715D01*
X90220395Y-181182000D01*
X90579605Y-181182000D01*
X91733320Y-182335715D01*
X92026123Y-182206467D01*
X92294388Y-181506194D01*
X92274250Y-180756565D01*
X92026123Y-180157533D01*
X91733320Y-180028285D01*
X90579605Y-181182000D01*
X90220395Y-181182000D01*
X89066680Y-180028285D01*
X88773877Y-180157533D01*
X88505612Y-180857806D01*
X87241000Y-180857806D01*
X87241000Y-179848680D01*
X89246285Y-179848680D01*
X90400000Y-181002395D01*
X91553715Y-179848680D01*
X91424467Y-179555877D01*
X90724194Y-179287612D01*
X89974565Y-179307750D01*
X89375533Y-179555877D01*
X89246285Y-179848680D01*
X87241000Y-179848680D01*
X87241000Y-176555305D01*
X88514674Y-176555305D01*
X88801043Y-177248372D01*
X89330839Y-177779093D01*
X90023405Y-178066672D01*
X90773305Y-178067326D01*
X91466372Y-177780957D01*
X91997093Y-177251161D01*
X92284672Y-176558595D01*
X92285326Y-175808695D01*
X91998957Y-175115628D01*
X91469161Y-174584907D01*
X90776595Y-174297328D01*
X90026695Y-174296674D01*
X89333628Y-174583043D01*
X88802907Y-175112839D01*
X88515328Y-175805405D01*
X88514674Y-176555305D01*
X87241000Y-176555305D01*
X87241000Y-171370320D01*
X89246285Y-171370320D01*
X89375533Y-171663123D01*
X90075806Y-171931388D01*
X90825435Y-171911250D01*
X91424467Y-171663123D01*
X91553715Y-171370320D01*
X90400000Y-170216605D01*
X89246285Y-171370320D01*
X87241000Y-171370320D01*
X87241000Y-169712806D01*
X88505612Y-169712806D01*
X88525750Y-170462435D01*
X88773877Y-171061467D01*
X89066680Y-171190715D01*
X90220395Y-170037000D01*
X90579605Y-170037000D01*
X91733320Y-171190715D01*
X92026123Y-171061467D01*
X92294388Y-170361194D01*
X92274250Y-169611565D01*
X92026123Y-169012533D01*
X91733320Y-168883285D01*
X90579605Y-170037000D01*
X90220395Y-170037000D01*
X89066680Y-168883285D01*
X88773877Y-169012533D01*
X88505612Y-169712806D01*
X87241000Y-169712806D01*
X87241000Y-168703680D01*
X89246285Y-168703680D01*
X90400000Y-169857395D01*
X91553715Y-168703680D01*
X91424467Y-168410877D01*
X90724194Y-168142612D01*
X89974565Y-168162750D01*
X89375533Y-168410877D01*
X89246285Y-168703680D01*
X87241000Y-168703680D01*
X87241000Y-165410305D01*
X88514674Y-165410305D01*
X88801043Y-166103372D01*
X89330839Y-166634093D01*
X90023405Y-166921672D01*
X90773305Y-166922326D01*
X91466372Y-166635957D01*
X91997093Y-166106161D01*
X92284672Y-165413595D01*
X92285326Y-164663695D01*
X92180077Y-164408971D01*
X105768821Y-164408971D01*
X105926058Y-164789515D01*
X106216954Y-165080919D01*
X106597223Y-165238820D01*
X106764164Y-165238966D01*
X107298000Y-165772802D01*
X107298000Y-174046000D01*
X107355852Y-174336839D01*
X107520599Y-174583401D01*
X113428453Y-180491255D01*
X113301328Y-180797405D01*
X113300674Y-181547305D01*
X113587043Y-182240372D01*
X114116839Y-182771093D01*
X114809405Y-183058672D01*
X115559305Y-183059326D01*
X116252372Y-182772957D01*
X116783093Y-182243161D01*
X117070672Y-181550595D01*
X117071326Y-180800695D01*
X116784957Y-180107628D01*
X116255161Y-179576907D01*
X115562595Y-179289328D01*
X114812695Y-179288674D01*
X114503311Y-179416509D01*
X108818000Y-173731198D01*
X108818000Y-165458000D01*
X108760148Y-165167161D01*
X108595401Y-164920599D01*
X107878802Y-164204000D01*
X108611401Y-163471401D01*
X108776148Y-163224840D01*
X108834000Y-162934000D01*
X108834000Y-156476911D01*
X109137223Y-156602820D01*
X109304164Y-156602966D01*
X110616000Y-157914802D01*
X110616000Y-172364000D01*
X110673852Y-172654839D01*
X110838599Y-172901401D01*
X113428453Y-175491255D01*
X113301328Y-175797405D01*
X113300674Y-176547305D01*
X113587043Y-177240372D01*
X114116839Y-177771093D01*
X114809405Y-178058672D01*
X115559305Y-178059326D01*
X116252372Y-177772957D01*
X116783093Y-177243161D01*
X117070672Y-176550595D01*
X117071326Y-175800695D01*
X116784957Y-175107628D01*
X116255161Y-174576907D01*
X115562595Y-174289328D01*
X114812695Y-174288674D01*
X114503311Y-174416509D01*
X112136000Y-172049198D01*
X112136000Y-171339320D01*
X114032285Y-171339320D01*
X114161533Y-171632123D01*
X114861806Y-171900388D01*
X115611435Y-171880250D01*
X116210467Y-171632123D01*
X116339715Y-171339320D01*
X115186000Y-170185605D01*
X114032285Y-171339320D01*
X112136000Y-171339320D01*
X112136000Y-169681806D01*
X113291612Y-169681806D01*
X113311750Y-170431435D01*
X113559877Y-171030467D01*
X113852680Y-171159715D01*
X115006395Y-170006000D01*
X115365605Y-170006000D01*
X116519320Y-171159715D01*
X116812123Y-171030467D01*
X117080388Y-170330194D01*
X117060250Y-169580565D01*
X116812123Y-168981533D01*
X116519320Y-168852285D01*
X115365605Y-170006000D01*
X115006395Y-170006000D01*
X113852680Y-168852285D01*
X113559877Y-168981533D01*
X113291612Y-169681806D01*
X112136000Y-169681806D01*
X112136000Y-168672680D01*
X114032285Y-168672680D01*
X115186000Y-169826395D01*
X116339715Y-168672680D01*
X116210467Y-168379877D01*
X115510194Y-168111612D01*
X114760565Y-168131750D01*
X114161533Y-168379877D01*
X114032285Y-168672680D01*
X112136000Y-168672680D01*
X112136000Y-165379305D01*
X113300674Y-165379305D01*
X113587043Y-166072372D01*
X114116839Y-166603093D01*
X114809405Y-166890672D01*
X115559305Y-166891326D01*
X116252372Y-166604957D01*
X116783093Y-166075161D01*
X117070672Y-165382595D01*
X117071326Y-164632695D01*
X116784957Y-163939628D01*
X116255161Y-163408907D01*
X115562595Y-163121328D01*
X114812695Y-163120674D01*
X114119628Y-163407043D01*
X113588907Y-163936839D01*
X113301328Y-164629405D01*
X113300674Y-165379305D01*
X112136000Y-165379305D01*
X112136000Y-157600000D01*
X112078148Y-157309161D01*
X111913401Y-157062599D01*
X110379035Y-155528233D01*
X110379179Y-155363029D01*
X110221942Y-154982485D01*
X109931046Y-154691081D01*
X109550777Y-154533180D01*
X109139029Y-154532821D01*
X108834000Y-154658856D01*
X108834000Y-154493761D01*
X108950919Y-154377046D01*
X109108820Y-153996777D01*
X109109179Y-153585029D01*
X108951942Y-153204485D01*
X108661046Y-152913081D01*
X108280777Y-152755180D01*
X107869029Y-152754821D01*
X107488485Y-152912058D01*
X107197081Y-153202954D01*
X107039180Y-153583223D01*
X107038821Y-153994971D01*
X107196058Y-154375515D01*
X107314000Y-154493663D01*
X107314000Y-162619198D01*
X106764233Y-163168965D01*
X106599029Y-163168821D01*
X106218485Y-163326058D01*
X105927081Y-163616954D01*
X105769180Y-163997223D01*
X105768821Y-164408971D01*
X92180077Y-164408971D01*
X91998957Y-163970628D01*
X91469161Y-163439907D01*
X90776595Y-163152328D01*
X90026695Y-163151674D01*
X89333628Y-163438043D01*
X88802907Y-163967839D01*
X88515328Y-164660405D01*
X88514674Y-165410305D01*
X87241000Y-165410305D01*
X87241000Y-160429774D01*
X87545090Y-161165727D01*
X88145114Y-161766800D01*
X88929485Y-162092499D01*
X89778789Y-162093240D01*
X90563727Y-161768910D01*
X91164800Y-161168886D01*
X91490499Y-160384515D01*
X91491240Y-159535211D01*
X91166910Y-158750273D01*
X90566886Y-158149200D01*
X89782515Y-157823501D01*
X88933211Y-157822760D01*
X88148273Y-158147090D01*
X87547200Y-158747114D01*
X87241000Y-159484526D01*
X87241000Y-146678931D01*
X99343691Y-146678931D01*
X99377158Y-147089318D01*
X99465103Y-147301635D01*
X99343691Y-147678931D01*
X99377158Y-148089318D01*
X99465103Y-148301635D01*
X99343691Y-148678931D01*
X99377158Y-149089318D01*
X99465103Y-149301635D01*
X99343691Y-149678931D01*
X99377158Y-150089318D01*
X99465103Y-150301635D01*
X99343691Y-150678931D01*
X99377158Y-151089318D01*
X99469820Y-151313023D01*
X99674650Y-151337745D01*
X100190098Y-150822297D01*
X100270931Y-150848309D01*
X100356932Y-150841296D01*
X100370005Y-151001600D01*
X99854255Y-151517350D01*
X99878977Y-151722180D01*
X100270931Y-151848309D01*
X100681318Y-151814842D01*
X100893635Y-151726897D01*
X101270931Y-151848309D01*
X101681318Y-151814842D01*
X101893635Y-151726897D01*
X102270931Y-151848309D01*
X102681318Y-151814842D01*
X102893635Y-151726897D01*
X103270931Y-151848309D01*
X103681318Y-151814842D01*
X103893635Y-151726897D01*
X104270931Y-151848309D01*
X104681318Y-151814842D01*
X104905023Y-151722180D01*
X104929745Y-151517350D01*
X104414297Y-151001902D01*
X104440309Y-150921069D01*
X104433296Y-150835068D01*
X104593600Y-150821995D01*
X105109350Y-151337745D01*
X105314180Y-151313023D01*
X105440309Y-150921069D01*
X105406842Y-150510682D01*
X105318897Y-150298365D01*
X105440309Y-149921069D01*
X105406842Y-149510682D01*
X105318897Y-149298365D01*
X105440309Y-148921069D01*
X105406842Y-148510682D01*
X105318897Y-148298365D01*
X105440309Y-147921069D01*
X105406842Y-147510682D01*
X105318897Y-147298365D01*
X105440309Y-146921069D01*
X105406842Y-146510682D01*
X105314180Y-146286977D01*
X105109350Y-146262255D01*
X104593902Y-146777703D01*
X104513069Y-146751691D01*
X104427068Y-146758704D01*
X104413995Y-146598400D01*
X104929745Y-146082650D01*
X104905023Y-145877820D01*
X104513069Y-145751691D01*
X104102682Y-145785158D01*
X103890365Y-145873103D01*
X103513069Y-145751691D01*
X103102682Y-145785158D01*
X102890365Y-145873103D01*
X102513069Y-145751691D01*
X102102682Y-145785158D01*
X101890365Y-145873103D01*
X101513069Y-145751691D01*
X101102682Y-145785158D01*
X100890365Y-145873103D01*
X100513069Y-145751691D01*
X100102682Y-145785158D01*
X99878977Y-145877820D01*
X99854255Y-146082650D01*
X100369703Y-146598098D01*
X100343691Y-146678931D01*
X100350704Y-146764932D01*
X100190400Y-146778005D01*
X99674650Y-146262255D01*
X99469820Y-146286977D01*
X99343691Y-146678931D01*
X87241000Y-146678931D01*
X87241000Y-140843000D01*
X118471000Y-140843000D01*
X118471000Y-143412130D01*
X118471000Y-143412130D01*
G37*
X118471000Y-143412130D02*
X118444130Y-143401000D01*
X117503750Y-143401000D01*
X117345000Y-143559750D01*
X117345000Y-144671000D01*
X117365000Y-144671000D01*
X117365000Y-144925000D01*
X117345000Y-144925000D01*
X117345000Y-144945000D01*
X117091000Y-144945000D01*
X117091000Y-144925000D01*
X115641930Y-144925000D01*
X115483180Y-145083750D01*
X115483180Y-145686309D01*
X115579853Y-145919698D01*
X115758481Y-146098327D01*
X115991870Y-146195000D01*
X116090596Y-146195000D01*
X115858365Y-146350172D01*
X115706135Y-146578000D01*
X109556802Y-146578000D01*
X106888493Y-143909691D01*
X115483180Y-143909691D01*
X115483180Y-144512250D01*
X115641930Y-144671000D01*
X117091000Y-144671000D01*
X117091000Y-143559750D01*
X116932250Y-143401000D01*
X115991870Y-143401000D01*
X115758481Y-143497673D01*
X115579853Y-143676302D01*
X115483180Y-143909691D01*
X106888493Y-143909691D01*
X106569035Y-143590233D01*
X106569179Y-143425029D01*
X106411942Y-143044485D01*
X106121046Y-142753081D01*
X105740777Y-142595180D01*
X105329029Y-142594821D01*
X104948485Y-142752058D01*
X104657081Y-143042954D01*
X104499180Y-143423223D01*
X104498821Y-143834971D01*
X104656058Y-144215515D01*
X104946954Y-144506919D01*
X105327223Y-144664820D01*
X105494164Y-144664966D01*
X108704599Y-147875401D01*
X108951161Y-148040148D01*
X109242000Y-148098000D01*
X115706135Y-148098000D01*
X115858365Y-148325828D01*
X116280664Y-148608000D01*
X115858365Y-148890172D01*
X115555533Y-149343391D01*
X115449193Y-149878000D01*
X115555533Y-150412609D01*
X115858365Y-150865828D01*
X116280664Y-151148000D01*
X115858365Y-151430172D01*
X115555533Y-151883391D01*
X115449193Y-152418000D01*
X115555533Y-152952609D01*
X115858365Y-153405828D01*
X116280664Y-153688000D01*
X115858365Y-153970172D01*
X115555533Y-154423391D01*
X115449193Y-154958000D01*
X115555533Y-155492609D01*
X115858365Y-155945828D01*
X116311584Y-156248660D01*
X116846193Y-156355000D01*
X117589807Y-156355000D01*
X118124416Y-156248660D01*
X118471000Y-156017079D01*
X118471000Y-159486226D01*
X118166910Y-158750273D01*
X117566886Y-158149200D01*
X116782515Y-157823501D01*
X115933211Y-157822760D01*
X115148273Y-158147090D01*
X114547200Y-158747114D01*
X114221501Y-159531485D01*
X114220760Y-160380789D01*
X114545090Y-161165727D01*
X115145114Y-161766800D01*
X115929485Y-162092499D01*
X116778789Y-162093240D01*
X117563727Y-161768910D01*
X118164800Y-161168886D01*
X118471000Y-160431474D01*
X118471000Y-186486226D01*
X118166910Y-185750273D01*
X117566886Y-185149200D01*
X116782515Y-184823501D01*
X115933211Y-184822760D01*
X115148273Y-185147090D01*
X114547200Y-185747114D01*
X114221501Y-186531485D01*
X114220760Y-187380789D01*
X114545090Y-188165727D01*
X115145114Y-188766800D01*
X115882526Y-189073000D01*
X89827774Y-189073000D01*
X90563727Y-188768910D01*
X91164800Y-188168886D01*
X91490499Y-187384515D01*
X91491240Y-186535211D01*
X91444175Y-186421305D01*
X98354674Y-186421305D01*
X98641043Y-187114372D01*
X99170839Y-187645093D01*
X99863405Y-187932672D01*
X100613305Y-187933326D01*
X101306372Y-187646957D01*
X101572472Y-187381320D01*
X104086285Y-187381320D01*
X104215533Y-187674123D01*
X104915806Y-187942388D01*
X105665435Y-187922250D01*
X106264467Y-187674123D01*
X106393715Y-187381320D01*
X105240000Y-186227605D01*
X104086285Y-187381320D01*
X101572472Y-187381320D01*
X101837093Y-187117161D01*
X102124672Y-186424595D01*
X102125283Y-185723806D01*
X103345612Y-185723806D01*
X103365750Y-186473435D01*
X103613877Y-187072467D01*
X103906680Y-187201715D01*
X105060395Y-186048000D01*
X105419605Y-186048000D01*
X106573320Y-187201715D01*
X106866123Y-187072467D01*
X107134388Y-186372194D01*
X107114250Y-185622565D01*
X106866123Y-185023533D01*
X106573320Y-184894285D01*
X105419605Y-186048000D01*
X105060395Y-186048000D01*
X103906680Y-184894285D01*
X103613877Y-185023533D01*
X103345612Y-185723806D01*
X102125283Y-185723806D01*
X102125326Y-185674695D01*
X101838957Y-184981628D01*
X101572475Y-184714680D01*
X104086285Y-184714680D01*
X105240000Y-185868395D01*
X106393715Y-184714680D01*
X106264467Y-184421877D01*
X105564194Y-184153612D01*
X104814565Y-184173750D01*
X104215533Y-184421877D01*
X104086285Y-184714680D01*
X101572475Y-184714680D01*
X101309161Y-184450907D01*
X100616595Y-184163328D01*
X99866695Y-184162674D01*
X99173628Y-184449043D01*
X98642907Y-184978839D01*
X98355328Y-185671405D01*
X98354674Y-186421305D01*
X91444175Y-186421305D01*
X91166910Y-185750273D01*
X90566886Y-185149200D01*
X89782515Y-184823501D01*
X88933211Y-184822760D01*
X88148273Y-185147090D01*
X87547200Y-185747114D01*
X87241000Y-186484526D01*
X87241000Y-182515320D01*
X89246285Y-182515320D01*
X89375533Y-182808123D01*
X90075806Y-183076388D01*
X90825435Y-183056250D01*
X91424467Y-182808123D01*
X91553715Y-182515320D01*
X90400000Y-181361605D01*
X89246285Y-182515320D01*
X87241000Y-182515320D01*
X87241000Y-180857806D01*
X88505612Y-180857806D01*
X88525750Y-181607435D01*
X88773877Y-182206467D01*
X89066680Y-182335715D01*
X90220395Y-181182000D01*
X90579605Y-181182000D01*
X91733320Y-182335715D01*
X92026123Y-182206467D01*
X92294388Y-181506194D01*
X92274250Y-180756565D01*
X92026123Y-180157533D01*
X91733320Y-180028285D01*
X90579605Y-181182000D01*
X90220395Y-181182000D01*
X89066680Y-180028285D01*
X88773877Y-180157533D01*
X88505612Y-180857806D01*
X87241000Y-180857806D01*
X87241000Y-179848680D01*
X89246285Y-179848680D01*
X90400000Y-181002395D01*
X91553715Y-179848680D01*
X91424467Y-179555877D01*
X90724194Y-179287612D01*
X89974565Y-179307750D01*
X89375533Y-179555877D01*
X89246285Y-179848680D01*
X87241000Y-179848680D01*
X87241000Y-176555305D01*
X88514674Y-176555305D01*
X88801043Y-177248372D01*
X89330839Y-177779093D01*
X90023405Y-178066672D01*
X90773305Y-178067326D01*
X91466372Y-177780957D01*
X91997093Y-177251161D01*
X92284672Y-176558595D01*
X92285326Y-175808695D01*
X91998957Y-175115628D01*
X91469161Y-174584907D01*
X90776595Y-174297328D01*
X90026695Y-174296674D01*
X89333628Y-174583043D01*
X88802907Y-175112839D01*
X88515328Y-175805405D01*
X88514674Y-176555305D01*
X87241000Y-176555305D01*
X87241000Y-171370320D01*
X89246285Y-171370320D01*
X89375533Y-171663123D01*
X90075806Y-171931388D01*
X90825435Y-171911250D01*
X91424467Y-171663123D01*
X91553715Y-171370320D01*
X90400000Y-170216605D01*
X89246285Y-171370320D01*
X87241000Y-171370320D01*
X87241000Y-169712806D01*
X88505612Y-169712806D01*
X88525750Y-170462435D01*
X88773877Y-171061467D01*
X89066680Y-171190715D01*
X90220395Y-170037000D01*
X90579605Y-170037000D01*
X91733320Y-171190715D01*
X92026123Y-171061467D01*
X92294388Y-170361194D01*
X92274250Y-169611565D01*
X92026123Y-169012533D01*
X91733320Y-168883285D01*
X90579605Y-170037000D01*
X90220395Y-170037000D01*
X89066680Y-168883285D01*
X88773877Y-169012533D01*
X88505612Y-169712806D01*
X87241000Y-169712806D01*
X87241000Y-168703680D01*
X89246285Y-168703680D01*
X90400000Y-169857395D01*
X91553715Y-168703680D01*
X91424467Y-168410877D01*
X90724194Y-168142612D01*
X89974565Y-168162750D01*
X89375533Y-168410877D01*
X89246285Y-168703680D01*
X87241000Y-168703680D01*
X87241000Y-165410305D01*
X88514674Y-165410305D01*
X88801043Y-166103372D01*
X89330839Y-166634093D01*
X90023405Y-166921672D01*
X90773305Y-166922326D01*
X91466372Y-166635957D01*
X91997093Y-166106161D01*
X92284672Y-165413595D01*
X92285326Y-164663695D01*
X92180077Y-164408971D01*
X105768821Y-164408971D01*
X105926058Y-164789515D01*
X106216954Y-165080919D01*
X106597223Y-165238820D01*
X106764164Y-165238966D01*
X107298000Y-165772802D01*
X107298000Y-174046000D01*
X107355852Y-174336839D01*
X107520599Y-174583401D01*
X113428453Y-180491255D01*
X113301328Y-180797405D01*
X113300674Y-181547305D01*
X113587043Y-182240372D01*
X114116839Y-182771093D01*
X114809405Y-183058672D01*
X115559305Y-183059326D01*
X116252372Y-182772957D01*
X116783093Y-182243161D01*
X117070672Y-181550595D01*
X117071326Y-180800695D01*
X116784957Y-180107628D01*
X116255161Y-179576907D01*
X115562595Y-179289328D01*
X114812695Y-179288674D01*
X114503311Y-179416509D01*
X108818000Y-173731198D01*
X108818000Y-165458000D01*
X108760148Y-165167161D01*
X108595401Y-164920599D01*
X107878802Y-164204000D01*
X108611401Y-163471401D01*
X108776148Y-163224840D01*
X108834000Y-162934000D01*
X108834000Y-156476911D01*
X109137223Y-156602820D01*
X109304164Y-156602966D01*
X110616000Y-157914802D01*
X110616000Y-172364000D01*
X110673852Y-172654839D01*
X110838599Y-172901401D01*
X113428453Y-175491255D01*
X113301328Y-175797405D01*
X113300674Y-176547305D01*
X113587043Y-177240372D01*
X114116839Y-177771093D01*
X114809405Y-178058672D01*
X115559305Y-178059326D01*
X116252372Y-177772957D01*
X116783093Y-177243161D01*
X117070672Y-176550595D01*
X117071326Y-175800695D01*
X116784957Y-175107628D01*
X116255161Y-174576907D01*
X115562595Y-174289328D01*
X114812695Y-174288674D01*
X114503311Y-174416509D01*
X112136000Y-172049198D01*
X112136000Y-171339320D01*
X114032285Y-171339320D01*
X114161533Y-171632123D01*
X114861806Y-171900388D01*
X115611435Y-171880250D01*
X116210467Y-171632123D01*
X116339715Y-171339320D01*
X115186000Y-170185605D01*
X114032285Y-171339320D01*
X112136000Y-171339320D01*
X112136000Y-169681806D01*
X113291612Y-169681806D01*
X113311750Y-170431435D01*
X113559877Y-171030467D01*
X113852680Y-171159715D01*
X115006395Y-170006000D01*
X115365605Y-170006000D01*
X116519320Y-171159715D01*
X116812123Y-171030467D01*
X117080388Y-170330194D01*
X117060250Y-169580565D01*
X116812123Y-168981533D01*
X116519320Y-168852285D01*
X115365605Y-170006000D01*
X115006395Y-170006000D01*
X113852680Y-168852285D01*
X113559877Y-168981533D01*
X113291612Y-169681806D01*
X112136000Y-169681806D01*
X112136000Y-168672680D01*
X114032285Y-168672680D01*
X115186000Y-169826395D01*
X116339715Y-168672680D01*
X116210467Y-168379877D01*
X115510194Y-168111612D01*
X114760565Y-168131750D01*
X114161533Y-168379877D01*
X114032285Y-168672680D01*
X112136000Y-168672680D01*
X112136000Y-165379305D01*
X113300674Y-165379305D01*
X113587043Y-166072372D01*
X114116839Y-166603093D01*
X114809405Y-166890672D01*
X115559305Y-166891326D01*
X116252372Y-166604957D01*
X116783093Y-166075161D01*
X117070672Y-165382595D01*
X117071326Y-164632695D01*
X116784957Y-163939628D01*
X116255161Y-163408907D01*
X115562595Y-163121328D01*
X114812695Y-163120674D01*
X114119628Y-163407043D01*
X113588907Y-163936839D01*
X113301328Y-164629405D01*
X113300674Y-165379305D01*
X112136000Y-165379305D01*
X112136000Y-157600000D01*
X112078148Y-157309161D01*
X111913401Y-157062599D01*
X110379035Y-155528233D01*
X110379179Y-155363029D01*
X110221942Y-154982485D01*
X109931046Y-154691081D01*
X109550777Y-154533180D01*
X109139029Y-154532821D01*
X108834000Y-154658856D01*
X108834000Y-154493761D01*
X108950919Y-154377046D01*
X109108820Y-153996777D01*
X109109179Y-153585029D01*
X108951942Y-153204485D01*
X108661046Y-152913081D01*
X108280777Y-152755180D01*
X107869029Y-152754821D01*
X107488485Y-152912058D01*
X107197081Y-153202954D01*
X107039180Y-153583223D01*
X107038821Y-153994971D01*
X107196058Y-154375515D01*
X107314000Y-154493663D01*
X107314000Y-162619198D01*
X106764233Y-163168965D01*
X106599029Y-163168821D01*
X106218485Y-163326058D01*
X105927081Y-163616954D01*
X105769180Y-163997223D01*
X105768821Y-164408971D01*
X92180077Y-164408971D01*
X91998957Y-163970628D01*
X91469161Y-163439907D01*
X90776595Y-163152328D01*
X90026695Y-163151674D01*
X89333628Y-163438043D01*
X88802907Y-163967839D01*
X88515328Y-164660405D01*
X88514674Y-165410305D01*
X87241000Y-165410305D01*
X87241000Y-160429774D01*
X87545090Y-161165727D01*
X88145114Y-161766800D01*
X88929485Y-162092499D01*
X89778789Y-162093240D01*
X90563727Y-161768910D01*
X91164800Y-161168886D01*
X91490499Y-160384515D01*
X91491240Y-159535211D01*
X91166910Y-158750273D01*
X90566886Y-158149200D01*
X89782515Y-157823501D01*
X88933211Y-157822760D01*
X88148273Y-158147090D01*
X87547200Y-158747114D01*
X87241000Y-159484526D01*
X87241000Y-146678931D01*
X99343691Y-146678931D01*
X99377158Y-147089318D01*
X99465103Y-147301635D01*
X99343691Y-147678931D01*
X99377158Y-148089318D01*
X99465103Y-148301635D01*
X99343691Y-148678931D01*
X99377158Y-149089318D01*
X99465103Y-149301635D01*
X99343691Y-149678931D01*
X99377158Y-150089318D01*
X99465103Y-150301635D01*
X99343691Y-150678931D01*
X99377158Y-151089318D01*
X99469820Y-151313023D01*
X99674650Y-151337745D01*
X100190098Y-150822297D01*
X100270931Y-150848309D01*
X100356932Y-150841296D01*
X100370005Y-151001600D01*
X99854255Y-151517350D01*
X99878977Y-151722180D01*
X100270931Y-151848309D01*
X100681318Y-151814842D01*
X100893635Y-151726897D01*
X101270931Y-151848309D01*
X101681318Y-151814842D01*
X101893635Y-151726897D01*
X102270931Y-151848309D01*
X102681318Y-151814842D01*
X102893635Y-151726897D01*
X103270931Y-151848309D01*
X103681318Y-151814842D01*
X103893635Y-151726897D01*
X104270931Y-151848309D01*
X104681318Y-151814842D01*
X104905023Y-151722180D01*
X104929745Y-151517350D01*
X104414297Y-151001902D01*
X104440309Y-150921069D01*
X104433296Y-150835068D01*
X104593600Y-150821995D01*
X105109350Y-151337745D01*
X105314180Y-151313023D01*
X105440309Y-150921069D01*
X105406842Y-150510682D01*
X105318897Y-150298365D01*
X105440309Y-149921069D01*
X105406842Y-149510682D01*
X105318897Y-149298365D01*
X105440309Y-148921069D01*
X105406842Y-148510682D01*
X105318897Y-148298365D01*
X105440309Y-147921069D01*
X105406842Y-147510682D01*
X105318897Y-147298365D01*
X105440309Y-146921069D01*
X105406842Y-146510682D01*
X105314180Y-146286977D01*
X105109350Y-146262255D01*
X104593902Y-146777703D01*
X104513069Y-146751691D01*
X104427068Y-146758704D01*
X104413995Y-146598400D01*
X104929745Y-146082650D01*
X104905023Y-145877820D01*
X104513069Y-145751691D01*
X104102682Y-145785158D01*
X103890365Y-145873103D01*
X103513069Y-145751691D01*
X103102682Y-145785158D01*
X102890365Y-145873103D01*
X102513069Y-145751691D01*
X102102682Y-145785158D01*
X101890365Y-145873103D01*
X101513069Y-145751691D01*
X101102682Y-145785158D01*
X100890365Y-145873103D01*
X100513069Y-145751691D01*
X100102682Y-145785158D01*
X99878977Y-145877820D01*
X99854255Y-146082650D01*
X100369703Y-146598098D01*
X100343691Y-146678931D01*
X100350704Y-146764932D01*
X100190400Y-146778005D01*
X99674650Y-146262255D01*
X99469820Y-146286977D01*
X99343691Y-146678931D01*
X87241000Y-146678931D01*
X87241000Y-140843000D01*
X118471000Y-140843000D01*
X118471000Y-143412130D01*
G36*
X52471000Y-143412130D02*
X52444130Y-143401000D01*
X51503750Y-143401000D01*
X51345000Y-143559750D01*
X51345000Y-144671000D01*
X51365000Y-144671000D01*
X51365000Y-144925000D01*
X51345000Y-144925000D01*
X51345000Y-144945000D01*
X51091000Y-144945000D01*
X51091000Y-144925000D01*
X49641930Y-144925000D01*
X49483180Y-145083750D01*
X49483180Y-145686309D01*
X49579853Y-145919698D01*
X49758481Y-146098327D01*
X49991870Y-146195000D01*
X50090596Y-146195000D01*
X49858365Y-146350172D01*
X49706135Y-146578000D01*
X43556802Y-146578000D01*
X40888493Y-143909691D01*
X49483180Y-143909691D01*
X49483180Y-144512250D01*
X49641930Y-144671000D01*
X51091000Y-144671000D01*
X51091000Y-143559750D01*
X50932250Y-143401000D01*
X49991870Y-143401000D01*
X49758481Y-143497673D01*
X49579853Y-143676302D01*
X49483180Y-143909691D01*
X40888493Y-143909691D01*
X40569035Y-143590233D01*
X40569179Y-143425029D01*
X40411942Y-143044485D01*
X40121046Y-142753081D01*
X39740777Y-142595180D01*
X39329029Y-142594821D01*
X38948485Y-142752058D01*
X38657081Y-143042954D01*
X38499180Y-143423223D01*
X38498821Y-143834971D01*
X38656058Y-144215515D01*
X38946954Y-144506919D01*
X39327223Y-144664820D01*
X39494164Y-144664966D01*
X42704599Y-147875401D01*
X42951161Y-148040148D01*
X43242000Y-148098000D01*
X49706135Y-148098000D01*
X49858365Y-148325828D01*
X50280664Y-148608000D01*
X49858365Y-148890172D01*
X49555533Y-149343391D01*
X49449193Y-149878000D01*
X49555533Y-150412609D01*
X49858365Y-150865828D01*
X50280664Y-151148000D01*
X49858365Y-151430172D01*
X49555533Y-151883391D01*
X49449193Y-152418000D01*
X49555533Y-152952609D01*
X49858365Y-153405828D01*
X50280664Y-153688000D01*
X49858365Y-153970172D01*
X49555533Y-154423391D01*
X49449193Y-154958000D01*
X49555533Y-155492609D01*
X49858365Y-155945828D01*
X50311584Y-156248660D01*
X50846193Y-156355000D01*
X51589807Y-156355000D01*
X52124416Y-156248660D01*
X52471000Y-156017079D01*
X52471000Y-159486226D01*
X52166910Y-158750273D01*
X51566886Y-158149200D01*
X50782515Y-157823501D01*
X49933211Y-157822760D01*
X49148273Y-158147090D01*
X48547200Y-158747114D01*
X48221501Y-159531485D01*
X48220760Y-160380789D01*
X48545090Y-161165727D01*
X49145114Y-161766800D01*
X49929485Y-162092499D01*
X50778789Y-162093240D01*
X51563727Y-161768910D01*
X52164800Y-161168886D01*
X52471000Y-160431474D01*
X52471000Y-186486226D01*
X52166910Y-185750273D01*
X51566886Y-185149200D01*
X50782515Y-184823501D01*
X49933211Y-184822760D01*
X49148273Y-185147090D01*
X48547200Y-185747114D01*
X48221501Y-186531485D01*
X48220760Y-187380789D01*
X48545090Y-188165727D01*
X49145114Y-188766800D01*
X49882526Y-189073000D01*
X23827774Y-189073000D01*
X24563727Y-188768910D01*
X25164800Y-188168886D01*
X25490499Y-187384515D01*
X25491240Y-186535211D01*
X25444175Y-186421305D01*
X32354674Y-186421305D01*
X32641043Y-187114372D01*
X33170839Y-187645093D01*
X33863405Y-187932672D01*
X34613305Y-187933326D01*
X35306372Y-187646957D01*
X35572472Y-187381320D01*
X38086285Y-187381320D01*
X38215533Y-187674123D01*
X38915806Y-187942388D01*
X39665435Y-187922250D01*
X40264467Y-187674123D01*
X40393715Y-187381320D01*
X39240000Y-186227605D01*
X38086285Y-187381320D01*
X35572472Y-187381320D01*
X35837093Y-187117161D01*
X36124672Y-186424595D01*
X36125283Y-185723806D01*
X37345612Y-185723806D01*
X37365750Y-186473435D01*
X37613877Y-187072467D01*
X37906680Y-187201715D01*
X39060395Y-186048000D01*
X39419605Y-186048000D01*
X40573320Y-187201715D01*
X40866123Y-187072467D01*
X41134388Y-186372194D01*
X41114250Y-185622565D01*
X40866123Y-185023533D01*
X40573320Y-184894285D01*
X39419605Y-186048000D01*
X39060395Y-186048000D01*
X37906680Y-184894285D01*
X37613877Y-185023533D01*
X37345612Y-185723806D01*
X36125283Y-185723806D01*
X36125326Y-185674695D01*
X35838957Y-184981628D01*
X35572475Y-184714680D01*
X38086285Y-184714680D01*
X39240000Y-185868395D01*
X40393715Y-184714680D01*
X40264467Y-184421877D01*
X39564194Y-184153612D01*
X38814565Y-184173750D01*
X38215533Y-184421877D01*
X38086285Y-184714680D01*
X35572475Y-184714680D01*
X35309161Y-184450907D01*
X34616595Y-184163328D01*
X33866695Y-184162674D01*
X33173628Y-184449043D01*
X32642907Y-184978839D01*
X32355328Y-185671405D01*
X32354674Y-186421305D01*
X25444175Y-186421305D01*
X25166910Y-185750273D01*
X24566886Y-185149200D01*
X23782515Y-184823501D01*
X22933211Y-184822760D01*
X22148273Y-185147090D01*
X21547200Y-185747114D01*
X21241000Y-186484526D01*
X21241000Y-182515320D01*
X23246285Y-182515320D01*
X23375533Y-182808123D01*
X24075806Y-183076388D01*
X24825435Y-183056250D01*
X25424467Y-182808123D01*
X25553715Y-182515320D01*
X24400000Y-181361605D01*
X23246285Y-182515320D01*
X21241000Y-182515320D01*
X21241000Y-180857806D01*
X22505612Y-180857806D01*
X22525750Y-181607435D01*
X22773877Y-182206467D01*
X23066680Y-182335715D01*
X24220395Y-181182000D01*
X24579605Y-181182000D01*
X25733320Y-182335715D01*
X26026123Y-182206467D01*
X26294388Y-181506194D01*
X26274250Y-180756565D01*
X26026123Y-180157533D01*
X25733320Y-180028285D01*
X24579605Y-181182000D01*
X24220395Y-181182000D01*
X23066680Y-180028285D01*
X22773877Y-180157533D01*
X22505612Y-180857806D01*
X21241000Y-180857806D01*
X21241000Y-179848680D01*
X23246285Y-179848680D01*
X24400000Y-181002395D01*
X25553715Y-179848680D01*
X25424467Y-179555877D01*
X24724194Y-179287612D01*
X23974565Y-179307750D01*
X23375533Y-179555877D01*
X23246285Y-179848680D01*
X21241000Y-179848680D01*
X21241000Y-176555305D01*
X22514674Y-176555305D01*
X22801043Y-177248372D01*
X23330839Y-177779093D01*
X24023405Y-178066672D01*
X24773305Y-178067326D01*
X25466372Y-177780957D01*
X25997093Y-177251161D01*
X26284672Y-176558595D01*
X26285326Y-175808695D01*
X25998957Y-175115628D01*
X25469161Y-174584907D01*
X24776595Y-174297328D01*
X24026695Y-174296674D01*
X23333628Y-174583043D01*
X22802907Y-175112839D01*
X22515328Y-175805405D01*
X22514674Y-176555305D01*
X21241000Y-176555305D01*
X21241000Y-171370320D01*
X23246285Y-171370320D01*
X23375533Y-171663123D01*
X24075806Y-171931388D01*
X24825435Y-171911250D01*
X25424467Y-171663123D01*
X25553715Y-171370320D01*
X24400000Y-170216605D01*
X23246285Y-171370320D01*
X21241000Y-171370320D01*
X21241000Y-169712806D01*
X22505612Y-169712806D01*
X22525750Y-170462435D01*
X22773877Y-171061467D01*
X23066680Y-171190715D01*
X24220395Y-170037000D01*
X24579605Y-170037000D01*
X25733320Y-171190715D01*
X26026123Y-171061467D01*
X26294388Y-170361194D01*
X26274250Y-169611565D01*
X26026123Y-169012533D01*
X25733320Y-168883285D01*
X24579605Y-170037000D01*
X24220395Y-170037000D01*
X23066680Y-168883285D01*
X22773877Y-169012533D01*
X22505612Y-169712806D01*
X21241000Y-169712806D01*
X21241000Y-168703680D01*
X23246285Y-168703680D01*
X24400000Y-169857395D01*
X25553715Y-168703680D01*
X25424467Y-168410877D01*
X24724194Y-168142612D01*
X23974565Y-168162750D01*
X23375533Y-168410877D01*
X23246285Y-168703680D01*
X21241000Y-168703680D01*
X21241000Y-165410305D01*
X22514674Y-165410305D01*
X22801043Y-166103372D01*
X23330839Y-166634093D01*
X24023405Y-166921672D01*
X24773305Y-166922326D01*
X25466372Y-166635957D01*
X25997093Y-166106161D01*
X26284672Y-165413595D01*
X26285326Y-164663695D01*
X26180077Y-164408971D01*
X39768821Y-164408971D01*
X39926058Y-164789515D01*
X40216954Y-165080919D01*
X40597223Y-165238820D01*
X40764164Y-165238966D01*
X41298000Y-165772802D01*
X41298000Y-174046000D01*
X41355852Y-174336839D01*
X41520599Y-174583401D01*
X47428453Y-180491255D01*
X47301328Y-180797405D01*
X47300674Y-181547305D01*
X47587043Y-182240372D01*
X48116839Y-182771093D01*
X48809405Y-183058672D01*
X49559305Y-183059326D01*
X50252372Y-182772957D01*
X50783093Y-182243161D01*
X51070672Y-181550595D01*
X51071326Y-180800695D01*
X50784957Y-180107628D01*
X50255161Y-179576907D01*
X49562595Y-179289328D01*
X48812695Y-179288674D01*
X48503311Y-179416509D01*
X42818000Y-173731198D01*
X42818000Y-165458000D01*
X42760148Y-165167161D01*
X42595401Y-164920599D01*
X41878802Y-164204000D01*
X42611401Y-163471401D01*
X42776148Y-163224840D01*
X42834000Y-162934000D01*
X42834000Y-156476911D01*
X43137223Y-156602820D01*
X43304164Y-156602966D01*
X44616000Y-157914802D01*
X44616000Y-172364000D01*
X44673852Y-172654839D01*
X44838599Y-172901401D01*
X47428453Y-175491255D01*
X47301328Y-175797405D01*
X47300674Y-176547305D01*
X47587043Y-177240372D01*
X48116839Y-177771093D01*
X48809405Y-178058672D01*
X49559305Y-178059326D01*
X50252372Y-177772957D01*
X50783093Y-177243161D01*
X51070672Y-176550595D01*
X51071326Y-175800695D01*
X50784957Y-175107628D01*
X50255161Y-174576907D01*
X49562595Y-174289328D01*
X48812695Y-174288674D01*
X48503311Y-174416509D01*
X46136000Y-172049198D01*
X46136000Y-171339320D01*
X48032285Y-171339320D01*
X48161533Y-171632123D01*
X48861806Y-171900388D01*
X49611435Y-171880250D01*
X50210467Y-171632123D01*
X50339715Y-171339320D01*
X49186000Y-170185605D01*
X48032285Y-171339320D01*
X46136000Y-171339320D01*
X46136000Y-169681806D01*
X47291612Y-169681806D01*
X47311750Y-170431435D01*
X47559877Y-171030467D01*
X47852680Y-171159715D01*
X49006395Y-170006000D01*
X49365605Y-170006000D01*
X50519320Y-171159715D01*
X50812123Y-171030467D01*
X51080388Y-170330194D01*
X51060250Y-169580565D01*
X50812123Y-168981533D01*
X50519320Y-168852285D01*
X49365605Y-170006000D01*
X49006395Y-170006000D01*
X47852680Y-168852285D01*
X47559877Y-168981533D01*
X47291612Y-169681806D01*
X46136000Y-169681806D01*
X46136000Y-168672680D01*
X48032285Y-168672680D01*
X49186000Y-169826395D01*
X50339715Y-168672680D01*
X50210467Y-168379877D01*
X49510194Y-168111612D01*
X48760565Y-168131750D01*
X48161533Y-168379877D01*
X48032285Y-168672680D01*
X46136000Y-168672680D01*
X46136000Y-165379305D01*
X47300674Y-165379305D01*
X47587043Y-166072372D01*
X48116839Y-166603093D01*
X48809405Y-166890672D01*
X49559305Y-166891326D01*
X50252372Y-166604957D01*
X50783093Y-166075161D01*
X51070672Y-165382595D01*
X51071326Y-164632695D01*
X50784957Y-163939628D01*
X50255161Y-163408907D01*
X49562595Y-163121328D01*
X48812695Y-163120674D01*
X48119628Y-163407043D01*
X47588907Y-163936839D01*
X47301328Y-164629405D01*
X47300674Y-165379305D01*
X46136000Y-165379305D01*
X46136000Y-157600000D01*
X46078148Y-157309161D01*
X45913401Y-157062599D01*
X44379035Y-155528233D01*
X44379179Y-155363029D01*
X44221942Y-154982485D01*
X43931046Y-154691081D01*
X43550777Y-154533180D01*
X43139029Y-154532821D01*
X42834000Y-154658856D01*
X42834000Y-154493761D01*
X42950919Y-154377046D01*
X43108820Y-153996777D01*
X43109179Y-153585029D01*
X42951942Y-153204485D01*
X42661046Y-152913081D01*
X42280777Y-152755180D01*
X41869029Y-152754821D01*
X41488485Y-152912058D01*
X41197081Y-153202954D01*
X41039180Y-153583223D01*
X41038821Y-153994971D01*
X41196058Y-154375515D01*
X41314000Y-154493663D01*
X41314000Y-162619198D01*
X40764233Y-163168965D01*
X40599029Y-163168821D01*
X40218485Y-163326058D01*
X39927081Y-163616954D01*
X39769180Y-163997223D01*
X39768821Y-164408971D01*
X26180077Y-164408971D01*
X25998957Y-163970628D01*
X25469161Y-163439907D01*
X24776595Y-163152328D01*
X24026695Y-163151674D01*
X23333628Y-163438043D01*
X22802907Y-163967839D01*
X22515328Y-164660405D01*
X22514674Y-165410305D01*
X21241000Y-165410305D01*
X21241000Y-160429774D01*
X21545090Y-161165727D01*
X22145114Y-161766800D01*
X22929485Y-162092499D01*
X23778789Y-162093240D01*
X24563727Y-161768910D01*
X25164800Y-161168886D01*
X25490499Y-160384515D01*
X25491240Y-159535211D01*
X25166910Y-158750273D01*
X24566886Y-158149200D01*
X23782515Y-157823501D01*
X22933211Y-157822760D01*
X22148273Y-158147090D01*
X21547200Y-158747114D01*
X21241000Y-159484526D01*
X21241000Y-146678931D01*
X33343691Y-146678931D01*
X33377158Y-147089318D01*
X33465103Y-147301635D01*
X33343691Y-147678931D01*
X33377158Y-148089318D01*
X33465103Y-148301635D01*
X33343691Y-148678931D01*
X33377158Y-149089318D01*
X33465103Y-149301635D01*
X33343691Y-149678931D01*
X33377158Y-150089318D01*
X33465103Y-150301635D01*
X33343691Y-150678931D01*
X33377158Y-151089318D01*
X33469820Y-151313023D01*
X33674650Y-151337745D01*
X34190098Y-150822297D01*
X34270931Y-150848309D01*
X34356932Y-150841296D01*
X34370005Y-151001600D01*
X33854255Y-151517350D01*
X33878977Y-151722180D01*
X34270931Y-151848309D01*
X34681318Y-151814842D01*
X34893635Y-151726897D01*
X35270931Y-151848309D01*
X35681318Y-151814842D01*
X35893635Y-151726897D01*
X36270931Y-151848309D01*
X36681318Y-151814842D01*
X36893635Y-151726897D01*
X37270931Y-151848309D01*
X37681318Y-151814842D01*
X37893635Y-151726897D01*
X38270931Y-151848309D01*
X38681318Y-151814842D01*
X38905023Y-151722180D01*
X38929745Y-151517350D01*
X38414297Y-151001902D01*
X38440309Y-150921069D01*
X38433296Y-150835068D01*
X38593600Y-150821995D01*
X39109350Y-151337745D01*
X39314180Y-151313023D01*
X39440309Y-150921069D01*
X39406842Y-150510682D01*
X39318897Y-150298365D01*
X39440309Y-149921069D01*
X39406842Y-149510682D01*
X39318897Y-149298365D01*
X39440309Y-148921069D01*
X39406842Y-148510682D01*
X39318897Y-148298365D01*
X39440309Y-147921069D01*
X39406842Y-147510682D01*
X39318897Y-147298365D01*
X39440309Y-146921069D01*
X39406842Y-146510682D01*
X39314180Y-146286977D01*
X39109350Y-146262255D01*
X38593902Y-146777703D01*
X38513069Y-146751691D01*
X38427068Y-146758704D01*
X38413995Y-146598400D01*
X38929745Y-146082650D01*
X38905023Y-145877820D01*
X38513069Y-145751691D01*
X38102682Y-145785158D01*
X37890365Y-145873103D01*
X37513069Y-145751691D01*
X37102682Y-145785158D01*
X36890365Y-145873103D01*
X36513069Y-145751691D01*
X36102682Y-145785158D01*
X35890365Y-145873103D01*
X35513069Y-145751691D01*
X35102682Y-145785158D01*
X34890365Y-145873103D01*
X34513069Y-145751691D01*
X34102682Y-145785158D01*
X33878977Y-145877820D01*
X33854255Y-146082650D01*
X34369703Y-146598098D01*
X34343691Y-146678931D01*
X34350704Y-146764932D01*
X34190400Y-146778005D01*
X33674650Y-146262255D01*
X33469820Y-146286977D01*
X33343691Y-146678931D01*
X21241000Y-146678931D01*
X21241000Y-140843000D01*
X52471000Y-140843000D01*
X52471000Y-143412130D01*
X52471000Y-143412130D01*
G37*
X52471000Y-143412130D02*
X52444130Y-143401000D01*
X51503750Y-143401000D01*
X51345000Y-143559750D01*
X51345000Y-144671000D01*
X51365000Y-144671000D01*
X51365000Y-144925000D01*
X51345000Y-144925000D01*
X51345000Y-144945000D01*
X51091000Y-144945000D01*
X51091000Y-144925000D01*
X49641930Y-144925000D01*
X49483180Y-145083750D01*
X49483180Y-145686309D01*
X49579853Y-145919698D01*
X49758481Y-146098327D01*
X49991870Y-146195000D01*
X50090596Y-146195000D01*
X49858365Y-146350172D01*
X49706135Y-146578000D01*
X43556802Y-146578000D01*
X40888493Y-143909691D01*
X49483180Y-143909691D01*
X49483180Y-144512250D01*
X49641930Y-144671000D01*
X51091000Y-144671000D01*
X51091000Y-143559750D01*
X50932250Y-143401000D01*
X49991870Y-143401000D01*
X49758481Y-143497673D01*
X49579853Y-143676302D01*
X49483180Y-143909691D01*
X40888493Y-143909691D01*
X40569035Y-143590233D01*
X40569179Y-143425029D01*
X40411942Y-143044485D01*
X40121046Y-142753081D01*
X39740777Y-142595180D01*
X39329029Y-142594821D01*
X38948485Y-142752058D01*
X38657081Y-143042954D01*
X38499180Y-143423223D01*
X38498821Y-143834971D01*
X38656058Y-144215515D01*
X38946954Y-144506919D01*
X39327223Y-144664820D01*
X39494164Y-144664966D01*
X42704599Y-147875401D01*
X42951161Y-148040148D01*
X43242000Y-148098000D01*
X49706135Y-148098000D01*
X49858365Y-148325828D01*
X50280664Y-148608000D01*
X49858365Y-148890172D01*
X49555533Y-149343391D01*
X49449193Y-149878000D01*
X49555533Y-150412609D01*
X49858365Y-150865828D01*
X50280664Y-151148000D01*
X49858365Y-151430172D01*
X49555533Y-151883391D01*
X49449193Y-152418000D01*
X49555533Y-152952609D01*
X49858365Y-153405828D01*
X50280664Y-153688000D01*
X49858365Y-153970172D01*
X49555533Y-154423391D01*
X49449193Y-154958000D01*
X49555533Y-155492609D01*
X49858365Y-155945828D01*
X50311584Y-156248660D01*
X50846193Y-156355000D01*
X51589807Y-156355000D01*
X52124416Y-156248660D01*
X52471000Y-156017079D01*
X52471000Y-159486226D01*
X52166910Y-158750273D01*
X51566886Y-158149200D01*
X50782515Y-157823501D01*
X49933211Y-157822760D01*
X49148273Y-158147090D01*
X48547200Y-158747114D01*
X48221501Y-159531485D01*
X48220760Y-160380789D01*
X48545090Y-161165727D01*
X49145114Y-161766800D01*
X49929485Y-162092499D01*
X50778789Y-162093240D01*
X51563727Y-161768910D01*
X52164800Y-161168886D01*
X52471000Y-160431474D01*
X52471000Y-186486226D01*
X52166910Y-185750273D01*
X51566886Y-185149200D01*
X50782515Y-184823501D01*
X49933211Y-184822760D01*
X49148273Y-185147090D01*
X48547200Y-185747114D01*
X48221501Y-186531485D01*
X48220760Y-187380789D01*
X48545090Y-188165727D01*
X49145114Y-188766800D01*
X49882526Y-189073000D01*
X23827774Y-189073000D01*
X24563727Y-188768910D01*
X25164800Y-188168886D01*
X25490499Y-187384515D01*
X25491240Y-186535211D01*
X25444175Y-186421305D01*
X32354674Y-186421305D01*
X32641043Y-187114372D01*
X33170839Y-187645093D01*
X33863405Y-187932672D01*
X34613305Y-187933326D01*
X35306372Y-187646957D01*
X35572472Y-187381320D01*
X38086285Y-187381320D01*
X38215533Y-187674123D01*
X38915806Y-187942388D01*
X39665435Y-187922250D01*
X40264467Y-187674123D01*
X40393715Y-187381320D01*
X39240000Y-186227605D01*
X38086285Y-187381320D01*
X35572472Y-187381320D01*
X35837093Y-187117161D01*
X36124672Y-186424595D01*
X36125283Y-185723806D01*
X37345612Y-185723806D01*
X37365750Y-186473435D01*
X37613877Y-187072467D01*
X37906680Y-187201715D01*
X39060395Y-186048000D01*
X39419605Y-186048000D01*
X40573320Y-187201715D01*
X40866123Y-187072467D01*
X41134388Y-186372194D01*
X41114250Y-185622565D01*
X40866123Y-185023533D01*
X40573320Y-184894285D01*
X39419605Y-186048000D01*
X39060395Y-186048000D01*
X37906680Y-184894285D01*
X37613877Y-185023533D01*
X37345612Y-185723806D01*
X36125283Y-185723806D01*
X36125326Y-185674695D01*
X35838957Y-184981628D01*
X35572475Y-184714680D01*
X38086285Y-184714680D01*
X39240000Y-185868395D01*
X40393715Y-184714680D01*
X40264467Y-184421877D01*
X39564194Y-184153612D01*
X38814565Y-184173750D01*
X38215533Y-184421877D01*
X38086285Y-184714680D01*
X35572475Y-184714680D01*
X35309161Y-184450907D01*
X34616595Y-184163328D01*
X33866695Y-184162674D01*
X33173628Y-184449043D01*
X32642907Y-184978839D01*
X32355328Y-185671405D01*
X32354674Y-186421305D01*
X25444175Y-186421305D01*
X25166910Y-185750273D01*
X24566886Y-185149200D01*
X23782515Y-184823501D01*
X22933211Y-184822760D01*
X22148273Y-185147090D01*
X21547200Y-185747114D01*
X21241000Y-186484526D01*
X21241000Y-182515320D01*
X23246285Y-182515320D01*
X23375533Y-182808123D01*
X24075806Y-183076388D01*
X24825435Y-183056250D01*
X25424467Y-182808123D01*
X25553715Y-182515320D01*
X24400000Y-181361605D01*
X23246285Y-182515320D01*
X21241000Y-182515320D01*
X21241000Y-180857806D01*
X22505612Y-180857806D01*
X22525750Y-181607435D01*
X22773877Y-182206467D01*
X23066680Y-182335715D01*
X24220395Y-181182000D01*
X24579605Y-181182000D01*
X25733320Y-182335715D01*
X26026123Y-182206467D01*
X26294388Y-181506194D01*
X26274250Y-180756565D01*
X26026123Y-180157533D01*
X25733320Y-180028285D01*
X24579605Y-181182000D01*
X24220395Y-181182000D01*
X23066680Y-180028285D01*
X22773877Y-180157533D01*
X22505612Y-180857806D01*
X21241000Y-180857806D01*
X21241000Y-179848680D01*
X23246285Y-179848680D01*
X24400000Y-181002395D01*
X25553715Y-179848680D01*
X25424467Y-179555877D01*
X24724194Y-179287612D01*
X23974565Y-179307750D01*
X23375533Y-179555877D01*
X23246285Y-179848680D01*
X21241000Y-179848680D01*
X21241000Y-176555305D01*
X22514674Y-176555305D01*
X22801043Y-177248372D01*
X23330839Y-177779093D01*
X24023405Y-178066672D01*
X24773305Y-178067326D01*
X25466372Y-177780957D01*
X25997093Y-177251161D01*
X26284672Y-176558595D01*
X26285326Y-175808695D01*
X25998957Y-175115628D01*
X25469161Y-174584907D01*
X24776595Y-174297328D01*
X24026695Y-174296674D01*
X23333628Y-174583043D01*
X22802907Y-175112839D01*
X22515328Y-175805405D01*
X22514674Y-176555305D01*
X21241000Y-176555305D01*
X21241000Y-171370320D01*
X23246285Y-171370320D01*
X23375533Y-171663123D01*
X24075806Y-171931388D01*
X24825435Y-171911250D01*
X25424467Y-171663123D01*
X25553715Y-171370320D01*
X24400000Y-170216605D01*
X23246285Y-171370320D01*
X21241000Y-171370320D01*
X21241000Y-169712806D01*
X22505612Y-169712806D01*
X22525750Y-170462435D01*
X22773877Y-171061467D01*
X23066680Y-171190715D01*
X24220395Y-170037000D01*
X24579605Y-170037000D01*
X25733320Y-171190715D01*
X26026123Y-171061467D01*
X26294388Y-170361194D01*
X26274250Y-169611565D01*
X26026123Y-169012533D01*
X25733320Y-168883285D01*
X24579605Y-170037000D01*
X24220395Y-170037000D01*
X23066680Y-168883285D01*
X22773877Y-169012533D01*
X22505612Y-169712806D01*
X21241000Y-169712806D01*
X21241000Y-168703680D01*
X23246285Y-168703680D01*
X24400000Y-169857395D01*
X25553715Y-168703680D01*
X25424467Y-168410877D01*
X24724194Y-168142612D01*
X23974565Y-168162750D01*
X23375533Y-168410877D01*
X23246285Y-168703680D01*
X21241000Y-168703680D01*
X21241000Y-165410305D01*
X22514674Y-165410305D01*
X22801043Y-166103372D01*
X23330839Y-166634093D01*
X24023405Y-166921672D01*
X24773305Y-166922326D01*
X25466372Y-166635957D01*
X25997093Y-166106161D01*
X26284672Y-165413595D01*
X26285326Y-164663695D01*
X26180077Y-164408971D01*
X39768821Y-164408971D01*
X39926058Y-164789515D01*
X40216954Y-165080919D01*
X40597223Y-165238820D01*
X40764164Y-165238966D01*
X41298000Y-165772802D01*
X41298000Y-174046000D01*
X41355852Y-174336839D01*
X41520599Y-174583401D01*
X47428453Y-180491255D01*
X47301328Y-180797405D01*
X47300674Y-181547305D01*
X47587043Y-182240372D01*
X48116839Y-182771093D01*
X48809405Y-183058672D01*
X49559305Y-183059326D01*
X50252372Y-182772957D01*
X50783093Y-182243161D01*
X51070672Y-181550595D01*
X51071326Y-180800695D01*
X50784957Y-180107628D01*
X50255161Y-179576907D01*
X49562595Y-179289328D01*
X48812695Y-179288674D01*
X48503311Y-179416509D01*
X42818000Y-173731198D01*
X42818000Y-165458000D01*
X42760148Y-165167161D01*
X42595401Y-164920599D01*
X41878802Y-164204000D01*
X42611401Y-163471401D01*
X42776148Y-163224840D01*
X42834000Y-162934000D01*
X42834000Y-156476911D01*
X43137223Y-156602820D01*
X43304164Y-156602966D01*
X44616000Y-157914802D01*
X44616000Y-172364000D01*
X44673852Y-172654839D01*
X44838599Y-172901401D01*
X47428453Y-175491255D01*
X47301328Y-175797405D01*
X47300674Y-176547305D01*
X47587043Y-177240372D01*
X48116839Y-177771093D01*
X48809405Y-178058672D01*
X49559305Y-178059326D01*
X50252372Y-177772957D01*
X50783093Y-177243161D01*
X51070672Y-176550595D01*
X51071326Y-175800695D01*
X50784957Y-175107628D01*
X50255161Y-174576907D01*
X49562595Y-174289328D01*
X48812695Y-174288674D01*
X48503311Y-174416509D01*
X46136000Y-172049198D01*
X46136000Y-171339320D01*
X48032285Y-171339320D01*
X48161533Y-171632123D01*
X48861806Y-171900388D01*
X49611435Y-171880250D01*
X50210467Y-171632123D01*
X50339715Y-171339320D01*
X49186000Y-170185605D01*
X48032285Y-171339320D01*
X46136000Y-171339320D01*
X46136000Y-169681806D01*
X47291612Y-169681806D01*
X47311750Y-170431435D01*
X47559877Y-171030467D01*
X47852680Y-171159715D01*
X49006395Y-170006000D01*
X49365605Y-170006000D01*
X50519320Y-171159715D01*
X50812123Y-171030467D01*
X51080388Y-170330194D01*
X51060250Y-169580565D01*
X50812123Y-168981533D01*
X50519320Y-168852285D01*
X49365605Y-170006000D01*
X49006395Y-170006000D01*
X47852680Y-168852285D01*
X47559877Y-168981533D01*
X47291612Y-169681806D01*
X46136000Y-169681806D01*
X46136000Y-168672680D01*
X48032285Y-168672680D01*
X49186000Y-169826395D01*
X50339715Y-168672680D01*
X50210467Y-168379877D01*
X49510194Y-168111612D01*
X48760565Y-168131750D01*
X48161533Y-168379877D01*
X48032285Y-168672680D01*
X46136000Y-168672680D01*
X46136000Y-165379305D01*
X47300674Y-165379305D01*
X47587043Y-166072372D01*
X48116839Y-166603093D01*
X48809405Y-166890672D01*
X49559305Y-166891326D01*
X50252372Y-166604957D01*
X50783093Y-166075161D01*
X51070672Y-165382595D01*
X51071326Y-164632695D01*
X50784957Y-163939628D01*
X50255161Y-163408907D01*
X49562595Y-163121328D01*
X48812695Y-163120674D01*
X48119628Y-163407043D01*
X47588907Y-163936839D01*
X47301328Y-164629405D01*
X47300674Y-165379305D01*
X46136000Y-165379305D01*
X46136000Y-157600000D01*
X46078148Y-157309161D01*
X45913401Y-157062599D01*
X44379035Y-155528233D01*
X44379179Y-155363029D01*
X44221942Y-154982485D01*
X43931046Y-154691081D01*
X43550777Y-154533180D01*
X43139029Y-154532821D01*
X42834000Y-154658856D01*
X42834000Y-154493761D01*
X42950919Y-154377046D01*
X43108820Y-153996777D01*
X43109179Y-153585029D01*
X42951942Y-153204485D01*
X42661046Y-152913081D01*
X42280777Y-152755180D01*
X41869029Y-152754821D01*
X41488485Y-152912058D01*
X41197081Y-153202954D01*
X41039180Y-153583223D01*
X41038821Y-153994971D01*
X41196058Y-154375515D01*
X41314000Y-154493663D01*
X41314000Y-162619198D01*
X40764233Y-163168965D01*
X40599029Y-163168821D01*
X40218485Y-163326058D01*
X39927081Y-163616954D01*
X39769180Y-163997223D01*
X39768821Y-164408971D01*
X26180077Y-164408971D01*
X25998957Y-163970628D01*
X25469161Y-163439907D01*
X24776595Y-163152328D01*
X24026695Y-163151674D01*
X23333628Y-163438043D01*
X22802907Y-163967839D01*
X22515328Y-164660405D01*
X22514674Y-165410305D01*
X21241000Y-165410305D01*
X21241000Y-160429774D01*
X21545090Y-161165727D01*
X22145114Y-161766800D01*
X22929485Y-162092499D01*
X23778789Y-162093240D01*
X24563727Y-161768910D01*
X25164800Y-161168886D01*
X25490499Y-160384515D01*
X25491240Y-159535211D01*
X25166910Y-158750273D01*
X24566886Y-158149200D01*
X23782515Y-157823501D01*
X22933211Y-157822760D01*
X22148273Y-158147090D01*
X21547200Y-158747114D01*
X21241000Y-159484526D01*
X21241000Y-146678931D01*
X33343691Y-146678931D01*
X33377158Y-147089318D01*
X33465103Y-147301635D01*
X33343691Y-147678931D01*
X33377158Y-148089318D01*
X33465103Y-148301635D01*
X33343691Y-148678931D01*
X33377158Y-149089318D01*
X33465103Y-149301635D01*
X33343691Y-149678931D01*
X33377158Y-150089318D01*
X33465103Y-150301635D01*
X33343691Y-150678931D01*
X33377158Y-151089318D01*
X33469820Y-151313023D01*
X33674650Y-151337745D01*
X34190098Y-150822297D01*
X34270931Y-150848309D01*
X34356932Y-150841296D01*
X34370005Y-151001600D01*
X33854255Y-151517350D01*
X33878977Y-151722180D01*
X34270931Y-151848309D01*
X34681318Y-151814842D01*
X34893635Y-151726897D01*
X35270931Y-151848309D01*
X35681318Y-151814842D01*
X35893635Y-151726897D01*
X36270931Y-151848309D01*
X36681318Y-151814842D01*
X36893635Y-151726897D01*
X37270931Y-151848309D01*
X37681318Y-151814842D01*
X37893635Y-151726897D01*
X38270931Y-151848309D01*
X38681318Y-151814842D01*
X38905023Y-151722180D01*
X38929745Y-151517350D01*
X38414297Y-151001902D01*
X38440309Y-150921069D01*
X38433296Y-150835068D01*
X38593600Y-150821995D01*
X39109350Y-151337745D01*
X39314180Y-151313023D01*
X39440309Y-150921069D01*
X39406842Y-150510682D01*
X39318897Y-150298365D01*
X39440309Y-149921069D01*
X39406842Y-149510682D01*
X39318897Y-149298365D01*
X39440309Y-148921069D01*
X39406842Y-148510682D01*
X39318897Y-148298365D01*
X39440309Y-147921069D01*
X39406842Y-147510682D01*
X39318897Y-147298365D01*
X39440309Y-146921069D01*
X39406842Y-146510682D01*
X39314180Y-146286977D01*
X39109350Y-146262255D01*
X38593902Y-146777703D01*
X38513069Y-146751691D01*
X38427068Y-146758704D01*
X38413995Y-146598400D01*
X38929745Y-146082650D01*
X38905023Y-145877820D01*
X38513069Y-145751691D01*
X38102682Y-145785158D01*
X37890365Y-145873103D01*
X37513069Y-145751691D01*
X37102682Y-145785158D01*
X36890365Y-145873103D01*
X36513069Y-145751691D01*
X36102682Y-145785158D01*
X35890365Y-145873103D01*
X35513069Y-145751691D01*
X35102682Y-145785158D01*
X34890365Y-145873103D01*
X34513069Y-145751691D01*
X34102682Y-145785158D01*
X33878977Y-145877820D01*
X33854255Y-146082650D01*
X34369703Y-146598098D01*
X34343691Y-146678931D01*
X34350704Y-146764932D01*
X34190400Y-146778005D01*
X33674650Y-146262255D01*
X33469820Y-146286977D01*
X33343691Y-146678931D01*
X21241000Y-146678931D01*
X21241000Y-140843000D01*
X52471000Y-140843000D01*
X52471000Y-143412130D01*
G36*
X52471000Y-93412130D02*
X52444130Y-93401000D01*
X51503750Y-93401000D01*
X51345000Y-93559750D01*
X51345000Y-94671000D01*
X51365000Y-94671000D01*
X51365000Y-94925000D01*
X51345000Y-94925000D01*
X51345000Y-94945000D01*
X51091000Y-94945000D01*
X51091000Y-94925000D01*
X49641930Y-94925000D01*
X49483180Y-95083750D01*
X49483180Y-95686309D01*
X49579853Y-95919698D01*
X49758481Y-96098327D01*
X49991870Y-96195000D01*
X50090596Y-96195000D01*
X49858365Y-96350172D01*
X49706135Y-96578000D01*
X43556802Y-96578000D01*
X40888493Y-93909691D01*
X49483180Y-93909691D01*
X49483180Y-94512250D01*
X49641930Y-94671000D01*
X51091000Y-94671000D01*
X51091000Y-93559750D01*
X50932250Y-93401000D01*
X49991870Y-93401000D01*
X49758481Y-93497673D01*
X49579853Y-93676302D01*
X49483180Y-93909691D01*
X40888493Y-93909691D01*
X40569035Y-93590233D01*
X40569179Y-93425029D01*
X40411942Y-93044485D01*
X40121046Y-92753081D01*
X39740777Y-92595180D01*
X39329029Y-92594821D01*
X38948485Y-92752058D01*
X38657081Y-93042954D01*
X38499180Y-93423223D01*
X38498821Y-93834971D01*
X38656058Y-94215515D01*
X38946954Y-94506919D01*
X39327223Y-94664820D01*
X39494164Y-94664966D01*
X42704599Y-97875401D01*
X42951161Y-98040148D01*
X43242000Y-98098000D01*
X49706135Y-98098000D01*
X49858365Y-98325828D01*
X50280664Y-98608000D01*
X49858365Y-98890172D01*
X49555533Y-99343391D01*
X49449193Y-99878000D01*
X49555533Y-100412609D01*
X49858365Y-100865828D01*
X50280664Y-101148000D01*
X49858365Y-101430172D01*
X49555533Y-101883391D01*
X49449193Y-102418000D01*
X49555533Y-102952609D01*
X49858365Y-103405828D01*
X50280664Y-103688000D01*
X49858365Y-103970172D01*
X49555533Y-104423391D01*
X49449193Y-104958000D01*
X49555533Y-105492609D01*
X49858365Y-105945828D01*
X50311584Y-106248660D01*
X50846193Y-106355000D01*
X51589807Y-106355000D01*
X52124416Y-106248660D01*
X52471000Y-106017079D01*
X52471000Y-109486226D01*
X52166910Y-108750273D01*
X51566886Y-108149200D01*
X50782515Y-107823501D01*
X49933211Y-107822760D01*
X49148273Y-108147090D01*
X48547200Y-108747114D01*
X48221501Y-109531485D01*
X48220760Y-110380789D01*
X48545090Y-111165727D01*
X49145114Y-111766800D01*
X49929485Y-112092499D01*
X50778789Y-112093240D01*
X51563727Y-111768910D01*
X52164800Y-111168886D01*
X52471000Y-110431474D01*
X52471000Y-136486226D01*
X52166910Y-135750273D01*
X51566886Y-135149200D01*
X50782515Y-134823501D01*
X49933211Y-134822760D01*
X49148273Y-135147090D01*
X48547200Y-135747114D01*
X48221501Y-136531485D01*
X48220760Y-137380789D01*
X48545090Y-138165727D01*
X49145114Y-138766800D01*
X49882526Y-139073000D01*
X23827774Y-139073000D01*
X24563727Y-138768910D01*
X25164800Y-138168886D01*
X25490499Y-137384515D01*
X25491240Y-136535211D01*
X25444175Y-136421305D01*
X32354674Y-136421305D01*
X32641043Y-137114372D01*
X33170839Y-137645093D01*
X33863405Y-137932672D01*
X34613305Y-137933326D01*
X35306372Y-137646957D01*
X35572472Y-137381320D01*
X38086285Y-137381320D01*
X38215533Y-137674123D01*
X38915806Y-137942388D01*
X39665435Y-137922250D01*
X40264467Y-137674123D01*
X40393715Y-137381320D01*
X39240000Y-136227605D01*
X38086285Y-137381320D01*
X35572472Y-137381320D01*
X35837093Y-137117161D01*
X36124672Y-136424595D01*
X36125283Y-135723806D01*
X37345612Y-135723806D01*
X37365750Y-136473435D01*
X37613877Y-137072467D01*
X37906680Y-137201715D01*
X39060395Y-136048000D01*
X39419605Y-136048000D01*
X40573320Y-137201715D01*
X40866123Y-137072467D01*
X41134388Y-136372194D01*
X41114250Y-135622565D01*
X40866123Y-135023533D01*
X40573320Y-134894285D01*
X39419605Y-136048000D01*
X39060395Y-136048000D01*
X37906680Y-134894285D01*
X37613877Y-135023533D01*
X37345612Y-135723806D01*
X36125283Y-135723806D01*
X36125326Y-135674695D01*
X35838957Y-134981628D01*
X35572475Y-134714680D01*
X38086285Y-134714680D01*
X39240000Y-135868395D01*
X40393715Y-134714680D01*
X40264467Y-134421877D01*
X39564194Y-134153612D01*
X38814565Y-134173750D01*
X38215533Y-134421877D01*
X38086285Y-134714680D01*
X35572475Y-134714680D01*
X35309161Y-134450907D01*
X34616595Y-134163328D01*
X33866695Y-134162674D01*
X33173628Y-134449043D01*
X32642907Y-134978839D01*
X32355328Y-135671405D01*
X32354674Y-136421305D01*
X25444175Y-136421305D01*
X25166910Y-135750273D01*
X24566886Y-135149200D01*
X23782515Y-134823501D01*
X22933211Y-134822760D01*
X22148273Y-135147090D01*
X21547200Y-135747114D01*
X21241000Y-136484526D01*
X21241000Y-132515320D01*
X23246285Y-132515320D01*
X23375533Y-132808123D01*
X24075806Y-133076388D01*
X24825435Y-133056250D01*
X25424467Y-132808123D01*
X25553715Y-132515320D01*
X24400000Y-131361605D01*
X23246285Y-132515320D01*
X21241000Y-132515320D01*
X21241000Y-130857806D01*
X22505612Y-130857806D01*
X22525750Y-131607435D01*
X22773877Y-132206467D01*
X23066680Y-132335715D01*
X24220395Y-131182000D01*
X24579605Y-131182000D01*
X25733320Y-132335715D01*
X26026123Y-132206467D01*
X26294388Y-131506194D01*
X26274250Y-130756565D01*
X26026123Y-130157533D01*
X25733320Y-130028285D01*
X24579605Y-131182000D01*
X24220395Y-131182000D01*
X23066680Y-130028285D01*
X22773877Y-130157533D01*
X22505612Y-130857806D01*
X21241000Y-130857806D01*
X21241000Y-129848680D01*
X23246285Y-129848680D01*
X24400000Y-131002395D01*
X25553715Y-129848680D01*
X25424467Y-129555877D01*
X24724194Y-129287612D01*
X23974565Y-129307750D01*
X23375533Y-129555877D01*
X23246285Y-129848680D01*
X21241000Y-129848680D01*
X21241000Y-126555305D01*
X22514674Y-126555305D01*
X22801043Y-127248372D01*
X23330839Y-127779093D01*
X24023405Y-128066672D01*
X24773305Y-128067326D01*
X25466372Y-127780957D01*
X25997093Y-127251161D01*
X26284672Y-126558595D01*
X26285326Y-125808695D01*
X25998957Y-125115628D01*
X25469161Y-124584907D01*
X24776595Y-124297328D01*
X24026695Y-124296674D01*
X23333628Y-124583043D01*
X22802907Y-125112839D01*
X22515328Y-125805405D01*
X22514674Y-126555305D01*
X21241000Y-126555305D01*
X21241000Y-121370320D01*
X23246285Y-121370320D01*
X23375533Y-121663123D01*
X24075806Y-121931388D01*
X24825435Y-121911250D01*
X25424467Y-121663123D01*
X25553715Y-121370320D01*
X24400000Y-120216605D01*
X23246285Y-121370320D01*
X21241000Y-121370320D01*
X21241000Y-119712806D01*
X22505612Y-119712806D01*
X22525750Y-120462435D01*
X22773877Y-121061467D01*
X23066680Y-121190715D01*
X24220395Y-120037000D01*
X24579605Y-120037000D01*
X25733320Y-121190715D01*
X26026123Y-121061467D01*
X26294388Y-120361194D01*
X26274250Y-119611565D01*
X26026123Y-119012533D01*
X25733320Y-118883285D01*
X24579605Y-120037000D01*
X24220395Y-120037000D01*
X23066680Y-118883285D01*
X22773877Y-119012533D01*
X22505612Y-119712806D01*
X21241000Y-119712806D01*
X21241000Y-118703680D01*
X23246285Y-118703680D01*
X24400000Y-119857395D01*
X25553715Y-118703680D01*
X25424467Y-118410877D01*
X24724194Y-118142612D01*
X23974565Y-118162750D01*
X23375533Y-118410877D01*
X23246285Y-118703680D01*
X21241000Y-118703680D01*
X21241000Y-115410305D01*
X22514674Y-115410305D01*
X22801043Y-116103372D01*
X23330839Y-116634093D01*
X24023405Y-116921672D01*
X24773305Y-116922326D01*
X25466372Y-116635957D01*
X25997093Y-116106161D01*
X26284672Y-115413595D01*
X26285326Y-114663695D01*
X26180077Y-114408971D01*
X39768821Y-114408971D01*
X39926058Y-114789515D01*
X40216954Y-115080919D01*
X40597223Y-115238820D01*
X40764164Y-115238966D01*
X41298000Y-115772802D01*
X41298000Y-124046000D01*
X41355852Y-124336839D01*
X41520599Y-124583401D01*
X47428453Y-130491255D01*
X47301328Y-130797405D01*
X47300674Y-131547305D01*
X47587043Y-132240372D01*
X48116839Y-132771093D01*
X48809405Y-133058672D01*
X49559305Y-133059326D01*
X50252372Y-132772957D01*
X50783093Y-132243161D01*
X51070672Y-131550595D01*
X51071326Y-130800695D01*
X50784957Y-130107628D01*
X50255161Y-129576907D01*
X49562595Y-129289328D01*
X48812695Y-129288674D01*
X48503311Y-129416509D01*
X42818000Y-123731198D01*
X42818000Y-115458000D01*
X42760148Y-115167161D01*
X42595401Y-114920599D01*
X41878802Y-114204000D01*
X42611401Y-113471401D01*
X42776148Y-113224840D01*
X42834000Y-112934000D01*
X42834000Y-106476911D01*
X43137223Y-106602820D01*
X43304164Y-106602966D01*
X44616000Y-107914802D01*
X44616000Y-122364000D01*
X44673852Y-122654839D01*
X44838599Y-122901401D01*
X47428453Y-125491255D01*
X47301328Y-125797405D01*
X47300674Y-126547305D01*
X47587043Y-127240372D01*
X48116839Y-127771093D01*
X48809405Y-128058672D01*
X49559305Y-128059326D01*
X50252372Y-127772957D01*
X50783093Y-127243161D01*
X51070672Y-126550595D01*
X51071326Y-125800695D01*
X50784957Y-125107628D01*
X50255161Y-124576907D01*
X49562595Y-124289328D01*
X48812695Y-124288674D01*
X48503311Y-124416509D01*
X46136000Y-122049198D01*
X46136000Y-121339320D01*
X48032285Y-121339320D01*
X48161533Y-121632123D01*
X48861806Y-121900388D01*
X49611435Y-121880250D01*
X50210467Y-121632123D01*
X50339715Y-121339320D01*
X49186000Y-120185605D01*
X48032285Y-121339320D01*
X46136000Y-121339320D01*
X46136000Y-119681806D01*
X47291612Y-119681806D01*
X47311750Y-120431435D01*
X47559877Y-121030467D01*
X47852680Y-121159715D01*
X49006395Y-120006000D01*
X49365605Y-120006000D01*
X50519320Y-121159715D01*
X50812123Y-121030467D01*
X51080388Y-120330194D01*
X51060250Y-119580565D01*
X50812123Y-118981533D01*
X50519320Y-118852285D01*
X49365605Y-120006000D01*
X49006395Y-120006000D01*
X47852680Y-118852285D01*
X47559877Y-118981533D01*
X47291612Y-119681806D01*
X46136000Y-119681806D01*
X46136000Y-118672680D01*
X48032285Y-118672680D01*
X49186000Y-119826395D01*
X50339715Y-118672680D01*
X50210467Y-118379877D01*
X49510194Y-118111612D01*
X48760565Y-118131750D01*
X48161533Y-118379877D01*
X48032285Y-118672680D01*
X46136000Y-118672680D01*
X46136000Y-115379305D01*
X47300674Y-115379305D01*
X47587043Y-116072372D01*
X48116839Y-116603093D01*
X48809405Y-116890672D01*
X49559305Y-116891326D01*
X50252372Y-116604957D01*
X50783093Y-116075161D01*
X51070672Y-115382595D01*
X51071326Y-114632695D01*
X50784957Y-113939628D01*
X50255161Y-113408907D01*
X49562595Y-113121328D01*
X48812695Y-113120674D01*
X48119628Y-113407043D01*
X47588907Y-113936839D01*
X47301328Y-114629405D01*
X47300674Y-115379305D01*
X46136000Y-115379305D01*
X46136000Y-107600000D01*
X46078148Y-107309161D01*
X45913401Y-107062599D01*
X44379035Y-105528233D01*
X44379179Y-105363029D01*
X44221942Y-104982485D01*
X43931046Y-104691081D01*
X43550777Y-104533180D01*
X43139029Y-104532821D01*
X42834000Y-104658856D01*
X42834000Y-104493761D01*
X42950919Y-104377046D01*
X43108820Y-103996777D01*
X43109179Y-103585029D01*
X42951942Y-103204485D01*
X42661046Y-102913081D01*
X42280777Y-102755180D01*
X41869029Y-102754821D01*
X41488485Y-102912058D01*
X41197081Y-103202954D01*
X41039180Y-103583223D01*
X41038821Y-103994971D01*
X41196058Y-104375515D01*
X41314000Y-104493663D01*
X41314000Y-112619198D01*
X40764233Y-113168965D01*
X40599029Y-113168821D01*
X40218485Y-113326058D01*
X39927081Y-113616954D01*
X39769180Y-113997223D01*
X39768821Y-114408971D01*
X26180077Y-114408971D01*
X25998957Y-113970628D01*
X25469161Y-113439907D01*
X24776595Y-113152328D01*
X24026695Y-113151674D01*
X23333628Y-113438043D01*
X22802907Y-113967839D01*
X22515328Y-114660405D01*
X22514674Y-115410305D01*
X21241000Y-115410305D01*
X21241000Y-110429774D01*
X21545090Y-111165727D01*
X22145114Y-111766800D01*
X22929485Y-112092499D01*
X23778789Y-112093240D01*
X24563727Y-111768910D01*
X25164800Y-111168886D01*
X25490499Y-110384515D01*
X25491240Y-109535211D01*
X25166910Y-108750273D01*
X24566886Y-108149200D01*
X23782515Y-107823501D01*
X22933211Y-107822760D01*
X22148273Y-108147090D01*
X21547200Y-108747114D01*
X21241000Y-109484526D01*
X21241000Y-96678931D01*
X33343691Y-96678931D01*
X33377158Y-97089318D01*
X33465103Y-97301635D01*
X33343691Y-97678931D01*
X33377158Y-98089318D01*
X33465103Y-98301635D01*
X33343691Y-98678931D01*
X33377158Y-99089318D01*
X33465103Y-99301635D01*
X33343691Y-99678931D01*
X33377158Y-100089318D01*
X33465103Y-100301635D01*
X33343691Y-100678931D01*
X33377158Y-101089318D01*
X33469820Y-101313023D01*
X33674650Y-101337745D01*
X34190098Y-100822297D01*
X34270931Y-100848309D01*
X34356932Y-100841296D01*
X34370005Y-101001600D01*
X33854255Y-101517350D01*
X33878977Y-101722180D01*
X34270931Y-101848309D01*
X34681318Y-101814842D01*
X34893635Y-101726897D01*
X35270931Y-101848309D01*
X35681318Y-101814842D01*
X35893635Y-101726897D01*
X36270931Y-101848309D01*
X36681318Y-101814842D01*
X36893635Y-101726897D01*
X37270931Y-101848309D01*
X37681318Y-101814842D01*
X37893635Y-101726897D01*
X38270931Y-101848309D01*
X38681318Y-101814842D01*
X38905023Y-101722180D01*
X38929745Y-101517350D01*
X38414297Y-101001902D01*
X38440309Y-100921069D01*
X38433296Y-100835068D01*
X38593600Y-100821995D01*
X39109350Y-101337745D01*
X39314180Y-101313023D01*
X39440309Y-100921069D01*
X39406842Y-100510682D01*
X39318897Y-100298365D01*
X39440309Y-99921069D01*
X39406842Y-99510682D01*
X39318897Y-99298365D01*
X39440309Y-98921069D01*
X39406842Y-98510682D01*
X39318897Y-98298365D01*
X39440309Y-97921069D01*
X39406842Y-97510682D01*
X39318897Y-97298365D01*
X39440309Y-96921069D01*
X39406842Y-96510682D01*
X39314180Y-96286977D01*
X39109350Y-96262255D01*
X38593902Y-96777703D01*
X38513069Y-96751691D01*
X38427068Y-96758704D01*
X38413995Y-96598400D01*
X38929745Y-96082650D01*
X38905023Y-95877820D01*
X38513069Y-95751691D01*
X38102682Y-95785158D01*
X37890365Y-95873103D01*
X37513069Y-95751691D01*
X37102682Y-95785158D01*
X36890365Y-95873103D01*
X36513069Y-95751691D01*
X36102682Y-95785158D01*
X35890365Y-95873103D01*
X35513069Y-95751691D01*
X35102682Y-95785158D01*
X34890365Y-95873103D01*
X34513069Y-95751691D01*
X34102682Y-95785158D01*
X33878977Y-95877820D01*
X33854255Y-96082650D01*
X34369703Y-96598098D01*
X34343691Y-96678931D01*
X34350704Y-96764932D01*
X34190400Y-96778005D01*
X33674650Y-96262255D01*
X33469820Y-96286977D01*
X33343691Y-96678931D01*
X21241000Y-96678931D01*
X21241000Y-90843000D01*
X52471000Y-90843000D01*
X52471000Y-93412130D01*
X52471000Y-93412130D01*
G37*
X52471000Y-93412130D02*
X52444130Y-93401000D01*
X51503750Y-93401000D01*
X51345000Y-93559750D01*
X51345000Y-94671000D01*
X51365000Y-94671000D01*
X51365000Y-94925000D01*
X51345000Y-94925000D01*
X51345000Y-94945000D01*
X51091000Y-94945000D01*
X51091000Y-94925000D01*
X49641930Y-94925000D01*
X49483180Y-95083750D01*
X49483180Y-95686309D01*
X49579853Y-95919698D01*
X49758481Y-96098327D01*
X49991870Y-96195000D01*
X50090596Y-96195000D01*
X49858365Y-96350172D01*
X49706135Y-96578000D01*
X43556802Y-96578000D01*
X40888493Y-93909691D01*
X49483180Y-93909691D01*
X49483180Y-94512250D01*
X49641930Y-94671000D01*
X51091000Y-94671000D01*
X51091000Y-93559750D01*
X50932250Y-93401000D01*
X49991870Y-93401000D01*
X49758481Y-93497673D01*
X49579853Y-93676302D01*
X49483180Y-93909691D01*
X40888493Y-93909691D01*
X40569035Y-93590233D01*
X40569179Y-93425029D01*
X40411942Y-93044485D01*
X40121046Y-92753081D01*
X39740777Y-92595180D01*
X39329029Y-92594821D01*
X38948485Y-92752058D01*
X38657081Y-93042954D01*
X38499180Y-93423223D01*
X38498821Y-93834971D01*
X38656058Y-94215515D01*
X38946954Y-94506919D01*
X39327223Y-94664820D01*
X39494164Y-94664966D01*
X42704599Y-97875401D01*
X42951161Y-98040148D01*
X43242000Y-98098000D01*
X49706135Y-98098000D01*
X49858365Y-98325828D01*
X50280664Y-98608000D01*
X49858365Y-98890172D01*
X49555533Y-99343391D01*
X49449193Y-99878000D01*
X49555533Y-100412609D01*
X49858365Y-100865828D01*
X50280664Y-101148000D01*
X49858365Y-101430172D01*
X49555533Y-101883391D01*
X49449193Y-102418000D01*
X49555533Y-102952609D01*
X49858365Y-103405828D01*
X50280664Y-103688000D01*
X49858365Y-103970172D01*
X49555533Y-104423391D01*
X49449193Y-104958000D01*
X49555533Y-105492609D01*
X49858365Y-105945828D01*
X50311584Y-106248660D01*
X50846193Y-106355000D01*
X51589807Y-106355000D01*
X52124416Y-106248660D01*
X52471000Y-106017079D01*
X52471000Y-109486226D01*
X52166910Y-108750273D01*
X51566886Y-108149200D01*
X50782515Y-107823501D01*
X49933211Y-107822760D01*
X49148273Y-108147090D01*
X48547200Y-108747114D01*
X48221501Y-109531485D01*
X48220760Y-110380789D01*
X48545090Y-111165727D01*
X49145114Y-111766800D01*
X49929485Y-112092499D01*
X50778789Y-112093240D01*
X51563727Y-111768910D01*
X52164800Y-111168886D01*
X52471000Y-110431474D01*
X52471000Y-136486226D01*
X52166910Y-135750273D01*
X51566886Y-135149200D01*
X50782515Y-134823501D01*
X49933211Y-134822760D01*
X49148273Y-135147090D01*
X48547200Y-135747114D01*
X48221501Y-136531485D01*
X48220760Y-137380789D01*
X48545090Y-138165727D01*
X49145114Y-138766800D01*
X49882526Y-139073000D01*
X23827774Y-139073000D01*
X24563727Y-138768910D01*
X25164800Y-138168886D01*
X25490499Y-137384515D01*
X25491240Y-136535211D01*
X25444175Y-136421305D01*
X32354674Y-136421305D01*
X32641043Y-137114372D01*
X33170839Y-137645093D01*
X33863405Y-137932672D01*
X34613305Y-137933326D01*
X35306372Y-137646957D01*
X35572472Y-137381320D01*
X38086285Y-137381320D01*
X38215533Y-137674123D01*
X38915806Y-137942388D01*
X39665435Y-137922250D01*
X40264467Y-137674123D01*
X40393715Y-137381320D01*
X39240000Y-136227605D01*
X38086285Y-137381320D01*
X35572472Y-137381320D01*
X35837093Y-137117161D01*
X36124672Y-136424595D01*
X36125283Y-135723806D01*
X37345612Y-135723806D01*
X37365750Y-136473435D01*
X37613877Y-137072467D01*
X37906680Y-137201715D01*
X39060395Y-136048000D01*
X39419605Y-136048000D01*
X40573320Y-137201715D01*
X40866123Y-137072467D01*
X41134388Y-136372194D01*
X41114250Y-135622565D01*
X40866123Y-135023533D01*
X40573320Y-134894285D01*
X39419605Y-136048000D01*
X39060395Y-136048000D01*
X37906680Y-134894285D01*
X37613877Y-135023533D01*
X37345612Y-135723806D01*
X36125283Y-135723806D01*
X36125326Y-135674695D01*
X35838957Y-134981628D01*
X35572475Y-134714680D01*
X38086285Y-134714680D01*
X39240000Y-135868395D01*
X40393715Y-134714680D01*
X40264467Y-134421877D01*
X39564194Y-134153612D01*
X38814565Y-134173750D01*
X38215533Y-134421877D01*
X38086285Y-134714680D01*
X35572475Y-134714680D01*
X35309161Y-134450907D01*
X34616595Y-134163328D01*
X33866695Y-134162674D01*
X33173628Y-134449043D01*
X32642907Y-134978839D01*
X32355328Y-135671405D01*
X32354674Y-136421305D01*
X25444175Y-136421305D01*
X25166910Y-135750273D01*
X24566886Y-135149200D01*
X23782515Y-134823501D01*
X22933211Y-134822760D01*
X22148273Y-135147090D01*
X21547200Y-135747114D01*
X21241000Y-136484526D01*
X21241000Y-132515320D01*
X23246285Y-132515320D01*
X23375533Y-132808123D01*
X24075806Y-133076388D01*
X24825435Y-133056250D01*
X25424467Y-132808123D01*
X25553715Y-132515320D01*
X24400000Y-131361605D01*
X23246285Y-132515320D01*
X21241000Y-132515320D01*
X21241000Y-130857806D01*
X22505612Y-130857806D01*
X22525750Y-131607435D01*
X22773877Y-132206467D01*
X23066680Y-132335715D01*
X24220395Y-131182000D01*
X24579605Y-131182000D01*
X25733320Y-132335715D01*
X26026123Y-132206467D01*
X26294388Y-131506194D01*
X26274250Y-130756565D01*
X26026123Y-130157533D01*
X25733320Y-130028285D01*
X24579605Y-131182000D01*
X24220395Y-131182000D01*
X23066680Y-130028285D01*
X22773877Y-130157533D01*
X22505612Y-130857806D01*
X21241000Y-130857806D01*
X21241000Y-129848680D01*
X23246285Y-129848680D01*
X24400000Y-131002395D01*
X25553715Y-129848680D01*
X25424467Y-129555877D01*
X24724194Y-129287612D01*
X23974565Y-129307750D01*
X23375533Y-129555877D01*
X23246285Y-129848680D01*
X21241000Y-129848680D01*
X21241000Y-126555305D01*
X22514674Y-126555305D01*
X22801043Y-127248372D01*
X23330839Y-127779093D01*
X24023405Y-128066672D01*
X24773305Y-128067326D01*
X25466372Y-127780957D01*
X25997093Y-127251161D01*
X26284672Y-126558595D01*
X26285326Y-125808695D01*
X25998957Y-125115628D01*
X25469161Y-124584907D01*
X24776595Y-124297328D01*
X24026695Y-124296674D01*
X23333628Y-124583043D01*
X22802907Y-125112839D01*
X22515328Y-125805405D01*
X22514674Y-126555305D01*
X21241000Y-126555305D01*
X21241000Y-121370320D01*
X23246285Y-121370320D01*
X23375533Y-121663123D01*
X24075806Y-121931388D01*
X24825435Y-121911250D01*
X25424467Y-121663123D01*
X25553715Y-121370320D01*
X24400000Y-120216605D01*
X23246285Y-121370320D01*
X21241000Y-121370320D01*
X21241000Y-119712806D01*
X22505612Y-119712806D01*
X22525750Y-120462435D01*
X22773877Y-121061467D01*
X23066680Y-121190715D01*
X24220395Y-120037000D01*
X24579605Y-120037000D01*
X25733320Y-121190715D01*
X26026123Y-121061467D01*
X26294388Y-120361194D01*
X26274250Y-119611565D01*
X26026123Y-119012533D01*
X25733320Y-118883285D01*
X24579605Y-120037000D01*
X24220395Y-120037000D01*
X23066680Y-118883285D01*
X22773877Y-119012533D01*
X22505612Y-119712806D01*
X21241000Y-119712806D01*
X21241000Y-118703680D01*
X23246285Y-118703680D01*
X24400000Y-119857395D01*
X25553715Y-118703680D01*
X25424467Y-118410877D01*
X24724194Y-118142612D01*
X23974565Y-118162750D01*
X23375533Y-118410877D01*
X23246285Y-118703680D01*
X21241000Y-118703680D01*
X21241000Y-115410305D01*
X22514674Y-115410305D01*
X22801043Y-116103372D01*
X23330839Y-116634093D01*
X24023405Y-116921672D01*
X24773305Y-116922326D01*
X25466372Y-116635957D01*
X25997093Y-116106161D01*
X26284672Y-115413595D01*
X26285326Y-114663695D01*
X26180077Y-114408971D01*
X39768821Y-114408971D01*
X39926058Y-114789515D01*
X40216954Y-115080919D01*
X40597223Y-115238820D01*
X40764164Y-115238966D01*
X41298000Y-115772802D01*
X41298000Y-124046000D01*
X41355852Y-124336839D01*
X41520599Y-124583401D01*
X47428453Y-130491255D01*
X47301328Y-130797405D01*
X47300674Y-131547305D01*
X47587043Y-132240372D01*
X48116839Y-132771093D01*
X48809405Y-133058672D01*
X49559305Y-133059326D01*
X50252372Y-132772957D01*
X50783093Y-132243161D01*
X51070672Y-131550595D01*
X51071326Y-130800695D01*
X50784957Y-130107628D01*
X50255161Y-129576907D01*
X49562595Y-129289328D01*
X48812695Y-129288674D01*
X48503311Y-129416509D01*
X42818000Y-123731198D01*
X42818000Y-115458000D01*
X42760148Y-115167161D01*
X42595401Y-114920599D01*
X41878802Y-114204000D01*
X42611401Y-113471401D01*
X42776148Y-113224840D01*
X42834000Y-112934000D01*
X42834000Y-106476911D01*
X43137223Y-106602820D01*
X43304164Y-106602966D01*
X44616000Y-107914802D01*
X44616000Y-122364000D01*
X44673852Y-122654839D01*
X44838599Y-122901401D01*
X47428453Y-125491255D01*
X47301328Y-125797405D01*
X47300674Y-126547305D01*
X47587043Y-127240372D01*
X48116839Y-127771093D01*
X48809405Y-128058672D01*
X49559305Y-128059326D01*
X50252372Y-127772957D01*
X50783093Y-127243161D01*
X51070672Y-126550595D01*
X51071326Y-125800695D01*
X50784957Y-125107628D01*
X50255161Y-124576907D01*
X49562595Y-124289328D01*
X48812695Y-124288674D01*
X48503311Y-124416509D01*
X46136000Y-122049198D01*
X46136000Y-121339320D01*
X48032285Y-121339320D01*
X48161533Y-121632123D01*
X48861806Y-121900388D01*
X49611435Y-121880250D01*
X50210467Y-121632123D01*
X50339715Y-121339320D01*
X49186000Y-120185605D01*
X48032285Y-121339320D01*
X46136000Y-121339320D01*
X46136000Y-119681806D01*
X47291612Y-119681806D01*
X47311750Y-120431435D01*
X47559877Y-121030467D01*
X47852680Y-121159715D01*
X49006395Y-120006000D01*
X49365605Y-120006000D01*
X50519320Y-121159715D01*
X50812123Y-121030467D01*
X51080388Y-120330194D01*
X51060250Y-119580565D01*
X50812123Y-118981533D01*
X50519320Y-118852285D01*
X49365605Y-120006000D01*
X49006395Y-120006000D01*
X47852680Y-118852285D01*
X47559877Y-118981533D01*
X47291612Y-119681806D01*
X46136000Y-119681806D01*
X46136000Y-118672680D01*
X48032285Y-118672680D01*
X49186000Y-119826395D01*
X50339715Y-118672680D01*
X50210467Y-118379877D01*
X49510194Y-118111612D01*
X48760565Y-118131750D01*
X48161533Y-118379877D01*
X48032285Y-118672680D01*
X46136000Y-118672680D01*
X46136000Y-115379305D01*
X47300674Y-115379305D01*
X47587043Y-116072372D01*
X48116839Y-116603093D01*
X48809405Y-116890672D01*
X49559305Y-116891326D01*
X50252372Y-116604957D01*
X50783093Y-116075161D01*
X51070672Y-115382595D01*
X51071326Y-114632695D01*
X50784957Y-113939628D01*
X50255161Y-113408907D01*
X49562595Y-113121328D01*
X48812695Y-113120674D01*
X48119628Y-113407043D01*
X47588907Y-113936839D01*
X47301328Y-114629405D01*
X47300674Y-115379305D01*
X46136000Y-115379305D01*
X46136000Y-107600000D01*
X46078148Y-107309161D01*
X45913401Y-107062599D01*
X44379035Y-105528233D01*
X44379179Y-105363029D01*
X44221942Y-104982485D01*
X43931046Y-104691081D01*
X43550777Y-104533180D01*
X43139029Y-104532821D01*
X42834000Y-104658856D01*
X42834000Y-104493761D01*
X42950919Y-104377046D01*
X43108820Y-103996777D01*
X43109179Y-103585029D01*
X42951942Y-103204485D01*
X42661046Y-102913081D01*
X42280777Y-102755180D01*
X41869029Y-102754821D01*
X41488485Y-102912058D01*
X41197081Y-103202954D01*
X41039180Y-103583223D01*
X41038821Y-103994971D01*
X41196058Y-104375515D01*
X41314000Y-104493663D01*
X41314000Y-112619198D01*
X40764233Y-113168965D01*
X40599029Y-113168821D01*
X40218485Y-113326058D01*
X39927081Y-113616954D01*
X39769180Y-113997223D01*
X39768821Y-114408971D01*
X26180077Y-114408971D01*
X25998957Y-113970628D01*
X25469161Y-113439907D01*
X24776595Y-113152328D01*
X24026695Y-113151674D01*
X23333628Y-113438043D01*
X22802907Y-113967839D01*
X22515328Y-114660405D01*
X22514674Y-115410305D01*
X21241000Y-115410305D01*
X21241000Y-110429774D01*
X21545090Y-111165727D01*
X22145114Y-111766800D01*
X22929485Y-112092499D01*
X23778789Y-112093240D01*
X24563727Y-111768910D01*
X25164800Y-111168886D01*
X25490499Y-110384515D01*
X25491240Y-109535211D01*
X25166910Y-108750273D01*
X24566886Y-108149200D01*
X23782515Y-107823501D01*
X22933211Y-107822760D01*
X22148273Y-108147090D01*
X21547200Y-108747114D01*
X21241000Y-109484526D01*
X21241000Y-96678931D01*
X33343691Y-96678931D01*
X33377158Y-97089318D01*
X33465103Y-97301635D01*
X33343691Y-97678931D01*
X33377158Y-98089318D01*
X33465103Y-98301635D01*
X33343691Y-98678931D01*
X33377158Y-99089318D01*
X33465103Y-99301635D01*
X33343691Y-99678931D01*
X33377158Y-100089318D01*
X33465103Y-100301635D01*
X33343691Y-100678931D01*
X33377158Y-101089318D01*
X33469820Y-101313023D01*
X33674650Y-101337745D01*
X34190098Y-100822297D01*
X34270931Y-100848309D01*
X34356932Y-100841296D01*
X34370005Y-101001600D01*
X33854255Y-101517350D01*
X33878977Y-101722180D01*
X34270931Y-101848309D01*
X34681318Y-101814842D01*
X34893635Y-101726897D01*
X35270931Y-101848309D01*
X35681318Y-101814842D01*
X35893635Y-101726897D01*
X36270931Y-101848309D01*
X36681318Y-101814842D01*
X36893635Y-101726897D01*
X37270931Y-101848309D01*
X37681318Y-101814842D01*
X37893635Y-101726897D01*
X38270931Y-101848309D01*
X38681318Y-101814842D01*
X38905023Y-101722180D01*
X38929745Y-101517350D01*
X38414297Y-101001902D01*
X38440309Y-100921069D01*
X38433296Y-100835068D01*
X38593600Y-100821995D01*
X39109350Y-101337745D01*
X39314180Y-101313023D01*
X39440309Y-100921069D01*
X39406842Y-100510682D01*
X39318897Y-100298365D01*
X39440309Y-99921069D01*
X39406842Y-99510682D01*
X39318897Y-99298365D01*
X39440309Y-98921069D01*
X39406842Y-98510682D01*
X39318897Y-98298365D01*
X39440309Y-97921069D01*
X39406842Y-97510682D01*
X39318897Y-97298365D01*
X39440309Y-96921069D01*
X39406842Y-96510682D01*
X39314180Y-96286977D01*
X39109350Y-96262255D01*
X38593902Y-96777703D01*
X38513069Y-96751691D01*
X38427068Y-96758704D01*
X38413995Y-96598400D01*
X38929745Y-96082650D01*
X38905023Y-95877820D01*
X38513069Y-95751691D01*
X38102682Y-95785158D01*
X37890365Y-95873103D01*
X37513069Y-95751691D01*
X37102682Y-95785158D01*
X36890365Y-95873103D01*
X36513069Y-95751691D01*
X36102682Y-95785158D01*
X35890365Y-95873103D01*
X35513069Y-95751691D01*
X35102682Y-95785158D01*
X34890365Y-95873103D01*
X34513069Y-95751691D01*
X34102682Y-95785158D01*
X33878977Y-95877820D01*
X33854255Y-96082650D01*
X34369703Y-96598098D01*
X34343691Y-96678931D01*
X34350704Y-96764932D01*
X34190400Y-96778005D01*
X33674650Y-96262255D01*
X33469820Y-96286977D01*
X33343691Y-96678931D01*
X21241000Y-96678931D01*
X21241000Y-90843000D01*
X52471000Y-90843000D01*
X52471000Y-93412130D01*
G36*
X85471000Y-93412130D02*
X85444130Y-93401000D01*
X84503750Y-93401000D01*
X84345000Y-93559750D01*
X84345000Y-94671000D01*
X84365000Y-94671000D01*
X84365000Y-94925000D01*
X84345000Y-94925000D01*
X84345000Y-94945000D01*
X84091000Y-94945000D01*
X84091000Y-94925000D01*
X82641930Y-94925000D01*
X82483180Y-95083750D01*
X82483180Y-95686309D01*
X82579853Y-95919698D01*
X82758481Y-96098327D01*
X82991870Y-96195000D01*
X83090596Y-96195000D01*
X82858365Y-96350172D01*
X82706135Y-96578000D01*
X76556802Y-96578000D01*
X73888493Y-93909691D01*
X82483180Y-93909691D01*
X82483180Y-94512250D01*
X82641930Y-94671000D01*
X84091000Y-94671000D01*
X84091000Y-93559750D01*
X83932250Y-93401000D01*
X82991870Y-93401000D01*
X82758481Y-93497673D01*
X82579853Y-93676302D01*
X82483180Y-93909691D01*
X73888493Y-93909691D01*
X73569035Y-93590233D01*
X73569179Y-93425029D01*
X73411942Y-93044485D01*
X73121046Y-92753081D01*
X72740777Y-92595180D01*
X72329029Y-92594821D01*
X71948485Y-92752058D01*
X71657081Y-93042954D01*
X71499180Y-93423223D01*
X71498821Y-93834971D01*
X71656058Y-94215515D01*
X71946954Y-94506919D01*
X72327223Y-94664820D01*
X72494164Y-94664966D01*
X75704599Y-97875401D01*
X75951161Y-98040148D01*
X76242000Y-98098000D01*
X82706135Y-98098000D01*
X82858365Y-98325828D01*
X83280664Y-98608000D01*
X82858365Y-98890172D01*
X82555533Y-99343391D01*
X82449193Y-99878000D01*
X82555533Y-100412609D01*
X82858365Y-100865828D01*
X83280664Y-101148000D01*
X82858365Y-101430172D01*
X82555533Y-101883391D01*
X82449193Y-102418000D01*
X82555533Y-102952609D01*
X82858365Y-103405828D01*
X83280664Y-103688000D01*
X82858365Y-103970172D01*
X82555533Y-104423391D01*
X82449193Y-104958000D01*
X82555533Y-105492609D01*
X82858365Y-105945828D01*
X83311584Y-106248660D01*
X83846193Y-106355000D01*
X84589807Y-106355000D01*
X85124416Y-106248660D01*
X85471000Y-106017079D01*
X85471000Y-109486226D01*
X85166910Y-108750273D01*
X84566886Y-108149200D01*
X83782515Y-107823501D01*
X82933211Y-107822760D01*
X82148273Y-108147090D01*
X81547200Y-108747114D01*
X81221501Y-109531485D01*
X81220760Y-110380789D01*
X81545090Y-111165727D01*
X82145114Y-111766800D01*
X82929485Y-112092499D01*
X83778789Y-112093240D01*
X84563727Y-111768910D01*
X85164800Y-111168886D01*
X85471000Y-110431474D01*
X85471000Y-136486226D01*
X85166910Y-135750273D01*
X84566886Y-135149200D01*
X83782515Y-134823501D01*
X82933211Y-134822760D01*
X82148273Y-135147090D01*
X81547200Y-135747114D01*
X81221501Y-136531485D01*
X81220760Y-137380789D01*
X81545090Y-138165727D01*
X82145114Y-138766800D01*
X82882526Y-139073000D01*
X56827774Y-139073000D01*
X57563727Y-138768910D01*
X58164800Y-138168886D01*
X58490499Y-137384515D01*
X58491240Y-136535211D01*
X58444175Y-136421305D01*
X65354674Y-136421305D01*
X65641043Y-137114372D01*
X66170839Y-137645093D01*
X66863405Y-137932672D01*
X67613305Y-137933326D01*
X68306372Y-137646957D01*
X68572472Y-137381320D01*
X71086285Y-137381320D01*
X71215533Y-137674123D01*
X71915806Y-137942388D01*
X72665435Y-137922250D01*
X73264467Y-137674123D01*
X73393715Y-137381320D01*
X72240000Y-136227605D01*
X71086285Y-137381320D01*
X68572472Y-137381320D01*
X68837093Y-137117161D01*
X69124672Y-136424595D01*
X69125283Y-135723806D01*
X70345612Y-135723806D01*
X70365750Y-136473435D01*
X70613877Y-137072467D01*
X70906680Y-137201715D01*
X72060395Y-136048000D01*
X72419605Y-136048000D01*
X73573320Y-137201715D01*
X73866123Y-137072467D01*
X74134388Y-136372194D01*
X74114250Y-135622565D01*
X73866123Y-135023533D01*
X73573320Y-134894285D01*
X72419605Y-136048000D01*
X72060395Y-136048000D01*
X70906680Y-134894285D01*
X70613877Y-135023533D01*
X70345612Y-135723806D01*
X69125283Y-135723806D01*
X69125326Y-135674695D01*
X68838957Y-134981628D01*
X68572475Y-134714680D01*
X71086285Y-134714680D01*
X72240000Y-135868395D01*
X73393715Y-134714680D01*
X73264467Y-134421877D01*
X72564194Y-134153612D01*
X71814565Y-134173750D01*
X71215533Y-134421877D01*
X71086285Y-134714680D01*
X68572475Y-134714680D01*
X68309161Y-134450907D01*
X67616595Y-134163328D01*
X66866695Y-134162674D01*
X66173628Y-134449043D01*
X65642907Y-134978839D01*
X65355328Y-135671405D01*
X65354674Y-136421305D01*
X58444175Y-136421305D01*
X58166910Y-135750273D01*
X57566886Y-135149200D01*
X56782515Y-134823501D01*
X55933211Y-134822760D01*
X55148273Y-135147090D01*
X54547200Y-135747114D01*
X54241000Y-136484526D01*
X54241000Y-132515320D01*
X56246285Y-132515320D01*
X56375533Y-132808123D01*
X57075806Y-133076388D01*
X57825435Y-133056250D01*
X58424467Y-132808123D01*
X58553715Y-132515320D01*
X57400000Y-131361605D01*
X56246285Y-132515320D01*
X54241000Y-132515320D01*
X54241000Y-130857806D01*
X55505612Y-130857806D01*
X55525750Y-131607435D01*
X55773877Y-132206467D01*
X56066680Y-132335715D01*
X57220395Y-131182000D01*
X57579605Y-131182000D01*
X58733320Y-132335715D01*
X59026123Y-132206467D01*
X59294388Y-131506194D01*
X59274250Y-130756565D01*
X59026123Y-130157533D01*
X58733320Y-130028285D01*
X57579605Y-131182000D01*
X57220395Y-131182000D01*
X56066680Y-130028285D01*
X55773877Y-130157533D01*
X55505612Y-130857806D01*
X54241000Y-130857806D01*
X54241000Y-129848680D01*
X56246285Y-129848680D01*
X57400000Y-131002395D01*
X58553715Y-129848680D01*
X58424467Y-129555877D01*
X57724194Y-129287612D01*
X56974565Y-129307750D01*
X56375533Y-129555877D01*
X56246285Y-129848680D01*
X54241000Y-129848680D01*
X54241000Y-126555305D01*
X55514674Y-126555305D01*
X55801043Y-127248372D01*
X56330839Y-127779093D01*
X57023405Y-128066672D01*
X57773305Y-128067326D01*
X58466372Y-127780957D01*
X58997093Y-127251161D01*
X59284672Y-126558595D01*
X59285326Y-125808695D01*
X58998957Y-125115628D01*
X58469161Y-124584907D01*
X57776595Y-124297328D01*
X57026695Y-124296674D01*
X56333628Y-124583043D01*
X55802907Y-125112839D01*
X55515328Y-125805405D01*
X55514674Y-126555305D01*
X54241000Y-126555305D01*
X54241000Y-121370320D01*
X56246285Y-121370320D01*
X56375533Y-121663123D01*
X57075806Y-121931388D01*
X57825435Y-121911250D01*
X58424467Y-121663123D01*
X58553715Y-121370320D01*
X57400000Y-120216605D01*
X56246285Y-121370320D01*
X54241000Y-121370320D01*
X54241000Y-119712806D01*
X55505612Y-119712806D01*
X55525750Y-120462435D01*
X55773877Y-121061467D01*
X56066680Y-121190715D01*
X57220395Y-120037000D01*
X57579605Y-120037000D01*
X58733320Y-121190715D01*
X59026123Y-121061467D01*
X59294388Y-120361194D01*
X59274250Y-119611565D01*
X59026123Y-119012533D01*
X58733320Y-118883285D01*
X57579605Y-120037000D01*
X57220395Y-120037000D01*
X56066680Y-118883285D01*
X55773877Y-119012533D01*
X55505612Y-119712806D01*
X54241000Y-119712806D01*
X54241000Y-118703680D01*
X56246285Y-118703680D01*
X57400000Y-119857395D01*
X58553715Y-118703680D01*
X58424467Y-118410877D01*
X57724194Y-118142612D01*
X56974565Y-118162750D01*
X56375533Y-118410877D01*
X56246285Y-118703680D01*
X54241000Y-118703680D01*
X54241000Y-115410305D01*
X55514674Y-115410305D01*
X55801043Y-116103372D01*
X56330839Y-116634093D01*
X57023405Y-116921672D01*
X57773305Y-116922326D01*
X58466372Y-116635957D01*
X58997093Y-116106161D01*
X59284672Y-115413595D01*
X59285326Y-114663695D01*
X59180077Y-114408971D01*
X72768821Y-114408971D01*
X72926058Y-114789515D01*
X73216954Y-115080919D01*
X73597223Y-115238820D01*
X73764164Y-115238966D01*
X74298000Y-115772802D01*
X74298000Y-124046000D01*
X74355852Y-124336839D01*
X74520599Y-124583401D01*
X80428453Y-130491255D01*
X80301328Y-130797405D01*
X80300674Y-131547305D01*
X80587043Y-132240372D01*
X81116839Y-132771093D01*
X81809405Y-133058672D01*
X82559305Y-133059326D01*
X83252372Y-132772957D01*
X83783093Y-132243161D01*
X84070672Y-131550595D01*
X84071326Y-130800695D01*
X83784957Y-130107628D01*
X83255161Y-129576907D01*
X82562595Y-129289328D01*
X81812695Y-129288674D01*
X81503311Y-129416509D01*
X75818000Y-123731198D01*
X75818000Y-115458000D01*
X75760148Y-115167161D01*
X75595401Y-114920599D01*
X74878802Y-114204000D01*
X75611401Y-113471401D01*
X75776148Y-113224840D01*
X75834000Y-112934000D01*
X75834000Y-106476911D01*
X76137223Y-106602820D01*
X76304164Y-106602966D01*
X77616000Y-107914802D01*
X77616000Y-122364000D01*
X77673852Y-122654839D01*
X77838599Y-122901401D01*
X80428453Y-125491255D01*
X80301328Y-125797405D01*
X80300674Y-126547305D01*
X80587043Y-127240372D01*
X81116839Y-127771093D01*
X81809405Y-128058672D01*
X82559305Y-128059326D01*
X83252372Y-127772957D01*
X83783093Y-127243161D01*
X84070672Y-126550595D01*
X84071326Y-125800695D01*
X83784957Y-125107628D01*
X83255161Y-124576907D01*
X82562595Y-124289328D01*
X81812695Y-124288674D01*
X81503311Y-124416509D01*
X79136000Y-122049198D01*
X79136000Y-121339320D01*
X81032285Y-121339320D01*
X81161533Y-121632123D01*
X81861806Y-121900388D01*
X82611435Y-121880250D01*
X83210467Y-121632123D01*
X83339715Y-121339320D01*
X82186000Y-120185605D01*
X81032285Y-121339320D01*
X79136000Y-121339320D01*
X79136000Y-119681806D01*
X80291612Y-119681806D01*
X80311750Y-120431435D01*
X80559877Y-121030467D01*
X80852680Y-121159715D01*
X82006395Y-120006000D01*
X82365605Y-120006000D01*
X83519320Y-121159715D01*
X83812123Y-121030467D01*
X84080388Y-120330194D01*
X84060250Y-119580565D01*
X83812123Y-118981533D01*
X83519320Y-118852285D01*
X82365605Y-120006000D01*
X82006395Y-120006000D01*
X80852680Y-118852285D01*
X80559877Y-118981533D01*
X80291612Y-119681806D01*
X79136000Y-119681806D01*
X79136000Y-118672680D01*
X81032285Y-118672680D01*
X82186000Y-119826395D01*
X83339715Y-118672680D01*
X83210467Y-118379877D01*
X82510194Y-118111612D01*
X81760565Y-118131750D01*
X81161533Y-118379877D01*
X81032285Y-118672680D01*
X79136000Y-118672680D01*
X79136000Y-115379305D01*
X80300674Y-115379305D01*
X80587043Y-116072372D01*
X81116839Y-116603093D01*
X81809405Y-116890672D01*
X82559305Y-116891326D01*
X83252372Y-116604957D01*
X83783093Y-116075161D01*
X84070672Y-115382595D01*
X84071326Y-114632695D01*
X83784957Y-113939628D01*
X83255161Y-113408907D01*
X82562595Y-113121328D01*
X81812695Y-113120674D01*
X81119628Y-113407043D01*
X80588907Y-113936839D01*
X80301328Y-114629405D01*
X80300674Y-115379305D01*
X79136000Y-115379305D01*
X79136000Y-107600000D01*
X79078148Y-107309161D01*
X78913401Y-107062599D01*
X77379035Y-105528233D01*
X77379179Y-105363029D01*
X77221942Y-104982485D01*
X76931046Y-104691081D01*
X76550777Y-104533180D01*
X76139029Y-104532821D01*
X75834000Y-104658856D01*
X75834000Y-104493761D01*
X75950919Y-104377046D01*
X76108820Y-103996777D01*
X76109179Y-103585029D01*
X75951942Y-103204485D01*
X75661046Y-102913081D01*
X75280777Y-102755180D01*
X74869029Y-102754821D01*
X74488485Y-102912058D01*
X74197081Y-103202954D01*
X74039180Y-103583223D01*
X74038821Y-103994971D01*
X74196058Y-104375515D01*
X74314000Y-104493663D01*
X74314000Y-112619198D01*
X73764233Y-113168965D01*
X73599029Y-113168821D01*
X73218485Y-113326058D01*
X72927081Y-113616954D01*
X72769180Y-113997223D01*
X72768821Y-114408971D01*
X59180077Y-114408971D01*
X58998957Y-113970628D01*
X58469161Y-113439907D01*
X57776595Y-113152328D01*
X57026695Y-113151674D01*
X56333628Y-113438043D01*
X55802907Y-113967839D01*
X55515328Y-114660405D01*
X55514674Y-115410305D01*
X54241000Y-115410305D01*
X54241000Y-110429774D01*
X54545090Y-111165727D01*
X55145114Y-111766800D01*
X55929485Y-112092499D01*
X56778789Y-112093240D01*
X57563727Y-111768910D01*
X58164800Y-111168886D01*
X58490499Y-110384515D01*
X58491240Y-109535211D01*
X58166910Y-108750273D01*
X57566886Y-108149200D01*
X56782515Y-107823501D01*
X55933211Y-107822760D01*
X55148273Y-108147090D01*
X54547200Y-108747114D01*
X54241000Y-109484526D01*
X54241000Y-96678931D01*
X66343691Y-96678931D01*
X66377158Y-97089318D01*
X66465103Y-97301635D01*
X66343691Y-97678931D01*
X66377158Y-98089318D01*
X66465103Y-98301635D01*
X66343691Y-98678931D01*
X66377158Y-99089318D01*
X66465103Y-99301635D01*
X66343691Y-99678931D01*
X66377158Y-100089318D01*
X66465103Y-100301635D01*
X66343691Y-100678931D01*
X66377158Y-101089318D01*
X66469820Y-101313023D01*
X66674650Y-101337745D01*
X67190098Y-100822297D01*
X67270931Y-100848309D01*
X67356932Y-100841296D01*
X67370005Y-101001600D01*
X66854255Y-101517350D01*
X66878977Y-101722180D01*
X67270931Y-101848309D01*
X67681318Y-101814842D01*
X67893635Y-101726897D01*
X68270931Y-101848309D01*
X68681318Y-101814842D01*
X68893635Y-101726897D01*
X69270931Y-101848309D01*
X69681318Y-101814842D01*
X69893635Y-101726897D01*
X70270931Y-101848309D01*
X70681318Y-101814842D01*
X70893635Y-101726897D01*
X71270931Y-101848309D01*
X71681318Y-101814842D01*
X71905023Y-101722180D01*
X71929745Y-101517350D01*
X71414297Y-101001902D01*
X71440309Y-100921069D01*
X71433296Y-100835068D01*
X71593600Y-100821995D01*
X72109350Y-101337745D01*
X72314180Y-101313023D01*
X72440309Y-100921069D01*
X72406842Y-100510682D01*
X72318897Y-100298365D01*
X72440309Y-99921069D01*
X72406842Y-99510682D01*
X72318897Y-99298365D01*
X72440309Y-98921069D01*
X72406842Y-98510682D01*
X72318897Y-98298365D01*
X72440309Y-97921069D01*
X72406842Y-97510682D01*
X72318897Y-97298365D01*
X72440309Y-96921069D01*
X72406842Y-96510682D01*
X72314180Y-96286977D01*
X72109350Y-96262255D01*
X71593902Y-96777703D01*
X71513069Y-96751691D01*
X71427068Y-96758704D01*
X71413995Y-96598400D01*
X71929745Y-96082650D01*
X71905023Y-95877820D01*
X71513069Y-95751691D01*
X71102682Y-95785158D01*
X70890365Y-95873103D01*
X70513069Y-95751691D01*
X70102682Y-95785158D01*
X69890365Y-95873103D01*
X69513069Y-95751691D01*
X69102682Y-95785158D01*
X68890365Y-95873103D01*
X68513069Y-95751691D01*
X68102682Y-95785158D01*
X67890365Y-95873103D01*
X67513069Y-95751691D01*
X67102682Y-95785158D01*
X66878977Y-95877820D01*
X66854255Y-96082650D01*
X67369703Y-96598098D01*
X67343691Y-96678931D01*
X67350704Y-96764932D01*
X67190400Y-96778005D01*
X66674650Y-96262255D01*
X66469820Y-96286977D01*
X66343691Y-96678931D01*
X54241000Y-96678931D01*
X54241000Y-90843000D01*
X85471000Y-90843000D01*
X85471000Y-93412130D01*
X85471000Y-93412130D01*
G37*
X85471000Y-93412130D02*
X85444130Y-93401000D01*
X84503750Y-93401000D01*
X84345000Y-93559750D01*
X84345000Y-94671000D01*
X84365000Y-94671000D01*
X84365000Y-94925000D01*
X84345000Y-94925000D01*
X84345000Y-94945000D01*
X84091000Y-94945000D01*
X84091000Y-94925000D01*
X82641930Y-94925000D01*
X82483180Y-95083750D01*
X82483180Y-95686309D01*
X82579853Y-95919698D01*
X82758481Y-96098327D01*
X82991870Y-96195000D01*
X83090596Y-96195000D01*
X82858365Y-96350172D01*
X82706135Y-96578000D01*
X76556802Y-96578000D01*
X73888493Y-93909691D01*
X82483180Y-93909691D01*
X82483180Y-94512250D01*
X82641930Y-94671000D01*
X84091000Y-94671000D01*
X84091000Y-93559750D01*
X83932250Y-93401000D01*
X82991870Y-93401000D01*
X82758481Y-93497673D01*
X82579853Y-93676302D01*
X82483180Y-93909691D01*
X73888493Y-93909691D01*
X73569035Y-93590233D01*
X73569179Y-93425029D01*
X73411942Y-93044485D01*
X73121046Y-92753081D01*
X72740777Y-92595180D01*
X72329029Y-92594821D01*
X71948485Y-92752058D01*
X71657081Y-93042954D01*
X71499180Y-93423223D01*
X71498821Y-93834971D01*
X71656058Y-94215515D01*
X71946954Y-94506919D01*
X72327223Y-94664820D01*
X72494164Y-94664966D01*
X75704599Y-97875401D01*
X75951161Y-98040148D01*
X76242000Y-98098000D01*
X82706135Y-98098000D01*
X82858365Y-98325828D01*
X83280664Y-98608000D01*
X82858365Y-98890172D01*
X82555533Y-99343391D01*
X82449193Y-99878000D01*
X82555533Y-100412609D01*
X82858365Y-100865828D01*
X83280664Y-101148000D01*
X82858365Y-101430172D01*
X82555533Y-101883391D01*
X82449193Y-102418000D01*
X82555533Y-102952609D01*
X82858365Y-103405828D01*
X83280664Y-103688000D01*
X82858365Y-103970172D01*
X82555533Y-104423391D01*
X82449193Y-104958000D01*
X82555533Y-105492609D01*
X82858365Y-105945828D01*
X83311584Y-106248660D01*
X83846193Y-106355000D01*
X84589807Y-106355000D01*
X85124416Y-106248660D01*
X85471000Y-106017079D01*
X85471000Y-109486226D01*
X85166910Y-108750273D01*
X84566886Y-108149200D01*
X83782515Y-107823501D01*
X82933211Y-107822760D01*
X82148273Y-108147090D01*
X81547200Y-108747114D01*
X81221501Y-109531485D01*
X81220760Y-110380789D01*
X81545090Y-111165727D01*
X82145114Y-111766800D01*
X82929485Y-112092499D01*
X83778789Y-112093240D01*
X84563727Y-111768910D01*
X85164800Y-111168886D01*
X85471000Y-110431474D01*
X85471000Y-136486226D01*
X85166910Y-135750273D01*
X84566886Y-135149200D01*
X83782515Y-134823501D01*
X82933211Y-134822760D01*
X82148273Y-135147090D01*
X81547200Y-135747114D01*
X81221501Y-136531485D01*
X81220760Y-137380789D01*
X81545090Y-138165727D01*
X82145114Y-138766800D01*
X82882526Y-139073000D01*
X56827774Y-139073000D01*
X57563727Y-138768910D01*
X58164800Y-138168886D01*
X58490499Y-137384515D01*
X58491240Y-136535211D01*
X58444175Y-136421305D01*
X65354674Y-136421305D01*
X65641043Y-137114372D01*
X66170839Y-137645093D01*
X66863405Y-137932672D01*
X67613305Y-137933326D01*
X68306372Y-137646957D01*
X68572472Y-137381320D01*
X71086285Y-137381320D01*
X71215533Y-137674123D01*
X71915806Y-137942388D01*
X72665435Y-137922250D01*
X73264467Y-137674123D01*
X73393715Y-137381320D01*
X72240000Y-136227605D01*
X71086285Y-137381320D01*
X68572472Y-137381320D01*
X68837093Y-137117161D01*
X69124672Y-136424595D01*
X69125283Y-135723806D01*
X70345612Y-135723806D01*
X70365750Y-136473435D01*
X70613877Y-137072467D01*
X70906680Y-137201715D01*
X72060395Y-136048000D01*
X72419605Y-136048000D01*
X73573320Y-137201715D01*
X73866123Y-137072467D01*
X74134388Y-136372194D01*
X74114250Y-135622565D01*
X73866123Y-135023533D01*
X73573320Y-134894285D01*
X72419605Y-136048000D01*
X72060395Y-136048000D01*
X70906680Y-134894285D01*
X70613877Y-135023533D01*
X70345612Y-135723806D01*
X69125283Y-135723806D01*
X69125326Y-135674695D01*
X68838957Y-134981628D01*
X68572475Y-134714680D01*
X71086285Y-134714680D01*
X72240000Y-135868395D01*
X73393715Y-134714680D01*
X73264467Y-134421877D01*
X72564194Y-134153612D01*
X71814565Y-134173750D01*
X71215533Y-134421877D01*
X71086285Y-134714680D01*
X68572475Y-134714680D01*
X68309161Y-134450907D01*
X67616595Y-134163328D01*
X66866695Y-134162674D01*
X66173628Y-134449043D01*
X65642907Y-134978839D01*
X65355328Y-135671405D01*
X65354674Y-136421305D01*
X58444175Y-136421305D01*
X58166910Y-135750273D01*
X57566886Y-135149200D01*
X56782515Y-134823501D01*
X55933211Y-134822760D01*
X55148273Y-135147090D01*
X54547200Y-135747114D01*
X54241000Y-136484526D01*
X54241000Y-132515320D01*
X56246285Y-132515320D01*
X56375533Y-132808123D01*
X57075806Y-133076388D01*
X57825435Y-133056250D01*
X58424467Y-132808123D01*
X58553715Y-132515320D01*
X57400000Y-131361605D01*
X56246285Y-132515320D01*
X54241000Y-132515320D01*
X54241000Y-130857806D01*
X55505612Y-130857806D01*
X55525750Y-131607435D01*
X55773877Y-132206467D01*
X56066680Y-132335715D01*
X57220395Y-131182000D01*
X57579605Y-131182000D01*
X58733320Y-132335715D01*
X59026123Y-132206467D01*
X59294388Y-131506194D01*
X59274250Y-130756565D01*
X59026123Y-130157533D01*
X58733320Y-130028285D01*
X57579605Y-131182000D01*
X57220395Y-131182000D01*
X56066680Y-130028285D01*
X55773877Y-130157533D01*
X55505612Y-130857806D01*
X54241000Y-130857806D01*
X54241000Y-129848680D01*
X56246285Y-129848680D01*
X57400000Y-131002395D01*
X58553715Y-129848680D01*
X58424467Y-129555877D01*
X57724194Y-129287612D01*
X56974565Y-129307750D01*
X56375533Y-129555877D01*
X56246285Y-129848680D01*
X54241000Y-129848680D01*
X54241000Y-126555305D01*
X55514674Y-126555305D01*
X55801043Y-127248372D01*
X56330839Y-127779093D01*
X57023405Y-128066672D01*
X57773305Y-128067326D01*
X58466372Y-127780957D01*
X58997093Y-127251161D01*
X59284672Y-126558595D01*
X59285326Y-125808695D01*
X58998957Y-125115628D01*
X58469161Y-124584907D01*
X57776595Y-124297328D01*
X57026695Y-124296674D01*
X56333628Y-124583043D01*
X55802907Y-125112839D01*
X55515328Y-125805405D01*
X55514674Y-126555305D01*
X54241000Y-126555305D01*
X54241000Y-121370320D01*
X56246285Y-121370320D01*
X56375533Y-121663123D01*
X57075806Y-121931388D01*
X57825435Y-121911250D01*
X58424467Y-121663123D01*
X58553715Y-121370320D01*
X57400000Y-120216605D01*
X56246285Y-121370320D01*
X54241000Y-121370320D01*
X54241000Y-119712806D01*
X55505612Y-119712806D01*
X55525750Y-120462435D01*
X55773877Y-121061467D01*
X56066680Y-121190715D01*
X57220395Y-120037000D01*
X57579605Y-120037000D01*
X58733320Y-121190715D01*
X59026123Y-121061467D01*
X59294388Y-120361194D01*
X59274250Y-119611565D01*
X59026123Y-119012533D01*
X58733320Y-118883285D01*
X57579605Y-120037000D01*
X57220395Y-120037000D01*
X56066680Y-118883285D01*
X55773877Y-119012533D01*
X55505612Y-119712806D01*
X54241000Y-119712806D01*
X54241000Y-118703680D01*
X56246285Y-118703680D01*
X57400000Y-119857395D01*
X58553715Y-118703680D01*
X58424467Y-118410877D01*
X57724194Y-118142612D01*
X56974565Y-118162750D01*
X56375533Y-118410877D01*
X56246285Y-118703680D01*
X54241000Y-118703680D01*
X54241000Y-115410305D01*
X55514674Y-115410305D01*
X55801043Y-116103372D01*
X56330839Y-116634093D01*
X57023405Y-116921672D01*
X57773305Y-116922326D01*
X58466372Y-116635957D01*
X58997093Y-116106161D01*
X59284672Y-115413595D01*
X59285326Y-114663695D01*
X59180077Y-114408971D01*
X72768821Y-114408971D01*
X72926058Y-114789515D01*
X73216954Y-115080919D01*
X73597223Y-115238820D01*
X73764164Y-115238966D01*
X74298000Y-115772802D01*
X74298000Y-124046000D01*
X74355852Y-124336839D01*
X74520599Y-124583401D01*
X80428453Y-130491255D01*
X80301328Y-130797405D01*
X80300674Y-131547305D01*
X80587043Y-132240372D01*
X81116839Y-132771093D01*
X81809405Y-133058672D01*
X82559305Y-133059326D01*
X83252372Y-132772957D01*
X83783093Y-132243161D01*
X84070672Y-131550595D01*
X84071326Y-130800695D01*
X83784957Y-130107628D01*
X83255161Y-129576907D01*
X82562595Y-129289328D01*
X81812695Y-129288674D01*
X81503311Y-129416509D01*
X75818000Y-123731198D01*
X75818000Y-115458000D01*
X75760148Y-115167161D01*
X75595401Y-114920599D01*
X74878802Y-114204000D01*
X75611401Y-113471401D01*
X75776148Y-113224840D01*
X75834000Y-112934000D01*
X75834000Y-106476911D01*
X76137223Y-106602820D01*
X76304164Y-106602966D01*
X77616000Y-107914802D01*
X77616000Y-122364000D01*
X77673852Y-122654839D01*
X77838599Y-122901401D01*
X80428453Y-125491255D01*
X80301328Y-125797405D01*
X80300674Y-126547305D01*
X80587043Y-127240372D01*
X81116839Y-127771093D01*
X81809405Y-128058672D01*
X82559305Y-128059326D01*
X83252372Y-127772957D01*
X83783093Y-127243161D01*
X84070672Y-126550595D01*
X84071326Y-125800695D01*
X83784957Y-125107628D01*
X83255161Y-124576907D01*
X82562595Y-124289328D01*
X81812695Y-124288674D01*
X81503311Y-124416509D01*
X79136000Y-122049198D01*
X79136000Y-121339320D01*
X81032285Y-121339320D01*
X81161533Y-121632123D01*
X81861806Y-121900388D01*
X82611435Y-121880250D01*
X83210467Y-121632123D01*
X83339715Y-121339320D01*
X82186000Y-120185605D01*
X81032285Y-121339320D01*
X79136000Y-121339320D01*
X79136000Y-119681806D01*
X80291612Y-119681806D01*
X80311750Y-120431435D01*
X80559877Y-121030467D01*
X80852680Y-121159715D01*
X82006395Y-120006000D01*
X82365605Y-120006000D01*
X83519320Y-121159715D01*
X83812123Y-121030467D01*
X84080388Y-120330194D01*
X84060250Y-119580565D01*
X83812123Y-118981533D01*
X83519320Y-118852285D01*
X82365605Y-120006000D01*
X82006395Y-120006000D01*
X80852680Y-118852285D01*
X80559877Y-118981533D01*
X80291612Y-119681806D01*
X79136000Y-119681806D01*
X79136000Y-118672680D01*
X81032285Y-118672680D01*
X82186000Y-119826395D01*
X83339715Y-118672680D01*
X83210467Y-118379877D01*
X82510194Y-118111612D01*
X81760565Y-118131750D01*
X81161533Y-118379877D01*
X81032285Y-118672680D01*
X79136000Y-118672680D01*
X79136000Y-115379305D01*
X80300674Y-115379305D01*
X80587043Y-116072372D01*
X81116839Y-116603093D01*
X81809405Y-116890672D01*
X82559305Y-116891326D01*
X83252372Y-116604957D01*
X83783093Y-116075161D01*
X84070672Y-115382595D01*
X84071326Y-114632695D01*
X83784957Y-113939628D01*
X83255161Y-113408907D01*
X82562595Y-113121328D01*
X81812695Y-113120674D01*
X81119628Y-113407043D01*
X80588907Y-113936839D01*
X80301328Y-114629405D01*
X80300674Y-115379305D01*
X79136000Y-115379305D01*
X79136000Y-107600000D01*
X79078148Y-107309161D01*
X78913401Y-107062599D01*
X77379035Y-105528233D01*
X77379179Y-105363029D01*
X77221942Y-104982485D01*
X76931046Y-104691081D01*
X76550777Y-104533180D01*
X76139029Y-104532821D01*
X75834000Y-104658856D01*
X75834000Y-104493761D01*
X75950919Y-104377046D01*
X76108820Y-103996777D01*
X76109179Y-103585029D01*
X75951942Y-103204485D01*
X75661046Y-102913081D01*
X75280777Y-102755180D01*
X74869029Y-102754821D01*
X74488485Y-102912058D01*
X74197081Y-103202954D01*
X74039180Y-103583223D01*
X74038821Y-103994971D01*
X74196058Y-104375515D01*
X74314000Y-104493663D01*
X74314000Y-112619198D01*
X73764233Y-113168965D01*
X73599029Y-113168821D01*
X73218485Y-113326058D01*
X72927081Y-113616954D01*
X72769180Y-113997223D01*
X72768821Y-114408971D01*
X59180077Y-114408971D01*
X58998957Y-113970628D01*
X58469161Y-113439907D01*
X57776595Y-113152328D01*
X57026695Y-113151674D01*
X56333628Y-113438043D01*
X55802907Y-113967839D01*
X55515328Y-114660405D01*
X55514674Y-115410305D01*
X54241000Y-115410305D01*
X54241000Y-110429774D01*
X54545090Y-111165727D01*
X55145114Y-111766800D01*
X55929485Y-112092499D01*
X56778789Y-112093240D01*
X57563727Y-111768910D01*
X58164800Y-111168886D01*
X58490499Y-110384515D01*
X58491240Y-109535211D01*
X58166910Y-108750273D01*
X57566886Y-108149200D01*
X56782515Y-107823501D01*
X55933211Y-107822760D01*
X55148273Y-108147090D01*
X54547200Y-108747114D01*
X54241000Y-109484526D01*
X54241000Y-96678931D01*
X66343691Y-96678931D01*
X66377158Y-97089318D01*
X66465103Y-97301635D01*
X66343691Y-97678931D01*
X66377158Y-98089318D01*
X66465103Y-98301635D01*
X66343691Y-98678931D01*
X66377158Y-99089318D01*
X66465103Y-99301635D01*
X66343691Y-99678931D01*
X66377158Y-100089318D01*
X66465103Y-100301635D01*
X66343691Y-100678931D01*
X66377158Y-101089318D01*
X66469820Y-101313023D01*
X66674650Y-101337745D01*
X67190098Y-100822297D01*
X67270931Y-100848309D01*
X67356932Y-100841296D01*
X67370005Y-101001600D01*
X66854255Y-101517350D01*
X66878977Y-101722180D01*
X67270931Y-101848309D01*
X67681318Y-101814842D01*
X67893635Y-101726897D01*
X68270931Y-101848309D01*
X68681318Y-101814842D01*
X68893635Y-101726897D01*
X69270931Y-101848309D01*
X69681318Y-101814842D01*
X69893635Y-101726897D01*
X70270931Y-101848309D01*
X70681318Y-101814842D01*
X70893635Y-101726897D01*
X71270931Y-101848309D01*
X71681318Y-101814842D01*
X71905023Y-101722180D01*
X71929745Y-101517350D01*
X71414297Y-101001902D01*
X71440309Y-100921069D01*
X71433296Y-100835068D01*
X71593600Y-100821995D01*
X72109350Y-101337745D01*
X72314180Y-101313023D01*
X72440309Y-100921069D01*
X72406842Y-100510682D01*
X72318897Y-100298365D01*
X72440309Y-99921069D01*
X72406842Y-99510682D01*
X72318897Y-99298365D01*
X72440309Y-98921069D01*
X72406842Y-98510682D01*
X72318897Y-98298365D01*
X72440309Y-97921069D01*
X72406842Y-97510682D01*
X72318897Y-97298365D01*
X72440309Y-96921069D01*
X72406842Y-96510682D01*
X72314180Y-96286977D01*
X72109350Y-96262255D01*
X71593902Y-96777703D01*
X71513069Y-96751691D01*
X71427068Y-96758704D01*
X71413995Y-96598400D01*
X71929745Y-96082650D01*
X71905023Y-95877820D01*
X71513069Y-95751691D01*
X71102682Y-95785158D01*
X70890365Y-95873103D01*
X70513069Y-95751691D01*
X70102682Y-95785158D01*
X69890365Y-95873103D01*
X69513069Y-95751691D01*
X69102682Y-95785158D01*
X68890365Y-95873103D01*
X68513069Y-95751691D01*
X68102682Y-95785158D01*
X67890365Y-95873103D01*
X67513069Y-95751691D01*
X67102682Y-95785158D01*
X66878977Y-95877820D01*
X66854255Y-96082650D01*
X67369703Y-96598098D01*
X67343691Y-96678931D01*
X67350704Y-96764932D01*
X67190400Y-96778005D01*
X66674650Y-96262255D01*
X66469820Y-96286977D01*
X66343691Y-96678931D01*
X54241000Y-96678931D01*
X54241000Y-90843000D01*
X85471000Y-90843000D01*
X85471000Y-93412130D01*
G36*
X118471000Y-93412130D02*
X118444130Y-93401000D01*
X117503750Y-93401000D01*
X117345000Y-93559750D01*
X117345000Y-94671000D01*
X117365000Y-94671000D01*
X117365000Y-94925000D01*
X117345000Y-94925000D01*
X117345000Y-94945000D01*
X117091000Y-94945000D01*
X117091000Y-94925000D01*
X115641930Y-94925000D01*
X115483180Y-95083750D01*
X115483180Y-95686309D01*
X115579853Y-95919698D01*
X115758481Y-96098327D01*
X115991870Y-96195000D01*
X116090596Y-96195000D01*
X115858365Y-96350172D01*
X115706135Y-96578000D01*
X109556802Y-96578000D01*
X106888493Y-93909691D01*
X115483180Y-93909691D01*
X115483180Y-94512250D01*
X115641930Y-94671000D01*
X117091000Y-94671000D01*
X117091000Y-93559750D01*
X116932250Y-93401000D01*
X115991870Y-93401000D01*
X115758481Y-93497673D01*
X115579853Y-93676302D01*
X115483180Y-93909691D01*
X106888493Y-93909691D01*
X106569035Y-93590233D01*
X106569179Y-93425029D01*
X106411942Y-93044485D01*
X106121046Y-92753081D01*
X105740777Y-92595180D01*
X105329029Y-92594821D01*
X104948485Y-92752058D01*
X104657081Y-93042954D01*
X104499180Y-93423223D01*
X104498821Y-93834971D01*
X104656058Y-94215515D01*
X104946954Y-94506919D01*
X105327223Y-94664820D01*
X105494164Y-94664966D01*
X108704599Y-97875401D01*
X108951161Y-98040148D01*
X109242000Y-98098000D01*
X115706135Y-98098000D01*
X115858365Y-98325828D01*
X116280664Y-98608000D01*
X115858365Y-98890172D01*
X115555533Y-99343391D01*
X115449193Y-99878000D01*
X115555533Y-100412609D01*
X115858365Y-100865828D01*
X116280664Y-101148000D01*
X115858365Y-101430172D01*
X115555533Y-101883391D01*
X115449193Y-102418000D01*
X115555533Y-102952609D01*
X115858365Y-103405828D01*
X116280664Y-103688000D01*
X115858365Y-103970172D01*
X115555533Y-104423391D01*
X115449193Y-104958000D01*
X115555533Y-105492609D01*
X115858365Y-105945828D01*
X116311584Y-106248660D01*
X116846193Y-106355000D01*
X117589807Y-106355000D01*
X118124416Y-106248660D01*
X118471000Y-106017079D01*
X118471000Y-109486226D01*
X118166910Y-108750273D01*
X117566886Y-108149200D01*
X116782515Y-107823501D01*
X115933211Y-107822760D01*
X115148273Y-108147090D01*
X114547200Y-108747114D01*
X114221501Y-109531485D01*
X114220760Y-110380789D01*
X114545090Y-111165727D01*
X115145114Y-111766800D01*
X115929485Y-112092499D01*
X116778789Y-112093240D01*
X117563727Y-111768910D01*
X118164800Y-111168886D01*
X118471000Y-110431474D01*
X118471000Y-136486226D01*
X118166910Y-135750273D01*
X117566886Y-135149200D01*
X116782515Y-134823501D01*
X115933211Y-134822760D01*
X115148273Y-135147090D01*
X114547200Y-135747114D01*
X114221501Y-136531485D01*
X114220760Y-137380789D01*
X114545090Y-138165727D01*
X115145114Y-138766800D01*
X115882526Y-139073000D01*
X89827774Y-139073000D01*
X90563727Y-138768910D01*
X91164800Y-138168886D01*
X91490499Y-137384515D01*
X91491240Y-136535211D01*
X91444175Y-136421305D01*
X98354674Y-136421305D01*
X98641043Y-137114372D01*
X99170839Y-137645093D01*
X99863405Y-137932672D01*
X100613305Y-137933326D01*
X101306372Y-137646957D01*
X101572472Y-137381320D01*
X104086285Y-137381320D01*
X104215533Y-137674123D01*
X104915806Y-137942388D01*
X105665435Y-137922250D01*
X106264467Y-137674123D01*
X106393715Y-137381320D01*
X105240000Y-136227605D01*
X104086285Y-137381320D01*
X101572472Y-137381320D01*
X101837093Y-137117161D01*
X102124672Y-136424595D01*
X102125283Y-135723806D01*
X103345612Y-135723806D01*
X103365750Y-136473435D01*
X103613877Y-137072467D01*
X103906680Y-137201715D01*
X105060395Y-136048000D01*
X105419605Y-136048000D01*
X106573320Y-137201715D01*
X106866123Y-137072467D01*
X107134388Y-136372194D01*
X107114250Y-135622565D01*
X106866123Y-135023533D01*
X106573320Y-134894285D01*
X105419605Y-136048000D01*
X105060395Y-136048000D01*
X103906680Y-134894285D01*
X103613877Y-135023533D01*
X103345612Y-135723806D01*
X102125283Y-135723806D01*
X102125326Y-135674695D01*
X101838957Y-134981628D01*
X101572475Y-134714680D01*
X104086285Y-134714680D01*
X105240000Y-135868395D01*
X106393715Y-134714680D01*
X106264467Y-134421877D01*
X105564194Y-134153612D01*
X104814565Y-134173750D01*
X104215533Y-134421877D01*
X104086285Y-134714680D01*
X101572475Y-134714680D01*
X101309161Y-134450907D01*
X100616595Y-134163328D01*
X99866695Y-134162674D01*
X99173628Y-134449043D01*
X98642907Y-134978839D01*
X98355328Y-135671405D01*
X98354674Y-136421305D01*
X91444175Y-136421305D01*
X91166910Y-135750273D01*
X90566886Y-135149200D01*
X89782515Y-134823501D01*
X88933211Y-134822760D01*
X88148273Y-135147090D01*
X87547200Y-135747114D01*
X87241000Y-136484526D01*
X87241000Y-132515320D01*
X89246285Y-132515320D01*
X89375533Y-132808123D01*
X90075806Y-133076388D01*
X90825435Y-133056250D01*
X91424467Y-132808123D01*
X91553715Y-132515320D01*
X90400000Y-131361605D01*
X89246285Y-132515320D01*
X87241000Y-132515320D01*
X87241000Y-130857806D01*
X88505612Y-130857806D01*
X88525750Y-131607435D01*
X88773877Y-132206467D01*
X89066680Y-132335715D01*
X90220395Y-131182000D01*
X90579605Y-131182000D01*
X91733320Y-132335715D01*
X92026123Y-132206467D01*
X92294388Y-131506194D01*
X92274250Y-130756565D01*
X92026123Y-130157533D01*
X91733320Y-130028285D01*
X90579605Y-131182000D01*
X90220395Y-131182000D01*
X89066680Y-130028285D01*
X88773877Y-130157533D01*
X88505612Y-130857806D01*
X87241000Y-130857806D01*
X87241000Y-129848680D01*
X89246285Y-129848680D01*
X90400000Y-131002395D01*
X91553715Y-129848680D01*
X91424467Y-129555877D01*
X90724194Y-129287612D01*
X89974565Y-129307750D01*
X89375533Y-129555877D01*
X89246285Y-129848680D01*
X87241000Y-129848680D01*
X87241000Y-126555305D01*
X88514674Y-126555305D01*
X88801043Y-127248372D01*
X89330839Y-127779093D01*
X90023405Y-128066672D01*
X90773305Y-128067326D01*
X91466372Y-127780957D01*
X91997093Y-127251161D01*
X92284672Y-126558595D01*
X92285326Y-125808695D01*
X91998957Y-125115628D01*
X91469161Y-124584907D01*
X90776595Y-124297328D01*
X90026695Y-124296674D01*
X89333628Y-124583043D01*
X88802907Y-125112839D01*
X88515328Y-125805405D01*
X88514674Y-126555305D01*
X87241000Y-126555305D01*
X87241000Y-121370320D01*
X89246285Y-121370320D01*
X89375533Y-121663123D01*
X90075806Y-121931388D01*
X90825435Y-121911250D01*
X91424467Y-121663123D01*
X91553715Y-121370320D01*
X90400000Y-120216605D01*
X89246285Y-121370320D01*
X87241000Y-121370320D01*
X87241000Y-119712806D01*
X88505612Y-119712806D01*
X88525750Y-120462435D01*
X88773877Y-121061467D01*
X89066680Y-121190715D01*
X90220395Y-120037000D01*
X90579605Y-120037000D01*
X91733320Y-121190715D01*
X92026123Y-121061467D01*
X92294388Y-120361194D01*
X92274250Y-119611565D01*
X92026123Y-119012533D01*
X91733320Y-118883285D01*
X90579605Y-120037000D01*
X90220395Y-120037000D01*
X89066680Y-118883285D01*
X88773877Y-119012533D01*
X88505612Y-119712806D01*
X87241000Y-119712806D01*
X87241000Y-118703680D01*
X89246285Y-118703680D01*
X90400000Y-119857395D01*
X91553715Y-118703680D01*
X91424467Y-118410877D01*
X90724194Y-118142612D01*
X89974565Y-118162750D01*
X89375533Y-118410877D01*
X89246285Y-118703680D01*
X87241000Y-118703680D01*
X87241000Y-115410305D01*
X88514674Y-115410305D01*
X88801043Y-116103372D01*
X89330839Y-116634093D01*
X90023405Y-116921672D01*
X90773305Y-116922326D01*
X91466372Y-116635957D01*
X91997093Y-116106161D01*
X92284672Y-115413595D01*
X92285326Y-114663695D01*
X92180077Y-114408971D01*
X105768821Y-114408971D01*
X105926058Y-114789515D01*
X106216954Y-115080919D01*
X106597223Y-115238820D01*
X106764164Y-115238966D01*
X107298000Y-115772802D01*
X107298000Y-124046000D01*
X107355852Y-124336839D01*
X107520599Y-124583401D01*
X113428453Y-130491255D01*
X113301328Y-130797405D01*
X113300674Y-131547305D01*
X113587043Y-132240372D01*
X114116839Y-132771093D01*
X114809405Y-133058672D01*
X115559305Y-133059326D01*
X116252372Y-132772957D01*
X116783093Y-132243161D01*
X117070672Y-131550595D01*
X117071326Y-130800695D01*
X116784957Y-130107628D01*
X116255161Y-129576907D01*
X115562595Y-129289328D01*
X114812695Y-129288674D01*
X114503311Y-129416509D01*
X108818000Y-123731198D01*
X108818000Y-115458000D01*
X108760148Y-115167161D01*
X108595401Y-114920599D01*
X107878802Y-114204000D01*
X108611401Y-113471401D01*
X108776148Y-113224840D01*
X108834000Y-112934000D01*
X108834000Y-106476911D01*
X109137223Y-106602820D01*
X109304164Y-106602966D01*
X110616000Y-107914802D01*
X110616000Y-122364000D01*
X110673852Y-122654839D01*
X110838599Y-122901401D01*
X113428453Y-125491255D01*
X113301328Y-125797405D01*
X113300674Y-126547305D01*
X113587043Y-127240372D01*
X114116839Y-127771093D01*
X114809405Y-128058672D01*
X115559305Y-128059326D01*
X116252372Y-127772957D01*
X116783093Y-127243161D01*
X117070672Y-126550595D01*
X117071326Y-125800695D01*
X116784957Y-125107628D01*
X116255161Y-124576907D01*
X115562595Y-124289328D01*
X114812695Y-124288674D01*
X114503311Y-124416509D01*
X112136000Y-122049198D01*
X112136000Y-121339320D01*
X114032285Y-121339320D01*
X114161533Y-121632123D01*
X114861806Y-121900388D01*
X115611435Y-121880250D01*
X116210467Y-121632123D01*
X116339715Y-121339320D01*
X115186000Y-120185605D01*
X114032285Y-121339320D01*
X112136000Y-121339320D01*
X112136000Y-119681806D01*
X113291612Y-119681806D01*
X113311750Y-120431435D01*
X113559877Y-121030467D01*
X113852680Y-121159715D01*
X115006395Y-120006000D01*
X115365605Y-120006000D01*
X116519320Y-121159715D01*
X116812123Y-121030467D01*
X117080388Y-120330194D01*
X117060250Y-119580565D01*
X116812123Y-118981533D01*
X116519320Y-118852285D01*
X115365605Y-120006000D01*
X115006395Y-120006000D01*
X113852680Y-118852285D01*
X113559877Y-118981533D01*
X113291612Y-119681806D01*
X112136000Y-119681806D01*
X112136000Y-118672680D01*
X114032285Y-118672680D01*
X115186000Y-119826395D01*
X116339715Y-118672680D01*
X116210467Y-118379877D01*
X115510194Y-118111612D01*
X114760565Y-118131750D01*
X114161533Y-118379877D01*
X114032285Y-118672680D01*
X112136000Y-118672680D01*
X112136000Y-115379305D01*
X113300674Y-115379305D01*
X113587043Y-116072372D01*
X114116839Y-116603093D01*
X114809405Y-116890672D01*
X115559305Y-116891326D01*
X116252372Y-116604957D01*
X116783093Y-116075161D01*
X117070672Y-115382595D01*
X117071326Y-114632695D01*
X116784957Y-113939628D01*
X116255161Y-113408907D01*
X115562595Y-113121328D01*
X114812695Y-113120674D01*
X114119628Y-113407043D01*
X113588907Y-113936839D01*
X113301328Y-114629405D01*
X113300674Y-115379305D01*
X112136000Y-115379305D01*
X112136000Y-107600000D01*
X112078148Y-107309161D01*
X111913401Y-107062599D01*
X110379035Y-105528233D01*
X110379179Y-105363029D01*
X110221942Y-104982485D01*
X109931046Y-104691081D01*
X109550777Y-104533180D01*
X109139029Y-104532821D01*
X108834000Y-104658856D01*
X108834000Y-104493761D01*
X108950919Y-104377046D01*
X109108820Y-103996777D01*
X109109179Y-103585029D01*
X108951942Y-103204485D01*
X108661046Y-102913081D01*
X108280777Y-102755180D01*
X107869029Y-102754821D01*
X107488485Y-102912058D01*
X107197081Y-103202954D01*
X107039180Y-103583223D01*
X107038821Y-103994971D01*
X107196058Y-104375515D01*
X107314000Y-104493663D01*
X107314000Y-112619198D01*
X106764233Y-113168965D01*
X106599029Y-113168821D01*
X106218485Y-113326058D01*
X105927081Y-113616954D01*
X105769180Y-113997223D01*
X105768821Y-114408971D01*
X92180077Y-114408971D01*
X91998957Y-113970628D01*
X91469161Y-113439907D01*
X90776595Y-113152328D01*
X90026695Y-113151674D01*
X89333628Y-113438043D01*
X88802907Y-113967839D01*
X88515328Y-114660405D01*
X88514674Y-115410305D01*
X87241000Y-115410305D01*
X87241000Y-110429774D01*
X87545090Y-111165727D01*
X88145114Y-111766800D01*
X88929485Y-112092499D01*
X89778789Y-112093240D01*
X90563727Y-111768910D01*
X91164800Y-111168886D01*
X91490499Y-110384515D01*
X91491240Y-109535211D01*
X91166910Y-108750273D01*
X90566886Y-108149200D01*
X89782515Y-107823501D01*
X88933211Y-107822760D01*
X88148273Y-108147090D01*
X87547200Y-108747114D01*
X87241000Y-109484526D01*
X87241000Y-96678931D01*
X99343691Y-96678931D01*
X99377158Y-97089318D01*
X99465103Y-97301635D01*
X99343691Y-97678931D01*
X99377158Y-98089318D01*
X99465103Y-98301635D01*
X99343691Y-98678931D01*
X99377158Y-99089318D01*
X99465103Y-99301635D01*
X99343691Y-99678931D01*
X99377158Y-100089318D01*
X99465103Y-100301635D01*
X99343691Y-100678931D01*
X99377158Y-101089318D01*
X99469820Y-101313023D01*
X99674650Y-101337745D01*
X100190098Y-100822297D01*
X100270931Y-100848309D01*
X100356932Y-100841296D01*
X100370005Y-101001600D01*
X99854255Y-101517350D01*
X99878977Y-101722180D01*
X100270931Y-101848309D01*
X100681318Y-101814842D01*
X100893635Y-101726897D01*
X101270931Y-101848309D01*
X101681318Y-101814842D01*
X101893635Y-101726897D01*
X102270931Y-101848309D01*
X102681318Y-101814842D01*
X102893635Y-101726897D01*
X103270931Y-101848309D01*
X103681318Y-101814842D01*
X103893635Y-101726897D01*
X104270931Y-101848309D01*
X104681318Y-101814842D01*
X104905023Y-101722180D01*
X104929745Y-101517350D01*
X104414297Y-101001902D01*
X104440309Y-100921069D01*
X104433296Y-100835068D01*
X104593600Y-100821995D01*
X105109350Y-101337745D01*
X105314180Y-101313023D01*
X105440309Y-100921069D01*
X105406842Y-100510682D01*
X105318897Y-100298365D01*
X105440309Y-99921069D01*
X105406842Y-99510682D01*
X105318897Y-99298365D01*
X105440309Y-98921069D01*
X105406842Y-98510682D01*
X105318897Y-98298365D01*
X105440309Y-97921069D01*
X105406842Y-97510682D01*
X105318897Y-97298365D01*
X105440309Y-96921069D01*
X105406842Y-96510682D01*
X105314180Y-96286977D01*
X105109350Y-96262255D01*
X104593902Y-96777703D01*
X104513069Y-96751691D01*
X104427068Y-96758704D01*
X104413995Y-96598400D01*
X104929745Y-96082650D01*
X104905023Y-95877820D01*
X104513069Y-95751691D01*
X104102682Y-95785158D01*
X103890365Y-95873103D01*
X103513069Y-95751691D01*
X103102682Y-95785158D01*
X102890365Y-95873103D01*
X102513069Y-95751691D01*
X102102682Y-95785158D01*
X101890365Y-95873103D01*
X101513069Y-95751691D01*
X101102682Y-95785158D01*
X100890365Y-95873103D01*
X100513069Y-95751691D01*
X100102682Y-95785158D01*
X99878977Y-95877820D01*
X99854255Y-96082650D01*
X100369703Y-96598098D01*
X100343691Y-96678931D01*
X100350704Y-96764932D01*
X100190400Y-96778005D01*
X99674650Y-96262255D01*
X99469820Y-96286977D01*
X99343691Y-96678931D01*
X87241000Y-96678931D01*
X87241000Y-90843000D01*
X118471000Y-90843000D01*
X118471000Y-93412130D01*
X118471000Y-93412130D01*
G37*
X118471000Y-93412130D02*
X118444130Y-93401000D01*
X117503750Y-93401000D01*
X117345000Y-93559750D01*
X117345000Y-94671000D01*
X117365000Y-94671000D01*
X117365000Y-94925000D01*
X117345000Y-94925000D01*
X117345000Y-94945000D01*
X117091000Y-94945000D01*
X117091000Y-94925000D01*
X115641930Y-94925000D01*
X115483180Y-95083750D01*
X115483180Y-95686309D01*
X115579853Y-95919698D01*
X115758481Y-96098327D01*
X115991870Y-96195000D01*
X116090596Y-96195000D01*
X115858365Y-96350172D01*
X115706135Y-96578000D01*
X109556802Y-96578000D01*
X106888493Y-93909691D01*
X115483180Y-93909691D01*
X115483180Y-94512250D01*
X115641930Y-94671000D01*
X117091000Y-94671000D01*
X117091000Y-93559750D01*
X116932250Y-93401000D01*
X115991870Y-93401000D01*
X115758481Y-93497673D01*
X115579853Y-93676302D01*
X115483180Y-93909691D01*
X106888493Y-93909691D01*
X106569035Y-93590233D01*
X106569179Y-93425029D01*
X106411942Y-93044485D01*
X106121046Y-92753081D01*
X105740777Y-92595180D01*
X105329029Y-92594821D01*
X104948485Y-92752058D01*
X104657081Y-93042954D01*
X104499180Y-93423223D01*
X104498821Y-93834971D01*
X104656058Y-94215515D01*
X104946954Y-94506919D01*
X105327223Y-94664820D01*
X105494164Y-94664966D01*
X108704599Y-97875401D01*
X108951161Y-98040148D01*
X109242000Y-98098000D01*
X115706135Y-98098000D01*
X115858365Y-98325828D01*
X116280664Y-98608000D01*
X115858365Y-98890172D01*
X115555533Y-99343391D01*
X115449193Y-99878000D01*
X115555533Y-100412609D01*
X115858365Y-100865828D01*
X116280664Y-101148000D01*
X115858365Y-101430172D01*
X115555533Y-101883391D01*
X115449193Y-102418000D01*
X115555533Y-102952609D01*
X115858365Y-103405828D01*
X116280664Y-103688000D01*
X115858365Y-103970172D01*
X115555533Y-104423391D01*
X115449193Y-104958000D01*
X115555533Y-105492609D01*
X115858365Y-105945828D01*
X116311584Y-106248660D01*
X116846193Y-106355000D01*
X117589807Y-106355000D01*
X118124416Y-106248660D01*
X118471000Y-106017079D01*
X118471000Y-109486226D01*
X118166910Y-108750273D01*
X117566886Y-108149200D01*
X116782515Y-107823501D01*
X115933211Y-107822760D01*
X115148273Y-108147090D01*
X114547200Y-108747114D01*
X114221501Y-109531485D01*
X114220760Y-110380789D01*
X114545090Y-111165727D01*
X115145114Y-111766800D01*
X115929485Y-112092499D01*
X116778789Y-112093240D01*
X117563727Y-111768910D01*
X118164800Y-111168886D01*
X118471000Y-110431474D01*
X118471000Y-136486226D01*
X118166910Y-135750273D01*
X117566886Y-135149200D01*
X116782515Y-134823501D01*
X115933211Y-134822760D01*
X115148273Y-135147090D01*
X114547200Y-135747114D01*
X114221501Y-136531485D01*
X114220760Y-137380789D01*
X114545090Y-138165727D01*
X115145114Y-138766800D01*
X115882526Y-139073000D01*
X89827774Y-139073000D01*
X90563727Y-138768910D01*
X91164800Y-138168886D01*
X91490499Y-137384515D01*
X91491240Y-136535211D01*
X91444175Y-136421305D01*
X98354674Y-136421305D01*
X98641043Y-137114372D01*
X99170839Y-137645093D01*
X99863405Y-137932672D01*
X100613305Y-137933326D01*
X101306372Y-137646957D01*
X101572472Y-137381320D01*
X104086285Y-137381320D01*
X104215533Y-137674123D01*
X104915806Y-137942388D01*
X105665435Y-137922250D01*
X106264467Y-137674123D01*
X106393715Y-137381320D01*
X105240000Y-136227605D01*
X104086285Y-137381320D01*
X101572472Y-137381320D01*
X101837093Y-137117161D01*
X102124672Y-136424595D01*
X102125283Y-135723806D01*
X103345612Y-135723806D01*
X103365750Y-136473435D01*
X103613877Y-137072467D01*
X103906680Y-137201715D01*
X105060395Y-136048000D01*
X105419605Y-136048000D01*
X106573320Y-137201715D01*
X106866123Y-137072467D01*
X107134388Y-136372194D01*
X107114250Y-135622565D01*
X106866123Y-135023533D01*
X106573320Y-134894285D01*
X105419605Y-136048000D01*
X105060395Y-136048000D01*
X103906680Y-134894285D01*
X103613877Y-135023533D01*
X103345612Y-135723806D01*
X102125283Y-135723806D01*
X102125326Y-135674695D01*
X101838957Y-134981628D01*
X101572475Y-134714680D01*
X104086285Y-134714680D01*
X105240000Y-135868395D01*
X106393715Y-134714680D01*
X106264467Y-134421877D01*
X105564194Y-134153612D01*
X104814565Y-134173750D01*
X104215533Y-134421877D01*
X104086285Y-134714680D01*
X101572475Y-134714680D01*
X101309161Y-134450907D01*
X100616595Y-134163328D01*
X99866695Y-134162674D01*
X99173628Y-134449043D01*
X98642907Y-134978839D01*
X98355328Y-135671405D01*
X98354674Y-136421305D01*
X91444175Y-136421305D01*
X91166910Y-135750273D01*
X90566886Y-135149200D01*
X89782515Y-134823501D01*
X88933211Y-134822760D01*
X88148273Y-135147090D01*
X87547200Y-135747114D01*
X87241000Y-136484526D01*
X87241000Y-132515320D01*
X89246285Y-132515320D01*
X89375533Y-132808123D01*
X90075806Y-133076388D01*
X90825435Y-133056250D01*
X91424467Y-132808123D01*
X91553715Y-132515320D01*
X90400000Y-131361605D01*
X89246285Y-132515320D01*
X87241000Y-132515320D01*
X87241000Y-130857806D01*
X88505612Y-130857806D01*
X88525750Y-131607435D01*
X88773877Y-132206467D01*
X89066680Y-132335715D01*
X90220395Y-131182000D01*
X90579605Y-131182000D01*
X91733320Y-132335715D01*
X92026123Y-132206467D01*
X92294388Y-131506194D01*
X92274250Y-130756565D01*
X92026123Y-130157533D01*
X91733320Y-130028285D01*
X90579605Y-131182000D01*
X90220395Y-131182000D01*
X89066680Y-130028285D01*
X88773877Y-130157533D01*
X88505612Y-130857806D01*
X87241000Y-130857806D01*
X87241000Y-129848680D01*
X89246285Y-129848680D01*
X90400000Y-131002395D01*
X91553715Y-129848680D01*
X91424467Y-129555877D01*
X90724194Y-129287612D01*
X89974565Y-129307750D01*
X89375533Y-129555877D01*
X89246285Y-129848680D01*
X87241000Y-129848680D01*
X87241000Y-126555305D01*
X88514674Y-126555305D01*
X88801043Y-127248372D01*
X89330839Y-127779093D01*
X90023405Y-128066672D01*
X90773305Y-128067326D01*
X91466372Y-127780957D01*
X91997093Y-127251161D01*
X92284672Y-126558595D01*
X92285326Y-125808695D01*
X91998957Y-125115628D01*
X91469161Y-124584907D01*
X90776595Y-124297328D01*
X90026695Y-124296674D01*
X89333628Y-124583043D01*
X88802907Y-125112839D01*
X88515328Y-125805405D01*
X88514674Y-126555305D01*
X87241000Y-126555305D01*
X87241000Y-121370320D01*
X89246285Y-121370320D01*
X89375533Y-121663123D01*
X90075806Y-121931388D01*
X90825435Y-121911250D01*
X91424467Y-121663123D01*
X91553715Y-121370320D01*
X90400000Y-120216605D01*
X89246285Y-121370320D01*
X87241000Y-121370320D01*
X87241000Y-119712806D01*
X88505612Y-119712806D01*
X88525750Y-120462435D01*
X88773877Y-121061467D01*
X89066680Y-121190715D01*
X90220395Y-120037000D01*
X90579605Y-120037000D01*
X91733320Y-121190715D01*
X92026123Y-121061467D01*
X92294388Y-120361194D01*
X92274250Y-119611565D01*
X92026123Y-119012533D01*
X91733320Y-118883285D01*
X90579605Y-120037000D01*
X90220395Y-120037000D01*
X89066680Y-118883285D01*
X88773877Y-119012533D01*
X88505612Y-119712806D01*
X87241000Y-119712806D01*
X87241000Y-118703680D01*
X89246285Y-118703680D01*
X90400000Y-119857395D01*
X91553715Y-118703680D01*
X91424467Y-118410877D01*
X90724194Y-118142612D01*
X89974565Y-118162750D01*
X89375533Y-118410877D01*
X89246285Y-118703680D01*
X87241000Y-118703680D01*
X87241000Y-115410305D01*
X88514674Y-115410305D01*
X88801043Y-116103372D01*
X89330839Y-116634093D01*
X90023405Y-116921672D01*
X90773305Y-116922326D01*
X91466372Y-116635957D01*
X91997093Y-116106161D01*
X92284672Y-115413595D01*
X92285326Y-114663695D01*
X92180077Y-114408971D01*
X105768821Y-114408971D01*
X105926058Y-114789515D01*
X106216954Y-115080919D01*
X106597223Y-115238820D01*
X106764164Y-115238966D01*
X107298000Y-115772802D01*
X107298000Y-124046000D01*
X107355852Y-124336839D01*
X107520599Y-124583401D01*
X113428453Y-130491255D01*
X113301328Y-130797405D01*
X113300674Y-131547305D01*
X113587043Y-132240372D01*
X114116839Y-132771093D01*
X114809405Y-133058672D01*
X115559305Y-133059326D01*
X116252372Y-132772957D01*
X116783093Y-132243161D01*
X117070672Y-131550595D01*
X117071326Y-130800695D01*
X116784957Y-130107628D01*
X116255161Y-129576907D01*
X115562595Y-129289328D01*
X114812695Y-129288674D01*
X114503311Y-129416509D01*
X108818000Y-123731198D01*
X108818000Y-115458000D01*
X108760148Y-115167161D01*
X108595401Y-114920599D01*
X107878802Y-114204000D01*
X108611401Y-113471401D01*
X108776148Y-113224840D01*
X108834000Y-112934000D01*
X108834000Y-106476911D01*
X109137223Y-106602820D01*
X109304164Y-106602966D01*
X110616000Y-107914802D01*
X110616000Y-122364000D01*
X110673852Y-122654839D01*
X110838599Y-122901401D01*
X113428453Y-125491255D01*
X113301328Y-125797405D01*
X113300674Y-126547305D01*
X113587043Y-127240372D01*
X114116839Y-127771093D01*
X114809405Y-128058672D01*
X115559305Y-128059326D01*
X116252372Y-127772957D01*
X116783093Y-127243161D01*
X117070672Y-126550595D01*
X117071326Y-125800695D01*
X116784957Y-125107628D01*
X116255161Y-124576907D01*
X115562595Y-124289328D01*
X114812695Y-124288674D01*
X114503311Y-124416509D01*
X112136000Y-122049198D01*
X112136000Y-121339320D01*
X114032285Y-121339320D01*
X114161533Y-121632123D01*
X114861806Y-121900388D01*
X115611435Y-121880250D01*
X116210467Y-121632123D01*
X116339715Y-121339320D01*
X115186000Y-120185605D01*
X114032285Y-121339320D01*
X112136000Y-121339320D01*
X112136000Y-119681806D01*
X113291612Y-119681806D01*
X113311750Y-120431435D01*
X113559877Y-121030467D01*
X113852680Y-121159715D01*
X115006395Y-120006000D01*
X115365605Y-120006000D01*
X116519320Y-121159715D01*
X116812123Y-121030467D01*
X117080388Y-120330194D01*
X117060250Y-119580565D01*
X116812123Y-118981533D01*
X116519320Y-118852285D01*
X115365605Y-120006000D01*
X115006395Y-120006000D01*
X113852680Y-118852285D01*
X113559877Y-118981533D01*
X113291612Y-119681806D01*
X112136000Y-119681806D01*
X112136000Y-118672680D01*
X114032285Y-118672680D01*
X115186000Y-119826395D01*
X116339715Y-118672680D01*
X116210467Y-118379877D01*
X115510194Y-118111612D01*
X114760565Y-118131750D01*
X114161533Y-118379877D01*
X114032285Y-118672680D01*
X112136000Y-118672680D01*
X112136000Y-115379305D01*
X113300674Y-115379305D01*
X113587043Y-116072372D01*
X114116839Y-116603093D01*
X114809405Y-116890672D01*
X115559305Y-116891326D01*
X116252372Y-116604957D01*
X116783093Y-116075161D01*
X117070672Y-115382595D01*
X117071326Y-114632695D01*
X116784957Y-113939628D01*
X116255161Y-113408907D01*
X115562595Y-113121328D01*
X114812695Y-113120674D01*
X114119628Y-113407043D01*
X113588907Y-113936839D01*
X113301328Y-114629405D01*
X113300674Y-115379305D01*
X112136000Y-115379305D01*
X112136000Y-107600000D01*
X112078148Y-107309161D01*
X111913401Y-107062599D01*
X110379035Y-105528233D01*
X110379179Y-105363029D01*
X110221942Y-104982485D01*
X109931046Y-104691081D01*
X109550777Y-104533180D01*
X109139029Y-104532821D01*
X108834000Y-104658856D01*
X108834000Y-104493761D01*
X108950919Y-104377046D01*
X109108820Y-103996777D01*
X109109179Y-103585029D01*
X108951942Y-103204485D01*
X108661046Y-102913081D01*
X108280777Y-102755180D01*
X107869029Y-102754821D01*
X107488485Y-102912058D01*
X107197081Y-103202954D01*
X107039180Y-103583223D01*
X107038821Y-103994971D01*
X107196058Y-104375515D01*
X107314000Y-104493663D01*
X107314000Y-112619198D01*
X106764233Y-113168965D01*
X106599029Y-113168821D01*
X106218485Y-113326058D01*
X105927081Y-113616954D01*
X105769180Y-113997223D01*
X105768821Y-114408971D01*
X92180077Y-114408971D01*
X91998957Y-113970628D01*
X91469161Y-113439907D01*
X90776595Y-113152328D01*
X90026695Y-113151674D01*
X89333628Y-113438043D01*
X88802907Y-113967839D01*
X88515328Y-114660405D01*
X88514674Y-115410305D01*
X87241000Y-115410305D01*
X87241000Y-110429774D01*
X87545090Y-111165727D01*
X88145114Y-111766800D01*
X88929485Y-112092499D01*
X89778789Y-112093240D01*
X90563727Y-111768910D01*
X91164800Y-111168886D01*
X91490499Y-110384515D01*
X91491240Y-109535211D01*
X91166910Y-108750273D01*
X90566886Y-108149200D01*
X89782515Y-107823501D01*
X88933211Y-107822760D01*
X88148273Y-108147090D01*
X87547200Y-108747114D01*
X87241000Y-109484526D01*
X87241000Y-96678931D01*
X99343691Y-96678931D01*
X99377158Y-97089318D01*
X99465103Y-97301635D01*
X99343691Y-97678931D01*
X99377158Y-98089318D01*
X99465103Y-98301635D01*
X99343691Y-98678931D01*
X99377158Y-99089318D01*
X99465103Y-99301635D01*
X99343691Y-99678931D01*
X99377158Y-100089318D01*
X99465103Y-100301635D01*
X99343691Y-100678931D01*
X99377158Y-101089318D01*
X99469820Y-101313023D01*
X99674650Y-101337745D01*
X100190098Y-100822297D01*
X100270931Y-100848309D01*
X100356932Y-100841296D01*
X100370005Y-101001600D01*
X99854255Y-101517350D01*
X99878977Y-101722180D01*
X100270931Y-101848309D01*
X100681318Y-101814842D01*
X100893635Y-101726897D01*
X101270931Y-101848309D01*
X101681318Y-101814842D01*
X101893635Y-101726897D01*
X102270931Y-101848309D01*
X102681318Y-101814842D01*
X102893635Y-101726897D01*
X103270931Y-101848309D01*
X103681318Y-101814842D01*
X103893635Y-101726897D01*
X104270931Y-101848309D01*
X104681318Y-101814842D01*
X104905023Y-101722180D01*
X104929745Y-101517350D01*
X104414297Y-101001902D01*
X104440309Y-100921069D01*
X104433296Y-100835068D01*
X104593600Y-100821995D01*
X105109350Y-101337745D01*
X105314180Y-101313023D01*
X105440309Y-100921069D01*
X105406842Y-100510682D01*
X105318897Y-100298365D01*
X105440309Y-99921069D01*
X105406842Y-99510682D01*
X105318897Y-99298365D01*
X105440309Y-98921069D01*
X105406842Y-98510682D01*
X105318897Y-98298365D01*
X105440309Y-97921069D01*
X105406842Y-97510682D01*
X105318897Y-97298365D01*
X105440309Y-96921069D01*
X105406842Y-96510682D01*
X105314180Y-96286977D01*
X105109350Y-96262255D01*
X104593902Y-96777703D01*
X104513069Y-96751691D01*
X104427068Y-96758704D01*
X104413995Y-96598400D01*
X104929745Y-96082650D01*
X104905023Y-95877820D01*
X104513069Y-95751691D01*
X104102682Y-95785158D01*
X103890365Y-95873103D01*
X103513069Y-95751691D01*
X103102682Y-95785158D01*
X102890365Y-95873103D01*
X102513069Y-95751691D01*
X102102682Y-95785158D01*
X101890365Y-95873103D01*
X101513069Y-95751691D01*
X101102682Y-95785158D01*
X100890365Y-95873103D01*
X100513069Y-95751691D01*
X100102682Y-95785158D01*
X99878977Y-95877820D01*
X99854255Y-96082650D01*
X100369703Y-96598098D01*
X100343691Y-96678931D01*
X100350704Y-96764932D01*
X100190400Y-96778005D01*
X99674650Y-96262255D01*
X99469820Y-96286977D01*
X99343691Y-96678931D01*
X87241000Y-96678931D01*
X87241000Y-90843000D01*
X118471000Y-90843000D01*
X118471000Y-93412130D01*
G36*
X85471000Y-143412130D02*
X85444130Y-143401000D01*
X84503750Y-143401000D01*
X84345000Y-143559750D01*
X84345000Y-144671000D01*
X84365000Y-144671000D01*
X84365000Y-144925000D01*
X84345000Y-144925000D01*
X84345000Y-144945000D01*
X84091000Y-144945000D01*
X84091000Y-144925000D01*
X82641930Y-144925000D01*
X82483180Y-145083750D01*
X82483180Y-145686309D01*
X82579853Y-145919698D01*
X82758481Y-146098327D01*
X82991870Y-146195000D01*
X83090596Y-146195000D01*
X82858365Y-146350172D01*
X82706135Y-146578000D01*
X76556802Y-146578000D01*
X73888493Y-143909691D01*
X82483180Y-143909691D01*
X82483180Y-144512250D01*
X82641930Y-144671000D01*
X84091000Y-144671000D01*
X84091000Y-143559750D01*
X83932250Y-143401000D01*
X82991870Y-143401000D01*
X82758481Y-143497673D01*
X82579853Y-143676302D01*
X82483180Y-143909691D01*
X73888493Y-143909691D01*
X73569035Y-143590233D01*
X73569179Y-143425029D01*
X73411942Y-143044485D01*
X73121046Y-142753081D01*
X72740777Y-142595180D01*
X72329029Y-142594821D01*
X71948485Y-142752058D01*
X71657081Y-143042954D01*
X71499180Y-143423223D01*
X71498821Y-143834971D01*
X71656058Y-144215515D01*
X71946954Y-144506919D01*
X72327223Y-144664820D01*
X72494164Y-144664966D01*
X75704599Y-147875401D01*
X75951161Y-148040148D01*
X76242000Y-148098000D01*
X82706135Y-148098000D01*
X82858365Y-148325828D01*
X83280664Y-148608000D01*
X82858365Y-148890172D01*
X82555533Y-149343391D01*
X82449193Y-149878000D01*
X82555533Y-150412609D01*
X82858365Y-150865828D01*
X83280664Y-151148000D01*
X82858365Y-151430172D01*
X82555533Y-151883391D01*
X82449193Y-152418000D01*
X82555533Y-152952609D01*
X82858365Y-153405828D01*
X83280664Y-153688000D01*
X82858365Y-153970172D01*
X82555533Y-154423391D01*
X82449193Y-154958000D01*
X82555533Y-155492609D01*
X82858365Y-155945828D01*
X83311584Y-156248660D01*
X83846193Y-156355000D01*
X84589807Y-156355000D01*
X85124416Y-156248660D01*
X85471000Y-156017079D01*
X85471000Y-159486226D01*
X85166910Y-158750273D01*
X84566886Y-158149200D01*
X83782515Y-157823501D01*
X82933211Y-157822760D01*
X82148273Y-158147090D01*
X81547200Y-158747114D01*
X81221501Y-159531485D01*
X81220760Y-160380789D01*
X81545090Y-161165727D01*
X82145114Y-161766800D01*
X82929485Y-162092499D01*
X83778789Y-162093240D01*
X84563727Y-161768910D01*
X85164800Y-161168886D01*
X85471000Y-160431474D01*
X85471000Y-186486226D01*
X85166910Y-185750273D01*
X84566886Y-185149200D01*
X83782515Y-184823501D01*
X82933211Y-184822760D01*
X82148273Y-185147090D01*
X81547200Y-185747114D01*
X81221501Y-186531485D01*
X81220760Y-187380789D01*
X81545090Y-188165727D01*
X82145114Y-188766800D01*
X82882526Y-189073000D01*
X56827774Y-189073000D01*
X57563727Y-188768910D01*
X58164800Y-188168886D01*
X58490499Y-187384515D01*
X58491240Y-186535211D01*
X58444175Y-186421305D01*
X65354674Y-186421305D01*
X65641043Y-187114372D01*
X66170839Y-187645093D01*
X66863405Y-187932672D01*
X67613305Y-187933326D01*
X68306372Y-187646957D01*
X68572472Y-187381320D01*
X71086285Y-187381320D01*
X71215533Y-187674123D01*
X71915806Y-187942388D01*
X72665435Y-187922250D01*
X73264467Y-187674123D01*
X73393715Y-187381320D01*
X72240000Y-186227605D01*
X71086285Y-187381320D01*
X68572472Y-187381320D01*
X68837093Y-187117161D01*
X69124672Y-186424595D01*
X69125283Y-185723806D01*
X70345612Y-185723806D01*
X70365750Y-186473435D01*
X70613877Y-187072467D01*
X70906680Y-187201715D01*
X72060395Y-186048000D01*
X72419605Y-186048000D01*
X73573320Y-187201715D01*
X73866123Y-187072467D01*
X74134388Y-186372194D01*
X74114250Y-185622565D01*
X73866123Y-185023533D01*
X73573320Y-184894285D01*
X72419605Y-186048000D01*
X72060395Y-186048000D01*
X70906680Y-184894285D01*
X70613877Y-185023533D01*
X70345612Y-185723806D01*
X69125283Y-185723806D01*
X69125326Y-185674695D01*
X68838957Y-184981628D01*
X68572475Y-184714680D01*
X71086285Y-184714680D01*
X72240000Y-185868395D01*
X73393715Y-184714680D01*
X73264467Y-184421877D01*
X72564194Y-184153612D01*
X71814565Y-184173750D01*
X71215533Y-184421877D01*
X71086285Y-184714680D01*
X68572475Y-184714680D01*
X68309161Y-184450907D01*
X67616595Y-184163328D01*
X66866695Y-184162674D01*
X66173628Y-184449043D01*
X65642907Y-184978839D01*
X65355328Y-185671405D01*
X65354674Y-186421305D01*
X58444175Y-186421305D01*
X58166910Y-185750273D01*
X57566886Y-185149200D01*
X56782515Y-184823501D01*
X55933211Y-184822760D01*
X55148273Y-185147090D01*
X54547200Y-185747114D01*
X54241000Y-186484526D01*
X54241000Y-182515320D01*
X56246285Y-182515320D01*
X56375533Y-182808123D01*
X57075806Y-183076388D01*
X57825435Y-183056250D01*
X58424467Y-182808123D01*
X58553715Y-182515320D01*
X57400000Y-181361605D01*
X56246285Y-182515320D01*
X54241000Y-182515320D01*
X54241000Y-180857806D01*
X55505612Y-180857806D01*
X55525750Y-181607435D01*
X55773877Y-182206467D01*
X56066680Y-182335715D01*
X57220395Y-181182000D01*
X57579605Y-181182000D01*
X58733320Y-182335715D01*
X59026123Y-182206467D01*
X59294388Y-181506194D01*
X59274250Y-180756565D01*
X59026123Y-180157533D01*
X58733320Y-180028285D01*
X57579605Y-181182000D01*
X57220395Y-181182000D01*
X56066680Y-180028285D01*
X55773877Y-180157533D01*
X55505612Y-180857806D01*
X54241000Y-180857806D01*
X54241000Y-179848680D01*
X56246285Y-179848680D01*
X57400000Y-181002395D01*
X58553715Y-179848680D01*
X58424467Y-179555877D01*
X57724194Y-179287612D01*
X56974565Y-179307750D01*
X56375533Y-179555877D01*
X56246285Y-179848680D01*
X54241000Y-179848680D01*
X54241000Y-176555305D01*
X55514674Y-176555305D01*
X55801043Y-177248372D01*
X56330839Y-177779093D01*
X57023405Y-178066672D01*
X57773305Y-178067326D01*
X58466372Y-177780957D01*
X58997093Y-177251161D01*
X59284672Y-176558595D01*
X59285326Y-175808695D01*
X58998957Y-175115628D01*
X58469161Y-174584907D01*
X57776595Y-174297328D01*
X57026695Y-174296674D01*
X56333628Y-174583043D01*
X55802907Y-175112839D01*
X55515328Y-175805405D01*
X55514674Y-176555305D01*
X54241000Y-176555305D01*
X54241000Y-171370320D01*
X56246285Y-171370320D01*
X56375533Y-171663123D01*
X57075806Y-171931388D01*
X57825435Y-171911250D01*
X58424467Y-171663123D01*
X58553715Y-171370320D01*
X57400000Y-170216605D01*
X56246285Y-171370320D01*
X54241000Y-171370320D01*
X54241000Y-169712806D01*
X55505612Y-169712806D01*
X55525750Y-170462435D01*
X55773877Y-171061467D01*
X56066680Y-171190715D01*
X57220395Y-170037000D01*
X57579605Y-170037000D01*
X58733320Y-171190715D01*
X59026123Y-171061467D01*
X59294388Y-170361194D01*
X59274250Y-169611565D01*
X59026123Y-169012533D01*
X58733320Y-168883285D01*
X57579605Y-170037000D01*
X57220395Y-170037000D01*
X56066680Y-168883285D01*
X55773877Y-169012533D01*
X55505612Y-169712806D01*
X54241000Y-169712806D01*
X54241000Y-168703680D01*
X56246285Y-168703680D01*
X57400000Y-169857395D01*
X58553715Y-168703680D01*
X58424467Y-168410877D01*
X57724194Y-168142612D01*
X56974565Y-168162750D01*
X56375533Y-168410877D01*
X56246285Y-168703680D01*
X54241000Y-168703680D01*
X54241000Y-165410305D01*
X55514674Y-165410305D01*
X55801043Y-166103372D01*
X56330839Y-166634093D01*
X57023405Y-166921672D01*
X57773305Y-166922326D01*
X58466372Y-166635957D01*
X58997093Y-166106161D01*
X59284672Y-165413595D01*
X59285326Y-164663695D01*
X59180077Y-164408971D01*
X72768821Y-164408971D01*
X72926058Y-164789515D01*
X73216954Y-165080919D01*
X73597223Y-165238820D01*
X73764164Y-165238966D01*
X74298000Y-165772802D01*
X74298000Y-174046000D01*
X74355852Y-174336839D01*
X74520599Y-174583401D01*
X80428453Y-180491255D01*
X80301328Y-180797405D01*
X80300674Y-181547305D01*
X80587043Y-182240372D01*
X81116839Y-182771093D01*
X81809405Y-183058672D01*
X82559305Y-183059326D01*
X83252372Y-182772957D01*
X83783093Y-182243161D01*
X84070672Y-181550595D01*
X84071326Y-180800695D01*
X83784957Y-180107628D01*
X83255161Y-179576907D01*
X82562595Y-179289328D01*
X81812695Y-179288674D01*
X81503311Y-179416509D01*
X75818000Y-173731198D01*
X75818000Y-165458000D01*
X75760148Y-165167161D01*
X75595401Y-164920599D01*
X74878802Y-164204000D01*
X75611401Y-163471401D01*
X75776148Y-163224840D01*
X75834000Y-162934000D01*
X75834000Y-156476911D01*
X76137223Y-156602820D01*
X76304164Y-156602966D01*
X77616000Y-157914802D01*
X77616000Y-172364000D01*
X77673852Y-172654839D01*
X77838599Y-172901401D01*
X80428453Y-175491255D01*
X80301328Y-175797405D01*
X80300674Y-176547305D01*
X80587043Y-177240372D01*
X81116839Y-177771093D01*
X81809405Y-178058672D01*
X82559305Y-178059326D01*
X83252372Y-177772957D01*
X83783093Y-177243161D01*
X84070672Y-176550595D01*
X84071326Y-175800695D01*
X83784957Y-175107628D01*
X83255161Y-174576907D01*
X82562595Y-174289328D01*
X81812695Y-174288674D01*
X81503311Y-174416509D01*
X79136000Y-172049198D01*
X79136000Y-171339320D01*
X81032285Y-171339320D01*
X81161533Y-171632123D01*
X81861806Y-171900388D01*
X82611435Y-171880250D01*
X83210467Y-171632123D01*
X83339715Y-171339320D01*
X82186000Y-170185605D01*
X81032285Y-171339320D01*
X79136000Y-171339320D01*
X79136000Y-169681806D01*
X80291612Y-169681806D01*
X80311750Y-170431435D01*
X80559877Y-171030467D01*
X80852680Y-171159715D01*
X82006395Y-170006000D01*
X82365605Y-170006000D01*
X83519320Y-171159715D01*
X83812123Y-171030467D01*
X84080388Y-170330194D01*
X84060250Y-169580565D01*
X83812123Y-168981533D01*
X83519320Y-168852285D01*
X82365605Y-170006000D01*
X82006395Y-170006000D01*
X80852680Y-168852285D01*
X80559877Y-168981533D01*
X80291612Y-169681806D01*
X79136000Y-169681806D01*
X79136000Y-168672680D01*
X81032285Y-168672680D01*
X82186000Y-169826395D01*
X83339715Y-168672680D01*
X83210467Y-168379877D01*
X82510194Y-168111612D01*
X81760565Y-168131750D01*
X81161533Y-168379877D01*
X81032285Y-168672680D01*
X79136000Y-168672680D01*
X79136000Y-165379305D01*
X80300674Y-165379305D01*
X80587043Y-166072372D01*
X81116839Y-166603093D01*
X81809405Y-166890672D01*
X82559305Y-166891326D01*
X83252372Y-166604957D01*
X83783093Y-166075161D01*
X84070672Y-165382595D01*
X84071326Y-164632695D01*
X83784957Y-163939628D01*
X83255161Y-163408907D01*
X82562595Y-163121328D01*
X81812695Y-163120674D01*
X81119628Y-163407043D01*
X80588907Y-163936839D01*
X80301328Y-164629405D01*
X80300674Y-165379305D01*
X79136000Y-165379305D01*
X79136000Y-157600000D01*
X79078148Y-157309161D01*
X78913401Y-157062599D01*
X77379035Y-155528233D01*
X77379179Y-155363029D01*
X77221942Y-154982485D01*
X76931046Y-154691081D01*
X76550777Y-154533180D01*
X76139029Y-154532821D01*
X75834000Y-154658856D01*
X75834000Y-154493761D01*
X75950919Y-154377046D01*
X76108820Y-153996777D01*
X76109179Y-153585029D01*
X75951942Y-153204485D01*
X75661046Y-152913081D01*
X75280777Y-152755180D01*
X74869029Y-152754821D01*
X74488485Y-152912058D01*
X74197081Y-153202954D01*
X74039180Y-153583223D01*
X74038821Y-153994971D01*
X74196058Y-154375515D01*
X74314000Y-154493663D01*
X74314000Y-162619198D01*
X73764233Y-163168965D01*
X73599029Y-163168821D01*
X73218485Y-163326058D01*
X72927081Y-163616954D01*
X72769180Y-163997223D01*
X72768821Y-164408971D01*
X59180077Y-164408971D01*
X58998957Y-163970628D01*
X58469161Y-163439907D01*
X57776595Y-163152328D01*
X57026695Y-163151674D01*
X56333628Y-163438043D01*
X55802907Y-163967839D01*
X55515328Y-164660405D01*
X55514674Y-165410305D01*
X54241000Y-165410305D01*
X54241000Y-160429774D01*
X54545090Y-161165727D01*
X55145114Y-161766800D01*
X55929485Y-162092499D01*
X56778789Y-162093240D01*
X57563727Y-161768910D01*
X58164800Y-161168886D01*
X58490499Y-160384515D01*
X58491240Y-159535211D01*
X58166910Y-158750273D01*
X57566886Y-158149200D01*
X56782515Y-157823501D01*
X55933211Y-157822760D01*
X55148273Y-158147090D01*
X54547200Y-158747114D01*
X54241000Y-159484526D01*
X54241000Y-146678931D01*
X66343691Y-146678931D01*
X66377158Y-147089318D01*
X66465103Y-147301635D01*
X66343691Y-147678931D01*
X66377158Y-148089318D01*
X66465103Y-148301635D01*
X66343691Y-148678931D01*
X66377158Y-149089318D01*
X66465103Y-149301635D01*
X66343691Y-149678931D01*
X66377158Y-150089318D01*
X66465103Y-150301635D01*
X66343691Y-150678931D01*
X66377158Y-151089318D01*
X66469820Y-151313023D01*
X66674650Y-151337745D01*
X67190098Y-150822297D01*
X67270931Y-150848309D01*
X67356932Y-150841296D01*
X67370005Y-151001600D01*
X66854255Y-151517350D01*
X66878977Y-151722180D01*
X67270931Y-151848309D01*
X67681318Y-151814842D01*
X67893635Y-151726897D01*
X68270931Y-151848309D01*
X68681318Y-151814842D01*
X68893635Y-151726897D01*
X69270931Y-151848309D01*
X69681318Y-151814842D01*
X69893635Y-151726897D01*
X70270931Y-151848309D01*
X70681318Y-151814842D01*
X70893635Y-151726897D01*
X71270931Y-151848309D01*
X71681318Y-151814842D01*
X71905023Y-151722180D01*
X71929745Y-151517350D01*
X71414297Y-151001902D01*
X71440309Y-150921069D01*
X71433296Y-150835068D01*
X71593600Y-150821995D01*
X72109350Y-151337745D01*
X72314180Y-151313023D01*
X72440309Y-150921069D01*
X72406842Y-150510682D01*
X72318897Y-150298365D01*
X72440309Y-149921069D01*
X72406842Y-149510682D01*
X72318897Y-149298365D01*
X72440309Y-148921069D01*
X72406842Y-148510682D01*
X72318897Y-148298365D01*
X72440309Y-147921069D01*
X72406842Y-147510682D01*
X72318897Y-147298365D01*
X72440309Y-146921069D01*
X72406842Y-146510682D01*
X72314180Y-146286977D01*
X72109350Y-146262255D01*
X71593902Y-146777703D01*
X71513069Y-146751691D01*
X71427068Y-146758704D01*
X71413995Y-146598400D01*
X71929745Y-146082650D01*
X71905023Y-145877820D01*
X71513069Y-145751691D01*
X71102682Y-145785158D01*
X70890365Y-145873103D01*
X70513069Y-145751691D01*
X70102682Y-145785158D01*
X69890365Y-145873103D01*
X69513069Y-145751691D01*
X69102682Y-145785158D01*
X68890365Y-145873103D01*
X68513069Y-145751691D01*
X68102682Y-145785158D01*
X67890365Y-145873103D01*
X67513069Y-145751691D01*
X67102682Y-145785158D01*
X66878977Y-145877820D01*
X66854255Y-146082650D01*
X67369703Y-146598098D01*
X67343691Y-146678931D01*
X67350704Y-146764932D01*
X67190400Y-146778005D01*
X66674650Y-146262255D01*
X66469820Y-146286977D01*
X66343691Y-146678931D01*
X54241000Y-146678931D01*
X54241000Y-140843000D01*
X85471000Y-140843000D01*
X85471000Y-143412130D01*
X85471000Y-143412130D01*
G37*
X85471000Y-143412130D02*
X85444130Y-143401000D01*
X84503750Y-143401000D01*
X84345000Y-143559750D01*
X84345000Y-144671000D01*
X84365000Y-144671000D01*
X84365000Y-144925000D01*
X84345000Y-144925000D01*
X84345000Y-144945000D01*
X84091000Y-144945000D01*
X84091000Y-144925000D01*
X82641930Y-144925000D01*
X82483180Y-145083750D01*
X82483180Y-145686309D01*
X82579853Y-145919698D01*
X82758481Y-146098327D01*
X82991870Y-146195000D01*
X83090596Y-146195000D01*
X82858365Y-146350172D01*
X82706135Y-146578000D01*
X76556802Y-146578000D01*
X73888493Y-143909691D01*
X82483180Y-143909691D01*
X82483180Y-144512250D01*
X82641930Y-144671000D01*
X84091000Y-144671000D01*
X84091000Y-143559750D01*
X83932250Y-143401000D01*
X82991870Y-143401000D01*
X82758481Y-143497673D01*
X82579853Y-143676302D01*
X82483180Y-143909691D01*
X73888493Y-143909691D01*
X73569035Y-143590233D01*
X73569179Y-143425029D01*
X73411942Y-143044485D01*
X73121046Y-142753081D01*
X72740777Y-142595180D01*
X72329029Y-142594821D01*
X71948485Y-142752058D01*
X71657081Y-143042954D01*
X71499180Y-143423223D01*
X71498821Y-143834971D01*
X71656058Y-144215515D01*
X71946954Y-144506919D01*
X72327223Y-144664820D01*
X72494164Y-144664966D01*
X75704599Y-147875401D01*
X75951161Y-148040148D01*
X76242000Y-148098000D01*
X82706135Y-148098000D01*
X82858365Y-148325828D01*
X83280664Y-148608000D01*
X82858365Y-148890172D01*
X82555533Y-149343391D01*
X82449193Y-149878000D01*
X82555533Y-150412609D01*
X82858365Y-150865828D01*
X83280664Y-151148000D01*
X82858365Y-151430172D01*
X82555533Y-151883391D01*
X82449193Y-152418000D01*
X82555533Y-152952609D01*
X82858365Y-153405828D01*
X83280664Y-153688000D01*
X82858365Y-153970172D01*
X82555533Y-154423391D01*
X82449193Y-154958000D01*
X82555533Y-155492609D01*
X82858365Y-155945828D01*
X83311584Y-156248660D01*
X83846193Y-156355000D01*
X84589807Y-156355000D01*
X85124416Y-156248660D01*
X85471000Y-156017079D01*
X85471000Y-159486226D01*
X85166910Y-158750273D01*
X84566886Y-158149200D01*
X83782515Y-157823501D01*
X82933211Y-157822760D01*
X82148273Y-158147090D01*
X81547200Y-158747114D01*
X81221501Y-159531485D01*
X81220760Y-160380789D01*
X81545090Y-161165727D01*
X82145114Y-161766800D01*
X82929485Y-162092499D01*
X83778789Y-162093240D01*
X84563727Y-161768910D01*
X85164800Y-161168886D01*
X85471000Y-160431474D01*
X85471000Y-186486226D01*
X85166910Y-185750273D01*
X84566886Y-185149200D01*
X83782515Y-184823501D01*
X82933211Y-184822760D01*
X82148273Y-185147090D01*
X81547200Y-185747114D01*
X81221501Y-186531485D01*
X81220760Y-187380789D01*
X81545090Y-188165727D01*
X82145114Y-188766800D01*
X82882526Y-189073000D01*
X56827774Y-189073000D01*
X57563727Y-188768910D01*
X58164800Y-188168886D01*
X58490499Y-187384515D01*
X58491240Y-186535211D01*
X58444175Y-186421305D01*
X65354674Y-186421305D01*
X65641043Y-187114372D01*
X66170839Y-187645093D01*
X66863405Y-187932672D01*
X67613305Y-187933326D01*
X68306372Y-187646957D01*
X68572472Y-187381320D01*
X71086285Y-187381320D01*
X71215533Y-187674123D01*
X71915806Y-187942388D01*
X72665435Y-187922250D01*
X73264467Y-187674123D01*
X73393715Y-187381320D01*
X72240000Y-186227605D01*
X71086285Y-187381320D01*
X68572472Y-187381320D01*
X68837093Y-187117161D01*
X69124672Y-186424595D01*
X69125283Y-185723806D01*
X70345612Y-185723806D01*
X70365750Y-186473435D01*
X70613877Y-187072467D01*
X70906680Y-187201715D01*
X72060395Y-186048000D01*
X72419605Y-186048000D01*
X73573320Y-187201715D01*
X73866123Y-187072467D01*
X74134388Y-186372194D01*
X74114250Y-185622565D01*
X73866123Y-185023533D01*
X73573320Y-184894285D01*
X72419605Y-186048000D01*
X72060395Y-186048000D01*
X70906680Y-184894285D01*
X70613877Y-185023533D01*
X70345612Y-185723806D01*
X69125283Y-185723806D01*
X69125326Y-185674695D01*
X68838957Y-184981628D01*
X68572475Y-184714680D01*
X71086285Y-184714680D01*
X72240000Y-185868395D01*
X73393715Y-184714680D01*
X73264467Y-184421877D01*
X72564194Y-184153612D01*
X71814565Y-184173750D01*
X71215533Y-184421877D01*
X71086285Y-184714680D01*
X68572475Y-184714680D01*
X68309161Y-184450907D01*
X67616595Y-184163328D01*
X66866695Y-184162674D01*
X66173628Y-184449043D01*
X65642907Y-184978839D01*
X65355328Y-185671405D01*
X65354674Y-186421305D01*
X58444175Y-186421305D01*
X58166910Y-185750273D01*
X57566886Y-185149200D01*
X56782515Y-184823501D01*
X55933211Y-184822760D01*
X55148273Y-185147090D01*
X54547200Y-185747114D01*
X54241000Y-186484526D01*
X54241000Y-182515320D01*
X56246285Y-182515320D01*
X56375533Y-182808123D01*
X57075806Y-183076388D01*
X57825435Y-183056250D01*
X58424467Y-182808123D01*
X58553715Y-182515320D01*
X57400000Y-181361605D01*
X56246285Y-182515320D01*
X54241000Y-182515320D01*
X54241000Y-180857806D01*
X55505612Y-180857806D01*
X55525750Y-181607435D01*
X55773877Y-182206467D01*
X56066680Y-182335715D01*
X57220395Y-181182000D01*
X57579605Y-181182000D01*
X58733320Y-182335715D01*
X59026123Y-182206467D01*
X59294388Y-181506194D01*
X59274250Y-180756565D01*
X59026123Y-180157533D01*
X58733320Y-180028285D01*
X57579605Y-181182000D01*
X57220395Y-181182000D01*
X56066680Y-180028285D01*
X55773877Y-180157533D01*
X55505612Y-180857806D01*
X54241000Y-180857806D01*
X54241000Y-179848680D01*
X56246285Y-179848680D01*
X57400000Y-181002395D01*
X58553715Y-179848680D01*
X58424467Y-179555877D01*
X57724194Y-179287612D01*
X56974565Y-179307750D01*
X56375533Y-179555877D01*
X56246285Y-179848680D01*
X54241000Y-179848680D01*
X54241000Y-176555305D01*
X55514674Y-176555305D01*
X55801043Y-177248372D01*
X56330839Y-177779093D01*
X57023405Y-178066672D01*
X57773305Y-178067326D01*
X58466372Y-177780957D01*
X58997093Y-177251161D01*
X59284672Y-176558595D01*
X59285326Y-175808695D01*
X58998957Y-175115628D01*
X58469161Y-174584907D01*
X57776595Y-174297328D01*
X57026695Y-174296674D01*
X56333628Y-174583043D01*
X55802907Y-175112839D01*
X55515328Y-175805405D01*
X55514674Y-176555305D01*
X54241000Y-176555305D01*
X54241000Y-171370320D01*
X56246285Y-171370320D01*
X56375533Y-171663123D01*
X57075806Y-171931388D01*
X57825435Y-171911250D01*
X58424467Y-171663123D01*
X58553715Y-171370320D01*
X57400000Y-170216605D01*
X56246285Y-171370320D01*
X54241000Y-171370320D01*
X54241000Y-169712806D01*
X55505612Y-169712806D01*
X55525750Y-170462435D01*
X55773877Y-171061467D01*
X56066680Y-171190715D01*
X57220395Y-170037000D01*
X57579605Y-170037000D01*
X58733320Y-171190715D01*
X59026123Y-171061467D01*
X59294388Y-170361194D01*
X59274250Y-169611565D01*
X59026123Y-169012533D01*
X58733320Y-168883285D01*
X57579605Y-170037000D01*
X57220395Y-170037000D01*
X56066680Y-168883285D01*
X55773877Y-169012533D01*
X55505612Y-169712806D01*
X54241000Y-169712806D01*
X54241000Y-168703680D01*
X56246285Y-168703680D01*
X57400000Y-169857395D01*
X58553715Y-168703680D01*
X58424467Y-168410877D01*
X57724194Y-168142612D01*
X56974565Y-168162750D01*
X56375533Y-168410877D01*
X56246285Y-168703680D01*
X54241000Y-168703680D01*
X54241000Y-165410305D01*
X55514674Y-165410305D01*
X55801043Y-166103372D01*
X56330839Y-166634093D01*
X57023405Y-166921672D01*
X57773305Y-166922326D01*
X58466372Y-166635957D01*
X58997093Y-166106161D01*
X59284672Y-165413595D01*
X59285326Y-164663695D01*
X59180077Y-164408971D01*
X72768821Y-164408971D01*
X72926058Y-164789515D01*
X73216954Y-165080919D01*
X73597223Y-165238820D01*
X73764164Y-165238966D01*
X74298000Y-165772802D01*
X74298000Y-174046000D01*
X74355852Y-174336839D01*
X74520599Y-174583401D01*
X80428453Y-180491255D01*
X80301328Y-180797405D01*
X80300674Y-181547305D01*
X80587043Y-182240372D01*
X81116839Y-182771093D01*
X81809405Y-183058672D01*
X82559305Y-183059326D01*
X83252372Y-182772957D01*
X83783093Y-182243161D01*
X84070672Y-181550595D01*
X84071326Y-180800695D01*
X83784957Y-180107628D01*
X83255161Y-179576907D01*
X82562595Y-179289328D01*
X81812695Y-179288674D01*
X81503311Y-179416509D01*
X75818000Y-173731198D01*
X75818000Y-165458000D01*
X75760148Y-165167161D01*
X75595401Y-164920599D01*
X74878802Y-164204000D01*
X75611401Y-163471401D01*
X75776148Y-163224840D01*
X75834000Y-162934000D01*
X75834000Y-156476911D01*
X76137223Y-156602820D01*
X76304164Y-156602966D01*
X77616000Y-157914802D01*
X77616000Y-172364000D01*
X77673852Y-172654839D01*
X77838599Y-172901401D01*
X80428453Y-175491255D01*
X80301328Y-175797405D01*
X80300674Y-176547305D01*
X80587043Y-177240372D01*
X81116839Y-177771093D01*
X81809405Y-178058672D01*
X82559305Y-178059326D01*
X83252372Y-177772957D01*
X83783093Y-177243161D01*
X84070672Y-176550595D01*
X84071326Y-175800695D01*
X83784957Y-175107628D01*
X83255161Y-174576907D01*
X82562595Y-174289328D01*
X81812695Y-174288674D01*
X81503311Y-174416509D01*
X79136000Y-172049198D01*
X79136000Y-171339320D01*
X81032285Y-171339320D01*
X81161533Y-171632123D01*
X81861806Y-171900388D01*
X82611435Y-171880250D01*
X83210467Y-171632123D01*
X83339715Y-171339320D01*
X82186000Y-170185605D01*
X81032285Y-171339320D01*
X79136000Y-171339320D01*
X79136000Y-169681806D01*
X80291612Y-169681806D01*
X80311750Y-170431435D01*
X80559877Y-171030467D01*
X80852680Y-171159715D01*
X82006395Y-170006000D01*
X82365605Y-170006000D01*
X83519320Y-171159715D01*
X83812123Y-171030467D01*
X84080388Y-170330194D01*
X84060250Y-169580565D01*
X83812123Y-168981533D01*
X83519320Y-168852285D01*
X82365605Y-170006000D01*
X82006395Y-170006000D01*
X80852680Y-168852285D01*
X80559877Y-168981533D01*
X80291612Y-169681806D01*
X79136000Y-169681806D01*
X79136000Y-168672680D01*
X81032285Y-168672680D01*
X82186000Y-169826395D01*
X83339715Y-168672680D01*
X83210467Y-168379877D01*
X82510194Y-168111612D01*
X81760565Y-168131750D01*
X81161533Y-168379877D01*
X81032285Y-168672680D01*
X79136000Y-168672680D01*
X79136000Y-165379305D01*
X80300674Y-165379305D01*
X80587043Y-166072372D01*
X81116839Y-166603093D01*
X81809405Y-166890672D01*
X82559305Y-166891326D01*
X83252372Y-166604957D01*
X83783093Y-166075161D01*
X84070672Y-165382595D01*
X84071326Y-164632695D01*
X83784957Y-163939628D01*
X83255161Y-163408907D01*
X82562595Y-163121328D01*
X81812695Y-163120674D01*
X81119628Y-163407043D01*
X80588907Y-163936839D01*
X80301328Y-164629405D01*
X80300674Y-165379305D01*
X79136000Y-165379305D01*
X79136000Y-157600000D01*
X79078148Y-157309161D01*
X78913401Y-157062599D01*
X77379035Y-155528233D01*
X77379179Y-155363029D01*
X77221942Y-154982485D01*
X76931046Y-154691081D01*
X76550777Y-154533180D01*
X76139029Y-154532821D01*
X75834000Y-154658856D01*
X75834000Y-154493761D01*
X75950919Y-154377046D01*
X76108820Y-153996777D01*
X76109179Y-153585029D01*
X75951942Y-153204485D01*
X75661046Y-152913081D01*
X75280777Y-152755180D01*
X74869029Y-152754821D01*
X74488485Y-152912058D01*
X74197081Y-153202954D01*
X74039180Y-153583223D01*
X74038821Y-153994971D01*
X74196058Y-154375515D01*
X74314000Y-154493663D01*
X74314000Y-162619198D01*
X73764233Y-163168965D01*
X73599029Y-163168821D01*
X73218485Y-163326058D01*
X72927081Y-163616954D01*
X72769180Y-163997223D01*
X72768821Y-164408971D01*
X59180077Y-164408971D01*
X58998957Y-163970628D01*
X58469161Y-163439907D01*
X57776595Y-163152328D01*
X57026695Y-163151674D01*
X56333628Y-163438043D01*
X55802907Y-163967839D01*
X55515328Y-164660405D01*
X55514674Y-165410305D01*
X54241000Y-165410305D01*
X54241000Y-160429774D01*
X54545090Y-161165727D01*
X55145114Y-161766800D01*
X55929485Y-162092499D01*
X56778789Y-162093240D01*
X57563727Y-161768910D01*
X58164800Y-161168886D01*
X58490499Y-160384515D01*
X58491240Y-159535211D01*
X58166910Y-158750273D01*
X57566886Y-158149200D01*
X56782515Y-157823501D01*
X55933211Y-157822760D01*
X55148273Y-158147090D01*
X54547200Y-158747114D01*
X54241000Y-159484526D01*
X54241000Y-146678931D01*
X66343691Y-146678931D01*
X66377158Y-147089318D01*
X66465103Y-147301635D01*
X66343691Y-147678931D01*
X66377158Y-148089318D01*
X66465103Y-148301635D01*
X66343691Y-148678931D01*
X66377158Y-149089318D01*
X66465103Y-149301635D01*
X66343691Y-149678931D01*
X66377158Y-150089318D01*
X66465103Y-150301635D01*
X66343691Y-150678931D01*
X66377158Y-151089318D01*
X66469820Y-151313023D01*
X66674650Y-151337745D01*
X67190098Y-150822297D01*
X67270931Y-150848309D01*
X67356932Y-150841296D01*
X67370005Y-151001600D01*
X66854255Y-151517350D01*
X66878977Y-151722180D01*
X67270931Y-151848309D01*
X67681318Y-151814842D01*
X67893635Y-151726897D01*
X68270931Y-151848309D01*
X68681318Y-151814842D01*
X68893635Y-151726897D01*
X69270931Y-151848309D01*
X69681318Y-151814842D01*
X69893635Y-151726897D01*
X70270931Y-151848309D01*
X70681318Y-151814842D01*
X70893635Y-151726897D01*
X71270931Y-151848309D01*
X71681318Y-151814842D01*
X71905023Y-151722180D01*
X71929745Y-151517350D01*
X71414297Y-151001902D01*
X71440309Y-150921069D01*
X71433296Y-150835068D01*
X71593600Y-150821995D01*
X72109350Y-151337745D01*
X72314180Y-151313023D01*
X72440309Y-150921069D01*
X72406842Y-150510682D01*
X72318897Y-150298365D01*
X72440309Y-149921069D01*
X72406842Y-149510682D01*
X72318897Y-149298365D01*
X72440309Y-148921069D01*
X72406842Y-148510682D01*
X72318897Y-148298365D01*
X72440309Y-147921069D01*
X72406842Y-147510682D01*
X72318897Y-147298365D01*
X72440309Y-146921069D01*
X72406842Y-146510682D01*
X72314180Y-146286977D01*
X72109350Y-146262255D01*
X71593902Y-146777703D01*
X71513069Y-146751691D01*
X71427068Y-146758704D01*
X71413995Y-146598400D01*
X71929745Y-146082650D01*
X71905023Y-145877820D01*
X71513069Y-145751691D01*
X71102682Y-145785158D01*
X70890365Y-145873103D01*
X70513069Y-145751691D01*
X70102682Y-145785158D01*
X69890365Y-145873103D01*
X69513069Y-145751691D01*
X69102682Y-145785158D01*
X68890365Y-145873103D01*
X68513069Y-145751691D01*
X68102682Y-145785158D01*
X67890365Y-145873103D01*
X67513069Y-145751691D01*
X67102682Y-145785158D01*
X66878977Y-145877820D01*
X66854255Y-146082650D01*
X67369703Y-146598098D01*
X67343691Y-146678931D01*
X67350704Y-146764932D01*
X67190400Y-146778005D01*
X66674650Y-146262255D01*
X66469820Y-146286977D01*
X66343691Y-146678931D01*
X54241000Y-146678931D01*
X54241000Y-140843000D01*
X85471000Y-140843000D01*
X85471000Y-143412130D01*
M02*
