G04 #@! TF.GenerationSoftware,KiCad,Pcbnew,no-vcs-found-91ed3e2~59~ubuntu16.04.1*
G04 #@! TF.CreationDate,2017-08-21T18:57:55+02:00*
G04 #@! TF.ProjectId,ESP32-bat-monitor-latch-pan,45535033322D6261742D6D6F6E69746F,rev?*
G04 #@! TF.SameCoordinates,Original*
G04 #@! TF.FileFunction,Soldermask,Top*
G04 #@! TF.FilePolarity,Negative*
%FSLAX46Y46*%
G04 Gerber Fmt 4.6, Leading zero omitted, Abs format (unit mm)*
G04 Created by KiCad (PCBNEW no-vcs-found-91ed3e2~59~ubuntu16.04.1) date Mon Aug 21 18:57:55 2017*
%MOMM*%
%LPD*%
G01*
G04 APERTURE LIST*
%ADD10C,1.000000*%
%ADD11R,1.550000X1.100000*%
%ADD12R,1.100000X1.550000*%
%ADD13R,6.200000X6.200000*%
%ADD14C,2.700000*%
%ADD15R,1.099160X1.200760*%
%ADD16O,2.399640X1.724000*%
%ADD17R,2.399640X1.724000*%
%ADD18R,1.200760X1.099160*%
%ADD19R,1.698600X1.500480*%
%ADD20R,0.799440X1.200760*%
%ADD21C,1.200760*%
%ADD22R,1.200760X0.799440*%
%ADD23C,3.199740*%
%ADD24C,0.949300*%
G04 APERTURE END LIST*
D10*
X71392000Y-96800000D03*
X71392000Y-97800000D03*
X71392000Y-98800000D03*
X71392000Y-99800000D03*
X71392000Y-100800000D03*
X69392000Y-96800000D03*
X69392000Y-97800000D03*
X69392000Y-98800000D03*
X69392000Y-99800000D03*
X69392000Y-100800000D03*
X70392000Y-100800000D03*
X70392000Y-99800000D03*
X70392000Y-98800000D03*
X70392000Y-97800000D03*
X70392000Y-96800000D03*
X68392000Y-96800000D03*
X68392000Y-97800000D03*
X68392000Y-98800000D03*
X68392000Y-99800000D03*
X68392000Y-100800000D03*
X67392000Y-100800000D03*
X67392000Y-99800000D03*
X67392000Y-98800000D03*
X67392000Y-97800000D03*
D11*
X78122000Y-91090000D03*
X78122000Y-92360000D03*
X78122000Y-93630000D03*
X78122000Y-94900000D03*
X78122000Y-96170000D03*
X78122000Y-97440000D03*
X78122000Y-98710000D03*
X78122000Y-99980000D03*
X78122000Y-101250000D03*
X78122000Y-102520000D03*
X78122000Y-103790000D03*
X78122000Y-105060000D03*
X78122000Y-106330000D03*
X78122000Y-107600000D03*
D12*
X74822000Y-109100000D03*
X73552000Y-109100000D03*
X72282000Y-109100000D03*
X71012000Y-109100000D03*
X69742000Y-109100000D03*
X68472000Y-109100000D03*
X67202000Y-109100000D03*
X65932000Y-109100000D03*
X64662000Y-109100000D03*
X63392000Y-109100000D03*
D11*
X60092000Y-107600000D03*
X60092000Y-106330000D03*
X60092000Y-105060000D03*
X60092000Y-103790000D03*
X60092000Y-102520000D03*
X60092000Y-101250000D03*
X60092000Y-99980000D03*
X60092000Y-98710000D03*
X60092000Y-97440000D03*
X60092000Y-96170000D03*
X60092000Y-94900000D03*
X60092000Y-93630000D03*
X60092000Y-92360000D03*
X60092000Y-91090000D03*
D13*
X69392000Y-98800000D03*
D10*
X67392000Y-96800000D03*
D14*
X72240000Y-186048000D03*
X67240000Y-186048000D03*
D10*
X71392000Y-146800000D03*
X71392000Y-147800000D03*
X71392000Y-148800000D03*
X71392000Y-149800000D03*
X71392000Y-150800000D03*
X69392000Y-146800000D03*
X69392000Y-147800000D03*
X69392000Y-148800000D03*
X69392000Y-149800000D03*
X69392000Y-150800000D03*
X70392000Y-150800000D03*
X70392000Y-149800000D03*
X70392000Y-148800000D03*
X70392000Y-147800000D03*
X70392000Y-146800000D03*
X68392000Y-146800000D03*
X68392000Y-147800000D03*
X68392000Y-148800000D03*
X68392000Y-149800000D03*
X68392000Y-150800000D03*
X67392000Y-150800000D03*
X67392000Y-149800000D03*
X67392000Y-148800000D03*
X67392000Y-147800000D03*
D11*
X78122000Y-141090000D03*
X78122000Y-142360000D03*
X78122000Y-143630000D03*
X78122000Y-144900000D03*
X78122000Y-146170000D03*
X78122000Y-147440000D03*
X78122000Y-148710000D03*
X78122000Y-149980000D03*
X78122000Y-151250000D03*
X78122000Y-152520000D03*
X78122000Y-153790000D03*
X78122000Y-155060000D03*
X78122000Y-156330000D03*
X78122000Y-157600000D03*
D12*
X74822000Y-159100000D03*
X73552000Y-159100000D03*
X72282000Y-159100000D03*
X71012000Y-159100000D03*
X69742000Y-159100000D03*
X68472000Y-159100000D03*
X67202000Y-159100000D03*
X65932000Y-159100000D03*
X64662000Y-159100000D03*
X63392000Y-159100000D03*
D11*
X60092000Y-157600000D03*
X60092000Y-156330000D03*
X60092000Y-155060000D03*
X60092000Y-153790000D03*
X60092000Y-152520000D03*
X60092000Y-151250000D03*
X60092000Y-149980000D03*
X60092000Y-148710000D03*
X60092000Y-147440000D03*
X60092000Y-146170000D03*
X60092000Y-144900000D03*
X60092000Y-143630000D03*
X60092000Y-142360000D03*
X60092000Y-141090000D03*
D13*
X69392000Y-148800000D03*
D10*
X67392000Y-146800000D03*
D15*
X57781680Y-146424000D03*
X56278000Y-146424000D03*
D16*
X84218000Y-154958000D03*
X84218000Y-152418000D03*
X84218000Y-149878000D03*
X84218000Y-147338000D03*
D17*
X84218000Y-144798000D03*
D18*
X57802000Y-143122000D03*
X57802000Y-141618320D03*
D19*
X55770000Y-143376000D03*
X55770000Y-141471000D03*
D20*
X74185000Y-165728000D03*
X75137500Y-167841280D03*
X76090000Y-165728000D03*
D21*
X74296000Y-171062000D03*
X74296000Y-162426000D03*
X68962000Y-178174000D03*
X64152000Y-173856000D03*
D18*
X64898000Y-165717840D03*
X64898000Y-164214160D03*
D20*
X68581000Y-165728000D03*
X67628500Y-163614720D03*
X66676000Y-165728000D03*
D15*
X66686160Y-167506000D03*
X68189840Y-167506000D03*
D18*
X71756000Y-176660160D03*
X71756000Y-178163840D03*
X72264000Y-174607840D03*
X72264000Y-173104160D03*
X68454000Y-170320320D03*
X68454000Y-171824000D03*
X66676000Y-171813840D03*
X66676000Y-170310160D03*
D20*
X72454500Y-163655360D03*
X71502000Y-165768640D03*
X70549500Y-163655360D03*
X73851500Y-175207280D03*
X74804000Y-173094000D03*
X75756500Y-175207280D03*
D22*
X70445360Y-170300000D03*
X72558640Y-169347500D03*
X70445360Y-168395000D03*
X65578720Y-177856500D03*
X67692000Y-176904000D03*
X65578720Y-175951500D03*
D14*
X82186000Y-181174000D03*
X82186000Y-176174000D03*
X82186000Y-165006000D03*
X82186000Y-170006000D03*
X57400000Y-181182000D03*
X57400000Y-176182000D03*
X57400000Y-165037000D03*
X57400000Y-170037000D03*
D18*
X73534000Y-176660160D03*
X73534000Y-178163840D03*
X64898000Y-171813840D03*
X64898000Y-170310160D03*
D10*
X104392000Y-96800000D03*
X104392000Y-97800000D03*
X104392000Y-98800000D03*
X104392000Y-99800000D03*
X104392000Y-100800000D03*
X102392000Y-96800000D03*
X102392000Y-97800000D03*
X102392000Y-98800000D03*
X102392000Y-99800000D03*
X102392000Y-100800000D03*
X103392000Y-100800000D03*
X103392000Y-99800000D03*
X103392000Y-98800000D03*
X103392000Y-97800000D03*
X103392000Y-96800000D03*
X101392000Y-96800000D03*
X101392000Y-97800000D03*
X101392000Y-98800000D03*
X101392000Y-99800000D03*
X101392000Y-100800000D03*
X100392000Y-100800000D03*
X100392000Y-99800000D03*
X100392000Y-98800000D03*
X100392000Y-97800000D03*
D11*
X111122000Y-91090000D03*
X111122000Y-92360000D03*
X111122000Y-93630000D03*
X111122000Y-94900000D03*
X111122000Y-96170000D03*
X111122000Y-97440000D03*
X111122000Y-98710000D03*
X111122000Y-99980000D03*
X111122000Y-101250000D03*
X111122000Y-102520000D03*
X111122000Y-103790000D03*
X111122000Y-105060000D03*
X111122000Y-106330000D03*
X111122000Y-107600000D03*
D12*
X107822000Y-109100000D03*
X106552000Y-109100000D03*
X105282000Y-109100000D03*
X104012000Y-109100000D03*
X102742000Y-109100000D03*
X101472000Y-109100000D03*
X100202000Y-109100000D03*
X98932000Y-109100000D03*
X97662000Y-109100000D03*
X96392000Y-109100000D03*
D11*
X93092000Y-107600000D03*
X93092000Y-106330000D03*
X93092000Y-105060000D03*
X93092000Y-103790000D03*
X93092000Y-102520000D03*
X93092000Y-101250000D03*
X93092000Y-99980000D03*
X93092000Y-98710000D03*
X93092000Y-97440000D03*
X93092000Y-96170000D03*
X93092000Y-94900000D03*
X93092000Y-93630000D03*
X93092000Y-92360000D03*
X93092000Y-91090000D03*
D13*
X102392000Y-98800000D03*
D10*
X100392000Y-96800000D03*
D15*
X90781680Y-96424000D03*
X89278000Y-96424000D03*
D16*
X117218000Y-104958000D03*
X117218000Y-102418000D03*
X117218000Y-99878000D03*
X117218000Y-97338000D03*
D17*
X117218000Y-94798000D03*
D18*
X90802000Y-93122000D03*
X90802000Y-91618320D03*
D19*
X88770000Y-93376000D03*
X88770000Y-91471000D03*
D20*
X107185000Y-115728000D03*
X108137500Y-117841280D03*
X109090000Y-115728000D03*
D21*
X107296000Y-121062000D03*
X107296000Y-112426000D03*
X101962000Y-128174000D03*
X97152000Y-123856000D03*
D14*
X105240000Y-136048000D03*
X100240000Y-136048000D03*
D18*
X97898000Y-115717840D03*
X97898000Y-114214160D03*
D20*
X101581000Y-115728000D03*
X100628500Y-113614720D03*
X99676000Y-115728000D03*
D15*
X99686160Y-117506000D03*
X101189840Y-117506000D03*
D18*
X104756000Y-126660160D03*
X104756000Y-128163840D03*
X105264000Y-124607840D03*
X105264000Y-123104160D03*
X101454000Y-120320320D03*
X101454000Y-121824000D03*
X99676000Y-121813840D03*
X99676000Y-120310160D03*
D20*
X105454500Y-113655360D03*
X104502000Y-115768640D03*
X103549500Y-113655360D03*
X106851500Y-125207280D03*
X107804000Y-123094000D03*
X108756500Y-125207280D03*
D22*
X103445360Y-120300000D03*
X105558640Y-119347500D03*
X103445360Y-118395000D03*
X98578720Y-127856500D03*
X100692000Y-126904000D03*
X98578720Y-125951500D03*
D14*
X115186000Y-131174000D03*
X115186000Y-126174000D03*
X115186000Y-115006000D03*
X115186000Y-120006000D03*
X90400000Y-131182000D03*
X90400000Y-126182000D03*
X90400000Y-115037000D03*
X90400000Y-120037000D03*
D18*
X106534000Y-126660160D03*
X106534000Y-128163840D03*
X97898000Y-121813840D03*
X97898000Y-120310160D03*
D15*
X57781680Y-96424000D03*
X56278000Y-96424000D03*
D16*
X84218000Y-104958000D03*
X84218000Y-102418000D03*
X84218000Y-99878000D03*
X84218000Y-97338000D03*
D17*
X84218000Y-94798000D03*
D18*
X57802000Y-93122000D03*
X57802000Y-91618320D03*
D19*
X55770000Y-93376000D03*
X55770000Y-91471000D03*
D20*
X74185000Y-115728000D03*
X75137500Y-117841280D03*
X76090000Y-115728000D03*
D21*
X74296000Y-121062000D03*
X74296000Y-112426000D03*
X68962000Y-128174000D03*
X64152000Y-123856000D03*
D14*
X72240000Y-136048000D03*
X67240000Y-136048000D03*
D18*
X64898000Y-115717840D03*
X64898000Y-114214160D03*
D20*
X68581000Y-115728000D03*
X67628500Y-113614720D03*
X66676000Y-115728000D03*
D15*
X66686160Y-117506000D03*
X68189840Y-117506000D03*
D18*
X71756000Y-126660160D03*
X71756000Y-128163840D03*
X72264000Y-124607840D03*
X72264000Y-123104160D03*
X68454000Y-120320320D03*
X68454000Y-121824000D03*
X66676000Y-121813840D03*
X66676000Y-120310160D03*
D20*
X72454500Y-113655360D03*
X71502000Y-115768640D03*
X70549500Y-113655360D03*
X73851500Y-125207280D03*
X74804000Y-123094000D03*
X75756500Y-125207280D03*
D22*
X70445360Y-120300000D03*
X72558640Y-119347500D03*
X70445360Y-118395000D03*
X65578720Y-127856500D03*
X67692000Y-126904000D03*
X65578720Y-125951500D03*
D14*
X82186000Y-131174000D03*
X82186000Y-126174000D03*
X82186000Y-115006000D03*
X82186000Y-120006000D03*
X57400000Y-131182000D03*
X57400000Y-126182000D03*
X57400000Y-115037000D03*
X57400000Y-120037000D03*
D18*
X73534000Y-126660160D03*
X73534000Y-128163840D03*
X64898000Y-121813840D03*
X64898000Y-120310160D03*
D10*
X38392000Y-96800000D03*
X38392000Y-97800000D03*
X38392000Y-98800000D03*
X38392000Y-99800000D03*
X38392000Y-100800000D03*
X36392000Y-96800000D03*
X36392000Y-97800000D03*
X36392000Y-98800000D03*
X36392000Y-99800000D03*
X36392000Y-100800000D03*
X37392000Y-100800000D03*
X37392000Y-99800000D03*
X37392000Y-98800000D03*
X37392000Y-97800000D03*
X37392000Y-96800000D03*
X35392000Y-96800000D03*
X35392000Y-97800000D03*
X35392000Y-98800000D03*
X35392000Y-99800000D03*
X35392000Y-100800000D03*
X34392000Y-100800000D03*
X34392000Y-99800000D03*
X34392000Y-98800000D03*
X34392000Y-97800000D03*
D11*
X45122000Y-91090000D03*
X45122000Y-92360000D03*
X45122000Y-93630000D03*
X45122000Y-94900000D03*
X45122000Y-96170000D03*
X45122000Y-97440000D03*
X45122000Y-98710000D03*
X45122000Y-99980000D03*
X45122000Y-101250000D03*
X45122000Y-102520000D03*
X45122000Y-103790000D03*
X45122000Y-105060000D03*
X45122000Y-106330000D03*
X45122000Y-107600000D03*
D12*
X41822000Y-109100000D03*
X40552000Y-109100000D03*
X39282000Y-109100000D03*
X38012000Y-109100000D03*
X36742000Y-109100000D03*
X35472000Y-109100000D03*
X34202000Y-109100000D03*
X32932000Y-109100000D03*
X31662000Y-109100000D03*
X30392000Y-109100000D03*
D11*
X27092000Y-107600000D03*
X27092000Y-106330000D03*
X27092000Y-105060000D03*
X27092000Y-103790000D03*
X27092000Y-102520000D03*
X27092000Y-101250000D03*
X27092000Y-99980000D03*
X27092000Y-98710000D03*
X27092000Y-97440000D03*
X27092000Y-96170000D03*
X27092000Y-94900000D03*
X27092000Y-93630000D03*
X27092000Y-92360000D03*
X27092000Y-91090000D03*
D13*
X36392000Y-98800000D03*
D10*
X34392000Y-96800000D03*
D15*
X24781680Y-96424000D03*
X23278000Y-96424000D03*
D16*
X51218000Y-104958000D03*
X51218000Y-102418000D03*
X51218000Y-99878000D03*
X51218000Y-97338000D03*
D17*
X51218000Y-94798000D03*
D18*
X24802000Y-93122000D03*
X24802000Y-91618320D03*
D19*
X22770000Y-93376000D03*
X22770000Y-91471000D03*
D20*
X41185000Y-115728000D03*
X42137500Y-117841280D03*
X43090000Y-115728000D03*
D21*
X41296000Y-121062000D03*
X41296000Y-112426000D03*
X35962000Y-128174000D03*
X31152000Y-123856000D03*
D14*
X39240000Y-136048000D03*
X34240000Y-136048000D03*
D18*
X31898000Y-115717840D03*
X31898000Y-114214160D03*
D20*
X35581000Y-115728000D03*
X34628500Y-113614720D03*
X33676000Y-115728000D03*
D15*
X33686160Y-117506000D03*
X35189840Y-117506000D03*
D18*
X38756000Y-126660160D03*
X38756000Y-128163840D03*
X39264000Y-124607840D03*
X39264000Y-123104160D03*
X35454000Y-120320320D03*
X35454000Y-121824000D03*
X33676000Y-121813840D03*
X33676000Y-120310160D03*
D20*
X39454500Y-113655360D03*
X38502000Y-115768640D03*
X37549500Y-113655360D03*
X40851500Y-125207280D03*
X41804000Y-123094000D03*
X42756500Y-125207280D03*
D22*
X37445360Y-120300000D03*
X39558640Y-119347500D03*
X37445360Y-118395000D03*
X32578720Y-127856500D03*
X34692000Y-126904000D03*
X32578720Y-125951500D03*
D14*
X49186000Y-131174000D03*
X49186000Y-126174000D03*
X49186000Y-115006000D03*
X49186000Y-120006000D03*
X24400000Y-131182000D03*
X24400000Y-126182000D03*
X24400000Y-115037000D03*
X24400000Y-120037000D03*
D18*
X40534000Y-126660160D03*
X40534000Y-128163840D03*
X31898000Y-121813840D03*
X31898000Y-120310160D03*
D10*
X38392000Y-146800000D03*
X38392000Y-147800000D03*
X38392000Y-148800000D03*
X38392000Y-149800000D03*
X38392000Y-150800000D03*
X36392000Y-146800000D03*
X36392000Y-147800000D03*
X36392000Y-148800000D03*
X36392000Y-149800000D03*
X36392000Y-150800000D03*
X37392000Y-150800000D03*
X37392000Y-149800000D03*
X37392000Y-148800000D03*
X37392000Y-147800000D03*
X37392000Y-146800000D03*
X35392000Y-146800000D03*
X35392000Y-147800000D03*
X35392000Y-148800000D03*
X35392000Y-149800000D03*
X35392000Y-150800000D03*
X34392000Y-150800000D03*
X34392000Y-149800000D03*
X34392000Y-148800000D03*
X34392000Y-147800000D03*
D11*
X45122000Y-141090000D03*
X45122000Y-142360000D03*
X45122000Y-143630000D03*
X45122000Y-144900000D03*
X45122000Y-146170000D03*
X45122000Y-147440000D03*
X45122000Y-148710000D03*
X45122000Y-149980000D03*
X45122000Y-151250000D03*
X45122000Y-152520000D03*
X45122000Y-153790000D03*
X45122000Y-155060000D03*
X45122000Y-156330000D03*
X45122000Y-157600000D03*
D12*
X41822000Y-159100000D03*
X40552000Y-159100000D03*
X39282000Y-159100000D03*
X38012000Y-159100000D03*
X36742000Y-159100000D03*
X35472000Y-159100000D03*
X34202000Y-159100000D03*
X32932000Y-159100000D03*
X31662000Y-159100000D03*
X30392000Y-159100000D03*
D11*
X27092000Y-157600000D03*
X27092000Y-156330000D03*
X27092000Y-155060000D03*
X27092000Y-153790000D03*
X27092000Y-152520000D03*
X27092000Y-151250000D03*
X27092000Y-149980000D03*
X27092000Y-148710000D03*
X27092000Y-147440000D03*
X27092000Y-146170000D03*
X27092000Y-144900000D03*
X27092000Y-143630000D03*
X27092000Y-142360000D03*
X27092000Y-141090000D03*
D13*
X36392000Y-148800000D03*
D10*
X34392000Y-146800000D03*
D15*
X24781680Y-146424000D03*
X23278000Y-146424000D03*
D16*
X51218000Y-154958000D03*
X51218000Y-152418000D03*
X51218000Y-149878000D03*
X51218000Y-147338000D03*
D17*
X51218000Y-144798000D03*
D18*
X24802000Y-143122000D03*
X24802000Y-141618320D03*
D19*
X22770000Y-143376000D03*
X22770000Y-141471000D03*
D20*
X41185000Y-165728000D03*
X42137500Y-167841280D03*
X43090000Y-165728000D03*
D21*
X41296000Y-171062000D03*
X41296000Y-162426000D03*
X35962000Y-178174000D03*
X31152000Y-173856000D03*
D14*
X39240000Y-186048000D03*
X34240000Y-186048000D03*
D18*
X31898000Y-165717840D03*
X31898000Y-164214160D03*
D20*
X35581000Y-165728000D03*
X34628500Y-163614720D03*
X33676000Y-165728000D03*
D15*
X33686160Y-167506000D03*
X35189840Y-167506000D03*
D18*
X38756000Y-176660160D03*
X38756000Y-178163840D03*
X39264000Y-174607840D03*
X39264000Y-173104160D03*
X35454000Y-170320320D03*
X35454000Y-171824000D03*
X33676000Y-171813840D03*
X33676000Y-170310160D03*
D20*
X39454500Y-163655360D03*
X38502000Y-165768640D03*
X37549500Y-163655360D03*
X40851500Y-175207280D03*
X41804000Y-173094000D03*
X42756500Y-175207280D03*
D22*
X37445360Y-170300000D03*
X39558640Y-169347500D03*
X37445360Y-168395000D03*
X32578720Y-177856500D03*
X34692000Y-176904000D03*
X32578720Y-175951500D03*
D14*
X49186000Y-181174000D03*
X49186000Y-176174000D03*
X49186000Y-165006000D03*
X49186000Y-170006000D03*
X24400000Y-181182000D03*
X24400000Y-176182000D03*
X24400000Y-165037000D03*
X24400000Y-170037000D03*
D18*
X40534000Y-176660160D03*
X40534000Y-178163840D03*
X31898000Y-171813840D03*
X31898000Y-170310160D03*
D23*
X118000000Y-188000000D03*
D24*
X118000000Y-188000000D03*
D18*
X97898000Y-170310160D03*
X97898000Y-171813840D03*
X106534000Y-178163840D03*
X106534000Y-176660160D03*
D14*
X90400000Y-170037000D03*
X90400000Y-165037000D03*
X90400000Y-176182000D03*
X90400000Y-181182000D03*
X115186000Y-170006000D03*
X115186000Y-165006000D03*
X115186000Y-176174000D03*
X115186000Y-181174000D03*
D22*
X98578720Y-175951500D03*
X100692000Y-176904000D03*
X98578720Y-177856500D03*
X103445360Y-168395000D03*
X105558640Y-169347500D03*
X103445360Y-170300000D03*
D20*
X108756500Y-175207280D03*
X107804000Y-173094000D03*
X106851500Y-175207280D03*
X103549500Y-163655360D03*
X104502000Y-165768640D03*
X105454500Y-163655360D03*
D18*
X99676000Y-170310160D03*
X99676000Y-171813840D03*
X101454000Y-171824000D03*
X101454000Y-170320320D03*
X105264000Y-173104160D03*
X105264000Y-174607840D03*
X104756000Y-178163840D03*
X104756000Y-176660160D03*
D15*
X101189840Y-167506000D03*
X99686160Y-167506000D03*
D20*
X99676000Y-165728000D03*
X100628500Y-163614720D03*
X101581000Y-165728000D03*
D18*
X97898000Y-164214160D03*
X97898000Y-165717840D03*
D14*
X100240000Y-186048000D03*
X105240000Y-186048000D03*
D21*
X97152000Y-173856000D03*
X101962000Y-178174000D03*
X107296000Y-162426000D03*
X107296000Y-171062000D03*
D20*
X109090000Y-165728000D03*
X108137500Y-167841280D03*
X107185000Y-165728000D03*
D19*
X88770000Y-141471000D03*
X88770000Y-143376000D03*
D18*
X90802000Y-141618320D03*
X90802000Y-143122000D03*
D17*
X117218000Y-144798000D03*
D16*
X117218000Y-147338000D03*
X117218000Y-149878000D03*
X117218000Y-152418000D03*
X117218000Y-154958000D03*
D15*
X89278000Y-146424000D03*
X90781680Y-146424000D03*
D10*
X100392000Y-146800000D03*
D13*
X102392000Y-148800000D03*
D11*
X93092000Y-141090000D03*
X93092000Y-142360000D03*
X93092000Y-143630000D03*
X93092000Y-144900000D03*
X93092000Y-146170000D03*
X93092000Y-147440000D03*
X93092000Y-148710000D03*
X93092000Y-149980000D03*
X93092000Y-151250000D03*
X93092000Y-152520000D03*
X93092000Y-153790000D03*
X93092000Y-155060000D03*
X93092000Y-156330000D03*
X93092000Y-157600000D03*
D12*
X96392000Y-159100000D03*
X97662000Y-159100000D03*
X98932000Y-159100000D03*
X100202000Y-159100000D03*
X101472000Y-159100000D03*
X102742000Y-159100000D03*
X104012000Y-159100000D03*
X105282000Y-159100000D03*
X106552000Y-159100000D03*
X107822000Y-159100000D03*
D11*
X111122000Y-157600000D03*
X111122000Y-156330000D03*
X111122000Y-155060000D03*
X111122000Y-153790000D03*
X111122000Y-152520000D03*
X111122000Y-151250000D03*
X111122000Y-149980000D03*
X111122000Y-148710000D03*
X111122000Y-147440000D03*
X111122000Y-146170000D03*
X111122000Y-144900000D03*
X111122000Y-143630000D03*
X111122000Y-142360000D03*
X111122000Y-141090000D03*
D10*
X100392000Y-147800000D03*
X100392000Y-148800000D03*
X100392000Y-149800000D03*
X100392000Y-150800000D03*
X101392000Y-150800000D03*
X101392000Y-149800000D03*
X101392000Y-148800000D03*
X101392000Y-147800000D03*
X101392000Y-146800000D03*
X103392000Y-146800000D03*
X103392000Y-147800000D03*
X103392000Y-148800000D03*
X103392000Y-149800000D03*
X103392000Y-150800000D03*
X102392000Y-150800000D03*
X102392000Y-149800000D03*
X102392000Y-148800000D03*
X102392000Y-147800000D03*
X102392000Y-146800000D03*
X104392000Y-150800000D03*
X104392000Y-149800000D03*
X104392000Y-148800000D03*
X104392000Y-147800000D03*
X104392000Y-146800000D03*
M02*
