M48
;DRILL file {KiCad no-vcs-found-91ed3e2~59~ubuntu16.04.1} date Mon Aug 21 18:57:59 2017
;FORMAT={-:-/ absolute / metric / decimal}
FMAT,2
METRIC,TZ
T1C0.300
T2C0.400
T3C1.001
T4C1.300
T5C3.000
T6C0.300
%
G90
G05
M71
T1
X67.454Y-173.348
X57.04Y-144.9
X43.344Y-184.016
X97.66Y-118.014
X76.344Y-184.016
X24.802Y-103.282
X80.916Y-103.028
X97.66Y-168.014
X70.248Y-174.618
X34.392Y-96.8
X34.392Y-97.8
X34.392Y-98.8
X34.392Y-99.8
X34.392Y-100.8
X35.392Y-96.8
X35.392Y-97.8
X35.392Y-98.8
X35.392Y-99.8
X35.392Y-100.8
X36.392Y-96.8
X36.392Y-97.8
X36.392Y-98.8
X36.392Y-99.8
X36.392Y-100.8
X37.392Y-96.8
X37.392Y-97.8
X37.392Y-98.8
X37.392Y-99.8
X37.392Y-100.8
X38.392Y-96.8
X38.392Y-97.8
X38.392Y-98.8
X38.392Y-99.8
X38.392Y-100.8
X112.392Y-110.902
X73.61Y-172.84
X46.392Y-110.902
X92.58Y-161.156
X90.802Y-153.282
X100.392Y-146.8
X100.392Y-147.8
X100.392Y-148.8
X100.392Y-149.8
X100.392Y-150.8
X101.392Y-146.8
X101.392Y-147.8
X101.392Y-148.8
X101.392Y-149.8
X101.392Y-150.8
X102.392Y-146.8
X102.392Y-147.8
X102.392Y-148.8
X102.392Y-149.8
X102.392Y-150.8
X103.392Y-146.8
X103.392Y-147.8
X103.392Y-148.8
X103.392Y-149.8
X103.392Y-150.8
X104.392Y-146.8
X104.392Y-147.8
X104.392Y-148.8
X104.392Y-149.8
X104.392Y-150.8
X47.916Y-103.028
X61.104Y-121.57
X57.04Y-94.9
X64.66Y-118.014
X92.58Y-111.156
X94.104Y-171.57
X67.392Y-96.8
X67.392Y-97.8
X67.392Y-98.8
X67.392Y-99.8
X67.392Y-100.8
X68.392Y-96.8
X68.392Y-97.8
X68.392Y-98.8
X68.392Y-99.8
X68.392Y-100.8
X69.392Y-96.8
X69.392Y-97.8
X69.392Y-98.8
X69.392Y-99.8
X69.392Y-100.8
X70.392Y-96.8
X70.392Y-97.8
X70.392Y-98.8
X70.392Y-99.8
X70.392Y-100.8
X71.392Y-96.8
X71.392Y-97.8
X71.392Y-98.8
X71.392Y-99.8
X71.392Y-100.8
X28.104Y-171.57
X31.66Y-168.014
X61.104Y-171.57
X113.916Y-153.028
X28.104Y-121.57
X57.802Y-153.282
X31.66Y-118.014
X64.66Y-168.014
X103.248Y-174.618
X110.106Y-172.84
X34.392Y-146.8
X34.392Y-147.8
X34.392Y-148.8
X34.392Y-149.8
X34.392Y-150.8
X35.392Y-146.8
X35.392Y-147.8
X35.392Y-148.8
X35.392Y-149.8
X35.392Y-150.8
X36.392Y-146.8
X36.392Y-147.8
X36.392Y-148.8
X36.392Y-149.8
X36.392Y-150.8
X37.392Y-146.8
X37.392Y-147.8
X37.392Y-148.8
X37.392Y-149.8
X37.392Y-150.8
X38.392Y-146.8
X38.392Y-147.8
X38.392Y-148.8
X38.392Y-149.8
X38.392Y-150.8
X70.248Y-124.618
X100.392Y-96.8
X100.392Y-97.8
X100.392Y-98.8
X100.392Y-99.8
X100.392Y-100.8
X101.392Y-96.8
X101.392Y-97.8
X101.392Y-98.8
X101.392Y-99.8
X101.392Y-100.8
X102.392Y-96.8
X102.392Y-97.8
X102.392Y-98.8
X102.392Y-99.8
X102.392Y-100.8
X103.392Y-96.8
X103.392Y-97.8
X103.392Y-98.8
X103.392Y-99.8
X103.392Y-100.8
X104.392Y-96.8
X104.392Y-97.8
X104.392Y-98.8
X104.392Y-99.8
X104.392Y-100.8
X76.344Y-134.016
X26.58Y-111.156
X44.106Y-122.84
X109.344Y-134.016
X110.106Y-122.84
X106.61Y-122.84
X34.454Y-123.348
X40.61Y-172.84
X90.802Y-103.282
X59.58Y-111.156
X37.248Y-174.618
X103.248Y-124.618
X46.392Y-160.902
X26.58Y-161.156
X100.454Y-123.348
X79.392Y-160.902
X59.58Y-161.156
X24.04Y-144.9
X24.802Y-153.282
X37.248Y-124.618
X106.61Y-172.84
X109.344Y-184.016
X47.916Y-153.028
X43.344Y-134.016
X79.392Y-110.902
X100.454Y-173.348
X80.916Y-153.028
X73.61Y-122.84
X113.916Y-103.028
X112.392Y-160.902
X90.04Y-94.9
X94.104Y-121.57
X77.106Y-122.84
X67.454Y-123.348
X67.392Y-146.8
X67.392Y-147.8
X67.392Y-148.8
X67.392Y-149.8
X67.392Y-150.8
X68.392Y-146.8
X68.392Y-147.8
X68.392Y-148.8
X68.392Y-149.8
X68.392Y-150.8
X69.392Y-146.8
X69.392Y-147.8
X69.392Y-148.8
X69.392Y-149.8
X69.392Y-150.8
X70.392Y-146.8
X70.392Y-147.8
X70.392Y-148.8
X70.392Y-149.8
X70.392Y-150.8
X71.392Y-146.8
X71.392Y-147.8
X71.392Y-148.8
X71.392Y-149.8
X71.392Y-150.8
X90.04Y-144.9
X24.04Y-94.9
X40.61Y-122.84
X44.106Y-172.84
X57.802Y-103.282
X34.454Y-173.348
X77.106Y-172.84
T2
X39.534Y-93.63
X39.534Y-143.63
X40.804Y-114.204
X40.804Y-164.204
X42.074Y-103.79
X42.074Y-153.79
X43.344Y-105.568
X43.344Y-155.568
X72.534Y-93.63
X72.534Y-143.63
X73.804Y-114.204
X73.804Y-164.204
X75.074Y-103.79
X75.074Y-153.79
X76.344Y-105.568
X76.344Y-155.568
X105.534Y-93.63
X105.534Y-143.63
X106.804Y-114.204
X106.804Y-164.204
X108.074Y-103.79
X108.074Y-153.79
X109.344Y-105.568
X109.344Y-155.568
T3
X84.218Y-144.798
X84.218Y-147.338
X84.218Y-149.878
X84.218Y-152.418
X84.218Y-154.958
X117.218Y-94.798
X117.218Y-97.338
X117.218Y-99.878
X117.218Y-102.418
X117.218Y-104.958
X51.218Y-144.798
X51.218Y-147.338
X51.218Y-149.878
X51.218Y-152.418
X51.218Y-154.958
X84.218Y-94.798
X84.218Y-97.338
X84.218Y-99.878
X84.218Y-102.418
X84.218Y-104.958
X117.218Y-144.798
X117.218Y-147.338
X117.218Y-149.878
X117.218Y-152.418
X117.218Y-154.958
X51.218Y-94.798
X51.218Y-97.338
X51.218Y-99.878
X51.218Y-102.418
X51.218Y-104.958
T4
X49.186Y-126.174
X49.186Y-131.174
X100.24Y-186.048
X105.24Y-186.048
X24.4Y-126.182
X24.4Y-131.182
X24.4Y-165.037
X24.4Y-170.037
X24.4Y-176.182
X24.4Y-181.182
X49.186Y-165.006
X49.186Y-170.006
X57.4Y-165.037
X57.4Y-170.037
X57.4Y-176.182
X57.4Y-181.182
X82.186Y-165.006
X82.186Y-170.006
X67.24Y-186.048
X72.24Y-186.048
X82.186Y-176.174
X82.186Y-181.174
X49.186Y-115.006
X49.186Y-120.006
X57.4Y-126.182
X57.4Y-131.182
X82.186Y-115.006
X82.186Y-120.006
X82.186Y-126.174
X82.186Y-131.174
X49.186Y-176.174
X49.186Y-181.174
X57.4Y-115.037
X57.4Y-120.037
X24.4Y-115.037
X24.4Y-120.037
X67.24Y-136.048
X72.24Y-136.048
X90.4Y-115.037
X90.4Y-120.037
X90.4Y-176.182
X90.4Y-181.182
X90.4Y-165.037
X90.4Y-170.037
X90.4Y-126.182
X90.4Y-131.182
X115.186Y-115.006
X115.186Y-120.006
X115.186Y-165.006
X115.186Y-170.006
X34.24Y-186.048
X39.24Y-186.048
X115.186Y-126.174
X115.186Y-131.174
X100.24Y-136.048
X105.24Y-136.048
X115.186Y-176.174
X115.186Y-181.174
X34.24Y-136.048
X39.24Y-136.048
T5
X56.356Y-186.958
X83.356Y-136.958
X89.356Y-186.958
X23.356Y-109.958
X23.356Y-186.958
X116.356Y-159.958
X116.356Y-186.958
X56.356Y-109.958
X83.356Y-159.958
X56.356Y-136.958
X83.356Y-186.958
X23.356Y-136.958
X83.356Y-109.958
X89.356Y-109.958
X50.356Y-136.958
X89.356Y-136.958
X23.356Y-159.958
X50.356Y-109.958
X116.356Y-109.958
X50.356Y-159.958
X116.356Y-136.958
X89.356Y-159.958
X56.356Y-159.958
X50.356Y-186.958
T6
X53.356Y-107.458
X53.356Y-107.958
X53.356Y-108.458
X53.356Y-108.958
X53.356Y-109.458
X53.356Y-156.958
X53.356Y-157.458
X53.356Y-157.958
X53.356Y-158.458
X53.356Y-158.958
X101.356Y-139.958
X101.856Y-139.958
X102.356Y-139.958
X102.856Y-139.958
X103.356Y-139.958
X86.356Y-106.958
X86.356Y-107.458
X86.356Y-107.958
X86.356Y-108.458
X86.356Y-108.958
X86.356Y-107.458
X86.356Y-107.958
X86.356Y-108.458
X86.356Y-108.958
X86.356Y-109.458
X86.356Y-157.458
X86.356Y-157.958
X86.356Y-158.458
X86.356Y-158.958
X86.356Y-159.458
X102.356Y-139.958
X102.856Y-139.958
X103.356Y-139.958
X103.856Y-139.958
X104.356Y-139.958
X53.356Y-106.958
X53.356Y-107.458
X53.356Y-107.958
X53.356Y-108.458
X53.356Y-108.958
X53.356Y-157.458
X53.356Y-157.958
X53.356Y-158.458
X53.356Y-158.958
X53.356Y-159.458
X86.356Y-156.958
X86.356Y-157.458
X86.356Y-157.958
X86.356Y-158.458
X86.356Y-158.958
X69.356Y-139.958
X69.856Y-139.958
X70.356Y-139.958
X70.856Y-139.958
X71.356Y-139.958
X35.356Y-139.958
X35.856Y-139.958
X36.356Y-139.958
X36.856Y-139.958
X37.356Y-139.958
X36.356Y-139.958
X36.856Y-139.958
X37.356Y-139.958
X37.856Y-139.958
X38.356Y-139.958
X68.356Y-139.958
X68.856Y-139.958
X69.356Y-139.958
X69.856Y-139.958
X70.356Y-139.958
T0
M30
