G04 #@! TF.GenerationSoftware,KiCad,Pcbnew,no-vcs-found*
G04 #@! TF.CreationDate,2017-01-06T11:39:05+01:00*
G04 #@! TF.ProjectId,ESP32-HELP-Button-CR2032,45535033322D48454C502D427574746F,rev?*
G04 #@! TF.FileFunction,Legend,Bot*
G04 #@! TF.FilePolarity,Positive*
%FSLAX46Y46*%
G04 Gerber Fmt 4.6, Leading zero omitted, Abs format (unit mm)*
G04 Created by KiCad (PCBNEW no-vcs-found) date Fri Jan  6 11:39:05 2017*
%MOMM*%
%LPD*%
G01*
G04 APERTURE LIST*
%ADD10C,0.100000*%
%ADD11C,0.200000*%
%ADD12C,0.075000*%
%ADD13C,0.002540*%
%ADD14C,0.150000*%
%ADD15C,0.010000*%
%ADD16C,0.050000*%
G04 APERTURE END LIST*
D10*
D11*
X65792000Y-56286380D02*
X65792000Y-55286380D01*
X65411047Y-55286380D01*
X65315809Y-55334000D01*
X65268190Y-55381619D01*
X65220571Y-55476857D01*
X65220571Y-55619714D01*
X65268190Y-55714952D01*
X65315809Y-55762571D01*
X65411047Y-55810190D01*
X65792000Y-55810190D01*
X64220571Y-56286380D02*
X64553904Y-55810190D01*
X64792000Y-56286380D02*
X64792000Y-55286380D01*
X64411047Y-55286380D01*
X64315809Y-55334000D01*
X64268190Y-55381619D01*
X64220571Y-55476857D01*
X64220571Y-55619714D01*
X64268190Y-55714952D01*
X64315809Y-55762571D01*
X64411047Y-55810190D01*
X64792000Y-55810190D01*
X63601523Y-55286380D02*
X63411047Y-55286380D01*
X63315809Y-55334000D01*
X63220571Y-55429238D01*
X63172952Y-55619714D01*
X63172952Y-55953047D01*
X63220571Y-56143523D01*
X63315809Y-56238761D01*
X63411047Y-56286380D01*
X63601523Y-56286380D01*
X63696761Y-56238761D01*
X63792000Y-56143523D01*
X63839619Y-55953047D01*
X63839619Y-55619714D01*
X63792000Y-55429238D01*
X63696761Y-55334000D01*
X63601523Y-55286380D01*
X62220571Y-55334000D02*
X62315809Y-55286380D01*
X62458666Y-55286380D01*
X62601523Y-55334000D01*
X62696761Y-55429238D01*
X62744380Y-55524476D01*
X62792000Y-55714952D01*
X62792000Y-55857809D01*
X62744380Y-56048285D01*
X62696761Y-56143523D01*
X62601523Y-56238761D01*
X62458666Y-56286380D01*
X62363428Y-56286380D01*
X62220571Y-56238761D01*
X62172952Y-56191142D01*
X62172952Y-55857809D01*
X62363428Y-55857809D01*
X61744380Y-55905428D02*
X60982476Y-55905428D01*
X60506285Y-56286380D02*
X60506285Y-55286380D01*
X60506285Y-55762571D02*
X59934857Y-55762571D01*
X59934857Y-56286380D02*
X59934857Y-55286380D01*
X59077714Y-56238761D02*
X59172952Y-56286380D01*
X59363428Y-56286380D01*
X59458666Y-56238761D01*
X59506285Y-56143523D01*
X59506285Y-55762571D01*
X59458666Y-55667333D01*
X59363428Y-55619714D01*
X59172952Y-55619714D01*
X59077714Y-55667333D01*
X59030095Y-55762571D01*
X59030095Y-55857809D01*
X59506285Y-55953047D01*
X58172952Y-56286380D02*
X58172952Y-55762571D01*
X58220571Y-55667333D01*
X58315809Y-55619714D01*
X58506285Y-55619714D01*
X58601523Y-55667333D01*
X58172952Y-56238761D02*
X58268190Y-56286380D01*
X58506285Y-56286380D01*
X58601523Y-56238761D01*
X58649142Y-56143523D01*
X58649142Y-56048285D01*
X58601523Y-55953047D01*
X58506285Y-55905428D01*
X58268190Y-55905428D01*
X58172952Y-55857809D01*
X57268190Y-56286380D02*
X57268190Y-55286380D01*
X57268190Y-56238761D02*
X57363428Y-56286380D01*
X57553904Y-56286380D01*
X57649142Y-56238761D01*
X57696761Y-56191142D01*
X57744380Y-56095904D01*
X57744380Y-55810190D01*
X57696761Y-55714952D01*
X57649142Y-55667333D01*
X57553904Y-55619714D01*
X57363428Y-55619714D01*
X57268190Y-55667333D01*
X56411047Y-56238761D02*
X56506285Y-56286380D01*
X56696761Y-56286380D01*
X56792000Y-56238761D01*
X56839619Y-56143523D01*
X56839619Y-55762571D01*
X56792000Y-55667333D01*
X56696761Y-55619714D01*
X56506285Y-55619714D01*
X56411047Y-55667333D01*
X56363428Y-55762571D01*
X56363428Y-55857809D01*
X56839619Y-55953047D01*
X55934857Y-56286380D02*
X55934857Y-55619714D01*
X55934857Y-55810190D02*
X55887238Y-55714952D01*
X55839619Y-55667333D01*
X55744380Y-55619714D01*
X55649142Y-55619714D01*
X35042285Y-59207380D02*
X35375619Y-58731190D01*
X35613714Y-59207380D02*
X35613714Y-58207380D01*
X35232761Y-58207380D01*
X35137523Y-58255000D01*
X35089904Y-58302619D01*
X35042285Y-58397857D01*
X35042285Y-58540714D01*
X35089904Y-58635952D01*
X35137523Y-58683571D01*
X35232761Y-58731190D01*
X35613714Y-58731190D01*
X34613714Y-58683571D02*
X34280380Y-58683571D01*
X34137523Y-59207380D02*
X34613714Y-59207380D01*
X34613714Y-58207380D01*
X34137523Y-58207380D01*
X33375619Y-58683571D02*
X33708952Y-58683571D01*
X33708952Y-59207380D02*
X33708952Y-58207380D01*
X33232761Y-58207380D01*
X31566095Y-59207380D02*
X32137523Y-59207380D01*
X31851809Y-59207380D02*
X31851809Y-58207380D01*
X31947047Y-58350238D01*
X32042285Y-58445476D01*
X32137523Y-58493095D01*
X29851809Y-59207380D02*
X30423238Y-59207380D01*
X30137523Y-59207380D02*
X30137523Y-58207380D01*
X30232761Y-58350238D01*
X30328000Y-58445476D01*
X30423238Y-58493095D01*
X29518476Y-58207380D02*
X28851809Y-58207380D01*
X29280380Y-59207380D01*
X28280380Y-58207380D02*
X28185142Y-58207380D01*
X28089904Y-58255000D01*
X28042285Y-58302619D01*
X27994666Y-58397857D01*
X27947047Y-58588333D01*
X27947047Y-58826428D01*
X27994666Y-59016904D01*
X28042285Y-59112142D01*
X28089904Y-59159761D01*
X28185142Y-59207380D01*
X28280380Y-59207380D01*
X28375619Y-59159761D01*
X28423238Y-59112142D01*
X28470857Y-59016904D01*
X28518476Y-58826428D01*
X28518476Y-58588333D01*
X28470857Y-58397857D01*
X28423238Y-58302619D01*
X28375619Y-58255000D01*
X28280380Y-58207380D01*
X26994666Y-59207380D02*
X27566095Y-59207380D01*
X27280380Y-59207380D02*
X27280380Y-58207380D01*
X27375619Y-58350238D01*
X27470857Y-58445476D01*
X27566095Y-58493095D01*
D12*
X27771000Y-39531000D02*
X27771000Y-39991000D01*
X27681000Y-39531000D02*
X27631000Y-39531000D01*
X27731000Y-39561000D02*
X27681000Y-39531000D01*
X27751000Y-39581000D02*
X27731000Y-39561000D01*
X27771000Y-39651000D02*
X27751000Y-39581000D01*
X27331000Y-39991000D02*
X27281000Y-39961000D01*
X27431000Y-39991000D02*
X27331000Y-39991000D01*
X27471000Y-39961000D02*
X27431000Y-39991000D01*
X27491000Y-39891000D02*
X27471000Y-39961000D01*
X27491000Y-39621000D02*
X27491000Y-39891000D01*
X27461000Y-39561000D02*
X27491000Y-39621000D01*
X27421000Y-39531000D02*
X27461000Y-39561000D01*
X27321000Y-39531000D02*
X27421000Y-39531000D01*
X27281000Y-39571000D02*
X27321000Y-39531000D01*
X27261000Y-39641000D02*
X27281000Y-39571000D01*
X27261000Y-39761000D02*
X27261000Y-39641000D01*
X27261000Y-39761000D02*
X27491000Y-39761000D01*
X28011000Y-39621000D02*
X28011000Y-39991000D01*
X28041000Y-39561000D02*
X28011000Y-39621000D01*
X28081000Y-39531000D02*
X28041000Y-39561000D01*
X28181000Y-39531000D02*
X28081000Y-39531000D01*
X28231000Y-39561000D02*
X28181000Y-39531000D01*
X28171000Y-39721000D02*
X28221000Y-39751000D01*
X28051000Y-39721000D02*
X28171000Y-39721000D01*
X28011000Y-39691000D02*
X28051000Y-39721000D01*
X28061000Y-39991000D02*
X28011000Y-39951000D01*
X28181000Y-39991000D02*
X28061000Y-39991000D01*
X28231000Y-39951000D02*
X28181000Y-39991000D01*
X28251000Y-39891000D02*
X28231000Y-39951000D01*
X28251000Y-39821000D02*
X28251000Y-39891000D01*
X28221000Y-39751000D02*
X28251000Y-39821000D01*
X28801000Y-39531000D02*
X28701000Y-39991000D01*
X28701000Y-39991000D02*
X28611000Y-39651000D01*
X28611000Y-39651000D02*
X28511000Y-39991000D01*
X28511000Y-39991000D02*
X28411000Y-39531000D01*
X28991000Y-39961000D02*
X29031000Y-39991000D01*
X29031000Y-39991000D02*
X29141000Y-39991000D01*
X29141000Y-39991000D02*
X29181000Y-39961000D01*
X29181000Y-39961000D02*
X29201000Y-39931000D01*
X29201000Y-39931000D02*
X29231000Y-39861000D01*
X29231000Y-39861000D02*
X29231000Y-39661000D01*
X29231000Y-39661000D02*
X29201000Y-39591000D01*
X29201000Y-39591000D02*
X29181000Y-39561000D01*
X29181000Y-39561000D02*
X29121000Y-39521000D01*
X29121000Y-39521000D02*
X29051000Y-39521000D01*
X29051000Y-39521000D02*
X28991000Y-39561000D01*
X28991000Y-39291000D02*
X28991000Y-39991000D01*
X29511000Y-39651000D02*
X29491000Y-39581000D01*
X29491000Y-39581000D02*
X29471000Y-39561000D01*
X29471000Y-39561000D02*
X29421000Y-39531000D01*
X29421000Y-39531000D02*
X29371000Y-39531000D01*
X29511000Y-39531000D02*
X29511000Y-39991000D01*
X29961000Y-39751000D02*
X29991000Y-39821000D01*
X29991000Y-39821000D02*
X29991000Y-39891000D01*
X29991000Y-39891000D02*
X29971000Y-39951000D01*
X29971000Y-39951000D02*
X29921000Y-39991000D01*
X29921000Y-39991000D02*
X29801000Y-39991000D01*
X29801000Y-39991000D02*
X29751000Y-39951000D01*
X29751000Y-39691000D02*
X29791000Y-39721000D01*
X29791000Y-39721000D02*
X29911000Y-39721000D01*
X29911000Y-39721000D02*
X29961000Y-39751000D01*
X29971000Y-39561000D02*
X29921000Y-39531000D01*
X29921000Y-39531000D02*
X29821000Y-39531000D01*
X29821000Y-39531000D02*
X29781000Y-39561000D01*
X29781000Y-39561000D02*
X29751000Y-39621000D01*
X29751000Y-39621000D02*
X29751000Y-39991000D01*
X30421000Y-39601000D02*
X30401000Y-39561000D01*
X30401000Y-39561000D02*
X30351000Y-39531000D01*
X30351000Y-39531000D02*
X30271000Y-39531000D01*
X30271000Y-39531000D02*
X30231000Y-39561000D01*
X30231000Y-39561000D02*
X30211000Y-39621000D01*
X30211000Y-39621000D02*
X30211000Y-39991000D01*
X30421000Y-39291000D02*
X30421000Y-39991000D01*
X31471000Y-39761000D02*
X31701000Y-39761000D01*
X31251000Y-39591000D02*
X31231000Y-39561000D01*
X31231000Y-39561000D02*
X31191000Y-39531000D01*
X31191000Y-39531000D02*
X31101000Y-39531000D01*
X31101000Y-39531000D02*
X31061000Y-39561000D01*
X31061000Y-39561000D02*
X31041000Y-39621000D01*
X31041000Y-39621000D02*
X31041000Y-39991000D01*
X31251000Y-39531000D02*
X31251000Y-39991000D01*
X31471000Y-39761000D02*
X31471000Y-39641000D01*
X31471000Y-39641000D02*
X31491000Y-39571000D01*
X31491000Y-39571000D02*
X31531000Y-39531000D01*
X31531000Y-39531000D02*
X31631000Y-39531000D01*
X31631000Y-39531000D02*
X31671000Y-39561000D01*
X31671000Y-39561000D02*
X31701000Y-39621000D01*
X31701000Y-39621000D02*
X31701000Y-39891000D01*
X31701000Y-39891000D02*
X31681000Y-39961000D01*
X31681000Y-39961000D02*
X31641000Y-39991000D01*
X31641000Y-39991000D02*
X31541000Y-39991000D01*
X31541000Y-39991000D02*
X31491000Y-39961000D01*
X32131000Y-39561000D02*
X32091000Y-39531000D01*
X32091000Y-39531000D02*
X31991000Y-39531000D01*
X31991000Y-39531000D02*
X31951000Y-39561000D01*
X31951000Y-39561000D02*
X31921000Y-39591000D01*
X31921000Y-39591000D02*
X31901000Y-39651000D01*
X31901000Y-39651000D02*
X31901000Y-39871000D01*
X31901000Y-39871000D02*
X31921000Y-39931000D01*
X31921000Y-39931000D02*
X31941000Y-39961000D01*
X31941000Y-39961000D02*
X31981000Y-39991000D01*
X31981000Y-39991000D02*
X32081000Y-39991000D01*
X32081000Y-39991000D02*
X32131000Y-39961000D01*
X32131000Y-40231000D02*
X32131000Y-39531000D01*
X32441000Y-39531000D02*
X32521000Y-39531000D01*
X32521000Y-39531000D02*
X32561000Y-39561000D01*
X32561000Y-39561000D02*
X32581000Y-39591000D01*
X32581000Y-39591000D02*
X32611000Y-39661000D01*
X32521000Y-39991000D02*
X32441000Y-39991000D01*
X32441000Y-39991000D02*
X32391000Y-39961000D01*
X32391000Y-39961000D02*
X32371000Y-39931000D01*
X32371000Y-39931000D02*
X32351000Y-39861000D01*
X32351000Y-39861000D02*
X32351000Y-39661000D01*
X32351000Y-39661000D02*
X32371000Y-39601000D01*
X32371000Y-39601000D02*
X32391000Y-39571000D01*
X32391000Y-39571000D02*
X32441000Y-39531000D01*
X32611000Y-39661000D02*
X32611000Y-39861000D01*
X32611000Y-39861000D02*
X32591000Y-39921000D01*
X32591000Y-39921000D02*
X32571000Y-39951000D01*
X32571000Y-39951000D02*
X32521000Y-39991000D01*
D13*
G36*
X31444840Y-39156360D02*
X31419440Y-39141120D01*
X31361020Y-39105560D01*
X31277200Y-39049680D01*
X31178140Y-38983640D01*
X31079080Y-38917600D01*
X30997800Y-38864260D01*
X30941920Y-38826160D01*
X30916520Y-38813460D01*
X30903820Y-38818540D01*
X30858100Y-38841400D01*
X30789520Y-38876960D01*
X30748880Y-38897280D01*
X30687920Y-38922680D01*
X30654900Y-38930300D01*
X30649820Y-38920140D01*
X30626960Y-38871880D01*
X30591400Y-38790600D01*
X30545680Y-38681380D01*
X30489800Y-38554380D01*
X30433920Y-38419760D01*
X30375500Y-38280060D01*
X30319620Y-38145440D01*
X30271360Y-38026060D01*
X30230720Y-37929540D01*
X30205320Y-37860960D01*
X30195160Y-37833020D01*
X30197700Y-37825400D01*
X30230720Y-37794920D01*
X30284060Y-37754280D01*
X30403440Y-37657760D01*
X30520280Y-37512980D01*
X30591400Y-37347880D01*
X30614260Y-37162460D01*
X30593940Y-36992280D01*
X30527900Y-36829720D01*
X30413600Y-36682400D01*
X30273900Y-36573180D01*
X30111340Y-36504600D01*
X29931000Y-36481740D01*
X29758280Y-36502060D01*
X29590640Y-36568100D01*
X29443320Y-36679860D01*
X29379820Y-36750980D01*
X29293460Y-36900840D01*
X29245200Y-37058320D01*
X29240120Y-37098960D01*
X29247740Y-37274220D01*
X29298540Y-37444400D01*
X29392520Y-37594260D01*
X29522060Y-37718720D01*
X29537300Y-37728880D01*
X29595720Y-37774600D01*
X29636360Y-37805080D01*
X29666840Y-37830480D01*
X29443320Y-38368960D01*
X29407760Y-38452780D01*
X29346800Y-38600100D01*
X29293460Y-38727100D01*
X29250280Y-38828700D01*
X29219800Y-38894740D01*
X29207100Y-38922680D01*
X29207100Y-38925220D01*
X29186780Y-38927760D01*
X29146140Y-38912520D01*
X29069940Y-38876960D01*
X29021680Y-38851560D01*
X28963260Y-38823620D01*
X28937860Y-38813460D01*
X28915000Y-38826160D01*
X28861660Y-38861720D01*
X28780380Y-38915060D01*
X28683860Y-38978560D01*
X28592420Y-39042060D01*
X28508600Y-39097940D01*
X28447640Y-39136040D01*
X28417160Y-39153820D01*
X28412080Y-39153820D01*
X28386680Y-39138580D01*
X28338420Y-39097940D01*
X28264760Y-39029360D01*
X28160620Y-38925220D01*
X28145380Y-38909980D01*
X28059020Y-38823620D01*
X27990440Y-38749960D01*
X27944720Y-38699160D01*
X27926940Y-38676300D01*
X27926940Y-38676300D01*
X27942180Y-38645820D01*
X27980280Y-38584860D01*
X28036160Y-38498500D01*
X28104740Y-38399440D01*
X28282540Y-38140360D01*
X28186020Y-37896520D01*
X28155540Y-37820320D01*
X28117440Y-37731420D01*
X28089500Y-37665380D01*
X28074260Y-37637440D01*
X28048860Y-37627280D01*
X27980280Y-37612040D01*
X27883760Y-37591720D01*
X27769460Y-37571400D01*
X27657700Y-37551080D01*
X27558640Y-37530760D01*
X27487520Y-37518060D01*
X27454500Y-37510440D01*
X27446880Y-37505360D01*
X27439260Y-37490120D01*
X27436720Y-37457100D01*
X27434180Y-37396140D01*
X27431640Y-37302160D01*
X27431640Y-37162460D01*
X27431640Y-37147220D01*
X27434180Y-37017680D01*
X27436720Y-36911000D01*
X27439260Y-36844960D01*
X27444340Y-36817020D01*
X27444340Y-36817020D01*
X27474820Y-36809400D01*
X27545940Y-36794160D01*
X27645000Y-36776380D01*
X27764380Y-36753520D01*
X27772000Y-36750980D01*
X27888840Y-36728120D01*
X27987900Y-36707800D01*
X28059020Y-36692560D01*
X28086960Y-36682400D01*
X28094580Y-36674780D01*
X28117440Y-36629060D01*
X28150460Y-36555400D01*
X28191100Y-36466500D01*
X28229200Y-36372520D01*
X28262220Y-36288700D01*
X28285080Y-36227740D01*
X28292700Y-36199800D01*
X28290160Y-36197260D01*
X28272380Y-36169320D01*
X28231740Y-36108360D01*
X28175860Y-36024540D01*
X28107280Y-35922940D01*
X28102200Y-35915320D01*
X28033620Y-35816260D01*
X27977740Y-35729900D01*
X27942180Y-35671480D01*
X27926940Y-35643540D01*
X27926940Y-35641000D01*
X27949800Y-35610520D01*
X28000600Y-35554640D01*
X28074260Y-35478440D01*
X28160620Y-35389540D01*
X28188560Y-35364140D01*
X28287620Y-35267620D01*
X28353660Y-35206660D01*
X28396840Y-35173640D01*
X28417160Y-35166020D01*
X28417160Y-35166020D01*
X28447640Y-35183800D01*
X28511140Y-35224440D01*
X28594960Y-35282860D01*
X28696560Y-35351440D01*
X28704180Y-35356520D01*
X28803240Y-35425100D01*
X28887060Y-35480980D01*
X28945480Y-35521620D01*
X28973420Y-35536860D01*
X28975960Y-35536860D01*
X29016600Y-35524160D01*
X29087720Y-35498760D01*
X29176620Y-35465740D01*
X29268060Y-35427640D01*
X29351880Y-35392080D01*
X29415380Y-35364140D01*
X29445860Y-35346360D01*
X29445860Y-35346360D01*
X29456020Y-35310800D01*
X29473800Y-35234600D01*
X29494120Y-35133000D01*
X29519520Y-35011080D01*
X29522060Y-34990760D01*
X29544920Y-34871380D01*
X29562700Y-34772320D01*
X29577940Y-34703740D01*
X29585560Y-34675800D01*
X29600800Y-34673260D01*
X29659220Y-34668180D01*
X29748120Y-34665640D01*
X29857340Y-34665640D01*
X29969100Y-34665640D01*
X30078320Y-34668180D01*
X30172300Y-34670720D01*
X30240880Y-34675800D01*
X30268820Y-34680880D01*
X30268820Y-34683420D01*
X30278980Y-34721520D01*
X30296760Y-34795180D01*
X30317080Y-34899320D01*
X30339940Y-35021240D01*
X30345020Y-35044100D01*
X30367880Y-35160940D01*
X30388200Y-35260000D01*
X30400900Y-35326040D01*
X30408520Y-35353980D01*
X30421220Y-35359060D01*
X30469480Y-35379380D01*
X30548220Y-35412400D01*
X30647280Y-35453040D01*
X30875880Y-35544480D01*
X31157820Y-35353980D01*
X31183220Y-35336200D01*
X31284820Y-35267620D01*
X31366100Y-35211740D01*
X31424520Y-35173640D01*
X31447380Y-35160940D01*
X31449920Y-35160940D01*
X31477860Y-35186340D01*
X31533740Y-35239680D01*
X31609940Y-35313340D01*
X31698840Y-35399700D01*
X31762340Y-35465740D01*
X31841080Y-35544480D01*
X31889340Y-35597820D01*
X31917280Y-35630840D01*
X31924900Y-35651160D01*
X31922360Y-35666400D01*
X31904580Y-35694340D01*
X31863940Y-35755300D01*
X31805520Y-35841660D01*
X31736940Y-35940720D01*
X31681060Y-36024540D01*
X31620100Y-36118520D01*
X31582000Y-36184560D01*
X31566760Y-36217580D01*
X31571840Y-36230280D01*
X31589620Y-36286160D01*
X31625180Y-36369980D01*
X31665820Y-36469040D01*
X31764880Y-36690020D01*
X31909660Y-36717960D01*
X31998560Y-36735740D01*
X32120480Y-36758600D01*
X32239860Y-36781460D01*
X32422740Y-36817020D01*
X32430360Y-37492660D01*
X32402420Y-37505360D01*
X32374480Y-37512980D01*
X32305900Y-37528220D01*
X32209380Y-37548540D01*
X32092540Y-37568860D01*
X31996020Y-37586640D01*
X31896960Y-37606960D01*
X31825840Y-37619660D01*
X31795360Y-37627280D01*
X31785200Y-37637440D01*
X31762340Y-37685700D01*
X31726780Y-37761900D01*
X31686140Y-37853340D01*
X31648040Y-37947320D01*
X31612480Y-38036220D01*
X31589620Y-38102260D01*
X31579460Y-38135280D01*
X31592160Y-38163220D01*
X31630260Y-38221640D01*
X31683600Y-38302920D01*
X31752180Y-38401980D01*
X31818220Y-38498500D01*
X31876640Y-38582320D01*
X31914740Y-38643280D01*
X31932520Y-38671220D01*
X31922360Y-38689000D01*
X31884260Y-38737260D01*
X31810600Y-38813460D01*
X31698840Y-38922680D01*
X31681060Y-38940460D01*
X31594700Y-39024280D01*
X31521040Y-39092860D01*
X31467700Y-39138580D01*
X31444840Y-39156360D01*
X31444840Y-39156360D01*
G37*
X31444840Y-39156360D02*
X31419440Y-39141120D01*
X31361020Y-39105560D01*
X31277200Y-39049680D01*
X31178140Y-38983640D01*
X31079080Y-38917600D01*
X30997800Y-38864260D01*
X30941920Y-38826160D01*
X30916520Y-38813460D01*
X30903820Y-38818540D01*
X30858100Y-38841400D01*
X30789520Y-38876960D01*
X30748880Y-38897280D01*
X30687920Y-38922680D01*
X30654900Y-38930300D01*
X30649820Y-38920140D01*
X30626960Y-38871880D01*
X30591400Y-38790600D01*
X30545680Y-38681380D01*
X30489800Y-38554380D01*
X30433920Y-38419760D01*
X30375500Y-38280060D01*
X30319620Y-38145440D01*
X30271360Y-38026060D01*
X30230720Y-37929540D01*
X30205320Y-37860960D01*
X30195160Y-37833020D01*
X30197700Y-37825400D01*
X30230720Y-37794920D01*
X30284060Y-37754280D01*
X30403440Y-37657760D01*
X30520280Y-37512980D01*
X30591400Y-37347880D01*
X30614260Y-37162460D01*
X30593940Y-36992280D01*
X30527900Y-36829720D01*
X30413600Y-36682400D01*
X30273900Y-36573180D01*
X30111340Y-36504600D01*
X29931000Y-36481740D01*
X29758280Y-36502060D01*
X29590640Y-36568100D01*
X29443320Y-36679860D01*
X29379820Y-36750980D01*
X29293460Y-36900840D01*
X29245200Y-37058320D01*
X29240120Y-37098960D01*
X29247740Y-37274220D01*
X29298540Y-37444400D01*
X29392520Y-37594260D01*
X29522060Y-37718720D01*
X29537300Y-37728880D01*
X29595720Y-37774600D01*
X29636360Y-37805080D01*
X29666840Y-37830480D01*
X29443320Y-38368960D01*
X29407760Y-38452780D01*
X29346800Y-38600100D01*
X29293460Y-38727100D01*
X29250280Y-38828700D01*
X29219800Y-38894740D01*
X29207100Y-38922680D01*
X29207100Y-38925220D01*
X29186780Y-38927760D01*
X29146140Y-38912520D01*
X29069940Y-38876960D01*
X29021680Y-38851560D01*
X28963260Y-38823620D01*
X28937860Y-38813460D01*
X28915000Y-38826160D01*
X28861660Y-38861720D01*
X28780380Y-38915060D01*
X28683860Y-38978560D01*
X28592420Y-39042060D01*
X28508600Y-39097940D01*
X28447640Y-39136040D01*
X28417160Y-39153820D01*
X28412080Y-39153820D01*
X28386680Y-39138580D01*
X28338420Y-39097940D01*
X28264760Y-39029360D01*
X28160620Y-38925220D01*
X28145380Y-38909980D01*
X28059020Y-38823620D01*
X27990440Y-38749960D01*
X27944720Y-38699160D01*
X27926940Y-38676300D01*
X27926940Y-38676300D01*
X27942180Y-38645820D01*
X27980280Y-38584860D01*
X28036160Y-38498500D01*
X28104740Y-38399440D01*
X28282540Y-38140360D01*
X28186020Y-37896520D01*
X28155540Y-37820320D01*
X28117440Y-37731420D01*
X28089500Y-37665380D01*
X28074260Y-37637440D01*
X28048860Y-37627280D01*
X27980280Y-37612040D01*
X27883760Y-37591720D01*
X27769460Y-37571400D01*
X27657700Y-37551080D01*
X27558640Y-37530760D01*
X27487520Y-37518060D01*
X27454500Y-37510440D01*
X27446880Y-37505360D01*
X27439260Y-37490120D01*
X27436720Y-37457100D01*
X27434180Y-37396140D01*
X27431640Y-37302160D01*
X27431640Y-37162460D01*
X27431640Y-37147220D01*
X27434180Y-37017680D01*
X27436720Y-36911000D01*
X27439260Y-36844960D01*
X27444340Y-36817020D01*
X27444340Y-36817020D01*
X27474820Y-36809400D01*
X27545940Y-36794160D01*
X27645000Y-36776380D01*
X27764380Y-36753520D01*
X27772000Y-36750980D01*
X27888840Y-36728120D01*
X27987900Y-36707800D01*
X28059020Y-36692560D01*
X28086960Y-36682400D01*
X28094580Y-36674780D01*
X28117440Y-36629060D01*
X28150460Y-36555400D01*
X28191100Y-36466500D01*
X28229200Y-36372520D01*
X28262220Y-36288700D01*
X28285080Y-36227740D01*
X28292700Y-36199800D01*
X28290160Y-36197260D01*
X28272380Y-36169320D01*
X28231740Y-36108360D01*
X28175860Y-36024540D01*
X28107280Y-35922940D01*
X28102200Y-35915320D01*
X28033620Y-35816260D01*
X27977740Y-35729900D01*
X27942180Y-35671480D01*
X27926940Y-35643540D01*
X27926940Y-35641000D01*
X27949800Y-35610520D01*
X28000600Y-35554640D01*
X28074260Y-35478440D01*
X28160620Y-35389540D01*
X28188560Y-35364140D01*
X28287620Y-35267620D01*
X28353660Y-35206660D01*
X28396840Y-35173640D01*
X28417160Y-35166020D01*
X28417160Y-35166020D01*
X28447640Y-35183800D01*
X28511140Y-35224440D01*
X28594960Y-35282860D01*
X28696560Y-35351440D01*
X28704180Y-35356520D01*
X28803240Y-35425100D01*
X28887060Y-35480980D01*
X28945480Y-35521620D01*
X28973420Y-35536860D01*
X28975960Y-35536860D01*
X29016600Y-35524160D01*
X29087720Y-35498760D01*
X29176620Y-35465740D01*
X29268060Y-35427640D01*
X29351880Y-35392080D01*
X29415380Y-35364140D01*
X29445860Y-35346360D01*
X29445860Y-35346360D01*
X29456020Y-35310800D01*
X29473800Y-35234600D01*
X29494120Y-35133000D01*
X29519520Y-35011080D01*
X29522060Y-34990760D01*
X29544920Y-34871380D01*
X29562700Y-34772320D01*
X29577940Y-34703740D01*
X29585560Y-34675800D01*
X29600800Y-34673260D01*
X29659220Y-34668180D01*
X29748120Y-34665640D01*
X29857340Y-34665640D01*
X29969100Y-34665640D01*
X30078320Y-34668180D01*
X30172300Y-34670720D01*
X30240880Y-34675800D01*
X30268820Y-34680880D01*
X30268820Y-34683420D01*
X30278980Y-34721520D01*
X30296760Y-34795180D01*
X30317080Y-34899320D01*
X30339940Y-35021240D01*
X30345020Y-35044100D01*
X30367880Y-35160940D01*
X30388200Y-35260000D01*
X30400900Y-35326040D01*
X30408520Y-35353980D01*
X30421220Y-35359060D01*
X30469480Y-35379380D01*
X30548220Y-35412400D01*
X30647280Y-35453040D01*
X30875880Y-35544480D01*
X31157820Y-35353980D01*
X31183220Y-35336200D01*
X31284820Y-35267620D01*
X31366100Y-35211740D01*
X31424520Y-35173640D01*
X31447380Y-35160940D01*
X31449920Y-35160940D01*
X31477860Y-35186340D01*
X31533740Y-35239680D01*
X31609940Y-35313340D01*
X31698840Y-35399700D01*
X31762340Y-35465740D01*
X31841080Y-35544480D01*
X31889340Y-35597820D01*
X31917280Y-35630840D01*
X31924900Y-35651160D01*
X31922360Y-35666400D01*
X31904580Y-35694340D01*
X31863940Y-35755300D01*
X31805520Y-35841660D01*
X31736940Y-35940720D01*
X31681060Y-36024540D01*
X31620100Y-36118520D01*
X31582000Y-36184560D01*
X31566760Y-36217580D01*
X31571840Y-36230280D01*
X31589620Y-36286160D01*
X31625180Y-36369980D01*
X31665820Y-36469040D01*
X31764880Y-36690020D01*
X31909660Y-36717960D01*
X31998560Y-36735740D01*
X32120480Y-36758600D01*
X32239860Y-36781460D01*
X32422740Y-36817020D01*
X32430360Y-37492660D01*
X32402420Y-37505360D01*
X32374480Y-37512980D01*
X32305900Y-37528220D01*
X32209380Y-37548540D01*
X32092540Y-37568860D01*
X31996020Y-37586640D01*
X31896960Y-37606960D01*
X31825840Y-37619660D01*
X31795360Y-37627280D01*
X31785200Y-37637440D01*
X31762340Y-37685700D01*
X31726780Y-37761900D01*
X31686140Y-37853340D01*
X31648040Y-37947320D01*
X31612480Y-38036220D01*
X31589620Y-38102260D01*
X31579460Y-38135280D01*
X31592160Y-38163220D01*
X31630260Y-38221640D01*
X31683600Y-38302920D01*
X31752180Y-38401980D01*
X31818220Y-38498500D01*
X31876640Y-38582320D01*
X31914740Y-38643280D01*
X31932520Y-38671220D01*
X31922360Y-38689000D01*
X31884260Y-38737260D01*
X31810600Y-38813460D01*
X31698840Y-38922680D01*
X31681060Y-38940460D01*
X31594700Y-39024280D01*
X31521040Y-39092860D01*
X31467700Y-39138580D01*
X31444840Y-39156360D01*
D14*
X31504000Y-51810000D02*
X31504000Y-52210000D01*
X30904000Y-51810000D02*
X30904000Y-52210000D01*
X30304000Y-51810000D02*
X30304000Y-52210000D01*
X29704000Y-51810000D02*
X29704000Y-52210000D01*
X29104000Y-51810000D02*
X29104000Y-52210000D01*
X28504000Y-51810000D02*
X28504000Y-52210000D01*
X27904000Y-51810000D02*
X27904000Y-52210000D01*
X27204000Y-56910000D02*
X32404000Y-56910000D01*
X27204000Y-51710000D02*
X32404000Y-51710000D01*
X27904000Y-56410000D02*
X27904000Y-56810000D01*
X28504000Y-56410000D02*
X28504000Y-56810000D01*
X29104000Y-56410000D02*
X29104000Y-56810000D01*
X29704000Y-56410000D02*
X29704000Y-56810000D01*
X30304000Y-56410000D02*
X30304000Y-56810000D01*
X30904000Y-56410000D02*
X30904000Y-56810000D01*
X31504000Y-56410000D02*
X31504000Y-56810000D01*
X27204000Y-56110000D02*
X27604000Y-56110000D01*
X27204000Y-55510000D02*
X27604000Y-55510000D01*
X27204000Y-54910000D02*
X27604000Y-54910000D01*
X27204000Y-54310000D02*
X27604000Y-54310000D01*
X27204000Y-53710000D02*
X27604000Y-53710000D01*
X27204000Y-53110000D02*
X27604000Y-53110000D01*
X27204000Y-52510000D02*
X27604000Y-52510000D01*
X32004000Y-52510000D02*
X32404000Y-52510000D01*
X32004000Y-53110000D02*
X32404000Y-53110000D01*
X32004000Y-53710000D02*
X32404000Y-53710000D01*
X32004000Y-54310000D02*
X32404000Y-54310000D01*
X32004000Y-54910000D02*
X32404000Y-54910000D01*
X32004000Y-55510000D02*
X32404000Y-55510000D01*
X32004000Y-56110000D02*
X32404000Y-56110000D01*
X32404000Y-56910000D02*
X32404000Y-51710000D01*
X27204000Y-51710000D02*
X27204000Y-56910000D01*
D15*
G36*
X70088371Y-39561066D02*
X70048889Y-39561467D01*
X69933200Y-39564259D01*
X69836311Y-39572550D01*
X69754919Y-39587232D01*
X69685723Y-39609193D01*
X69625420Y-39639322D01*
X69570708Y-39678510D01*
X69551167Y-39695532D01*
X69518750Y-39735363D01*
X69489520Y-39789413D01*
X69466991Y-39849323D01*
X69454679Y-39906739D01*
X69453400Y-39927956D01*
X69461417Y-39986769D01*
X69482899Y-40051013D01*
X69513999Y-40111821D01*
X69550866Y-40160330D01*
X69556854Y-40166182D01*
X69607579Y-40207321D01*
X69663125Y-40239435D01*
X69726696Y-40263365D01*
X69801494Y-40279953D01*
X69890722Y-40290041D01*
X69997582Y-40294469D01*
X70046528Y-40294845D01*
X70108762Y-40294545D01*
X70152528Y-40293292D01*
X70181931Y-40290554D01*
X70201079Y-40285801D01*
X70214077Y-40278501D01*
X70221045Y-40272267D01*
X70227626Y-40264694D01*
X70232788Y-40254924D01*
X70236703Y-40240340D01*
X70239543Y-40218326D01*
X70241480Y-40186264D01*
X70242684Y-40141536D01*
X70243328Y-40081526D01*
X70243583Y-40003617D01*
X70243622Y-39927956D01*
X70243870Y-39827041D01*
X70243817Y-39746427D01*
X70242857Y-39707822D01*
X70096867Y-39707822D01*
X70096867Y-40148089D01*
X70003734Y-40148004D01*
X69947693Y-40146396D01*
X69888999Y-40142256D01*
X69840028Y-40136464D01*
X69838538Y-40136226D01*
X69759392Y-40117090D01*
X69698002Y-40087287D01*
X69651305Y-40044878D01*
X69621635Y-39998961D01*
X69603353Y-39948026D01*
X69604771Y-39900200D01*
X69625988Y-39848933D01*
X69667489Y-39795899D01*
X69724998Y-39756600D01*
X69799750Y-39730331D01*
X69849708Y-39721035D01*
X69906416Y-39714507D01*
X69966519Y-39709782D01*
X70017639Y-39707817D01*
X70020667Y-39707808D01*
X70096867Y-39707822D01*
X70242857Y-39707822D01*
X70242260Y-39683851D01*
X70237998Y-39637055D01*
X70229830Y-39603778D01*
X70216556Y-39581759D01*
X70196974Y-39568739D01*
X70169883Y-39562457D01*
X70134082Y-39560653D01*
X70088371Y-39561066D01*
X70088371Y-39561066D01*
G37*
X70088371Y-39561066D02*
X70048889Y-39561467D01*
X69933200Y-39564259D01*
X69836311Y-39572550D01*
X69754919Y-39587232D01*
X69685723Y-39609193D01*
X69625420Y-39639322D01*
X69570708Y-39678510D01*
X69551167Y-39695532D01*
X69518750Y-39735363D01*
X69489520Y-39789413D01*
X69466991Y-39849323D01*
X69454679Y-39906739D01*
X69453400Y-39927956D01*
X69461417Y-39986769D01*
X69482899Y-40051013D01*
X69513999Y-40111821D01*
X69550866Y-40160330D01*
X69556854Y-40166182D01*
X69607579Y-40207321D01*
X69663125Y-40239435D01*
X69726696Y-40263365D01*
X69801494Y-40279953D01*
X69890722Y-40290041D01*
X69997582Y-40294469D01*
X70046528Y-40294845D01*
X70108762Y-40294545D01*
X70152528Y-40293292D01*
X70181931Y-40290554D01*
X70201079Y-40285801D01*
X70214077Y-40278501D01*
X70221045Y-40272267D01*
X70227626Y-40264694D01*
X70232788Y-40254924D01*
X70236703Y-40240340D01*
X70239543Y-40218326D01*
X70241480Y-40186264D01*
X70242684Y-40141536D01*
X70243328Y-40081526D01*
X70243583Y-40003617D01*
X70243622Y-39927956D01*
X70243870Y-39827041D01*
X70243817Y-39746427D01*
X70242857Y-39707822D01*
X70096867Y-39707822D01*
X70096867Y-40148089D01*
X70003734Y-40148004D01*
X69947693Y-40146396D01*
X69888999Y-40142256D01*
X69840028Y-40136464D01*
X69838538Y-40136226D01*
X69759392Y-40117090D01*
X69698002Y-40087287D01*
X69651305Y-40044878D01*
X69621635Y-39998961D01*
X69603353Y-39948026D01*
X69604771Y-39900200D01*
X69625988Y-39848933D01*
X69667489Y-39795899D01*
X69724998Y-39756600D01*
X69799750Y-39730331D01*
X69849708Y-39721035D01*
X69906416Y-39714507D01*
X69966519Y-39709782D01*
X70017639Y-39707817D01*
X70020667Y-39707808D01*
X70096867Y-39707822D01*
X70242857Y-39707822D01*
X70242260Y-39683851D01*
X70237998Y-39637055D01*
X70229830Y-39603778D01*
X70216556Y-39581759D01*
X70196974Y-39568739D01*
X70169883Y-39562457D01*
X70134082Y-39560653D01*
X70088371Y-39561066D01*
G36*
X68679794Y-39561146D02*
X68610386Y-39561518D01*
X68557997Y-39562385D01*
X68519847Y-39563946D01*
X68493159Y-39566403D01*
X68475153Y-39569957D01*
X68463049Y-39574810D01*
X68454069Y-39581161D01*
X68450818Y-39584084D01*
X68431043Y-39615142D01*
X68427482Y-39650828D01*
X68440491Y-39682510D01*
X68446506Y-39688913D01*
X68456235Y-39695121D01*
X68471901Y-39699910D01*
X68496408Y-39703514D01*
X68532661Y-39706164D01*
X68583565Y-39708095D01*
X68652026Y-39709539D01*
X68714617Y-39710418D01*
X68962334Y-39713467D01*
X68965719Y-39778378D01*
X68969105Y-39843289D01*
X68800958Y-39843289D01*
X68727959Y-39843919D01*
X68674517Y-39846553D01*
X68637628Y-39852309D01*
X68614288Y-39862304D01*
X68601494Y-39877656D01*
X68596242Y-39899482D01*
X68595445Y-39919738D01*
X68597923Y-39944592D01*
X68607277Y-39962906D01*
X68626383Y-39975637D01*
X68658118Y-39983741D01*
X68705359Y-39988176D01*
X68770983Y-39989899D01*
X68806801Y-39990045D01*
X68967978Y-39990045D01*
X68967978Y-40148089D01*
X68719622Y-40148089D01*
X68638213Y-40148202D01*
X68576342Y-40148712D01*
X68530968Y-40149870D01*
X68499054Y-40151930D01*
X68477559Y-40155146D01*
X68463443Y-40159772D01*
X68453668Y-40166059D01*
X68448689Y-40170667D01*
X68431610Y-40197560D01*
X68426111Y-40221467D01*
X68433963Y-40250667D01*
X68448689Y-40272267D01*
X68456546Y-40279066D01*
X68466688Y-40284346D01*
X68481844Y-40288298D01*
X68504741Y-40291113D01*
X68538109Y-40292982D01*
X68584675Y-40294098D01*
X68647167Y-40294651D01*
X68728314Y-40294833D01*
X68770422Y-40294845D01*
X68860598Y-40294765D01*
X68930924Y-40294398D01*
X68984129Y-40293552D01*
X69022940Y-40292036D01*
X69050087Y-40289659D01*
X69068298Y-40286229D01*
X69080300Y-40281554D01*
X69088822Y-40275444D01*
X69092156Y-40272267D01*
X69098755Y-40264670D01*
X69103927Y-40254870D01*
X69107846Y-40240239D01*
X69110684Y-40218152D01*
X69112615Y-40185982D01*
X69113812Y-40141103D01*
X69114448Y-40080889D01*
X69114697Y-40002713D01*
X69114734Y-39929923D01*
X69114700Y-39836707D01*
X69114465Y-39763431D01*
X69113830Y-39707458D01*
X69112594Y-39666151D01*
X69110556Y-39636872D01*
X69107517Y-39616984D01*
X69103277Y-39603850D01*
X69097635Y-39594832D01*
X69090391Y-39587293D01*
X69088606Y-39585612D01*
X69079945Y-39578172D01*
X69069882Y-39572409D01*
X69055625Y-39568112D01*
X69034383Y-39565064D01*
X69003364Y-39563051D01*
X68959777Y-39561860D01*
X68900831Y-39561275D01*
X68823734Y-39561083D01*
X68769001Y-39561067D01*
X68679794Y-39561146D01*
X68679794Y-39561146D01*
G37*
X68679794Y-39561146D02*
X68610386Y-39561518D01*
X68557997Y-39562385D01*
X68519847Y-39563946D01*
X68493159Y-39566403D01*
X68475153Y-39569957D01*
X68463049Y-39574810D01*
X68454069Y-39581161D01*
X68450818Y-39584084D01*
X68431043Y-39615142D01*
X68427482Y-39650828D01*
X68440491Y-39682510D01*
X68446506Y-39688913D01*
X68456235Y-39695121D01*
X68471901Y-39699910D01*
X68496408Y-39703514D01*
X68532661Y-39706164D01*
X68583565Y-39708095D01*
X68652026Y-39709539D01*
X68714617Y-39710418D01*
X68962334Y-39713467D01*
X68965719Y-39778378D01*
X68969105Y-39843289D01*
X68800958Y-39843289D01*
X68727959Y-39843919D01*
X68674517Y-39846553D01*
X68637628Y-39852309D01*
X68614288Y-39862304D01*
X68601494Y-39877656D01*
X68596242Y-39899482D01*
X68595445Y-39919738D01*
X68597923Y-39944592D01*
X68607277Y-39962906D01*
X68626383Y-39975637D01*
X68658118Y-39983741D01*
X68705359Y-39988176D01*
X68770983Y-39989899D01*
X68806801Y-39990045D01*
X68967978Y-39990045D01*
X68967978Y-40148089D01*
X68719622Y-40148089D01*
X68638213Y-40148202D01*
X68576342Y-40148712D01*
X68530968Y-40149870D01*
X68499054Y-40151930D01*
X68477559Y-40155146D01*
X68463443Y-40159772D01*
X68453668Y-40166059D01*
X68448689Y-40170667D01*
X68431610Y-40197560D01*
X68426111Y-40221467D01*
X68433963Y-40250667D01*
X68448689Y-40272267D01*
X68456546Y-40279066D01*
X68466688Y-40284346D01*
X68481844Y-40288298D01*
X68504741Y-40291113D01*
X68538109Y-40292982D01*
X68584675Y-40294098D01*
X68647167Y-40294651D01*
X68728314Y-40294833D01*
X68770422Y-40294845D01*
X68860598Y-40294765D01*
X68930924Y-40294398D01*
X68984129Y-40293552D01*
X69022940Y-40292036D01*
X69050087Y-40289659D01*
X69068298Y-40286229D01*
X69080300Y-40281554D01*
X69088822Y-40275444D01*
X69092156Y-40272267D01*
X69098755Y-40264670D01*
X69103927Y-40254870D01*
X69107846Y-40240239D01*
X69110684Y-40218152D01*
X69112615Y-40185982D01*
X69113812Y-40141103D01*
X69114448Y-40080889D01*
X69114697Y-40002713D01*
X69114734Y-39929923D01*
X69114700Y-39836707D01*
X69114465Y-39763431D01*
X69113830Y-39707458D01*
X69112594Y-39666151D01*
X69110556Y-39636872D01*
X69107517Y-39616984D01*
X69103277Y-39603850D01*
X69097635Y-39594832D01*
X69090391Y-39587293D01*
X69088606Y-39585612D01*
X69079945Y-39578172D01*
X69069882Y-39572409D01*
X69055625Y-39568112D01*
X69034383Y-39565064D01*
X69003364Y-39563051D01*
X68959777Y-39561860D01*
X68900831Y-39561275D01*
X68823734Y-39561083D01*
X68769001Y-39561067D01*
X68679794Y-39561146D01*
G36*
X67658703Y-39562351D02*
X67583888Y-39567581D01*
X67514306Y-39575750D01*
X67454002Y-39586550D01*
X67407020Y-39599673D01*
X67377406Y-39614813D01*
X67372860Y-39619269D01*
X67357054Y-39653850D01*
X67361847Y-39689351D01*
X67386364Y-39719725D01*
X67387534Y-39720596D01*
X67401954Y-39729954D01*
X67417008Y-39734876D01*
X67438005Y-39735473D01*
X67470257Y-39731861D01*
X67519073Y-39724154D01*
X67523000Y-39723505D01*
X67595739Y-39714569D01*
X67674217Y-39710161D01*
X67752927Y-39710119D01*
X67826361Y-39714279D01*
X67889011Y-39722479D01*
X67935370Y-39734557D01*
X67938416Y-39735771D01*
X67972048Y-39754615D01*
X67983864Y-39773685D01*
X67974614Y-39792439D01*
X67945047Y-39810337D01*
X67895911Y-39826837D01*
X67827957Y-39841396D01*
X67782645Y-39848406D01*
X67688456Y-39861889D01*
X67613544Y-39874214D01*
X67554717Y-39886449D01*
X67508785Y-39899661D01*
X67472555Y-39914917D01*
X67442838Y-39933285D01*
X67416442Y-39955831D01*
X67395230Y-39977971D01*
X67370065Y-40008819D01*
X67357681Y-40035345D01*
X67353808Y-40068026D01*
X67353667Y-40079995D01*
X67356576Y-40119712D01*
X67368202Y-40149259D01*
X67388323Y-40175486D01*
X67429216Y-40215576D01*
X67474817Y-40246149D01*
X67528513Y-40268203D01*
X67593692Y-40282735D01*
X67673744Y-40290741D01*
X67772057Y-40293218D01*
X67788289Y-40293177D01*
X67853849Y-40291818D01*
X67918866Y-40288730D01*
X67976252Y-40284356D01*
X68018922Y-40279140D01*
X68022372Y-40278541D01*
X68064796Y-40268491D01*
X68100780Y-40255796D01*
X68121150Y-40244190D01*
X68140107Y-40213572D01*
X68141427Y-40177918D01*
X68125085Y-40146144D01*
X68121429Y-40142551D01*
X68106315Y-40131876D01*
X68087415Y-40127276D01*
X68058162Y-40128059D01*
X68022651Y-40132127D01*
X67982970Y-40135762D01*
X67927345Y-40138828D01*
X67862406Y-40141053D01*
X67794785Y-40142164D01*
X67777000Y-40142237D01*
X67709128Y-40141964D01*
X67659454Y-40140646D01*
X67623610Y-40137827D01*
X67597224Y-40133050D01*
X67575926Y-40125857D01*
X67563126Y-40119867D01*
X67535000Y-40103233D01*
X67517068Y-40088168D01*
X67514447Y-40083897D01*
X67519976Y-40066263D01*
X67546260Y-40049192D01*
X67591478Y-40033458D01*
X67653808Y-40019838D01*
X67672171Y-40016804D01*
X67768090Y-40001738D01*
X67844641Y-39989146D01*
X67904780Y-39978111D01*
X67951460Y-39967720D01*
X67987637Y-39957056D01*
X68016265Y-39945205D01*
X68040298Y-39931251D01*
X68062692Y-39914281D01*
X68086402Y-39893378D01*
X68094380Y-39886049D01*
X68122353Y-39858699D01*
X68137160Y-39837029D01*
X68142952Y-39812232D01*
X68143889Y-39780983D01*
X68133575Y-39719705D01*
X68102752Y-39667640D01*
X68051595Y-39624958D01*
X67980283Y-39591825D01*
X67929400Y-39576964D01*
X67874100Y-39567366D01*
X67807853Y-39561936D01*
X67734706Y-39560367D01*
X67658703Y-39562351D01*
X67658703Y-39562351D01*
G37*
X67658703Y-39562351D02*
X67583888Y-39567581D01*
X67514306Y-39575750D01*
X67454002Y-39586550D01*
X67407020Y-39599673D01*
X67377406Y-39614813D01*
X67372860Y-39619269D01*
X67357054Y-39653850D01*
X67361847Y-39689351D01*
X67386364Y-39719725D01*
X67387534Y-39720596D01*
X67401954Y-39729954D01*
X67417008Y-39734876D01*
X67438005Y-39735473D01*
X67470257Y-39731861D01*
X67519073Y-39724154D01*
X67523000Y-39723505D01*
X67595739Y-39714569D01*
X67674217Y-39710161D01*
X67752927Y-39710119D01*
X67826361Y-39714279D01*
X67889011Y-39722479D01*
X67935370Y-39734557D01*
X67938416Y-39735771D01*
X67972048Y-39754615D01*
X67983864Y-39773685D01*
X67974614Y-39792439D01*
X67945047Y-39810337D01*
X67895911Y-39826837D01*
X67827957Y-39841396D01*
X67782645Y-39848406D01*
X67688456Y-39861889D01*
X67613544Y-39874214D01*
X67554717Y-39886449D01*
X67508785Y-39899661D01*
X67472555Y-39914917D01*
X67442838Y-39933285D01*
X67416442Y-39955831D01*
X67395230Y-39977971D01*
X67370065Y-40008819D01*
X67357681Y-40035345D01*
X67353808Y-40068026D01*
X67353667Y-40079995D01*
X67356576Y-40119712D01*
X67368202Y-40149259D01*
X67388323Y-40175486D01*
X67429216Y-40215576D01*
X67474817Y-40246149D01*
X67528513Y-40268203D01*
X67593692Y-40282735D01*
X67673744Y-40290741D01*
X67772057Y-40293218D01*
X67788289Y-40293177D01*
X67853849Y-40291818D01*
X67918866Y-40288730D01*
X67976252Y-40284356D01*
X68018922Y-40279140D01*
X68022372Y-40278541D01*
X68064796Y-40268491D01*
X68100780Y-40255796D01*
X68121150Y-40244190D01*
X68140107Y-40213572D01*
X68141427Y-40177918D01*
X68125085Y-40146144D01*
X68121429Y-40142551D01*
X68106315Y-40131876D01*
X68087415Y-40127276D01*
X68058162Y-40128059D01*
X68022651Y-40132127D01*
X67982970Y-40135762D01*
X67927345Y-40138828D01*
X67862406Y-40141053D01*
X67794785Y-40142164D01*
X67777000Y-40142237D01*
X67709128Y-40141964D01*
X67659454Y-40140646D01*
X67623610Y-40137827D01*
X67597224Y-40133050D01*
X67575926Y-40125857D01*
X67563126Y-40119867D01*
X67535000Y-40103233D01*
X67517068Y-40088168D01*
X67514447Y-40083897D01*
X67519976Y-40066263D01*
X67546260Y-40049192D01*
X67591478Y-40033458D01*
X67653808Y-40019838D01*
X67672171Y-40016804D01*
X67768090Y-40001738D01*
X67844641Y-39989146D01*
X67904780Y-39978111D01*
X67951460Y-39967720D01*
X67987637Y-39957056D01*
X68016265Y-39945205D01*
X68040298Y-39931251D01*
X68062692Y-39914281D01*
X68086402Y-39893378D01*
X68094380Y-39886049D01*
X68122353Y-39858699D01*
X68137160Y-39837029D01*
X68142952Y-39812232D01*
X68143889Y-39780983D01*
X68133575Y-39719705D01*
X68102752Y-39667640D01*
X68051595Y-39624958D01*
X67980283Y-39591825D01*
X67929400Y-39576964D01*
X67874100Y-39567366D01*
X67807853Y-39561936D01*
X67734706Y-39560367D01*
X67658703Y-39562351D01*
G36*
X66890822Y-39583645D02*
X66884242Y-39591218D01*
X66879079Y-39600987D01*
X66875164Y-39615571D01*
X66872324Y-39637585D01*
X66870387Y-39669648D01*
X66869183Y-39714375D01*
X66868539Y-39774385D01*
X66868284Y-39852294D01*
X66868245Y-39927956D01*
X66868314Y-40021802D01*
X66868638Y-40095689D01*
X66869386Y-40152232D01*
X66870732Y-40194049D01*
X66872846Y-40223757D01*
X66875900Y-40243973D01*
X66880066Y-40257314D01*
X66885516Y-40266398D01*
X66890822Y-40272267D01*
X66923826Y-40291947D01*
X66958991Y-40290181D01*
X66990455Y-40268717D01*
X66997684Y-40260337D01*
X67003334Y-40250614D01*
X67007599Y-40236861D01*
X67010673Y-40216389D01*
X67012752Y-40186512D01*
X67014030Y-40144541D01*
X67014701Y-40087789D01*
X67014959Y-40013567D01*
X67015000Y-39929537D01*
X67015000Y-39616485D01*
X66987291Y-39588776D01*
X66953137Y-39565463D01*
X66920006Y-39564623D01*
X66890822Y-39583645D01*
X66890822Y-39583645D01*
G37*
X66890822Y-39583645D02*
X66884242Y-39591218D01*
X66879079Y-39600987D01*
X66875164Y-39615571D01*
X66872324Y-39637585D01*
X66870387Y-39669648D01*
X66869183Y-39714375D01*
X66868539Y-39774385D01*
X66868284Y-39852294D01*
X66868245Y-39927956D01*
X66868314Y-40021802D01*
X66868638Y-40095689D01*
X66869386Y-40152232D01*
X66870732Y-40194049D01*
X66872846Y-40223757D01*
X66875900Y-40243973D01*
X66880066Y-40257314D01*
X66885516Y-40266398D01*
X66890822Y-40272267D01*
X66923826Y-40291947D01*
X66958991Y-40290181D01*
X66990455Y-40268717D01*
X66997684Y-40260337D01*
X67003334Y-40250614D01*
X67007599Y-40236861D01*
X67010673Y-40216389D01*
X67012752Y-40186512D01*
X67014030Y-40144541D01*
X67014701Y-40087789D01*
X67014959Y-40013567D01*
X67015000Y-39929537D01*
X67015000Y-39616485D01*
X66987291Y-39588776D01*
X66953137Y-39565463D01*
X66920006Y-39564623D01*
X66890822Y-39583645D01*
G36*
X65917081Y-39566599D02*
X65848565Y-39578095D01*
X65795943Y-39595967D01*
X65761708Y-39619499D01*
X65752379Y-39632924D01*
X65742893Y-39664148D01*
X65749277Y-39692395D01*
X65769430Y-39719182D01*
X65800745Y-39731713D01*
X65846183Y-39730696D01*
X65881326Y-39723906D01*
X65959419Y-39710971D01*
X66039226Y-39709742D01*
X66128555Y-39720241D01*
X66153229Y-39724690D01*
X66236291Y-39748108D01*
X66301273Y-39782945D01*
X66347461Y-39828604D01*
X66374145Y-39884494D01*
X66379663Y-39913388D01*
X66376051Y-39972012D01*
X66352729Y-40023879D01*
X66311824Y-40067978D01*
X66255459Y-40103299D01*
X66185760Y-40128829D01*
X66104852Y-40143559D01*
X66014860Y-40146478D01*
X65917910Y-40136575D01*
X65912436Y-40135641D01*
X65873875Y-40128459D01*
X65852494Y-40121521D01*
X65843227Y-40111227D01*
X65841006Y-40093976D01*
X65840956Y-40084841D01*
X65840956Y-40046489D01*
X65909431Y-40046489D01*
X65969900Y-40042347D01*
X66011165Y-40029147D01*
X66035175Y-40005730D01*
X66043877Y-39970936D01*
X66043983Y-39966394D01*
X66038892Y-39936654D01*
X66021433Y-39915419D01*
X65988939Y-39901366D01*
X65938743Y-39893173D01*
X65890123Y-39890161D01*
X65819456Y-39888433D01*
X65768198Y-39891070D01*
X65733239Y-39900800D01*
X65711470Y-39920353D01*
X65699780Y-39952456D01*
X65695060Y-39999838D01*
X65694200Y-40062071D01*
X65695609Y-40131535D01*
X65699848Y-40178786D01*
X65706936Y-40204012D01*
X65708311Y-40205988D01*
X65747228Y-40237508D01*
X65804286Y-40262470D01*
X65875869Y-40280340D01*
X65958358Y-40290586D01*
X66048139Y-40292673D01*
X66141592Y-40286068D01*
X66196556Y-40277956D01*
X66282766Y-40253554D01*
X66362892Y-40213662D01*
X66429977Y-40161887D01*
X66440173Y-40151539D01*
X66473302Y-40108035D01*
X66503194Y-40054118D01*
X66526357Y-39997592D01*
X66539298Y-39946259D01*
X66540858Y-39926544D01*
X66534218Y-39885419D01*
X66516568Y-39834252D01*
X66491297Y-39780394D01*
X66461789Y-39731195D01*
X66435719Y-39698334D01*
X66374765Y-39649452D01*
X66295969Y-39610545D01*
X66202157Y-39582494D01*
X66096150Y-39566179D01*
X65999000Y-39562192D01*
X65917081Y-39566599D01*
X65917081Y-39566599D01*
G37*
X65917081Y-39566599D02*
X65848565Y-39578095D01*
X65795943Y-39595967D01*
X65761708Y-39619499D01*
X65752379Y-39632924D01*
X65742893Y-39664148D01*
X65749277Y-39692395D01*
X65769430Y-39719182D01*
X65800745Y-39731713D01*
X65846183Y-39730696D01*
X65881326Y-39723906D01*
X65959419Y-39710971D01*
X66039226Y-39709742D01*
X66128555Y-39720241D01*
X66153229Y-39724690D01*
X66236291Y-39748108D01*
X66301273Y-39782945D01*
X66347461Y-39828604D01*
X66374145Y-39884494D01*
X66379663Y-39913388D01*
X66376051Y-39972012D01*
X66352729Y-40023879D01*
X66311824Y-40067978D01*
X66255459Y-40103299D01*
X66185760Y-40128829D01*
X66104852Y-40143559D01*
X66014860Y-40146478D01*
X65917910Y-40136575D01*
X65912436Y-40135641D01*
X65873875Y-40128459D01*
X65852494Y-40121521D01*
X65843227Y-40111227D01*
X65841006Y-40093976D01*
X65840956Y-40084841D01*
X65840956Y-40046489D01*
X65909431Y-40046489D01*
X65969900Y-40042347D01*
X66011165Y-40029147D01*
X66035175Y-40005730D01*
X66043877Y-39970936D01*
X66043983Y-39966394D01*
X66038892Y-39936654D01*
X66021433Y-39915419D01*
X65988939Y-39901366D01*
X65938743Y-39893173D01*
X65890123Y-39890161D01*
X65819456Y-39888433D01*
X65768198Y-39891070D01*
X65733239Y-39900800D01*
X65711470Y-39920353D01*
X65699780Y-39952456D01*
X65695060Y-39999838D01*
X65694200Y-40062071D01*
X65695609Y-40131535D01*
X65699848Y-40178786D01*
X65706936Y-40204012D01*
X65708311Y-40205988D01*
X65747228Y-40237508D01*
X65804286Y-40262470D01*
X65875869Y-40280340D01*
X65958358Y-40290586D01*
X66048139Y-40292673D01*
X66141592Y-40286068D01*
X66196556Y-40277956D01*
X66282766Y-40253554D01*
X66362892Y-40213662D01*
X66429977Y-40161887D01*
X66440173Y-40151539D01*
X66473302Y-40108035D01*
X66503194Y-40054118D01*
X66526357Y-39997592D01*
X66539298Y-39946259D01*
X66540858Y-39926544D01*
X66534218Y-39885419D01*
X66516568Y-39834252D01*
X66491297Y-39780394D01*
X66461789Y-39731195D01*
X66435719Y-39698334D01*
X66374765Y-39649452D01*
X66295969Y-39610545D01*
X66202157Y-39582494D01*
X66096150Y-39566179D01*
X65999000Y-39562192D01*
X65917081Y-39566599D01*
G36*
X65267114Y-39565448D02*
X65243548Y-39579273D01*
X65212735Y-39601881D01*
X65173078Y-39634338D01*
X65122980Y-39677708D01*
X65060843Y-39733058D01*
X64985072Y-39801451D01*
X64898334Y-39880084D01*
X64717711Y-40043878D01*
X64712067Y-39824029D01*
X64710029Y-39748351D01*
X64708063Y-39691994D01*
X64705734Y-39651706D01*
X64702606Y-39624235D01*
X64698245Y-39606329D01*
X64692216Y-39594737D01*
X64684084Y-39586208D01*
X64679772Y-39582623D01*
X64645241Y-39563670D01*
X64612383Y-39566441D01*
X64586318Y-39582633D01*
X64559667Y-39604199D01*
X64556352Y-39919151D01*
X64555435Y-40011779D01*
X64554968Y-40084544D01*
X64555113Y-40140161D01*
X64556032Y-40181342D01*
X64557887Y-40210803D01*
X64560839Y-40231255D01*
X64565050Y-40245413D01*
X64570682Y-40255991D01*
X64576927Y-40264474D01*
X64590439Y-40280207D01*
X64603883Y-40290636D01*
X64619124Y-40294639D01*
X64638026Y-40291094D01*
X64662455Y-40278879D01*
X64694273Y-40256871D01*
X64735348Y-40223949D01*
X64787542Y-40178991D01*
X64852722Y-40120875D01*
X64926556Y-40054099D01*
X65191845Y-39813458D01*
X65197489Y-40032589D01*
X65199531Y-40108128D01*
X65201502Y-40164354D01*
X65203839Y-40204524D01*
X65206981Y-40231896D01*
X65211364Y-40249728D01*
X65217424Y-40261279D01*
X65225600Y-40269807D01*
X65229784Y-40273282D01*
X65266765Y-40292372D01*
X65301708Y-40289493D01*
X65332136Y-40265100D01*
X65339097Y-40255286D01*
X65344523Y-40243826D01*
X65348603Y-40227968D01*
X65351529Y-40204963D01*
X65353492Y-40172062D01*
X65354683Y-40126516D01*
X65355292Y-40065573D01*
X65355511Y-39986486D01*
X65355534Y-39927956D01*
X65355460Y-39836407D01*
X65355113Y-39764687D01*
X65354301Y-39710045D01*
X65352833Y-39669732D01*
X65350519Y-39640998D01*
X65347167Y-39621093D01*
X65342588Y-39607268D01*
X65336589Y-39596772D01*
X65332136Y-39590811D01*
X65320850Y-39576691D01*
X65310301Y-39566029D01*
X65298893Y-39559892D01*
X65285030Y-39559343D01*
X65267114Y-39565448D01*
X65267114Y-39565448D01*
G37*
X65267114Y-39565448D02*
X65243548Y-39579273D01*
X65212735Y-39601881D01*
X65173078Y-39634338D01*
X65122980Y-39677708D01*
X65060843Y-39733058D01*
X64985072Y-39801451D01*
X64898334Y-39880084D01*
X64717711Y-40043878D01*
X64712067Y-39824029D01*
X64710029Y-39748351D01*
X64708063Y-39691994D01*
X64705734Y-39651706D01*
X64702606Y-39624235D01*
X64698245Y-39606329D01*
X64692216Y-39594737D01*
X64684084Y-39586208D01*
X64679772Y-39582623D01*
X64645241Y-39563670D01*
X64612383Y-39566441D01*
X64586318Y-39582633D01*
X64559667Y-39604199D01*
X64556352Y-39919151D01*
X64555435Y-40011779D01*
X64554968Y-40084544D01*
X64555113Y-40140161D01*
X64556032Y-40181342D01*
X64557887Y-40210803D01*
X64560839Y-40231255D01*
X64565050Y-40245413D01*
X64570682Y-40255991D01*
X64576927Y-40264474D01*
X64590439Y-40280207D01*
X64603883Y-40290636D01*
X64619124Y-40294639D01*
X64638026Y-40291094D01*
X64662455Y-40278879D01*
X64694273Y-40256871D01*
X64735348Y-40223949D01*
X64787542Y-40178991D01*
X64852722Y-40120875D01*
X64926556Y-40054099D01*
X65191845Y-39813458D01*
X65197489Y-40032589D01*
X65199531Y-40108128D01*
X65201502Y-40164354D01*
X65203839Y-40204524D01*
X65206981Y-40231896D01*
X65211364Y-40249728D01*
X65217424Y-40261279D01*
X65225600Y-40269807D01*
X65229784Y-40273282D01*
X65266765Y-40292372D01*
X65301708Y-40289493D01*
X65332136Y-40265100D01*
X65339097Y-40255286D01*
X65344523Y-40243826D01*
X65348603Y-40227968D01*
X65351529Y-40204963D01*
X65353492Y-40172062D01*
X65354683Y-40126516D01*
X65355292Y-40065573D01*
X65355511Y-39986486D01*
X65355534Y-39927956D01*
X65355460Y-39836407D01*
X65355113Y-39764687D01*
X65354301Y-39710045D01*
X65352833Y-39669732D01*
X65350519Y-39640998D01*
X65347167Y-39621093D01*
X65342588Y-39607268D01*
X65336589Y-39596772D01*
X65332136Y-39590811D01*
X65320850Y-39576691D01*
X65310301Y-39566029D01*
X65298893Y-39559892D01*
X65285030Y-39559343D01*
X65267114Y-39565448D01*
G36*
X63736657Y-39561260D02*
X63660299Y-39562174D01*
X63601783Y-39564311D01*
X63558745Y-39568175D01*
X63528817Y-39574267D01*
X63509632Y-39583090D01*
X63498824Y-39595146D01*
X63494027Y-39610939D01*
X63492873Y-39630970D01*
X63492867Y-39633335D01*
X63493869Y-39655992D01*
X63498604Y-39673503D01*
X63509667Y-39686574D01*
X63529652Y-39695913D01*
X63561154Y-39702227D01*
X63606768Y-39706222D01*
X63669087Y-39708606D01*
X63750707Y-39710086D01*
X63775723Y-39710414D01*
X64017800Y-39713467D01*
X64021186Y-39778378D01*
X64024571Y-39843289D01*
X63856424Y-39843289D01*
X63790734Y-39843531D01*
X63743828Y-39844556D01*
X63711917Y-39846811D01*
X63691209Y-39850742D01*
X63677916Y-39856798D01*
X63668245Y-39865424D01*
X63668183Y-39865493D01*
X63650644Y-39899112D01*
X63651278Y-39935448D01*
X63669686Y-39966423D01*
X63673329Y-39969607D01*
X63686259Y-39977812D01*
X63703976Y-39983521D01*
X63730430Y-39987162D01*
X63769568Y-39989167D01*
X63825338Y-39989964D01*
X63861006Y-39990045D01*
X64023445Y-39990045D01*
X64023445Y-40148089D01*
X63776839Y-40148089D01*
X63695420Y-40148231D01*
X63633590Y-40148814D01*
X63588363Y-40150068D01*
X63556752Y-40152227D01*
X63535769Y-40155523D01*
X63522427Y-40160189D01*
X63513739Y-40166457D01*
X63511550Y-40168733D01*
X63495386Y-40200280D01*
X63494203Y-40236168D01*
X63507464Y-40267285D01*
X63517957Y-40277271D01*
X63528871Y-40282769D01*
X63545783Y-40287022D01*
X63571367Y-40290180D01*
X63608299Y-40292392D01*
X63659254Y-40293806D01*
X63726906Y-40294572D01*
X63813931Y-40294838D01*
X63833606Y-40294845D01*
X63922089Y-40294787D01*
X63990773Y-40294467D01*
X64042436Y-40293667D01*
X64079855Y-40292167D01*
X64105810Y-40289749D01*
X64123078Y-40286194D01*
X64134438Y-40281282D01*
X64142668Y-40274795D01*
X64147183Y-40270138D01*
X64153979Y-40261889D01*
X64159288Y-40251669D01*
X64163294Y-40236800D01*
X64166179Y-40214602D01*
X64168126Y-40182393D01*
X64169319Y-40137496D01*
X64169939Y-40077228D01*
X64170171Y-39998911D01*
X64170200Y-39932994D01*
X64170129Y-39840628D01*
X64169792Y-39768117D01*
X64169002Y-39712737D01*
X64167574Y-39671765D01*
X64165321Y-39642478D01*
X64162057Y-39622153D01*
X64157596Y-39608066D01*
X64151752Y-39597495D01*
X64146803Y-39590811D01*
X64123406Y-39561067D01*
X63833226Y-39561067D01*
X63736657Y-39561260D01*
X63736657Y-39561260D01*
G37*
X63736657Y-39561260D02*
X63660299Y-39562174D01*
X63601783Y-39564311D01*
X63558745Y-39568175D01*
X63528817Y-39574267D01*
X63509632Y-39583090D01*
X63498824Y-39595146D01*
X63494027Y-39610939D01*
X63492873Y-39630970D01*
X63492867Y-39633335D01*
X63493869Y-39655992D01*
X63498604Y-39673503D01*
X63509667Y-39686574D01*
X63529652Y-39695913D01*
X63561154Y-39702227D01*
X63606768Y-39706222D01*
X63669087Y-39708606D01*
X63750707Y-39710086D01*
X63775723Y-39710414D01*
X64017800Y-39713467D01*
X64021186Y-39778378D01*
X64024571Y-39843289D01*
X63856424Y-39843289D01*
X63790734Y-39843531D01*
X63743828Y-39844556D01*
X63711917Y-39846811D01*
X63691209Y-39850742D01*
X63677916Y-39856798D01*
X63668245Y-39865424D01*
X63668183Y-39865493D01*
X63650644Y-39899112D01*
X63651278Y-39935448D01*
X63669686Y-39966423D01*
X63673329Y-39969607D01*
X63686259Y-39977812D01*
X63703976Y-39983521D01*
X63730430Y-39987162D01*
X63769568Y-39989167D01*
X63825338Y-39989964D01*
X63861006Y-39990045D01*
X64023445Y-39990045D01*
X64023445Y-40148089D01*
X63776839Y-40148089D01*
X63695420Y-40148231D01*
X63633590Y-40148814D01*
X63588363Y-40150068D01*
X63556752Y-40152227D01*
X63535769Y-40155523D01*
X63522427Y-40160189D01*
X63513739Y-40166457D01*
X63511550Y-40168733D01*
X63495386Y-40200280D01*
X63494203Y-40236168D01*
X63507464Y-40267285D01*
X63517957Y-40277271D01*
X63528871Y-40282769D01*
X63545783Y-40287022D01*
X63571367Y-40290180D01*
X63608299Y-40292392D01*
X63659254Y-40293806D01*
X63726906Y-40294572D01*
X63813931Y-40294838D01*
X63833606Y-40294845D01*
X63922089Y-40294787D01*
X63990773Y-40294467D01*
X64042436Y-40293667D01*
X64079855Y-40292167D01*
X64105810Y-40289749D01*
X64123078Y-40286194D01*
X64134438Y-40281282D01*
X64142668Y-40274795D01*
X64147183Y-40270138D01*
X64153979Y-40261889D01*
X64159288Y-40251669D01*
X64163294Y-40236800D01*
X64166179Y-40214602D01*
X64168126Y-40182393D01*
X64169319Y-40137496D01*
X64169939Y-40077228D01*
X64170171Y-39998911D01*
X64170200Y-39932994D01*
X64170129Y-39840628D01*
X64169792Y-39768117D01*
X64169002Y-39712737D01*
X64167574Y-39671765D01*
X64165321Y-39642478D01*
X64162057Y-39622153D01*
X64157596Y-39608066D01*
X64151752Y-39597495D01*
X64146803Y-39590811D01*
X64123406Y-39561067D01*
X63833226Y-39561067D01*
X63736657Y-39561260D01*
G36*
X62948691Y-39561275D02*
X62819712Y-39565636D01*
X62710009Y-39578861D01*
X62617774Y-39601741D01*
X62541198Y-39635070D01*
X62478473Y-39679638D01*
X62427788Y-39736236D01*
X62387337Y-39805658D01*
X62386541Y-39807351D01*
X62362399Y-39869483D01*
X62353797Y-39924509D01*
X62360769Y-39979887D01*
X62383346Y-40043073D01*
X62387628Y-40052689D01*
X62416828Y-40108966D01*
X62449644Y-40152451D01*
X62491998Y-40189417D01*
X62549810Y-40226135D01*
X62553169Y-40228052D01*
X62603496Y-40252227D01*
X62660379Y-40270282D01*
X62727473Y-40282839D01*
X62808435Y-40290522D01*
X62906918Y-40293953D01*
X62941714Y-40294251D01*
X63107406Y-40294845D01*
X63130803Y-40265100D01*
X63137743Y-40255319D01*
X63143158Y-40243897D01*
X63147235Y-40228095D01*
X63150163Y-40205175D01*
X63152133Y-40172396D01*
X63152775Y-40148089D01*
X62996156Y-40148089D01*
X62902274Y-40148089D01*
X62847336Y-40146483D01*
X62790940Y-40142255D01*
X62744655Y-40136292D01*
X62741861Y-40135790D01*
X62659652Y-40113736D01*
X62595886Y-40080600D01*
X62548548Y-40034847D01*
X62515618Y-39974939D01*
X62509892Y-39959061D01*
X62504279Y-39934333D01*
X62506709Y-39909902D01*
X62518533Y-39877400D01*
X62525660Y-39861434D01*
X62549000Y-39819006D01*
X62577120Y-39789240D01*
X62608060Y-39768511D01*
X62670034Y-39741537D01*
X62749349Y-39721998D01*
X62841747Y-39710746D01*
X62908667Y-39708270D01*
X62996156Y-39707822D01*
X62996156Y-40148089D01*
X63152775Y-40148089D01*
X63153332Y-40127021D01*
X63153950Y-40066311D01*
X63154175Y-39987526D01*
X63154200Y-39925920D01*
X63154200Y-39616485D01*
X63126491Y-39588776D01*
X63114194Y-39577544D01*
X63100897Y-39569853D01*
X63082328Y-39565040D01*
X63054214Y-39562446D01*
X63012283Y-39561410D01*
X62952263Y-39561270D01*
X62948691Y-39561275D01*
X62948691Y-39561275D01*
G37*
X62948691Y-39561275D02*
X62819712Y-39565636D01*
X62710009Y-39578861D01*
X62617774Y-39601741D01*
X62541198Y-39635070D01*
X62478473Y-39679638D01*
X62427788Y-39736236D01*
X62387337Y-39805658D01*
X62386541Y-39807351D01*
X62362399Y-39869483D01*
X62353797Y-39924509D01*
X62360769Y-39979887D01*
X62383346Y-40043073D01*
X62387628Y-40052689D01*
X62416828Y-40108966D01*
X62449644Y-40152451D01*
X62491998Y-40189417D01*
X62549810Y-40226135D01*
X62553169Y-40228052D01*
X62603496Y-40252227D01*
X62660379Y-40270282D01*
X62727473Y-40282839D01*
X62808435Y-40290522D01*
X62906918Y-40293953D01*
X62941714Y-40294251D01*
X63107406Y-40294845D01*
X63130803Y-40265100D01*
X63137743Y-40255319D01*
X63143158Y-40243897D01*
X63147235Y-40228095D01*
X63150163Y-40205175D01*
X63152133Y-40172396D01*
X63152775Y-40148089D01*
X62996156Y-40148089D01*
X62902274Y-40148089D01*
X62847336Y-40146483D01*
X62790940Y-40142255D01*
X62744655Y-40136292D01*
X62741861Y-40135790D01*
X62659652Y-40113736D01*
X62595886Y-40080600D01*
X62548548Y-40034847D01*
X62515618Y-39974939D01*
X62509892Y-39959061D01*
X62504279Y-39934333D01*
X62506709Y-39909902D01*
X62518533Y-39877400D01*
X62525660Y-39861434D01*
X62549000Y-39819006D01*
X62577120Y-39789240D01*
X62608060Y-39768511D01*
X62670034Y-39741537D01*
X62749349Y-39721998D01*
X62841747Y-39710746D01*
X62908667Y-39708270D01*
X62996156Y-39707822D01*
X62996156Y-40148089D01*
X63152775Y-40148089D01*
X63153332Y-40127021D01*
X63153950Y-40066311D01*
X63154175Y-39987526D01*
X63154200Y-39925920D01*
X63154200Y-39616485D01*
X63126491Y-39588776D01*
X63114194Y-39577544D01*
X63100897Y-39569853D01*
X63082328Y-39565040D01*
X63054214Y-39562446D01*
X63012283Y-39561410D01*
X62952263Y-39561270D01*
X62948691Y-39561275D01*
G36*
X60222335Y-39563034D02*
X60202745Y-39570035D01*
X60201990Y-39570377D01*
X60175387Y-39590678D01*
X60160730Y-39611561D01*
X60157862Y-39621352D01*
X60158004Y-39634361D01*
X60162039Y-39652895D01*
X60170854Y-39679257D01*
X60185331Y-39715752D01*
X60206355Y-39764687D01*
X60234812Y-39828365D01*
X60271585Y-39909093D01*
X60291825Y-39953216D01*
X60328375Y-40031985D01*
X60362685Y-40104423D01*
X60393448Y-40167880D01*
X60419352Y-40219708D01*
X60439090Y-40257259D01*
X60451350Y-40277884D01*
X60453776Y-40280733D01*
X60484817Y-40293302D01*
X60519879Y-40291619D01*
X60548000Y-40276332D01*
X60549146Y-40275089D01*
X60560332Y-40258154D01*
X60579096Y-40225170D01*
X60603125Y-40180380D01*
X60630103Y-40128032D01*
X60639799Y-40108742D01*
X60712986Y-39962150D01*
X60792760Y-40121393D01*
X60821233Y-40176415D01*
X60847650Y-40224132D01*
X60869852Y-40260893D01*
X60885681Y-40283044D01*
X60891046Y-40287741D01*
X60932743Y-40294102D01*
X60967151Y-40280733D01*
X60977272Y-40266446D01*
X60994786Y-40234692D01*
X61018265Y-40188597D01*
X61046280Y-40131285D01*
X61077401Y-40065880D01*
X61110201Y-39995507D01*
X61143250Y-39923291D01*
X61175119Y-39852355D01*
X61204381Y-39785825D01*
X61229605Y-39726826D01*
X61249364Y-39678481D01*
X61262228Y-39643915D01*
X61266769Y-39626253D01*
X61266723Y-39625613D01*
X61255674Y-39603388D01*
X61233590Y-39580753D01*
X61232290Y-39579768D01*
X61205147Y-39564425D01*
X61180042Y-39564574D01*
X61170632Y-39567466D01*
X61159166Y-39573718D01*
X61146990Y-39586014D01*
X61132643Y-39606908D01*
X61114664Y-39638949D01*
X61091593Y-39684688D01*
X61061970Y-39746677D01*
X61035255Y-39803898D01*
X61004520Y-39870226D01*
X60976979Y-39929874D01*
X60954062Y-39979725D01*
X60937202Y-40016664D01*
X60927827Y-40037573D01*
X60926460Y-40040845D01*
X60920311Y-40035497D01*
X60906178Y-40013109D01*
X60885943Y-39976946D01*
X60861485Y-39930277D01*
X60851752Y-39911022D01*
X60818783Y-39846004D01*
X60793357Y-39798654D01*
X60773388Y-39766219D01*
X60756790Y-39745946D01*
X60741476Y-39735082D01*
X60725360Y-39730875D01*
X60714857Y-39730400D01*
X60696330Y-39732042D01*
X60680096Y-39738831D01*
X60663965Y-39753566D01*
X60645749Y-39779044D01*
X60623261Y-39818061D01*
X60594311Y-39873414D01*
X60578338Y-39904903D01*
X60552430Y-39955087D01*
X60529833Y-39996704D01*
X60512542Y-40026242D01*
X60502550Y-40040189D01*
X60501191Y-40040770D01*
X60494739Y-40029793D01*
X60480292Y-40001290D01*
X60459297Y-39958244D01*
X60433203Y-39903638D01*
X60403454Y-39840454D01*
X60388820Y-39809071D01*
X60350750Y-39728078D01*
X60320095Y-39665756D01*
X60295263Y-39620071D01*
X60274663Y-39588989D01*
X60256702Y-39570478D01*
X60239790Y-39562504D01*
X60222335Y-39563034D01*
X60222335Y-39563034D01*
G37*
X60222335Y-39563034D02*
X60202745Y-39570035D01*
X60201990Y-39570377D01*
X60175387Y-39590678D01*
X60160730Y-39611561D01*
X60157862Y-39621352D01*
X60158004Y-39634361D01*
X60162039Y-39652895D01*
X60170854Y-39679257D01*
X60185331Y-39715752D01*
X60206355Y-39764687D01*
X60234812Y-39828365D01*
X60271585Y-39909093D01*
X60291825Y-39953216D01*
X60328375Y-40031985D01*
X60362685Y-40104423D01*
X60393448Y-40167880D01*
X60419352Y-40219708D01*
X60439090Y-40257259D01*
X60451350Y-40277884D01*
X60453776Y-40280733D01*
X60484817Y-40293302D01*
X60519879Y-40291619D01*
X60548000Y-40276332D01*
X60549146Y-40275089D01*
X60560332Y-40258154D01*
X60579096Y-40225170D01*
X60603125Y-40180380D01*
X60630103Y-40128032D01*
X60639799Y-40108742D01*
X60712986Y-39962150D01*
X60792760Y-40121393D01*
X60821233Y-40176415D01*
X60847650Y-40224132D01*
X60869852Y-40260893D01*
X60885681Y-40283044D01*
X60891046Y-40287741D01*
X60932743Y-40294102D01*
X60967151Y-40280733D01*
X60977272Y-40266446D01*
X60994786Y-40234692D01*
X61018265Y-40188597D01*
X61046280Y-40131285D01*
X61077401Y-40065880D01*
X61110201Y-39995507D01*
X61143250Y-39923291D01*
X61175119Y-39852355D01*
X61204381Y-39785825D01*
X61229605Y-39726826D01*
X61249364Y-39678481D01*
X61262228Y-39643915D01*
X61266769Y-39626253D01*
X61266723Y-39625613D01*
X61255674Y-39603388D01*
X61233590Y-39580753D01*
X61232290Y-39579768D01*
X61205147Y-39564425D01*
X61180042Y-39564574D01*
X61170632Y-39567466D01*
X61159166Y-39573718D01*
X61146990Y-39586014D01*
X61132643Y-39606908D01*
X61114664Y-39638949D01*
X61091593Y-39684688D01*
X61061970Y-39746677D01*
X61035255Y-39803898D01*
X61004520Y-39870226D01*
X60976979Y-39929874D01*
X60954062Y-39979725D01*
X60937202Y-40016664D01*
X60927827Y-40037573D01*
X60926460Y-40040845D01*
X60920311Y-40035497D01*
X60906178Y-40013109D01*
X60885943Y-39976946D01*
X60861485Y-39930277D01*
X60851752Y-39911022D01*
X60818783Y-39846004D01*
X60793357Y-39798654D01*
X60773388Y-39766219D01*
X60756790Y-39745946D01*
X60741476Y-39735082D01*
X60725360Y-39730875D01*
X60714857Y-39730400D01*
X60696330Y-39732042D01*
X60680096Y-39738831D01*
X60663965Y-39753566D01*
X60645749Y-39779044D01*
X60623261Y-39818061D01*
X60594311Y-39873414D01*
X60578338Y-39904903D01*
X60552430Y-39955087D01*
X60529833Y-39996704D01*
X60512542Y-40026242D01*
X60502550Y-40040189D01*
X60501191Y-40040770D01*
X60494739Y-40029793D01*
X60480292Y-40001290D01*
X60459297Y-39958244D01*
X60433203Y-39903638D01*
X60403454Y-39840454D01*
X60388820Y-39809071D01*
X60350750Y-39728078D01*
X60320095Y-39665756D01*
X60295263Y-39620071D01*
X60274663Y-39588989D01*
X60256702Y-39570478D01*
X60239790Y-39562504D01*
X60222335Y-39563034D01*
G36*
X59778386Y-39567877D02*
X59754673Y-39582647D01*
X59728022Y-39604227D01*
X59728022Y-39925773D01*
X59728107Y-40019830D01*
X59728471Y-40093932D01*
X59729276Y-40150704D01*
X59730687Y-40192768D01*
X59732867Y-40222748D01*
X59735979Y-40243267D01*
X59740186Y-40256949D01*
X59745652Y-40266416D01*
X59749528Y-40271082D01*
X59780966Y-40291575D01*
X59816767Y-40290739D01*
X59848127Y-40273264D01*
X59874778Y-40251684D01*
X59874778Y-39604227D01*
X59848127Y-39582647D01*
X59822406Y-39566949D01*
X59801400Y-39561067D01*
X59778386Y-39567877D01*
X59778386Y-39567877D01*
G37*
X59778386Y-39567877D02*
X59754673Y-39582647D01*
X59728022Y-39604227D01*
X59728022Y-39925773D01*
X59728107Y-40019830D01*
X59728471Y-40093932D01*
X59729276Y-40150704D01*
X59730687Y-40192768D01*
X59732867Y-40222748D01*
X59735979Y-40243267D01*
X59740186Y-40256949D01*
X59745652Y-40266416D01*
X59749528Y-40271082D01*
X59780966Y-40291575D01*
X59816767Y-40290739D01*
X59848127Y-40273264D01*
X59874778Y-40251684D01*
X59874778Y-39604227D01*
X59848127Y-39582647D01*
X59822406Y-39566949D01*
X59801400Y-39561067D01*
X59778386Y-39567877D01*
G36*
X59003935Y-39561163D02*
X58925228Y-39561542D01*
X58864137Y-39562333D01*
X58818183Y-39563670D01*
X58784886Y-39565683D01*
X58761764Y-39568506D01*
X58746338Y-39572269D01*
X58736129Y-39577105D01*
X58731187Y-39580822D01*
X58705543Y-39613358D01*
X58702441Y-39647138D01*
X58718289Y-39677826D01*
X58728652Y-39690089D01*
X58739804Y-39698450D01*
X58755965Y-39703657D01*
X58781358Y-39706457D01*
X58820202Y-39707596D01*
X58876720Y-39707821D01*
X58887820Y-39707822D01*
X59033756Y-39707822D01*
X59033756Y-39978756D01*
X59033852Y-40064154D01*
X59034289Y-40129864D01*
X59035288Y-40178774D01*
X59037072Y-40213773D01*
X59039863Y-40237749D01*
X59043883Y-40253593D01*
X59049355Y-40264191D01*
X59056334Y-40272267D01*
X59089266Y-40292112D01*
X59123646Y-40290548D01*
X59154824Y-40267906D01*
X59157114Y-40265100D01*
X59164571Y-40254492D01*
X59170253Y-40242081D01*
X59174399Y-40224850D01*
X59177250Y-40199784D01*
X59179046Y-40163867D01*
X59180028Y-40114083D01*
X59180436Y-40047417D01*
X59180511Y-39971589D01*
X59180511Y-39707822D01*
X59319873Y-39707822D01*
X59379678Y-39707418D01*
X59421082Y-39705840D01*
X59448252Y-39702547D01*
X59465354Y-39696992D01*
X59476557Y-39688631D01*
X59477917Y-39687178D01*
X59494275Y-39653939D01*
X59492828Y-39616362D01*
X59474022Y-39583645D01*
X59466750Y-39577298D01*
X59457373Y-39572266D01*
X59443391Y-39568396D01*
X59422304Y-39565537D01*
X59391611Y-39563535D01*
X59348811Y-39562239D01*
X59291405Y-39561498D01*
X59216890Y-39561158D01*
X59122767Y-39561068D01*
X59102740Y-39561067D01*
X59003935Y-39561163D01*
X59003935Y-39561163D01*
G37*
X59003935Y-39561163D02*
X58925228Y-39561542D01*
X58864137Y-39562333D01*
X58818183Y-39563670D01*
X58784886Y-39565683D01*
X58761764Y-39568506D01*
X58746338Y-39572269D01*
X58736129Y-39577105D01*
X58731187Y-39580822D01*
X58705543Y-39613358D01*
X58702441Y-39647138D01*
X58718289Y-39677826D01*
X58728652Y-39690089D01*
X58739804Y-39698450D01*
X58755965Y-39703657D01*
X58781358Y-39706457D01*
X58820202Y-39707596D01*
X58876720Y-39707821D01*
X58887820Y-39707822D01*
X59033756Y-39707822D01*
X59033756Y-39978756D01*
X59033852Y-40064154D01*
X59034289Y-40129864D01*
X59035288Y-40178774D01*
X59037072Y-40213773D01*
X59039863Y-40237749D01*
X59043883Y-40253593D01*
X59049355Y-40264191D01*
X59056334Y-40272267D01*
X59089266Y-40292112D01*
X59123646Y-40290548D01*
X59154824Y-40267906D01*
X59157114Y-40265100D01*
X59164571Y-40254492D01*
X59170253Y-40242081D01*
X59174399Y-40224850D01*
X59177250Y-40199784D01*
X59179046Y-40163867D01*
X59180028Y-40114083D01*
X59180436Y-40047417D01*
X59180511Y-39971589D01*
X59180511Y-39707822D01*
X59319873Y-39707822D01*
X59379678Y-39707418D01*
X59421082Y-39705840D01*
X59448252Y-39702547D01*
X59465354Y-39696992D01*
X59476557Y-39688631D01*
X59477917Y-39687178D01*
X59494275Y-39653939D01*
X59492828Y-39616362D01*
X59474022Y-39583645D01*
X59466750Y-39577298D01*
X59457373Y-39572266D01*
X59443391Y-39568396D01*
X59422304Y-39565537D01*
X59391611Y-39563535D01*
X59348811Y-39562239D01*
X59291405Y-39561498D01*
X59216890Y-39561158D01*
X59122767Y-39561068D01*
X59102740Y-39561067D01*
X59003935Y-39561163D01*
G36*
X57738177Y-39566533D02*
X57706798Y-39588776D01*
X57679089Y-39616485D01*
X57679089Y-39925920D01*
X57679162Y-40017799D01*
X57679505Y-40089840D01*
X57680308Y-40144780D01*
X57681759Y-40185360D01*
X57684048Y-40214317D01*
X57687364Y-40234391D01*
X57691895Y-40248321D01*
X57697831Y-40258845D01*
X57702486Y-40265100D01*
X57733217Y-40289673D01*
X57768504Y-40292341D01*
X57800755Y-40277271D01*
X57811412Y-40268374D01*
X57818536Y-40256557D01*
X57822833Y-40237526D01*
X57825009Y-40206992D01*
X57825772Y-40160662D01*
X57825845Y-40124871D01*
X57825845Y-39990045D01*
X58322556Y-39990045D01*
X58322556Y-40112700D01*
X58323069Y-40168787D01*
X58325124Y-40207333D01*
X58329492Y-40233361D01*
X58336944Y-40251897D01*
X58345953Y-40265100D01*
X58376856Y-40289604D01*
X58411804Y-40292506D01*
X58445262Y-40275089D01*
X58454396Y-40265959D01*
X58460848Y-40253855D01*
X58465103Y-40235001D01*
X58467648Y-40205620D01*
X58468971Y-40161937D01*
X58469557Y-40100175D01*
X58469625Y-40086000D01*
X58470109Y-39969631D01*
X58470359Y-39873727D01*
X58470277Y-39796177D01*
X58469769Y-39734869D01*
X58468738Y-39687690D01*
X58467087Y-39652530D01*
X58464721Y-39627276D01*
X58461543Y-39609817D01*
X58457456Y-39598041D01*
X58452366Y-39589835D01*
X58446734Y-39583645D01*
X58414872Y-39563844D01*
X58381643Y-39566533D01*
X58350265Y-39588776D01*
X58337567Y-39603126D01*
X58329474Y-39618978D01*
X58324958Y-39641554D01*
X58322994Y-39676078D01*
X58322556Y-39727776D01*
X58322556Y-39843289D01*
X57825845Y-39843289D01*
X57825845Y-39724756D01*
X57825338Y-39670148D01*
X57823302Y-39633275D01*
X57818965Y-39609307D01*
X57811553Y-39593415D01*
X57803267Y-39583645D01*
X57771406Y-39563844D01*
X57738177Y-39566533D01*
X57738177Y-39566533D01*
G37*
X57738177Y-39566533D02*
X57706798Y-39588776D01*
X57679089Y-39616485D01*
X57679089Y-39925920D01*
X57679162Y-40017799D01*
X57679505Y-40089840D01*
X57680308Y-40144780D01*
X57681759Y-40185360D01*
X57684048Y-40214317D01*
X57687364Y-40234391D01*
X57691895Y-40248321D01*
X57697831Y-40258845D01*
X57702486Y-40265100D01*
X57733217Y-40289673D01*
X57768504Y-40292341D01*
X57800755Y-40277271D01*
X57811412Y-40268374D01*
X57818536Y-40256557D01*
X57822833Y-40237526D01*
X57825009Y-40206992D01*
X57825772Y-40160662D01*
X57825845Y-40124871D01*
X57825845Y-39990045D01*
X58322556Y-39990045D01*
X58322556Y-40112700D01*
X58323069Y-40168787D01*
X58325124Y-40207333D01*
X58329492Y-40233361D01*
X58336944Y-40251897D01*
X58345953Y-40265100D01*
X58376856Y-40289604D01*
X58411804Y-40292506D01*
X58445262Y-40275089D01*
X58454396Y-40265959D01*
X58460848Y-40253855D01*
X58465103Y-40235001D01*
X58467648Y-40205620D01*
X58468971Y-40161937D01*
X58469557Y-40100175D01*
X58469625Y-40086000D01*
X58470109Y-39969631D01*
X58470359Y-39873727D01*
X58470277Y-39796177D01*
X58469769Y-39734869D01*
X58468738Y-39687690D01*
X58467087Y-39652530D01*
X58464721Y-39627276D01*
X58461543Y-39609817D01*
X58457456Y-39598041D01*
X58452366Y-39589835D01*
X58446734Y-39583645D01*
X58414872Y-39563844D01*
X58381643Y-39566533D01*
X58350265Y-39588776D01*
X58337567Y-39603126D01*
X58329474Y-39618978D01*
X58324958Y-39641554D01*
X58322994Y-39676078D01*
X58322556Y-39727776D01*
X58322556Y-39843289D01*
X57825845Y-39843289D01*
X57825845Y-39724756D01*
X57825338Y-39670148D01*
X57823302Y-39633275D01*
X57818965Y-39609307D01*
X57811553Y-39593415D01*
X57803267Y-39583645D01*
X57771406Y-39563844D01*
X57738177Y-39566533D01*
G36*
X66913400Y-34781054D02*
X66902535Y-34894993D01*
X66870918Y-35002616D01*
X66820015Y-35101615D01*
X66751293Y-35189684D01*
X66666219Y-35264516D01*
X66569232Y-35322384D01*
X66462964Y-35362005D01*
X66355950Y-35380573D01*
X66250300Y-35379434D01*
X66148125Y-35359930D01*
X66051534Y-35323406D01*
X65962638Y-35271205D01*
X65883546Y-35204673D01*
X65816369Y-35125152D01*
X65763217Y-35033987D01*
X65726199Y-34932523D01*
X65707427Y-34822102D01*
X65705489Y-34772206D01*
X65705489Y-34684267D01*
X65653560Y-34684267D01*
X65617253Y-34687111D01*
X65590355Y-34698911D01*
X65563249Y-34722649D01*
X65524867Y-34761031D01*
X65524867Y-36952602D01*
X65524876Y-37214739D01*
X65524908Y-37455241D01*
X65524972Y-37675048D01*
X65525076Y-37875101D01*
X65525227Y-38056344D01*
X65525434Y-38219716D01*
X65525706Y-38366160D01*
X65526050Y-38496617D01*
X65526474Y-38612029D01*
X65526987Y-38713338D01*
X65527597Y-38801484D01*
X65528312Y-38877410D01*
X65529140Y-38942057D01*
X65530089Y-38996367D01*
X65531167Y-39041280D01*
X65532383Y-39077740D01*
X65533745Y-39106687D01*
X65535261Y-39129063D01*
X65536938Y-39145809D01*
X65538786Y-39157868D01*
X65540813Y-39166180D01*
X65543025Y-39171687D01*
X65544108Y-39173537D01*
X65548271Y-39180549D01*
X65551805Y-39186996D01*
X65555635Y-39192900D01*
X65560682Y-39198286D01*
X65567871Y-39203178D01*
X65578123Y-39207598D01*
X65592364Y-39211572D01*
X65611514Y-39215121D01*
X65636499Y-39218270D01*
X65668240Y-39221042D01*
X65707662Y-39223461D01*
X65755686Y-39225551D01*
X65813237Y-39227335D01*
X65881237Y-39228837D01*
X65960610Y-39230080D01*
X66052279Y-39231089D01*
X66157166Y-39231885D01*
X66276196Y-39232494D01*
X66410290Y-39232939D01*
X66560373Y-39233243D01*
X66727367Y-39233430D01*
X66912196Y-39233524D01*
X67115783Y-39233548D01*
X67339050Y-39233525D01*
X67582922Y-39233480D01*
X67848321Y-39233437D01*
X67886704Y-39233432D01*
X68153682Y-39233389D01*
X68399002Y-39233318D01*
X68623583Y-39233213D01*
X68828345Y-39233066D01*
X69014206Y-39232869D01*
X69182088Y-39232616D01*
X69332908Y-39232300D01*
X69467587Y-39231913D01*
X69587044Y-39231447D01*
X69692199Y-39230897D01*
X69783971Y-39230253D01*
X69863279Y-39229511D01*
X69931043Y-39228661D01*
X69988182Y-39227697D01*
X70035617Y-39226611D01*
X70074266Y-39225397D01*
X70105049Y-39224047D01*
X70128885Y-39222555D01*
X70146694Y-39220911D01*
X70159395Y-39219111D01*
X70167908Y-39217145D01*
X70172266Y-39215477D01*
X70180728Y-39211906D01*
X70188497Y-39209270D01*
X70195602Y-39206634D01*
X70202073Y-39203062D01*
X70207939Y-39197621D01*
X70213229Y-39189375D01*
X70217974Y-39177390D01*
X70222202Y-39160731D01*
X70225943Y-39138463D01*
X70229227Y-39109652D01*
X70232083Y-39073363D01*
X70234540Y-39028661D01*
X70236629Y-38974611D01*
X70238378Y-38910279D01*
X70239817Y-38834730D01*
X70240976Y-38747030D01*
X70241883Y-38646243D01*
X70242569Y-38531434D01*
X70243063Y-38401670D01*
X70243395Y-38256015D01*
X70243593Y-38093535D01*
X70243687Y-37913295D01*
X70243708Y-37714360D01*
X70243685Y-37495796D01*
X70243646Y-37256668D01*
X70243622Y-36996040D01*
X70243622Y-36953889D01*
X70243636Y-36690992D01*
X70243661Y-36449732D01*
X70243671Y-36229165D01*
X70243642Y-36028352D01*
X70243548Y-35846349D01*
X70243362Y-35682216D01*
X70243059Y-35535011D01*
X70242614Y-35403792D01*
X70242034Y-35293867D01*
X69939197Y-35293867D01*
X69899407Y-35351711D01*
X69888236Y-35367479D01*
X69878166Y-35381441D01*
X69869138Y-35394784D01*
X69861097Y-35408693D01*
X69853986Y-35424356D01*
X69847747Y-35442958D01*
X69842325Y-35465686D01*
X69837662Y-35493727D01*
X69833701Y-35528267D01*
X69830385Y-35570492D01*
X69827659Y-35621589D01*
X69825464Y-35682744D01*
X69823745Y-35755144D01*
X69822444Y-35839975D01*
X69821505Y-35938422D01*
X69820870Y-36051674D01*
X69820484Y-36180916D01*
X69820288Y-36327334D01*
X69820227Y-36492116D01*
X69820243Y-36676447D01*
X69820280Y-36881513D01*
X69820289Y-37004133D01*
X69820265Y-37221082D01*
X69820231Y-37416642D01*
X69820243Y-37591999D01*
X69820358Y-37748341D01*
X69820630Y-37886857D01*
X69821118Y-38008734D01*
X69821876Y-38115160D01*
X69822962Y-38207322D01*
X69824431Y-38286409D01*
X69826340Y-38353608D01*
X69828744Y-38410107D01*
X69831701Y-38457093D01*
X69835266Y-38495755D01*
X69839495Y-38527280D01*
X69844446Y-38552855D01*
X69850173Y-38573670D01*
X69856733Y-38590911D01*
X69864183Y-38605765D01*
X69872579Y-38619422D01*
X69881976Y-38633069D01*
X69892432Y-38647893D01*
X69898523Y-38656783D01*
X69937296Y-38714400D01*
X69405732Y-38714400D01*
X69282483Y-38714365D01*
X69179987Y-38714215D01*
X69096420Y-38713878D01*
X69029956Y-38713286D01*
X68978771Y-38712367D01*
X68941041Y-38711051D01*
X68914940Y-38709269D01*
X68898644Y-38706951D01*
X68890328Y-38704026D01*
X68888168Y-38700424D01*
X68890339Y-38696075D01*
X68891535Y-38694645D01*
X68916685Y-38657573D01*
X68942583Y-38604772D01*
X68966192Y-38542770D01*
X68974461Y-38516357D01*
X68979078Y-38498416D01*
X68982979Y-38477355D01*
X68986248Y-38451089D01*
X68988966Y-38417532D01*
X68991215Y-38374599D01*
X68993077Y-38320204D01*
X68994636Y-38252262D01*
X68995972Y-38168688D01*
X68997169Y-38067395D01*
X68998308Y-37946300D01*
X68998685Y-37901600D01*
X68999702Y-37776449D01*
X69000460Y-37672082D01*
X69000903Y-37586707D01*
X69000970Y-37518533D01*
X69000605Y-37465765D01*
X68999748Y-37426614D01*
X68998341Y-37399285D01*
X68996325Y-37381986D01*
X68993643Y-37372926D01*
X68990236Y-37370312D01*
X68986044Y-37372351D01*
X68981571Y-37376667D01*
X68971216Y-37389602D01*
X68949158Y-37418676D01*
X68916957Y-37461759D01*
X68876174Y-37516718D01*
X68828370Y-37581423D01*
X68775105Y-37653742D01*
X68717940Y-37731544D01*
X68658437Y-37812698D01*
X68598155Y-37895072D01*
X68538655Y-37976536D01*
X68481498Y-38054957D01*
X68428245Y-38128204D01*
X68380457Y-38194147D01*
X68339693Y-38250654D01*
X68307516Y-38295593D01*
X68285485Y-38326834D01*
X68280917Y-38333466D01*
X68257996Y-38370369D01*
X68231188Y-38418359D01*
X68205789Y-38467897D01*
X68202568Y-38474577D01*
X68180890Y-38522772D01*
X68168304Y-38560334D01*
X68162574Y-38596160D01*
X68161456Y-38638200D01*
X68162090Y-38714400D01*
X67007651Y-38714400D01*
X67098815Y-38620669D01*
X67145612Y-38570775D01*
X67195899Y-38514295D01*
X67241944Y-38460026D01*
X67262369Y-38434673D01*
X67292807Y-38395128D01*
X67332862Y-38341916D01*
X67381361Y-38276667D01*
X67437135Y-38201011D01*
X67499011Y-38116577D01*
X67565819Y-38024994D01*
X67636387Y-37927892D01*
X67709545Y-37826901D01*
X67784121Y-37723650D01*
X67858944Y-37619768D01*
X67932843Y-37516885D01*
X68004646Y-37416631D01*
X68073184Y-37320636D01*
X68137284Y-37230527D01*
X68195775Y-37147936D01*
X68247486Y-37074492D01*
X68291247Y-37011824D01*
X68325885Y-36961561D01*
X68350230Y-36925334D01*
X68363111Y-36904771D01*
X68364869Y-36900668D01*
X68356910Y-36889342D01*
X68336115Y-36862162D01*
X68303847Y-36820829D01*
X68261470Y-36767044D01*
X68210347Y-36702506D01*
X68151841Y-36628918D01*
X68087314Y-36547978D01*
X68018131Y-36461388D01*
X67945653Y-36370848D01*
X67871246Y-36278060D01*
X67811517Y-36203702D01*
X66800511Y-36203702D01*
X66794602Y-36216659D01*
X66780272Y-36238908D01*
X66779225Y-36240391D01*
X66760438Y-36270544D01*
X66740791Y-36307375D01*
X66736892Y-36315511D01*
X66733356Y-36323940D01*
X66730230Y-36334059D01*
X66727486Y-36347260D01*
X66725092Y-36364938D01*
X66723019Y-36388484D01*
X66721235Y-36419293D01*
X66719712Y-36458757D01*
X66718419Y-36508269D01*
X66717326Y-36569223D01*
X66716403Y-36643011D01*
X66715619Y-36731028D01*
X66714945Y-36834665D01*
X66714350Y-36955316D01*
X66713805Y-37094374D01*
X66713279Y-37253232D01*
X66712745Y-37432089D01*
X66712206Y-37617207D01*
X66711772Y-37781145D01*
X66711509Y-37925303D01*
X66711484Y-38051079D01*
X66711765Y-38159871D01*
X66712419Y-38253077D01*
X66713514Y-38332097D01*
X66715118Y-38398328D01*
X66717297Y-38453170D01*
X66720119Y-38498021D01*
X66723651Y-38534278D01*
X66727961Y-38563341D01*
X66733117Y-38586609D01*
X66739185Y-38605479D01*
X66746233Y-38621351D01*
X66754329Y-38635622D01*
X66763540Y-38649691D01*
X66772040Y-38662158D01*
X66789176Y-38688452D01*
X66799322Y-38706037D01*
X66800511Y-38709257D01*
X66789604Y-38710334D01*
X66758411Y-38711335D01*
X66709223Y-38712235D01*
X66644333Y-38713010D01*
X66566030Y-38713637D01*
X66476607Y-38714091D01*
X66378356Y-38714349D01*
X66309445Y-38714400D01*
X66204452Y-38714180D01*
X66107610Y-38713548D01*
X66021107Y-38712549D01*
X65947132Y-38711227D01*
X65887874Y-38709626D01*
X65845520Y-38707791D01*
X65822260Y-38705765D01*
X65818378Y-38704493D01*
X65826076Y-38689591D01*
X65834074Y-38681560D01*
X65847246Y-38664434D01*
X65864485Y-38634183D01*
X65876407Y-38609622D01*
X65903045Y-38550711D01*
X65906120Y-37373845D01*
X65909195Y-36196978D01*
X66354853Y-36196978D01*
X66452670Y-36197142D01*
X66543064Y-36197611D01*
X66623630Y-36198347D01*
X66691962Y-36199316D01*
X66745656Y-36200480D01*
X66782305Y-36201803D01*
X66799504Y-36203249D01*
X66800511Y-36203702D01*
X67811517Y-36203702D01*
X67796270Y-36184722D01*
X67722090Y-36092537D01*
X67650069Y-36003204D01*
X67581569Y-35918424D01*
X67517955Y-35839898D01*
X67460588Y-35769326D01*
X67410833Y-35708409D01*
X67370052Y-35658847D01*
X67352888Y-35638178D01*
X67266596Y-35537516D01*
X67189997Y-35454259D01*
X67121183Y-35386438D01*
X67058248Y-35332089D01*
X67048867Y-35324722D01*
X67009356Y-35294117D01*
X68141116Y-35293867D01*
X68135827Y-35341844D01*
X68139130Y-35399188D01*
X68160661Y-35467463D01*
X68200635Y-35547212D01*
X68245943Y-35619495D01*
X68262161Y-35642140D01*
X68290214Y-35679696D01*
X68328430Y-35730021D01*
X68375137Y-35790973D01*
X68428661Y-35860411D01*
X68487331Y-35936194D01*
X68549475Y-36016180D01*
X68613421Y-36098228D01*
X68677495Y-36180196D01*
X68740027Y-36259943D01*
X68799343Y-36335327D01*
X68853771Y-36404207D01*
X68901639Y-36464442D01*
X68941275Y-36513889D01*
X68971006Y-36550408D01*
X68989161Y-36571858D01*
X68992220Y-36575156D01*
X68995079Y-36567149D01*
X68997293Y-36536855D01*
X68998857Y-36484556D01*
X68999767Y-36410531D01*
X69000020Y-36315063D01*
X68999613Y-36198434D01*
X68998704Y-36078445D01*
X68997382Y-35946333D01*
X68995857Y-35834594D01*
X68993881Y-35741025D01*
X68991206Y-35663419D01*
X68987582Y-35599574D01*
X68982761Y-35547283D01*
X68976494Y-35504344D01*
X68968532Y-35468551D01*
X68958627Y-35437700D01*
X68946531Y-35409586D01*
X68931993Y-35382005D01*
X68917311Y-35356966D01*
X68879314Y-35293867D01*
X69939197Y-35293867D01*
X70242034Y-35293867D01*
X70242001Y-35287617D01*
X70241195Y-35185544D01*
X70240170Y-35096633D01*
X70238900Y-35019941D01*
X70237360Y-34954527D01*
X70235524Y-34899449D01*
X70233367Y-34853765D01*
X70230863Y-34816534D01*
X70227987Y-34786813D01*
X70224713Y-34763662D01*
X70221015Y-34746139D01*
X70216869Y-34733301D01*
X70212247Y-34724208D01*
X70207126Y-34717918D01*
X70201478Y-34713488D01*
X70195279Y-34709978D01*
X70188504Y-34706445D01*
X70182508Y-34702876D01*
X70177275Y-34700300D01*
X70169099Y-34697972D01*
X70156886Y-34695878D01*
X70139541Y-34694007D01*
X70115969Y-34692347D01*
X70085077Y-34690884D01*
X70045768Y-34689608D01*
X69996950Y-34688504D01*
X69937527Y-34687561D01*
X69866404Y-34686767D01*
X69782488Y-34686109D01*
X69684683Y-34685575D01*
X69571894Y-34685153D01*
X69443029Y-34684829D01*
X69296991Y-34684592D01*
X69132686Y-34684430D01*
X68949020Y-34684330D01*
X68744897Y-34684280D01*
X68533753Y-34684267D01*
X66913400Y-34684267D01*
X66913400Y-34781054D01*
X66913400Y-34781054D01*
G37*
X66913400Y-34781054D02*
X66902535Y-34894993D01*
X66870918Y-35002616D01*
X66820015Y-35101615D01*
X66751293Y-35189684D01*
X66666219Y-35264516D01*
X66569232Y-35322384D01*
X66462964Y-35362005D01*
X66355950Y-35380573D01*
X66250300Y-35379434D01*
X66148125Y-35359930D01*
X66051534Y-35323406D01*
X65962638Y-35271205D01*
X65883546Y-35204673D01*
X65816369Y-35125152D01*
X65763217Y-35033987D01*
X65726199Y-34932523D01*
X65707427Y-34822102D01*
X65705489Y-34772206D01*
X65705489Y-34684267D01*
X65653560Y-34684267D01*
X65617253Y-34687111D01*
X65590355Y-34698911D01*
X65563249Y-34722649D01*
X65524867Y-34761031D01*
X65524867Y-36952602D01*
X65524876Y-37214739D01*
X65524908Y-37455241D01*
X65524972Y-37675048D01*
X65525076Y-37875101D01*
X65525227Y-38056344D01*
X65525434Y-38219716D01*
X65525706Y-38366160D01*
X65526050Y-38496617D01*
X65526474Y-38612029D01*
X65526987Y-38713338D01*
X65527597Y-38801484D01*
X65528312Y-38877410D01*
X65529140Y-38942057D01*
X65530089Y-38996367D01*
X65531167Y-39041280D01*
X65532383Y-39077740D01*
X65533745Y-39106687D01*
X65535261Y-39129063D01*
X65536938Y-39145809D01*
X65538786Y-39157868D01*
X65540813Y-39166180D01*
X65543025Y-39171687D01*
X65544108Y-39173537D01*
X65548271Y-39180549D01*
X65551805Y-39186996D01*
X65555635Y-39192900D01*
X65560682Y-39198286D01*
X65567871Y-39203178D01*
X65578123Y-39207598D01*
X65592364Y-39211572D01*
X65611514Y-39215121D01*
X65636499Y-39218270D01*
X65668240Y-39221042D01*
X65707662Y-39223461D01*
X65755686Y-39225551D01*
X65813237Y-39227335D01*
X65881237Y-39228837D01*
X65960610Y-39230080D01*
X66052279Y-39231089D01*
X66157166Y-39231885D01*
X66276196Y-39232494D01*
X66410290Y-39232939D01*
X66560373Y-39233243D01*
X66727367Y-39233430D01*
X66912196Y-39233524D01*
X67115783Y-39233548D01*
X67339050Y-39233525D01*
X67582922Y-39233480D01*
X67848321Y-39233437D01*
X67886704Y-39233432D01*
X68153682Y-39233389D01*
X68399002Y-39233318D01*
X68623583Y-39233213D01*
X68828345Y-39233066D01*
X69014206Y-39232869D01*
X69182088Y-39232616D01*
X69332908Y-39232300D01*
X69467587Y-39231913D01*
X69587044Y-39231447D01*
X69692199Y-39230897D01*
X69783971Y-39230253D01*
X69863279Y-39229511D01*
X69931043Y-39228661D01*
X69988182Y-39227697D01*
X70035617Y-39226611D01*
X70074266Y-39225397D01*
X70105049Y-39224047D01*
X70128885Y-39222555D01*
X70146694Y-39220911D01*
X70159395Y-39219111D01*
X70167908Y-39217145D01*
X70172266Y-39215477D01*
X70180728Y-39211906D01*
X70188497Y-39209270D01*
X70195602Y-39206634D01*
X70202073Y-39203062D01*
X70207939Y-39197621D01*
X70213229Y-39189375D01*
X70217974Y-39177390D01*
X70222202Y-39160731D01*
X70225943Y-39138463D01*
X70229227Y-39109652D01*
X70232083Y-39073363D01*
X70234540Y-39028661D01*
X70236629Y-38974611D01*
X70238378Y-38910279D01*
X70239817Y-38834730D01*
X70240976Y-38747030D01*
X70241883Y-38646243D01*
X70242569Y-38531434D01*
X70243063Y-38401670D01*
X70243395Y-38256015D01*
X70243593Y-38093535D01*
X70243687Y-37913295D01*
X70243708Y-37714360D01*
X70243685Y-37495796D01*
X70243646Y-37256668D01*
X70243622Y-36996040D01*
X70243622Y-36953889D01*
X70243636Y-36690992D01*
X70243661Y-36449732D01*
X70243671Y-36229165D01*
X70243642Y-36028352D01*
X70243548Y-35846349D01*
X70243362Y-35682216D01*
X70243059Y-35535011D01*
X70242614Y-35403792D01*
X70242034Y-35293867D01*
X69939197Y-35293867D01*
X69899407Y-35351711D01*
X69888236Y-35367479D01*
X69878166Y-35381441D01*
X69869138Y-35394784D01*
X69861097Y-35408693D01*
X69853986Y-35424356D01*
X69847747Y-35442958D01*
X69842325Y-35465686D01*
X69837662Y-35493727D01*
X69833701Y-35528267D01*
X69830385Y-35570492D01*
X69827659Y-35621589D01*
X69825464Y-35682744D01*
X69823745Y-35755144D01*
X69822444Y-35839975D01*
X69821505Y-35938422D01*
X69820870Y-36051674D01*
X69820484Y-36180916D01*
X69820288Y-36327334D01*
X69820227Y-36492116D01*
X69820243Y-36676447D01*
X69820280Y-36881513D01*
X69820289Y-37004133D01*
X69820265Y-37221082D01*
X69820231Y-37416642D01*
X69820243Y-37591999D01*
X69820358Y-37748341D01*
X69820630Y-37886857D01*
X69821118Y-38008734D01*
X69821876Y-38115160D01*
X69822962Y-38207322D01*
X69824431Y-38286409D01*
X69826340Y-38353608D01*
X69828744Y-38410107D01*
X69831701Y-38457093D01*
X69835266Y-38495755D01*
X69839495Y-38527280D01*
X69844446Y-38552855D01*
X69850173Y-38573670D01*
X69856733Y-38590911D01*
X69864183Y-38605765D01*
X69872579Y-38619422D01*
X69881976Y-38633069D01*
X69892432Y-38647893D01*
X69898523Y-38656783D01*
X69937296Y-38714400D01*
X69405732Y-38714400D01*
X69282483Y-38714365D01*
X69179987Y-38714215D01*
X69096420Y-38713878D01*
X69029956Y-38713286D01*
X68978771Y-38712367D01*
X68941041Y-38711051D01*
X68914940Y-38709269D01*
X68898644Y-38706951D01*
X68890328Y-38704026D01*
X68888168Y-38700424D01*
X68890339Y-38696075D01*
X68891535Y-38694645D01*
X68916685Y-38657573D01*
X68942583Y-38604772D01*
X68966192Y-38542770D01*
X68974461Y-38516357D01*
X68979078Y-38498416D01*
X68982979Y-38477355D01*
X68986248Y-38451089D01*
X68988966Y-38417532D01*
X68991215Y-38374599D01*
X68993077Y-38320204D01*
X68994636Y-38252262D01*
X68995972Y-38168688D01*
X68997169Y-38067395D01*
X68998308Y-37946300D01*
X68998685Y-37901600D01*
X68999702Y-37776449D01*
X69000460Y-37672082D01*
X69000903Y-37586707D01*
X69000970Y-37518533D01*
X69000605Y-37465765D01*
X68999748Y-37426614D01*
X68998341Y-37399285D01*
X68996325Y-37381986D01*
X68993643Y-37372926D01*
X68990236Y-37370312D01*
X68986044Y-37372351D01*
X68981571Y-37376667D01*
X68971216Y-37389602D01*
X68949158Y-37418676D01*
X68916957Y-37461759D01*
X68876174Y-37516718D01*
X68828370Y-37581423D01*
X68775105Y-37653742D01*
X68717940Y-37731544D01*
X68658437Y-37812698D01*
X68598155Y-37895072D01*
X68538655Y-37976536D01*
X68481498Y-38054957D01*
X68428245Y-38128204D01*
X68380457Y-38194147D01*
X68339693Y-38250654D01*
X68307516Y-38295593D01*
X68285485Y-38326834D01*
X68280917Y-38333466D01*
X68257996Y-38370369D01*
X68231188Y-38418359D01*
X68205789Y-38467897D01*
X68202568Y-38474577D01*
X68180890Y-38522772D01*
X68168304Y-38560334D01*
X68162574Y-38596160D01*
X68161456Y-38638200D01*
X68162090Y-38714400D01*
X67007651Y-38714400D01*
X67098815Y-38620669D01*
X67145612Y-38570775D01*
X67195899Y-38514295D01*
X67241944Y-38460026D01*
X67262369Y-38434673D01*
X67292807Y-38395128D01*
X67332862Y-38341916D01*
X67381361Y-38276667D01*
X67437135Y-38201011D01*
X67499011Y-38116577D01*
X67565819Y-38024994D01*
X67636387Y-37927892D01*
X67709545Y-37826901D01*
X67784121Y-37723650D01*
X67858944Y-37619768D01*
X67932843Y-37516885D01*
X68004646Y-37416631D01*
X68073184Y-37320636D01*
X68137284Y-37230527D01*
X68195775Y-37147936D01*
X68247486Y-37074492D01*
X68291247Y-37011824D01*
X68325885Y-36961561D01*
X68350230Y-36925334D01*
X68363111Y-36904771D01*
X68364869Y-36900668D01*
X68356910Y-36889342D01*
X68336115Y-36862162D01*
X68303847Y-36820829D01*
X68261470Y-36767044D01*
X68210347Y-36702506D01*
X68151841Y-36628918D01*
X68087314Y-36547978D01*
X68018131Y-36461388D01*
X67945653Y-36370848D01*
X67871246Y-36278060D01*
X67811517Y-36203702D01*
X66800511Y-36203702D01*
X66794602Y-36216659D01*
X66780272Y-36238908D01*
X66779225Y-36240391D01*
X66760438Y-36270544D01*
X66740791Y-36307375D01*
X66736892Y-36315511D01*
X66733356Y-36323940D01*
X66730230Y-36334059D01*
X66727486Y-36347260D01*
X66725092Y-36364938D01*
X66723019Y-36388484D01*
X66721235Y-36419293D01*
X66719712Y-36458757D01*
X66718419Y-36508269D01*
X66717326Y-36569223D01*
X66716403Y-36643011D01*
X66715619Y-36731028D01*
X66714945Y-36834665D01*
X66714350Y-36955316D01*
X66713805Y-37094374D01*
X66713279Y-37253232D01*
X66712745Y-37432089D01*
X66712206Y-37617207D01*
X66711772Y-37781145D01*
X66711509Y-37925303D01*
X66711484Y-38051079D01*
X66711765Y-38159871D01*
X66712419Y-38253077D01*
X66713514Y-38332097D01*
X66715118Y-38398328D01*
X66717297Y-38453170D01*
X66720119Y-38498021D01*
X66723651Y-38534278D01*
X66727961Y-38563341D01*
X66733117Y-38586609D01*
X66739185Y-38605479D01*
X66746233Y-38621351D01*
X66754329Y-38635622D01*
X66763540Y-38649691D01*
X66772040Y-38662158D01*
X66789176Y-38688452D01*
X66799322Y-38706037D01*
X66800511Y-38709257D01*
X66789604Y-38710334D01*
X66758411Y-38711335D01*
X66709223Y-38712235D01*
X66644333Y-38713010D01*
X66566030Y-38713637D01*
X66476607Y-38714091D01*
X66378356Y-38714349D01*
X66309445Y-38714400D01*
X66204452Y-38714180D01*
X66107610Y-38713548D01*
X66021107Y-38712549D01*
X65947132Y-38711227D01*
X65887874Y-38709626D01*
X65845520Y-38707791D01*
X65822260Y-38705765D01*
X65818378Y-38704493D01*
X65826076Y-38689591D01*
X65834074Y-38681560D01*
X65847246Y-38664434D01*
X65864485Y-38634183D01*
X65876407Y-38609622D01*
X65903045Y-38550711D01*
X65906120Y-37373845D01*
X65909195Y-36196978D01*
X66354853Y-36196978D01*
X66452670Y-36197142D01*
X66543064Y-36197611D01*
X66623630Y-36198347D01*
X66691962Y-36199316D01*
X66745656Y-36200480D01*
X66782305Y-36201803D01*
X66799504Y-36203249D01*
X66800511Y-36203702D01*
X67811517Y-36203702D01*
X67796270Y-36184722D01*
X67722090Y-36092537D01*
X67650069Y-36003204D01*
X67581569Y-35918424D01*
X67517955Y-35839898D01*
X67460588Y-35769326D01*
X67410833Y-35708409D01*
X67370052Y-35658847D01*
X67352888Y-35638178D01*
X67266596Y-35537516D01*
X67189997Y-35454259D01*
X67121183Y-35386438D01*
X67058248Y-35332089D01*
X67048867Y-35324722D01*
X67009356Y-35294117D01*
X68141116Y-35293867D01*
X68135827Y-35341844D01*
X68139130Y-35399188D01*
X68160661Y-35467463D01*
X68200635Y-35547212D01*
X68245943Y-35619495D01*
X68262161Y-35642140D01*
X68290214Y-35679696D01*
X68328430Y-35730021D01*
X68375137Y-35790973D01*
X68428661Y-35860411D01*
X68487331Y-35936194D01*
X68549475Y-36016180D01*
X68613421Y-36098228D01*
X68677495Y-36180196D01*
X68740027Y-36259943D01*
X68799343Y-36335327D01*
X68853771Y-36404207D01*
X68901639Y-36464442D01*
X68941275Y-36513889D01*
X68971006Y-36550408D01*
X68989161Y-36571858D01*
X68992220Y-36575156D01*
X68995079Y-36567149D01*
X68997293Y-36536855D01*
X68998857Y-36484556D01*
X68999767Y-36410531D01*
X69000020Y-36315063D01*
X68999613Y-36198434D01*
X68998704Y-36078445D01*
X68997382Y-35946333D01*
X68995857Y-35834594D01*
X68993881Y-35741025D01*
X68991206Y-35663419D01*
X68987582Y-35599574D01*
X68982761Y-35547283D01*
X68976494Y-35504344D01*
X68968532Y-35468551D01*
X68958627Y-35437700D01*
X68946531Y-35409586D01*
X68931993Y-35382005D01*
X68917311Y-35356966D01*
X68879314Y-35293867D01*
X69939197Y-35293867D01*
X70242034Y-35293867D01*
X70242001Y-35287617D01*
X70241195Y-35185544D01*
X70240170Y-35096633D01*
X70238900Y-35019941D01*
X70237360Y-34954527D01*
X70235524Y-34899449D01*
X70233367Y-34853765D01*
X70230863Y-34816534D01*
X70227987Y-34786813D01*
X70224713Y-34763662D01*
X70221015Y-34746139D01*
X70216869Y-34733301D01*
X70212247Y-34724208D01*
X70207126Y-34717918D01*
X70201478Y-34713488D01*
X70195279Y-34709978D01*
X70188504Y-34706445D01*
X70182508Y-34702876D01*
X70177275Y-34700300D01*
X70169099Y-34697972D01*
X70156886Y-34695878D01*
X70139541Y-34694007D01*
X70115969Y-34692347D01*
X70085077Y-34690884D01*
X70045768Y-34689608D01*
X69996950Y-34688504D01*
X69937527Y-34687561D01*
X69866404Y-34686767D01*
X69782488Y-34686109D01*
X69684683Y-34685575D01*
X69571894Y-34685153D01*
X69443029Y-34684829D01*
X69296991Y-34684592D01*
X69132686Y-34684430D01*
X68949020Y-34684330D01*
X68744897Y-34684280D01*
X68533753Y-34684267D01*
X66913400Y-34684267D01*
X66913400Y-34781054D01*
G36*
X63638571Y-35241071D02*
X63478430Y-35262245D01*
X63314490Y-35302385D01*
X63144687Y-35361889D01*
X62966957Y-35441154D01*
X62955690Y-35446699D01*
X62897995Y-35474725D01*
X62846448Y-35498802D01*
X62804809Y-35517249D01*
X62776838Y-35528386D01*
X62767267Y-35530933D01*
X62748050Y-35535941D01*
X62743439Y-35540147D01*
X62748542Y-35550580D01*
X62764582Y-35576868D01*
X62789712Y-35616257D01*
X62822086Y-35665991D01*
X62859857Y-35723315D01*
X62901178Y-35785476D01*
X62944202Y-35849718D01*
X62987083Y-35913285D01*
X63027974Y-35973425D01*
X63065029Y-36027380D01*
X63096400Y-36072397D01*
X63120241Y-36105721D01*
X63134706Y-36124597D01*
X63136691Y-36126787D01*
X63146809Y-36122138D01*
X63169150Y-36104962D01*
X63199720Y-36078440D01*
X63215464Y-36063964D01*
X63311953Y-35988682D01*
X63418664Y-35933241D01*
X63534168Y-35898141D01*
X63657038Y-35883880D01*
X63726439Y-35885051D01*
X63847577Y-35902212D01*
X63956795Y-35938094D01*
X64054418Y-35992959D01*
X64140772Y-36067070D01*
X64216185Y-36160688D01*
X64280982Y-36274076D01*
X64318399Y-36360667D01*
X64362252Y-36496366D01*
X64394572Y-36643850D01*
X64415443Y-36799314D01*
X64424949Y-36958956D01*
X64423173Y-37118973D01*
X64410197Y-37275561D01*
X64386106Y-37424918D01*
X64350982Y-37563240D01*
X64304908Y-37686724D01*
X64288627Y-37720978D01*
X64220380Y-37835064D01*
X64139921Y-37931557D01*
X64048430Y-38009670D01*
X63947089Y-38068617D01*
X63837080Y-38107612D01*
X63719585Y-38125868D01*
X63678117Y-38127211D01*
X63556559Y-38116290D01*
X63436122Y-38083474D01*
X63318334Y-38029439D01*
X63204723Y-37954865D01*
X63113315Y-37876539D01*
X63066785Y-37832008D01*
X62885517Y-38129271D01*
X62840420Y-38203433D01*
X62799181Y-38271646D01*
X62763265Y-38331459D01*
X62734134Y-38380420D01*
X62713250Y-38416079D01*
X62702076Y-38435984D01*
X62700625Y-38439079D01*
X62708854Y-38448718D01*
X62734433Y-38465999D01*
X62774127Y-38489283D01*
X62824703Y-38516934D01*
X62882926Y-38547315D01*
X62945563Y-38578790D01*
X63009379Y-38609722D01*
X63071140Y-38638473D01*
X63127612Y-38663408D01*
X63175562Y-38682889D01*
X63199014Y-38691318D01*
X63332779Y-38729133D01*
X63470673Y-38754136D01*
X63618378Y-38767140D01*
X63745167Y-38769468D01*
X63813122Y-38768373D01*
X63878723Y-38766275D01*
X63936153Y-38763434D01*
X63979597Y-38760106D01*
X63993702Y-38758422D01*
X64132716Y-38729587D01*
X64274243Y-38684468D01*
X64411725Y-38625750D01*
X64538606Y-38556120D01*
X64616111Y-38503441D01*
X64743519Y-38395239D01*
X64861822Y-38268671D01*
X64968828Y-38126866D01*
X65062348Y-37972951D01*
X65140190Y-37810053D01*
X65184044Y-37692756D01*
X65234292Y-37509128D01*
X65267791Y-37314581D01*
X65284551Y-37113325D01*
X65284584Y-36909568D01*
X65267899Y-36707521D01*
X65234507Y-36511392D01*
X65184420Y-36325391D01*
X65180603Y-36313803D01*
X65117719Y-36151750D01*
X65040972Y-36003832D01*
X64947758Y-35865865D01*
X64835473Y-35733661D01*
X64791608Y-35688399D01*
X64655466Y-35564457D01*
X64515509Y-35461915D01*
X64369589Y-35379656D01*
X64215558Y-35316564D01*
X64051268Y-35271523D01*
X63955711Y-35254033D01*
X63796977Y-35238466D01*
X63638571Y-35241071D01*
X63638571Y-35241071D01*
G37*
X63638571Y-35241071D02*
X63478430Y-35262245D01*
X63314490Y-35302385D01*
X63144687Y-35361889D01*
X62966957Y-35441154D01*
X62955690Y-35446699D01*
X62897995Y-35474725D01*
X62846448Y-35498802D01*
X62804809Y-35517249D01*
X62776838Y-35528386D01*
X62767267Y-35530933D01*
X62748050Y-35535941D01*
X62743439Y-35540147D01*
X62748542Y-35550580D01*
X62764582Y-35576868D01*
X62789712Y-35616257D01*
X62822086Y-35665991D01*
X62859857Y-35723315D01*
X62901178Y-35785476D01*
X62944202Y-35849718D01*
X62987083Y-35913285D01*
X63027974Y-35973425D01*
X63065029Y-36027380D01*
X63096400Y-36072397D01*
X63120241Y-36105721D01*
X63134706Y-36124597D01*
X63136691Y-36126787D01*
X63146809Y-36122138D01*
X63169150Y-36104962D01*
X63199720Y-36078440D01*
X63215464Y-36063964D01*
X63311953Y-35988682D01*
X63418664Y-35933241D01*
X63534168Y-35898141D01*
X63657038Y-35883880D01*
X63726439Y-35885051D01*
X63847577Y-35902212D01*
X63956795Y-35938094D01*
X64054418Y-35992959D01*
X64140772Y-36067070D01*
X64216185Y-36160688D01*
X64280982Y-36274076D01*
X64318399Y-36360667D01*
X64362252Y-36496366D01*
X64394572Y-36643850D01*
X64415443Y-36799314D01*
X64424949Y-36958956D01*
X64423173Y-37118973D01*
X64410197Y-37275561D01*
X64386106Y-37424918D01*
X64350982Y-37563240D01*
X64304908Y-37686724D01*
X64288627Y-37720978D01*
X64220380Y-37835064D01*
X64139921Y-37931557D01*
X64048430Y-38009670D01*
X63947089Y-38068617D01*
X63837080Y-38107612D01*
X63719585Y-38125868D01*
X63678117Y-38127211D01*
X63556559Y-38116290D01*
X63436122Y-38083474D01*
X63318334Y-38029439D01*
X63204723Y-37954865D01*
X63113315Y-37876539D01*
X63066785Y-37832008D01*
X62885517Y-38129271D01*
X62840420Y-38203433D01*
X62799181Y-38271646D01*
X62763265Y-38331459D01*
X62734134Y-38380420D01*
X62713250Y-38416079D01*
X62702076Y-38435984D01*
X62700625Y-38439079D01*
X62708854Y-38448718D01*
X62734433Y-38465999D01*
X62774127Y-38489283D01*
X62824703Y-38516934D01*
X62882926Y-38547315D01*
X62945563Y-38578790D01*
X63009379Y-38609722D01*
X63071140Y-38638473D01*
X63127612Y-38663408D01*
X63175562Y-38682889D01*
X63199014Y-38691318D01*
X63332779Y-38729133D01*
X63470673Y-38754136D01*
X63618378Y-38767140D01*
X63745167Y-38769468D01*
X63813122Y-38768373D01*
X63878723Y-38766275D01*
X63936153Y-38763434D01*
X63979597Y-38760106D01*
X63993702Y-38758422D01*
X64132716Y-38729587D01*
X64274243Y-38684468D01*
X64411725Y-38625750D01*
X64538606Y-38556120D01*
X64616111Y-38503441D01*
X64743519Y-38395239D01*
X64861822Y-38268671D01*
X64968828Y-38126866D01*
X65062348Y-37972951D01*
X65140190Y-37810053D01*
X65184044Y-37692756D01*
X65234292Y-37509128D01*
X65267791Y-37314581D01*
X65284551Y-37113325D01*
X65284584Y-36909568D01*
X65267899Y-36707521D01*
X65234507Y-36511392D01*
X65184420Y-36325391D01*
X65180603Y-36313803D01*
X65117719Y-36151750D01*
X65040972Y-36003832D01*
X64947758Y-35865865D01*
X64835473Y-35733661D01*
X64791608Y-35688399D01*
X64655466Y-35564457D01*
X64515509Y-35461915D01*
X64369589Y-35379656D01*
X64215558Y-35316564D01*
X64051268Y-35271523D01*
X63955711Y-35254033D01*
X63796977Y-35238466D01*
X63638571Y-35241071D01*
G36*
X61293426Y-36158552D02*
X61141508Y-36178567D01*
X61006244Y-36212202D01*
X60886761Y-36259725D01*
X60782185Y-36321405D01*
X60704576Y-36384965D01*
X60635735Y-36459099D01*
X60581994Y-36538871D01*
X60539090Y-36631091D01*
X60523616Y-36674161D01*
X60510756Y-36713142D01*
X60499554Y-36749289D01*
X60489880Y-36784434D01*
X60481604Y-36820410D01*
X60474597Y-36859050D01*
X60468728Y-36902185D01*
X60463869Y-36951649D01*
X60459890Y-37009273D01*
X60456660Y-37076891D01*
X60454051Y-37156334D01*
X60451933Y-37249436D01*
X60450176Y-37358027D01*
X60448651Y-37483942D01*
X60447228Y-37629012D01*
X60445975Y-37771778D01*
X60444649Y-37927968D01*
X60443444Y-38063239D01*
X60442234Y-38179246D01*
X60440894Y-38277645D01*
X60439300Y-38360093D01*
X60437325Y-38428246D01*
X60434844Y-38483760D01*
X60431731Y-38528292D01*
X60427862Y-38563498D01*
X60423111Y-38591034D01*
X60417352Y-38612556D01*
X60410461Y-38629722D01*
X60402311Y-38644186D01*
X60392777Y-38657606D01*
X60381734Y-38671638D01*
X60377434Y-38677071D01*
X60361614Y-38699910D01*
X60354578Y-38715463D01*
X60354556Y-38715922D01*
X60365433Y-38718121D01*
X60396418Y-38720147D01*
X60445043Y-38721942D01*
X60508837Y-38723451D01*
X60585331Y-38724616D01*
X60672056Y-38725380D01*
X60766543Y-38725686D01*
X60777450Y-38725689D01*
X61200343Y-38725689D01*
X61203605Y-38629622D01*
X61206867Y-38533556D01*
X61268956Y-38584543D01*
X61366286Y-38652057D01*
X61476187Y-38706749D01*
X61562651Y-38736978D01*
X61631722Y-38751666D01*
X61715075Y-38761659D01*
X61804841Y-38766646D01*
X61893155Y-38766313D01*
X61972149Y-38760351D01*
X62008378Y-38754638D01*
X62148397Y-38716776D01*
X62274822Y-38661932D01*
X62386740Y-38590924D01*
X62483238Y-38504568D01*
X62563400Y-38403679D01*
X62626313Y-38289076D01*
X62670688Y-38162984D01*
X62683022Y-38106401D01*
X62690632Y-38044202D01*
X62694261Y-37969363D01*
X62694755Y-37935467D01*
X62694690Y-37932282D01*
X61934752Y-37932282D01*
X61925459Y-38007333D01*
X61897272Y-38071160D01*
X61848803Y-38126798D01*
X61843746Y-38131211D01*
X61795452Y-38166037D01*
X61743743Y-38188620D01*
X61683011Y-38200540D01*
X61607648Y-38203383D01*
X61589541Y-38202978D01*
X61535722Y-38200325D01*
X61495692Y-38194909D01*
X61460676Y-38184745D01*
X61421897Y-38167850D01*
X61411255Y-38162672D01*
X61350604Y-38126844D01*
X61303785Y-38084212D01*
X61291048Y-38068973D01*
X61246378Y-38012462D01*
X61246378Y-37816586D01*
X61246914Y-37737939D01*
X61248604Y-37679988D01*
X61251572Y-37640875D01*
X61255943Y-37618741D01*
X61260028Y-37612274D01*
X61275953Y-37609111D01*
X61309736Y-37606488D01*
X61356660Y-37604655D01*
X61412007Y-37603857D01*
X61420894Y-37603842D01*
X61541670Y-37609096D01*
X61644340Y-37625263D01*
X61730894Y-37652961D01*
X61803319Y-37692808D01*
X61858249Y-37739758D01*
X61902796Y-37797645D01*
X61927520Y-37860693D01*
X61934752Y-37932282D01*
X62694690Y-37932282D01*
X62692822Y-37841712D01*
X62684478Y-37762812D01*
X62668232Y-37691590D01*
X62642595Y-37620864D01*
X62618599Y-37568493D01*
X62559980Y-37473196D01*
X62481883Y-37385170D01*
X62386685Y-37306017D01*
X62276762Y-37237340D01*
X62154490Y-37180741D01*
X62022245Y-37137821D01*
X61957578Y-37122882D01*
X61821396Y-37100777D01*
X61672951Y-37086194D01*
X61521495Y-37079813D01*
X61394936Y-37081445D01*
X61233050Y-37088224D01*
X61240470Y-37029245D01*
X61259762Y-36930092D01*
X61290896Y-36849372D01*
X61334731Y-36786466D01*
X61392129Y-36740756D01*
X61463952Y-36711622D01*
X61551059Y-36698447D01*
X61654314Y-36700611D01*
X61692289Y-36704612D01*
X61833480Y-36729780D01*
X61970293Y-36770814D01*
X62064822Y-36808815D01*
X62109982Y-36828190D01*
X62148415Y-36843760D01*
X62174766Y-36853405D01*
X62182454Y-36855452D01*
X62192198Y-36846374D01*
X62208917Y-36817405D01*
X62232768Y-36768217D01*
X62263907Y-36698484D01*
X62302493Y-36607879D01*
X62309090Y-36592089D01*
X62339147Y-36519772D01*
X62366126Y-36454425D01*
X62388864Y-36398906D01*
X62406194Y-36356072D01*
X62416952Y-36328781D01*
X62420059Y-36319942D01*
X62410060Y-36315187D01*
X62383783Y-36309910D01*
X62355511Y-36306231D01*
X62325354Y-36301474D01*
X62277567Y-36292028D01*
X62216388Y-36278820D01*
X62146054Y-36262776D01*
X62070806Y-36244820D01*
X62042245Y-36237797D01*
X61937184Y-36212209D01*
X61849520Y-36192147D01*
X61774932Y-36176969D01*
X61709097Y-36166035D01*
X61647693Y-36158704D01*
X61586398Y-36154335D01*
X61520890Y-36152287D01*
X61462872Y-36151889D01*
X61293426Y-36158552D01*
X61293426Y-36158552D01*
G37*
X61293426Y-36158552D02*
X61141508Y-36178567D01*
X61006244Y-36212202D01*
X60886761Y-36259725D01*
X60782185Y-36321405D01*
X60704576Y-36384965D01*
X60635735Y-36459099D01*
X60581994Y-36538871D01*
X60539090Y-36631091D01*
X60523616Y-36674161D01*
X60510756Y-36713142D01*
X60499554Y-36749289D01*
X60489880Y-36784434D01*
X60481604Y-36820410D01*
X60474597Y-36859050D01*
X60468728Y-36902185D01*
X60463869Y-36951649D01*
X60459890Y-37009273D01*
X60456660Y-37076891D01*
X60454051Y-37156334D01*
X60451933Y-37249436D01*
X60450176Y-37358027D01*
X60448651Y-37483942D01*
X60447228Y-37629012D01*
X60445975Y-37771778D01*
X60444649Y-37927968D01*
X60443444Y-38063239D01*
X60442234Y-38179246D01*
X60440894Y-38277645D01*
X60439300Y-38360093D01*
X60437325Y-38428246D01*
X60434844Y-38483760D01*
X60431731Y-38528292D01*
X60427862Y-38563498D01*
X60423111Y-38591034D01*
X60417352Y-38612556D01*
X60410461Y-38629722D01*
X60402311Y-38644186D01*
X60392777Y-38657606D01*
X60381734Y-38671638D01*
X60377434Y-38677071D01*
X60361614Y-38699910D01*
X60354578Y-38715463D01*
X60354556Y-38715922D01*
X60365433Y-38718121D01*
X60396418Y-38720147D01*
X60445043Y-38721942D01*
X60508837Y-38723451D01*
X60585331Y-38724616D01*
X60672056Y-38725380D01*
X60766543Y-38725686D01*
X60777450Y-38725689D01*
X61200343Y-38725689D01*
X61203605Y-38629622D01*
X61206867Y-38533556D01*
X61268956Y-38584543D01*
X61366286Y-38652057D01*
X61476187Y-38706749D01*
X61562651Y-38736978D01*
X61631722Y-38751666D01*
X61715075Y-38761659D01*
X61804841Y-38766646D01*
X61893155Y-38766313D01*
X61972149Y-38760351D01*
X62008378Y-38754638D01*
X62148397Y-38716776D01*
X62274822Y-38661932D01*
X62386740Y-38590924D01*
X62483238Y-38504568D01*
X62563400Y-38403679D01*
X62626313Y-38289076D01*
X62670688Y-38162984D01*
X62683022Y-38106401D01*
X62690632Y-38044202D01*
X62694261Y-37969363D01*
X62694755Y-37935467D01*
X62694690Y-37932282D01*
X61934752Y-37932282D01*
X61925459Y-38007333D01*
X61897272Y-38071160D01*
X61848803Y-38126798D01*
X61843746Y-38131211D01*
X61795452Y-38166037D01*
X61743743Y-38188620D01*
X61683011Y-38200540D01*
X61607648Y-38203383D01*
X61589541Y-38202978D01*
X61535722Y-38200325D01*
X61495692Y-38194909D01*
X61460676Y-38184745D01*
X61421897Y-38167850D01*
X61411255Y-38162672D01*
X61350604Y-38126844D01*
X61303785Y-38084212D01*
X61291048Y-38068973D01*
X61246378Y-38012462D01*
X61246378Y-37816586D01*
X61246914Y-37737939D01*
X61248604Y-37679988D01*
X61251572Y-37640875D01*
X61255943Y-37618741D01*
X61260028Y-37612274D01*
X61275953Y-37609111D01*
X61309736Y-37606488D01*
X61356660Y-37604655D01*
X61412007Y-37603857D01*
X61420894Y-37603842D01*
X61541670Y-37609096D01*
X61644340Y-37625263D01*
X61730894Y-37652961D01*
X61803319Y-37692808D01*
X61858249Y-37739758D01*
X61902796Y-37797645D01*
X61927520Y-37860693D01*
X61934752Y-37932282D01*
X62694690Y-37932282D01*
X62692822Y-37841712D01*
X62684478Y-37762812D01*
X62668232Y-37691590D01*
X62642595Y-37620864D01*
X62618599Y-37568493D01*
X62559980Y-37473196D01*
X62481883Y-37385170D01*
X62386685Y-37306017D01*
X62276762Y-37237340D01*
X62154490Y-37180741D01*
X62022245Y-37137821D01*
X61957578Y-37122882D01*
X61821396Y-37100777D01*
X61672951Y-37086194D01*
X61521495Y-37079813D01*
X61394936Y-37081445D01*
X61233050Y-37088224D01*
X61240470Y-37029245D01*
X61259762Y-36930092D01*
X61290896Y-36849372D01*
X61334731Y-36786466D01*
X61392129Y-36740756D01*
X61463952Y-36711622D01*
X61551059Y-36698447D01*
X61654314Y-36700611D01*
X61692289Y-36704612D01*
X61833480Y-36729780D01*
X61970293Y-36770814D01*
X62064822Y-36808815D01*
X62109982Y-36828190D01*
X62148415Y-36843760D01*
X62174766Y-36853405D01*
X62182454Y-36855452D01*
X62192198Y-36846374D01*
X62208917Y-36817405D01*
X62232768Y-36768217D01*
X62263907Y-36698484D01*
X62302493Y-36607879D01*
X62309090Y-36592089D01*
X62339147Y-36519772D01*
X62366126Y-36454425D01*
X62388864Y-36398906D01*
X62406194Y-36356072D01*
X62416952Y-36328781D01*
X62420059Y-36319942D01*
X62410060Y-36315187D01*
X62383783Y-36309910D01*
X62355511Y-36306231D01*
X62325354Y-36301474D01*
X62277567Y-36292028D01*
X62216388Y-36278820D01*
X62146054Y-36262776D01*
X62070806Y-36244820D01*
X62042245Y-36237797D01*
X61937184Y-36212209D01*
X61849520Y-36192147D01*
X61774932Y-36176969D01*
X61709097Y-36166035D01*
X61647693Y-36158704D01*
X61586398Y-36154335D01*
X61520890Y-36152287D01*
X61462872Y-36151889D01*
X61293426Y-36158552D01*
G36*
X57780493Y-36764245D02*
X57780474Y-36998662D01*
X57780448Y-37211603D01*
X57780375Y-37404168D01*
X57780218Y-37577459D01*
X57779936Y-37732576D01*
X57779491Y-37870620D01*
X57778844Y-37992692D01*
X57777955Y-38099894D01*
X57776787Y-38193326D01*
X57775299Y-38274090D01*
X57773454Y-38343286D01*
X57771211Y-38402015D01*
X57768531Y-38451379D01*
X57765377Y-38492478D01*
X57761708Y-38526413D01*
X57757487Y-38554286D01*
X57752673Y-38577198D01*
X57747227Y-38596249D01*
X57741112Y-38612540D01*
X57734288Y-38627173D01*
X57726715Y-38641249D01*
X57718355Y-38655868D01*
X57713161Y-38664974D01*
X57678896Y-38725689D01*
X58537045Y-38725689D01*
X58537045Y-38629733D01*
X58537776Y-38586370D01*
X58539728Y-38553205D01*
X58542537Y-38535424D01*
X58543779Y-38533778D01*
X58555201Y-38540662D01*
X58577916Y-38558505D01*
X58600615Y-38577879D01*
X58655200Y-38618614D01*
X58724679Y-38659617D01*
X58801730Y-38697123D01*
X58879035Y-38727364D01*
X58909887Y-38737012D01*
X58978384Y-38751578D01*
X59061236Y-38761539D01*
X59150629Y-38766583D01*
X59238752Y-38766396D01*
X59317793Y-38760666D01*
X59355489Y-38754858D01*
X59493586Y-38716797D01*
X59620887Y-38659073D01*
X59736708Y-38582211D01*
X59840363Y-38486739D01*
X59931167Y-38373179D01*
X59997969Y-38262381D01*
X60052836Y-38145625D01*
X60094837Y-38026276D01*
X60124833Y-37900283D01*
X60143689Y-37763594D01*
X60152268Y-37612158D01*
X60152994Y-37534711D01*
X60150900Y-37477934D01*
X59321783Y-37477934D01*
X59321576Y-37571002D01*
X59318663Y-37658692D01*
X59313000Y-37735772D01*
X59304545Y-37797009D01*
X59301962Y-37809350D01*
X59270160Y-37916633D01*
X59228502Y-38003658D01*
X59176637Y-38070642D01*
X59114219Y-38117805D01*
X59040900Y-38145365D01*
X58956331Y-38153541D01*
X58860165Y-38142551D01*
X58796689Y-38126829D01*
X58747546Y-38108639D01*
X58693417Y-38082791D01*
X58652756Y-38059089D01*
X58582200Y-38012721D01*
X58582200Y-36862530D01*
X58649608Y-36818962D01*
X58728133Y-36778040D01*
X58812319Y-36751389D01*
X58897443Y-36739465D01*
X58978784Y-36742722D01*
X59051620Y-36761615D01*
X59083574Y-36777184D01*
X59141499Y-36820181D01*
X59190456Y-36876953D01*
X59231610Y-36949575D01*
X59266126Y-37040121D01*
X59295167Y-37150666D01*
X59296448Y-37156533D01*
X59306619Y-37218788D01*
X59314261Y-37296594D01*
X59319330Y-37384720D01*
X59321783Y-37477934D01*
X60150900Y-37477934D01*
X60145143Y-37321895D01*
X60123198Y-37126059D01*
X60087214Y-36947332D01*
X60037241Y-36785845D01*
X59973332Y-36641726D01*
X59895538Y-36515106D01*
X59803911Y-36406115D01*
X59698503Y-36314883D01*
X59653338Y-36283932D01*
X59552389Y-36227785D01*
X59449099Y-36188174D01*
X59339011Y-36164014D01*
X59217670Y-36154219D01*
X59125164Y-36155265D01*
X58995510Y-36166231D01*
X58882916Y-36188046D01*
X58784125Y-36221714D01*
X58695879Y-36268236D01*
X58647014Y-36302448D01*
X58617647Y-36324362D01*
X58595957Y-36339333D01*
X58587747Y-36343733D01*
X58586132Y-36332904D01*
X58584841Y-36302251D01*
X58583862Y-36254526D01*
X58583183Y-36192479D01*
X58582790Y-36118862D01*
X58582670Y-36036427D01*
X58582812Y-35947925D01*
X58583203Y-35856107D01*
X58583829Y-35763724D01*
X58584680Y-35673528D01*
X58585740Y-35588271D01*
X58586999Y-35510703D01*
X58588444Y-35443576D01*
X58590062Y-35389641D01*
X58591839Y-35351650D01*
X58592331Y-35344667D01*
X58599908Y-35274251D01*
X58611469Y-35219102D01*
X58629208Y-35171981D01*
X58655318Y-35125647D01*
X58661585Y-35116067D01*
X58686017Y-35079378D01*
X57780689Y-35079378D01*
X57780493Y-36764245D01*
X57780493Y-36764245D01*
G37*
X57780493Y-36764245D02*
X57780474Y-36998662D01*
X57780448Y-37211603D01*
X57780375Y-37404168D01*
X57780218Y-37577459D01*
X57779936Y-37732576D01*
X57779491Y-37870620D01*
X57778844Y-37992692D01*
X57777955Y-38099894D01*
X57776787Y-38193326D01*
X57775299Y-38274090D01*
X57773454Y-38343286D01*
X57771211Y-38402015D01*
X57768531Y-38451379D01*
X57765377Y-38492478D01*
X57761708Y-38526413D01*
X57757487Y-38554286D01*
X57752673Y-38577198D01*
X57747227Y-38596249D01*
X57741112Y-38612540D01*
X57734288Y-38627173D01*
X57726715Y-38641249D01*
X57718355Y-38655868D01*
X57713161Y-38664974D01*
X57678896Y-38725689D01*
X58537045Y-38725689D01*
X58537045Y-38629733D01*
X58537776Y-38586370D01*
X58539728Y-38553205D01*
X58542537Y-38535424D01*
X58543779Y-38533778D01*
X58555201Y-38540662D01*
X58577916Y-38558505D01*
X58600615Y-38577879D01*
X58655200Y-38618614D01*
X58724679Y-38659617D01*
X58801730Y-38697123D01*
X58879035Y-38727364D01*
X58909887Y-38737012D01*
X58978384Y-38751578D01*
X59061236Y-38761539D01*
X59150629Y-38766583D01*
X59238752Y-38766396D01*
X59317793Y-38760666D01*
X59355489Y-38754858D01*
X59493586Y-38716797D01*
X59620887Y-38659073D01*
X59736708Y-38582211D01*
X59840363Y-38486739D01*
X59931167Y-38373179D01*
X59997969Y-38262381D01*
X60052836Y-38145625D01*
X60094837Y-38026276D01*
X60124833Y-37900283D01*
X60143689Y-37763594D01*
X60152268Y-37612158D01*
X60152994Y-37534711D01*
X60150900Y-37477934D01*
X59321783Y-37477934D01*
X59321576Y-37571002D01*
X59318663Y-37658692D01*
X59313000Y-37735772D01*
X59304545Y-37797009D01*
X59301962Y-37809350D01*
X59270160Y-37916633D01*
X59228502Y-38003658D01*
X59176637Y-38070642D01*
X59114219Y-38117805D01*
X59040900Y-38145365D01*
X58956331Y-38153541D01*
X58860165Y-38142551D01*
X58796689Y-38126829D01*
X58747546Y-38108639D01*
X58693417Y-38082791D01*
X58652756Y-38059089D01*
X58582200Y-38012721D01*
X58582200Y-36862530D01*
X58649608Y-36818962D01*
X58728133Y-36778040D01*
X58812319Y-36751389D01*
X58897443Y-36739465D01*
X58978784Y-36742722D01*
X59051620Y-36761615D01*
X59083574Y-36777184D01*
X59141499Y-36820181D01*
X59190456Y-36876953D01*
X59231610Y-36949575D01*
X59266126Y-37040121D01*
X59295167Y-37150666D01*
X59296448Y-37156533D01*
X59306619Y-37218788D01*
X59314261Y-37296594D01*
X59319330Y-37384720D01*
X59321783Y-37477934D01*
X60150900Y-37477934D01*
X60145143Y-37321895D01*
X60123198Y-37126059D01*
X60087214Y-36947332D01*
X60037241Y-36785845D01*
X59973332Y-36641726D01*
X59895538Y-36515106D01*
X59803911Y-36406115D01*
X59698503Y-36314883D01*
X59653338Y-36283932D01*
X59552389Y-36227785D01*
X59449099Y-36188174D01*
X59339011Y-36164014D01*
X59217670Y-36154219D01*
X59125164Y-36155265D01*
X58995510Y-36166231D01*
X58882916Y-36188046D01*
X58784125Y-36221714D01*
X58695879Y-36268236D01*
X58647014Y-36302448D01*
X58617647Y-36324362D01*
X58595957Y-36339333D01*
X58587747Y-36343733D01*
X58586132Y-36332904D01*
X58584841Y-36302251D01*
X58583862Y-36254526D01*
X58583183Y-36192479D01*
X58582790Y-36118862D01*
X58582670Y-36036427D01*
X58582812Y-35947925D01*
X58583203Y-35856107D01*
X58583829Y-35763724D01*
X58584680Y-35673528D01*
X58585740Y-35588271D01*
X58586999Y-35510703D01*
X58588444Y-35443576D01*
X58590062Y-35389641D01*
X58591839Y-35351650D01*
X58592331Y-35344667D01*
X58599908Y-35274251D01*
X58611469Y-35219102D01*
X58629208Y-35171981D01*
X58655318Y-35125647D01*
X58661585Y-35116067D01*
X58686017Y-35079378D01*
X57780689Y-35079378D01*
X57780493Y-36764245D01*
G36*
X66240043Y-34318571D02*
X66143768Y-34342809D01*
X66057184Y-34385641D01*
X65982373Y-34445419D01*
X65921418Y-34520494D01*
X65876399Y-34609220D01*
X65850136Y-34705530D01*
X65844286Y-34802795D01*
X65859140Y-34896654D01*
X65892840Y-34984511D01*
X65943528Y-35063770D01*
X66009345Y-35131836D01*
X66088434Y-35186112D01*
X66178934Y-35224002D01*
X66230200Y-35236426D01*
X66274698Y-35243947D01*
X66308999Y-35246919D01*
X66341960Y-35245094D01*
X66382434Y-35238225D01*
X66415531Y-35231250D01*
X66508947Y-35199741D01*
X66592619Y-35148617D01*
X66664665Y-35079429D01*
X66723200Y-34993728D01*
X66737148Y-34966489D01*
X66753586Y-34930122D01*
X66763894Y-34899582D01*
X66769460Y-34867450D01*
X66771669Y-34826307D01*
X66771948Y-34780222D01*
X66767861Y-34695865D01*
X66754446Y-34626586D01*
X66729256Y-34565961D01*
X66689846Y-34507567D01*
X66651298Y-34463302D01*
X66579406Y-34397484D01*
X66504313Y-34352053D01*
X66421562Y-34324850D01*
X66343928Y-34314576D01*
X66240043Y-34318571D01*
X66240043Y-34318571D01*
G37*
X66240043Y-34318571D02*
X66143768Y-34342809D01*
X66057184Y-34385641D01*
X65982373Y-34445419D01*
X65921418Y-34520494D01*
X65876399Y-34609220D01*
X65850136Y-34705530D01*
X65844286Y-34802795D01*
X65859140Y-34896654D01*
X65892840Y-34984511D01*
X65943528Y-35063770D01*
X66009345Y-35131836D01*
X66088434Y-35186112D01*
X66178934Y-35224002D01*
X66230200Y-35236426D01*
X66274698Y-35243947D01*
X66308999Y-35246919D01*
X66341960Y-35245094D01*
X66382434Y-35238225D01*
X66415531Y-35231250D01*
X66508947Y-35199741D01*
X66592619Y-35148617D01*
X66664665Y-35079429D01*
X66723200Y-34993728D01*
X66737148Y-34966489D01*
X66753586Y-34930122D01*
X66763894Y-34899582D01*
X66769460Y-34867450D01*
X66771669Y-34826307D01*
X66771948Y-34780222D01*
X66767861Y-34695865D01*
X66754446Y-34626586D01*
X66729256Y-34565961D01*
X66689846Y-34507567D01*
X66651298Y-34463302D01*
X66579406Y-34397484D01*
X66504313Y-34352053D01*
X66421562Y-34324850D01*
X66343928Y-34314576D01*
X66240043Y-34318571D01*
D16*
X52068461Y-45473131D02*
G75*
G03X52068461Y-45473131I-10000500J0D01*
G01*
D10*
X31423047Y-54202857D02*
X31423047Y-54702857D01*
X31423047Y-54226666D02*
X31375428Y-54202857D01*
X31280190Y-54202857D01*
X31232571Y-54226666D01*
X31208761Y-54250476D01*
X31184952Y-54298095D01*
X31184952Y-54440952D01*
X31208761Y-54488571D01*
X31232571Y-54512380D01*
X31280190Y-54536190D01*
X31375428Y-54536190D01*
X31423047Y-54512380D01*
X30756380Y-54512380D02*
X30804000Y-54536190D01*
X30899238Y-54536190D01*
X30946857Y-54512380D01*
X30970666Y-54488571D01*
X30994476Y-54440952D01*
X30994476Y-54298095D01*
X30970666Y-54250476D01*
X30946857Y-54226666D01*
X30899238Y-54202857D01*
X30804000Y-54202857D01*
X30756380Y-54226666D01*
X30542095Y-54536190D02*
X30542095Y-54036190D01*
X30542095Y-54226666D02*
X30494476Y-54202857D01*
X30399238Y-54202857D01*
X30351619Y-54226666D01*
X30327809Y-54250476D01*
X30304000Y-54298095D01*
X30304000Y-54440952D01*
X30327809Y-54488571D01*
X30351619Y-54512380D01*
X30399238Y-54536190D01*
X30494476Y-54536190D01*
X30542095Y-54512380D01*
X30089714Y-54536190D02*
X30089714Y-54202857D01*
X30089714Y-54298095D02*
X30065904Y-54250476D01*
X30042095Y-54226666D01*
X29994476Y-54202857D01*
X29946857Y-54202857D01*
X29589714Y-54512380D02*
X29637333Y-54536190D01*
X29732571Y-54536190D01*
X29780190Y-54512380D01*
X29804000Y-54464761D01*
X29804000Y-54274285D01*
X29780190Y-54226666D01*
X29732571Y-54202857D01*
X29637333Y-54202857D01*
X29589714Y-54226666D01*
X29565904Y-54274285D01*
X29565904Y-54321904D01*
X29804000Y-54369523D01*
X29423047Y-54202857D02*
X29232571Y-54202857D01*
X29351619Y-54536190D02*
X29351619Y-54107619D01*
X29327809Y-54060000D01*
X29280190Y-54036190D01*
X29232571Y-54036190D01*
X28994476Y-54536190D02*
X29042095Y-54512380D01*
X29065904Y-54464761D01*
X29065904Y-54036190D01*
X28589714Y-54202857D02*
X28589714Y-54536190D01*
X28804000Y-54202857D02*
X28804000Y-54464761D01*
X28780190Y-54512380D01*
X28732571Y-54536190D01*
X28661142Y-54536190D01*
X28613523Y-54512380D01*
X28589714Y-54488571D01*
X28399238Y-54536190D02*
X28137333Y-54202857D01*
X28399238Y-54202857D02*
X28137333Y-54536190D01*
D14*
X48949675Y-45401702D02*
X48806818Y-45449321D01*
X48759199Y-45496940D01*
X48711580Y-45592178D01*
X48711580Y-45735035D01*
X48759199Y-45830273D01*
X48806818Y-45877892D01*
X48902056Y-45925511D01*
X49283008Y-45925511D01*
X49283008Y-44925511D01*
X48949675Y-44925511D01*
X48854437Y-44973131D01*
X48806818Y-45020750D01*
X48759199Y-45115988D01*
X48759199Y-45211226D01*
X48806818Y-45306464D01*
X48854437Y-45354083D01*
X48949675Y-45401702D01*
X49283008Y-45401702D01*
X48425865Y-44925511D02*
X47854437Y-44925511D01*
X48140151Y-45925511D02*
X48140151Y-44925511D01*
X46997294Y-45925511D02*
X47568722Y-45925511D01*
X47283008Y-45925511D02*
X47283008Y-44925511D01*
X47378246Y-45068369D01*
X47473484Y-45163607D01*
X47568722Y-45211226D01*
M02*
