M48
;DRILL file {KiCad no-vcs-found} date Fri Jan  6 11:39:14 2017
;FORMAT={-:-/ absolute / metric / decimal}
FMAT,2
METRIC,TZ
T1C0.300
T2C0.400
T3C1.000
T4C0.300
%
G90
G05
M71
T1
X46.695Y-53.294
X53.299Y-55.834
X58.956Y-43.322
X58.956Y-44.322
X58.956Y-45.322
X58.956Y-46.322
X58.956Y-47.322
X59.903Y-50.627
X59.956Y-43.322
X59.956Y-44.322
X59.956Y-45.322
X59.956Y-46.322
X59.956Y-47.322
X60.956Y-43.322
X60.956Y-44.322
X60.956Y-45.322
X60.956Y-46.322
X60.956Y-47.322
X61.956Y-43.322
X61.956Y-44.322
X61.956Y-45.322
X61.956Y-46.322
X61.956Y-47.322
X62.956Y-43.322
X62.956Y-44.322
X62.956Y-45.322
X62.956Y-46.322
X62.956Y-47.322
X69.555Y-38.308
X69.555Y-39.451
X69.555Y-40.467
X69.555Y-41.483
X69.555Y-42.626
X69.555Y-43.642
X69.555Y-44.658
X69.555Y-45.674
X69.555Y-46.69
X69.555Y-47.706
X69.555Y-48.722
X69.555Y-49.738
X69.555Y-50.754
X69.555Y-51.77
T2
X43.139Y-55.072
X47.706Y-36.027
X47.706Y-38.43
X48.346Y-52.913
X48.981Y-39.705
X66.126Y-39.197
X67.396Y-37.673
T3
X55.077Y-58.12
X57.617Y-58.12
X60.157Y-58.12
X62.697Y-58.12
X65.237Y-58.12
T4
X32.Y-34.
X32.Y-60.
X32.5Y-34.
X32.5Y-60.
X33.Y-34.
X33.Y-60.
X33.5Y-34.
X33.5Y-60.
X34.Y-34.
X34.Y-60.
X63.Y-34.
X63.Y-60.
X63.5Y-34.
X63.5Y-60.
X64.Y-34.
X64.Y-60.
X64.5Y-34.
X64.5Y-60.
X65.Y-34.
X65.Y-60.
T0
M30
