G04 #@! TF.GenerationSoftware,KiCad,Pcbnew,no-vcs-found*
G04 #@! TF.CreationDate,2017-01-06T11:39:05+01:00*
G04 #@! TF.ProjectId,ESP32-HELP-Button-CR2032,45535033322D48454C502D427574746F,rev?*
G04 #@! TF.FileFunction,Copper,L1,Top,Signal*
G04 #@! TF.FilePolarity,Positive*
%FSLAX46Y46*%
G04 Gerber Fmt 4.6, Leading zero omitted, Abs format (unit mm)*
G04 Created by KiCad (PCBNEW no-vcs-found) date Fri Jan  6 11:39:05 2017*
%MOMM*%
%LPD*%
G01*
G04 APERTURE LIST*
%ADD10C,0.100000*%
%ADD11C,0.600000*%
%ADD12R,1.300000X2.340000*%
%ADD13R,0.800000X0.800000*%
%ADD14O,1.700000X1.700000*%
%ADD15R,1.700000X1.700000*%
%ADD16R,1.000760X0.599440*%
%ADD17R,1.000760X0.899160*%
%ADD18C,0.800000*%
%ADD19R,6.000000X6.000000*%
%ADD20R,0.900000X1.350000*%
%ADD21R,1.350000X0.900000*%
%ADD22R,0.899160X1.000760*%
%ADD23R,1.600200X1.803400*%
%ADD24C,0.250000*%
%ADD25C,0.254000*%
G04 APERTURE END LIST*
D10*
D11*
X69555000Y-38308000D03*
X69555000Y-51770000D03*
X69555000Y-50754000D03*
X69555000Y-49738000D03*
X69555000Y-48722000D03*
X69555000Y-47706000D03*
X69555000Y-46690000D03*
X69555000Y-45674000D03*
X69555000Y-44658000D03*
X69555000Y-43642000D03*
X69555000Y-42626000D03*
X69555000Y-41483000D03*
X69555000Y-40467000D03*
X69555000Y-39451000D03*
X46695000Y-53294000D03*
X53299000Y-55834000D03*
X59903000Y-50627000D03*
D12*
X40853000Y-36657000D03*
X40853000Y-54997000D03*
D13*
X35011000Y-43896000D03*
X35011000Y-42296000D03*
X31455000Y-42245000D03*
X31455000Y-43845000D03*
D14*
X55077000Y-58120000D03*
X57617000Y-58120000D03*
X60157000Y-58120000D03*
X62697000Y-58120000D03*
D15*
X65237000Y-58120000D03*
D16*
X45846640Y-41102000D03*
X43733360Y-40149500D03*
X45846640Y-39197000D03*
D17*
X46695000Y-46817000D03*
X46695000Y-45313320D03*
X35011000Y-48722000D03*
X35011000Y-47218320D03*
X31328000Y-47218320D03*
X31328000Y-48722000D03*
D18*
X62956000Y-43322000D03*
D19*
X60956000Y-45322000D03*
D20*
X68666000Y-36022000D03*
X67396000Y-36022000D03*
X66126000Y-36022000D03*
X64856000Y-36022000D03*
X63586000Y-36022000D03*
X62316000Y-36022000D03*
X61046000Y-36022000D03*
X59776000Y-36022000D03*
X58506000Y-36022000D03*
X57236000Y-36022000D03*
X55966000Y-36022000D03*
X54696000Y-36022000D03*
X53426000Y-36022000D03*
X52156000Y-36022000D03*
D21*
X50656000Y-39322000D03*
X50656000Y-40592000D03*
X50656000Y-41862000D03*
X50656000Y-43132000D03*
X50656000Y-44402000D03*
X50656000Y-45672000D03*
X50656000Y-46942000D03*
X50656000Y-48212000D03*
X50656000Y-49482000D03*
X50656000Y-50752000D03*
D20*
X52156000Y-54052000D03*
X53426000Y-54052000D03*
X54696000Y-54052000D03*
X55966000Y-54052000D03*
X57236000Y-54052000D03*
X58506000Y-54052000D03*
X59776000Y-54052000D03*
X61046000Y-54052000D03*
X62316000Y-54052000D03*
X63586000Y-54052000D03*
X64856000Y-54052000D03*
X66126000Y-54052000D03*
X67396000Y-54052000D03*
X68666000Y-54052000D03*
D18*
X61956000Y-43322000D03*
X60956000Y-43322000D03*
X59956000Y-43322000D03*
X58956000Y-43322000D03*
X58956000Y-44322000D03*
X59956000Y-44322000D03*
X60956000Y-44322000D03*
X61956000Y-44322000D03*
X62956000Y-44322000D03*
X62956000Y-46322000D03*
X61956000Y-46322000D03*
X60956000Y-46322000D03*
X59956000Y-46322000D03*
X58956000Y-46322000D03*
X58956000Y-45322000D03*
X59956000Y-45322000D03*
X60956000Y-45322000D03*
X61956000Y-45322000D03*
X62956000Y-45322000D03*
X58956000Y-47322000D03*
X59956000Y-47322000D03*
X60956000Y-47322000D03*
X61956000Y-47322000D03*
X62956000Y-47322000D03*
D22*
X47457000Y-54691000D03*
X45953320Y-54691000D03*
D23*
X47838000Y-57358000D03*
X45044000Y-57358000D03*
D18*
X43139000Y-55072000D03*
X48981000Y-39705000D03*
X67396000Y-37673000D03*
X48346000Y-52913000D03*
X66126000Y-39197000D03*
X47706347Y-38430347D03*
X47706347Y-36026653D03*
D24*
X44663000Y-39630260D02*
X44663000Y-53548000D01*
X44663000Y-53548000D02*
X43139000Y-55072000D01*
X45846640Y-39197000D02*
X45096260Y-39197000D01*
X45096260Y-39197000D02*
X44663000Y-39630260D01*
X40853000Y-54997000D02*
X43064000Y-54997000D01*
X43064000Y-54997000D02*
X43139000Y-55072000D01*
X45953320Y-54691000D02*
X45953320Y-53940620D01*
X45953320Y-53940620D02*
X45425000Y-53412300D01*
X45425000Y-53412300D02*
X45425000Y-45547000D01*
X45425000Y-45547000D02*
X45658680Y-45313320D01*
X45658680Y-45313320D02*
X46695000Y-45313320D01*
X45924300Y-55326000D02*
X45924300Y-54720020D01*
X45924300Y-54720020D02*
X45953320Y-54691000D01*
X45044000Y-57358000D02*
X45044000Y-56206300D01*
X45044000Y-56206300D02*
X45924300Y-55326000D01*
X46695000Y-41991000D02*
X48581001Y-40104999D01*
X46695000Y-45313320D02*
X46695000Y-41991000D01*
X48581001Y-40104999D02*
X48981000Y-39705000D01*
X67396000Y-37673000D02*
X67396000Y-36022000D01*
X35011000Y-43896000D02*
X35011000Y-47218320D01*
X43393000Y-37673000D02*
X55240000Y-37673000D01*
X55240000Y-37673000D02*
X55966000Y-36947000D01*
X55966000Y-36947000D02*
X55966000Y-36022000D01*
X41869000Y-39197000D02*
X43393000Y-37673000D01*
X37460000Y-39197000D02*
X41869000Y-39197000D01*
X35011000Y-42296000D02*
X35011000Y-41646000D01*
X35011000Y-41646000D02*
X37460000Y-39197000D01*
X43264590Y-37165000D02*
X54478000Y-37165000D01*
X54478000Y-37165000D02*
X54696000Y-36947000D01*
X54696000Y-36947000D02*
X54696000Y-36022000D01*
X34361000Y-38689000D02*
X41740590Y-38689000D01*
X41740590Y-38689000D02*
X43264590Y-37165000D01*
X31455000Y-42245000D02*
X31455000Y-41595000D01*
X31455000Y-41595000D02*
X34361000Y-38689000D01*
X31455000Y-43845000D02*
X31455000Y-47091320D01*
X31455000Y-47091320D02*
X31328000Y-47218320D01*
X52156000Y-54052000D02*
X52156000Y-56596000D01*
X52156000Y-56596000D02*
X53680000Y-58120000D01*
X53680000Y-58120000D02*
X55077000Y-58120000D01*
X57617000Y-58120000D02*
X60157000Y-55580000D01*
X60157000Y-55580000D02*
X62983000Y-55580000D01*
X62983000Y-55580000D02*
X63586000Y-54977000D01*
X63586000Y-54977000D02*
X63586000Y-54052000D01*
X60157000Y-58120000D02*
X62062000Y-56215000D01*
X62062000Y-56215000D02*
X63618000Y-56215000D01*
X63618000Y-56215000D02*
X64856000Y-54977000D01*
X64856000Y-54977000D02*
X64856000Y-54052000D01*
X48346000Y-52913000D02*
X47780315Y-52913000D01*
X47780315Y-52913000D02*
X46695000Y-51827685D01*
X46695000Y-47516580D02*
X46695000Y-46817000D01*
X46695000Y-51827685D02*
X46695000Y-47516580D01*
X66126000Y-36947000D02*
X66126000Y-39197000D01*
X66126000Y-36022000D02*
X66126000Y-36947000D01*
X57236000Y-36022000D02*
X57236000Y-36947000D01*
X57236000Y-36947000D02*
X55875000Y-38308000D01*
X55875000Y-38308000D02*
X48854000Y-38308000D01*
X48854000Y-38308000D02*
X46060000Y-41102000D01*
X46060000Y-41102000D02*
X45806000Y-41102000D01*
X45806000Y-41102000D02*
X45794380Y-41102000D01*
X68666000Y-54052000D02*
X68666000Y-51643000D01*
X68666000Y-51643000D02*
X68666000Y-36022000D01*
X43647000Y-40785580D02*
X43647000Y-46563000D01*
X43647000Y-46563000D02*
X41361000Y-48849000D01*
X43733360Y-40149500D02*
X43733360Y-40699220D01*
X43733360Y-40699220D02*
X43647000Y-40785580D01*
X44282000Y-38308000D02*
X43733360Y-38856640D01*
X43733360Y-38856640D02*
X43733360Y-40149500D01*
X47018315Y-38308000D02*
X44282000Y-38308000D01*
X47706347Y-38430347D02*
X47140662Y-38430347D01*
X47140662Y-38430347D02*
X47018315Y-38308000D01*
X47706347Y-36026653D02*
X47140662Y-36026653D01*
X47140662Y-36026653D02*
X46510315Y-36657000D01*
X46510315Y-36657000D02*
X46314000Y-36657000D01*
X47330000Y-38398000D02*
X47674000Y-38398000D01*
X47674000Y-38398000D02*
X47706347Y-38430347D01*
X31328000Y-48722000D02*
X35011000Y-48722000D01*
X35188800Y-48849000D02*
X41361000Y-48849000D01*
X35011000Y-48722000D02*
X35061800Y-48722000D01*
X35061800Y-48722000D02*
X35188800Y-48849000D01*
X40853000Y-36657000D02*
X46314000Y-36657000D01*
X65237000Y-58120000D02*
X66337000Y-58120000D01*
X66337000Y-58120000D02*
X68666000Y-55791000D01*
X68666000Y-55791000D02*
X68666000Y-54977000D01*
X68666000Y-54977000D02*
X68666000Y-54052000D01*
D25*
G36*
X68344046Y-34271705D02*
X68497954Y-34502046D01*
X68728295Y-34655954D01*
X69000000Y-34710000D01*
X69482470Y-34710000D01*
X69508321Y-34735851D01*
X69827346Y-34867995D01*
X70037373Y-34909772D01*
X70069058Y-34930943D01*
X70090228Y-34962627D01*
X70132005Y-35172654D01*
X70264149Y-35491679D01*
X70290000Y-35517530D01*
X70290000Y-58930070D01*
X70255074Y-59105655D01*
X70195225Y-59195226D01*
X70105655Y-59255074D01*
X69861487Y-59303642D01*
X69605546Y-59409657D01*
X69409657Y-59605544D01*
X69339236Y-59775556D01*
X27867994Y-59892706D01*
X27867994Y-59827344D01*
X27735851Y-59508319D01*
X27491679Y-59264149D01*
X27172654Y-59132005D01*
X26962627Y-59090228D01*
X26930943Y-59069058D01*
X26909772Y-59037373D01*
X26885000Y-58912836D01*
X26885000Y-49007750D01*
X30192620Y-49007750D01*
X30192620Y-49297889D01*
X30289293Y-49531278D01*
X30467921Y-49709907D01*
X30701310Y-49806580D01*
X31042250Y-49806580D01*
X31201000Y-49647830D01*
X31201000Y-48849000D01*
X31455000Y-48849000D01*
X31455000Y-49647830D01*
X31613750Y-49806580D01*
X31954690Y-49806580D01*
X32188079Y-49709907D01*
X32366707Y-49531278D01*
X32463380Y-49297889D01*
X32463380Y-49007750D01*
X33875620Y-49007750D01*
X33875620Y-49297889D01*
X33972293Y-49531278D01*
X34150921Y-49709907D01*
X34384310Y-49806580D01*
X34725250Y-49806580D01*
X34884000Y-49647830D01*
X34884000Y-48849000D01*
X35138000Y-48849000D01*
X35138000Y-49647830D01*
X35296750Y-49806580D01*
X35637690Y-49806580D01*
X35871079Y-49709907D01*
X36049707Y-49531278D01*
X36146380Y-49297889D01*
X36146380Y-49007750D01*
X35987630Y-48849000D01*
X35138000Y-48849000D01*
X34884000Y-48849000D01*
X34034370Y-48849000D01*
X33875620Y-49007750D01*
X32463380Y-49007750D01*
X32304630Y-48849000D01*
X31455000Y-48849000D01*
X31201000Y-48849000D01*
X30351370Y-48849000D01*
X30192620Y-49007750D01*
X26885000Y-49007750D01*
X26885000Y-46768740D01*
X30180180Y-46768740D01*
X30180180Y-47667900D01*
X30229463Y-47915665D01*
X30265645Y-47969814D01*
X30192620Y-48146111D01*
X30192620Y-48436250D01*
X30351370Y-48595000D01*
X31201000Y-48595000D01*
X31201000Y-48575000D01*
X31455000Y-48575000D01*
X31455000Y-48595000D01*
X32304630Y-48595000D01*
X32463380Y-48436250D01*
X32463380Y-48146111D01*
X32390355Y-47969814D01*
X32426537Y-47915665D01*
X32475820Y-47667900D01*
X32475820Y-46768740D01*
X32426537Y-46520975D01*
X32286189Y-46310931D01*
X32215000Y-46263364D01*
X32215000Y-44768163D01*
X32312809Y-44702809D01*
X32453157Y-44492765D01*
X32502440Y-44245000D01*
X32502440Y-43445000D01*
X32453157Y-43197235D01*
X32351436Y-43045000D01*
X32453157Y-42892765D01*
X32502440Y-42645000D01*
X32502440Y-41845000D01*
X32465502Y-41659300D01*
X34675802Y-39449000D01*
X36133198Y-39449000D01*
X34473599Y-41108599D01*
X34334177Y-41317259D01*
X34153191Y-41438191D01*
X34012843Y-41648235D01*
X33963560Y-41896000D01*
X33963560Y-42696000D01*
X34012843Y-42943765D01*
X34114564Y-43096000D01*
X34012843Y-43248235D01*
X33963560Y-43496000D01*
X33963560Y-44296000D01*
X34012843Y-44543765D01*
X34153191Y-44753809D01*
X34251000Y-44819163D01*
X34251000Y-46178504D01*
X34052811Y-46310931D01*
X33912463Y-46520975D01*
X33863180Y-46768740D01*
X33863180Y-47667900D01*
X33912463Y-47915665D01*
X33948645Y-47969814D01*
X33875620Y-48146111D01*
X33875620Y-48436250D01*
X34034370Y-48595000D01*
X34884000Y-48595000D01*
X34884000Y-48575000D01*
X35138000Y-48575000D01*
X35138000Y-48595000D01*
X35987630Y-48595000D01*
X36146380Y-48436250D01*
X36146380Y-48146111D01*
X36073355Y-47969814D01*
X36109537Y-47915665D01*
X36158820Y-47667900D01*
X36158820Y-46768740D01*
X36109537Y-46520975D01*
X35969189Y-46310931D01*
X35771000Y-46178504D01*
X35771000Y-44819163D01*
X35868809Y-44753809D01*
X36009157Y-44543765D01*
X36058440Y-44296000D01*
X36058440Y-43496000D01*
X36009157Y-43248235D01*
X35907436Y-43096000D01*
X36009157Y-42943765D01*
X36058440Y-42696000D01*
X36058440Y-41896000D01*
X36021502Y-41710300D01*
X37296552Y-40435250D01*
X42597980Y-40435250D01*
X42597980Y-40575529D01*
X42694653Y-40808918D01*
X42873281Y-40987547D01*
X43106670Y-41084220D01*
X43447610Y-41084220D01*
X43606360Y-40925470D01*
X43606360Y-40276500D01*
X42756730Y-40276500D01*
X42597980Y-40435250D01*
X37296552Y-40435250D01*
X37774802Y-39957000D01*
X41869000Y-39957000D01*
X42159839Y-39899148D01*
X42406401Y-39734401D01*
X42417331Y-39723471D01*
X42597980Y-39723471D01*
X42597980Y-39863750D01*
X42756730Y-40022500D01*
X43606360Y-40022500D01*
X43606360Y-39373530D01*
X43447610Y-39214780D01*
X43106670Y-39214780D01*
X42873281Y-39311453D01*
X42694653Y-39490082D01*
X42597980Y-39723471D01*
X42417331Y-39723471D01*
X43707802Y-38433000D01*
X44898135Y-38433000D01*
X44888451Y-38439471D01*
X44858501Y-38484293D01*
X44805420Y-38494852D01*
X44558859Y-38659599D01*
X44125599Y-39092859D01*
X44044134Y-39214780D01*
X44019110Y-39214780D01*
X43860360Y-39373530D01*
X43860360Y-40022500D01*
X43880360Y-40022500D01*
X43880360Y-40276500D01*
X43860360Y-40276500D01*
X43860360Y-40925470D01*
X43903000Y-40968110D01*
X43903000Y-53233198D01*
X43099233Y-54036965D01*
X42934029Y-54036821D01*
X42553485Y-54194058D01*
X42510468Y-54237000D01*
X42150440Y-54237000D01*
X42150440Y-53827000D01*
X42101157Y-53579235D01*
X41960809Y-53369191D01*
X41750765Y-53228843D01*
X41503000Y-53179560D01*
X40203000Y-53179560D01*
X39955235Y-53228843D01*
X39745191Y-53369191D01*
X39604843Y-53579235D01*
X39555560Y-53827000D01*
X39555560Y-56167000D01*
X39604843Y-56414765D01*
X39745191Y-56624809D01*
X39955235Y-56765157D01*
X40203000Y-56814440D01*
X41503000Y-56814440D01*
X41750765Y-56765157D01*
X41960809Y-56624809D01*
X42101157Y-56414765D01*
X42150440Y-56167000D01*
X42150440Y-55757000D01*
X42360370Y-55757000D01*
X42551954Y-55948919D01*
X42932223Y-56106820D01*
X43343971Y-56107179D01*
X43724515Y-55949942D01*
X44015919Y-55659046D01*
X44173820Y-55278777D01*
X44173966Y-55111836D01*
X44856300Y-54429502D01*
X44856300Y-55191380D01*
X44877506Y-55297992D01*
X44506599Y-55668899D01*
X44413080Y-55808860D01*
X44243900Y-55808860D01*
X43996135Y-55858143D01*
X43786091Y-55998491D01*
X43645743Y-56208535D01*
X43596460Y-56456300D01*
X43596460Y-58259700D01*
X43645743Y-58507465D01*
X43786091Y-58717509D01*
X43996135Y-58857857D01*
X44243900Y-58907140D01*
X45844100Y-58907140D01*
X46091865Y-58857857D01*
X46301909Y-58717509D01*
X46442257Y-58507465D01*
X46445810Y-58489603D01*
X46499573Y-58619399D01*
X46678202Y-58798027D01*
X46911591Y-58894700D01*
X47552250Y-58894700D01*
X47711000Y-58735950D01*
X47711000Y-57485000D01*
X47965000Y-57485000D01*
X47965000Y-58735950D01*
X48123750Y-58894700D01*
X48764409Y-58894700D01*
X48997798Y-58798027D01*
X49176427Y-58619399D01*
X49273100Y-58386010D01*
X49273100Y-57643750D01*
X49114350Y-57485000D01*
X47965000Y-57485000D01*
X47711000Y-57485000D01*
X47691000Y-57485000D01*
X47691000Y-57231000D01*
X47711000Y-57231000D01*
X47711000Y-57211000D01*
X47965000Y-57211000D01*
X47965000Y-57231000D01*
X49114350Y-57231000D01*
X49273100Y-57072250D01*
X49273100Y-56329990D01*
X49176427Y-56096601D01*
X48997798Y-55917973D01*
X48764409Y-55821300D01*
X48123750Y-55821300D01*
X47965002Y-55980048D01*
X47965002Y-55826380D01*
X48032889Y-55826380D01*
X48266278Y-55729707D01*
X48444907Y-55551079D01*
X48541580Y-55317690D01*
X48541580Y-54976750D01*
X48382830Y-54818000D01*
X47584000Y-54818000D01*
X47584000Y-54838000D01*
X47330000Y-54838000D01*
X47330000Y-54818000D01*
X47310000Y-54818000D01*
X47310000Y-54564000D01*
X47330000Y-54564000D01*
X47330000Y-54544000D01*
X47584000Y-54544000D01*
X47584000Y-54564000D01*
X48382830Y-54564000D01*
X48541580Y-54405250D01*
X48541580Y-54064310D01*
X48493456Y-53948129D01*
X48550971Y-53948179D01*
X48931515Y-53790942D01*
X49222919Y-53500046D01*
X49274012Y-53377000D01*
X51058560Y-53377000D01*
X51058560Y-54727000D01*
X51107843Y-54974765D01*
X51248191Y-55184809D01*
X51396000Y-55283573D01*
X51396000Y-56596000D01*
X51453852Y-56886839D01*
X51618599Y-57133401D01*
X53142599Y-58657401D01*
X53389160Y-58822148D01*
X53437414Y-58831746D01*
X53680000Y-58880000D01*
X53813699Y-58880000D01*
X54026946Y-59199147D01*
X54508715Y-59521054D01*
X55077000Y-59634093D01*
X55645285Y-59521054D01*
X56127054Y-59199147D01*
X56347000Y-58869974D01*
X56566946Y-59199147D01*
X57048715Y-59521054D01*
X57617000Y-59634093D01*
X58185285Y-59521054D01*
X58667054Y-59199147D01*
X58887000Y-58869974D01*
X59106946Y-59199147D01*
X59588715Y-59521054D01*
X60157000Y-59634093D01*
X60725285Y-59521054D01*
X61207054Y-59199147D01*
X61427000Y-58869974D01*
X61646946Y-59199147D01*
X62128715Y-59521054D01*
X62697000Y-59634093D01*
X63265285Y-59521054D01*
X63747054Y-59199147D01*
X63776403Y-59155223D01*
X63848673Y-59329698D01*
X64027301Y-59508327D01*
X64260690Y-59605000D01*
X64951250Y-59605000D01*
X65110000Y-59446250D01*
X65110000Y-58247000D01*
X65364000Y-58247000D01*
X65364000Y-59446250D01*
X65522750Y-59605000D01*
X66213310Y-59605000D01*
X66446699Y-59508327D01*
X66625327Y-59329698D01*
X66722000Y-59096309D01*
X66722000Y-58405750D01*
X66563250Y-58247000D01*
X65364000Y-58247000D01*
X65110000Y-58247000D01*
X65090000Y-58247000D01*
X65090000Y-57993000D01*
X65110000Y-57993000D01*
X65110000Y-56793750D01*
X65364000Y-56793750D01*
X65364000Y-57993000D01*
X66563250Y-57993000D01*
X66722000Y-57834250D01*
X66722000Y-57143691D01*
X66625327Y-56910302D01*
X66446699Y-56731673D01*
X66213310Y-56635000D01*
X65522750Y-56635000D01*
X65364000Y-56793750D01*
X65110000Y-56793750D01*
X64951250Y-56635000D01*
X64272802Y-56635000D01*
X65393401Y-55514401D01*
X65509102Y-55341242D01*
X65676000Y-55374440D01*
X66576000Y-55374440D01*
X66761000Y-55337642D01*
X66946000Y-55374440D01*
X67846000Y-55374440D01*
X68030921Y-55337657D01*
X68089690Y-55362000D01*
X68380250Y-55362000D01*
X68539000Y-55203250D01*
X68539000Y-54179000D01*
X68793000Y-54179000D01*
X68793000Y-55203250D01*
X68951750Y-55362000D01*
X69242310Y-55362000D01*
X69475699Y-55265327D01*
X69654327Y-55086698D01*
X69751000Y-54853309D01*
X69751000Y-54337750D01*
X69592250Y-54179000D01*
X68793000Y-54179000D01*
X68539000Y-54179000D01*
X68519000Y-54179000D01*
X68519000Y-53925000D01*
X68539000Y-53925000D01*
X68539000Y-52900750D01*
X68793000Y-52900750D01*
X68793000Y-53925000D01*
X69592250Y-53925000D01*
X69751000Y-53766250D01*
X69751000Y-53250691D01*
X69654327Y-53017302D01*
X69475699Y-52838673D01*
X69242310Y-52742000D01*
X68951750Y-52742000D01*
X68793000Y-52900750D01*
X68539000Y-52900750D01*
X68380250Y-52742000D01*
X68089690Y-52742000D01*
X68030921Y-52766343D01*
X67846000Y-52729560D01*
X66946000Y-52729560D01*
X66761000Y-52766358D01*
X66576000Y-52729560D01*
X65676000Y-52729560D01*
X65491000Y-52766358D01*
X65306000Y-52729560D01*
X64406000Y-52729560D01*
X64221000Y-52766358D01*
X64036000Y-52729560D01*
X63136000Y-52729560D01*
X62951000Y-52766358D01*
X62766000Y-52729560D01*
X61866000Y-52729560D01*
X61681000Y-52766358D01*
X61496000Y-52729560D01*
X60596000Y-52729560D01*
X60411000Y-52766358D01*
X60226000Y-52729560D01*
X59326000Y-52729560D01*
X59141000Y-52766358D01*
X58956000Y-52729560D01*
X58056000Y-52729560D01*
X57871000Y-52766358D01*
X57686000Y-52729560D01*
X56786000Y-52729560D01*
X56601000Y-52766358D01*
X56416000Y-52729560D01*
X55516000Y-52729560D01*
X55331000Y-52766358D01*
X55146000Y-52729560D01*
X54246000Y-52729560D01*
X54061000Y-52766358D01*
X53876000Y-52729560D01*
X52976000Y-52729560D01*
X52791000Y-52766358D01*
X52606000Y-52729560D01*
X51706000Y-52729560D01*
X51458235Y-52778843D01*
X51248191Y-52919191D01*
X51107843Y-53129235D01*
X51058560Y-53377000D01*
X49274012Y-53377000D01*
X49380820Y-53119777D01*
X49381179Y-52708029D01*
X49223942Y-52327485D01*
X48933046Y-52036081D01*
X48552777Y-51878180D01*
X48141029Y-51877821D01*
X47913819Y-51971702D01*
X47455000Y-51512883D01*
X47455000Y-47856816D01*
X47653189Y-47724389D01*
X47793537Y-47514345D01*
X47842820Y-47266580D01*
X47842820Y-46367420D01*
X47793537Y-46119655D01*
X47757124Y-46065160D01*
X47793537Y-46010665D01*
X47842820Y-45762900D01*
X47842820Y-44863740D01*
X47793537Y-44615975D01*
X47653189Y-44405931D01*
X47455000Y-44273504D01*
X47455000Y-42305802D01*
X49020767Y-40740035D01*
X49185971Y-40740179D01*
X49333560Y-40679197D01*
X49333560Y-41042000D01*
X49370358Y-41227000D01*
X49333560Y-41412000D01*
X49333560Y-42312000D01*
X49370358Y-42497000D01*
X49333560Y-42682000D01*
X49333560Y-43582000D01*
X49370358Y-43767000D01*
X49333560Y-43952000D01*
X49333560Y-44852000D01*
X49370358Y-45037000D01*
X49333560Y-45222000D01*
X49333560Y-46122000D01*
X49370358Y-46307000D01*
X49333560Y-46492000D01*
X49333560Y-47392000D01*
X49370358Y-47577000D01*
X49333560Y-47762000D01*
X49333560Y-48662000D01*
X49370358Y-48847000D01*
X49333560Y-49032000D01*
X49333560Y-49932000D01*
X49370358Y-50117000D01*
X49333560Y-50302000D01*
X49333560Y-51202000D01*
X49382843Y-51449765D01*
X49523191Y-51659809D01*
X49733235Y-51800157D01*
X49981000Y-51849440D01*
X51331000Y-51849440D01*
X51578765Y-51800157D01*
X51788809Y-51659809D01*
X51929157Y-51449765D01*
X51978440Y-51202000D01*
X51978440Y-50302000D01*
X51941642Y-50117000D01*
X51978440Y-49932000D01*
X51978440Y-49032000D01*
X51941642Y-48847000D01*
X51978440Y-48662000D01*
X51978440Y-47762000D01*
X51941642Y-47577000D01*
X51978440Y-47392000D01*
X51978440Y-46492000D01*
X51941642Y-46307000D01*
X51978440Y-46122000D01*
X51978440Y-45222000D01*
X51941642Y-45037000D01*
X51978440Y-44852000D01*
X51978440Y-43952000D01*
X51941642Y-43767000D01*
X51978440Y-43582000D01*
X51978440Y-42682000D01*
X51941642Y-42497000D01*
X51976450Y-42322000D01*
X57308560Y-42322000D01*
X57308560Y-48322000D01*
X57357843Y-48569765D01*
X57498191Y-48779809D01*
X57708235Y-48920157D01*
X57956000Y-48969440D01*
X63956000Y-48969440D01*
X64203765Y-48920157D01*
X64413809Y-48779809D01*
X64554157Y-48569765D01*
X64603440Y-48322000D01*
X64603440Y-42322000D01*
X64554157Y-42074235D01*
X64413809Y-41864191D01*
X64203765Y-41723843D01*
X63956000Y-41674560D01*
X57956000Y-41674560D01*
X57708235Y-41723843D01*
X57498191Y-41864191D01*
X57357843Y-42074235D01*
X57308560Y-42322000D01*
X51976450Y-42322000D01*
X51978440Y-42312000D01*
X51978440Y-41412000D01*
X51941642Y-41227000D01*
X51978440Y-41042000D01*
X51978440Y-40142000D01*
X51941642Y-39957000D01*
X51978440Y-39772000D01*
X51978440Y-39068000D01*
X55875000Y-39068000D01*
X56165839Y-39010148D01*
X56412401Y-38845401D01*
X57773401Y-37484401D01*
X57889102Y-37311242D01*
X58056000Y-37344440D01*
X58956000Y-37344440D01*
X59141000Y-37307642D01*
X59326000Y-37344440D01*
X60226000Y-37344440D01*
X60411000Y-37307642D01*
X60596000Y-37344440D01*
X61496000Y-37344440D01*
X61681000Y-37307642D01*
X61866000Y-37344440D01*
X62766000Y-37344440D01*
X62951000Y-37307642D01*
X63136000Y-37344440D01*
X64036000Y-37344440D01*
X64221000Y-37307642D01*
X64406000Y-37344440D01*
X65306000Y-37344440D01*
X65366000Y-37332505D01*
X65366000Y-38493239D01*
X65249081Y-38609954D01*
X65091180Y-38990223D01*
X65090821Y-39401971D01*
X65248058Y-39782515D01*
X65538954Y-40073919D01*
X65919223Y-40231820D01*
X66330971Y-40232179D01*
X66711515Y-40074942D01*
X67002919Y-39784046D01*
X67160820Y-39403777D01*
X67161179Y-38992029D01*
X67013618Y-38634903D01*
X67189223Y-38707820D01*
X67600971Y-38708179D01*
X67981515Y-38550942D01*
X68272919Y-38260046D01*
X68430820Y-37879777D01*
X68431179Y-37468029D01*
X68374973Y-37332000D01*
X68380250Y-37332000D01*
X68539000Y-37173250D01*
X68539000Y-36149000D01*
X68793000Y-36149000D01*
X68793000Y-37173250D01*
X68951750Y-37332000D01*
X69242310Y-37332000D01*
X69475699Y-37235327D01*
X69654327Y-37056698D01*
X69751000Y-36823309D01*
X69751000Y-36307750D01*
X69592250Y-36149000D01*
X68793000Y-36149000D01*
X68539000Y-36149000D01*
X68519000Y-36149000D01*
X68519000Y-35895000D01*
X68539000Y-35895000D01*
X68539000Y-34870750D01*
X68793000Y-34870750D01*
X68793000Y-35895000D01*
X69592250Y-35895000D01*
X69751000Y-35736250D01*
X69751000Y-35220691D01*
X69654327Y-34987302D01*
X69475699Y-34808673D01*
X69242310Y-34712000D01*
X68951750Y-34712000D01*
X68793000Y-34870750D01*
X68539000Y-34870750D01*
X68380250Y-34712000D01*
X68089690Y-34712000D01*
X68030921Y-34736343D01*
X67846000Y-34699560D01*
X66946000Y-34699560D01*
X66761000Y-34736358D01*
X66576000Y-34699560D01*
X65676000Y-34699560D01*
X65491000Y-34736358D01*
X65306000Y-34699560D01*
X64406000Y-34699560D01*
X64221000Y-34736358D01*
X64036000Y-34699560D01*
X63136000Y-34699560D01*
X62951000Y-34736358D01*
X62766000Y-34699560D01*
X61866000Y-34699560D01*
X61681000Y-34736358D01*
X61496000Y-34699560D01*
X60596000Y-34699560D01*
X60411000Y-34736358D01*
X60226000Y-34699560D01*
X59326000Y-34699560D01*
X59141000Y-34736358D01*
X58956000Y-34699560D01*
X58056000Y-34699560D01*
X57871000Y-34736358D01*
X57686000Y-34699560D01*
X56786000Y-34699560D01*
X56601000Y-34736358D01*
X56416000Y-34699560D01*
X55516000Y-34699560D01*
X55331000Y-34736358D01*
X55146000Y-34699560D01*
X54246000Y-34699560D01*
X54061000Y-34736358D01*
X53876000Y-34699560D01*
X52976000Y-34699560D01*
X52791000Y-34736358D01*
X52606000Y-34699560D01*
X51706000Y-34699560D01*
X51458235Y-34748843D01*
X51248191Y-34889191D01*
X51107843Y-35099235D01*
X51058560Y-35347000D01*
X51058560Y-36405000D01*
X43264590Y-36405000D01*
X43022004Y-36453254D01*
X42973750Y-36462852D01*
X42727189Y-36627599D01*
X42138000Y-37216788D01*
X42138000Y-36942750D01*
X41979250Y-36784000D01*
X40980000Y-36784000D01*
X40980000Y-36804000D01*
X40726000Y-36804000D01*
X40726000Y-36784000D01*
X39726750Y-36784000D01*
X39568000Y-36942750D01*
X39568000Y-37929000D01*
X34361000Y-37929000D01*
X34070161Y-37986852D01*
X33823599Y-38151599D01*
X30917599Y-41057599D01*
X30778177Y-41266259D01*
X30597191Y-41387191D01*
X30456843Y-41597235D01*
X30407560Y-41845000D01*
X30407560Y-42645000D01*
X30456843Y-42892765D01*
X30558564Y-43045000D01*
X30456843Y-43197235D01*
X30407560Y-43445000D01*
X30407560Y-44245000D01*
X30456843Y-44492765D01*
X30597191Y-44702809D01*
X30695000Y-44768163D01*
X30695000Y-46147679D01*
X30579855Y-46170583D01*
X30369811Y-46310931D01*
X30229463Y-46520975D01*
X30180180Y-46768740D01*
X26885000Y-46768740D01*
X26885000Y-35360691D01*
X39568000Y-35360691D01*
X39568000Y-36371250D01*
X39726750Y-36530000D01*
X40726000Y-36530000D01*
X40726000Y-35010750D01*
X40980000Y-35010750D01*
X40980000Y-36530000D01*
X41979250Y-36530000D01*
X42138000Y-36371250D01*
X42138000Y-35360691D01*
X42041327Y-35127302D01*
X41862699Y-34948673D01*
X41629310Y-34852000D01*
X41138750Y-34852000D01*
X40980000Y-35010750D01*
X40726000Y-35010750D01*
X40567250Y-34852000D01*
X40076690Y-34852000D01*
X39843301Y-34948673D01*
X39664673Y-35127302D01*
X39568000Y-35360691D01*
X26885000Y-35360691D01*
X26885000Y-35087164D01*
X26909772Y-34962627D01*
X26930943Y-34930942D01*
X26962627Y-34909772D01*
X27172654Y-34867995D01*
X27491679Y-34735851D01*
X27735851Y-34491681D01*
X27867994Y-34172656D01*
X27867994Y-34117000D01*
X68313273Y-34117000D01*
X68344046Y-34271705D01*
X68344046Y-34271705D01*
G37*
X68344046Y-34271705D02*
X68497954Y-34502046D01*
X68728295Y-34655954D01*
X69000000Y-34710000D01*
X69482470Y-34710000D01*
X69508321Y-34735851D01*
X69827346Y-34867995D01*
X70037373Y-34909772D01*
X70069058Y-34930943D01*
X70090228Y-34962627D01*
X70132005Y-35172654D01*
X70264149Y-35491679D01*
X70290000Y-35517530D01*
X70290000Y-58930070D01*
X70255074Y-59105655D01*
X70195225Y-59195226D01*
X70105655Y-59255074D01*
X69861487Y-59303642D01*
X69605546Y-59409657D01*
X69409657Y-59605544D01*
X69339236Y-59775556D01*
X27867994Y-59892706D01*
X27867994Y-59827344D01*
X27735851Y-59508319D01*
X27491679Y-59264149D01*
X27172654Y-59132005D01*
X26962627Y-59090228D01*
X26930943Y-59069058D01*
X26909772Y-59037373D01*
X26885000Y-58912836D01*
X26885000Y-49007750D01*
X30192620Y-49007750D01*
X30192620Y-49297889D01*
X30289293Y-49531278D01*
X30467921Y-49709907D01*
X30701310Y-49806580D01*
X31042250Y-49806580D01*
X31201000Y-49647830D01*
X31201000Y-48849000D01*
X31455000Y-48849000D01*
X31455000Y-49647830D01*
X31613750Y-49806580D01*
X31954690Y-49806580D01*
X32188079Y-49709907D01*
X32366707Y-49531278D01*
X32463380Y-49297889D01*
X32463380Y-49007750D01*
X33875620Y-49007750D01*
X33875620Y-49297889D01*
X33972293Y-49531278D01*
X34150921Y-49709907D01*
X34384310Y-49806580D01*
X34725250Y-49806580D01*
X34884000Y-49647830D01*
X34884000Y-48849000D01*
X35138000Y-48849000D01*
X35138000Y-49647830D01*
X35296750Y-49806580D01*
X35637690Y-49806580D01*
X35871079Y-49709907D01*
X36049707Y-49531278D01*
X36146380Y-49297889D01*
X36146380Y-49007750D01*
X35987630Y-48849000D01*
X35138000Y-48849000D01*
X34884000Y-48849000D01*
X34034370Y-48849000D01*
X33875620Y-49007750D01*
X32463380Y-49007750D01*
X32304630Y-48849000D01*
X31455000Y-48849000D01*
X31201000Y-48849000D01*
X30351370Y-48849000D01*
X30192620Y-49007750D01*
X26885000Y-49007750D01*
X26885000Y-46768740D01*
X30180180Y-46768740D01*
X30180180Y-47667900D01*
X30229463Y-47915665D01*
X30265645Y-47969814D01*
X30192620Y-48146111D01*
X30192620Y-48436250D01*
X30351370Y-48595000D01*
X31201000Y-48595000D01*
X31201000Y-48575000D01*
X31455000Y-48575000D01*
X31455000Y-48595000D01*
X32304630Y-48595000D01*
X32463380Y-48436250D01*
X32463380Y-48146111D01*
X32390355Y-47969814D01*
X32426537Y-47915665D01*
X32475820Y-47667900D01*
X32475820Y-46768740D01*
X32426537Y-46520975D01*
X32286189Y-46310931D01*
X32215000Y-46263364D01*
X32215000Y-44768163D01*
X32312809Y-44702809D01*
X32453157Y-44492765D01*
X32502440Y-44245000D01*
X32502440Y-43445000D01*
X32453157Y-43197235D01*
X32351436Y-43045000D01*
X32453157Y-42892765D01*
X32502440Y-42645000D01*
X32502440Y-41845000D01*
X32465502Y-41659300D01*
X34675802Y-39449000D01*
X36133198Y-39449000D01*
X34473599Y-41108599D01*
X34334177Y-41317259D01*
X34153191Y-41438191D01*
X34012843Y-41648235D01*
X33963560Y-41896000D01*
X33963560Y-42696000D01*
X34012843Y-42943765D01*
X34114564Y-43096000D01*
X34012843Y-43248235D01*
X33963560Y-43496000D01*
X33963560Y-44296000D01*
X34012843Y-44543765D01*
X34153191Y-44753809D01*
X34251000Y-44819163D01*
X34251000Y-46178504D01*
X34052811Y-46310931D01*
X33912463Y-46520975D01*
X33863180Y-46768740D01*
X33863180Y-47667900D01*
X33912463Y-47915665D01*
X33948645Y-47969814D01*
X33875620Y-48146111D01*
X33875620Y-48436250D01*
X34034370Y-48595000D01*
X34884000Y-48595000D01*
X34884000Y-48575000D01*
X35138000Y-48575000D01*
X35138000Y-48595000D01*
X35987630Y-48595000D01*
X36146380Y-48436250D01*
X36146380Y-48146111D01*
X36073355Y-47969814D01*
X36109537Y-47915665D01*
X36158820Y-47667900D01*
X36158820Y-46768740D01*
X36109537Y-46520975D01*
X35969189Y-46310931D01*
X35771000Y-46178504D01*
X35771000Y-44819163D01*
X35868809Y-44753809D01*
X36009157Y-44543765D01*
X36058440Y-44296000D01*
X36058440Y-43496000D01*
X36009157Y-43248235D01*
X35907436Y-43096000D01*
X36009157Y-42943765D01*
X36058440Y-42696000D01*
X36058440Y-41896000D01*
X36021502Y-41710300D01*
X37296552Y-40435250D01*
X42597980Y-40435250D01*
X42597980Y-40575529D01*
X42694653Y-40808918D01*
X42873281Y-40987547D01*
X43106670Y-41084220D01*
X43447610Y-41084220D01*
X43606360Y-40925470D01*
X43606360Y-40276500D01*
X42756730Y-40276500D01*
X42597980Y-40435250D01*
X37296552Y-40435250D01*
X37774802Y-39957000D01*
X41869000Y-39957000D01*
X42159839Y-39899148D01*
X42406401Y-39734401D01*
X42417331Y-39723471D01*
X42597980Y-39723471D01*
X42597980Y-39863750D01*
X42756730Y-40022500D01*
X43606360Y-40022500D01*
X43606360Y-39373530D01*
X43447610Y-39214780D01*
X43106670Y-39214780D01*
X42873281Y-39311453D01*
X42694653Y-39490082D01*
X42597980Y-39723471D01*
X42417331Y-39723471D01*
X43707802Y-38433000D01*
X44898135Y-38433000D01*
X44888451Y-38439471D01*
X44858501Y-38484293D01*
X44805420Y-38494852D01*
X44558859Y-38659599D01*
X44125599Y-39092859D01*
X44044134Y-39214780D01*
X44019110Y-39214780D01*
X43860360Y-39373530D01*
X43860360Y-40022500D01*
X43880360Y-40022500D01*
X43880360Y-40276500D01*
X43860360Y-40276500D01*
X43860360Y-40925470D01*
X43903000Y-40968110D01*
X43903000Y-53233198D01*
X43099233Y-54036965D01*
X42934029Y-54036821D01*
X42553485Y-54194058D01*
X42510468Y-54237000D01*
X42150440Y-54237000D01*
X42150440Y-53827000D01*
X42101157Y-53579235D01*
X41960809Y-53369191D01*
X41750765Y-53228843D01*
X41503000Y-53179560D01*
X40203000Y-53179560D01*
X39955235Y-53228843D01*
X39745191Y-53369191D01*
X39604843Y-53579235D01*
X39555560Y-53827000D01*
X39555560Y-56167000D01*
X39604843Y-56414765D01*
X39745191Y-56624809D01*
X39955235Y-56765157D01*
X40203000Y-56814440D01*
X41503000Y-56814440D01*
X41750765Y-56765157D01*
X41960809Y-56624809D01*
X42101157Y-56414765D01*
X42150440Y-56167000D01*
X42150440Y-55757000D01*
X42360370Y-55757000D01*
X42551954Y-55948919D01*
X42932223Y-56106820D01*
X43343971Y-56107179D01*
X43724515Y-55949942D01*
X44015919Y-55659046D01*
X44173820Y-55278777D01*
X44173966Y-55111836D01*
X44856300Y-54429502D01*
X44856300Y-55191380D01*
X44877506Y-55297992D01*
X44506599Y-55668899D01*
X44413080Y-55808860D01*
X44243900Y-55808860D01*
X43996135Y-55858143D01*
X43786091Y-55998491D01*
X43645743Y-56208535D01*
X43596460Y-56456300D01*
X43596460Y-58259700D01*
X43645743Y-58507465D01*
X43786091Y-58717509D01*
X43996135Y-58857857D01*
X44243900Y-58907140D01*
X45844100Y-58907140D01*
X46091865Y-58857857D01*
X46301909Y-58717509D01*
X46442257Y-58507465D01*
X46445810Y-58489603D01*
X46499573Y-58619399D01*
X46678202Y-58798027D01*
X46911591Y-58894700D01*
X47552250Y-58894700D01*
X47711000Y-58735950D01*
X47711000Y-57485000D01*
X47965000Y-57485000D01*
X47965000Y-58735950D01*
X48123750Y-58894700D01*
X48764409Y-58894700D01*
X48997798Y-58798027D01*
X49176427Y-58619399D01*
X49273100Y-58386010D01*
X49273100Y-57643750D01*
X49114350Y-57485000D01*
X47965000Y-57485000D01*
X47711000Y-57485000D01*
X47691000Y-57485000D01*
X47691000Y-57231000D01*
X47711000Y-57231000D01*
X47711000Y-57211000D01*
X47965000Y-57211000D01*
X47965000Y-57231000D01*
X49114350Y-57231000D01*
X49273100Y-57072250D01*
X49273100Y-56329990D01*
X49176427Y-56096601D01*
X48997798Y-55917973D01*
X48764409Y-55821300D01*
X48123750Y-55821300D01*
X47965002Y-55980048D01*
X47965002Y-55826380D01*
X48032889Y-55826380D01*
X48266278Y-55729707D01*
X48444907Y-55551079D01*
X48541580Y-55317690D01*
X48541580Y-54976750D01*
X48382830Y-54818000D01*
X47584000Y-54818000D01*
X47584000Y-54838000D01*
X47330000Y-54838000D01*
X47330000Y-54818000D01*
X47310000Y-54818000D01*
X47310000Y-54564000D01*
X47330000Y-54564000D01*
X47330000Y-54544000D01*
X47584000Y-54544000D01*
X47584000Y-54564000D01*
X48382830Y-54564000D01*
X48541580Y-54405250D01*
X48541580Y-54064310D01*
X48493456Y-53948129D01*
X48550971Y-53948179D01*
X48931515Y-53790942D01*
X49222919Y-53500046D01*
X49274012Y-53377000D01*
X51058560Y-53377000D01*
X51058560Y-54727000D01*
X51107843Y-54974765D01*
X51248191Y-55184809D01*
X51396000Y-55283573D01*
X51396000Y-56596000D01*
X51453852Y-56886839D01*
X51618599Y-57133401D01*
X53142599Y-58657401D01*
X53389160Y-58822148D01*
X53437414Y-58831746D01*
X53680000Y-58880000D01*
X53813699Y-58880000D01*
X54026946Y-59199147D01*
X54508715Y-59521054D01*
X55077000Y-59634093D01*
X55645285Y-59521054D01*
X56127054Y-59199147D01*
X56347000Y-58869974D01*
X56566946Y-59199147D01*
X57048715Y-59521054D01*
X57617000Y-59634093D01*
X58185285Y-59521054D01*
X58667054Y-59199147D01*
X58887000Y-58869974D01*
X59106946Y-59199147D01*
X59588715Y-59521054D01*
X60157000Y-59634093D01*
X60725285Y-59521054D01*
X61207054Y-59199147D01*
X61427000Y-58869974D01*
X61646946Y-59199147D01*
X62128715Y-59521054D01*
X62697000Y-59634093D01*
X63265285Y-59521054D01*
X63747054Y-59199147D01*
X63776403Y-59155223D01*
X63848673Y-59329698D01*
X64027301Y-59508327D01*
X64260690Y-59605000D01*
X64951250Y-59605000D01*
X65110000Y-59446250D01*
X65110000Y-58247000D01*
X65364000Y-58247000D01*
X65364000Y-59446250D01*
X65522750Y-59605000D01*
X66213310Y-59605000D01*
X66446699Y-59508327D01*
X66625327Y-59329698D01*
X66722000Y-59096309D01*
X66722000Y-58405750D01*
X66563250Y-58247000D01*
X65364000Y-58247000D01*
X65110000Y-58247000D01*
X65090000Y-58247000D01*
X65090000Y-57993000D01*
X65110000Y-57993000D01*
X65110000Y-56793750D01*
X65364000Y-56793750D01*
X65364000Y-57993000D01*
X66563250Y-57993000D01*
X66722000Y-57834250D01*
X66722000Y-57143691D01*
X66625327Y-56910302D01*
X66446699Y-56731673D01*
X66213310Y-56635000D01*
X65522750Y-56635000D01*
X65364000Y-56793750D01*
X65110000Y-56793750D01*
X64951250Y-56635000D01*
X64272802Y-56635000D01*
X65393401Y-55514401D01*
X65509102Y-55341242D01*
X65676000Y-55374440D01*
X66576000Y-55374440D01*
X66761000Y-55337642D01*
X66946000Y-55374440D01*
X67846000Y-55374440D01*
X68030921Y-55337657D01*
X68089690Y-55362000D01*
X68380250Y-55362000D01*
X68539000Y-55203250D01*
X68539000Y-54179000D01*
X68793000Y-54179000D01*
X68793000Y-55203250D01*
X68951750Y-55362000D01*
X69242310Y-55362000D01*
X69475699Y-55265327D01*
X69654327Y-55086698D01*
X69751000Y-54853309D01*
X69751000Y-54337750D01*
X69592250Y-54179000D01*
X68793000Y-54179000D01*
X68539000Y-54179000D01*
X68519000Y-54179000D01*
X68519000Y-53925000D01*
X68539000Y-53925000D01*
X68539000Y-52900750D01*
X68793000Y-52900750D01*
X68793000Y-53925000D01*
X69592250Y-53925000D01*
X69751000Y-53766250D01*
X69751000Y-53250691D01*
X69654327Y-53017302D01*
X69475699Y-52838673D01*
X69242310Y-52742000D01*
X68951750Y-52742000D01*
X68793000Y-52900750D01*
X68539000Y-52900750D01*
X68380250Y-52742000D01*
X68089690Y-52742000D01*
X68030921Y-52766343D01*
X67846000Y-52729560D01*
X66946000Y-52729560D01*
X66761000Y-52766358D01*
X66576000Y-52729560D01*
X65676000Y-52729560D01*
X65491000Y-52766358D01*
X65306000Y-52729560D01*
X64406000Y-52729560D01*
X64221000Y-52766358D01*
X64036000Y-52729560D01*
X63136000Y-52729560D01*
X62951000Y-52766358D01*
X62766000Y-52729560D01*
X61866000Y-52729560D01*
X61681000Y-52766358D01*
X61496000Y-52729560D01*
X60596000Y-52729560D01*
X60411000Y-52766358D01*
X60226000Y-52729560D01*
X59326000Y-52729560D01*
X59141000Y-52766358D01*
X58956000Y-52729560D01*
X58056000Y-52729560D01*
X57871000Y-52766358D01*
X57686000Y-52729560D01*
X56786000Y-52729560D01*
X56601000Y-52766358D01*
X56416000Y-52729560D01*
X55516000Y-52729560D01*
X55331000Y-52766358D01*
X55146000Y-52729560D01*
X54246000Y-52729560D01*
X54061000Y-52766358D01*
X53876000Y-52729560D01*
X52976000Y-52729560D01*
X52791000Y-52766358D01*
X52606000Y-52729560D01*
X51706000Y-52729560D01*
X51458235Y-52778843D01*
X51248191Y-52919191D01*
X51107843Y-53129235D01*
X51058560Y-53377000D01*
X49274012Y-53377000D01*
X49380820Y-53119777D01*
X49381179Y-52708029D01*
X49223942Y-52327485D01*
X48933046Y-52036081D01*
X48552777Y-51878180D01*
X48141029Y-51877821D01*
X47913819Y-51971702D01*
X47455000Y-51512883D01*
X47455000Y-47856816D01*
X47653189Y-47724389D01*
X47793537Y-47514345D01*
X47842820Y-47266580D01*
X47842820Y-46367420D01*
X47793537Y-46119655D01*
X47757124Y-46065160D01*
X47793537Y-46010665D01*
X47842820Y-45762900D01*
X47842820Y-44863740D01*
X47793537Y-44615975D01*
X47653189Y-44405931D01*
X47455000Y-44273504D01*
X47455000Y-42305802D01*
X49020767Y-40740035D01*
X49185971Y-40740179D01*
X49333560Y-40679197D01*
X49333560Y-41042000D01*
X49370358Y-41227000D01*
X49333560Y-41412000D01*
X49333560Y-42312000D01*
X49370358Y-42497000D01*
X49333560Y-42682000D01*
X49333560Y-43582000D01*
X49370358Y-43767000D01*
X49333560Y-43952000D01*
X49333560Y-44852000D01*
X49370358Y-45037000D01*
X49333560Y-45222000D01*
X49333560Y-46122000D01*
X49370358Y-46307000D01*
X49333560Y-46492000D01*
X49333560Y-47392000D01*
X49370358Y-47577000D01*
X49333560Y-47762000D01*
X49333560Y-48662000D01*
X49370358Y-48847000D01*
X49333560Y-49032000D01*
X49333560Y-49932000D01*
X49370358Y-50117000D01*
X49333560Y-50302000D01*
X49333560Y-51202000D01*
X49382843Y-51449765D01*
X49523191Y-51659809D01*
X49733235Y-51800157D01*
X49981000Y-51849440D01*
X51331000Y-51849440D01*
X51578765Y-51800157D01*
X51788809Y-51659809D01*
X51929157Y-51449765D01*
X51978440Y-51202000D01*
X51978440Y-50302000D01*
X51941642Y-50117000D01*
X51978440Y-49932000D01*
X51978440Y-49032000D01*
X51941642Y-48847000D01*
X51978440Y-48662000D01*
X51978440Y-47762000D01*
X51941642Y-47577000D01*
X51978440Y-47392000D01*
X51978440Y-46492000D01*
X51941642Y-46307000D01*
X51978440Y-46122000D01*
X51978440Y-45222000D01*
X51941642Y-45037000D01*
X51978440Y-44852000D01*
X51978440Y-43952000D01*
X51941642Y-43767000D01*
X51978440Y-43582000D01*
X51978440Y-42682000D01*
X51941642Y-42497000D01*
X51976450Y-42322000D01*
X57308560Y-42322000D01*
X57308560Y-48322000D01*
X57357843Y-48569765D01*
X57498191Y-48779809D01*
X57708235Y-48920157D01*
X57956000Y-48969440D01*
X63956000Y-48969440D01*
X64203765Y-48920157D01*
X64413809Y-48779809D01*
X64554157Y-48569765D01*
X64603440Y-48322000D01*
X64603440Y-42322000D01*
X64554157Y-42074235D01*
X64413809Y-41864191D01*
X64203765Y-41723843D01*
X63956000Y-41674560D01*
X57956000Y-41674560D01*
X57708235Y-41723843D01*
X57498191Y-41864191D01*
X57357843Y-42074235D01*
X57308560Y-42322000D01*
X51976450Y-42322000D01*
X51978440Y-42312000D01*
X51978440Y-41412000D01*
X51941642Y-41227000D01*
X51978440Y-41042000D01*
X51978440Y-40142000D01*
X51941642Y-39957000D01*
X51978440Y-39772000D01*
X51978440Y-39068000D01*
X55875000Y-39068000D01*
X56165839Y-39010148D01*
X56412401Y-38845401D01*
X57773401Y-37484401D01*
X57889102Y-37311242D01*
X58056000Y-37344440D01*
X58956000Y-37344440D01*
X59141000Y-37307642D01*
X59326000Y-37344440D01*
X60226000Y-37344440D01*
X60411000Y-37307642D01*
X60596000Y-37344440D01*
X61496000Y-37344440D01*
X61681000Y-37307642D01*
X61866000Y-37344440D01*
X62766000Y-37344440D01*
X62951000Y-37307642D01*
X63136000Y-37344440D01*
X64036000Y-37344440D01*
X64221000Y-37307642D01*
X64406000Y-37344440D01*
X65306000Y-37344440D01*
X65366000Y-37332505D01*
X65366000Y-38493239D01*
X65249081Y-38609954D01*
X65091180Y-38990223D01*
X65090821Y-39401971D01*
X65248058Y-39782515D01*
X65538954Y-40073919D01*
X65919223Y-40231820D01*
X66330971Y-40232179D01*
X66711515Y-40074942D01*
X67002919Y-39784046D01*
X67160820Y-39403777D01*
X67161179Y-38992029D01*
X67013618Y-38634903D01*
X67189223Y-38707820D01*
X67600971Y-38708179D01*
X67981515Y-38550942D01*
X68272919Y-38260046D01*
X68430820Y-37879777D01*
X68431179Y-37468029D01*
X68374973Y-37332000D01*
X68380250Y-37332000D01*
X68539000Y-37173250D01*
X68539000Y-36149000D01*
X68793000Y-36149000D01*
X68793000Y-37173250D01*
X68951750Y-37332000D01*
X69242310Y-37332000D01*
X69475699Y-37235327D01*
X69654327Y-37056698D01*
X69751000Y-36823309D01*
X69751000Y-36307750D01*
X69592250Y-36149000D01*
X68793000Y-36149000D01*
X68539000Y-36149000D01*
X68519000Y-36149000D01*
X68519000Y-35895000D01*
X68539000Y-35895000D01*
X68539000Y-34870750D01*
X68793000Y-34870750D01*
X68793000Y-35895000D01*
X69592250Y-35895000D01*
X69751000Y-35736250D01*
X69751000Y-35220691D01*
X69654327Y-34987302D01*
X69475699Y-34808673D01*
X69242310Y-34712000D01*
X68951750Y-34712000D01*
X68793000Y-34870750D01*
X68539000Y-34870750D01*
X68380250Y-34712000D01*
X68089690Y-34712000D01*
X68030921Y-34736343D01*
X67846000Y-34699560D01*
X66946000Y-34699560D01*
X66761000Y-34736358D01*
X66576000Y-34699560D01*
X65676000Y-34699560D01*
X65491000Y-34736358D01*
X65306000Y-34699560D01*
X64406000Y-34699560D01*
X64221000Y-34736358D01*
X64036000Y-34699560D01*
X63136000Y-34699560D01*
X62951000Y-34736358D01*
X62766000Y-34699560D01*
X61866000Y-34699560D01*
X61681000Y-34736358D01*
X61496000Y-34699560D01*
X60596000Y-34699560D01*
X60411000Y-34736358D01*
X60226000Y-34699560D01*
X59326000Y-34699560D01*
X59141000Y-34736358D01*
X58956000Y-34699560D01*
X58056000Y-34699560D01*
X57871000Y-34736358D01*
X57686000Y-34699560D01*
X56786000Y-34699560D01*
X56601000Y-34736358D01*
X56416000Y-34699560D01*
X55516000Y-34699560D01*
X55331000Y-34736358D01*
X55146000Y-34699560D01*
X54246000Y-34699560D01*
X54061000Y-34736358D01*
X53876000Y-34699560D01*
X52976000Y-34699560D01*
X52791000Y-34736358D01*
X52606000Y-34699560D01*
X51706000Y-34699560D01*
X51458235Y-34748843D01*
X51248191Y-34889191D01*
X51107843Y-35099235D01*
X51058560Y-35347000D01*
X51058560Y-36405000D01*
X43264590Y-36405000D01*
X43022004Y-36453254D01*
X42973750Y-36462852D01*
X42727189Y-36627599D01*
X42138000Y-37216788D01*
X42138000Y-36942750D01*
X41979250Y-36784000D01*
X40980000Y-36784000D01*
X40980000Y-36804000D01*
X40726000Y-36804000D01*
X40726000Y-36784000D01*
X39726750Y-36784000D01*
X39568000Y-36942750D01*
X39568000Y-37929000D01*
X34361000Y-37929000D01*
X34070161Y-37986852D01*
X33823599Y-38151599D01*
X30917599Y-41057599D01*
X30778177Y-41266259D01*
X30597191Y-41387191D01*
X30456843Y-41597235D01*
X30407560Y-41845000D01*
X30407560Y-42645000D01*
X30456843Y-42892765D01*
X30558564Y-43045000D01*
X30456843Y-43197235D01*
X30407560Y-43445000D01*
X30407560Y-44245000D01*
X30456843Y-44492765D01*
X30597191Y-44702809D01*
X30695000Y-44768163D01*
X30695000Y-46147679D01*
X30579855Y-46170583D01*
X30369811Y-46310931D01*
X30229463Y-46520975D01*
X30180180Y-46768740D01*
X26885000Y-46768740D01*
X26885000Y-35360691D01*
X39568000Y-35360691D01*
X39568000Y-36371250D01*
X39726750Y-36530000D01*
X40726000Y-36530000D01*
X40726000Y-35010750D01*
X40980000Y-35010750D01*
X40980000Y-36530000D01*
X41979250Y-36530000D01*
X42138000Y-36371250D01*
X42138000Y-35360691D01*
X42041327Y-35127302D01*
X41862699Y-34948673D01*
X41629310Y-34852000D01*
X41138750Y-34852000D01*
X40980000Y-35010750D01*
X40726000Y-35010750D01*
X40567250Y-34852000D01*
X40076690Y-34852000D01*
X39843301Y-34948673D01*
X39664673Y-35127302D01*
X39568000Y-35360691D01*
X26885000Y-35360691D01*
X26885000Y-35087164D01*
X26909772Y-34962627D01*
X26930943Y-34930942D01*
X26962627Y-34909772D01*
X27172654Y-34867995D01*
X27491679Y-34735851D01*
X27735851Y-34491681D01*
X27867994Y-34172656D01*
X27867994Y-34117000D01*
X68313273Y-34117000D01*
X68344046Y-34271705D01*
G36*
X59294103Y-55368095D02*
X57983408Y-56678790D01*
X57617000Y-56605907D01*
X57048715Y-56718946D01*
X56566946Y-57040853D01*
X56347000Y-57370026D01*
X56127054Y-57040853D01*
X55645285Y-56718946D01*
X55077000Y-56605907D01*
X54508715Y-56718946D01*
X54026946Y-57040853D01*
X53886239Y-57251437D01*
X52916000Y-56281198D01*
X52916000Y-55362505D01*
X52976000Y-55374440D01*
X53876000Y-55374440D01*
X54061000Y-55337642D01*
X54246000Y-55374440D01*
X55146000Y-55374440D01*
X55331000Y-55337642D01*
X55516000Y-55374440D01*
X56416000Y-55374440D01*
X56601000Y-55337642D01*
X56786000Y-55374440D01*
X57686000Y-55374440D01*
X57871000Y-55337642D01*
X58056000Y-55374440D01*
X58956000Y-55374440D01*
X59141000Y-55337642D01*
X59294103Y-55368095D01*
X59294103Y-55368095D01*
G37*
X59294103Y-55368095D02*
X57983408Y-56678790D01*
X57617000Y-56605907D01*
X57048715Y-56718946D01*
X56566946Y-57040853D01*
X56347000Y-57370026D01*
X56127054Y-57040853D01*
X55645285Y-56718946D01*
X55077000Y-56605907D01*
X54508715Y-56718946D01*
X54026946Y-57040853D01*
X53886239Y-57251437D01*
X52916000Y-56281198D01*
X52916000Y-55362505D01*
X52976000Y-55374440D01*
X53876000Y-55374440D01*
X54061000Y-55337642D01*
X54246000Y-55374440D01*
X55146000Y-55374440D01*
X55331000Y-55337642D01*
X55516000Y-55374440D01*
X56416000Y-55374440D01*
X56601000Y-55337642D01*
X56786000Y-55374440D01*
X57686000Y-55374440D01*
X57871000Y-55337642D01*
X58056000Y-55374440D01*
X58956000Y-55374440D01*
X59141000Y-55337642D01*
X59294103Y-55368095D01*
G36*
X47242914Y-53450401D02*
X47400385Y-53555620D01*
X47329998Y-53555620D01*
X47329998Y-53714368D01*
X47171250Y-53555620D01*
X46881111Y-53555620D01*
X46704814Y-53628645D01*
X46650665Y-53592463D01*
X46612036Y-53584779D01*
X46490721Y-53403219D01*
X46185000Y-53097498D01*
X46185000Y-52392487D01*
X47242914Y-53450401D01*
X47242914Y-53450401D01*
G37*
X47242914Y-53450401D02*
X47400385Y-53555620D01*
X47329998Y-53555620D01*
X47329998Y-53714368D01*
X47171250Y-53555620D01*
X46881111Y-53555620D01*
X46704814Y-53628645D01*
X46650665Y-53592463D01*
X46612036Y-53584779D01*
X46490721Y-53403219D01*
X46185000Y-53097498D01*
X46185000Y-52392487D01*
X47242914Y-53450401D01*
M02*
