G04 #@! TF.GenerationSoftware,KiCad,Pcbnew,no-vcs-found*
G04 #@! TF.CreationDate,2017-01-06T11:39:05+01:00*
G04 #@! TF.ProjectId,ESP32-HELP-Button-CR2032,45535033322D48454C502D427574746F,rev?*
G04 #@! TF.FileFunction,Soldermask,Top*
G04 #@! TF.FilePolarity,Negative*
%FSLAX46Y46*%
G04 Gerber Fmt 4.6, Leading zero omitted, Abs format (unit mm)*
G04 Created by KiCad (PCBNEW no-vcs-found) date Fri Jan  6 11:39:05 2017*
%MOMM*%
%LPD*%
G01*
G04 APERTURE LIST*
%ADD10C,0.100000*%
%ADD11R,1.700000X2.740000*%
%ADD12R,1.200000X1.200000*%
%ADD13O,2.100000X2.100000*%
%ADD14R,2.100000X2.100000*%
%ADD15R,1.400760X0.999440*%
%ADD16R,1.400760X1.299160*%
%ADD17C,1.200000*%
%ADD18R,6.400000X6.400000*%
%ADD19R,1.300000X1.750000*%
%ADD20R,1.750000X1.300000*%
%ADD21R,1.299160X1.400760*%
%ADD22R,2.000200X2.203400*%
G04 APERTURE END LIST*
D10*
D11*
X40853000Y-36657000D03*
X40853000Y-54997000D03*
D12*
X35011000Y-43896000D03*
X35011000Y-42296000D03*
X31455000Y-42245000D03*
X31455000Y-43845000D03*
D13*
X55077000Y-58120000D03*
X57617000Y-58120000D03*
X60157000Y-58120000D03*
X62697000Y-58120000D03*
D14*
X65237000Y-58120000D03*
D15*
X45846640Y-41102000D03*
X43733360Y-40149500D03*
X45846640Y-39197000D03*
D16*
X46695000Y-46817000D03*
X46695000Y-45313320D03*
X35011000Y-48722000D03*
X35011000Y-47218320D03*
X31328000Y-47218320D03*
X31328000Y-48722000D03*
D17*
X62956000Y-43322000D03*
D18*
X60956000Y-45322000D03*
D19*
X68666000Y-36022000D03*
X67396000Y-36022000D03*
X66126000Y-36022000D03*
X64856000Y-36022000D03*
X63586000Y-36022000D03*
X62316000Y-36022000D03*
X61046000Y-36022000D03*
X59776000Y-36022000D03*
X58506000Y-36022000D03*
X57236000Y-36022000D03*
X55966000Y-36022000D03*
X54696000Y-36022000D03*
X53426000Y-36022000D03*
X52156000Y-36022000D03*
D20*
X50656000Y-39322000D03*
X50656000Y-40592000D03*
X50656000Y-41862000D03*
X50656000Y-43132000D03*
X50656000Y-44402000D03*
X50656000Y-45672000D03*
X50656000Y-46942000D03*
X50656000Y-48212000D03*
X50656000Y-49482000D03*
X50656000Y-50752000D03*
D19*
X52156000Y-54052000D03*
X53426000Y-54052000D03*
X54696000Y-54052000D03*
X55966000Y-54052000D03*
X57236000Y-54052000D03*
X58506000Y-54052000D03*
X59776000Y-54052000D03*
X61046000Y-54052000D03*
X62316000Y-54052000D03*
X63586000Y-54052000D03*
X64856000Y-54052000D03*
X66126000Y-54052000D03*
X67396000Y-54052000D03*
X68666000Y-54052000D03*
D17*
X61956000Y-43322000D03*
X60956000Y-43322000D03*
X59956000Y-43322000D03*
X58956000Y-43322000D03*
X58956000Y-44322000D03*
X59956000Y-44322000D03*
X60956000Y-44322000D03*
X61956000Y-44322000D03*
X62956000Y-44322000D03*
X62956000Y-46322000D03*
X61956000Y-46322000D03*
X60956000Y-46322000D03*
X59956000Y-46322000D03*
X58956000Y-46322000D03*
X58956000Y-45322000D03*
X59956000Y-45322000D03*
X60956000Y-45322000D03*
X61956000Y-45322000D03*
X62956000Y-45322000D03*
X58956000Y-47322000D03*
X59956000Y-47322000D03*
X60956000Y-47322000D03*
X61956000Y-47322000D03*
X62956000Y-47322000D03*
D21*
X47457000Y-54691000D03*
X45953320Y-54691000D03*
D22*
X47838000Y-57358000D03*
X45044000Y-57358000D03*
M02*
