G04 #@! TF.GenerationSoftware,KiCad,Pcbnew,no-vcs-found*
G04 #@! TF.CreationDate,2017-01-06T11:39:05+01:00*
G04 #@! TF.ProjectId,ESP32-HELP-Button-CR2032,45535033322D48454C502D427574746F,rev?*
G04 #@! TF.FileFunction,Paste,Top*
G04 #@! TF.FilePolarity,Positive*
%FSLAX46Y46*%
G04 Gerber Fmt 4.6, Leading zero omitted, Abs format (unit mm)*
G04 Created by KiCad (PCBNEW no-vcs-found) date Fri Jan  6 11:39:05 2017*
%MOMM*%
%LPD*%
G01*
G04 APERTURE LIST*
%ADD10C,0.100000*%
%ADD11R,1.300000X2.340000*%
%ADD12R,0.800000X0.800000*%
%ADD13R,1.000760X0.599440*%
%ADD14R,1.000760X0.899160*%
%ADD15R,6.000000X6.000000*%
%ADD16R,0.900000X1.350000*%
%ADD17R,1.350000X0.900000*%
%ADD18R,0.899160X1.000760*%
%ADD19R,1.600200X1.803400*%
G04 APERTURE END LIST*
D10*
D11*
X40853000Y-36657000D03*
X40853000Y-54997000D03*
D12*
X35011000Y-43896000D03*
X35011000Y-42296000D03*
X31455000Y-42245000D03*
X31455000Y-43845000D03*
D13*
X45846640Y-41102000D03*
X43733360Y-40149500D03*
X45846640Y-39197000D03*
D14*
X46695000Y-46817000D03*
X46695000Y-45313320D03*
X35011000Y-48722000D03*
X35011000Y-47218320D03*
X31328000Y-47218320D03*
X31328000Y-48722000D03*
D15*
X60956000Y-45322000D03*
D16*
X68666000Y-36022000D03*
X67396000Y-36022000D03*
X66126000Y-36022000D03*
X64856000Y-36022000D03*
X63586000Y-36022000D03*
X62316000Y-36022000D03*
X61046000Y-36022000D03*
X59776000Y-36022000D03*
X58506000Y-36022000D03*
X57236000Y-36022000D03*
X55966000Y-36022000D03*
X54696000Y-36022000D03*
X53426000Y-36022000D03*
X52156000Y-36022000D03*
D17*
X50656000Y-39322000D03*
X50656000Y-40592000D03*
X50656000Y-41862000D03*
X50656000Y-43132000D03*
X50656000Y-44402000D03*
X50656000Y-45672000D03*
X50656000Y-46942000D03*
X50656000Y-48212000D03*
X50656000Y-49482000D03*
X50656000Y-50752000D03*
D16*
X52156000Y-54052000D03*
X53426000Y-54052000D03*
X54696000Y-54052000D03*
X55966000Y-54052000D03*
X57236000Y-54052000D03*
X58506000Y-54052000D03*
X59776000Y-54052000D03*
X61046000Y-54052000D03*
X62316000Y-54052000D03*
X63586000Y-54052000D03*
X64856000Y-54052000D03*
X66126000Y-54052000D03*
X67396000Y-54052000D03*
X68666000Y-54052000D03*
D18*
X47457000Y-54691000D03*
X45953320Y-54691000D03*
D19*
X47838000Y-57358000D03*
X45044000Y-57358000D03*
M02*
