G04 #@! TF.GenerationSoftware,KiCad,Pcbnew,no-vcs-found*
G04 #@! TF.CreationDate,2017-01-06T11:39:05+01:00*
G04 #@! TF.ProjectId,ESP32-HELP-Button-CR2032,45535033322D48454C502D427574746F,rev?*
G04 #@! TF.FileFunction,Legend,Top*
G04 #@! TF.FilePolarity,Positive*
%FSLAX46Y46*%
G04 Gerber Fmt 4.6, Leading zero omitted, Abs format (unit mm)*
G04 Created by KiCad (PCBNEW no-vcs-found) date Fri Jan  6 11:39:05 2017*
%MOMM*%
%LPD*%
G01*
G04 APERTURE LIST*
%ADD10C,0.100000*%
%ADD11C,0.200000*%
%ADD12C,0.002540*%
%ADD13C,0.075000*%
%ADD14C,0.150000*%
%ADD15C,0.050000*%
%ADD16C,0.120000*%
%ADD17C,0.127000*%
%ADD18C,0.099060*%
%ADD19C,0.040640*%
%ADD20C,0.119380*%
G04 APERTURE END LIST*
D10*
D11*
X27613714Y-59334380D02*
X27280380Y-58858190D01*
X27042285Y-59334380D02*
X27042285Y-58334380D01*
X27423238Y-58334380D01*
X27518476Y-58382000D01*
X27566095Y-58429619D01*
X27613714Y-58524857D01*
X27613714Y-58667714D01*
X27566095Y-58762952D01*
X27518476Y-58810571D01*
X27423238Y-58858190D01*
X27042285Y-58858190D01*
X28042285Y-58810571D02*
X28375619Y-58810571D01*
X28518476Y-59334380D02*
X28042285Y-59334380D01*
X28042285Y-58334380D01*
X28518476Y-58334380D01*
X29280380Y-58810571D02*
X28947047Y-58810571D01*
X28947047Y-59334380D02*
X28947047Y-58334380D01*
X29423238Y-58334380D01*
X31089904Y-59334380D02*
X30518476Y-59334380D01*
X30804190Y-59334380D02*
X30804190Y-58334380D01*
X30708952Y-58477238D01*
X30613714Y-58572476D01*
X30518476Y-58620095D01*
X32804190Y-59334380D02*
X32232761Y-59334380D01*
X32518476Y-59334380D02*
X32518476Y-58334380D01*
X32423238Y-58477238D01*
X32328000Y-58572476D01*
X32232761Y-58620095D01*
X33137523Y-58334380D02*
X33804190Y-58334380D01*
X33375619Y-59334380D01*
X34375619Y-58334380D02*
X34470857Y-58334380D01*
X34566095Y-58382000D01*
X34613714Y-58429619D01*
X34661333Y-58524857D01*
X34708952Y-58715333D01*
X34708952Y-58953428D01*
X34661333Y-59143904D01*
X34613714Y-59239142D01*
X34566095Y-59286761D01*
X34470857Y-59334380D01*
X34375619Y-59334380D01*
X34280380Y-59286761D01*
X34232761Y-59239142D01*
X34185142Y-59143904D01*
X34137523Y-58953428D01*
X34137523Y-58715333D01*
X34185142Y-58524857D01*
X34232761Y-58429619D01*
X34280380Y-58382000D01*
X34375619Y-58334380D01*
X35661333Y-59334380D02*
X35089904Y-59334380D01*
X35375619Y-59334380D02*
X35375619Y-58334380D01*
X35280380Y-58477238D01*
X35185142Y-58572476D01*
X35089904Y-58620095D01*
X41432380Y-46007238D02*
X40956190Y-46340571D01*
X41432380Y-46578666D02*
X40432380Y-46578666D01*
X40432380Y-46197714D01*
X40480000Y-46102476D01*
X40527619Y-46054857D01*
X40622857Y-46007238D01*
X40765714Y-46007238D01*
X40860952Y-46054857D01*
X40908571Y-46102476D01*
X40956190Y-46197714D01*
X40956190Y-46578666D01*
X40908571Y-45578666D02*
X40908571Y-45245333D01*
X41432380Y-45102476D02*
X41432380Y-45578666D01*
X40432380Y-45578666D01*
X40432380Y-45102476D01*
X40908571Y-44673904D02*
X40908571Y-44340571D01*
X41432380Y-44197714D02*
X41432380Y-44673904D01*
X40432380Y-44673904D01*
X40432380Y-44197714D01*
X41432380Y-43769142D02*
X40432380Y-43769142D01*
X40432380Y-43531047D01*
X40480000Y-43388190D01*
X40575238Y-43292952D01*
X40670476Y-43245333D01*
X40860952Y-43197714D01*
X41003809Y-43197714D01*
X41194285Y-43245333D01*
X41289523Y-43292952D01*
X41384761Y-43388190D01*
X41432380Y-43531047D01*
X41432380Y-43769142D01*
X64983095Y-55334000D02*
X64887857Y-55286380D01*
X64745000Y-55286380D01*
X64602142Y-55334000D01*
X64506904Y-55429238D01*
X64459285Y-55524476D01*
X64411666Y-55714952D01*
X64411666Y-55857809D01*
X64459285Y-56048285D01*
X64506904Y-56143523D01*
X64602142Y-56238761D01*
X64745000Y-56286380D01*
X64840238Y-56286380D01*
X64983095Y-56238761D01*
X65030714Y-56191142D01*
X65030714Y-55857809D01*
X64840238Y-55857809D01*
X65459285Y-56286380D02*
X65459285Y-55286380D01*
X66030714Y-56286380D01*
X66030714Y-55286380D01*
X66506904Y-56286380D02*
X66506904Y-55286380D01*
X66745000Y-55286380D01*
X66887857Y-55334000D01*
X66983095Y-55429238D01*
X67030714Y-55524476D01*
X67078333Y-55714952D01*
X67078333Y-55857809D01*
X67030714Y-56048285D01*
X66983095Y-56143523D01*
X66887857Y-56238761D01*
X66745000Y-56286380D01*
X66506904Y-56286380D01*
X62149380Y-56286380D02*
X61816047Y-55810190D01*
X61577952Y-56286380D02*
X61577952Y-55286380D01*
X61958904Y-55286380D01*
X62054142Y-55334000D01*
X62101761Y-55381619D01*
X62149380Y-55476857D01*
X62149380Y-55619714D01*
X62101761Y-55714952D01*
X62054142Y-55762571D01*
X61958904Y-55810190D01*
X61577952Y-55810190D01*
X62530333Y-56238761D02*
X62673190Y-56286380D01*
X62911285Y-56286380D01*
X63006523Y-56238761D01*
X63054142Y-56191142D01*
X63101761Y-56095904D01*
X63101761Y-56000666D01*
X63054142Y-55905428D01*
X63006523Y-55857809D01*
X62911285Y-55810190D01*
X62720809Y-55762571D01*
X62625571Y-55714952D01*
X62577952Y-55667333D01*
X62530333Y-55572095D01*
X62530333Y-55476857D01*
X62577952Y-55381619D01*
X62625571Y-55334000D01*
X62720809Y-55286380D01*
X62958904Y-55286380D01*
X63101761Y-55334000D01*
X63387476Y-55286380D02*
X63958904Y-55286380D01*
X63673190Y-56286380D02*
X63673190Y-55286380D01*
X59395095Y-55286380D02*
X59966523Y-55286380D01*
X59680809Y-56286380D02*
X59680809Y-55286380D01*
X60204619Y-55286380D02*
X60871285Y-56286380D01*
X60871285Y-55286380D02*
X60204619Y-56286380D01*
X57450333Y-56286380D02*
X57117000Y-55810190D01*
X56878904Y-56286380D02*
X56878904Y-55286380D01*
X57259857Y-55286380D01*
X57355095Y-55334000D01*
X57402714Y-55381619D01*
X57450333Y-55476857D01*
X57450333Y-55619714D01*
X57402714Y-55714952D01*
X57355095Y-55762571D01*
X57259857Y-55810190D01*
X56878904Y-55810190D01*
X57783666Y-55286380D02*
X58450333Y-56286380D01*
X58450333Y-55286380D02*
X57783666Y-56286380D01*
X54727809Y-56286380D02*
X54727809Y-55286380D01*
X55394476Y-55286380D02*
X55489714Y-55286380D01*
X55584952Y-55334000D01*
X55632571Y-55381619D01*
X55680190Y-55476857D01*
X55727809Y-55667333D01*
X55727809Y-55905428D01*
X55680190Y-56095904D01*
X55632571Y-56191142D01*
X55584952Y-56238761D01*
X55489714Y-56286380D01*
X55394476Y-56286380D01*
X55299238Y-56238761D01*
X55251619Y-56191142D01*
X55204000Y-56095904D01*
X55156380Y-55905428D01*
X55156380Y-55667333D01*
X55204000Y-55476857D01*
X55251619Y-55381619D01*
X55299238Y-55334000D01*
X55394476Y-55286380D01*
X31383571Y-40792285D02*
X31383571Y-40458952D01*
X31907380Y-40316095D02*
X31907380Y-40792285D01*
X30907380Y-40792285D01*
X30907380Y-40316095D01*
X31907380Y-39316095D02*
X31431190Y-39649428D01*
X31907380Y-39887523D02*
X30907380Y-39887523D01*
X30907380Y-39506571D01*
X30955000Y-39411333D01*
X31002619Y-39363714D01*
X31097857Y-39316095D01*
X31240714Y-39316095D01*
X31335952Y-39363714D01*
X31383571Y-39411333D01*
X31431190Y-39506571D01*
X31431190Y-39887523D01*
X31907380Y-38316095D02*
X31431190Y-38649428D01*
X31907380Y-38887523D02*
X30907380Y-38887523D01*
X30907380Y-38506571D01*
X30955000Y-38411333D01*
X31002619Y-38363714D01*
X31097857Y-38316095D01*
X31240714Y-38316095D01*
X31335952Y-38363714D01*
X31383571Y-38411333D01*
X31431190Y-38506571D01*
X31431190Y-38887523D01*
X34463380Y-40681238D02*
X34463380Y-40490761D01*
X34511000Y-40395523D01*
X34606238Y-40300285D01*
X34796714Y-40252666D01*
X35130047Y-40252666D01*
X35320523Y-40300285D01*
X35415761Y-40395523D01*
X35463380Y-40490761D01*
X35463380Y-40681238D01*
X35415761Y-40776476D01*
X35320523Y-40871714D01*
X35130047Y-40919333D01*
X34796714Y-40919333D01*
X34606238Y-40871714D01*
X34511000Y-40776476D01*
X34463380Y-40681238D01*
X35463380Y-39824095D02*
X34463380Y-39824095D01*
X35463380Y-39252666D02*
X34891952Y-39681238D01*
X34463380Y-39252666D02*
X35034809Y-39824095D01*
D12*
G36*
X34513160Y-56047360D02*
X34538560Y-56032120D01*
X34596980Y-55996560D01*
X34680800Y-55940680D01*
X34779860Y-55874640D01*
X34878920Y-55808600D01*
X34960200Y-55755260D01*
X35016080Y-55717160D01*
X35041480Y-55704460D01*
X35054180Y-55709540D01*
X35099900Y-55732400D01*
X35168480Y-55767960D01*
X35209120Y-55788280D01*
X35270080Y-55813680D01*
X35303100Y-55821300D01*
X35308180Y-55811140D01*
X35331040Y-55762880D01*
X35366600Y-55681600D01*
X35412320Y-55572380D01*
X35468200Y-55445380D01*
X35524080Y-55310760D01*
X35582500Y-55171060D01*
X35638380Y-55036440D01*
X35686640Y-54917060D01*
X35727280Y-54820540D01*
X35752680Y-54751960D01*
X35762840Y-54724020D01*
X35760300Y-54716400D01*
X35727280Y-54685920D01*
X35673940Y-54645280D01*
X35554560Y-54548760D01*
X35437720Y-54403980D01*
X35366600Y-54238880D01*
X35343740Y-54053460D01*
X35364060Y-53883280D01*
X35430100Y-53720720D01*
X35544400Y-53573400D01*
X35684100Y-53464180D01*
X35846660Y-53395600D01*
X36027000Y-53372740D01*
X36199720Y-53393060D01*
X36367360Y-53459100D01*
X36514680Y-53570860D01*
X36578180Y-53641980D01*
X36664540Y-53791840D01*
X36712800Y-53949320D01*
X36717880Y-53989960D01*
X36710260Y-54165220D01*
X36659460Y-54335400D01*
X36565480Y-54485260D01*
X36435940Y-54609720D01*
X36420700Y-54619880D01*
X36362280Y-54665600D01*
X36321640Y-54696080D01*
X36291160Y-54721480D01*
X36514680Y-55259960D01*
X36550240Y-55343780D01*
X36611200Y-55491100D01*
X36664540Y-55618100D01*
X36707720Y-55719700D01*
X36738200Y-55785740D01*
X36750900Y-55813680D01*
X36750900Y-55816220D01*
X36771220Y-55818760D01*
X36811860Y-55803520D01*
X36888060Y-55767960D01*
X36936320Y-55742560D01*
X36994740Y-55714620D01*
X37020140Y-55704460D01*
X37043000Y-55717160D01*
X37096340Y-55752720D01*
X37177620Y-55806060D01*
X37274140Y-55869560D01*
X37365580Y-55933060D01*
X37449400Y-55988940D01*
X37510360Y-56027040D01*
X37540840Y-56044820D01*
X37545920Y-56044820D01*
X37571320Y-56029580D01*
X37619580Y-55988940D01*
X37693240Y-55920360D01*
X37797380Y-55816220D01*
X37812620Y-55800980D01*
X37898980Y-55714620D01*
X37967560Y-55640960D01*
X38013280Y-55590160D01*
X38031060Y-55567300D01*
X38031060Y-55567300D01*
X38015820Y-55536820D01*
X37977720Y-55475860D01*
X37921840Y-55389500D01*
X37853260Y-55290440D01*
X37675460Y-55031360D01*
X37771980Y-54787520D01*
X37802460Y-54711320D01*
X37840560Y-54622420D01*
X37868500Y-54556380D01*
X37883740Y-54528440D01*
X37909140Y-54518280D01*
X37977720Y-54503040D01*
X38074240Y-54482720D01*
X38188540Y-54462400D01*
X38300300Y-54442080D01*
X38399360Y-54421760D01*
X38470480Y-54409060D01*
X38503500Y-54401440D01*
X38511120Y-54396360D01*
X38518740Y-54381120D01*
X38521280Y-54348100D01*
X38523820Y-54287140D01*
X38526360Y-54193160D01*
X38526360Y-54053460D01*
X38526360Y-54038220D01*
X38523820Y-53908680D01*
X38521280Y-53802000D01*
X38518740Y-53735960D01*
X38513660Y-53708020D01*
X38513660Y-53708020D01*
X38483180Y-53700400D01*
X38412060Y-53685160D01*
X38313000Y-53667380D01*
X38193620Y-53644520D01*
X38186000Y-53641980D01*
X38069160Y-53619120D01*
X37970100Y-53598800D01*
X37898980Y-53583560D01*
X37871040Y-53573400D01*
X37863420Y-53565780D01*
X37840560Y-53520060D01*
X37807540Y-53446400D01*
X37766900Y-53357500D01*
X37728800Y-53263520D01*
X37695780Y-53179700D01*
X37672920Y-53118740D01*
X37665300Y-53090800D01*
X37667840Y-53088260D01*
X37685620Y-53060320D01*
X37726260Y-52999360D01*
X37782140Y-52915540D01*
X37850720Y-52813940D01*
X37855800Y-52806320D01*
X37924380Y-52707260D01*
X37980260Y-52620900D01*
X38015820Y-52562480D01*
X38031060Y-52534540D01*
X38031060Y-52532000D01*
X38008200Y-52501520D01*
X37957400Y-52445640D01*
X37883740Y-52369440D01*
X37797380Y-52280540D01*
X37769440Y-52255140D01*
X37670380Y-52158620D01*
X37604340Y-52097660D01*
X37561160Y-52064640D01*
X37540840Y-52057020D01*
X37540840Y-52057020D01*
X37510360Y-52074800D01*
X37446860Y-52115440D01*
X37363040Y-52173860D01*
X37261440Y-52242440D01*
X37253820Y-52247520D01*
X37154760Y-52316100D01*
X37070940Y-52371980D01*
X37012520Y-52412620D01*
X36984580Y-52427860D01*
X36982040Y-52427860D01*
X36941400Y-52415160D01*
X36870280Y-52389760D01*
X36781380Y-52356740D01*
X36689940Y-52318640D01*
X36606120Y-52283080D01*
X36542620Y-52255140D01*
X36512140Y-52237360D01*
X36512140Y-52237360D01*
X36501980Y-52201800D01*
X36484200Y-52125600D01*
X36463880Y-52024000D01*
X36438480Y-51902080D01*
X36435940Y-51881760D01*
X36413080Y-51762380D01*
X36395300Y-51663320D01*
X36380060Y-51594740D01*
X36372440Y-51566800D01*
X36357200Y-51564260D01*
X36298780Y-51559180D01*
X36209880Y-51556640D01*
X36100660Y-51556640D01*
X35988900Y-51556640D01*
X35879680Y-51559180D01*
X35785700Y-51561720D01*
X35717120Y-51566800D01*
X35689180Y-51571880D01*
X35689180Y-51574420D01*
X35679020Y-51612520D01*
X35661240Y-51686180D01*
X35640920Y-51790320D01*
X35618060Y-51912240D01*
X35612980Y-51935100D01*
X35590120Y-52051940D01*
X35569800Y-52151000D01*
X35557100Y-52217040D01*
X35549480Y-52244980D01*
X35536780Y-52250060D01*
X35488520Y-52270380D01*
X35409780Y-52303400D01*
X35310720Y-52344040D01*
X35082120Y-52435480D01*
X34800180Y-52244980D01*
X34774780Y-52227200D01*
X34673180Y-52158620D01*
X34591900Y-52102740D01*
X34533480Y-52064640D01*
X34510620Y-52051940D01*
X34508080Y-52051940D01*
X34480140Y-52077340D01*
X34424260Y-52130680D01*
X34348060Y-52204340D01*
X34259160Y-52290700D01*
X34195660Y-52356740D01*
X34116920Y-52435480D01*
X34068660Y-52488820D01*
X34040720Y-52521840D01*
X34033100Y-52542160D01*
X34035640Y-52557400D01*
X34053420Y-52585340D01*
X34094060Y-52646300D01*
X34152480Y-52732660D01*
X34221060Y-52831720D01*
X34276940Y-52915540D01*
X34337900Y-53009520D01*
X34376000Y-53075560D01*
X34391240Y-53108580D01*
X34386160Y-53121280D01*
X34368380Y-53177160D01*
X34332820Y-53260980D01*
X34292180Y-53360040D01*
X34193120Y-53581020D01*
X34048340Y-53608960D01*
X33959440Y-53626740D01*
X33837520Y-53649600D01*
X33718140Y-53672460D01*
X33535260Y-53708020D01*
X33527640Y-54383660D01*
X33555580Y-54396360D01*
X33583520Y-54403980D01*
X33652100Y-54419220D01*
X33748620Y-54439540D01*
X33865460Y-54459860D01*
X33961980Y-54477640D01*
X34061040Y-54497960D01*
X34132160Y-54510660D01*
X34162640Y-54518280D01*
X34172800Y-54528440D01*
X34195660Y-54576700D01*
X34231220Y-54652900D01*
X34271860Y-54744340D01*
X34309960Y-54838320D01*
X34345520Y-54927220D01*
X34368380Y-54993260D01*
X34378540Y-55026280D01*
X34365840Y-55054220D01*
X34327740Y-55112640D01*
X34274400Y-55193920D01*
X34205820Y-55292980D01*
X34139780Y-55389500D01*
X34081360Y-55473320D01*
X34043260Y-55534280D01*
X34025480Y-55562220D01*
X34035640Y-55580000D01*
X34073740Y-55628260D01*
X34147400Y-55704460D01*
X34259160Y-55813680D01*
X34276940Y-55831460D01*
X34363300Y-55915280D01*
X34436960Y-55983860D01*
X34490300Y-56029580D01*
X34513160Y-56047360D01*
X34513160Y-56047360D01*
G37*
X34513160Y-56047360D02*
X34538560Y-56032120D01*
X34596980Y-55996560D01*
X34680800Y-55940680D01*
X34779860Y-55874640D01*
X34878920Y-55808600D01*
X34960200Y-55755260D01*
X35016080Y-55717160D01*
X35041480Y-55704460D01*
X35054180Y-55709540D01*
X35099900Y-55732400D01*
X35168480Y-55767960D01*
X35209120Y-55788280D01*
X35270080Y-55813680D01*
X35303100Y-55821300D01*
X35308180Y-55811140D01*
X35331040Y-55762880D01*
X35366600Y-55681600D01*
X35412320Y-55572380D01*
X35468200Y-55445380D01*
X35524080Y-55310760D01*
X35582500Y-55171060D01*
X35638380Y-55036440D01*
X35686640Y-54917060D01*
X35727280Y-54820540D01*
X35752680Y-54751960D01*
X35762840Y-54724020D01*
X35760300Y-54716400D01*
X35727280Y-54685920D01*
X35673940Y-54645280D01*
X35554560Y-54548760D01*
X35437720Y-54403980D01*
X35366600Y-54238880D01*
X35343740Y-54053460D01*
X35364060Y-53883280D01*
X35430100Y-53720720D01*
X35544400Y-53573400D01*
X35684100Y-53464180D01*
X35846660Y-53395600D01*
X36027000Y-53372740D01*
X36199720Y-53393060D01*
X36367360Y-53459100D01*
X36514680Y-53570860D01*
X36578180Y-53641980D01*
X36664540Y-53791840D01*
X36712800Y-53949320D01*
X36717880Y-53989960D01*
X36710260Y-54165220D01*
X36659460Y-54335400D01*
X36565480Y-54485260D01*
X36435940Y-54609720D01*
X36420700Y-54619880D01*
X36362280Y-54665600D01*
X36321640Y-54696080D01*
X36291160Y-54721480D01*
X36514680Y-55259960D01*
X36550240Y-55343780D01*
X36611200Y-55491100D01*
X36664540Y-55618100D01*
X36707720Y-55719700D01*
X36738200Y-55785740D01*
X36750900Y-55813680D01*
X36750900Y-55816220D01*
X36771220Y-55818760D01*
X36811860Y-55803520D01*
X36888060Y-55767960D01*
X36936320Y-55742560D01*
X36994740Y-55714620D01*
X37020140Y-55704460D01*
X37043000Y-55717160D01*
X37096340Y-55752720D01*
X37177620Y-55806060D01*
X37274140Y-55869560D01*
X37365580Y-55933060D01*
X37449400Y-55988940D01*
X37510360Y-56027040D01*
X37540840Y-56044820D01*
X37545920Y-56044820D01*
X37571320Y-56029580D01*
X37619580Y-55988940D01*
X37693240Y-55920360D01*
X37797380Y-55816220D01*
X37812620Y-55800980D01*
X37898980Y-55714620D01*
X37967560Y-55640960D01*
X38013280Y-55590160D01*
X38031060Y-55567300D01*
X38031060Y-55567300D01*
X38015820Y-55536820D01*
X37977720Y-55475860D01*
X37921840Y-55389500D01*
X37853260Y-55290440D01*
X37675460Y-55031360D01*
X37771980Y-54787520D01*
X37802460Y-54711320D01*
X37840560Y-54622420D01*
X37868500Y-54556380D01*
X37883740Y-54528440D01*
X37909140Y-54518280D01*
X37977720Y-54503040D01*
X38074240Y-54482720D01*
X38188540Y-54462400D01*
X38300300Y-54442080D01*
X38399360Y-54421760D01*
X38470480Y-54409060D01*
X38503500Y-54401440D01*
X38511120Y-54396360D01*
X38518740Y-54381120D01*
X38521280Y-54348100D01*
X38523820Y-54287140D01*
X38526360Y-54193160D01*
X38526360Y-54053460D01*
X38526360Y-54038220D01*
X38523820Y-53908680D01*
X38521280Y-53802000D01*
X38518740Y-53735960D01*
X38513660Y-53708020D01*
X38513660Y-53708020D01*
X38483180Y-53700400D01*
X38412060Y-53685160D01*
X38313000Y-53667380D01*
X38193620Y-53644520D01*
X38186000Y-53641980D01*
X38069160Y-53619120D01*
X37970100Y-53598800D01*
X37898980Y-53583560D01*
X37871040Y-53573400D01*
X37863420Y-53565780D01*
X37840560Y-53520060D01*
X37807540Y-53446400D01*
X37766900Y-53357500D01*
X37728800Y-53263520D01*
X37695780Y-53179700D01*
X37672920Y-53118740D01*
X37665300Y-53090800D01*
X37667840Y-53088260D01*
X37685620Y-53060320D01*
X37726260Y-52999360D01*
X37782140Y-52915540D01*
X37850720Y-52813940D01*
X37855800Y-52806320D01*
X37924380Y-52707260D01*
X37980260Y-52620900D01*
X38015820Y-52562480D01*
X38031060Y-52534540D01*
X38031060Y-52532000D01*
X38008200Y-52501520D01*
X37957400Y-52445640D01*
X37883740Y-52369440D01*
X37797380Y-52280540D01*
X37769440Y-52255140D01*
X37670380Y-52158620D01*
X37604340Y-52097660D01*
X37561160Y-52064640D01*
X37540840Y-52057020D01*
X37540840Y-52057020D01*
X37510360Y-52074800D01*
X37446860Y-52115440D01*
X37363040Y-52173860D01*
X37261440Y-52242440D01*
X37253820Y-52247520D01*
X37154760Y-52316100D01*
X37070940Y-52371980D01*
X37012520Y-52412620D01*
X36984580Y-52427860D01*
X36982040Y-52427860D01*
X36941400Y-52415160D01*
X36870280Y-52389760D01*
X36781380Y-52356740D01*
X36689940Y-52318640D01*
X36606120Y-52283080D01*
X36542620Y-52255140D01*
X36512140Y-52237360D01*
X36512140Y-52237360D01*
X36501980Y-52201800D01*
X36484200Y-52125600D01*
X36463880Y-52024000D01*
X36438480Y-51902080D01*
X36435940Y-51881760D01*
X36413080Y-51762380D01*
X36395300Y-51663320D01*
X36380060Y-51594740D01*
X36372440Y-51566800D01*
X36357200Y-51564260D01*
X36298780Y-51559180D01*
X36209880Y-51556640D01*
X36100660Y-51556640D01*
X35988900Y-51556640D01*
X35879680Y-51559180D01*
X35785700Y-51561720D01*
X35717120Y-51566800D01*
X35689180Y-51571880D01*
X35689180Y-51574420D01*
X35679020Y-51612520D01*
X35661240Y-51686180D01*
X35640920Y-51790320D01*
X35618060Y-51912240D01*
X35612980Y-51935100D01*
X35590120Y-52051940D01*
X35569800Y-52151000D01*
X35557100Y-52217040D01*
X35549480Y-52244980D01*
X35536780Y-52250060D01*
X35488520Y-52270380D01*
X35409780Y-52303400D01*
X35310720Y-52344040D01*
X35082120Y-52435480D01*
X34800180Y-52244980D01*
X34774780Y-52227200D01*
X34673180Y-52158620D01*
X34591900Y-52102740D01*
X34533480Y-52064640D01*
X34510620Y-52051940D01*
X34508080Y-52051940D01*
X34480140Y-52077340D01*
X34424260Y-52130680D01*
X34348060Y-52204340D01*
X34259160Y-52290700D01*
X34195660Y-52356740D01*
X34116920Y-52435480D01*
X34068660Y-52488820D01*
X34040720Y-52521840D01*
X34033100Y-52542160D01*
X34035640Y-52557400D01*
X34053420Y-52585340D01*
X34094060Y-52646300D01*
X34152480Y-52732660D01*
X34221060Y-52831720D01*
X34276940Y-52915540D01*
X34337900Y-53009520D01*
X34376000Y-53075560D01*
X34391240Y-53108580D01*
X34386160Y-53121280D01*
X34368380Y-53177160D01*
X34332820Y-53260980D01*
X34292180Y-53360040D01*
X34193120Y-53581020D01*
X34048340Y-53608960D01*
X33959440Y-53626740D01*
X33837520Y-53649600D01*
X33718140Y-53672460D01*
X33535260Y-53708020D01*
X33527640Y-54383660D01*
X33555580Y-54396360D01*
X33583520Y-54403980D01*
X33652100Y-54419220D01*
X33748620Y-54439540D01*
X33865460Y-54459860D01*
X33961980Y-54477640D01*
X34061040Y-54497960D01*
X34132160Y-54510660D01*
X34162640Y-54518280D01*
X34172800Y-54528440D01*
X34195660Y-54576700D01*
X34231220Y-54652900D01*
X34271860Y-54744340D01*
X34309960Y-54838320D01*
X34345520Y-54927220D01*
X34368380Y-54993260D01*
X34378540Y-55026280D01*
X34365840Y-55054220D01*
X34327740Y-55112640D01*
X34274400Y-55193920D01*
X34205820Y-55292980D01*
X34139780Y-55389500D01*
X34081360Y-55473320D01*
X34043260Y-55534280D01*
X34025480Y-55562220D01*
X34035640Y-55580000D01*
X34073740Y-55628260D01*
X34147400Y-55704460D01*
X34259160Y-55813680D01*
X34276940Y-55831460D01*
X34363300Y-55915280D01*
X34436960Y-55983860D01*
X34490300Y-56029580D01*
X34513160Y-56047360D01*
D13*
X33387000Y-56842000D02*
X33437000Y-56882000D01*
X33367000Y-56812000D02*
X33387000Y-56842000D01*
X33347000Y-56752000D02*
X33367000Y-56812000D01*
X33347000Y-56552000D02*
X33347000Y-56752000D01*
X33567000Y-56462000D02*
X33517000Y-56422000D01*
X33587000Y-56492000D02*
X33567000Y-56462000D01*
X33607000Y-56552000D02*
X33587000Y-56492000D01*
X33607000Y-56752000D02*
X33607000Y-56552000D01*
X33587000Y-56822000D02*
X33607000Y-56752000D01*
X33567000Y-56852000D02*
X33587000Y-56822000D01*
X33517000Y-56882000D02*
X33567000Y-56852000D01*
X33437000Y-56882000D02*
X33517000Y-56882000D01*
X33377000Y-56482000D02*
X33347000Y-56552000D01*
X33397000Y-56452000D02*
X33377000Y-56482000D01*
X33437000Y-56422000D02*
X33397000Y-56452000D01*
X33517000Y-56422000D02*
X33437000Y-56422000D01*
X33827000Y-57122000D02*
X33827000Y-56422000D01*
X33877000Y-56882000D02*
X33827000Y-56852000D01*
X33977000Y-56882000D02*
X33877000Y-56882000D01*
X34017000Y-56852000D02*
X33977000Y-56882000D01*
X34037000Y-56822000D02*
X34017000Y-56852000D01*
X34057000Y-56762000D02*
X34037000Y-56822000D01*
X34057000Y-56542000D02*
X34057000Y-56762000D01*
X34037000Y-56482000D02*
X34057000Y-56542000D01*
X34007000Y-56452000D02*
X34037000Y-56482000D01*
X33967000Y-56422000D02*
X34007000Y-56452000D01*
X33867000Y-56422000D02*
X33967000Y-56422000D01*
X33827000Y-56452000D02*
X33867000Y-56422000D01*
X34417000Y-56882000D02*
X34467000Y-56852000D01*
X34317000Y-56882000D02*
X34417000Y-56882000D01*
X34277000Y-56852000D02*
X34317000Y-56882000D01*
X34257000Y-56782000D02*
X34277000Y-56852000D01*
X34257000Y-56512000D02*
X34257000Y-56782000D01*
X34287000Y-56452000D02*
X34257000Y-56512000D01*
X34327000Y-56422000D02*
X34287000Y-56452000D01*
X34427000Y-56422000D02*
X34327000Y-56422000D01*
X34467000Y-56462000D02*
X34427000Y-56422000D01*
X34487000Y-56532000D02*
X34467000Y-56462000D01*
X34487000Y-56652000D02*
X34487000Y-56532000D01*
X34707000Y-56422000D02*
X34707000Y-56882000D01*
X34917000Y-56512000D02*
X34917000Y-56882000D01*
X34897000Y-56452000D02*
X34917000Y-56512000D01*
X34857000Y-56422000D02*
X34897000Y-56452000D01*
X34767000Y-56422000D02*
X34857000Y-56422000D01*
X34727000Y-56452000D02*
X34767000Y-56422000D01*
X34707000Y-56482000D02*
X34727000Y-56452000D01*
X34487000Y-56652000D02*
X34257000Y-56652000D01*
X35537000Y-56182000D02*
X35537000Y-56882000D01*
X35747000Y-56512000D02*
X35747000Y-56882000D01*
X35727000Y-56452000D02*
X35747000Y-56512000D01*
X35687000Y-56422000D02*
X35727000Y-56452000D01*
X35607000Y-56422000D02*
X35687000Y-56422000D01*
X35557000Y-56452000D02*
X35607000Y-56422000D01*
X35537000Y-56492000D02*
X35557000Y-56452000D01*
X36207000Y-56512000D02*
X36207000Y-56882000D01*
X36177000Y-56452000D02*
X36207000Y-56512000D01*
X36137000Y-56422000D02*
X36177000Y-56452000D01*
X36037000Y-56422000D02*
X36137000Y-56422000D01*
X35987000Y-56452000D02*
X36037000Y-56422000D01*
X36047000Y-56612000D02*
X35997000Y-56642000D01*
X36167000Y-56612000D02*
X36047000Y-56612000D01*
X36207000Y-56582000D02*
X36167000Y-56612000D01*
X36157000Y-56882000D02*
X36207000Y-56842000D01*
X36037000Y-56882000D02*
X36157000Y-56882000D01*
X35987000Y-56842000D02*
X36037000Y-56882000D01*
X35967000Y-56782000D02*
X35987000Y-56842000D01*
X35967000Y-56712000D02*
X35967000Y-56782000D01*
X35997000Y-56642000D02*
X35967000Y-56712000D01*
X36447000Y-56422000D02*
X36447000Y-56882000D01*
X36537000Y-56422000D02*
X36587000Y-56422000D01*
X36487000Y-56452000D02*
X36537000Y-56422000D01*
X36467000Y-56472000D02*
X36487000Y-56452000D01*
X36447000Y-56542000D02*
X36467000Y-56472000D01*
X36967000Y-56182000D02*
X36967000Y-56882000D01*
X36907000Y-56412000D02*
X36967000Y-56452000D01*
X36837000Y-56412000D02*
X36907000Y-56412000D01*
X36777000Y-56452000D02*
X36837000Y-56412000D01*
X36757000Y-56482000D02*
X36777000Y-56452000D01*
X36727000Y-56552000D02*
X36757000Y-56482000D01*
X36727000Y-56752000D02*
X36727000Y-56552000D01*
X36757000Y-56822000D02*
X36727000Y-56752000D01*
X36777000Y-56852000D02*
X36757000Y-56822000D01*
X36817000Y-56882000D02*
X36777000Y-56852000D01*
X36927000Y-56882000D02*
X36817000Y-56882000D01*
X36967000Y-56852000D02*
X36927000Y-56882000D01*
X37447000Y-56882000D02*
X37547000Y-56422000D01*
X37347000Y-56542000D02*
X37447000Y-56882000D01*
X37257000Y-56882000D02*
X37347000Y-56542000D01*
X37157000Y-56422000D02*
X37257000Y-56882000D01*
X37737000Y-56642000D02*
X37707000Y-56712000D01*
X37707000Y-56712000D02*
X37707000Y-56782000D01*
X37707000Y-56782000D02*
X37727000Y-56842000D01*
X37727000Y-56842000D02*
X37777000Y-56882000D01*
X37777000Y-56882000D02*
X37897000Y-56882000D01*
X37897000Y-56882000D02*
X37947000Y-56842000D01*
X37947000Y-56582000D02*
X37907000Y-56612000D01*
X37907000Y-56612000D02*
X37787000Y-56612000D01*
X37787000Y-56612000D02*
X37737000Y-56642000D01*
X37727000Y-56452000D02*
X37777000Y-56422000D01*
X37777000Y-56422000D02*
X37877000Y-56422000D01*
X37877000Y-56422000D02*
X37917000Y-56452000D01*
X37917000Y-56452000D02*
X37947000Y-56512000D01*
X37947000Y-56512000D02*
X37947000Y-56882000D01*
X38697000Y-56652000D02*
X38467000Y-56652000D01*
X38697000Y-56652000D02*
X38697000Y-56532000D01*
X38697000Y-56532000D02*
X38677000Y-56462000D01*
X38677000Y-56462000D02*
X38637000Y-56422000D01*
X38637000Y-56422000D02*
X38537000Y-56422000D01*
X38537000Y-56422000D02*
X38497000Y-56452000D01*
X38497000Y-56452000D02*
X38467000Y-56512000D01*
X38467000Y-56512000D02*
X38467000Y-56782000D01*
X38467000Y-56782000D02*
X38487000Y-56852000D01*
X38487000Y-56852000D02*
X38527000Y-56882000D01*
X38527000Y-56882000D02*
X38627000Y-56882000D01*
X38627000Y-56882000D02*
X38677000Y-56852000D01*
X38187000Y-56542000D02*
X38207000Y-56472000D01*
X38207000Y-56472000D02*
X38227000Y-56452000D01*
X38227000Y-56452000D02*
X38277000Y-56422000D01*
X38277000Y-56422000D02*
X38327000Y-56422000D01*
X38187000Y-56422000D02*
X38187000Y-56882000D01*
D14*
X27204000Y-56783000D02*
X27204000Y-51583000D01*
X32404000Y-51583000D02*
X32404000Y-56783000D01*
X32004000Y-52383000D02*
X32404000Y-52383000D01*
X32004000Y-52983000D02*
X32404000Y-52983000D01*
X32004000Y-53583000D02*
X32404000Y-53583000D01*
X32004000Y-54183000D02*
X32404000Y-54183000D01*
X32004000Y-54783000D02*
X32404000Y-54783000D01*
X32004000Y-55383000D02*
X32404000Y-55383000D01*
X32004000Y-55983000D02*
X32404000Y-55983000D01*
X27204000Y-55983000D02*
X27604000Y-55983000D01*
X27204000Y-55383000D02*
X27604000Y-55383000D01*
X27204000Y-54783000D02*
X27604000Y-54783000D01*
X27204000Y-54183000D02*
X27604000Y-54183000D01*
X27204000Y-53583000D02*
X27604000Y-53583000D01*
X27204000Y-52983000D02*
X27604000Y-52983000D01*
X27204000Y-52383000D02*
X27604000Y-52383000D01*
X31504000Y-52083000D02*
X31504000Y-51683000D01*
X30904000Y-52083000D02*
X30904000Y-51683000D01*
X30304000Y-52083000D02*
X30304000Y-51683000D01*
X29704000Y-52083000D02*
X29704000Y-51683000D01*
X29104000Y-52083000D02*
X29104000Y-51683000D01*
X28504000Y-52083000D02*
X28504000Y-51683000D01*
X27904000Y-52083000D02*
X27904000Y-51683000D01*
X27204000Y-56783000D02*
X32404000Y-56783000D01*
X27204000Y-51583000D02*
X32404000Y-51583000D01*
X27904000Y-56683000D02*
X27904000Y-56283000D01*
X28504000Y-56683000D02*
X28504000Y-56283000D01*
X29104000Y-56683000D02*
X29104000Y-56283000D01*
X29704000Y-56683000D02*
X29704000Y-56283000D01*
X30304000Y-56683000D02*
X30304000Y-56283000D01*
X30904000Y-56683000D02*
X30904000Y-56283000D01*
X31504000Y-56683000D02*
X31504000Y-56283000D01*
D15*
X41053000Y-39697000D02*
X41053000Y-38097000D01*
X41853000Y-51997000D02*
X41853000Y-39697000D01*
X39853000Y-39697000D02*
X39853000Y-51997000D01*
X40653000Y-39697000D02*
X40653000Y-38097000D01*
X41053000Y-53597000D02*
X41053000Y-51997000D01*
X40653000Y-51997000D02*
X41153000Y-51997000D01*
X40653000Y-53597000D02*
X40653000Y-51997000D01*
X41853000Y-51997000D02*
X39853000Y-51997000D01*
X39853000Y-39697000D02*
X41853000Y-39697000D01*
D16*
X34511000Y-44396000D02*
X34511000Y-42296000D01*
X35511000Y-44396000D02*
X35511000Y-42296000D01*
X34511000Y-44396000D02*
X35511000Y-44396000D01*
X30955000Y-44345000D02*
X31955000Y-44345000D01*
X31955000Y-44345000D02*
X31955000Y-42245000D01*
X30955000Y-44345000D02*
X30955000Y-42245000D01*
X66627000Y-56730000D02*
X66627000Y-58120000D01*
X65237000Y-56730000D02*
X66627000Y-56730000D01*
X63967000Y-59510000D02*
X63967000Y-56730000D01*
X53687000Y-59510000D02*
X63967000Y-59510000D01*
X53687000Y-56730000D02*
X53687000Y-59510000D01*
X63967000Y-56730000D02*
X53687000Y-56730000D01*
D17*
X45488500Y-39197000D02*
X46148900Y-39197000D01*
X45488500Y-41102000D02*
X46148900Y-41102000D01*
X44091500Y-40149500D02*
X43431100Y-40149500D01*
X44091500Y-41648100D02*
X44091500Y-38650900D01*
X44091500Y-38650900D02*
X45488500Y-38650900D01*
X45488500Y-38650900D02*
X45488500Y-41648100D01*
X45488500Y-41648100D02*
X44091500Y-41648100D01*
X46288600Y-46623960D02*
X47101400Y-46623960D01*
X47076000Y-45506360D02*
X46288600Y-45506360D01*
X47101400Y-45252360D02*
X47101400Y-46877960D01*
X47101400Y-46877960D02*
X46288600Y-46877960D01*
X46288600Y-46877960D02*
X46288600Y-45252360D01*
X46288600Y-45252360D02*
X47101400Y-45252360D01*
X35417400Y-48782960D02*
X34604600Y-48782960D01*
X35417400Y-47157360D02*
X35417400Y-48782960D01*
X34604600Y-47157360D02*
X35417400Y-47157360D01*
X34604600Y-48782960D02*
X34604600Y-47157360D01*
X34630000Y-48528960D02*
X35417400Y-48528960D01*
X35417400Y-47411360D02*
X34604600Y-47411360D01*
X31734400Y-47411360D02*
X30921600Y-47411360D01*
X30947000Y-48528960D02*
X31734400Y-48528960D01*
X30921600Y-48782960D02*
X30921600Y-47157360D01*
X30921600Y-47157360D02*
X31734400Y-47157360D01*
X31734400Y-47157360D02*
X31734400Y-48782960D01*
X31734400Y-48782960D02*
X30921600Y-48782960D01*
D15*
X50656000Y-54022000D02*
X50656000Y-36022000D01*
X70156000Y-54022000D02*
X50656000Y-54022000D01*
X70156000Y-36022000D02*
X70156000Y-54022000D01*
X50656000Y-36022000D02*
X70156000Y-36022000D01*
D17*
X47263960Y-55097400D02*
X47263960Y-54284600D01*
X46146360Y-54310000D02*
X46146360Y-55097400D01*
X45892360Y-54284600D02*
X47517960Y-54284600D01*
X47517960Y-54284600D02*
X47517960Y-55097400D01*
X47517960Y-55097400D02*
X45892360Y-55097400D01*
X45892360Y-55097400D02*
X45892360Y-54284600D01*
X47584000Y-58170800D02*
X47584000Y-56545200D01*
X45298000Y-56545200D02*
X45298000Y-58170800D01*
X44840800Y-56545200D02*
X44840800Y-58170800D01*
X44840800Y-58170800D02*
X48041200Y-58170800D01*
X48041200Y-58170800D02*
X48041200Y-56545200D01*
X48041200Y-56545200D02*
X44840800Y-56545200D01*
D10*
X28184952Y-54075857D02*
X28184952Y-54575857D01*
X28184952Y-54099666D02*
X28232571Y-54075857D01*
X28327809Y-54075857D01*
X28375428Y-54099666D01*
X28399238Y-54123476D01*
X28423047Y-54171095D01*
X28423047Y-54313952D01*
X28399238Y-54361571D01*
X28375428Y-54385380D01*
X28327809Y-54409190D01*
X28232571Y-54409190D01*
X28184952Y-54385380D01*
X28851619Y-54385380D02*
X28804000Y-54409190D01*
X28708761Y-54409190D01*
X28661142Y-54385380D01*
X28637333Y-54361571D01*
X28613523Y-54313952D01*
X28613523Y-54171095D01*
X28637333Y-54123476D01*
X28661142Y-54099666D01*
X28708761Y-54075857D01*
X28804000Y-54075857D01*
X28851619Y-54099666D01*
X29065904Y-54409190D02*
X29065904Y-53909190D01*
X29065904Y-54099666D02*
X29113523Y-54075857D01*
X29208761Y-54075857D01*
X29256380Y-54099666D01*
X29280190Y-54123476D01*
X29304000Y-54171095D01*
X29304000Y-54313952D01*
X29280190Y-54361571D01*
X29256380Y-54385380D01*
X29208761Y-54409190D01*
X29113523Y-54409190D01*
X29065904Y-54385380D01*
X29518285Y-54409190D02*
X29518285Y-54075857D01*
X29518285Y-54171095D02*
X29542095Y-54123476D01*
X29565904Y-54099666D01*
X29613523Y-54075857D01*
X29661142Y-54075857D01*
X30018285Y-54385380D02*
X29970666Y-54409190D01*
X29875428Y-54409190D01*
X29827809Y-54385380D01*
X29804000Y-54337761D01*
X29804000Y-54147285D01*
X29827809Y-54099666D01*
X29875428Y-54075857D01*
X29970666Y-54075857D01*
X30018285Y-54099666D01*
X30042095Y-54147285D01*
X30042095Y-54194904D01*
X29804000Y-54242523D01*
X30184952Y-54075857D02*
X30375428Y-54075857D01*
X30256380Y-54409190D02*
X30256380Y-53980619D01*
X30280190Y-53933000D01*
X30327809Y-53909190D01*
X30375428Y-53909190D01*
X30613523Y-54409190D02*
X30565904Y-54385380D01*
X30542095Y-54337761D01*
X30542095Y-53909190D01*
X31018285Y-54075857D02*
X31018285Y-54409190D01*
X30804000Y-54075857D02*
X30804000Y-54337761D01*
X30827809Y-54385380D01*
X30875428Y-54409190D01*
X30946857Y-54409190D01*
X30994476Y-54385380D01*
X31018285Y-54361571D01*
X31208761Y-54409190D02*
X31470666Y-54075857D01*
X31208761Y-54075857D02*
X31470666Y-54409190D01*
D14*
X39606761Y-46118333D02*
X39654380Y-45975476D01*
X39654380Y-45737380D01*
X39606761Y-45642142D01*
X39559142Y-45594523D01*
X39463904Y-45546904D01*
X39368666Y-45546904D01*
X39273428Y-45594523D01*
X39225809Y-45642142D01*
X39178190Y-45737380D01*
X39130571Y-45927857D01*
X39082952Y-46023095D01*
X39035333Y-46070714D01*
X38940095Y-46118333D01*
X38844857Y-46118333D01*
X38749619Y-46070714D01*
X38702000Y-46023095D01*
X38654380Y-45927857D01*
X38654380Y-45689761D01*
X38702000Y-45546904D01*
X38654380Y-45213571D02*
X39654380Y-44975476D01*
X38940095Y-44785000D01*
X39654380Y-44594523D01*
X38654380Y-44356428D01*
X39654380Y-43451666D02*
X39654380Y-44023095D01*
X39654380Y-43737380D02*
X38654380Y-43737380D01*
X38797238Y-43832619D01*
X38892476Y-43927857D01*
X38940095Y-44023095D01*
X34213380Y-43834095D02*
X33213380Y-43834095D01*
X33213380Y-43596000D01*
X33261000Y-43453142D01*
X33356238Y-43357904D01*
X33451476Y-43310285D01*
X33641952Y-43262666D01*
X33784809Y-43262666D01*
X33975285Y-43310285D01*
X34070523Y-43357904D01*
X34165761Y-43453142D01*
X34213380Y-43596000D01*
X34213380Y-43834095D01*
X34213380Y-42310285D02*
X34213380Y-42881714D01*
X34213380Y-42596000D02*
X33213380Y-42596000D01*
X33356238Y-42691238D01*
X33451476Y-42786476D01*
X33499095Y-42881714D01*
X30657380Y-43783095D02*
X29657380Y-43783095D01*
X29657380Y-43545000D01*
X29705000Y-43402142D01*
X29800238Y-43306904D01*
X29895476Y-43259285D01*
X30085952Y-43211666D01*
X30228809Y-43211666D01*
X30419285Y-43259285D01*
X30514523Y-43306904D01*
X30609761Y-43402142D01*
X30657380Y-43545000D01*
X30657380Y-43783095D01*
X29752619Y-42830714D02*
X29705000Y-42783095D01*
X29657380Y-42687857D01*
X29657380Y-42449761D01*
X29705000Y-42354523D01*
X29752619Y-42306904D01*
X29847857Y-42259285D01*
X29943095Y-42259285D01*
X30085952Y-42306904D01*
X30657380Y-42878333D01*
X30657380Y-42259285D01*
X68079380Y-58858095D02*
X67079380Y-58858095D01*
X67079380Y-58477142D01*
X67127000Y-58381904D01*
X67174619Y-58334285D01*
X67269857Y-58286666D01*
X67412714Y-58286666D01*
X67507952Y-58334285D01*
X67555571Y-58381904D01*
X67603190Y-58477142D01*
X67603190Y-58858095D01*
X68079380Y-57334285D02*
X68079380Y-57905714D01*
X68079380Y-57620000D02*
X67079380Y-57620000D01*
X67222238Y-57715238D01*
X67317476Y-57810476D01*
X67365095Y-57905714D01*
D18*
X45445017Y-42292655D02*
X45421190Y-42340310D01*
X45373534Y-42387965D01*
X45302051Y-42459448D01*
X45278224Y-42507103D01*
X45278224Y-42554759D01*
X45397362Y-42530931D02*
X45373534Y-42578586D01*
X45325879Y-42626241D01*
X45230569Y-42650069D01*
X45063775Y-42650069D01*
X44968465Y-42626241D01*
X44920810Y-42578586D01*
X44896982Y-42530931D01*
X44896982Y-42435620D01*
X44920810Y-42387965D01*
X44968465Y-42340310D01*
X45063775Y-42316482D01*
X45230569Y-42316482D01*
X45325879Y-42340310D01*
X45373534Y-42387965D01*
X45397362Y-42435620D01*
X45397362Y-42530931D01*
X45397362Y-41839930D02*
X45397362Y-42125861D01*
X45397362Y-41982896D02*
X44896982Y-41982896D01*
X44968465Y-42030551D01*
X45016120Y-42078206D01*
X45039948Y-42125861D01*
D19*
X45896774Y-46850443D02*
X45801222Y-46917330D01*
X45896774Y-46965106D02*
X45696114Y-46965106D01*
X45696114Y-46888664D01*
X45705670Y-46869553D01*
X45715225Y-46859998D01*
X45734335Y-46850443D01*
X45763001Y-46850443D01*
X45782111Y-46859998D01*
X45791667Y-46869553D01*
X45801222Y-46888664D01*
X45801222Y-46965106D01*
X45896774Y-46659338D02*
X45896774Y-46774001D01*
X45896774Y-46716670D02*
X45696114Y-46716670D01*
X45724780Y-46735780D01*
X45743890Y-46754890D01*
X45753446Y-46774001D01*
X34212774Y-48755443D02*
X34117222Y-48822330D01*
X34212774Y-48870106D02*
X34012114Y-48870106D01*
X34012114Y-48793664D01*
X34021670Y-48774553D01*
X34031225Y-48764998D01*
X34050335Y-48755443D01*
X34079001Y-48755443D01*
X34098111Y-48764998D01*
X34107667Y-48774553D01*
X34117222Y-48793664D01*
X34117222Y-48870106D01*
X34031225Y-48679001D02*
X34021670Y-48669446D01*
X34012114Y-48650335D01*
X34012114Y-48602559D01*
X34021670Y-48583449D01*
X34031225Y-48573893D01*
X34050335Y-48564338D01*
X34069446Y-48564338D01*
X34098111Y-48573893D01*
X34212774Y-48688556D01*
X34212774Y-48564338D01*
X30529774Y-48755443D02*
X30434222Y-48822330D01*
X30529774Y-48870106D02*
X30329114Y-48870106D01*
X30329114Y-48793664D01*
X30338670Y-48774553D01*
X30348225Y-48764998D01*
X30367335Y-48755443D01*
X30396001Y-48755443D01*
X30415111Y-48764998D01*
X30424667Y-48774553D01*
X30434222Y-48793664D01*
X30434222Y-48870106D01*
X30329114Y-48688556D02*
X30329114Y-48564338D01*
X30405556Y-48631225D01*
X30405556Y-48602559D01*
X30415111Y-48583449D01*
X30424667Y-48573893D01*
X30443777Y-48564338D01*
X30491553Y-48564338D01*
X30510664Y-48573893D01*
X30520219Y-48583449D01*
X30529774Y-48602559D01*
X30529774Y-48659890D01*
X30520219Y-48679001D01*
X30510664Y-48688556D01*
D10*
X49560885Y-53632828D02*
X50168028Y-53632828D01*
X50239457Y-53597114D01*
X50275171Y-53561400D01*
X50310885Y-53489971D01*
X50310885Y-53347114D01*
X50275171Y-53275685D01*
X50239457Y-53239971D01*
X50168028Y-53204257D01*
X49560885Y-53204257D01*
X50310885Y-52454257D02*
X50310885Y-52882828D01*
X50310885Y-52668542D02*
X49560885Y-52668542D01*
X49668028Y-52739971D01*
X49739457Y-52811400D01*
X49775171Y-52882828D01*
D19*
X46671716Y-54127664D02*
X46662161Y-54137219D01*
X46633495Y-54146774D01*
X46614385Y-54146774D01*
X46585719Y-54137219D01*
X46566609Y-54118109D01*
X46557053Y-54098998D01*
X46547498Y-54060777D01*
X46547498Y-54032111D01*
X46557053Y-53993890D01*
X46566609Y-53974780D01*
X46585719Y-53955670D01*
X46614385Y-53946114D01*
X46633495Y-53946114D01*
X46662161Y-53955670D01*
X46671716Y-53965225D01*
X46862821Y-54146774D02*
X46748158Y-54146774D01*
X46805490Y-54146774D02*
X46805490Y-53946114D01*
X46786379Y-53974780D01*
X46767269Y-53993890D01*
X46748158Y-54003446D01*
D20*
X46383003Y-56241307D02*
X46359175Y-56265134D01*
X46287692Y-56288962D01*
X46240037Y-56288962D01*
X46168554Y-56265134D01*
X46120899Y-56217479D01*
X46097071Y-56169824D01*
X46073244Y-56074513D01*
X46073244Y-56003030D01*
X46097071Y-55907720D01*
X46120899Y-55860065D01*
X46168554Y-55812410D01*
X46240037Y-55788582D01*
X46287692Y-55788582D01*
X46359175Y-55812410D01*
X46383003Y-55836237D01*
X46573624Y-55836237D02*
X46597451Y-55812410D01*
X46645107Y-55788582D01*
X46764245Y-55788582D01*
X46811900Y-55812410D01*
X46835728Y-55836237D01*
X46859555Y-55883892D01*
X46859555Y-55931548D01*
X46835728Y-56003030D01*
X46549796Y-56288962D01*
X46859555Y-56288962D01*
M02*
