M48
;DRILL file {KiCad no-vcs-found} date Thu Jan  5 12:59:49 2017
;FORMAT={-:-/ absolute / metric / decimal}
FMAT,2
METRIC,TZ
T1C0.300
T2C0.400
T3C1.000
%
G90
G05
M71
T1
X99.695Y-66.294
X106.299Y-68.834
X111.956Y-56.322
X111.956Y-57.322
X111.956Y-58.322
X111.956Y-59.322
X111.956Y-60.322
X112.903Y-63.627
X112.956Y-56.322
X112.956Y-57.322
X112.956Y-58.322
X112.956Y-59.322
X112.956Y-60.322
X113.956Y-56.322
X113.956Y-57.322
X113.956Y-58.322
X113.956Y-59.322
X113.956Y-60.322
X114.956Y-56.322
X114.956Y-57.322
X114.956Y-58.322
X114.956Y-59.322
X114.956Y-60.322
X115.956Y-56.322
X115.956Y-57.322
X115.956Y-58.322
X115.956Y-59.322
X115.956Y-60.322
X122.555Y-51.308
X122.555Y-52.451
X122.555Y-53.467
X122.555Y-54.483
X122.555Y-55.626
X122.555Y-56.642
X122.555Y-57.658
X122.555Y-58.674
X122.555Y-59.69
X122.555Y-60.706
X122.555Y-61.722
X122.555Y-62.738
X122.555Y-63.754
X122.555Y-64.77
T2
X96.139Y-68.072
X100.706Y-49.027
X100.706Y-51.43
X101.346Y-65.913
X101.981Y-52.705
X119.126Y-52.197
X120.396Y-50.673
T3
X108.077Y-71.12
X110.617Y-71.12
X113.157Y-71.12
X115.697Y-71.12
X118.237Y-71.12
T0
M30
