G04 #@! TF.GenerationSoftware,KiCad,Pcbnew,6.0.0-rc1-unknown-7dfc4e3~65~ubuntu18.04.1*
G04 #@! TF.CreationDate,2018-07-30T15:29:30+02:00*
G04 #@! TF.ProjectId,ESP32-li-ion-cell-monitor,45535033322D6C692D696F6E2D63656C,1.1*
G04 #@! TF.SameCoordinates,Original*
G04 #@! TF.FileFunction,Copper,L1,Top,Signal*
G04 #@! TF.FilePolarity,Positive*
%FSLAX46Y46*%
G04 Gerber Fmt 4.6, Leading zero omitted, Abs format (unit mm)*
G04 Created by KiCad (PCBNEW 6.0.0-rc1-unknown-7dfc4e3~65~ubuntu18.04.1) date Mon Jul 30 15:29:30 2018*
%MOMM*%
%LPD*%
G01*
G04 APERTURE LIST*
G04 #@! TA.AperFunction,SMDPad,CuDef*
%ADD10R,0.350000X0.260000*%
G04 #@! TD*
G04 #@! TA.AperFunction,SMDPad,CuDef*
%ADD11R,0.440000X1.440000*%
G04 #@! TD*
G04 #@! TA.AperFunction,ComponentPad*
%ADD12C,0.300000*%
G04 #@! TD*
G04 #@! TA.AperFunction,ViaPad*
%ADD13C,0.600000*%
G04 #@! TD*
G04 #@! TA.AperFunction,SMDPad,CuDef*
%ADD14R,0.400000X1.060000*%
G04 #@! TD*
G04 #@! TA.AperFunction,ComponentPad*
%ADD15O,1.700000X1.700000*%
G04 #@! TD*
G04 #@! TA.AperFunction,ComponentPad*
%ADD16R,1.700000X1.700000*%
G04 #@! TD*
G04 #@! TA.AperFunction,ComponentPad*
%ADD17C,0.800000*%
G04 #@! TD*
G04 #@! TA.AperFunction,SMDPad,CuDef*
%ADD18R,6.000000X6.000000*%
G04 #@! TD*
G04 #@! TA.AperFunction,SMDPad,CuDef*
%ADD19R,1.350000X0.900000*%
G04 #@! TD*
G04 #@! TA.AperFunction,SMDPad,CuDef*
%ADD20R,0.900000X1.350000*%
G04 #@! TD*
G04 #@! TA.AperFunction,SMDPad,CuDef*
%ADD21R,0.650000X1.060000*%
G04 #@! TD*
G04 #@! TA.AperFunction,Conductor*
%ADD22C,0.100000*%
G04 #@! TD*
G04 #@! TA.AperFunction,SMDPad,CuDef*
%ADD23C,1.150000*%
G04 #@! TD*
G04 #@! TA.AperFunction,SMDPad,CuDef*
%ADD24C,0.875000*%
G04 #@! TD*
G04 #@! TA.AperFunction,SMDPad,CuDef*
%ADD25R,0.900000X0.800000*%
G04 #@! TD*
G04 #@! TA.AperFunction,BGAPad,CuDef*
%ADD26C,2.000000*%
G04 #@! TD*
G04 #@! TA.AperFunction,SMDPad,CuDef*
%ADD27R,1.100000X1.100000*%
G04 #@! TD*
G04 #@! TA.AperFunction,SMDPad,CuDef*
%ADD28R,1.000000X1.000000*%
G04 #@! TD*
G04 #@! TA.AperFunction,SMDPad,CuDef*
%ADD29C,1.525000*%
G04 #@! TD*
G04 #@! TA.AperFunction,ComponentPad*
%ADD30C,10.160000*%
G04 #@! TD*
G04 #@! TA.AperFunction,ViaPad*
%ADD31C,0.800000*%
G04 #@! TD*
G04 #@! TA.AperFunction,ViaPad*
%ADD32C,2.000000*%
G04 #@! TD*
G04 #@! TA.AperFunction,Conductor*
%ADD33C,0.250000*%
G04 #@! TD*
G04 #@! TA.AperFunction,Conductor*
%ADD34C,1.000000*%
G04 #@! TD*
G04 #@! TA.AperFunction,Conductor*
%ADD35C,0.200000*%
G04 #@! TD*
G04 #@! TA.AperFunction,Conductor*
%ADD36C,0.500000*%
G04 #@! TD*
G04 #@! TA.AperFunction,Conductor*
%ADD37C,0.254000*%
G04 #@! TD*
G04 APERTURE END LIST*
D10*
G04 #@! TO.P,U1,1*
G04 #@! TO.N,+3V*
X214867000Y-69504000D03*
G04 #@! TO.P,U1,2*
X214867000Y-69904000D03*
G04 #@! TO.P,U1,3*
G04 #@! TO.N,Net-(U1-Pad3)*
X214867000Y-70304000D03*
G04 #@! TO.P,U1,4*
G04 #@! TO.N,+3V*
X214867000Y-70704000D03*
G04 #@! TO.P,U1,5*
G04 #@! TO.N,GND*
X215917000Y-70704000D03*
G04 #@! TO.P,U1,6*
G04 #@! TO.N,VCC*
X215917000Y-70304000D03*
G04 #@! TO.P,U1,7*
X215917000Y-69904000D03*
G04 #@! TO.P,U1,8*
X215917000Y-69504000D03*
D11*
G04 #@! TO.P,U1,9*
G04 #@! TO.N,GND*
X215392000Y-70104000D03*
D12*
X215392000Y-69604000D03*
X215392000Y-69929000D03*
X215392000Y-70279000D03*
X215392000Y-70604000D03*
G04 #@! TD*
D13*
G04 #@! TO.N,GND*
G04 #@! TO.C,REF\002A\002A*
X216281000Y-71437500D03*
G04 #@! TD*
D14*
G04 #@! TO.P,U3,8*
G04 #@! TO.N,GND*
X216880000Y-58250000D03*
G04 #@! TO.P,U3,7*
X216230000Y-58250000D03*
G04 #@! TO.P,U3,6*
G04 #@! TO.N,/SDA*
X215570000Y-58250000D03*
G04 #@! TO.P,U3,5*
G04 #@! TO.N,/SCL*
X214920000Y-58250000D03*
G04 #@! TO.P,U3,4*
G04 #@! TO.N,+3V*
X214920000Y-56050000D03*
G04 #@! TO.P,U3,3*
G04 #@! TO.N,GND*
X215570000Y-56050000D03*
G04 #@! TO.P,U3,2*
G04 #@! TO.N,VCC*
X216230000Y-56050000D03*
G04 #@! TO.P,U3,1*
G04 #@! TO.N,+BATT*
X216880000Y-56050000D03*
G04 #@! TD*
D13*
G04 #@! TO.N,GND*
G04 #@! TO.C,REF\002A\002A*
X216916000Y-59944000D03*
G04 #@! TD*
G04 #@! TO.N,VCC*
G04 #@! TO.C,REF\002A\002A*
X201422000Y-72898000D03*
G04 #@! TD*
G04 #@! TO.N,VCC*
G04 #@! TO.C,REF\002A\002A*
X202438000Y-72898000D03*
G04 #@! TD*
G04 #@! TO.N,VCC*
G04 #@! TO.C,REF\002A\002A*
X202438000Y-71882000D03*
G04 #@! TD*
G04 #@! TO.N,VCC*
G04 #@! TO.C,REF\002A\002A*
X200406000Y-72898000D03*
G04 #@! TD*
G04 #@! TO.N,VCC*
G04 #@! TO.C,REF\002A\002A*
X200406000Y-71882000D03*
G04 #@! TD*
G04 #@! TO.N,VCC*
G04 #@! TO.C,REF\002A\002A*
X202438000Y-55626000D03*
G04 #@! TD*
G04 #@! TO.N,VCC*
G04 #@! TO.C,REF\002A\002A*
X201422000Y-55626000D03*
G04 #@! TD*
G04 #@! TO.N,VCC*
G04 #@! TO.C,REF\002A\002A*
X200406000Y-55626000D03*
G04 #@! TD*
G04 #@! TO.N,VCC*
G04 #@! TO.C,REF\002A\002A*
X200406000Y-54610000D03*
G04 #@! TD*
G04 #@! TO.N,VCC*
G04 #@! TO.C,REF\002A\002A*
X202438000Y-54610000D03*
G04 #@! TD*
G04 #@! TO.N,VCC*
G04 #@! TO.C,REF\002A\002A*
X231902000Y-52324000D03*
G04 #@! TD*
G04 #@! TO.N,GND*
G04 #@! TO.C,REF\002A\002A*
X199390000Y-74676000D03*
G04 #@! TD*
G04 #@! TO.N,GND*
G04 #@! TO.C,REF\002A\002A*
X203708000Y-74676000D03*
G04 #@! TD*
G04 #@! TO.N,GND*
G04 #@! TO.C,REF\002A\002A*
X214630000Y-68580000D03*
G04 #@! TD*
G04 #@! TO.N,GND*
G04 #@! TO.C,REF\002A\002A*
X228600000Y-71374000D03*
G04 #@! TD*
G04 #@! TO.N,GND*
G04 #@! TO.C,REF\002A\002A*
X231902000Y-73406000D03*
G04 #@! TD*
G04 #@! TO.N,+BATT*
G04 #@! TO.C,REF\002A\002A*
X223012000Y-58166000D03*
G04 #@! TD*
G04 #@! TO.N,+BATT*
G04 #@! TO.C,REF\002A\002A*
X231648000Y-59436000D03*
G04 #@! TD*
G04 #@! TO.N,+BATT*
G04 #@! TO.C,REF\002A\002A*
X221488000Y-68326000D03*
G04 #@! TD*
G04 #@! TO.N,+BATT*
G04 #@! TO.C,REF\002A\002A*
X231394000Y-68326000D03*
G04 #@! TD*
G04 #@! TO.N,+BATT*
G04 #@! TO.C,REF\002A\002A*
X231648000Y-54864000D03*
G04 #@! TD*
G04 #@! TO.N,+BATT*
G04 #@! TO.C,REF\002A\002A*
X219964000Y-60706000D03*
G04 #@! TD*
G04 #@! TO.N,VCC*
G04 #@! TO.C,REF\002A\002A*
X220472000Y-55118000D03*
G04 #@! TD*
G04 #@! TO.N,VCC*
G04 #@! TO.C,REF\002A\002A*
X201422000Y-71882000D03*
G04 #@! TD*
G04 #@! TO.N,VCC*
G04 #@! TO.C,REF\002A\002A*
X201422000Y-54610000D03*
G04 #@! TD*
G04 #@! TO.N,GND*
G04 #@! TO.C,REF\002A\002A*
X205232000Y-57500000D03*
G04 #@! TD*
G04 #@! TO.N,GND*
G04 #@! TO.C,REF\002A\002A*
X209042000Y-59182000D03*
G04 #@! TD*
G04 #@! TO.N,GND*
G04 #@! TO.C,REF\002A\002A*
X197358000Y-58928000D03*
G04 #@! TD*
G04 #@! TO.N,GND*
G04 #@! TO.C,REF\002A\002A*
X194056000Y-58928000D03*
G04 #@! TD*
G04 #@! TO.N,GND*
G04 #@! TO.C,REF\002A\002A*
X208534000Y-64516000D03*
G04 #@! TD*
G04 #@! TO.N,GND*
G04 #@! TO.C,REF\002A\002A*
X193294000Y-64262000D03*
G04 #@! TD*
G04 #@! TO.N,GND*
G04 #@! TO.C,REF\002A\002A*
X193294000Y-64770000D03*
G04 #@! TD*
G04 #@! TO.N,GND*
G04 #@! TO.C,REF\002A\002A*
X197358000Y-64516000D03*
G04 #@! TD*
G04 #@! TO.N,GND*
G04 #@! TO.C,REF\002A\002A*
X204724000Y-64516000D03*
G04 #@! TD*
G04 #@! TO.N,VCC*
G04 #@! TO.C,REF\002A\002A*
X211582000Y-54610000D03*
G04 #@! TD*
G04 #@! TO.N,VCC*
G04 #@! TO.C,REF\002A\002A*
X213614000Y-54610000D03*
G04 #@! TD*
G04 #@! TO.N,VCC*
G04 #@! TO.C,REF\002A\002A*
X213614000Y-52832000D03*
G04 #@! TD*
G04 #@! TO.N,VCC*
G04 #@! TO.C,REF\002A\002A*
X211582000Y-52832000D03*
G04 #@! TD*
G04 #@! TO.N,VCC*
G04 #@! TO.C,REF\002A\002A*
X213614000Y-71882000D03*
G04 #@! TD*
G04 #@! TO.N,VCC*
G04 #@! TO.C,REF\002A\002A*
X213614000Y-73152000D03*
G04 #@! TD*
G04 #@! TO.N,VCC*
G04 #@! TO.C,REF\002A\002A*
X211328000Y-73152000D03*
G04 #@! TD*
G04 #@! TO.N,VCC*
G04 #@! TO.C,REF\002A\002A*
X211328000Y-71882000D03*
G04 #@! TD*
G04 #@! TO.N,GND*
G04 #@! TO.C,REF\002A\002A*
X217170000Y-74930000D03*
G04 #@! TD*
G04 #@! TO.N,GND*
G04 #@! TO.C,REF\002A\002A*
X223139000Y-71247000D03*
G04 #@! TD*
G04 #@! TO.N,GND*
G04 #@! TO.C,REF\002A\002A*
X204724000Y-63754000D03*
G04 #@! TD*
G04 #@! TO.N,GND*
G04 #@! TO.C,REF\002A\002A*
X198628000Y-64770000D03*
G04 #@! TD*
G04 #@! TO.N,GND*
G04 #@! TO.C,REF\002A\002A*
X230378000Y-71628000D03*
G04 #@! TD*
G04 #@! TO.N,GND*
G04 #@! TO.C,REF\002A\002A*
X217170000Y-72390000D03*
G04 #@! TD*
G04 #@! TO.N,GND*
G04 #@! TO.C,REF\002A\002A*
X215392000Y-73406000D03*
G04 #@! TD*
G04 #@! TO.N,GND*
G04 #@! TO.C,REF\002A\002A*
X209804000Y-64770000D03*
G04 #@! TD*
G04 #@! TO.N,GND*
G04 #@! TO.C,REF\002A\002A*
X201168000Y-59690000D03*
G04 #@! TD*
G04 #@! TO.N,GND*
G04 #@! TO.C,REF\002A\002A*
X205232000Y-59182000D03*
G04 #@! TD*
D15*
G04 #@! TO.P,J3,5*
G04 #@! TO.N,/BOOT*
X173482000Y-74930000D03*
G04 #@! TO.P,J3,4*
G04 #@! TO.N,/RX*
X176022000Y-74930000D03*
G04 #@! TO.P,J3,3*
G04 #@! TO.N,/TX*
X178562000Y-74930000D03*
G04 #@! TO.P,J3,2*
G04 #@! TO.N,/EN*
X181102000Y-74930000D03*
D16*
G04 #@! TO.P,J3,1*
G04 #@! TO.N,GND*
X183642000Y-74930000D03*
G04 #@! TD*
D13*
G04 #@! TO.N,GND*
G04 #@! TO.C,REF\002A\002A*
X210000000Y-69000000D03*
G04 #@! TD*
G04 #@! TO.N,GND*
G04 #@! TO.C,REF\002A\002A*
X189230000Y-59182000D03*
G04 #@! TD*
G04 #@! TO.N,GND*
G04 #@! TO.C,REF\002A\002A*
X209000000Y-57500000D03*
G04 #@! TD*
G04 #@! TO.N,GND*
G04 #@! TO.C,REF\002A\002A*
X191516000Y-58166000D03*
G04 #@! TD*
D17*
G04 #@! TO.P,U2,39*
G04 #@! TO.N,GND*
X176856000Y-58990000D03*
D18*
X178856000Y-60990000D03*
D19*
G04 #@! TO.P,U2,1*
X169556000Y-53280000D03*
G04 #@! TO.P,U2,2*
G04 #@! TO.N,+3V*
X169556000Y-54550000D03*
G04 #@! TO.P,U2,3*
G04 #@! TO.N,/EN*
X169556000Y-55820000D03*
G04 #@! TO.P,U2,4*
G04 #@! TO.N,Net-(U2-Pad4)*
X169556000Y-57090000D03*
G04 #@! TO.P,U2,5*
G04 #@! TO.N,Net-(U2-Pad5)*
X169556000Y-58360000D03*
G04 #@! TO.P,U2,6*
G04 #@! TO.N,Net-(U2-Pad6)*
X169556000Y-59630000D03*
G04 #@! TO.P,U2,7*
G04 #@! TO.N,Net-(U2-Pad7)*
X169556000Y-60900000D03*
G04 #@! TO.P,U2,8*
G04 #@! TO.N,Net-(U2-Pad8)*
X169556000Y-62170000D03*
G04 #@! TO.P,U2,9*
G04 #@! TO.N,Net-(U2-Pad9)*
X169556000Y-63440000D03*
G04 #@! TO.P,U2,10*
G04 #@! TO.N,Net-(U2-Pad10)*
X169556000Y-64710000D03*
G04 #@! TO.P,U2,11*
G04 #@! TO.N,Net-(U2-Pad11)*
X169556000Y-65980000D03*
G04 #@! TO.P,U2,12*
G04 #@! TO.N,Net-(U2-Pad12)*
X169556000Y-67250000D03*
G04 #@! TO.P,U2,13*
G04 #@! TO.N,Net-(U2-Pad13)*
X169556000Y-68520000D03*
G04 #@! TO.P,U2,14*
G04 #@! TO.N,Net-(U2-Pad14)*
X169556000Y-69790000D03*
D20*
G04 #@! TO.P,U2,15*
G04 #@! TO.N,Net-(U2-Pad15)*
X172856000Y-71290000D03*
G04 #@! TO.P,U2,16*
G04 #@! TO.N,Net-(U2-Pad16)*
X174126000Y-71290000D03*
G04 #@! TO.P,U2,17*
G04 #@! TO.N,Net-(U2-Pad17)*
X175396000Y-71290000D03*
G04 #@! TO.P,U2,18*
G04 #@! TO.N,Net-(U2-Pad18)*
X176666000Y-71290000D03*
G04 #@! TO.P,U2,19*
G04 #@! TO.N,Net-(U2-Pad19)*
X177936000Y-71290000D03*
G04 #@! TO.P,U2,20*
G04 #@! TO.N,Net-(U2-Pad20)*
X179206000Y-71290000D03*
G04 #@! TO.P,U2,21*
G04 #@! TO.N,Net-(U2-Pad21)*
X180476000Y-71290000D03*
G04 #@! TO.P,U2,22*
G04 #@! TO.N,Net-(U2-Pad22)*
X181746000Y-71290000D03*
G04 #@! TO.P,U2,23*
G04 #@! TO.N,Net-(U2-Pad23)*
X183016000Y-71290000D03*
G04 #@! TO.P,U2,24*
G04 #@! TO.N,Net-(U2-Pad24)*
X184286000Y-71290000D03*
D19*
G04 #@! TO.P,U2,25*
G04 #@! TO.N,/BOOT*
X187586000Y-69790000D03*
G04 #@! TO.P,U2,26*
G04 #@! TO.N,Net-(Q4-Pad1)*
X187586000Y-68520000D03*
G04 #@! TO.P,U2,27*
G04 #@! TO.N,Net-(Q3-Pad1)*
X187586000Y-67250000D03*
G04 #@! TO.P,U2,28*
G04 #@! TO.N,Net-(Q2-Pad1)*
X187586000Y-65980000D03*
G04 #@! TO.P,U2,29*
G04 #@! TO.N,Net-(Q1-Pad1)*
X187586000Y-64710000D03*
G04 #@! TO.P,U2,30*
G04 #@! TO.N,/Alert2*
X187586000Y-63440000D03*
G04 #@! TO.P,U2,31*
G04 #@! TO.N,/Alert1*
X187586000Y-62170000D03*
G04 #@! TO.P,U2,32*
G04 #@! TO.N,Net-(U2-Pad32)*
X187586000Y-60900000D03*
G04 #@! TO.P,U2,33*
G04 #@! TO.N,/SDA*
X187586000Y-59630000D03*
G04 #@! TO.P,U2,34*
G04 #@! TO.N,/RX*
X187586000Y-58360000D03*
G04 #@! TO.P,U2,35*
G04 #@! TO.N,/TX*
X187586000Y-57090000D03*
G04 #@! TO.P,U2,36*
G04 #@! TO.N,/SCL*
X187586000Y-55820000D03*
G04 #@! TO.P,U2,37*
G04 #@! TO.N,Net-(U2-Pad37)*
X187586000Y-54550000D03*
G04 #@! TO.P,U2,38*
G04 #@! TO.N,GND*
X187586000Y-53280000D03*
D17*
G04 #@! TO.P,U2,39*
X176856000Y-59990000D03*
X176856000Y-60990000D03*
X176856000Y-61990000D03*
X176856000Y-62990000D03*
X177856000Y-62990000D03*
X177856000Y-61990000D03*
X177856000Y-60990000D03*
X177856000Y-59990000D03*
X177856000Y-58990000D03*
X179856000Y-58990000D03*
X179856000Y-59990000D03*
X179856000Y-60990000D03*
X179856000Y-61990000D03*
X179856000Y-62990000D03*
X178856000Y-62990000D03*
X178856000Y-61990000D03*
X178856000Y-60990000D03*
X178856000Y-59990000D03*
X178856000Y-58990000D03*
X180856000Y-62990000D03*
X180856000Y-61990000D03*
X180856000Y-60990000D03*
X180856000Y-59990000D03*
X180856000Y-58990000D03*
G04 #@! TD*
D21*
G04 #@! TO.P,U4,1*
G04 #@! TO.N,/SDA*
X200472000Y-64600000D03*
G04 #@! TO.P,U4,2*
G04 #@! TO.N,GND*
X201422000Y-64600000D03*
G04 #@! TO.P,U4,3*
G04 #@! TO.N,/SCL*
X202372000Y-64600000D03*
G04 #@! TO.P,U4,4*
G04 #@! TO.N,+3V*
X202372000Y-62400000D03*
G04 #@! TO.P,U4,5*
G04 #@! TO.N,/Alert1*
X200472000Y-62400000D03*
G04 #@! TD*
D22*
G04 #@! TO.N,GND*
G04 #@! TO.C,C1*
G36*
X165828505Y-51916204D02*
X165852773Y-51919804D01*
X165876572Y-51925765D01*
X165899671Y-51934030D01*
X165921850Y-51944520D01*
X165942893Y-51957132D01*
X165962599Y-51971747D01*
X165980777Y-51988223D01*
X165997253Y-52006401D01*
X166011868Y-52026107D01*
X166024480Y-52047150D01*
X166034970Y-52069329D01*
X166043235Y-52092428D01*
X166049196Y-52116227D01*
X166052796Y-52140495D01*
X166054000Y-52164999D01*
X166054000Y-52815001D01*
X166052796Y-52839505D01*
X166049196Y-52863773D01*
X166043235Y-52887572D01*
X166034970Y-52910671D01*
X166024480Y-52932850D01*
X166011868Y-52953893D01*
X165997253Y-52973599D01*
X165980777Y-52991777D01*
X165962599Y-53008253D01*
X165942893Y-53022868D01*
X165921850Y-53035480D01*
X165899671Y-53045970D01*
X165876572Y-53054235D01*
X165852773Y-53060196D01*
X165828505Y-53063796D01*
X165804001Y-53065000D01*
X164903999Y-53065000D01*
X164879495Y-53063796D01*
X164855227Y-53060196D01*
X164831428Y-53054235D01*
X164808329Y-53045970D01*
X164786150Y-53035480D01*
X164765107Y-53022868D01*
X164745401Y-53008253D01*
X164727223Y-52991777D01*
X164710747Y-52973599D01*
X164696132Y-52953893D01*
X164683520Y-52932850D01*
X164673030Y-52910671D01*
X164664765Y-52887572D01*
X164658804Y-52863773D01*
X164655204Y-52839505D01*
X164654000Y-52815001D01*
X164654000Y-52164999D01*
X164655204Y-52140495D01*
X164658804Y-52116227D01*
X164664765Y-52092428D01*
X164673030Y-52069329D01*
X164683520Y-52047150D01*
X164696132Y-52026107D01*
X164710747Y-52006401D01*
X164727223Y-51988223D01*
X164745401Y-51971747D01*
X164765107Y-51957132D01*
X164786150Y-51944520D01*
X164808329Y-51934030D01*
X164831428Y-51925765D01*
X164855227Y-51919804D01*
X164879495Y-51916204D01*
X164903999Y-51915000D01*
X165804001Y-51915000D01*
X165828505Y-51916204D01*
X165828505Y-51916204D01*
G37*
D23*
G04 #@! TD*
G04 #@! TO.P,C1,1*
G04 #@! TO.N,GND*
X165354000Y-52490000D03*
D22*
G04 #@! TO.N,+3V*
G04 #@! TO.C,C1*
G36*
X165828505Y-53616204D02*
X165852773Y-53619804D01*
X165876572Y-53625765D01*
X165899671Y-53634030D01*
X165921850Y-53644520D01*
X165942893Y-53657132D01*
X165962599Y-53671747D01*
X165980777Y-53688223D01*
X165997253Y-53706401D01*
X166011868Y-53726107D01*
X166024480Y-53747150D01*
X166034970Y-53769329D01*
X166043235Y-53792428D01*
X166049196Y-53816227D01*
X166052796Y-53840495D01*
X166054000Y-53864999D01*
X166054000Y-54515001D01*
X166052796Y-54539505D01*
X166049196Y-54563773D01*
X166043235Y-54587572D01*
X166034970Y-54610671D01*
X166024480Y-54632850D01*
X166011868Y-54653893D01*
X165997253Y-54673599D01*
X165980777Y-54691777D01*
X165962599Y-54708253D01*
X165942893Y-54722868D01*
X165921850Y-54735480D01*
X165899671Y-54745970D01*
X165876572Y-54754235D01*
X165852773Y-54760196D01*
X165828505Y-54763796D01*
X165804001Y-54765000D01*
X164903999Y-54765000D01*
X164879495Y-54763796D01*
X164855227Y-54760196D01*
X164831428Y-54754235D01*
X164808329Y-54745970D01*
X164786150Y-54735480D01*
X164765107Y-54722868D01*
X164745401Y-54708253D01*
X164727223Y-54691777D01*
X164710747Y-54673599D01*
X164696132Y-54653893D01*
X164683520Y-54632850D01*
X164673030Y-54610671D01*
X164664765Y-54587572D01*
X164658804Y-54563773D01*
X164655204Y-54539505D01*
X164654000Y-54515001D01*
X164654000Y-53864999D01*
X164655204Y-53840495D01*
X164658804Y-53816227D01*
X164664765Y-53792428D01*
X164673030Y-53769329D01*
X164683520Y-53747150D01*
X164696132Y-53726107D01*
X164710747Y-53706401D01*
X164727223Y-53688223D01*
X164745401Y-53671747D01*
X164765107Y-53657132D01*
X164786150Y-53644520D01*
X164808329Y-53634030D01*
X164831428Y-53625765D01*
X164855227Y-53619804D01*
X164879495Y-53616204D01*
X164903999Y-53615000D01*
X165804001Y-53615000D01*
X165828505Y-53616204D01*
X165828505Y-53616204D01*
G37*
D23*
G04 #@! TD*
G04 #@! TO.P,C1,2*
G04 #@! TO.N,+3V*
X165354000Y-54190000D03*
D22*
G04 #@! TO.N,GND*
G04 #@! TO.C,C4*
G36*
X217447691Y-70455053D02*
X217468926Y-70458203D01*
X217489750Y-70463419D01*
X217509962Y-70470651D01*
X217529368Y-70479830D01*
X217547781Y-70490866D01*
X217565024Y-70503654D01*
X217580930Y-70518070D01*
X217595346Y-70533976D01*
X217608134Y-70551219D01*
X217619170Y-70569632D01*
X217628349Y-70589038D01*
X217635581Y-70609250D01*
X217640797Y-70630074D01*
X217643947Y-70651309D01*
X217645000Y-70672750D01*
X217645000Y-71110250D01*
X217643947Y-71131691D01*
X217640797Y-71152926D01*
X217635581Y-71173750D01*
X217628349Y-71193962D01*
X217619170Y-71213368D01*
X217608134Y-71231781D01*
X217595346Y-71249024D01*
X217580930Y-71264930D01*
X217565024Y-71279346D01*
X217547781Y-71292134D01*
X217529368Y-71303170D01*
X217509962Y-71312349D01*
X217489750Y-71319581D01*
X217468926Y-71324797D01*
X217447691Y-71327947D01*
X217426250Y-71329000D01*
X216913750Y-71329000D01*
X216892309Y-71327947D01*
X216871074Y-71324797D01*
X216850250Y-71319581D01*
X216830038Y-71312349D01*
X216810632Y-71303170D01*
X216792219Y-71292134D01*
X216774976Y-71279346D01*
X216759070Y-71264930D01*
X216744654Y-71249024D01*
X216731866Y-71231781D01*
X216720830Y-71213368D01*
X216711651Y-71193962D01*
X216704419Y-71173750D01*
X216699203Y-71152926D01*
X216696053Y-71131691D01*
X216695000Y-71110250D01*
X216695000Y-70672750D01*
X216696053Y-70651309D01*
X216699203Y-70630074D01*
X216704419Y-70609250D01*
X216711651Y-70589038D01*
X216720830Y-70569632D01*
X216731866Y-70551219D01*
X216744654Y-70533976D01*
X216759070Y-70518070D01*
X216774976Y-70503654D01*
X216792219Y-70490866D01*
X216810632Y-70479830D01*
X216830038Y-70470651D01*
X216850250Y-70463419D01*
X216871074Y-70458203D01*
X216892309Y-70455053D01*
X216913750Y-70454000D01*
X217426250Y-70454000D01*
X217447691Y-70455053D01*
X217447691Y-70455053D01*
G37*
D24*
G04 #@! TD*
G04 #@! TO.P,C4,2*
G04 #@! TO.N,GND*
X217170000Y-70891500D03*
D22*
G04 #@! TO.N,VCC*
G04 #@! TO.C,C4*
G36*
X217447691Y-68880053D02*
X217468926Y-68883203D01*
X217489750Y-68888419D01*
X217509962Y-68895651D01*
X217529368Y-68904830D01*
X217547781Y-68915866D01*
X217565024Y-68928654D01*
X217580930Y-68943070D01*
X217595346Y-68958976D01*
X217608134Y-68976219D01*
X217619170Y-68994632D01*
X217628349Y-69014038D01*
X217635581Y-69034250D01*
X217640797Y-69055074D01*
X217643947Y-69076309D01*
X217645000Y-69097750D01*
X217645000Y-69535250D01*
X217643947Y-69556691D01*
X217640797Y-69577926D01*
X217635581Y-69598750D01*
X217628349Y-69618962D01*
X217619170Y-69638368D01*
X217608134Y-69656781D01*
X217595346Y-69674024D01*
X217580930Y-69689930D01*
X217565024Y-69704346D01*
X217547781Y-69717134D01*
X217529368Y-69728170D01*
X217509962Y-69737349D01*
X217489750Y-69744581D01*
X217468926Y-69749797D01*
X217447691Y-69752947D01*
X217426250Y-69754000D01*
X216913750Y-69754000D01*
X216892309Y-69752947D01*
X216871074Y-69749797D01*
X216850250Y-69744581D01*
X216830038Y-69737349D01*
X216810632Y-69728170D01*
X216792219Y-69717134D01*
X216774976Y-69704346D01*
X216759070Y-69689930D01*
X216744654Y-69674024D01*
X216731866Y-69656781D01*
X216720830Y-69638368D01*
X216711651Y-69618962D01*
X216704419Y-69598750D01*
X216699203Y-69577926D01*
X216696053Y-69556691D01*
X216695000Y-69535250D01*
X216695000Y-69097750D01*
X216696053Y-69076309D01*
X216699203Y-69055074D01*
X216704419Y-69034250D01*
X216711651Y-69014038D01*
X216720830Y-68994632D01*
X216731866Y-68976219D01*
X216744654Y-68958976D01*
X216759070Y-68943070D01*
X216774976Y-68928654D01*
X216792219Y-68915866D01*
X216810632Y-68904830D01*
X216830038Y-68895651D01*
X216850250Y-68888419D01*
X216871074Y-68883203D01*
X216892309Y-68880053D01*
X216913750Y-68879000D01*
X217426250Y-68879000D01*
X217447691Y-68880053D01*
X217447691Y-68880053D01*
G37*
D24*
G04 #@! TD*
G04 #@! TO.P,C4,1*
G04 #@! TO.N,VCC*
X217170000Y-69316500D03*
D22*
G04 #@! TO.N,+3V*
G04 #@! TO.C,C5*
G36*
X213580505Y-66062204D02*
X213604773Y-66065804D01*
X213628572Y-66071765D01*
X213651671Y-66080030D01*
X213673850Y-66090520D01*
X213694893Y-66103132D01*
X213714599Y-66117747D01*
X213732777Y-66134223D01*
X213749253Y-66152401D01*
X213763868Y-66172107D01*
X213776480Y-66193150D01*
X213786970Y-66215329D01*
X213795235Y-66238428D01*
X213801196Y-66262227D01*
X213804796Y-66286495D01*
X213806000Y-66310999D01*
X213806000Y-66961001D01*
X213804796Y-66985505D01*
X213801196Y-67009773D01*
X213795235Y-67033572D01*
X213786970Y-67056671D01*
X213776480Y-67078850D01*
X213763868Y-67099893D01*
X213749253Y-67119599D01*
X213732777Y-67137777D01*
X213714599Y-67154253D01*
X213694893Y-67168868D01*
X213673850Y-67181480D01*
X213651671Y-67191970D01*
X213628572Y-67200235D01*
X213604773Y-67206196D01*
X213580505Y-67209796D01*
X213556001Y-67211000D01*
X212655999Y-67211000D01*
X212631495Y-67209796D01*
X212607227Y-67206196D01*
X212583428Y-67200235D01*
X212560329Y-67191970D01*
X212538150Y-67181480D01*
X212517107Y-67168868D01*
X212497401Y-67154253D01*
X212479223Y-67137777D01*
X212462747Y-67119599D01*
X212448132Y-67099893D01*
X212435520Y-67078850D01*
X212425030Y-67056671D01*
X212416765Y-67033572D01*
X212410804Y-67009773D01*
X212407204Y-66985505D01*
X212406000Y-66961001D01*
X212406000Y-66310999D01*
X212407204Y-66286495D01*
X212410804Y-66262227D01*
X212416765Y-66238428D01*
X212425030Y-66215329D01*
X212435520Y-66193150D01*
X212448132Y-66172107D01*
X212462747Y-66152401D01*
X212479223Y-66134223D01*
X212497401Y-66117747D01*
X212517107Y-66103132D01*
X212538150Y-66090520D01*
X212560329Y-66080030D01*
X212583428Y-66071765D01*
X212607227Y-66065804D01*
X212631495Y-66062204D01*
X212655999Y-66061000D01*
X213556001Y-66061000D01*
X213580505Y-66062204D01*
X213580505Y-66062204D01*
G37*
D23*
G04 #@! TD*
G04 #@! TO.P,C5,1*
G04 #@! TO.N,+3V*
X213106000Y-66636000D03*
D22*
G04 #@! TO.N,GND*
G04 #@! TO.C,C5*
G36*
X213580505Y-64362204D02*
X213604773Y-64365804D01*
X213628572Y-64371765D01*
X213651671Y-64380030D01*
X213673850Y-64390520D01*
X213694893Y-64403132D01*
X213714599Y-64417747D01*
X213732777Y-64434223D01*
X213749253Y-64452401D01*
X213763868Y-64472107D01*
X213776480Y-64493150D01*
X213786970Y-64515329D01*
X213795235Y-64538428D01*
X213801196Y-64562227D01*
X213804796Y-64586495D01*
X213806000Y-64610999D01*
X213806000Y-65261001D01*
X213804796Y-65285505D01*
X213801196Y-65309773D01*
X213795235Y-65333572D01*
X213786970Y-65356671D01*
X213776480Y-65378850D01*
X213763868Y-65399893D01*
X213749253Y-65419599D01*
X213732777Y-65437777D01*
X213714599Y-65454253D01*
X213694893Y-65468868D01*
X213673850Y-65481480D01*
X213651671Y-65491970D01*
X213628572Y-65500235D01*
X213604773Y-65506196D01*
X213580505Y-65509796D01*
X213556001Y-65511000D01*
X212655999Y-65511000D01*
X212631495Y-65509796D01*
X212607227Y-65506196D01*
X212583428Y-65500235D01*
X212560329Y-65491970D01*
X212538150Y-65481480D01*
X212517107Y-65468868D01*
X212497401Y-65454253D01*
X212479223Y-65437777D01*
X212462747Y-65419599D01*
X212448132Y-65399893D01*
X212435520Y-65378850D01*
X212425030Y-65356671D01*
X212416765Y-65333572D01*
X212410804Y-65309773D01*
X212407204Y-65285505D01*
X212406000Y-65261001D01*
X212406000Y-64610999D01*
X212407204Y-64586495D01*
X212410804Y-64562227D01*
X212416765Y-64538428D01*
X212425030Y-64515329D01*
X212435520Y-64493150D01*
X212448132Y-64472107D01*
X212462747Y-64452401D01*
X212479223Y-64434223D01*
X212497401Y-64417747D01*
X212517107Y-64403132D01*
X212538150Y-64390520D01*
X212560329Y-64380030D01*
X212583428Y-64371765D01*
X212607227Y-64365804D01*
X212631495Y-64362204D01*
X212655999Y-64361000D01*
X213556001Y-64361000D01*
X213580505Y-64362204D01*
X213580505Y-64362204D01*
G37*
D23*
G04 #@! TD*
G04 #@! TO.P,C5,2*
G04 #@! TO.N,GND*
X213106000Y-64936000D03*
D22*
G04 #@! TO.N,+3V*
G04 #@! TO.C,C6*
G36*
X213383691Y-67864053D02*
X213404926Y-67867203D01*
X213425750Y-67872419D01*
X213445962Y-67879651D01*
X213465368Y-67888830D01*
X213483781Y-67899866D01*
X213501024Y-67912654D01*
X213516930Y-67927070D01*
X213531346Y-67942976D01*
X213544134Y-67960219D01*
X213555170Y-67978632D01*
X213564349Y-67998038D01*
X213571581Y-68018250D01*
X213576797Y-68039074D01*
X213579947Y-68060309D01*
X213581000Y-68081750D01*
X213581000Y-68519250D01*
X213579947Y-68540691D01*
X213576797Y-68561926D01*
X213571581Y-68582750D01*
X213564349Y-68602962D01*
X213555170Y-68622368D01*
X213544134Y-68640781D01*
X213531346Y-68658024D01*
X213516930Y-68673930D01*
X213501024Y-68688346D01*
X213483781Y-68701134D01*
X213465368Y-68712170D01*
X213445962Y-68721349D01*
X213425750Y-68728581D01*
X213404926Y-68733797D01*
X213383691Y-68736947D01*
X213362250Y-68738000D01*
X212849750Y-68738000D01*
X212828309Y-68736947D01*
X212807074Y-68733797D01*
X212786250Y-68728581D01*
X212766038Y-68721349D01*
X212746632Y-68712170D01*
X212728219Y-68701134D01*
X212710976Y-68688346D01*
X212695070Y-68673930D01*
X212680654Y-68658024D01*
X212667866Y-68640781D01*
X212656830Y-68622368D01*
X212647651Y-68602962D01*
X212640419Y-68582750D01*
X212635203Y-68561926D01*
X212632053Y-68540691D01*
X212631000Y-68519250D01*
X212631000Y-68081750D01*
X212632053Y-68060309D01*
X212635203Y-68039074D01*
X212640419Y-68018250D01*
X212647651Y-67998038D01*
X212656830Y-67978632D01*
X212667866Y-67960219D01*
X212680654Y-67942976D01*
X212695070Y-67927070D01*
X212710976Y-67912654D01*
X212728219Y-67899866D01*
X212746632Y-67888830D01*
X212766038Y-67879651D01*
X212786250Y-67872419D01*
X212807074Y-67867203D01*
X212828309Y-67864053D01*
X212849750Y-67863000D01*
X213362250Y-67863000D01*
X213383691Y-67864053D01*
X213383691Y-67864053D01*
G37*
D24*
G04 #@! TD*
G04 #@! TO.P,C6,1*
G04 #@! TO.N,+3V*
X213106000Y-68300500D03*
D22*
G04 #@! TO.N,GND*
G04 #@! TO.C,C6*
G36*
X213383691Y-69439053D02*
X213404926Y-69442203D01*
X213425750Y-69447419D01*
X213445962Y-69454651D01*
X213465368Y-69463830D01*
X213483781Y-69474866D01*
X213501024Y-69487654D01*
X213516930Y-69502070D01*
X213531346Y-69517976D01*
X213544134Y-69535219D01*
X213555170Y-69553632D01*
X213564349Y-69573038D01*
X213571581Y-69593250D01*
X213576797Y-69614074D01*
X213579947Y-69635309D01*
X213581000Y-69656750D01*
X213581000Y-70094250D01*
X213579947Y-70115691D01*
X213576797Y-70136926D01*
X213571581Y-70157750D01*
X213564349Y-70177962D01*
X213555170Y-70197368D01*
X213544134Y-70215781D01*
X213531346Y-70233024D01*
X213516930Y-70248930D01*
X213501024Y-70263346D01*
X213483781Y-70276134D01*
X213465368Y-70287170D01*
X213445962Y-70296349D01*
X213425750Y-70303581D01*
X213404926Y-70308797D01*
X213383691Y-70311947D01*
X213362250Y-70313000D01*
X212849750Y-70313000D01*
X212828309Y-70311947D01*
X212807074Y-70308797D01*
X212786250Y-70303581D01*
X212766038Y-70296349D01*
X212746632Y-70287170D01*
X212728219Y-70276134D01*
X212710976Y-70263346D01*
X212695070Y-70248930D01*
X212680654Y-70233024D01*
X212667866Y-70215781D01*
X212656830Y-70197368D01*
X212647651Y-70177962D01*
X212640419Y-70157750D01*
X212635203Y-70136926D01*
X212632053Y-70115691D01*
X212631000Y-70094250D01*
X212631000Y-69656750D01*
X212632053Y-69635309D01*
X212635203Y-69614074D01*
X212640419Y-69593250D01*
X212647651Y-69573038D01*
X212656830Y-69553632D01*
X212667866Y-69535219D01*
X212680654Y-69517976D01*
X212695070Y-69502070D01*
X212710976Y-69487654D01*
X212728219Y-69474866D01*
X212746632Y-69463830D01*
X212766038Y-69454651D01*
X212786250Y-69447419D01*
X212807074Y-69442203D01*
X212828309Y-69439053D01*
X212849750Y-69438000D01*
X213362250Y-69438000D01*
X213383691Y-69439053D01*
X213383691Y-69439053D01*
G37*
D24*
G04 #@! TD*
G04 #@! TO.P,C6,2*
G04 #@! TO.N,GND*
X213106000Y-69875500D03*
D25*
G04 #@! TO.P,Q1,3*
G04 #@! TO.N,Net-(Q1-Pad3)*
X194548000Y-63500000D03*
G04 #@! TO.P,Q1,2*
G04 #@! TO.N,GND*
X192548000Y-64450000D03*
G04 #@! TO.P,Q1,1*
G04 #@! TO.N,Net-(Q1-Pad1)*
X192548000Y-62550000D03*
G04 #@! TD*
G04 #@! TO.P,Q2,1*
G04 #@! TO.N,Net-(Q2-Pad1)*
X196358000Y-62550000D03*
G04 #@! TO.P,Q2,2*
G04 #@! TO.N,GND*
X196358000Y-64450000D03*
G04 #@! TO.P,Q2,3*
G04 #@! TO.N,Net-(Q2-Pad3)*
X198358000Y-63500000D03*
G04 #@! TD*
G04 #@! TO.P,Q3,1*
G04 #@! TO.N,Net-(Q3-Pad1)*
X203978000Y-62550000D03*
G04 #@! TO.P,Q3,2*
G04 #@! TO.N,GND*
X203978000Y-64450000D03*
G04 #@! TO.P,Q3,3*
G04 #@! TO.N,Net-(Q3-Pad3)*
X205978000Y-63500000D03*
G04 #@! TD*
G04 #@! TO.P,Q4,3*
G04 #@! TO.N,Net-(Q4-Pad3)*
X209788000Y-63500000D03*
G04 #@! TO.P,Q4,2*
G04 #@! TO.N,GND*
X207788000Y-64450000D03*
G04 #@! TO.P,Q4,1*
G04 #@! TO.N,Net-(Q4-Pad1)*
X207788000Y-62550000D03*
G04 #@! TD*
D26*
G04 #@! TO.P,TP1,1*
G04 #@! TO.N,+3V*
X161036000Y-53848000D03*
G04 #@! TD*
G04 #@! TO.P,TP2,1*
G04 #@! TO.N,GND*
X158496000Y-74422000D03*
G04 #@! TD*
G04 #@! TO.P,TP3,1*
G04 #@! TO.N,/BOOT*
X168492000Y-75000000D03*
G04 #@! TD*
G04 #@! TO.P,TP4,1*
G04 #@! TO.N,/EN*
X188492000Y-75000000D03*
G04 #@! TD*
G04 #@! TO.P,TP5,1*
G04 #@! TO.N,VCC*
X224028000Y-54610000D03*
G04 #@! TD*
G04 #@! TO.P,TP6,1*
G04 #@! TO.N,+BATT*
X228600000Y-56642000D03*
G04 #@! TD*
G04 #@! TO.P,TP7,1*
G04 #@! TO.N,/Alert1*
X199898000Y-58166000D03*
G04 #@! TD*
D22*
G04 #@! TO.N,VCC*
G04 #@! TO.C,C2*
G36*
X219422505Y-68934204D02*
X219446773Y-68937804D01*
X219470572Y-68943765D01*
X219493671Y-68952030D01*
X219515850Y-68962520D01*
X219536893Y-68975132D01*
X219556599Y-68989747D01*
X219574777Y-69006223D01*
X219591253Y-69024401D01*
X219605868Y-69044107D01*
X219618480Y-69065150D01*
X219628970Y-69087329D01*
X219637235Y-69110428D01*
X219643196Y-69134227D01*
X219646796Y-69158495D01*
X219648000Y-69182999D01*
X219648000Y-69833001D01*
X219646796Y-69857505D01*
X219643196Y-69881773D01*
X219637235Y-69905572D01*
X219628970Y-69928671D01*
X219618480Y-69950850D01*
X219605868Y-69971893D01*
X219591253Y-69991599D01*
X219574777Y-70009777D01*
X219556599Y-70026253D01*
X219536893Y-70040868D01*
X219515850Y-70053480D01*
X219493671Y-70063970D01*
X219470572Y-70072235D01*
X219446773Y-70078196D01*
X219422505Y-70081796D01*
X219398001Y-70083000D01*
X218497999Y-70083000D01*
X218473495Y-70081796D01*
X218449227Y-70078196D01*
X218425428Y-70072235D01*
X218402329Y-70063970D01*
X218380150Y-70053480D01*
X218359107Y-70040868D01*
X218339401Y-70026253D01*
X218321223Y-70009777D01*
X218304747Y-69991599D01*
X218290132Y-69971893D01*
X218277520Y-69950850D01*
X218267030Y-69928671D01*
X218258765Y-69905572D01*
X218252804Y-69881773D01*
X218249204Y-69857505D01*
X218248000Y-69833001D01*
X218248000Y-69182999D01*
X218249204Y-69158495D01*
X218252804Y-69134227D01*
X218258765Y-69110428D01*
X218267030Y-69087329D01*
X218277520Y-69065150D01*
X218290132Y-69044107D01*
X218304747Y-69024401D01*
X218321223Y-69006223D01*
X218339401Y-68989747D01*
X218359107Y-68975132D01*
X218380150Y-68962520D01*
X218402329Y-68952030D01*
X218425428Y-68943765D01*
X218449227Y-68937804D01*
X218473495Y-68934204D01*
X218497999Y-68933000D01*
X219398001Y-68933000D01*
X219422505Y-68934204D01*
X219422505Y-68934204D01*
G37*
D23*
G04 #@! TD*
G04 #@! TO.P,C2,1*
G04 #@! TO.N,VCC*
X218948000Y-69508000D03*
D22*
G04 #@! TO.N,GND*
G04 #@! TO.C,C2*
G36*
X219422505Y-70634204D02*
X219446773Y-70637804D01*
X219470572Y-70643765D01*
X219493671Y-70652030D01*
X219515850Y-70662520D01*
X219536893Y-70675132D01*
X219556599Y-70689747D01*
X219574777Y-70706223D01*
X219591253Y-70724401D01*
X219605868Y-70744107D01*
X219618480Y-70765150D01*
X219628970Y-70787329D01*
X219637235Y-70810428D01*
X219643196Y-70834227D01*
X219646796Y-70858495D01*
X219648000Y-70882999D01*
X219648000Y-71533001D01*
X219646796Y-71557505D01*
X219643196Y-71581773D01*
X219637235Y-71605572D01*
X219628970Y-71628671D01*
X219618480Y-71650850D01*
X219605868Y-71671893D01*
X219591253Y-71691599D01*
X219574777Y-71709777D01*
X219556599Y-71726253D01*
X219536893Y-71740868D01*
X219515850Y-71753480D01*
X219493671Y-71763970D01*
X219470572Y-71772235D01*
X219446773Y-71778196D01*
X219422505Y-71781796D01*
X219398001Y-71783000D01*
X218497999Y-71783000D01*
X218473495Y-71781796D01*
X218449227Y-71778196D01*
X218425428Y-71772235D01*
X218402329Y-71763970D01*
X218380150Y-71753480D01*
X218359107Y-71740868D01*
X218339401Y-71726253D01*
X218321223Y-71709777D01*
X218304747Y-71691599D01*
X218290132Y-71671893D01*
X218277520Y-71650850D01*
X218267030Y-71628671D01*
X218258765Y-71605572D01*
X218252804Y-71581773D01*
X218249204Y-71557505D01*
X218248000Y-71533001D01*
X218248000Y-70882999D01*
X218249204Y-70858495D01*
X218252804Y-70834227D01*
X218258765Y-70810428D01*
X218267030Y-70787329D01*
X218277520Y-70765150D01*
X218290132Y-70744107D01*
X218304747Y-70724401D01*
X218321223Y-70706223D01*
X218339401Y-70689747D01*
X218359107Y-70675132D01*
X218380150Y-70662520D01*
X218402329Y-70652030D01*
X218425428Y-70643765D01*
X218449227Y-70637804D01*
X218473495Y-70634204D01*
X218497999Y-70633000D01*
X219398001Y-70633000D01*
X219422505Y-70634204D01*
X219422505Y-70634204D01*
G37*
D23*
G04 #@! TD*
G04 #@! TO.P,C2,2*
G04 #@! TO.N,GND*
X218948000Y-71208000D03*
D22*
G04 #@! TO.N,GND*
G04 #@! TO.C,C3*
G36*
X167409691Y-52116053D02*
X167430926Y-52119203D01*
X167451750Y-52124419D01*
X167471962Y-52131651D01*
X167491368Y-52140830D01*
X167509781Y-52151866D01*
X167527024Y-52164654D01*
X167542930Y-52179070D01*
X167557346Y-52194976D01*
X167570134Y-52212219D01*
X167581170Y-52230632D01*
X167590349Y-52250038D01*
X167597581Y-52270250D01*
X167602797Y-52291074D01*
X167605947Y-52312309D01*
X167607000Y-52333750D01*
X167607000Y-52771250D01*
X167605947Y-52792691D01*
X167602797Y-52813926D01*
X167597581Y-52834750D01*
X167590349Y-52854962D01*
X167581170Y-52874368D01*
X167570134Y-52892781D01*
X167557346Y-52910024D01*
X167542930Y-52925930D01*
X167527024Y-52940346D01*
X167509781Y-52953134D01*
X167491368Y-52964170D01*
X167471962Y-52973349D01*
X167451750Y-52980581D01*
X167430926Y-52985797D01*
X167409691Y-52988947D01*
X167388250Y-52990000D01*
X166875750Y-52990000D01*
X166854309Y-52988947D01*
X166833074Y-52985797D01*
X166812250Y-52980581D01*
X166792038Y-52973349D01*
X166772632Y-52964170D01*
X166754219Y-52953134D01*
X166736976Y-52940346D01*
X166721070Y-52925930D01*
X166706654Y-52910024D01*
X166693866Y-52892781D01*
X166682830Y-52874368D01*
X166673651Y-52854962D01*
X166666419Y-52834750D01*
X166661203Y-52813926D01*
X166658053Y-52792691D01*
X166657000Y-52771250D01*
X166657000Y-52333750D01*
X166658053Y-52312309D01*
X166661203Y-52291074D01*
X166666419Y-52270250D01*
X166673651Y-52250038D01*
X166682830Y-52230632D01*
X166693866Y-52212219D01*
X166706654Y-52194976D01*
X166721070Y-52179070D01*
X166736976Y-52164654D01*
X166754219Y-52151866D01*
X166772632Y-52140830D01*
X166792038Y-52131651D01*
X166812250Y-52124419D01*
X166833074Y-52119203D01*
X166854309Y-52116053D01*
X166875750Y-52115000D01*
X167388250Y-52115000D01*
X167409691Y-52116053D01*
X167409691Y-52116053D01*
G37*
D24*
G04 #@! TD*
G04 #@! TO.P,C3,1*
G04 #@! TO.N,GND*
X167132000Y-52552500D03*
D22*
G04 #@! TO.N,+3V*
G04 #@! TO.C,C3*
G36*
X167409691Y-53691053D02*
X167430926Y-53694203D01*
X167451750Y-53699419D01*
X167471962Y-53706651D01*
X167491368Y-53715830D01*
X167509781Y-53726866D01*
X167527024Y-53739654D01*
X167542930Y-53754070D01*
X167557346Y-53769976D01*
X167570134Y-53787219D01*
X167581170Y-53805632D01*
X167590349Y-53825038D01*
X167597581Y-53845250D01*
X167602797Y-53866074D01*
X167605947Y-53887309D01*
X167607000Y-53908750D01*
X167607000Y-54346250D01*
X167605947Y-54367691D01*
X167602797Y-54388926D01*
X167597581Y-54409750D01*
X167590349Y-54429962D01*
X167581170Y-54449368D01*
X167570134Y-54467781D01*
X167557346Y-54485024D01*
X167542930Y-54500930D01*
X167527024Y-54515346D01*
X167509781Y-54528134D01*
X167491368Y-54539170D01*
X167471962Y-54548349D01*
X167451750Y-54555581D01*
X167430926Y-54560797D01*
X167409691Y-54563947D01*
X167388250Y-54565000D01*
X166875750Y-54565000D01*
X166854309Y-54563947D01*
X166833074Y-54560797D01*
X166812250Y-54555581D01*
X166792038Y-54548349D01*
X166772632Y-54539170D01*
X166754219Y-54528134D01*
X166736976Y-54515346D01*
X166721070Y-54500930D01*
X166706654Y-54485024D01*
X166693866Y-54467781D01*
X166682830Y-54449368D01*
X166673651Y-54429962D01*
X166666419Y-54409750D01*
X166661203Y-54388926D01*
X166658053Y-54367691D01*
X166657000Y-54346250D01*
X166657000Y-53908750D01*
X166658053Y-53887309D01*
X166661203Y-53866074D01*
X166666419Y-53845250D01*
X166673651Y-53825038D01*
X166682830Y-53805632D01*
X166693866Y-53787219D01*
X166706654Y-53769976D01*
X166721070Y-53754070D01*
X166736976Y-53739654D01*
X166754219Y-53726866D01*
X166772632Y-53715830D01*
X166792038Y-53706651D01*
X166812250Y-53699419D01*
X166833074Y-53694203D01*
X166854309Y-53691053D01*
X166875750Y-53690000D01*
X167388250Y-53690000D01*
X167409691Y-53691053D01*
X167409691Y-53691053D01*
G37*
D24*
G04 #@! TD*
G04 #@! TO.P,C3,2*
G04 #@! TO.N,+3V*
X167132000Y-54127500D03*
D22*
G04 #@! TO.N,/EN*
G04 #@! TO.C,R1*
G36*
X167409691Y-56739053D02*
X167430926Y-56742203D01*
X167451750Y-56747419D01*
X167471962Y-56754651D01*
X167491368Y-56763830D01*
X167509781Y-56774866D01*
X167527024Y-56787654D01*
X167542930Y-56802070D01*
X167557346Y-56817976D01*
X167570134Y-56835219D01*
X167581170Y-56853632D01*
X167590349Y-56873038D01*
X167597581Y-56893250D01*
X167602797Y-56914074D01*
X167605947Y-56935309D01*
X167607000Y-56956750D01*
X167607000Y-57394250D01*
X167605947Y-57415691D01*
X167602797Y-57436926D01*
X167597581Y-57457750D01*
X167590349Y-57477962D01*
X167581170Y-57497368D01*
X167570134Y-57515781D01*
X167557346Y-57533024D01*
X167542930Y-57548930D01*
X167527024Y-57563346D01*
X167509781Y-57576134D01*
X167491368Y-57587170D01*
X167471962Y-57596349D01*
X167451750Y-57603581D01*
X167430926Y-57608797D01*
X167409691Y-57611947D01*
X167388250Y-57613000D01*
X166875750Y-57613000D01*
X166854309Y-57611947D01*
X166833074Y-57608797D01*
X166812250Y-57603581D01*
X166792038Y-57596349D01*
X166772632Y-57587170D01*
X166754219Y-57576134D01*
X166736976Y-57563346D01*
X166721070Y-57548930D01*
X166706654Y-57533024D01*
X166693866Y-57515781D01*
X166682830Y-57497368D01*
X166673651Y-57477962D01*
X166666419Y-57457750D01*
X166661203Y-57436926D01*
X166658053Y-57415691D01*
X166657000Y-57394250D01*
X166657000Y-56956750D01*
X166658053Y-56935309D01*
X166661203Y-56914074D01*
X166666419Y-56893250D01*
X166673651Y-56873038D01*
X166682830Y-56853632D01*
X166693866Y-56835219D01*
X166706654Y-56817976D01*
X166721070Y-56802070D01*
X166736976Y-56787654D01*
X166754219Y-56774866D01*
X166772632Y-56763830D01*
X166792038Y-56754651D01*
X166812250Y-56747419D01*
X166833074Y-56742203D01*
X166854309Y-56739053D01*
X166875750Y-56738000D01*
X167388250Y-56738000D01*
X167409691Y-56739053D01*
X167409691Y-56739053D01*
G37*
D24*
G04 #@! TD*
G04 #@! TO.P,R1,1*
G04 #@! TO.N,/EN*
X167132000Y-57175500D03*
D22*
G04 #@! TO.N,+3V*
G04 #@! TO.C,R1*
G36*
X167409691Y-55164053D02*
X167430926Y-55167203D01*
X167451750Y-55172419D01*
X167471962Y-55179651D01*
X167491368Y-55188830D01*
X167509781Y-55199866D01*
X167527024Y-55212654D01*
X167542930Y-55227070D01*
X167557346Y-55242976D01*
X167570134Y-55260219D01*
X167581170Y-55278632D01*
X167590349Y-55298038D01*
X167597581Y-55318250D01*
X167602797Y-55339074D01*
X167605947Y-55360309D01*
X167607000Y-55381750D01*
X167607000Y-55819250D01*
X167605947Y-55840691D01*
X167602797Y-55861926D01*
X167597581Y-55882750D01*
X167590349Y-55902962D01*
X167581170Y-55922368D01*
X167570134Y-55940781D01*
X167557346Y-55958024D01*
X167542930Y-55973930D01*
X167527024Y-55988346D01*
X167509781Y-56001134D01*
X167491368Y-56012170D01*
X167471962Y-56021349D01*
X167451750Y-56028581D01*
X167430926Y-56033797D01*
X167409691Y-56036947D01*
X167388250Y-56038000D01*
X166875750Y-56038000D01*
X166854309Y-56036947D01*
X166833074Y-56033797D01*
X166812250Y-56028581D01*
X166792038Y-56021349D01*
X166772632Y-56012170D01*
X166754219Y-56001134D01*
X166736976Y-55988346D01*
X166721070Y-55973930D01*
X166706654Y-55958024D01*
X166693866Y-55940781D01*
X166682830Y-55922368D01*
X166673651Y-55902962D01*
X166666419Y-55882750D01*
X166661203Y-55861926D01*
X166658053Y-55840691D01*
X166657000Y-55819250D01*
X166657000Y-55381750D01*
X166658053Y-55360309D01*
X166661203Y-55339074D01*
X166666419Y-55318250D01*
X166673651Y-55298038D01*
X166682830Y-55278632D01*
X166693866Y-55260219D01*
X166706654Y-55242976D01*
X166721070Y-55227070D01*
X166736976Y-55212654D01*
X166754219Y-55199866D01*
X166772632Y-55188830D01*
X166792038Y-55179651D01*
X166812250Y-55172419D01*
X166833074Y-55167203D01*
X166854309Y-55164053D01*
X166875750Y-55163000D01*
X167388250Y-55163000D01*
X167409691Y-55164053D01*
X167409691Y-55164053D01*
G37*
D24*
G04 #@! TD*
G04 #@! TO.P,R1,2*
G04 #@! TO.N,+3V*
X167132000Y-55600500D03*
D13*
G04 #@! TO.N,GND*
G04 #@! TO.C,REF\002A\002A*
X214500000Y-63000000D03*
G04 #@! TD*
D22*
G04 #@! TO.N,GND*
G04 #@! TO.C,C7*
G36*
X213637691Y-57501053D02*
X213658926Y-57504203D01*
X213679750Y-57509419D01*
X213699962Y-57516651D01*
X213719368Y-57525830D01*
X213737781Y-57536866D01*
X213755024Y-57549654D01*
X213770930Y-57564070D01*
X213785346Y-57579976D01*
X213798134Y-57597219D01*
X213809170Y-57615632D01*
X213818349Y-57635038D01*
X213825581Y-57655250D01*
X213830797Y-57676074D01*
X213833947Y-57697309D01*
X213835000Y-57718750D01*
X213835000Y-58156250D01*
X213833947Y-58177691D01*
X213830797Y-58198926D01*
X213825581Y-58219750D01*
X213818349Y-58239962D01*
X213809170Y-58259368D01*
X213798134Y-58277781D01*
X213785346Y-58295024D01*
X213770930Y-58310930D01*
X213755024Y-58325346D01*
X213737781Y-58338134D01*
X213719368Y-58349170D01*
X213699962Y-58358349D01*
X213679750Y-58365581D01*
X213658926Y-58370797D01*
X213637691Y-58373947D01*
X213616250Y-58375000D01*
X213103750Y-58375000D01*
X213082309Y-58373947D01*
X213061074Y-58370797D01*
X213040250Y-58365581D01*
X213020038Y-58358349D01*
X213000632Y-58349170D01*
X212982219Y-58338134D01*
X212964976Y-58325346D01*
X212949070Y-58310930D01*
X212934654Y-58295024D01*
X212921866Y-58277781D01*
X212910830Y-58259368D01*
X212901651Y-58239962D01*
X212894419Y-58219750D01*
X212889203Y-58198926D01*
X212886053Y-58177691D01*
X212885000Y-58156250D01*
X212885000Y-57718750D01*
X212886053Y-57697309D01*
X212889203Y-57676074D01*
X212894419Y-57655250D01*
X212901651Y-57635038D01*
X212910830Y-57615632D01*
X212921866Y-57597219D01*
X212934654Y-57579976D01*
X212949070Y-57564070D01*
X212964976Y-57549654D01*
X212982219Y-57536866D01*
X213000632Y-57525830D01*
X213020038Y-57516651D01*
X213040250Y-57509419D01*
X213061074Y-57504203D01*
X213082309Y-57501053D01*
X213103750Y-57500000D01*
X213616250Y-57500000D01*
X213637691Y-57501053D01*
X213637691Y-57501053D01*
G37*
D24*
G04 #@! TD*
G04 #@! TO.P,C7,1*
G04 #@! TO.N,GND*
X213360000Y-57937500D03*
D22*
G04 #@! TO.N,+3V*
G04 #@! TO.C,C7*
G36*
X213637691Y-55926053D02*
X213658926Y-55929203D01*
X213679750Y-55934419D01*
X213699962Y-55941651D01*
X213719368Y-55950830D01*
X213737781Y-55961866D01*
X213755024Y-55974654D01*
X213770930Y-55989070D01*
X213785346Y-56004976D01*
X213798134Y-56022219D01*
X213809170Y-56040632D01*
X213818349Y-56060038D01*
X213825581Y-56080250D01*
X213830797Y-56101074D01*
X213833947Y-56122309D01*
X213835000Y-56143750D01*
X213835000Y-56581250D01*
X213833947Y-56602691D01*
X213830797Y-56623926D01*
X213825581Y-56644750D01*
X213818349Y-56664962D01*
X213809170Y-56684368D01*
X213798134Y-56702781D01*
X213785346Y-56720024D01*
X213770930Y-56735930D01*
X213755024Y-56750346D01*
X213737781Y-56763134D01*
X213719368Y-56774170D01*
X213699962Y-56783349D01*
X213679750Y-56790581D01*
X213658926Y-56795797D01*
X213637691Y-56798947D01*
X213616250Y-56800000D01*
X213103750Y-56800000D01*
X213082309Y-56798947D01*
X213061074Y-56795797D01*
X213040250Y-56790581D01*
X213020038Y-56783349D01*
X213000632Y-56774170D01*
X212982219Y-56763134D01*
X212964976Y-56750346D01*
X212949070Y-56735930D01*
X212934654Y-56720024D01*
X212921866Y-56702781D01*
X212910830Y-56684368D01*
X212901651Y-56664962D01*
X212894419Y-56644750D01*
X212889203Y-56623926D01*
X212886053Y-56602691D01*
X212885000Y-56581250D01*
X212885000Y-56143750D01*
X212886053Y-56122309D01*
X212889203Y-56101074D01*
X212894419Y-56080250D01*
X212901651Y-56060038D01*
X212910830Y-56040632D01*
X212921866Y-56022219D01*
X212934654Y-56004976D01*
X212949070Y-55989070D01*
X212964976Y-55974654D01*
X212982219Y-55961866D01*
X213000632Y-55950830D01*
X213020038Y-55941651D01*
X213040250Y-55934419D01*
X213061074Y-55929203D01*
X213082309Y-55926053D01*
X213103750Y-55925000D01*
X213616250Y-55925000D01*
X213637691Y-55926053D01*
X213637691Y-55926053D01*
G37*
D24*
G04 #@! TD*
G04 #@! TO.P,C7,2*
G04 #@! TO.N,+3V*
X213360000Y-56362500D03*
D22*
G04 #@! TO.N,+3V*
G04 #@! TO.C,C8*
G36*
X202703691Y-60232053D02*
X202724926Y-60235203D01*
X202745750Y-60240419D01*
X202765962Y-60247651D01*
X202785368Y-60256830D01*
X202803781Y-60267866D01*
X202821024Y-60280654D01*
X202836930Y-60295070D01*
X202851346Y-60310976D01*
X202864134Y-60328219D01*
X202875170Y-60346632D01*
X202884349Y-60366038D01*
X202891581Y-60386250D01*
X202896797Y-60407074D01*
X202899947Y-60428309D01*
X202901000Y-60449750D01*
X202901000Y-60962250D01*
X202899947Y-60983691D01*
X202896797Y-61004926D01*
X202891581Y-61025750D01*
X202884349Y-61045962D01*
X202875170Y-61065368D01*
X202864134Y-61083781D01*
X202851346Y-61101024D01*
X202836930Y-61116930D01*
X202821024Y-61131346D01*
X202803781Y-61144134D01*
X202785368Y-61155170D01*
X202765962Y-61164349D01*
X202745750Y-61171581D01*
X202724926Y-61176797D01*
X202703691Y-61179947D01*
X202682250Y-61181000D01*
X202244750Y-61181000D01*
X202223309Y-61179947D01*
X202202074Y-61176797D01*
X202181250Y-61171581D01*
X202161038Y-61164349D01*
X202141632Y-61155170D01*
X202123219Y-61144134D01*
X202105976Y-61131346D01*
X202090070Y-61116930D01*
X202075654Y-61101024D01*
X202062866Y-61083781D01*
X202051830Y-61065368D01*
X202042651Y-61045962D01*
X202035419Y-61025750D01*
X202030203Y-61004926D01*
X202027053Y-60983691D01*
X202026000Y-60962250D01*
X202026000Y-60449750D01*
X202027053Y-60428309D01*
X202030203Y-60407074D01*
X202035419Y-60386250D01*
X202042651Y-60366038D01*
X202051830Y-60346632D01*
X202062866Y-60328219D01*
X202075654Y-60310976D01*
X202090070Y-60295070D01*
X202105976Y-60280654D01*
X202123219Y-60267866D01*
X202141632Y-60256830D01*
X202161038Y-60247651D01*
X202181250Y-60240419D01*
X202202074Y-60235203D01*
X202223309Y-60232053D01*
X202244750Y-60231000D01*
X202682250Y-60231000D01*
X202703691Y-60232053D01*
X202703691Y-60232053D01*
G37*
D24*
G04 #@! TD*
G04 #@! TO.P,C8,2*
G04 #@! TO.N,+3V*
X202463500Y-60706000D03*
D22*
G04 #@! TO.N,GND*
G04 #@! TO.C,C8*
G36*
X201128691Y-60232053D02*
X201149926Y-60235203D01*
X201170750Y-60240419D01*
X201190962Y-60247651D01*
X201210368Y-60256830D01*
X201228781Y-60267866D01*
X201246024Y-60280654D01*
X201261930Y-60295070D01*
X201276346Y-60310976D01*
X201289134Y-60328219D01*
X201300170Y-60346632D01*
X201309349Y-60366038D01*
X201316581Y-60386250D01*
X201321797Y-60407074D01*
X201324947Y-60428309D01*
X201326000Y-60449750D01*
X201326000Y-60962250D01*
X201324947Y-60983691D01*
X201321797Y-61004926D01*
X201316581Y-61025750D01*
X201309349Y-61045962D01*
X201300170Y-61065368D01*
X201289134Y-61083781D01*
X201276346Y-61101024D01*
X201261930Y-61116930D01*
X201246024Y-61131346D01*
X201228781Y-61144134D01*
X201210368Y-61155170D01*
X201190962Y-61164349D01*
X201170750Y-61171581D01*
X201149926Y-61176797D01*
X201128691Y-61179947D01*
X201107250Y-61181000D01*
X200669750Y-61181000D01*
X200648309Y-61179947D01*
X200627074Y-61176797D01*
X200606250Y-61171581D01*
X200586038Y-61164349D01*
X200566632Y-61155170D01*
X200548219Y-61144134D01*
X200530976Y-61131346D01*
X200515070Y-61116930D01*
X200500654Y-61101024D01*
X200487866Y-61083781D01*
X200476830Y-61065368D01*
X200467651Y-61045962D01*
X200460419Y-61025750D01*
X200455203Y-61004926D01*
X200452053Y-60983691D01*
X200451000Y-60962250D01*
X200451000Y-60449750D01*
X200452053Y-60428309D01*
X200455203Y-60407074D01*
X200460419Y-60386250D01*
X200467651Y-60366038D01*
X200476830Y-60346632D01*
X200487866Y-60328219D01*
X200500654Y-60310976D01*
X200515070Y-60295070D01*
X200530976Y-60280654D01*
X200548219Y-60267866D01*
X200566632Y-60256830D01*
X200586038Y-60247651D01*
X200606250Y-60240419D01*
X200627074Y-60235203D01*
X200648309Y-60232053D01*
X200669750Y-60231000D01*
X201107250Y-60231000D01*
X201128691Y-60232053D01*
X201128691Y-60232053D01*
G37*
D24*
G04 #@! TD*
G04 #@! TO.P,C8,1*
G04 #@! TO.N,GND*
X200888500Y-60706000D03*
D27*
G04 #@! TO.P,D1,1*
G04 #@! TO.N,VCC*
X217170000Y-67694000D03*
G04 #@! TO.P,D1,2*
G04 #@! TO.N,GND*
X217170000Y-64894000D03*
G04 #@! TD*
D28*
G04 #@! TO.P,D2,1*
G04 #@! TO.N,VCC*
X215138000Y-67544000D03*
G04 #@! TO.P,D2,2*
G04 #@! TO.N,GND*
X215138000Y-65044000D03*
G04 #@! TD*
D22*
G04 #@! TO.N,VCC*
G04 #@! TO.C,R2*
G36*
X195251505Y-71568204D02*
X195275773Y-71571804D01*
X195299572Y-71577765D01*
X195322671Y-71586030D01*
X195344850Y-71596520D01*
X195365893Y-71609132D01*
X195385599Y-71623747D01*
X195403777Y-71640223D01*
X195420253Y-71658401D01*
X195434868Y-71678107D01*
X195447480Y-71699150D01*
X195457970Y-71721329D01*
X195466235Y-71744428D01*
X195472196Y-71768227D01*
X195475796Y-71792495D01*
X195477000Y-71816999D01*
X195477000Y-72842001D01*
X195475796Y-72866505D01*
X195472196Y-72890773D01*
X195466235Y-72914572D01*
X195457970Y-72937671D01*
X195447480Y-72959850D01*
X195434868Y-72980893D01*
X195420253Y-73000599D01*
X195403777Y-73018777D01*
X195385599Y-73035253D01*
X195365893Y-73049868D01*
X195344850Y-73062480D01*
X195322671Y-73072970D01*
X195299572Y-73081235D01*
X195275773Y-73087196D01*
X195251505Y-73090796D01*
X195227001Y-73092000D01*
X192376999Y-73092000D01*
X192352495Y-73090796D01*
X192328227Y-73087196D01*
X192304428Y-73081235D01*
X192281329Y-73072970D01*
X192259150Y-73062480D01*
X192238107Y-73049868D01*
X192218401Y-73035253D01*
X192200223Y-73018777D01*
X192183747Y-73000599D01*
X192169132Y-72980893D01*
X192156520Y-72959850D01*
X192146030Y-72937671D01*
X192137765Y-72914572D01*
X192131804Y-72890773D01*
X192128204Y-72866505D01*
X192127000Y-72842001D01*
X192127000Y-71816999D01*
X192128204Y-71792495D01*
X192131804Y-71768227D01*
X192137765Y-71744428D01*
X192146030Y-71721329D01*
X192156520Y-71699150D01*
X192169132Y-71678107D01*
X192183747Y-71658401D01*
X192200223Y-71640223D01*
X192218401Y-71623747D01*
X192238107Y-71609132D01*
X192259150Y-71596520D01*
X192281329Y-71586030D01*
X192304428Y-71577765D01*
X192328227Y-71571804D01*
X192352495Y-71568204D01*
X192376999Y-71567000D01*
X195227001Y-71567000D01*
X195251505Y-71568204D01*
X195251505Y-71568204D01*
G37*
D29*
G04 #@! TD*
G04 #@! TO.P,R2,1*
G04 #@! TO.N,VCC*
X193802000Y-72329500D03*
D22*
G04 #@! TO.N,Net-(Q1-Pad3)*
G04 #@! TO.C,R2*
G36*
X195251505Y-65593204D02*
X195275773Y-65596804D01*
X195299572Y-65602765D01*
X195322671Y-65611030D01*
X195344850Y-65621520D01*
X195365893Y-65634132D01*
X195385599Y-65648747D01*
X195403777Y-65665223D01*
X195420253Y-65683401D01*
X195434868Y-65703107D01*
X195447480Y-65724150D01*
X195457970Y-65746329D01*
X195466235Y-65769428D01*
X195472196Y-65793227D01*
X195475796Y-65817495D01*
X195477000Y-65841999D01*
X195477000Y-66867001D01*
X195475796Y-66891505D01*
X195472196Y-66915773D01*
X195466235Y-66939572D01*
X195457970Y-66962671D01*
X195447480Y-66984850D01*
X195434868Y-67005893D01*
X195420253Y-67025599D01*
X195403777Y-67043777D01*
X195385599Y-67060253D01*
X195365893Y-67074868D01*
X195344850Y-67087480D01*
X195322671Y-67097970D01*
X195299572Y-67106235D01*
X195275773Y-67112196D01*
X195251505Y-67115796D01*
X195227001Y-67117000D01*
X192376999Y-67117000D01*
X192352495Y-67115796D01*
X192328227Y-67112196D01*
X192304428Y-67106235D01*
X192281329Y-67097970D01*
X192259150Y-67087480D01*
X192238107Y-67074868D01*
X192218401Y-67060253D01*
X192200223Y-67043777D01*
X192183747Y-67025599D01*
X192169132Y-67005893D01*
X192156520Y-66984850D01*
X192146030Y-66962671D01*
X192137765Y-66939572D01*
X192131804Y-66915773D01*
X192128204Y-66891505D01*
X192127000Y-66867001D01*
X192127000Y-65841999D01*
X192128204Y-65817495D01*
X192131804Y-65793227D01*
X192137765Y-65769428D01*
X192146030Y-65746329D01*
X192156520Y-65724150D01*
X192169132Y-65703107D01*
X192183747Y-65683401D01*
X192200223Y-65665223D01*
X192218401Y-65648747D01*
X192238107Y-65634132D01*
X192259150Y-65621520D01*
X192281329Y-65611030D01*
X192304428Y-65602765D01*
X192328227Y-65596804D01*
X192352495Y-65593204D01*
X192376999Y-65592000D01*
X195227001Y-65592000D01*
X195251505Y-65593204D01*
X195251505Y-65593204D01*
G37*
D29*
G04 #@! TD*
G04 #@! TO.P,R2,2*
G04 #@! TO.N,Net-(Q1-Pad3)*
X193802000Y-66354500D03*
D22*
G04 #@! TO.N,Net-(Q1-Pad3)*
G04 #@! TO.C,R3*
G36*
X199061505Y-65593204D02*
X199085773Y-65596804D01*
X199109572Y-65602765D01*
X199132671Y-65611030D01*
X199154850Y-65621520D01*
X199175893Y-65634132D01*
X199195599Y-65648747D01*
X199213777Y-65665223D01*
X199230253Y-65683401D01*
X199244868Y-65703107D01*
X199257480Y-65724150D01*
X199267970Y-65746329D01*
X199276235Y-65769428D01*
X199282196Y-65793227D01*
X199285796Y-65817495D01*
X199287000Y-65841999D01*
X199287000Y-66867001D01*
X199285796Y-66891505D01*
X199282196Y-66915773D01*
X199276235Y-66939572D01*
X199267970Y-66962671D01*
X199257480Y-66984850D01*
X199244868Y-67005893D01*
X199230253Y-67025599D01*
X199213777Y-67043777D01*
X199195599Y-67060253D01*
X199175893Y-67074868D01*
X199154850Y-67087480D01*
X199132671Y-67097970D01*
X199109572Y-67106235D01*
X199085773Y-67112196D01*
X199061505Y-67115796D01*
X199037001Y-67117000D01*
X196186999Y-67117000D01*
X196162495Y-67115796D01*
X196138227Y-67112196D01*
X196114428Y-67106235D01*
X196091329Y-67097970D01*
X196069150Y-67087480D01*
X196048107Y-67074868D01*
X196028401Y-67060253D01*
X196010223Y-67043777D01*
X195993747Y-67025599D01*
X195979132Y-67005893D01*
X195966520Y-66984850D01*
X195956030Y-66962671D01*
X195947765Y-66939572D01*
X195941804Y-66915773D01*
X195938204Y-66891505D01*
X195937000Y-66867001D01*
X195937000Y-65841999D01*
X195938204Y-65817495D01*
X195941804Y-65793227D01*
X195947765Y-65769428D01*
X195956030Y-65746329D01*
X195966520Y-65724150D01*
X195979132Y-65703107D01*
X195993747Y-65683401D01*
X196010223Y-65665223D01*
X196028401Y-65648747D01*
X196048107Y-65634132D01*
X196069150Y-65621520D01*
X196091329Y-65611030D01*
X196114428Y-65602765D01*
X196138227Y-65596804D01*
X196162495Y-65593204D01*
X196186999Y-65592000D01*
X199037001Y-65592000D01*
X199061505Y-65593204D01*
X199061505Y-65593204D01*
G37*
D29*
G04 #@! TD*
G04 #@! TO.P,R3,2*
G04 #@! TO.N,Net-(Q1-Pad3)*
X197612000Y-66354500D03*
D22*
G04 #@! TO.N,VCC*
G04 #@! TO.C,R3*
G36*
X199061505Y-71568204D02*
X199085773Y-71571804D01*
X199109572Y-71577765D01*
X199132671Y-71586030D01*
X199154850Y-71596520D01*
X199175893Y-71609132D01*
X199195599Y-71623747D01*
X199213777Y-71640223D01*
X199230253Y-71658401D01*
X199244868Y-71678107D01*
X199257480Y-71699150D01*
X199267970Y-71721329D01*
X199276235Y-71744428D01*
X199282196Y-71768227D01*
X199285796Y-71792495D01*
X199287000Y-71816999D01*
X199287000Y-72842001D01*
X199285796Y-72866505D01*
X199282196Y-72890773D01*
X199276235Y-72914572D01*
X199267970Y-72937671D01*
X199257480Y-72959850D01*
X199244868Y-72980893D01*
X199230253Y-73000599D01*
X199213777Y-73018777D01*
X199195599Y-73035253D01*
X199175893Y-73049868D01*
X199154850Y-73062480D01*
X199132671Y-73072970D01*
X199109572Y-73081235D01*
X199085773Y-73087196D01*
X199061505Y-73090796D01*
X199037001Y-73092000D01*
X196186999Y-73092000D01*
X196162495Y-73090796D01*
X196138227Y-73087196D01*
X196114428Y-73081235D01*
X196091329Y-73072970D01*
X196069150Y-73062480D01*
X196048107Y-73049868D01*
X196028401Y-73035253D01*
X196010223Y-73018777D01*
X195993747Y-73000599D01*
X195979132Y-72980893D01*
X195966520Y-72959850D01*
X195956030Y-72937671D01*
X195947765Y-72914572D01*
X195941804Y-72890773D01*
X195938204Y-72866505D01*
X195937000Y-72842001D01*
X195937000Y-71816999D01*
X195938204Y-71792495D01*
X195941804Y-71768227D01*
X195947765Y-71744428D01*
X195956030Y-71721329D01*
X195966520Y-71699150D01*
X195979132Y-71678107D01*
X195993747Y-71658401D01*
X196010223Y-71640223D01*
X196028401Y-71623747D01*
X196048107Y-71609132D01*
X196069150Y-71596520D01*
X196091329Y-71586030D01*
X196114428Y-71577765D01*
X196138227Y-71571804D01*
X196162495Y-71568204D01*
X196186999Y-71567000D01*
X199037001Y-71567000D01*
X199061505Y-71568204D01*
X199061505Y-71568204D01*
G37*
D29*
G04 #@! TD*
G04 #@! TO.P,R3,1*
G04 #@! TO.N,VCC*
X197612000Y-72329500D03*
D22*
G04 #@! TO.N,VCC*
G04 #@! TO.C,R4*
G36*
X195251505Y-53909204D02*
X195275773Y-53912804D01*
X195299572Y-53918765D01*
X195322671Y-53927030D01*
X195344850Y-53937520D01*
X195365893Y-53950132D01*
X195385599Y-53964747D01*
X195403777Y-53981223D01*
X195420253Y-53999401D01*
X195434868Y-54019107D01*
X195447480Y-54040150D01*
X195457970Y-54062329D01*
X195466235Y-54085428D01*
X195472196Y-54109227D01*
X195475796Y-54133495D01*
X195477000Y-54157999D01*
X195477000Y-55183001D01*
X195475796Y-55207505D01*
X195472196Y-55231773D01*
X195466235Y-55255572D01*
X195457970Y-55278671D01*
X195447480Y-55300850D01*
X195434868Y-55321893D01*
X195420253Y-55341599D01*
X195403777Y-55359777D01*
X195385599Y-55376253D01*
X195365893Y-55390868D01*
X195344850Y-55403480D01*
X195322671Y-55413970D01*
X195299572Y-55422235D01*
X195275773Y-55428196D01*
X195251505Y-55431796D01*
X195227001Y-55433000D01*
X192376999Y-55433000D01*
X192352495Y-55431796D01*
X192328227Y-55428196D01*
X192304428Y-55422235D01*
X192281329Y-55413970D01*
X192259150Y-55403480D01*
X192238107Y-55390868D01*
X192218401Y-55376253D01*
X192200223Y-55359777D01*
X192183747Y-55341599D01*
X192169132Y-55321893D01*
X192156520Y-55300850D01*
X192146030Y-55278671D01*
X192137765Y-55255572D01*
X192131804Y-55231773D01*
X192128204Y-55207505D01*
X192127000Y-55183001D01*
X192127000Y-54157999D01*
X192128204Y-54133495D01*
X192131804Y-54109227D01*
X192137765Y-54085428D01*
X192146030Y-54062329D01*
X192156520Y-54040150D01*
X192169132Y-54019107D01*
X192183747Y-53999401D01*
X192200223Y-53981223D01*
X192218401Y-53964747D01*
X192238107Y-53950132D01*
X192259150Y-53937520D01*
X192281329Y-53927030D01*
X192304428Y-53918765D01*
X192328227Y-53912804D01*
X192352495Y-53909204D01*
X192376999Y-53908000D01*
X195227001Y-53908000D01*
X195251505Y-53909204D01*
X195251505Y-53909204D01*
G37*
D29*
G04 #@! TD*
G04 #@! TO.P,R4,1*
G04 #@! TO.N,VCC*
X193802000Y-54670500D03*
D22*
G04 #@! TO.N,Net-(Q2-Pad3)*
G04 #@! TO.C,R4*
G36*
X195251505Y-59884204D02*
X195275773Y-59887804D01*
X195299572Y-59893765D01*
X195322671Y-59902030D01*
X195344850Y-59912520D01*
X195365893Y-59925132D01*
X195385599Y-59939747D01*
X195403777Y-59956223D01*
X195420253Y-59974401D01*
X195434868Y-59994107D01*
X195447480Y-60015150D01*
X195457970Y-60037329D01*
X195466235Y-60060428D01*
X195472196Y-60084227D01*
X195475796Y-60108495D01*
X195477000Y-60132999D01*
X195477000Y-61158001D01*
X195475796Y-61182505D01*
X195472196Y-61206773D01*
X195466235Y-61230572D01*
X195457970Y-61253671D01*
X195447480Y-61275850D01*
X195434868Y-61296893D01*
X195420253Y-61316599D01*
X195403777Y-61334777D01*
X195385599Y-61351253D01*
X195365893Y-61365868D01*
X195344850Y-61378480D01*
X195322671Y-61388970D01*
X195299572Y-61397235D01*
X195275773Y-61403196D01*
X195251505Y-61406796D01*
X195227001Y-61408000D01*
X192376999Y-61408000D01*
X192352495Y-61406796D01*
X192328227Y-61403196D01*
X192304428Y-61397235D01*
X192281329Y-61388970D01*
X192259150Y-61378480D01*
X192238107Y-61365868D01*
X192218401Y-61351253D01*
X192200223Y-61334777D01*
X192183747Y-61316599D01*
X192169132Y-61296893D01*
X192156520Y-61275850D01*
X192146030Y-61253671D01*
X192137765Y-61230572D01*
X192131804Y-61206773D01*
X192128204Y-61182505D01*
X192127000Y-61158001D01*
X192127000Y-60132999D01*
X192128204Y-60108495D01*
X192131804Y-60084227D01*
X192137765Y-60060428D01*
X192146030Y-60037329D01*
X192156520Y-60015150D01*
X192169132Y-59994107D01*
X192183747Y-59974401D01*
X192200223Y-59956223D01*
X192218401Y-59939747D01*
X192238107Y-59925132D01*
X192259150Y-59912520D01*
X192281329Y-59902030D01*
X192304428Y-59893765D01*
X192328227Y-59887804D01*
X192352495Y-59884204D01*
X192376999Y-59883000D01*
X195227001Y-59883000D01*
X195251505Y-59884204D01*
X195251505Y-59884204D01*
G37*
D29*
G04 #@! TD*
G04 #@! TO.P,R4,2*
G04 #@! TO.N,Net-(Q2-Pad3)*
X193802000Y-60645500D03*
D22*
G04 #@! TO.N,+BATT*
G04 #@! TO.C,R5*
G36*
X221159505Y-57852204D02*
X221183773Y-57855804D01*
X221207572Y-57861765D01*
X221230671Y-57870030D01*
X221252850Y-57880520D01*
X221273893Y-57893132D01*
X221293599Y-57907747D01*
X221311777Y-57924223D01*
X221328253Y-57942401D01*
X221342868Y-57962107D01*
X221355480Y-57983150D01*
X221365970Y-58005329D01*
X221374235Y-58028428D01*
X221380196Y-58052227D01*
X221383796Y-58076495D01*
X221385000Y-58100999D01*
X221385000Y-59126001D01*
X221383796Y-59150505D01*
X221380196Y-59174773D01*
X221374235Y-59198572D01*
X221365970Y-59221671D01*
X221355480Y-59243850D01*
X221342868Y-59264893D01*
X221328253Y-59284599D01*
X221311777Y-59302777D01*
X221293599Y-59319253D01*
X221273893Y-59333868D01*
X221252850Y-59346480D01*
X221230671Y-59356970D01*
X221207572Y-59365235D01*
X221183773Y-59371196D01*
X221159505Y-59374796D01*
X221135001Y-59376000D01*
X218284999Y-59376000D01*
X218260495Y-59374796D01*
X218236227Y-59371196D01*
X218212428Y-59365235D01*
X218189329Y-59356970D01*
X218167150Y-59346480D01*
X218146107Y-59333868D01*
X218126401Y-59319253D01*
X218108223Y-59302777D01*
X218091747Y-59284599D01*
X218077132Y-59264893D01*
X218064520Y-59243850D01*
X218054030Y-59221671D01*
X218045765Y-59198572D01*
X218039804Y-59174773D01*
X218036204Y-59150505D01*
X218035000Y-59126001D01*
X218035000Y-58100999D01*
X218036204Y-58076495D01*
X218039804Y-58052227D01*
X218045765Y-58028428D01*
X218054030Y-58005329D01*
X218064520Y-57983150D01*
X218077132Y-57962107D01*
X218091747Y-57942401D01*
X218108223Y-57924223D01*
X218126401Y-57907747D01*
X218146107Y-57893132D01*
X218167150Y-57880520D01*
X218189329Y-57870030D01*
X218212428Y-57861765D01*
X218236227Y-57855804D01*
X218260495Y-57852204D01*
X218284999Y-57851000D01*
X221135001Y-57851000D01*
X221159505Y-57852204D01*
X221159505Y-57852204D01*
G37*
D29*
G04 #@! TD*
G04 #@! TO.P,R5,2*
G04 #@! TO.N,+BATT*
X219710000Y-58613500D03*
D22*
G04 #@! TO.N,VCC*
G04 #@! TO.C,R5*
G36*
X221159505Y-51877204D02*
X221183773Y-51880804D01*
X221207572Y-51886765D01*
X221230671Y-51895030D01*
X221252850Y-51905520D01*
X221273893Y-51918132D01*
X221293599Y-51932747D01*
X221311777Y-51949223D01*
X221328253Y-51967401D01*
X221342868Y-51987107D01*
X221355480Y-52008150D01*
X221365970Y-52030329D01*
X221374235Y-52053428D01*
X221380196Y-52077227D01*
X221383796Y-52101495D01*
X221385000Y-52125999D01*
X221385000Y-53151001D01*
X221383796Y-53175505D01*
X221380196Y-53199773D01*
X221374235Y-53223572D01*
X221365970Y-53246671D01*
X221355480Y-53268850D01*
X221342868Y-53289893D01*
X221328253Y-53309599D01*
X221311777Y-53327777D01*
X221293599Y-53344253D01*
X221273893Y-53358868D01*
X221252850Y-53371480D01*
X221230671Y-53381970D01*
X221207572Y-53390235D01*
X221183773Y-53396196D01*
X221159505Y-53399796D01*
X221135001Y-53401000D01*
X218284999Y-53401000D01*
X218260495Y-53399796D01*
X218236227Y-53396196D01*
X218212428Y-53390235D01*
X218189329Y-53381970D01*
X218167150Y-53371480D01*
X218146107Y-53358868D01*
X218126401Y-53344253D01*
X218108223Y-53327777D01*
X218091747Y-53309599D01*
X218077132Y-53289893D01*
X218064520Y-53268850D01*
X218054030Y-53246671D01*
X218045765Y-53223572D01*
X218039804Y-53199773D01*
X218036204Y-53175505D01*
X218035000Y-53151001D01*
X218035000Y-52125999D01*
X218036204Y-52101495D01*
X218039804Y-52077227D01*
X218045765Y-52053428D01*
X218054030Y-52030329D01*
X218064520Y-52008150D01*
X218077132Y-51987107D01*
X218091747Y-51967401D01*
X218108223Y-51949223D01*
X218126401Y-51932747D01*
X218146107Y-51918132D01*
X218167150Y-51905520D01*
X218189329Y-51895030D01*
X218212428Y-51886765D01*
X218236227Y-51880804D01*
X218260495Y-51877204D01*
X218284999Y-51876000D01*
X221135001Y-51876000D01*
X221159505Y-51877204D01*
X221159505Y-51877204D01*
G37*
D29*
G04 #@! TD*
G04 #@! TO.P,R5,1*
G04 #@! TO.N,VCC*
X219710000Y-52638500D03*
D22*
G04 #@! TO.N,Net-(Q2-Pad3)*
G04 #@! TO.C,R6*
G36*
X199061505Y-59884204D02*
X199085773Y-59887804D01*
X199109572Y-59893765D01*
X199132671Y-59902030D01*
X199154850Y-59912520D01*
X199175893Y-59925132D01*
X199195599Y-59939747D01*
X199213777Y-59956223D01*
X199230253Y-59974401D01*
X199244868Y-59994107D01*
X199257480Y-60015150D01*
X199267970Y-60037329D01*
X199276235Y-60060428D01*
X199282196Y-60084227D01*
X199285796Y-60108495D01*
X199287000Y-60132999D01*
X199287000Y-61158001D01*
X199285796Y-61182505D01*
X199282196Y-61206773D01*
X199276235Y-61230572D01*
X199267970Y-61253671D01*
X199257480Y-61275850D01*
X199244868Y-61296893D01*
X199230253Y-61316599D01*
X199213777Y-61334777D01*
X199195599Y-61351253D01*
X199175893Y-61365868D01*
X199154850Y-61378480D01*
X199132671Y-61388970D01*
X199109572Y-61397235D01*
X199085773Y-61403196D01*
X199061505Y-61406796D01*
X199037001Y-61408000D01*
X196186999Y-61408000D01*
X196162495Y-61406796D01*
X196138227Y-61403196D01*
X196114428Y-61397235D01*
X196091329Y-61388970D01*
X196069150Y-61378480D01*
X196048107Y-61365868D01*
X196028401Y-61351253D01*
X196010223Y-61334777D01*
X195993747Y-61316599D01*
X195979132Y-61296893D01*
X195966520Y-61275850D01*
X195956030Y-61253671D01*
X195947765Y-61230572D01*
X195941804Y-61206773D01*
X195938204Y-61182505D01*
X195937000Y-61158001D01*
X195937000Y-60132999D01*
X195938204Y-60108495D01*
X195941804Y-60084227D01*
X195947765Y-60060428D01*
X195956030Y-60037329D01*
X195966520Y-60015150D01*
X195979132Y-59994107D01*
X195993747Y-59974401D01*
X196010223Y-59956223D01*
X196028401Y-59939747D01*
X196048107Y-59925132D01*
X196069150Y-59912520D01*
X196091329Y-59902030D01*
X196114428Y-59893765D01*
X196138227Y-59887804D01*
X196162495Y-59884204D01*
X196186999Y-59883000D01*
X199037001Y-59883000D01*
X199061505Y-59884204D01*
X199061505Y-59884204D01*
G37*
D29*
G04 #@! TD*
G04 #@! TO.P,R6,2*
G04 #@! TO.N,Net-(Q2-Pad3)*
X197612000Y-60645500D03*
D22*
G04 #@! TO.N,VCC*
G04 #@! TO.C,R6*
G36*
X199061505Y-53909204D02*
X199085773Y-53912804D01*
X199109572Y-53918765D01*
X199132671Y-53927030D01*
X199154850Y-53937520D01*
X199175893Y-53950132D01*
X199195599Y-53964747D01*
X199213777Y-53981223D01*
X199230253Y-53999401D01*
X199244868Y-54019107D01*
X199257480Y-54040150D01*
X199267970Y-54062329D01*
X199276235Y-54085428D01*
X199282196Y-54109227D01*
X199285796Y-54133495D01*
X199287000Y-54157999D01*
X199287000Y-55183001D01*
X199285796Y-55207505D01*
X199282196Y-55231773D01*
X199276235Y-55255572D01*
X199267970Y-55278671D01*
X199257480Y-55300850D01*
X199244868Y-55321893D01*
X199230253Y-55341599D01*
X199213777Y-55359777D01*
X199195599Y-55376253D01*
X199175893Y-55390868D01*
X199154850Y-55403480D01*
X199132671Y-55413970D01*
X199109572Y-55422235D01*
X199085773Y-55428196D01*
X199061505Y-55431796D01*
X199037001Y-55433000D01*
X196186999Y-55433000D01*
X196162495Y-55431796D01*
X196138227Y-55428196D01*
X196114428Y-55422235D01*
X196091329Y-55413970D01*
X196069150Y-55403480D01*
X196048107Y-55390868D01*
X196028401Y-55376253D01*
X196010223Y-55359777D01*
X195993747Y-55341599D01*
X195979132Y-55321893D01*
X195966520Y-55300850D01*
X195956030Y-55278671D01*
X195947765Y-55255572D01*
X195941804Y-55231773D01*
X195938204Y-55207505D01*
X195937000Y-55183001D01*
X195937000Y-54157999D01*
X195938204Y-54133495D01*
X195941804Y-54109227D01*
X195947765Y-54085428D01*
X195956030Y-54062329D01*
X195966520Y-54040150D01*
X195979132Y-54019107D01*
X195993747Y-53999401D01*
X196010223Y-53981223D01*
X196028401Y-53964747D01*
X196048107Y-53950132D01*
X196069150Y-53937520D01*
X196091329Y-53927030D01*
X196114428Y-53918765D01*
X196138227Y-53912804D01*
X196162495Y-53909204D01*
X196186999Y-53908000D01*
X199037001Y-53908000D01*
X199061505Y-53909204D01*
X199061505Y-53909204D01*
G37*
D29*
G04 #@! TD*
G04 #@! TO.P,R6,1*
G04 #@! TO.N,VCC*
X197612000Y-54670500D03*
D22*
G04 #@! TO.N,Net-(Q3-Pad3)*
G04 #@! TO.C,R7*
G36*
X206681505Y-65593204D02*
X206705773Y-65596804D01*
X206729572Y-65602765D01*
X206752671Y-65611030D01*
X206774850Y-65621520D01*
X206795893Y-65634132D01*
X206815599Y-65648747D01*
X206833777Y-65665223D01*
X206850253Y-65683401D01*
X206864868Y-65703107D01*
X206877480Y-65724150D01*
X206887970Y-65746329D01*
X206896235Y-65769428D01*
X206902196Y-65793227D01*
X206905796Y-65817495D01*
X206907000Y-65841999D01*
X206907000Y-66867001D01*
X206905796Y-66891505D01*
X206902196Y-66915773D01*
X206896235Y-66939572D01*
X206887970Y-66962671D01*
X206877480Y-66984850D01*
X206864868Y-67005893D01*
X206850253Y-67025599D01*
X206833777Y-67043777D01*
X206815599Y-67060253D01*
X206795893Y-67074868D01*
X206774850Y-67087480D01*
X206752671Y-67097970D01*
X206729572Y-67106235D01*
X206705773Y-67112196D01*
X206681505Y-67115796D01*
X206657001Y-67117000D01*
X203806999Y-67117000D01*
X203782495Y-67115796D01*
X203758227Y-67112196D01*
X203734428Y-67106235D01*
X203711329Y-67097970D01*
X203689150Y-67087480D01*
X203668107Y-67074868D01*
X203648401Y-67060253D01*
X203630223Y-67043777D01*
X203613747Y-67025599D01*
X203599132Y-67005893D01*
X203586520Y-66984850D01*
X203576030Y-66962671D01*
X203567765Y-66939572D01*
X203561804Y-66915773D01*
X203558204Y-66891505D01*
X203557000Y-66867001D01*
X203557000Y-65841999D01*
X203558204Y-65817495D01*
X203561804Y-65793227D01*
X203567765Y-65769428D01*
X203576030Y-65746329D01*
X203586520Y-65724150D01*
X203599132Y-65703107D01*
X203613747Y-65683401D01*
X203630223Y-65665223D01*
X203648401Y-65648747D01*
X203668107Y-65634132D01*
X203689150Y-65621520D01*
X203711329Y-65611030D01*
X203734428Y-65602765D01*
X203758227Y-65596804D01*
X203782495Y-65593204D01*
X203806999Y-65592000D01*
X206657001Y-65592000D01*
X206681505Y-65593204D01*
X206681505Y-65593204D01*
G37*
D29*
G04 #@! TD*
G04 #@! TO.P,R7,2*
G04 #@! TO.N,Net-(Q3-Pad3)*
X205232000Y-66354500D03*
D22*
G04 #@! TO.N,VCC*
G04 #@! TO.C,R7*
G36*
X206681505Y-71568204D02*
X206705773Y-71571804D01*
X206729572Y-71577765D01*
X206752671Y-71586030D01*
X206774850Y-71596520D01*
X206795893Y-71609132D01*
X206815599Y-71623747D01*
X206833777Y-71640223D01*
X206850253Y-71658401D01*
X206864868Y-71678107D01*
X206877480Y-71699150D01*
X206887970Y-71721329D01*
X206896235Y-71744428D01*
X206902196Y-71768227D01*
X206905796Y-71792495D01*
X206907000Y-71816999D01*
X206907000Y-72842001D01*
X206905796Y-72866505D01*
X206902196Y-72890773D01*
X206896235Y-72914572D01*
X206887970Y-72937671D01*
X206877480Y-72959850D01*
X206864868Y-72980893D01*
X206850253Y-73000599D01*
X206833777Y-73018777D01*
X206815599Y-73035253D01*
X206795893Y-73049868D01*
X206774850Y-73062480D01*
X206752671Y-73072970D01*
X206729572Y-73081235D01*
X206705773Y-73087196D01*
X206681505Y-73090796D01*
X206657001Y-73092000D01*
X203806999Y-73092000D01*
X203782495Y-73090796D01*
X203758227Y-73087196D01*
X203734428Y-73081235D01*
X203711329Y-73072970D01*
X203689150Y-73062480D01*
X203668107Y-73049868D01*
X203648401Y-73035253D01*
X203630223Y-73018777D01*
X203613747Y-73000599D01*
X203599132Y-72980893D01*
X203586520Y-72959850D01*
X203576030Y-72937671D01*
X203567765Y-72914572D01*
X203561804Y-72890773D01*
X203558204Y-72866505D01*
X203557000Y-72842001D01*
X203557000Y-71816999D01*
X203558204Y-71792495D01*
X203561804Y-71768227D01*
X203567765Y-71744428D01*
X203576030Y-71721329D01*
X203586520Y-71699150D01*
X203599132Y-71678107D01*
X203613747Y-71658401D01*
X203630223Y-71640223D01*
X203648401Y-71623747D01*
X203668107Y-71609132D01*
X203689150Y-71596520D01*
X203711329Y-71586030D01*
X203734428Y-71577765D01*
X203758227Y-71571804D01*
X203782495Y-71568204D01*
X203806999Y-71567000D01*
X206657001Y-71567000D01*
X206681505Y-71568204D01*
X206681505Y-71568204D01*
G37*
D29*
G04 #@! TD*
G04 #@! TO.P,R7,1*
G04 #@! TO.N,VCC*
X205232000Y-72329500D03*
D22*
G04 #@! TO.N,Net-(Q3-Pad3)*
G04 #@! TO.C,R8*
G36*
X210491505Y-65593204D02*
X210515773Y-65596804D01*
X210539572Y-65602765D01*
X210562671Y-65611030D01*
X210584850Y-65621520D01*
X210605893Y-65634132D01*
X210625599Y-65648747D01*
X210643777Y-65665223D01*
X210660253Y-65683401D01*
X210674868Y-65703107D01*
X210687480Y-65724150D01*
X210697970Y-65746329D01*
X210706235Y-65769428D01*
X210712196Y-65793227D01*
X210715796Y-65817495D01*
X210717000Y-65841999D01*
X210717000Y-66867001D01*
X210715796Y-66891505D01*
X210712196Y-66915773D01*
X210706235Y-66939572D01*
X210697970Y-66962671D01*
X210687480Y-66984850D01*
X210674868Y-67005893D01*
X210660253Y-67025599D01*
X210643777Y-67043777D01*
X210625599Y-67060253D01*
X210605893Y-67074868D01*
X210584850Y-67087480D01*
X210562671Y-67097970D01*
X210539572Y-67106235D01*
X210515773Y-67112196D01*
X210491505Y-67115796D01*
X210467001Y-67117000D01*
X207616999Y-67117000D01*
X207592495Y-67115796D01*
X207568227Y-67112196D01*
X207544428Y-67106235D01*
X207521329Y-67097970D01*
X207499150Y-67087480D01*
X207478107Y-67074868D01*
X207458401Y-67060253D01*
X207440223Y-67043777D01*
X207423747Y-67025599D01*
X207409132Y-67005893D01*
X207396520Y-66984850D01*
X207386030Y-66962671D01*
X207377765Y-66939572D01*
X207371804Y-66915773D01*
X207368204Y-66891505D01*
X207367000Y-66867001D01*
X207367000Y-65841999D01*
X207368204Y-65817495D01*
X207371804Y-65793227D01*
X207377765Y-65769428D01*
X207386030Y-65746329D01*
X207396520Y-65724150D01*
X207409132Y-65703107D01*
X207423747Y-65683401D01*
X207440223Y-65665223D01*
X207458401Y-65648747D01*
X207478107Y-65634132D01*
X207499150Y-65621520D01*
X207521329Y-65611030D01*
X207544428Y-65602765D01*
X207568227Y-65596804D01*
X207592495Y-65593204D01*
X207616999Y-65592000D01*
X210467001Y-65592000D01*
X210491505Y-65593204D01*
X210491505Y-65593204D01*
G37*
D29*
G04 #@! TD*
G04 #@! TO.P,R8,2*
G04 #@! TO.N,Net-(Q3-Pad3)*
X209042000Y-66354500D03*
D22*
G04 #@! TO.N,VCC*
G04 #@! TO.C,R8*
G36*
X210491505Y-71568204D02*
X210515773Y-71571804D01*
X210539572Y-71577765D01*
X210562671Y-71586030D01*
X210584850Y-71596520D01*
X210605893Y-71609132D01*
X210625599Y-71623747D01*
X210643777Y-71640223D01*
X210660253Y-71658401D01*
X210674868Y-71678107D01*
X210687480Y-71699150D01*
X210697970Y-71721329D01*
X210706235Y-71744428D01*
X210712196Y-71768227D01*
X210715796Y-71792495D01*
X210717000Y-71816999D01*
X210717000Y-72842001D01*
X210715796Y-72866505D01*
X210712196Y-72890773D01*
X210706235Y-72914572D01*
X210697970Y-72937671D01*
X210687480Y-72959850D01*
X210674868Y-72980893D01*
X210660253Y-73000599D01*
X210643777Y-73018777D01*
X210625599Y-73035253D01*
X210605893Y-73049868D01*
X210584850Y-73062480D01*
X210562671Y-73072970D01*
X210539572Y-73081235D01*
X210515773Y-73087196D01*
X210491505Y-73090796D01*
X210467001Y-73092000D01*
X207616999Y-73092000D01*
X207592495Y-73090796D01*
X207568227Y-73087196D01*
X207544428Y-73081235D01*
X207521329Y-73072970D01*
X207499150Y-73062480D01*
X207478107Y-73049868D01*
X207458401Y-73035253D01*
X207440223Y-73018777D01*
X207423747Y-73000599D01*
X207409132Y-72980893D01*
X207396520Y-72959850D01*
X207386030Y-72937671D01*
X207377765Y-72914572D01*
X207371804Y-72890773D01*
X207368204Y-72866505D01*
X207367000Y-72842001D01*
X207367000Y-71816999D01*
X207368204Y-71792495D01*
X207371804Y-71768227D01*
X207377765Y-71744428D01*
X207386030Y-71721329D01*
X207396520Y-71699150D01*
X207409132Y-71678107D01*
X207423747Y-71658401D01*
X207440223Y-71640223D01*
X207458401Y-71623747D01*
X207478107Y-71609132D01*
X207499150Y-71596520D01*
X207521329Y-71586030D01*
X207544428Y-71577765D01*
X207568227Y-71571804D01*
X207592495Y-71568204D01*
X207616999Y-71567000D01*
X210467001Y-71567000D01*
X210491505Y-71568204D01*
X210491505Y-71568204D01*
G37*
D29*
G04 #@! TD*
G04 #@! TO.P,R8,1*
G04 #@! TO.N,VCC*
X209042000Y-72329500D03*
D22*
G04 #@! TO.N,VCC*
G04 #@! TO.C,R9*
G36*
X206681505Y-53909204D02*
X206705773Y-53912804D01*
X206729572Y-53918765D01*
X206752671Y-53927030D01*
X206774850Y-53937520D01*
X206795893Y-53950132D01*
X206815599Y-53964747D01*
X206833777Y-53981223D01*
X206850253Y-53999401D01*
X206864868Y-54019107D01*
X206877480Y-54040150D01*
X206887970Y-54062329D01*
X206896235Y-54085428D01*
X206902196Y-54109227D01*
X206905796Y-54133495D01*
X206907000Y-54157999D01*
X206907000Y-55183001D01*
X206905796Y-55207505D01*
X206902196Y-55231773D01*
X206896235Y-55255572D01*
X206887970Y-55278671D01*
X206877480Y-55300850D01*
X206864868Y-55321893D01*
X206850253Y-55341599D01*
X206833777Y-55359777D01*
X206815599Y-55376253D01*
X206795893Y-55390868D01*
X206774850Y-55403480D01*
X206752671Y-55413970D01*
X206729572Y-55422235D01*
X206705773Y-55428196D01*
X206681505Y-55431796D01*
X206657001Y-55433000D01*
X203806999Y-55433000D01*
X203782495Y-55431796D01*
X203758227Y-55428196D01*
X203734428Y-55422235D01*
X203711329Y-55413970D01*
X203689150Y-55403480D01*
X203668107Y-55390868D01*
X203648401Y-55376253D01*
X203630223Y-55359777D01*
X203613747Y-55341599D01*
X203599132Y-55321893D01*
X203586520Y-55300850D01*
X203576030Y-55278671D01*
X203567765Y-55255572D01*
X203561804Y-55231773D01*
X203558204Y-55207505D01*
X203557000Y-55183001D01*
X203557000Y-54157999D01*
X203558204Y-54133495D01*
X203561804Y-54109227D01*
X203567765Y-54085428D01*
X203576030Y-54062329D01*
X203586520Y-54040150D01*
X203599132Y-54019107D01*
X203613747Y-53999401D01*
X203630223Y-53981223D01*
X203648401Y-53964747D01*
X203668107Y-53950132D01*
X203689150Y-53937520D01*
X203711329Y-53927030D01*
X203734428Y-53918765D01*
X203758227Y-53912804D01*
X203782495Y-53909204D01*
X203806999Y-53908000D01*
X206657001Y-53908000D01*
X206681505Y-53909204D01*
X206681505Y-53909204D01*
G37*
D29*
G04 #@! TD*
G04 #@! TO.P,R9,1*
G04 #@! TO.N,VCC*
X205232000Y-54670500D03*
D22*
G04 #@! TO.N,Net-(Q4-Pad3)*
G04 #@! TO.C,R9*
G36*
X206681505Y-59884204D02*
X206705773Y-59887804D01*
X206729572Y-59893765D01*
X206752671Y-59902030D01*
X206774850Y-59912520D01*
X206795893Y-59925132D01*
X206815599Y-59939747D01*
X206833777Y-59956223D01*
X206850253Y-59974401D01*
X206864868Y-59994107D01*
X206877480Y-60015150D01*
X206887970Y-60037329D01*
X206896235Y-60060428D01*
X206902196Y-60084227D01*
X206905796Y-60108495D01*
X206907000Y-60132999D01*
X206907000Y-61158001D01*
X206905796Y-61182505D01*
X206902196Y-61206773D01*
X206896235Y-61230572D01*
X206887970Y-61253671D01*
X206877480Y-61275850D01*
X206864868Y-61296893D01*
X206850253Y-61316599D01*
X206833777Y-61334777D01*
X206815599Y-61351253D01*
X206795893Y-61365868D01*
X206774850Y-61378480D01*
X206752671Y-61388970D01*
X206729572Y-61397235D01*
X206705773Y-61403196D01*
X206681505Y-61406796D01*
X206657001Y-61408000D01*
X203806999Y-61408000D01*
X203782495Y-61406796D01*
X203758227Y-61403196D01*
X203734428Y-61397235D01*
X203711329Y-61388970D01*
X203689150Y-61378480D01*
X203668107Y-61365868D01*
X203648401Y-61351253D01*
X203630223Y-61334777D01*
X203613747Y-61316599D01*
X203599132Y-61296893D01*
X203586520Y-61275850D01*
X203576030Y-61253671D01*
X203567765Y-61230572D01*
X203561804Y-61206773D01*
X203558204Y-61182505D01*
X203557000Y-61158001D01*
X203557000Y-60132999D01*
X203558204Y-60108495D01*
X203561804Y-60084227D01*
X203567765Y-60060428D01*
X203576030Y-60037329D01*
X203586520Y-60015150D01*
X203599132Y-59994107D01*
X203613747Y-59974401D01*
X203630223Y-59956223D01*
X203648401Y-59939747D01*
X203668107Y-59925132D01*
X203689150Y-59912520D01*
X203711329Y-59902030D01*
X203734428Y-59893765D01*
X203758227Y-59887804D01*
X203782495Y-59884204D01*
X203806999Y-59883000D01*
X206657001Y-59883000D01*
X206681505Y-59884204D01*
X206681505Y-59884204D01*
G37*
D29*
G04 #@! TD*
G04 #@! TO.P,R9,2*
G04 #@! TO.N,Net-(Q4-Pad3)*
X205232000Y-60645500D03*
D22*
G04 #@! TO.N,VCC*
G04 #@! TO.C,R11*
G36*
X210491505Y-53909204D02*
X210515773Y-53912804D01*
X210539572Y-53918765D01*
X210562671Y-53927030D01*
X210584850Y-53937520D01*
X210605893Y-53950132D01*
X210625599Y-53964747D01*
X210643777Y-53981223D01*
X210660253Y-53999401D01*
X210674868Y-54019107D01*
X210687480Y-54040150D01*
X210697970Y-54062329D01*
X210706235Y-54085428D01*
X210712196Y-54109227D01*
X210715796Y-54133495D01*
X210717000Y-54157999D01*
X210717000Y-55183001D01*
X210715796Y-55207505D01*
X210712196Y-55231773D01*
X210706235Y-55255572D01*
X210697970Y-55278671D01*
X210687480Y-55300850D01*
X210674868Y-55321893D01*
X210660253Y-55341599D01*
X210643777Y-55359777D01*
X210625599Y-55376253D01*
X210605893Y-55390868D01*
X210584850Y-55403480D01*
X210562671Y-55413970D01*
X210539572Y-55422235D01*
X210515773Y-55428196D01*
X210491505Y-55431796D01*
X210467001Y-55433000D01*
X207616999Y-55433000D01*
X207592495Y-55431796D01*
X207568227Y-55428196D01*
X207544428Y-55422235D01*
X207521329Y-55413970D01*
X207499150Y-55403480D01*
X207478107Y-55390868D01*
X207458401Y-55376253D01*
X207440223Y-55359777D01*
X207423747Y-55341599D01*
X207409132Y-55321893D01*
X207396520Y-55300850D01*
X207386030Y-55278671D01*
X207377765Y-55255572D01*
X207371804Y-55231773D01*
X207368204Y-55207505D01*
X207367000Y-55183001D01*
X207367000Y-54157999D01*
X207368204Y-54133495D01*
X207371804Y-54109227D01*
X207377765Y-54085428D01*
X207386030Y-54062329D01*
X207396520Y-54040150D01*
X207409132Y-54019107D01*
X207423747Y-53999401D01*
X207440223Y-53981223D01*
X207458401Y-53964747D01*
X207478107Y-53950132D01*
X207499150Y-53937520D01*
X207521329Y-53927030D01*
X207544428Y-53918765D01*
X207568227Y-53912804D01*
X207592495Y-53909204D01*
X207616999Y-53908000D01*
X210467001Y-53908000D01*
X210491505Y-53909204D01*
X210491505Y-53909204D01*
G37*
D29*
G04 #@! TD*
G04 #@! TO.P,R11,1*
G04 #@! TO.N,VCC*
X209042000Y-54670500D03*
D22*
G04 #@! TO.N,Net-(Q4-Pad3)*
G04 #@! TO.C,R11*
G36*
X210491505Y-59884204D02*
X210515773Y-59887804D01*
X210539572Y-59893765D01*
X210562671Y-59902030D01*
X210584850Y-59912520D01*
X210605893Y-59925132D01*
X210625599Y-59939747D01*
X210643777Y-59956223D01*
X210660253Y-59974401D01*
X210674868Y-59994107D01*
X210687480Y-60015150D01*
X210697970Y-60037329D01*
X210706235Y-60060428D01*
X210712196Y-60084227D01*
X210715796Y-60108495D01*
X210717000Y-60132999D01*
X210717000Y-61158001D01*
X210715796Y-61182505D01*
X210712196Y-61206773D01*
X210706235Y-61230572D01*
X210697970Y-61253671D01*
X210687480Y-61275850D01*
X210674868Y-61296893D01*
X210660253Y-61316599D01*
X210643777Y-61334777D01*
X210625599Y-61351253D01*
X210605893Y-61365868D01*
X210584850Y-61378480D01*
X210562671Y-61388970D01*
X210539572Y-61397235D01*
X210515773Y-61403196D01*
X210491505Y-61406796D01*
X210467001Y-61408000D01*
X207616999Y-61408000D01*
X207592495Y-61406796D01*
X207568227Y-61403196D01*
X207544428Y-61397235D01*
X207521329Y-61388970D01*
X207499150Y-61378480D01*
X207478107Y-61365868D01*
X207458401Y-61351253D01*
X207440223Y-61334777D01*
X207423747Y-61316599D01*
X207409132Y-61296893D01*
X207396520Y-61275850D01*
X207386030Y-61253671D01*
X207377765Y-61230572D01*
X207371804Y-61206773D01*
X207368204Y-61182505D01*
X207367000Y-61158001D01*
X207367000Y-60132999D01*
X207368204Y-60108495D01*
X207371804Y-60084227D01*
X207377765Y-60060428D01*
X207386030Y-60037329D01*
X207396520Y-60015150D01*
X207409132Y-59994107D01*
X207423747Y-59974401D01*
X207440223Y-59956223D01*
X207458401Y-59939747D01*
X207478107Y-59925132D01*
X207499150Y-59912520D01*
X207521329Y-59902030D01*
X207544428Y-59893765D01*
X207568227Y-59887804D01*
X207592495Y-59884204D01*
X207616999Y-59883000D01*
X210467001Y-59883000D01*
X210491505Y-59884204D01*
X210491505Y-59884204D01*
G37*
D29*
G04 #@! TD*
G04 #@! TO.P,R11,2*
G04 #@! TO.N,Net-(Q4-Pad3)*
X209042000Y-60645500D03*
D30*
G04 #@! TO.P,J1,1*
G04 #@! TO.N,+BATT*
X226000000Y-64000000D03*
G04 #@! TD*
G04 #@! TO.P,J2,1*
G04 #@! TO.N,GND*
X162000000Y-64000000D03*
G04 #@! TD*
D31*
G04 #@! TO.N,/EN*
X188722000Y-72644000D03*
X182626000Y-69088000D03*
G04 #@! TO.N,/BOOT*
X175006000Y-67818000D03*
G04 #@! TO.N,/TX*
X184912000Y-57979010D03*
G04 #@! TO.N,/RX*
X183642000Y-58420000D03*
G04 #@! TO.N,Net-(Q4-Pad1)*
X188976006Y-68580000D03*
X208788000Y-62483999D03*
G04 #@! TO.N,Net-(Q3-Pad1)*
X188976000Y-67310000D03*
X204930120Y-62568430D03*
G04 #@! TO.N,Net-(Q2-Pad1)*
X188976000Y-66040000D03*
X197310123Y-62568433D03*
G04 #@! TO.N,Net-(Q1-Pad1)*
X188976000Y-64770000D03*
X193548002Y-62484000D03*
D32*
G04 #@! TO.N,VCC*
X212598000Y-53848000D03*
X212598000Y-72390000D03*
D31*
X215519000Y-66294000D03*
X214630000Y-66294000D03*
G04 #@! TO.N,/SDA*
X189992000Y-68834000D03*
X200406000Y-68797010D03*
X215900000Y-60706000D03*
X219583000Y-72898000D03*
X220852998Y-71374000D03*
G04 #@! TO.N,/SCL*
X202438000Y-68072000D03*
X214884000Y-60706000D03*
X190500000Y-67818000D03*
G04 #@! TO.N,/Alert2*
X189103000Y-63373000D03*
G04 #@! TO.N,/Alert1*
X188976000Y-61976000D03*
X198120000Y-58166000D03*
G04 #@! TO.N,+3V*
X171196000Y-54610000D03*
X202692000Y-58166000D03*
X227965000Y-73152000D03*
X219964000Y-74041000D03*
G04 #@! TD*
D33*
G04 #@! TO.N,GND*
X216916000Y-60960000D02*
X216916000Y-60946988D01*
X215570000Y-56690000D02*
X215110000Y-57150000D01*
X214147500Y-57150000D02*
X213360000Y-57937500D01*
X215110000Y-57150000D02*
X214147500Y-57150000D01*
X217486500Y-71208000D02*
X217170000Y-70891500D01*
D34*
X218948000Y-71208000D02*
X217486500Y-71208000D01*
D33*
X203978000Y-63800000D02*
X203978000Y-64450000D01*
X203744000Y-63566000D02*
X203978000Y-63800000D01*
X201676000Y-63566000D02*
X203744000Y-63566000D01*
X201422000Y-63820000D02*
X201676000Y-63566000D01*
X201422000Y-64600000D02*
X201422000Y-63820000D01*
X201676000Y-61493500D02*
X200888500Y-60706000D01*
X201676000Y-63566000D02*
X201676000Y-61493500D01*
X219571372Y-70584628D02*
X221714628Y-70584628D01*
X218948000Y-71208000D02*
X219571372Y-70584628D01*
X221714628Y-70584628D02*
X221742000Y-70612000D01*
X216230000Y-58860000D02*
X216870000Y-58860000D01*
X216870000Y-60110000D02*
X217170000Y-60410000D01*
X216870000Y-58860000D02*
X216870000Y-60110000D01*
X217170000Y-60410000D02*
X217170000Y-60706000D01*
D35*
X204024000Y-63754000D02*
X203978000Y-63800000D01*
X204724000Y-63754000D02*
X204024000Y-63754000D01*
X213106000Y-69875500D02*
X211607500Y-69875500D01*
X211607500Y-69875500D02*
X211582000Y-69850000D01*
D33*
X215392000Y-69342000D02*
X214630000Y-68580000D01*
X215392000Y-70104000D02*
X215392000Y-69342000D01*
D35*
X212644388Y-69413888D02*
X212415888Y-69413888D01*
X213106000Y-69875500D02*
X212644388Y-69413888D01*
X212415888Y-69413888D02*
X211836000Y-68834000D01*
X211836000Y-68834000D02*
X211836000Y-69088000D01*
X212318500Y-69088000D02*
X212344000Y-69113500D01*
X211836000Y-69088000D02*
X212318500Y-69088000D01*
X212344000Y-69113500D02*
X212344000Y-69342000D01*
X212344000Y-69342000D02*
X212090000Y-69596000D01*
X212090000Y-69596000D02*
X211582000Y-69596000D01*
X211582000Y-69596000D02*
X212598000Y-69596000D01*
X212598000Y-69596000D02*
X212344000Y-69596000D01*
X212344000Y-69596000D02*
X212090000Y-69342000D01*
X212531000Y-69875500D02*
X212090000Y-70316500D01*
X213106000Y-69875500D02*
X212531000Y-69875500D01*
X212090000Y-70316500D02*
X212090000Y-70358000D01*
D33*
X216230000Y-59320000D02*
X216870000Y-59960000D01*
X216230000Y-58460000D02*
X216230000Y-59320000D01*
X216870000Y-59960000D02*
X216916000Y-60946988D01*
X216916000Y-60946988D02*
X216870000Y-60110000D01*
X216870000Y-58460000D02*
X216870000Y-59644000D01*
X215570000Y-56690000D02*
X215570000Y-56050000D01*
X216230000Y-57350000D02*
X216230000Y-58250000D01*
X215570000Y-56690000D02*
X216030000Y-57150000D01*
X216030000Y-57150000D02*
X216230000Y-57350000D01*
X215570000Y-56830000D02*
X215646000Y-56906000D01*
X215646000Y-56906000D02*
X215646000Y-57150000D01*
X215646000Y-57150000D02*
X216030000Y-57150000D01*
X215392000Y-57008000D02*
X215392000Y-57150000D01*
X215570000Y-56830000D02*
X215392000Y-57008000D01*
X215570000Y-56050000D02*
X215570000Y-56830000D01*
X215110000Y-57150000D02*
X215392000Y-57150000D01*
X215392000Y-57150000D02*
X215646000Y-57150000D01*
X216880000Y-57920000D02*
X216880000Y-58250000D01*
X216310000Y-57350000D02*
X216880000Y-57920000D01*
X216230000Y-57350000D02*
X216310000Y-57350000D01*
X216880000Y-58250000D02*
X216230000Y-58250000D01*
X215702000Y-70739000D02*
X215392000Y-70429000D01*
X217170000Y-70891500D02*
X217017500Y-70739000D01*
X215392000Y-70429000D02*
X215392000Y-70104000D01*
X217017500Y-70739000D02*
X215702000Y-70739000D01*
D34*
X216624000Y-71437500D02*
X217170000Y-70891500D01*
D33*
X216281000Y-71437500D02*
X216624000Y-71437500D01*
X215917000Y-71073500D02*
X216281000Y-71437500D01*
X215917000Y-70704000D02*
X215917000Y-71073500D01*
G04 #@! TO.N,/EN*
X168402000Y-56049000D02*
X168631000Y-55820000D01*
X168402000Y-56896000D02*
X168402000Y-56049000D01*
X168122500Y-57175500D02*
X168402000Y-56896000D01*
X168631000Y-55820000D02*
X169556000Y-55820000D01*
X167132000Y-57175500D02*
X168122500Y-57175500D01*
X188722000Y-74770000D02*
X188492000Y-75000000D01*
X188722000Y-72644000D02*
X188722000Y-74770000D01*
X173264999Y-58603999D02*
X173264999Y-68166003D01*
X170481000Y-55820000D02*
X173264999Y-58603999D01*
X182060315Y-69088000D02*
X182626000Y-69088000D01*
X169556000Y-55820000D02*
X170481000Y-55820000D01*
X174186996Y-69088000D02*
X182060315Y-69088000D01*
X173264999Y-68166003D02*
X174186996Y-69088000D01*
G04 #@! TO.N,/BOOT*
X168562000Y-74930000D02*
X168492000Y-75000000D01*
X173482000Y-74930000D02*
X168562000Y-74930000D01*
X184658000Y-67818000D02*
X175571685Y-67818000D01*
X175571685Y-67818000D02*
X175006000Y-67818000D01*
X187586000Y-69790000D02*
X186630000Y-69790000D01*
X186630000Y-69790000D02*
X184658000Y-67818000D01*
G04 #@! TO.N,/TX*
X185801010Y-57090000D02*
X185311999Y-57579011D01*
X185311999Y-57579011D02*
X184912000Y-57979010D01*
X187586000Y-57090000D02*
X185801010Y-57090000D01*
G04 #@! TO.N,/RX*
X187361000Y-58360000D02*
X186661000Y-59060000D01*
X187586000Y-58360000D02*
X187361000Y-58360000D01*
X186661000Y-59060000D02*
X184282000Y-59060000D01*
X184041999Y-58819999D02*
X183642000Y-58420000D01*
X184282000Y-59060000D02*
X184041999Y-58819999D01*
G04 #@! TO.N,+BATT*
X217399000Y-55440000D02*
X216955001Y-55440000D01*
X219710000Y-57751000D02*
X217399000Y-55440000D01*
X219710000Y-58613500D02*
X219710000Y-57751000D01*
D34*
X226000000Y-59242000D02*
X228600000Y-56642000D01*
X226000000Y-64000000D02*
X226000000Y-59242000D01*
X225371500Y-58613500D02*
X226000000Y-59242000D01*
X219710000Y-58613500D02*
X225371500Y-58613500D01*
D33*
X216880000Y-55515001D02*
X216955001Y-55440000D01*
X216880000Y-56050000D02*
X216880000Y-55515001D01*
G04 #@! TO.N,Net-(Q4-Pad1)*
X187586000Y-68520000D02*
X188916006Y-68520000D01*
X188916006Y-68520000D02*
X188976006Y-68580000D01*
X208721999Y-62550000D02*
X208788000Y-62483999D01*
X207788000Y-62550000D02*
X208721999Y-62550000D01*
G04 #@! TO.N,Net-(Q3-Pad1)*
X188916000Y-67250000D02*
X188976000Y-67310000D01*
X187586000Y-67250000D02*
X188916000Y-67250000D01*
X204911690Y-62550000D02*
X204930120Y-62568430D01*
X203978000Y-62550000D02*
X204911690Y-62550000D01*
G04 #@! TO.N,Net-(Q2-Pad1)*
X187586000Y-65980000D02*
X188916000Y-65980000D01*
X188916000Y-65980000D02*
X188976000Y-66040000D01*
X197291690Y-62550000D02*
X197310123Y-62568433D01*
X196358000Y-62550000D02*
X197291690Y-62550000D01*
G04 #@! TO.N,Net-(Q1-Pad1)*
X188916000Y-64710000D02*
X188976000Y-64770000D01*
X187586000Y-64710000D02*
X188916000Y-64710000D01*
X193482002Y-62550000D02*
X193548002Y-62484000D01*
X192548000Y-62550000D02*
X193482002Y-62550000D01*
D34*
G04 #@! TO.N,VCC*
X209042000Y-54670500D02*
X211775500Y-54670500D01*
X211775500Y-54670500D02*
X212598000Y-53848000D01*
X209102500Y-72390000D02*
X209042000Y-72329500D01*
X212598000Y-72390000D02*
X209102500Y-72390000D01*
X212598000Y-53848000D02*
X213868000Y-52578000D01*
X213868000Y-52578000D02*
X213928500Y-52638500D01*
X224028000Y-54610000D02*
X221996000Y-52578000D01*
X221935500Y-52638500D02*
X219710000Y-52638500D01*
X221996000Y-52578000D02*
X221935500Y-52638500D01*
X216281000Y-52638500D02*
X219710000Y-52638500D01*
X213928500Y-52638500D02*
X216281000Y-52638500D01*
X217170000Y-67694000D02*
X217170000Y-69316500D01*
D33*
X217170000Y-67694000D02*
X217040000Y-67564000D01*
X215158000Y-67564000D02*
X215138000Y-67544000D01*
D34*
X217040000Y-67564000D02*
X215158000Y-67564000D01*
D33*
X218756500Y-69316500D02*
X218948000Y-69508000D01*
D34*
X217170000Y-69316500D02*
X218756500Y-69316500D01*
D35*
X217571498Y-52638500D02*
X216269999Y-53939999D01*
X219710000Y-52638500D02*
X217571498Y-52638500D01*
X216281000Y-54189000D02*
X216281000Y-53340000D01*
X216230000Y-54240000D02*
X216281000Y-54189000D01*
X216230000Y-55440000D02*
X216230000Y-54240000D01*
D33*
X216281000Y-52638500D02*
X216281000Y-53340000D01*
X216281000Y-53340000D02*
X216281000Y-53594000D01*
X216679500Y-69316500D02*
X216092000Y-69904000D01*
X217170000Y-69316500D02*
X216679500Y-69316500D01*
X217170000Y-69316500D02*
X217079500Y-69316500D01*
X216517000Y-69904000D02*
X216662000Y-69759000D01*
X216092000Y-69904000D02*
X216517000Y-69904000D01*
X217079500Y-69316500D02*
X216662000Y-69734000D01*
X216662000Y-69759000D02*
X216662000Y-69734000D01*
D35*
X216230000Y-55440000D02*
X216230000Y-56050000D01*
D33*
X215900000Y-69712000D02*
X216092000Y-69904000D01*
X215900000Y-69596000D02*
X215900000Y-69712000D01*
X217170000Y-69316500D02*
X216179500Y-69316500D01*
X216179500Y-69316500D02*
X215900000Y-69596000D01*
X216092000Y-70042000D02*
X216092000Y-70248999D01*
X215900000Y-69850000D02*
X216092000Y-70042000D01*
X215900000Y-70231000D02*
X215900000Y-70104000D01*
X216662000Y-69734000D02*
X216165000Y-70231000D01*
X216165000Y-70231000D02*
X215900000Y-70231000D01*
D36*
X215138000Y-67544000D02*
X215138000Y-66544000D01*
D33*
X215515000Y-66167000D02*
X215515000Y-66290000D01*
X215515000Y-66290000D02*
X215519000Y-66294000D01*
D34*
X215138000Y-67544000D02*
X215138000Y-66802000D01*
X215519000Y-66294000D02*
X214630000Y-66294000D01*
X215029999Y-66693999D02*
X214630000Y-66294000D01*
D36*
X214761000Y-66167000D02*
X214757000Y-66167000D01*
X214757000Y-66167000D02*
X214630000Y-66294000D01*
D34*
X215138000Y-66802000D02*
X215029999Y-66693999D01*
X214888000Y-66294000D02*
X214630000Y-66294000D01*
X215138000Y-66544000D02*
X214888000Y-66294000D01*
X215388000Y-66294000D02*
X215138000Y-66544000D01*
X215519000Y-66294000D02*
X215388000Y-66294000D01*
D33*
X217144500Y-69316500D02*
X217170000Y-69316500D01*
X215138000Y-67544000D02*
X215372000Y-67544000D01*
D34*
X215372000Y-67544000D02*
X217144500Y-69316500D01*
D33*
G04 #@! TO.N,/SDA*
X200472000Y-68731010D02*
X200406000Y-68797010D01*
X200472000Y-64600000D02*
X200472000Y-68731010D01*
X219583000Y-72898000D02*
X220852998Y-71628002D01*
X220852998Y-71628002D02*
X220852998Y-71374000D01*
X189992000Y-68268315D02*
X189992000Y-68834000D01*
X187586000Y-59630000D02*
X187811000Y-59630000D01*
X187811000Y-59630000D02*
X189874997Y-61693997D01*
X189874997Y-61693997D02*
X189874997Y-68151312D01*
X189874997Y-68151312D02*
X189992000Y-68268315D01*
X215570000Y-60376000D02*
X215900000Y-60706000D01*
X215570000Y-58250000D02*
X215570000Y-60376000D01*
G04 #@! TO.N,/SCL*
X202438000Y-64666000D02*
X202372000Y-64600000D01*
X202438000Y-68072000D02*
X202438000Y-64666000D01*
X214930000Y-58860000D02*
X214930000Y-60660000D01*
X214930000Y-60660000D02*
X214884000Y-60706000D01*
X190500000Y-58509000D02*
X190500000Y-67252315D01*
X190500000Y-67252315D02*
X190500000Y-67818000D01*
X187811000Y-55820000D02*
X190500000Y-58509000D01*
X187586000Y-55820000D02*
X187811000Y-55820000D01*
X214920000Y-58850000D02*
X214930000Y-58860000D01*
X214920000Y-58250000D02*
X214920000Y-58850000D01*
G04 #@! TO.N,/Alert2*
X187653000Y-63373000D02*
X187586000Y-63440000D01*
X189103000Y-63373000D02*
X187653000Y-63373000D01*
G04 #@! TO.N,/Alert1*
X187586000Y-62170000D02*
X188782000Y-62170000D01*
X188782000Y-62170000D02*
X188976000Y-61976000D01*
X199898000Y-59580213D02*
X199898000Y-58166000D01*
X199907010Y-61985010D02*
X199907010Y-59589223D01*
X199907010Y-59589223D02*
X199898000Y-59580213D01*
X200322000Y-62400000D02*
X199907010Y-61985010D01*
X200472000Y-62400000D02*
X200322000Y-62400000D01*
X199898000Y-58166000D02*
X198120000Y-58166000D01*
D34*
G04 #@! TO.N,Net-(Q1-Pad3)*
X194548000Y-65608500D02*
X193802000Y-66354500D01*
X194548000Y-63500000D02*
X194548000Y-65608500D01*
X193802000Y-66354500D02*
X197612000Y-66354500D01*
G04 #@! TO.N,Net-(Q2-Pad3)*
X198445210Y-61478710D02*
X197612000Y-60645500D01*
X198882000Y-61915500D02*
X198445210Y-61478710D01*
X198882000Y-62976000D02*
X198882000Y-61915500D01*
X198358000Y-63500000D02*
X198882000Y-62976000D01*
X197612000Y-60645500D02*
X193802000Y-60645500D01*
G04 #@! TO.N,Net-(Q3-Pad3)*
X205978000Y-65608500D02*
X205232000Y-66354500D01*
X205978000Y-63500000D02*
X205978000Y-65608500D01*
X205232000Y-66354500D02*
X209042000Y-66354500D01*
G04 #@! TO.N,Net-(Q4-Pad3)*
X209875210Y-61478710D02*
X209042000Y-60645500D01*
X210556990Y-62731010D02*
X210556990Y-62160490D01*
X210556990Y-62160490D02*
X209875210Y-61478710D01*
X209788000Y-63500000D02*
X210556990Y-62731010D01*
X209042000Y-60645500D02*
X205232000Y-60645500D01*
D33*
G04 #@! TO.N,+3V*
X169556000Y-54550000D02*
X167453000Y-54550000D01*
X167453000Y-54550000D02*
X167132000Y-54229000D01*
X167132000Y-54229000D02*
X167132000Y-55499000D01*
X165354000Y-54190000D02*
X167044000Y-54190000D01*
X167044000Y-54190000D02*
X167132000Y-54102000D01*
X169556000Y-54550000D02*
X171136000Y-54550000D01*
X171136000Y-54550000D02*
X171196000Y-54610000D01*
X202692000Y-60477500D02*
X202463500Y-60706000D01*
X202692000Y-58166000D02*
X202692000Y-60477500D01*
X202463500Y-62308500D02*
X202372000Y-62400000D01*
X202463500Y-60706000D02*
X202463500Y-62308500D01*
X214282500Y-55440000D02*
X213360000Y-56362500D01*
X214930000Y-55440000D02*
X214282500Y-55440000D01*
X214276000Y-69088000D02*
X214692000Y-69504000D01*
X213334500Y-56388000D02*
X213360000Y-56362500D01*
X212598000Y-56388000D02*
X213334500Y-56388000D01*
X211836000Y-58674000D02*
X211836000Y-57150000D01*
X211836000Y-57150000D02*
X212598000Y-56388000D01*
X214122000Y-69242000D02*
X214276000Y-69088000D01*
X220853000Y-73152000D02*
X220363999Y-73641001D01*
X220363999Y-73641001D02*
X219964000Y-74041000D01*
X227965000Y-73152000D02*
X220853000Y-73152000D01*
X161378000Y-54190000D02*
X161036000Y-53848000D01*
X165354000Y-54190000D02*
X161378000Y-54190000D01*
X211328000Y-58166000D02*
X211836000Y-58674000D01*
X202692000Y-58166000D02*
X211328000Y-58166000D01*
X214122000Y-69850000D02*
X214122000Y-69242000D01*
X214122000Y-69649000D02*
X214122000Y-69850000D01*
X214267000Y-69504000D02*
X214122000Y-69649000D01*
X214692000Y-69504000D02*
X214267000Y-69504000D01*
D34*
X213106000Y-66636000D02*
X213106000Y-68300500D01*
D33*
X211582000Y-65786000D02*
X212432000Y-66636000D01*
X211582000Y-59436000D02*
X211582000Y-65786000D01*
X211836000Y-58674000D02*
X211836000Y-59182000D01*
X211836000Y-59182000D02*
X211582000Y-59436000D01*
X214930000Y-56040000D02*
X214920000Y-56050000D01*
X214930000Y-55440000D02*
X214930000Y-56040000D01*
X214884000Y-69850000D02*
X214122000Y-69850000D01*
X214882999Y-69848999D02*
X214692000Y-69848999D01*
X214884000Y-69596000D02*
X214884000Y-69850000D01*
X214884000Y-69850000D02*
X214882999Y-69848999D01*
X214122000Y-70358000D02*
X214122000Y-69850000D01*
X214503000Y-70739000D02*
X214122000Y-70358000D01*
X214884000Y-70739000D02*
X214503000Y-70739000D01*
X214884000Y-71276000D02*
X214884000Y-70739000D01*
X219964000Y-74041000D02*
X217649000Y-74041000D01*
X217649000Y-74041000D02*
X214884000Y-71276000D01*
X213461500Y-68300500D02*
X213106000Y-68300500D01*
X213723000Y-68562000D02*
X213461500Y-68300500D01*
X213723000Y-68580000D02*
X213723000Y-68562000D01*
X214692000Y-69504000D02*
X214647000Y-69504000D01*
X214647000Y-69504000D02*
X213723000Y-68580000D01*
D35*
X213333000Y-68453000D02*
X214122000Y-69242000D01*
X213106000Y-68300500D02*
X213258500Y-68453000D01*
X213258500Y-68453000D02*
X213333000Y-68453000D01*
D33*
G04 #@! TO.N,Net-(U1-Pad3)*
X214576000Y-70304000D02*
X214566500Y-70294500D01*
X214867000Y-70304000D02*
X214576000Y-70304000D01*
G04 #@! TD*
D37*
G04 #@! TO.N,GND*
G36*
X164019000Y-51788691D02*
X164019000Y-52204250D01*
X164177750Y-52363000D01*
X165227000Y-52363000D01*
X165227000Y-52343000D01*
X165481000Y-52343000D01*
X165481000Y-52363000D01*
X166118250Y-52363000D01*
X166180750Y-52425500D01*
X167005000Y-52425500D01*
X167005000Y-52405500D01*
X167259000Y-52405500D01*
X167259000Y-52425500D01*
X168083250Y-52425500D01*
X168242000Y-52266750D01*
X168242000Y-51988691D01*
X168145327Y-51755302D01*
X168100025Y-51710000D01*
X169429000Y-51710000D01*
X169429000Y-52195000D01*
X169428998Y-52195000D01*
X169428998Y-52353748D01*
X169270250Y-52195000D01*
X168754691Y-52195000D01*
X168521302Y-52291673D01*
X168342673Y-52470301D01*
X168246000Y-52703690D01*
X168246000Y-52994250D01*
X168404750Y-53153000D01*
X169429000Y-53153000D01*
X169429000Y-53133000D01*
X169683000Y-53133000D01*
X169683000Y-53153000D01*
X170707250Y-53153000D01*
X170866000Y-52994250D01*
X170866000Y-52957000D01*
X186276000Y-52957000D01*
X186276000Y-52994250D01*
X186434750Y-53153000D01*
X187459000Y-53153000D01*
X187459000Y-53133000D01*
X187713000Y-53133000D01*
X187713000Y-53153000D01*
X188737250Y-53153000D01*
X188896000Y-52994250D01*
X188896000Y-52703690D01*
X188799327Y-52470301D01*
X188620698Y-52291673D01*
X188387309Y-52195000D01*
X187871750Y-52195000D01*
X187717000Y-52349750D01*
X187717000Y-51710000D01*
X210312827Y-51710000D01*
X210370512Y-52000000D01*
X210304248Y-52333130D01*
X210115545Y-52615545D01*
X209833130Y-52804248D01*
X209487491Y-52873000D01*
X191500000Y-52873000D01*
X191475224Y-52875440D01*
X191092541Y-52951560D01*
X191046760Y-52970523D01*
X190722336Y-53187296D01*
X190687296Y-53222336D01*
X190470523Y-53546760D01*
X190451560Y-53592541D01*
X190375440Y-53975224D01*
X190373000Y-54000000D01*
X190373000Y-56500000D01*
X190375440Y-56524776D01*
X190451560Y-56907459D01*
X190470523Y-56953240D01*
X190687296Y-57277664D01*
X190722336Y-57312704D01*
X191046760Y-57529477D01*
X191092541Y-57548440D01*
X191475224Y-57624560D01*
X191500000Y-57627000D01*
X197222985Y-57627000D01*
X197085000Y-57960126D01*
X197085000Y-58371874D01*
X197242569Y-58752280D01*
X197533720Y-59043431D01*
X197914126Y-59201000D01*
X198325874Y-59201000D01*
X198534391Y-59114630D01*
X198655321Y-59235560D01*
X196186999Y-59235560D01*
X195843564Y-59303873D01*
X195707000Y-59395123D01*
X195570436Y-59303873D01*
X195227001Y-59235560D01*
X192376999Y-59235560D01*
X192033564Y-59303873D01*
X191742414Y-59498414D01*
X191547873Y-59789564D01*
X191479560Y-60132999D01*
X191479560Y-61158001D01*
X191547873Y-61501436D01*
X191664485Y-61675958D01*
X191640191Y-61692191D01*
X191499843Y-61902235D01*
X191450560Y-62150000D01*
X191450560Y-62950000D01*
X191499843Y-63197765D01*
X191640191Y-63407809D01*
X191773694Y-63497013D01*
X191738302Y-63511673D01*
X191559673Y-63690301D01*
X191463000Y-63923690D01*
X191463000Y-64164250D01*
X191621750Y-64323000D01*
X192421000Y-64323000D01*
X192421000Y-64303000D01*
X192675000Y-64303000D01*
X192675000Y-64323000D01*
X192695000Y-64323000D01*
X192695000Y-64577000D01*
X192675000Y-64577000D01*
X192675000Y-64597000D01*
X192421000Y-64597000D01*
X192421000Y-64577000D01*
X191621750Y-64577000D01*
X191463000Y-64735750D01*
X191463000Y-64976310D01*
X191559673Y-65209699D01*
X191668303Y-65318328D01*
X191547873Y-65498564D01*
X191479560Y-65841999D01*
X191479560Y-66867001D01*
X191547873Y-67210436D01*
X191742414Y-67501586D01*
X192033564Y-67696127D01*
X192376999Y-67764440D01*
X195227001Y-67764440D01*
X195570436Y-67696127D01*
X195707000Y-67604877D01*
X195843564Y-67696127D01*
X196186999Y-67764440D01*
X199037001Y-67764440D01*
X199380436Y-67696127D01*
X199671586Y-67501586D01*
X199712001Y-67441101D01*
X199712001Y-68027298D01*
X199528569Y-68210730D01*
X199371000Y-68591136D01*
X199371000Y-69002884D01*
X199528569Y-69383290D01*
X199819720Y-69674441D01*
X200200126Y-69832010D01*
X200611874Y-69832010D01*
X200992280Y-69674441D01*
X201283431Y-69383290D01*
X201441000Y-69002884D01*
X201441000Y-68591136D01*
X201283431Y-68210730D01*
X201232000Y-68159299D01*
X201232000Y-65669250D01*
X201295000Y-65606250D01*
X201295000Y-65527659D01*
X201395157Y-65377765D01*
X201422000Y-65242815D01*
X201448843Y-65377765D01*
X201549000Y-65527659D01*
X201549000Y-65606250D01*
X201678001Y-65735251D01*
X201678000Y-67368289D01*
X201560569Y-67485720D01*
X201403000Y-67866126D01*
X201403000Y-68277874D01*
X201560569Y-68658280D01*
X201851720Y-68949431D01*
X202232126Y-69107000D01*
X202643874Y-69107000D01*
X203024280Y-68949431D01*
X203315431Y-68658280D01*
X203473000Y-68277874D01*
X203473000Y-67866126D01*
X203379248Y-67639789D01*
X203463564Y-67696127D01*
X203806999Y-67764440D01*
X206657001Y-67764440D01*
X207000436Y-67696127D01*
X207137000Y-67604877D01*
X207273564Y-67696127D01*
X207616999Y-67764440D01*
X210467001Y-67764440D01*
X210810436Y-67696127D01*
X211101586Y-67501586D01*
X211296127Y-67210436D01*
X211364440Y-66867001D01*
X211364440Y-66643241D01*
X211777520Y-67056322D01*
X211826873Y-67304436D01*
X211971000Y-67520136D01*
X211971000Y-68412283D01*
X211983560Y-68475426D01*
X211983560Y-68519250D01*
X212049495Y-68850727D01*
X212157943Y-69013031D01*
X212092673Y-69078302D01*
X211996000Y-69311691D01*
X211996000Y-69589750D01*
X212154750Y-69748500D01*
X212979000Y-69748500D01*
X212979000Y-69728500D01*
X213233000Y-69728500D01*
X213233000Y-69748500D01*
X213253000Y-69748500D01*
X213253000Y-70002500D01*
X213233000Y-70002500D01*
X213233000Y-70022500D01*
X212979000Y-70022500D01*
X212979000Y-70002500D01*
X212154750Y-70002500D01*
X211996000Y-70161250D01*
X211996000Y-70373000D01*
X192000000Y-70373000D01*
X191975224Y-70375440D01*
X191592541Y-70451560D01*
X191546760Y-70470523D01*
X191222336Y-70687296D01*
X191187296Y-70722336D01*
X190970523Y-71046760D01*
X190951560Y-71092541D01*
X190875440Y-71475224D01*
X190873000Y-71500000D01*
X190873000Y-73500000D01*
X190875440Y-73524776D01*
X190951560Y-73907459D01*
X190970523Y-73953240D01*
X191187296Y-74277664D01*
X191222336Y-74312704D01*
X191546760Y-74529477D01*
X191592541Y-74548440D01*
X191975224Y-74624560D01*
X192000000Y-74627000D01*
X214000000Y-74627000D01*
X214024776Y-74624560D01*
X214407459Y-74548440D01*
X214453240Y-74529477D01*
X214777664Y-74312704D01*
X214812704Y-74277664D01*
X215029477Y-73953240D01*
X215048440Y-73907459D01*
X215124560Y-73524776D01*
X215127000Y-73500000D01*
X215127000Y-72593801D01*
X217058673Y-74525476D01*
X217101071Y-74588929D01*
X217164524Y-74631327D01*
X217164526Y-74631329D01*
X217247154Y-74686539D01*
X217352463Y-74756904D01*
X217574148Y-74801000D01*
X217574152Y-74801000D01*
X217648999Y-74815888D01*
X217723846Y-74801000D01*
X219260289Y-74801000D01*
X219377720Y-74918431D01*
X219758126Y-75076000D01*
X220169874Y-75076000D01*
X220550280Y-74918431D01*
X220841431Y-74627280D01*
X220999000Y-74246874D01*
X220999000Y-74080801D01*
X221167802Y-73912000D01*
X227261289Y-73912000D01*
X227378720Y-74029431D01*
X227759126Y-74187000D01*
X228170874Y-74187000D01*
X228551280Y-74029431D01*
X228842431Y-73738280D01*
X229000000Y-73357874D01*
X229000000Y-72946126D01*
X228842431Y-72565720D01*
X228551280Y-72274569D01*
X228170874Y-72117000D01*
X227759126Y-72117000D01*
X227378720Y-72274569D01*
X227261289Y-72392000D01*
X221163803Y-72392000D01*
X221208979Y-72346824D01*
X221439278Y-72251431D01*
X221730429Y-71960280D01*
X221887998Y-71579874D01*
X221887998Y-71168126D01*
X221730429Y-70787720D01*
X221569709Y-70627000D01*
X231987491Y-70627000D01*
X232290000Y-70687173D01*
X232290000Y-76290000D01*
X189514239Y-76290000D01*
X189878086Y-75926153D01*
X190127000Y-75325222D01*
X190127000Y-74674778D01*
X189878086Y-74073847D01*
X189482000Y-73677761D01*
X189482000Y-73347711D01*
X189599431Y-73230280D01*
X189757000Y-72849874D01*
X189757000Y-72438126D01*
X189599431Y-72057720D01*
X189308280Y-71766569D01*
X188927874Y-71609000D01*
X188516126Y-71609000D01*
X188135720Y-71766569D01*
X187844569Y-72057720D01*
X187687000Y-72438126D01*
X187687000Y-72849874D01*
X187844569Y-73230280D01*
X187962000Y-73347711D01*
X187962000Y-73449822D01*
X187565847Y-73613914D01*
X187105914Y-74073847D01*
X186857000Y-74674778D01*
X186857000Y-75325222D01*
X187105914Y-75926153D01*
X187469761Y-76290000D01*
X181739545Y-76290000D01*
X182172625Y-76000625D01*
X182500839Y-75509418D01*
X182616092Y-74930000D01*
X182500839Y-74350582D01*
X182172625Y-73859375D01*
X181681418Y-73531161D01*
X181248256Y-73445000D01*
X180955744Y-73445000D01*
X180522582Y-73531161D01*
X180031375Y-73859375D01*
X179832000Y-74157761D01*
X179632625Y-73859375D01*
X179141418Y-73531161D01*
X178708256Y-73445000D01*
X178415744Y-73445000D01*
X177982582Y-73531161D01*
X177491375Y-73859375D01*
X177292000Y-74157761D01*
X177092625Y-73859375D01*
X176601418Y-73531161D01*
X176168256Y-73445000D01*
X175875744Y-73445000D01*
X175442582Y-73531161D01*
X174951375Y-73859375D01*
X174752000Y-74157761D01*
X174552625Y-73859375D01*
X174061418Y-73531161D01*
X173628256Y-73445000D01*
X173335744Y-73445000D01*
X172902582Y-73531161D01*
X172411375Y-73859375D01*
X172203822Y-74170000D01*
X169917914Y-74170000D01*
X169878086Y-74073847D01*
X169418153Y-73613914D01*
X168817222Y-73365000D01*
X168166778Y-73365000D01*
X167565847Y-73613914D01*
X167105914Y-74073847D01*
X166857000Y-74674778D01*
X166857000Y-75325222D01*
X167105914Y-75926153D01*
X167469761Y-76290000D01*
X155710000Y-76290000D01*
X155710000Y-75574532D01*
X157523073Y-75574532D01*
X157621736Y-75841387D01*
X158231461Y-76067908D01*
X158881460Y-76043856D01*
X159370264Y-75841387D01*
X159468927Y-75574532D01*
X158496000Y-74601605D01*
X157523073Y-75574532D01*
X155710000Y-75574532D01*
X155710000Y-74157461D01*
X156850092Y-74157461D01*
X156874144Y-74807460D01*
X157076613Y-75296264D01*
X157343468Y-75394927D01*
X158316395Y-74422000D01*
X158675605Y-74422000D01*
X159648532Y-75394927D01*
X159915387Y-75296264D01*
X160141908Y-74686539D01*
X160117856Y-74036540D01*
X159915387Y-73547736D01*
X159648532Y-73449073D01*
X158675605Y-74422000D01*
X158316395Y-74422000D01*
X157343468Y-73449073D01*
X157076613Y-73547736D01*
X156850092Y-74157461D01*
X155710000Y-74157461D01*
X155710000Y-73269468D01*
X157523073Y-73269468D01*
X158496000Y-74242395D01*
X159468927Y-73269468D01*
X159370264Y-73002613D01*
X158760539Y-72776092D01*
X158110540Y-72800144D01*
X157621736Y-73002613D01*
X157523073Y-73269468D01*
X155710000Y-73269468D01*
X155710000Y-53522778D01*
X159401000Y-53522778D01*
X159401000Y-54173222D01*
X159649914Y-54774153D01*
X160109847Y-55234086D01*
X160710778Y-55483000D01*
X161361222Y-55483000D01*
X161962153Y-55234086D01*
X162246239Y-54950000D01*
X164136054Y-54950000D01*
X164269414Y-55149586D01*
X164560564Y-55344127D01*
X164903999Y-55412440D01*
X165804001Y-55412440D01*
X166011672Y-55371132D01*
X166009560Y-55381750D01*
X166009560Y-55819250D01*
X166075495Y-56150727D01*
X166234036Y-56388000D01*
X166075495Y-56625273D01*
X166009560Y-56956750D01*
X166009560Y-57394250D01*
X166075495Y-57725727D01*
X166263261Y-58006739D01*
X166544273Y-58194505D01*
X166875750Y-58260440D01*
X167388250Y-58260440D01*
X167719727Y-58194505D01*
X168000739Y-58006739D01*
X168048259Y-57935620D01*
X168122500Y-57950388D01*
X168197347Y-57935500D01*
X168197352Y-57935500D01*
X168233560Y-57928298D01*
X168233560Y-58810000D01*
X168270358Y-58995000D01*
X168233560Y-59180000D01*
X168233560Y-60080000D01*
X168270358Y-60265000D01*
X168233560Y-60450000D01*
X168233560Y-61350000D01*
X168270358Y-61535000D01*
X168233560Y-61720000D01*
X168233560Y-62620000D01*
X168270358Y-62805000D01*
X168233560Y-62990000D01*
X168233560Y-63890000D01*
X168270358Y-64075000D01*
X168233560Y-64260000D01*
X168233560Y-65160000D01*
X168270358Y-65345000D01*
X168233560Y-65530000D01*
X168233560Y-66430000D01*
X168270358Y-66615000D01*
X168233560Y-66800000D01*
X168233560Y-67700000D01*
X168270358Y-67885000D01*
X168233560Y-68070000D01*
X168233560Y-68970000D01*
X168270358Y-69155000D01*
X168233560Y-69340000D01*
X168233560Y-70240000D01*
X168282843Y-70487765D01*
X168423191Y-70697809D01*
X168633235Y-70838157D01*
X168881000Y-70887440D01*
X170231000Y-70887440D01*
X170478765Y-70838157D01*
X170688809Y-70697809D01*
X170829157Y-70487765D01*
X170878440Y-70240000D01*
X170878440Y-69340000D01*
X170841642Y-69155000D01*
X170878440Y-68970000D01*
X170878440Y-68070000D01*
X170841642Y-67885000D01*
X170878440Y-67700000D01*
X170878440Y-66800000D01*
X170841642Y-66615000D01*
X170878440Y-66430000D01*
X170878440Y-65530000D01*
X170841642Y-65345000D01*
X170878440Y-65160000D01*
X170878440Y-64260000D01*
X170841642Y-64075000D01*
X170878440Y-63890000D01*
X170878440Y-62990000D01*
X170841642Y-62805000D01*
X170878440Y-62620000D01*
X170878440Y-61720000D01*
X170841642Y-61535000D01*
X170878440Y-61350000D01*
X170878440Y-60450000D01*
X170841642Y-60265000D01*
X170878440Y-60080000D01*
X170878440Y-59180000D01*
X170841642Y-58995000D01*
X170878440Y-58810000D01*
X170878440Y-57910000D01*
X170841642Y-57725000D01*
X170878440Y-57540000D01*
X170878440Y-57292241D01*
X172504999Y-58918801D01*
X172505000Y-68091151D01*
X172490111Y-68166003D01*
X172549096Y-68462540D01*
X172643301Y-68603527D01*
X172717071Y-68713932D01*
X172780527Y-68756332D01*
X173596666Y-69572472D01*
X173639067Y-69635929D01*
X173702523Y-69678329D01*
X173890458Y-69803904D01*
X173935730Y-69812909D01*
X174112144Y-69848000D01*
X174112148Y-69848000D01*
X174186996Y-69862888D01*
X174261844Y-69848000D01*
X181922289Y-69848000D01*
X182039720Y-69965431D01*
X182044860Y-69967560D01*
X181296000Y-69967560D01*
X181111000Y-70004358D01*
X180926000Y-69967560D01*
X180026000Y-69967560D01*
X179841000Y-70004358D01*
X179656000Y-69967560D01*
X178756000Y-69967560D01*
X178571000Y-70004358D01*
X178386000Y-69967560D01*
X177486000Y-69967560D01*
X177301000Y-70004358D01*
X177116000Y-69967560D01*
X176216000Y-69967560D01*
X176031000Y-70004358D01*
X175846000Y-69967560D01*
X174946000Y-69967560D01*
X174761000Y-70004358D01*
X174576000Y-69967560D01*
X173676000Y-69967560D01*
X173491000Y-70004358D01*
X173306000Y-69967560D01*
X172406000Y-69967560D01*
X172158235Y-70016843D01*
X171948191Y-70157191D01*
X171807843Y-70367235D01*
X171758560Y-70615000D01*
X171758560Y-71965000D01*
X171807843Y-72212765D01*
X171948191Y-72422809D01*
X172158235Y-72563157D01*
X172406000Y-72612440D01*
X173306000Y-72612440D01*
X173491000Y-72575642D01*
X173676000Y-72612440D01*
X174576000Y-72612440D01*
X174761000Y-72575642D01*
X174946000Y-72612440D01*
X175846000Y-72612440D01*
X176031000Y-72575642D01*
X176216000Y-72612440D01*
X177116000Y-72612440D01*
X177301000Y-72575642D01*
X177486000Y-72612440D01*
X178386000Y-72612440D01*
X178571000Y-72575642D01*
X178756000Y-72612440D01*
X179656000Y-72612440D01*
X179841000Y-72575642D01*
X180026000Y-72612440D01*
X180926000Y-72612440D01*
X181111000Y-72575642D01*
X181296000Y-72612440D01*
X182196000Y-72612440D01*
X182381000Y-72575642D01*
X182566000Y-72612440D01*
X183466000Y-72612440D01*
X183651000Y-72575642D01*
X183836000Y-72612440D01*
X184736000Y-72612440D01*
X184983765Y-72563157D01*
X185193809Y-72422809D01*
X185334157Y-72212765D01*
X185383440Y-71965000D01*
X185383440Y-70615000D01*
X185334157Y-70367235D01*
X185193809Y-70157191D01*
X184983765Y-70016843D01*
X184736000Y-69967560D01*
X183836000Y-69967560D01*
X183651000Y-70004358D01*
X183466000Y-69967560D01*
X183207140Y-69967560D01*
X183212280Y-69965431D01*
X183503431Y-69674280D01*
X183661000Y-69293874D01*
X183661000Y-68882126D01*
X183535027Y-68578000D01*
X184343199Y-68578000D01*
X186039671Y-70274473D01*
X186082071Y-70337929D01*
X186318107Y-70495644D01*
X186453191Y-70697809D01*
X186663235Y-70838157D01*
X186911000Y-70887440D01*
X188261000Y-70887440D01*
X188508765Y-70838157D01*
X188718809Y-70697809D01*
X188859157Y-70487765D01*
X188908440Y-70240000D01*
X188908440Y-69615000D01*
X189181880Y-69615000D01*
X189271972Y-69577683D01*
X189405720Y-69711431D01*
X189786126Y-69869000D01*
X190197874Y-69869000D01*
X190578280Y-69711431D01*
X190869431Y-69420280D01*
X191027000Y-69039874D01*
X191027000Y-68719986D01*
X191086280Y-68695431D01*
X191377431Y-68404280D01*
X191535000Y-68023874D01*
X191535000Y-67612126D01*
X191377431Y-67231720D01*
X191260000Y-67114289D01*
X191260000Y-58583846D01*
X191274888Y-58508999D01*
X191260000Y-58434152D01*
X191260000Y-58434148D01*
X191215904Y-58212463D01*
X191047929Y-57961071D01*
X190984473Y-57918671D01*
X188908440Y-55842639D01*
X188908440Y-55370000D01*
X188871642Y-55185000D01*
X188908440Y-55000000D01*
X188908440Y-54100000D01*
X188871657Y-53915079D01*
X188896000Y-53856310D01*
X188896000Y-53565750D01*
X188737250Y-53407000D01*
X187713000Y-53407000D01*
X187713000Y-53427000D01*
X187459000Y-53427000D01*
X187459000Y-53407000D01*
X186434750Y-53407000D01*
X186276000Y-53565750D01*
X186276000Y-53856310D01*
X186300343Y-53915079D01*
X186263560Y-54100000D01*
X186263560Y-55000000D01*
X186300358Y-55185000D01*
X186263560Y-55370000D01*
X186263560Y-56270000D01*
X186275495Y-56330000D01*
X185875857Y-56330000D01*
X185801010Y-56315112D01*
X185726163Y-56330000D01*
X185726158Y-56330000D01*
X185504473Y-56374096D01*
X185253081Y-56542071D01*
X185210681Y-56605528D01*
X184872199Y-56944010D01*
X184706126Y-56944010D01*
X184325720Y-57101579D01*
X184034569Y-57392730D01*
X184009961Y-57452139D01*
X183847874Y-57385000D01*
X183436126Y-57385000D01*
X183055720Y-57542569D01*
X182764569Y-57833720D01*
X182607000Y-58214126D01*
X182607000Y-58625874D01*
X182764569Y-59006280D01*
X183055720Y-59297431D01*
X183436126Y-59455000D01*
X183602199Y-59455000D01*
X183691669Y-59544470D01*
X183734071Y-59607929D01*
X183985463Y-59775904D01*
X184207148Y-59820000D01*
X184207152Y-59820000D01*
X184282000Y-59834888D01*
X184356848Y-59820000D01*
X186263560Y-59820000D01*
X186263560Y-60080000D01*
X186300358Y-60265000D01*
X186263560Y-60450000D01*
X186263560Y-61350000D01*
X186300358Y-61535000D01*
X186263560Y-61720000D01*
X186263560Y-62620000D01*
X186300358Y-62805000D01*
X186263560Y-62990000D01*
X186263560Y-63890000D01*
X186300358Y-64075000D01*
X186263560Y-64260000D01*
X186263560Y-65160000D01*
X186300358Y-65345000D01*
X186263560Y-65530000D01*
X186263560Y-66430000D01*
X186300358Y-66615000D01*
X186263560Y-66800000D01*
X186263560Y-67700000D01*
X186300358Y-67885000D01*
X186263560Y-68070000D01*
X186263560Y-68348758D01*
X185248331Y-67333530D01*
X185205929Y-67270071D01*
X184954537Y-67102096D01*
X184732852Y-67058000D01*
X184732847Y-67058000D01*
X184658000Y-67043112D01*
X184583153Y-67058000D01*
X175709711Y-67058000D01*
X175592280Y-66940569D01*
X175211874Y-66783000D01*
X174800126Y-66783000D01*
X174419720Y-66940569D01*
X174128569Y-67231720D01*
X174024999Y-67481761D01*
X174024999Y-61275750D01*
X175221000Y-61275750D01*
X175221000Y-64116310D01*
X175317673Y-64349699D01*
X175496302Y-64528327D01*
X175729691Y-64625000D01*
X178570250Y-64625000D01*
X178729000Y-64466250D01*
X178729000Y-61117000D01*
X178983000Y-61117000D01*
X178983000Y-64466250D01*
X179141750Y-64625000D01*
X181982309Y-64625000D01*
X182215698Y-64528327D01*
X182394327Y-64349699D01*
X182491000Y-64116310D01*
X182491000Y-61275750D01*
X182332250Y-61117000D01*
X178983000Y-61117000D01*
X178729000Y-61117000D01*
X175379750Y-61117000D01*
X175221000Y-61275750D01*
X174024999Y-61275750D01*
X174024999Y-58678845D01*
X174039887Y-58603998D01*
X174024999Y-58529151D01*
X174024999Y-58529147D01*
X173980903Y-58307462D01*
X173812928Y-58056070D01*
X173749472Y-58013670D01*
X173599492Y-57863690D01*
X175221000Y-57863690D01*
X175221000Y-60704250D01*
X175379750Y-60863000D01*
X178729000Y-60863000D01*
X178729000Y-57513750D01*
X178983000Y-57513750D01*
X178983000Y-60863000D01*
X182332250Y-60863000D01*
X182491000Y-60704250D01*
X182491000Y-57863690D01*
X182394327Y-57630301D01*
X182215698Y-57451673D01*
X181982309Y-57355000D01*
X179141750Y-57355000D01*
X178983000Y-57513750D01*
X178729000Y-57513750D01*
X178570250Y-57355000D01*
X175729691Y-57355000D01*
X175496302Y-57451673D01*
X175317673Y-57630301D01*
X175221000Y-57863690D01*
X173599492Y-57863690D01*
X171380801Y-55645000D01*
X171401874Y-55645000D01*
X171782280Y-55487431D01*
X172073431Y-55196280D01*
X172231000Y-54815874D01*
X172231000Y-54404126D01*
X172073431Y-54023720D01*
X171782280Y-53732569D01*
X171401874Y-53575000D01*
X170990126Y-53575000D01*
X170866000Y-53626415D01*
X170866000Y-53565750D01*
X170707250Y-53407000D01*
X169683000Y-53407000D01*
X169683000Y-53427000D01*
X169429000Y-53427000D01*
X169429000Y-53407000D01*
X168404750Y-53407000D01*
X168246000Y-53565750D01*
X168246000Y-53790000D01*
X168230819Y-53790000D01*
X168188505Y-53577273D01*
X168080057Y-53414969D01*
X168145327Y-53349698D01*
X168242000Y-53116309D01*
X168242000Y-52838250D01*
X168083250Y-52679500D01*
X167259000Y-52679500D01*
X167259000Y-52699500D01*
X167005000Y-52699500D01*
X167005000Y-52679500D01*
X166592750Y-52679500D01*
X166530250Y-52617000D01*
X165481000Y-52617000D01*
X165481000Y-52637000D01*
X165227000Y-52637000D01*
X165227000Y-52617000D01*
X164177750Y-52617000D01*
X164019000Y-52775750D01*
X164019000Y-53191309D01*
X164115673Y-53424698D01*
X164120975Y-53430000D01*
X162632570Y-53430000D01*
X162422086Y-52921847D01*
X161962153Y-52461914D01*
X161361222Y-52213000D01*
X160710778Y-52213000D01*
X160109847Y-52461914D01*
X159649914Y-52921847D01*
X159401000Y-53522778D01*
X155710000Y-53522778D01*
X155710000Y-51710000D01*
X164051595Y-51710000D01*
X164019000Y-51788691D01*
X164019000Y-51788691D01*
G37*
X164019000Y-51788691D02*
X164019000Y-52204250D01*
X164177750Y-52363000D01*
X165227000Y-52363000D01*
X165227000Y-52343000D01*
X165481000Y-52343000D01*
X165481000Y-52363000D01*
X166118250Y-52363000D01*
X166180750Y-52425500D01*
X167005000Y-52425500D01*
X167005000Y-52405500D01*
X167259000Y-52405500D01*
X167259000Y-52425500D01*
X168083250Y-52425500D01*
X168242000Y-52266750D01*
X168242000Y-51988691D01*
X168145327Y-51755302D01*
X168100025Y-51710000D01*
X169429000Y-51710000D01*
X169429000Y-52195000D01*
X169428998Y-52195000D01*
X169428998Y-52353748D01*
X169270250Y-52195000D01*
X168754691Y-52195000D01*
X168521302Y-52291673D01*
X168342673Y-52470301D01*
X168246000Y-52703690D01*
X168246000Y-52994250D01*
X168404750Y-53153000D01*
X169429000Y-53153000D01*
X169429000Y-53133000D01*
X169683000Y-53133000D01*
X169683000Y-53153000D01*
X170707250Y-53153000D01*
X170866000Y-52994250D01*
X170866000Y-52957000D01*
X186276000Y-52957000D01*
X186276000Y-52994250D01*
X186434750Y-53153000D01*
X187459000Y-53153000D01*
X187459000Y-53133000D01*
X187713000Y-53133000D01*
X187713000Y-53153000D01*
X188737250Y-53153000D01*
X188896000Y-52994250D01*
X188896000Y-52703690D01*
X188799327Y-52470301D01*
X188620698Y-52291673D01*
X188387309Y-52195000D01*
X187871750Y-52195000D01*
X187717000Y-52349750D01*
X187717000Y-51710000D01*
X210312827Y-51710000D01*
X210370512Y-52000000D01*
X210304248Y-52333130D01*
X210115545Y-52615545D01*
X209833130Y-52804248D01*
X209487491Y-52873000D01*
X191500000Y-52873000D01*
X191475224Y-52875440D01*
X191092541Y-52951560D01*
X191046760Y-52970523D01*
X190722336Y-53187296D01*
X190687296Y-53222336D01*
X190470523Y-53546760D01*
X190451560Y-53592541D01*
X190375440Y-53975224D01*
X190373000Y-54000000D01*
X190373000Y-56500000D01*
X190375440Y-56524776D01*
X190451560Y-56907459D01*
X190470523Y-56953240D01*
X190687296Y-57277664D01*
X190722336Y-57312704D01*
X191046760Y-57529477D01*
X191092541Y-57548440D01*
X191475224Y-57624560D01*
X191500000Y-57627000D01*
X197222985Y-57627000D01*
X197085000Y-57960126D01*
X197085000Y-58371874D01*
X197242569Y-58752280D01*
X197533720Y-59043431D01*
X197914126Y-59201000D01*
X198325874Y-59201000D01*
X198534391Y-59114630D01*
X198655321Y-59235560D01*
X196186999Y-59235560D01*
X195843564Y-59303873D01*
X195707000Y-59395123D01*
X195570436Y-59303873D01*
X195227001Y-59235560D01*
X192376999Y-59235560D01*
X192033564Y-59303873D01*
X191742414Y-59498414D01*
X191547873Y-59789564D01*
X191479560Y-60132999D01*
X191479560Y-61158001D01*
X191547873Y-61501436D01*
X191664485Y-61675958D01*
X191640191Y-61692191D01*
X191499843Y-61902235D01*
X191450560Y-62150000D01*
X191450560Y-62950000D01*
X191499843Y-63197765D01*
X191640191Y-63407809D01*
X191773694Y-63497013D01*
X191738302Y-63511673D01*
X191559673Y-63690301D01*
X191463000Y-63923690D01*
X191463000Y-64164250D01*
X191621750Y-64323000D01*
X192421000Y-64323000D01*
X192421000Y-64303000D01*
X192675000Y-64303000D01*
X192675000Y-64323000D01*
X192695000Y-64323000D01*
X192695000Y-64577000D01*
X192675000Y-64577000D01*
X192675000Y-64597000D01*
X192421000Y-64597000D01*
X192421000Y-64577000D01*
X191621750Y-64577000D01*
X191463000Y-64735750D01*
X191463000Y-64976310D01*
X191559673Y-65209699D01*
X191668303Y-65318328D01*
X191547873Y-65498564D01*
X191479560Y-65841999D01*
X191479560Y-66867001D01*
X191547873Y-67210436D01*
X191742414Y-67501586D01*
X192033564Y-67696127D01*
X192376999Y-67764440D01*
X195227001Y-67764440D01*
X195570436Y-67696127D01*
X195707000Y-67604877D01*
X195843564Y-67696127D01*
X196186999Y-67764440D01*
X199037001Y-67764440D01*
X199380436Y-67696127D01*
X199671586Y-67501586D01*
X199712001Y-67441101D01*
X199712001Y-68027298D01*
X199528569Y-68210730D01*
X199371000Y-68591136D01*
X199371000Y-69002884D01*
X199528569Y-69383290D01*
X199819720Y-69674441D01*
X200200126Y-69832010D01*
X200611874Y-69832010D01*
X200992280Y-69674441D01*
X201283431Y-69383290D01*
X201441000Y-69002884D01*
X201441000Y-68591136D01*
X201283431Y-68210730D01*
X201232000Y-68159299D01*
X201232000Y-65669250D01*
X201295000Y-65606250D01*
X201295000Y-65527659D01*
X201395157Y-65377765D01*
X201422000Y-65242815D01*
X201448843Y-65377765D01*
X201549000Y-65527659D01*
X201549000Y-65606250D01*
X201678001Y-65735251D01*
X201678000Y-67368289D01*
X201560569Y-67485720D01*
X201403000Y-67866126D01*
X201403000Y-68277874D01*
X201560569Y-68658280D01*
X201851720Y-68949431D01*
X202232126Y-69107000D01*
X202643874Y-69107000D01*
X203024280Y-68949431D01*
X203315431Y-68658280D01*
X203473000Y-68277874D01*
X203473000Y-67866126D01*
X203379248Y-67639789D01*
X203463564Y-67696127D01*
X203806999Y-67764440D01*
X206657001Y-67764440D01*
X207000436Y-67696127D01*
X207137000Y-67604877D01*
X207273564Y-67696127D01*
X207616999Y-67764440D01*
X210467001Y-67764440D01*
X210810436Y-67696127D01*
X211101586Y-67501586D01*
X211296127Y-67210436D01*
X211364440Y-66867001D01*
X211364440Y-66643241D01*
X211777520Y-67056322D01*
X211826873Y-67304436D01*
X211971000Y-67520136D01*
X211971000Y-68412283D01*
X211983560Y-68475426D01*
X211983560Y-68519250D01*
X212049495Y-68850727D01*
X212157943Y-69013031D01*
X212092673Y-69078302D01*
X211996000Y-69311691D01*
X211996000Y-69589750D01*
X212154750Y-69748500D01*
X212979000Y-69748500D01*
X212979000Y-69728500D01*
X213233000Y-69728500D01*
X213233000Y-69748500D01*
X213253000Y-69748500D01*
X213253000Y-70002500D01*
X213233000Y-70002500D01*
X213233000Y-70022500D01*
X212979000Y-70022500D01*
X212979000Y-70002500D01*
X212154750Y-70002500D01*
X211996000Y-70161250D01*
X211996000Y-70373000D01*
X192000000Y-70373000D01*
X191975224Y-70375440D01*
X191592541Y-70451560D01*
X191546760Y-70470523D01*
X191222336Y-70687296D01*
X191187296Y-70722336D01*
X190970523Y-71046760D01*
X190951560Y-71092541D01*
X190875440Y-71475224D01*
X190873000Y-71500000D01*
X190873000Y-73500000D01*
X190875440Y-73524776D01*
X190951560Y-73907459D01*
X190970523Y-73953240D01*
X191187296Y-74277664D01*
X191222336Y-74312704D01*
X191546760Y-74529477D01*
X191592541Y-74548440D01*
X191975224Y-74624560D01*
X192000000Y-74627000D01*
X214000000Y-74627000D01*
X214024776Y-74624560D01*
X214407459Y-74548440D01*
X214453240Y-74529477D01*
X214777664Y-74312704D01*
X214812704Y-74277664D01*
X215029477Y-73953240D01*
X215048440Y-73907459D01*
X215124560Y-73524776D01*
X215127000Y-73500000D01*
X215127000Y-72593801D01*
X217058673Y-74525476D01*
X217101071Y-74588929D01*
X217164524Y-74631327D01*
X217164526Y-74631329D01*
X217247154Y-74686539D01*
X217352463Y-74756904D01*
X217574148Y-74801000D01*
X217574152Y-74801000D01*
X217648999Y-74815888D01*
X217723846Y-74801000D01*
X219260289Y-74801000D01*
X219377720Y-74918431D01*
X219758126Y-75076000D01*
X220169874Y-75076000D01*
X220550280Y-74918431D01*
X220841431Y-74627280D01*
X220999000Y-74246874D01*
X220999000Y-74080801D01*
X221167802Y-73912000D01*
X227261289Y-73912000D01*
X227378720Y-74029431D01*
X227759126Y-74187000D01*
X228170874Y-74187000D01*
X228551280Y-74029431D01*
X228842431Y-73738280D01*
X229000000Y-73357874D01*
X229000000Y-72946126D01*
X228842431Y-72565720D01*
X228551280Y-72274569D01*
X228170874Y-72117000D01*
X227759126Y-72117000D01*
X227378720Y-72274569D01*
X227261289Y-72392000D01*
X221163803Y-72392000D01*
X221208979Y-72346824D01*
X221439278Y-72251431D01*
X221730429Y-71960280D01*
X221887998Y-71579874D01*
X221887998Y-71168126D01*
X221730429Y-70787720D01*
X221569709Y-70627000D01*
X231987491Y-70627000D01*
X232290000Y-70687173D01*
X232290000Y-76290000D01*
X189514239Y-76290000D01*
X189878086Y-75926153D01*
X190127000Y-75325222D01*
X190127000Y-74674778D01*
X189878086Y-74073847D01*
X189482000Y-73677761D01*
X189482000Y-73347711D01*
X189599431Y-73230280D01*
X189757000Y-72849874D01*
X189757000Y-72438126D01*
X189599431Y-72057720D01*
X189308280Y-71766569D01*
X188927874Y-71609000D01*
X188516126Y-71609000D01*
X188135720Y-71766569D01*
X187844569Y-72057720D01*
X187687000Y-72438126D01*
X187687000Y-72849874D01*
X187844569Y-73230280D01*
X187962000Y-73347711D01*
X187962000Y-73449822D01*
X187565847Y-73613914D01*
X187105914Y-74073847D01*
X186857000Y-74674778D01*
X186857000Y-75325222D01*
X187105914Y-75926153D01*
X187469761Y-76290000D01*
X181739545Y-76290000D01*
X182172625Y-76000625D01*
X182500839Y-75509418D01*
X182616092Y-74930000D01*
X182500839Y-74350582D01*
X182172625Y-73859375D01*
X181681418Y-73531161D01*
X181248256Y-73445000D01*
X180955744Y-73445000D01*
X180522582Y-73531161D01*
X180031375Y-73859375D01*
X179832000Y-74157761D01*
X179632625Y-73859375D01*
X179141418Y-73531161D01*
X178708256Y-73445000D01*
X178415744Y-73445000D01*
X177982582Y-73531161D01*
X177491375Y-73859375D01*
X177292000Y-74157761D01*
X177092625Y-73859375D01*
X176601418Y-73531161D01*
X176168256Y-73445000D01*
X175875744Y-73445000D01*
X175442582Y-73531161D01*
X174951375Y-73859375D01*
X174752000Y-74157761D01*
X174552625Y-73859375D01*
X174061418Y-73531161D01*
X173628256Y-73445000D01*
X173335744Y-73445000D01*
X172902582Y-73531161D01*
X172411375Y-73859375D01*
X172203822Y-74170000D01*
X169917914Y-74170000D01*
X169878086Y-74073847D01*
X169418153Y-73613914D01*
X168817222Y-73365000D01*
X168166778Y-73365000D01*
X167565847Y-73613914D01*
X167105914Y-74073847D01*
X166857000Y-74674778D01*
X166857000Y-75325222D01*
X167105914Y-75926153D01*
X167469761Y-76290000D01*
X155710000Y-76290000D01*
X155710000Y-75574532D01*
X157523073Y-75574532D01*
X157621736Y-75841387D01*
X158231461Y-76067908D01*
X158881460Y-76043856D01*
X159370264Y-75841387D01*
X159468927Y-75574532D01*
X158496000Y-74601605D01*
X157523073Y-75574532D01*
X155710000Y-75574532D01*
X155710000Y-74157461D01*
X156850092Y-74157461D01*
X156874144Y-74807460D01*
X157076613Y-75296264D01*
X157343468Y-75394927D01*
X158316395Y-74422000D01*
X158675605Y-74422000D01*
X159648532Y-75394927D01*
X159915387Y-75296264D01*
X160141908Y-74686539D01*
X160117856Y-74036540D01*
X159915387Y-73547736D01*
X159648532Y-73449073D01*
X158675605Y-74422000D01*
X158316395Y-74422000D01*
X157343468Y-73449073D01*
X157076613Y-73547736D01*
X156850092Y-74157461D01*
X155710000Y-74157461D01*
X155710000Y-73269468D01*
X157523073Y-73269468D01*
X158496000Y-74242395D01*
X159468927Y-73269468D01*
X159370264Y-73002613D01*
X158760539Y-72776092D01*
X158110540Y-72800144D01*
X157621736Y-73002613D01*
X157523073Y-73269468D01*
X155710000Y-73269468D01*
X155710000Y-53522778D01*
X159401000Y-53522778D01*
X159401000Y-54173222D01*
X159649914Y-54774153D01*
X160109847Y-55234086D01*
X160710778Y-55483000D01*
X161361222Y-55483000D01*
X161962153Y-55234086D01*
X162246239Y-54950000D01*
X164136054Y-54950000D01*
X164269414Y-55149586D01*
X164560564Y-55344127D01*
X164903999Y-55412440D01*
X165804001Y-55412440D01*
X166011672Y-55371132D01*
X166009560Y-55381750D01*
X166009560Y-55819250D01*
X166075495Y-56150727D01*
X166234036Y-56388000D01*
X166075495Y-56625273D01*
X166009560Y-56956750D01*
X166009560Y-57394250D01*
X166075495Y-57725727D01*
X166263261Y-58006739D01*
X166544273Y-58194505D01*
X166875750Y-58260440D01*
X167388250Y-58260440D01*
X167719727Y-58194505D01*
X168000739Y-58006739D01*
X168048259Y-57935620D01*
X168122500Y-57950388D01*
X168197347Y-57935500D01*
X168197352Y-57935500D01*
X168233560Y-57928298D01*
X168233560Y-58810000D01*
X168270358Y-58995000D01*
X168233560Y-59180000D01*
X168233560Y-60080000D01*
X168270358Y-60265000D01*
X168233560Y-60450000D01*
X168233560Y-61350000D01*
X168270358Y-61535000D01*
X168233560Y-61720000D01*
X168233560Y-62620000D01*
X168270358Y-62805000D01*
X168233560Y-62990000D01*
X168233560Y-63890000D01*
X168270358Y-64075000D01*
X168233560Y-64260000D01*
X168233560Y-65160000D01*
X168270358Y-65345000D01*
X168233560Y-65530000D01*
X168233560Y-66430000D01*
X168270358Y-66615000D01*
X168233560Y-66800000D01*
X168233560Y-67700000D01*
X168270358Y-67885000D01*
X168233560Y-68070000D01*
X168233560Y-68970000D01*
X168270358Y-69155000D01*
X168233560Y-69340000D01*
X168233560Y-70240000D01*
X168282843Y-70487765D01*
X168423191Y-70697809D01*
X168633235Y-70838157D01*
X168881000Y-70887440D01*
X170231000Y-70887440D01*
X170478765Y-70838157D01*
X170688809Y-70697809D01*
X170829157Y-70487765D01*
X170878440Y-70240000D01*
X170878440Y-69340000D01*
X170841642Y-69155000D01*
X170878440Y-68970000D01*
X170878440Y-68070000D01*
X170841642Y-67885000D01*
X170878440Y-67700000D01*
X170878440Y-66800000D01*
X170841642Y-66615000D01*
X170878440Y-66430000D01*
X170878440Y-65530000D01*
X170841642Y-65345000D01*
X170878440Y-65160000D01*
X170878440Y-64260000D01*
X170841642Y-64075000D01*
X170878440Y-63890000D01*
X170878440Y-62990000D01*
X170841642Y-62805000D01*
X170878440Y-62620000D01*
X170878440Y-61720000D01*
X170841642Y-61535000D01*
X170878440Y-61350000D01*
X170878440Y-60450000D01*
X170841642Y-60265000D01*
X170878440Y-60080000D01*
X170878440Y-59180000D01*
X170841642Y-58995000D01*
X170878440Y-58810000D01*
X170878440Y-57910000D01*
X170841642Y-57725000D01*
X170878440Y-57540000D01*
X170878440Y-57292241D01*
X172504999Y-58918801D01*
X172505000Y-68091151D01*
X172490111Y-68166003D01*
X172549096Y-68462540D01*
X172643301Y-68603527D01*
X172717071Y-68713932D01*
X172780527Y-68756332D01*
X173596666Y-69572472D01*
X173639067Y-69635929D01*
X173702523Y-69678329D01*
X173890458Y-69803904D01*
X173935730Y-69812909D01*
X174112144Y-69848000D01*
X174112148Y-69848000D01*
X174186996Y-69862888D01*
X174261844Y-69848000D01*
X181922289Y-69848000D01*
X182039720Y-69965431D01*
X182044860Y-69967560D01*
X181296000Y-69967560D01*
X181111000Y-70004358D01*
X180926000Y-69967560D01*
X180026000Y-69967560D01*
X179841000Y-70004358D01*
X179656000Y-69967560D01*
X178756000Y-69967560D01*
X178571000Y-70004358D01*
X178386000Y-69967560D01*
X177486000Y-69967560D01*
X177301000Y-70004358D01*
X177116000Y-69967560D01*
X176216000Y-69967560D01*
X176031000Y-70004358D01*
X175846000Y-69967560D01*
X174946000Y-69967560D01*
X174761000Y-70004358D01*
X174576000Y-69967560D01*
X173676000Y-69967560D01*
X173491000Y-70004358D01*
X173306000Y-69967560D01*
X172406000Y-69967560D01*
X172158235Y-70016843D01*
X171948191Y-70157191D01*
X171807843Y-70367235D01*
X171758560Y-70615000D01*
X171758560Y-71965000D01*
X171807843Y-72212765D01*
X171948191Y-72422809D01*
X172158235Y-72563157D01*
X172406000Y-72612440D01*
X173306000Y-72612440D01*
X173491000Y-72575642D01*
X173676000Y-72612440D01*
X174576000Y-72612440D01*
X174761000Y-72575642D01*
X174946000Y-72612440D01*
X175846000Y-72612440D01*
X176031000Y-72575642D01*
X176216000Y-72612440D01*
X177116000Y-72612440D01*
X177301000Y-72575642D01*
X177486000Y-72612440D01*
X178386000Y-72612440D01*
X178571000Y-72575642D01*
X178756000Y-72612440D01*
X179656000Y-72612440D01*
X179841000Y-72575642D01*
X180026000Y-72612440D01*
X180926000Y-72612440D01*
X181111000Y-72575642D01*
X181296000Y-72612440D01*
X182196000Y-72612440D01*
X182381000Y-72575642D01*
X182566000Y-72612440D01*
X183466000Y-72612440D01*
X183651000Y-72575642D01*
X183836000Y-72612440D01*
X184736000Y-72612440D01*
X184983765Y-72563157D01*
X185193809Y-72422809D01*
X185334157Y-72212765D01*
X185383440Y-71965000D01*
X185383440Y-70615000D01*
X185334157Y-70367235D01*
X185193809Y-70157191D01*
X184983765Y-70016843D01*
X184736000Y-69967560D01*
X183836000Y-69967560D01*
X183651000Y-70004358D01*
X183466000Y-69967560D01*
X183207140Y-69967560D01*
X183212280Y-69965431D01*
X183503431Y-69674280D01*
X183661000Y-69293874D01*
X183661000Y-68882126D01*
X183535027Y-68578000D01*
X184343199Y-68578000D01*
X186039671Y-70274473D01*
X186082071Y-70337929D01*
X186318107Y-70495644D01*
X186453191Y-70697809D01*
X186663235Y-70838157D01*
X186911000Y-70887440D01*
X188261000Y-70887440D01*
X188508765Y-70838157D01*
X188718809Y-70697809D01*
X188859157Y-70487765D01*
X188908440Y-70240000D01*
X188908440Y-69615000D01*
X189181880Y-69615000D01*
X189271972Y-69577683D01*
X189405720Y-69711431D01*
X189786126Y-69869000D01*
X190197874Y-69869000D01*
X190578280Y-69711431D01*
X190869431Y-69420280D01*
X191027000Y-69039874D01*
X191027000Y-68719986D01*
X191086280Y-68695431D01*
X191377431Y-68404280D01*
X191535000Y-68023874D01*
X191535000Y-67612126D01*
X191377431Y-67231720D01*
X191260000Y-67114289D01*
X191260000Y-58583846D01*
X191274888Y-58508999D01*
X191260000Y-58434152D01*
X191260000Y-58434148D01*
X191215904Y-58212463D01*
X191047929Y-57961071D01*
X190984473Y-57918671D01*
X188908440Y-55842639D01*
X188908440Y-55370000D01*
X188871642Y-55185000D01*
X188908440Y-55000000D01*
X188908440Y-54100000D01*
X188871657Y-53915079D01*
X188896000Y-53856310D01*
X188896000Y-53565750D01*
X188737250Y-53407000D01*
X187713000Y-53407000D01*
X187713000Y-53427000D01*
X187459000Y-53427000D01*
X187459000Y-53407000D01*
X186434750Y-53407000D01*
X186276000Y-53565750D01*
X186276000Y-53856310D01*
X186300343Y-53915079D01*
X186263560Y-54100000D01*
X186263560Y-55000000D01*
X186300358Y-55185000D01*
X186263560Y-55370000D01*
X186263560Y-56270000D01*
X186275495Y-56330000D01*
X185875857Y-56330000D01*
X185801010Y-56315112D01*
X185726163Y-56330000D01*
X185726158Y-56330000D01*
X185504473Y-56374096D01*
X185253081Y-56542071D01*
X185210681Y-56605528D01*
X184872199Y-56944010D01*
X184706126Y-56944010D01*
X184325720Y-57101579D01*
X184034569Y-57392730D01*
X184009961Y-57452139D01*
X183847874Y-57385000D01*
X183436126Y-57385000D01*
X183055720Y-57542569D01*
X182764569Y-57833720D01*
X182607000Y-58214126D01*
X182607000Y-58625874D01*
X182764569Y-59006280D01*
X183055720Y-59297431D01*
X183436126Y-59455000D01*
X183602199Y-59455000D01*
X183691669Y-59544470D01*
X183734071Y-59607929D01*
X183985463Y-59775904D01*
X184207148Y-59820000D01*
X184207152Y-59820000D01*
X184282000Y-59834888D01*
X184356848Y-59820000D01*
X186263560Y-59820000D01*
X186263560Y-60080000D01*
X186300358Y-60265000D01*
X186263560Y-60450000D01*
X186263560Y-61350000D01*
X186300358Y-61535000D01*
X186263560Y-61720000D01*
X186263560Y-62620000D01*
X186300358Y-62805000D01*
X186263560Y-62990000D01*
X186263560Y-63890000D01*
X186300358Y-64075000D01*
X186263560Y-64260000D01*
X186263560Y-65160000D01*
X186300358Y-65345000D01*
X186263560Y-65530000D01*
X186263560Y-66430000D01*
X186300358Y-66615000D01*
X186263560Y-66800000D01*
X186263560Y-67700000D01*
X186300358Y-67885000D01*
X186263560Y-68070000D01*
X186263560Y-68348758D01*
X185248331Y-67333530D01*
X185205929Y-67270071D01*
X184954537Y-67102096D01*
X184732852Y-67058000D01*
X184732847Y-67058000D01*
X184658000Y-67043112D01*
X184583153Y-67058000D01*
X175709711Y-67058000D01*
X175592280Y-66940569D01*
X175211874Y-66783000D01*
X174800126Y-66783000D01*
X174419720Y-66940569D01*
X174128569Y-67231720D01*
X174024999Y-67481761D01*
X174024999Y-61275750D01*
X175221000Y-61275750D01*
X175221000Y-64116310D01*
X175317673Y-64349699D01*
X175496302Y-64528327D01*
X175729691Y-64625000D01*
X178570250Y-64625000D01*
X178729000Y-64466250D01*
X178729000Y-61117000D01*
X178983000Y-61117000D01*
X178983000Y-64466250D01*
X179141750Y-64625000D01*
X181982309Y-64625000D01*
X182215698Y-64528327D01*
X182394327Y-64349699D01*
X182491000Y-64116310D01*
X182491000Y-61275750D01*
X182332250Y-61117000D01*
X178983000Y-61117000D01*
X178729000Y-61117000D01*
X175379750Y-61117000D01*
X175221000Y-61275750D01*
X174024999Y-61275750D01*
X174024999Y-58678845D01*
X174039887Y-58603998D01*
X174024999Y-58529151D01*
X174024999Y-58529147D01*
X173980903Y-58307462D01*
X173812928Y-58056070D01*
X173749472Y-58013670D01*
X173599492Y-57863690D01*
X175221000Y-57863690D01*
X175221000Y-60704250D01*
X175379750Y-60863000D01*
X178729000Y-60863000D01*
X178729000Y-57513750D01*
X178983000Y-57513750D01*
X178983000Y-60863000D01*
X182332250Y-60863000D01*
X182491000Y-60704250D01*
X182491000Y-57863690D01*
X182394327Y-57630301D01*
X182215698Y-57451673D01*
X181982309Y-57355000D01*
X179141750Y-57355000D01*
X178983000Y-57513750D01*
X178729000Y-57513750D01*
X178570250Y-57355000D01*
X175729691Y-57355000D01*
X175496302Y-57451673D01*
X175317673Y-57630301D01*
X175221000Y-57863690D01*
X173599492Y-57863690D01*
X171380801Y-55645000D01*
X171401874Y-55645000D01*
X171782280Y-55487431D01*
X172073431Y-55196280D01*
X172231000Y-54815874D01*
X172231000Y-54404126D01*
X172073431Y-54023720D01*
X171782280Y-53732569D01*
X171401874Y-53575000D01*
X170990126Y-53575000D01*
X170866000Y-53626415D01*
X170866000Y-53565750D01*
X170707250Y-53407000D01*
X169683000Y-53407000D01*
X169683000Y-53427000D01*
X169429000Y-53427000D01*
X169429000Y-53407000D01*
X168404750Y-53407000D01*
X168246000Y-53565750D01*
X168246000Y-53790000D01*
X168230819Y-53790000D01*
X168188505Y-53577273D01*
X168080057Y-53414969D01*
X168145327Y-53349698D01*
X168242000Y-53116309D01*
X168242000Y-52838250D01*
X168083250Y-52679500D01*
X167259000Y-52679500D01*
X167259000Y-52699500D01*
X167005000Y-52699500D01*
X167005000Y-52679500D01*
X166592750Y-52679500D01*
X166530250Y-52617000D01*
X165481000Y-52617000D01*
X165481000Y-52637000D01*
X165227000Y-52637000D01*
X165227000Y-52617000D01*
X164177750Y-52617000D01*
X164019000Y-52775750D01*
X164019000Y-53191309D01*
X164115673Y-53424698D01*
X164120975Y-53430000D01*
X162632570Y-53430000D01*
X162422086Y-52921847D01*
X161962153Y-52461914D01*
X161361222Y-52213000D01*
X160710778Y-52213000D01*
X160109847Y-52461914D01*
X159649914Y-52921847D01*
X159401000Y-53522778D01*
X155710000Y-53522778D01*
X155710000Y-51710000D01*
X164051595Y-51710000D01*
X164019000Y-51788691D01*
G36*
X189740000Y-58823802D02*
X189740000Y-60484199D01*
X188908440Y-59652639D01*
X188908440Y-59180000D01*
X188871642Y-58995000D01*
X188908440Y-58810000D01*
X188908440Y-57992242D01*
X189740000Y-58823802D01*
X189740000Y-58823802D01*
G37*
X189740000Y-58823802D02*
X189740000Y-60484199D01*
X188908440Y-59652639D01*
X188908440Y-59180000D01*
X188871642Y-58995000D01*
X188908440Y-58810000D01*
X188908440Y-57992242D01*
X189740000Y-58823802D01*
G36*
X217297000Y-70764500D02*
X217317000Y-70764500D01*
X217317000Y-71018500D01*
X217297000Y-71018500D01*
X217297000Y-71805250D01*
X217455750Y-71964000D01*
X217635654Y-71964000D01*
X217709673Y-72142698D01*
X217888301Y-72321327D01*
X218121690Y-72418000D01*
X218661546Y-72418000D01*
X218548000Y-72692126D01*
X218548000Y-73103874D01*
X218621368Y-73281000D01*
X217963803Y-73281000D01*
X216646802Y-71964000D01*
X216884250Y-71964000D01*
X217043000Y-71805250D01*
X217043000Y-71018500D01*
X217023000Y-71018500D01*
X217023000Y-70764500D01*
X217043000Y-70764500D01*
X217043000Y-70744500D01*
X217297000Y-70744500D01*
X217297000Y-70764500D01*
X217297000Y-70764500D01*
G37*
X217297000Y-70764500D02*
X217317000Y-70764500D01*
X217317000Y-71018500D01*
X217297000Y-71018500D01*
X217297000Y-71805250D01*
X217455750Y-71964000D01*
X217635654Y-71964000D01*
X217709673Y-72142698D01*
X217888301Y-72321327D01*
X218121690Y-72418000D01*
X218661546Y-72418000D01*
X218548000Y-72692126D01*
X218548000Y-73103874D01*
X218621368Y-73281000D01*
X217963803Y-73281000D01*
X216646802Y-71964000D01*
X216884250Y-71964000D01*
X217043000Y-71805250D01*
X217043000Y-71018500D01*
X217023000Y-71018500D01*
X217023000Y-70764500D01*
X217043000Y-70764500D01*
X217043000Y-70744500D01*
X217297000Y-70744500D01*
X217297000Y-70764500D01*
G36*
X216060000Y-71365750D02*
X216060000Y-71377199D01*
X216044002Y-71361201D01*
X216044002Y-71349752D01*
X216060000Y-71365750D01*
X216060000Y-71365750D01*
G37*
X216060000Y-71365750D02*
X216060000Y-71377199D01*
X216044002Y-71361201D01*
X216044002Y-71349752D01*
X216060000Y-71365750D01*
G36*
X219075000Y-71081000D02*
X219095000Y-71081000D01*
X219095000Y-71335000D01*
X219075000Y-71335000D01*
X219075000Y-71355000D01*
X218821000Y-71355000D01*
X218821000Y-71335000D01*
X218801000Y-71335000D01*
X218801000Y-71081000D01*
X218821000Y-71081000D01*
X218821000Y-71061000D01*
X219075000Y-71061000D01*
X219075000Y-71081000D01*
X219075000Y-71081000D01*
G37*
X219075000Y-71081000D02*
X219095000Y-71081000D01*
X219095000Y-71335000D01*
X219075000Y-71335000D01*
X219075000Y-71355000D01*
X218821000Y-71355000D01*
X218821000Y-71335000D01*
X218801000Y-71335000D01*
X218801000Y-71081000D01*
X218821000Y-71081000D01*
X218821000Y-71061000D01*
X219075000Y-71061000D01*
X219075000Y-71081000D01*
G36*
X213487000Y-57810500D02*
X213507000Y-57810500D01*
X213507000Y-58064500D01*
X213487000Y-58064500D01*
X213487000Y-58851250D01*
X213645750Y-59010000D01*
X213961310Y-59010000D01*
X214106359Y-58949919D01*
X214121843Y-59027765D01*
X214170000Y-59099837D01*
X214170001Y-59956288D01*
X214006569Y-60119720D01*
X213849000Y-60500126D01*
X213849000Y-60911874D01*
X214006569Y-61292280D01*
X214297720Y-61583431D01*
X214678126Y-61741000D01*
X215089874Y-61741000D01*
X215392000Y-61615856D01*
X215694126Y-61741000D01*
X216105874Y-61741000D01*
X216486280Y-61583431D01*
X216777431Y-61292280D01*
X216935000Y-60911874D01*
X216935000Y-60697430D01*
X216936272Y-60702360D01*
X218012722Y-63777930D01*
X217846310Y-63709000D01*
X217455750Y-63709000D01*
X217297000Y-63867750D01*
X217297000Y-64767000D01*
X218196250Y-64767000D01*
X218316729Y-64646521D01*
X219604789Y-68326692D01*
X219398001Y-68285560D01*
X219256534Y-68285560D01*
X219199355Y-68247354D01*
X218868283Y-68181500D01*
X218367440Y-68181500D01*
X218367440Y-67144000D01*
X218318157Y-66896235D01*
X218177809Y-66686191D01*
X217967765Y-66545843D01*
X217720000Y-66496560D01*
X217485408Y-66496560D01*
X217482855Y-66494854D01*
X217151783Y-66429000D01*
X216649382Y-66429000D01*
X216676235Y-66294000D01*
X216633469Y-66079000D01*
X216884250Y-66079000D01*
X217043000Y-65920250D01*
X217043000Y-65021000D01*
X217297000Y-65021000D01*
X217297000Y-65920250D01*
X217455750Y-66079000D01*
X217846310Y-66079000D01*
X218079699Y-65982327D01*
X218258327Y-65803698D01*
X218355000Y-65570309D01*
X218355000Y-65179750D01*
X218196250Y-65021000D01*
X217297000Y-65021000D01*
X217043000Y-65021000D01*
X217023000Y-65021000D01*
X217023000Y-64767000D01*
X217043000Y-64767000D01*
X217043000Y-63867750D01*
X216884250Y-63709000D01*
X216493690Y-63709000D01*
X216260301Y-63805673D01*
X216081673Y-63984302D01*
X216050818Y-64058792D01*
X215997699Y-64005673D01*
X215764310Y-63909000D01*
X215423750Y-63909000D01*
X215265000Y-64067750D01*
X215265000Y-64917000D01*
X215285000Y-64917000D01*
X215285000Y-65157253D01*
X215276217Y-65159000D01*
X214999783Y-65159000D01*
X214888000Y-65136765D01*
X214776217Y-65159000D01*
X214741783Y-65159000D01*
X214630000Y-65136765D01*
X214518217Y-65159000D01*
X214457889Y-65171000D01*
X214390250Y-65171000D01*
X214282250Y-65063000D01*
X213233000Y-65063000D01*
X213233000Y-65083000D01*
X212979000Y-65083000D01*
X212979000Y-65063000D01*
X212959000Y-65063000D01*
X212959000Y-64809000D01*
X212979000Y-64809000D01*
X212979000Y-63884750D01*
X213233000Y-63884750D01*
X213233000Y-64809000D01*
X214053750Y-64809000D01*
X214161750Y-64917000D01*
X215011000Y-64917000D01*
X215011000Y-64067750D01*
X214852250Y-63909000D01*
X214511690Y-63909000D01*
X214328079Y-63985054D01*
X214165699Y-63822673D01*
X213932310Y-63726000D01*
X213391750Y-63726000D01*
X213233000Y-63884750D01*
X212979000Y-63884750D01*
X212820250Y-63726000D01*
X212342000Y-63726000D01*
X212342000Y-59757945D01*
X212383929Y-59729929D01*
X212551904Y-59478537D01*
X212596000Y-59256852D01*
X212596000Y-59256848D01*
X212610888Y-59182001D01*
X212596000Y-59107154D01*
X212596000Y-58942612D01*
X212758690Y-59010000D01*
X213074250Y-59010000D01*
X213233000Y-58851250D01*
X213233000Y-58064500D01*
X213213000Y-58064500D01*
X213213000Y-57810500D01*
X213233000Y-57810500D01*
X213233000Y-57790500D01*
X213487000Y-57790500D01*
X213487000Y-57810500D01*
X213487000Y-57810500D01*
G37*
X213487000Y-57810500D02*
X213507000Y-57810500D01*
X213507000Y-58064500D01*
X213487000Y-58064500D01*
X213487000Y-58851250D01*
X213645750Y-59010000D01*
X213961310Y-59010000D01*
X214106359Y-58949919D01*
X214121843Y-59027765D01*
X214170000Y-59099837D01*
X214170001Y-59956288D01*
X214006569Y-60119720D01*
X213849000Y-60500126D01*
X213849000Y-60911874D01*
X214006569Y-61292280D01*
X214297720Y-61583431D01*
X214678126Y-61741000D01*
X215089874Y-61741000D01*
X215392000Y-61615856D01*
X215694126Y-61741000D01*
X216105874Y-61741000D01*
X216486280Y-61583431D01*
X216777431Y-61292280D01*
X216935000Y-60911874D01*
X216935000Y-60697430D01*
X216936272Y-60702360D01*
X218012722Y-63777930D01*
X217846310Y-63709000D01*
X217455750Y-63709000D01*
X217297000Y-63867750D01*
X217297000Y-64767000D01*
X218196250Y-64767000D01*
X218316729Y-64646521D01*
X219604789Y-68326692D01*
X219398001Y-68285560D01*
X219256534Y-68285560D01*
X219199355Y-68247354D01*
X218868283Y-68181500D01*
X218367440Y-68181500D01*
X218367440Y-67144000D01*
X218318157Y-66896235D01*
X218177809Y-66686191D01*
X217967765Y-66545843D01*
X217720000Y-66496560D01*
X217485408Y-66496560D01*
X217482855Y-66494854D01*
X217151783Y-66429000D01*
X216649382Y-66429000D01*
X216676235Y-66294000D01*
X216633469Y-66079000D01*
X216884250Y-66079000D01*
X217043000Y-65920250D01*
X217043000Y-65021000D01*
X217297000Y-65021000D01*
X217297000Y-65920250D01*
X217455750Y-66079000D01*
X217846310Y-66079000D01*
X218079699Y-65982327D01*
X218258327Y-65803698D01*
X218355000Y-65570309D01*
X218355000Y-65179750D01*
X218196250Y-65021000D01*
X217297000Y-65021000D01*
X217043000Y-65021000D01*
X217023000Y-65021000D01*
X217023000Y-64767000D01*
X217043000Y-64767000D01*
X217043000Y-63867750D01*
X216884250Y-63709000D01*
X216493690Y-63709000D01*
X216260301Y-63805673D01*
X216081673Y-63984302D01*
X216050818Y-64058792D01*
X215997699Y-64005673D01*
X215764310Y-63909000D01*
X215423750Y-63909000D01*
X215265000Y-64067750D01*
X215265000Y-64917000D01*
X215285000Y-64917000D01*
X215285000Y-65157253D01*
X215276217Y-65159000D01*
X214999783Y-65159000D01*
X214888000Y-65136765D01*
X214776217Y-65159000D01*
X214741783Y-65159000D01*
X214630000Y-65136765D01*
X214518217Y-65159000D01*
X214457889Y-65171000D01*
X214390250Y-65171000D01*
X214282250Y-65063000D01*
X213233000Y-65063000D01*
X213233000Y-65083000D01*
X212979000Y-65083000D01*
X212979000Y-65063000D01*
X212959000Y-65063000D01*
X212959000Y-64809000D01*
X212979000Y-64809000D01*
X212979000Y-63884750D01*
X213233000Y-63884750D01*
X213233000Y-64809000D01*
X214053750Y-64809000D01*
X214161750Y-64917000D01*
X215011000Y-64917000D01*
X215011000Y-64067750D01*
X214852250Y-63909000D01*
X214511690Y-63909000D01*
X214328079Y-63985054D01*
X214165699Y-63822673D01*
X213932310Y-63726000D01*
X213391750Y-63726000D01*
X213233000Y-63884750D01*
X212979000Y-63884750D01*
X212820250Y-63726000D01*
X212342000Y-63726000D01*
X212342000Y-59757945D01*
X212383929Y-59729929D01*
X212551904Y-59478537D01*
X212596000Y-59256852D01*
X212596000Y-59256848D01*
X212610888Y-59182001D01*
X212596000Y-59107154D01*
X212596000Y-58942612D01*
X212758690Y-59010000D01*
X213074250Y-59010000D01*
X213233000Y-58851250D01*
X213233000Y-58064500D01*
X213213000Y-58064500D01*
X213213000Y-57810500D01*
X213233000Y-57810500D01*
X213233000Y-57790500D01*
X213487000Y-57790500D01*
X213487000Y-57810500D01*
G36*
X199499560Y-64070000D02*
X199499560Y-65092469D01*
X199380436Y-65012873D01*
X199037001Y-64944560D01*
X197443000Y-64944560D01*
X197443000Y-64735750D01*
X197284250Y-64577000D01*
X196485000Y-64577000D01*
X196485000Y-64597000D01*
X196231000Y-64597000D01*
X196231000Y-64577000D01*
X196211000Y-64577000D01*
X196211000Y-64323000D01*
X196231000Y-64323000D01*
X196231000Y-64303000D01*
X196485000Y-64303000D01*
X196485000Y-64323000D01*
X197284250Y-64323000D01*
X197369781Y-64237469D01*
X197450191Y-64357809D01*
X197660235Y-64498157D01*
X197871920Y-64540263D01*
X197915146Y-64569146D01*
X198358000Y-64657235D01*
X198800854Y-64569146D01*
X198844080Y-64540263D01*
X199055765Y-64498157D01*
X199265809Y-64357809D01*
X199406157Y-64147765D01*
X199428700Y-64034431D01*
X199525986Y-63937145D01*
X199499560Y-64070000D01*
X199499560Y-64070000D01*
G37*
X199499560Y-64070000D02*
X199499560Y-65092469D01*
X199380436Y-65012873D01*
X199037001Y-64944560D01*
X197443000Y-64944560D01*
X197443000Y-64735750D01*
X197284250Y-64577000D01*
X196485000Y-64577000D01*
X196485000Y-64597000D01*
X196231000Y-64597000D01*
X196231000Y-64577000D01*
X196211000Y-64577000D01*
X196211000Y-64323000D01*
X196231000Y-64323000D01*
X196231000Y-64303000D01*
X196485000Y-64303000D01*
X196485000Y-64323000D01*
X197284250Y-64323000D01*
X197369781Y-64237469D01*
X197450191Y-64357809D01*
X197660235Y-64498157D01*
X197871920Y-64540263D01*
X197915146Y-64569146D01*
X198358000Y-64657235D01*
X198800854Y-64569146D01*
X198844080Y-64540263D01*
X199055765Y-64498157D01*
X199265809Y-64357809D01*
X199406157Y-64147765D01*
X199428700Y-64034431D01*
X199525986Y-63937145D01*
X199499560Y-64070000D01*
G36*
X210822001Y-65020600D02*
X210810436Y-65012873D01*
X210467001Y-64944560D01*
X208873000Y-64944560D01*
X208873000Y-64735750D01*
X208714250Y-64577000D01*
X207915000Y-64577000D01*
X207915000Y-64597000D01*
X207661000Y-64597000D01*
X207661000Y-64577000D01*
X207641000Y-64577000D01*
X207641000Y-64323000D01*
X207661000Y-64323000D01*
X207661000Y-64303000D01*
X207915000Y-64303000D01*
X207915000Y-64323000D01*
X208714250Y-64323000D01*
X208799781Y-64237469D01*
X208880191Y-64357809D01*
X209090235Y-64498157D01*
X209301920Y-64540263D01*
X209345146Y-64569146D01*
X209788000Y-64657235D01*
X210230854Y-64569146D01*
X210274080Y-64540263D01*
X210485765Y-64498157D01*
X210695809Y-64357809D01*
X210822001Y-64168951D01*
X210822001Y-65020600D01*
X210822001Y-65020600D01*
G37*
X210822001Y-65020600D02*
X210810436Y-65012873D01*
X210467001Y-64944560D01*
X208873000Y-64944560D01*
X208873000Y-64735750D01*
X208714250Y-64577000D01*
X207915000Y-64577000D01*
X207915000Y-64597000D01*
X207661000Y-64597000D01*
X207661000Y-64577000D01*
X207641000Y-64577000D01*
X207641000Y-64323000D01*
X207661000Y-64323000D01*
X207661000Y-64303000D01*
X207915000Y-64303000D01*
X207915000Y-64323000D01*
X208714250Y-64323000D01*
X208799781Y-64237469D01*
X208880191Y-64357809D01*
X209090235Y-64498157D01*
X209301920Y-64540263D01*
X209345146Y-64569146D01*
X209788000Y-64657235D01*
X210230854Y-64569146D01*
X210274080Y-64540263D01*
X210485765Y-64498157D01*
X210695809Y-64357809D01*
X210822001Y-64168951D01*
X210822001Y-65020600D01*
G36*
X204105000Y-64323000D02*
X204125000Y-64323000D01*
X204125000Y-64577000D01*
X204105000Y-64577000D01*
X204105000Y-64597000D01*
X203851000Y-64597000D01*
X203851000Y-64577000D01*
X203831000Y-64577000D01*
X203831000Y-64323000D01*
X203851000Y-64323000D01*
X203851000Y-64303000D01*
X204105000Y-64303000D01*
X204105000Y-64323000D01*
X204105000Y-64323000D01*
G37*
X204105000Y-64323000D02*
X204125000Y-64323000D01*
X204125000Y-64577000D01*
X204105000Y-64577000D01*
X204105000Y-64597000D01*
X203851000Y-64597000D01*
X203851000Y-64577000D01*
X203831000Y-64577000D01*
X203831000Y-64323000D01*
X203851000Y-64323000D01*
X203851000Y-64303000D01*
X204105000Y-64303000D01*
X204105000Y-64323000D01*
G36*
X201448843Y-63177765D02*
X201589191Y-63387809D01*
X201688551Y-63454199D01*
X201549000Y-63593750D01*
X201549000Y-63672341D01*
X201448843Y-63822235D01*
X201422000Y-63957185D01*
X201395157Y-63822235D01*
X201295000Y-63672341D01*
X201295000Y-63593750D01*
X201155449Y-63454199D01*
X201254809Y-63387809D01*
X201395157Y-63177765D01*
X201422000Y-63042815D01*
X201448843Y-63177765D01*
X201448843Y-63177765D01*
G37*
X201448843Y-63177765D02*
X201589191Y-63387809D01*
X201688551Y-63454199D01*
X201549000Y-63593750D01*
X201549000Y-63672341D01*
X201448843Y-63822235D01*
X201422000Y-63957185D01*
X201395157Y-63822235D01*
X201295000Y-63672341D01*
X201295000Y-63593750D01*
X201155449Y-63454199D01*
X201254809Y-63387809D01*
X201395157Y-63177765D01*
X201422000Y-63042815D01*
X201448843Y-63177765D01*
G36*
X201657000Y-57960126D02*
X201657000Y-58371874D01*
X201814569Y-58752280D01*
X201932000Y-58869711D01*
X201932001Y-59645770D01*
X201913273Y-59649495D01*
X201750969Y-59757943D01*
X201685698Y-59692673D01*
X201452309Y-59596000D01*
X201174250Y-59596000D01*
X201015500Y-59754750D01*
X201015500Y-60579000D01*
X201035500Y-60579000D01*
X201035500Y-60833000D01*
X201015500Y-60833000D01*
X201015500Y-60853000D01*
X200761500Y-60853000D01*
X200761500Y-60833000D01*
X200741500Y-60833000D01*
X200741500Y-60579000D01*
X200761500Y-60579000D01*
X200761500Y-59754750D01*
X200667642Y-59660892D01*
X200677175Y-59612966D01*
X200824153Y-59552086D01*
X201284086Y-59092153D01*
X201533000Y-58491222D01*
X201533000Y-57840778D01*
X201444450Y-57627000D01*
X201794985Y-57627000D01*
X201657000Y-57960126D01*
X201657000Y-57960126D01*
G37*
X201657000Y-57960126D02*
X201657000Y-58371874D01*
X201814569Y-58752280D01*
X201932000Y-58869711D01*
X201932001Y-59645770D01*
X201913273Y-59649495D01*
X201750969Y-59757943D01*
X201685698Y-59692673D01*
X201452309Y-59596000D01*
X201174250Y-59596000D01*
X201015500Y-59754750D01*
X201015500Y-60579000D01*
X201035500Y-60579000D01*
X201035500Y-60833000D01*
X201015500Y-60833000D01*
X201015500Y-60853000D01*
X200761500Y-60853000D01*
X200761500Y-60833000D01*
X200741500Y-60833000D01*
X200741500Y-60579000D01*
X200761500Y-60579000D01*
X200761500Y-59754750D01*
X200667642Y-59660892D01*
X200677175Y-59612966D01*
X200824153Y-59552086D01*
X201284086Y-59092153D01*
X201533000Y-58491222D01*
X201533000Y-57840778D01*
X201444450Y-57627000D01*
X201794985Y-57627000D01*
X201657000Y-57960126D01*
G36*
X216752998Y-59415000D02*
X216873000Y-59415000D01*
X216873000Y-60330054D01*
X216874795Y-60351332D01*
X216875788Y-60357175D01*
X216777431Y-60119720D01*
X216486280Y-59828569D01*
X216330000Y-59763836D01*
X216330000Y-59415000D01*
X216357002Y-59415000D01*
X216357002Y-59333529D01*
X216442830Y-59369080D01*
X216488750Y-59415000D01*
X216621250Y-59415000D01*
X216667170Y-59369080D01*
X216752998Y-59333529D01*
X216752998Y-59415000D01*
X216752998Y-59415000D01*
G37*
X216752998Y-59415000D02*
X216873000Y-59415000D01*
X216873000Y-60330054D01*
X216874795Y-60351332D01*
X216875788Y-60357175D01*
X216777431Y-60119720D01*
X216486280Y-59828569D01*
X216330000Y-59763836D01*
X216330000Y-59415000D01*
X216357002Y-59415000D01*
X216357002Y-59333529D01*
X216442830Y-59369080D01*
X216488750Y-59415000D01*
X216621250Y-59415000D01*
X216667170Y-59369080D01*
X216752998Y-59333529D01*
X216752998Y-59415000D01*
G36*
X210866096Y-59139464D02*
X210830700Y-59317413D01*
X210810436Y-59303873D01*
X210467001Y-59235560D01*
X207616999Y-59235560D01*
X207273564Y-59303873D01*
X207137000Y-59395123D01*
X207000436Y-59303873D01*
X206657001Y-59235560D01*
X203806999Y-59235560D01*
X203463564Y-59303873D01*
X203452000Y-59311600D01*
X203452000Y-58926000D01*
X211008728Y-58926000D01*
X210866096Y-59139464D01*
X210866096Y-59139464D01*
G37*
X210866096Y-59139464D02*
X210830700Y-59317413D01*
X210810436Y-59303873D01*
X210467001Y-59235560D01*
X207616999Y-59235560D01*
X207273564Y-59303873D01*
X207137000Y-59395123D01*
X207000436Y-59303873D01*
X206657001Y-59235560D01*
X203806999Y-59235560D01*
X203463564Y-59303873D01*
X203452000Y-59311600D01*
X203452000Y-58926000D01*
X211008728Y-58926000D01*
X210866096Y-59139464D01*
G04 #@! TO.N,VCC*
G36*
X217400000Y-51749691D02*
X217400000Y-52352750D01*
X217558750Y-52511500D01*
X219583000Y-52511500D01*
X219583000Y-52491500D01*
X219837000Y-52491500D01*
X219837000Y-52511500D01*
X221861250Y-52511500D01*
X222020000Y-52352750D01*
X222020000Y-51749691D01*
X222003559Y-51710000D01*
X232290001Y-51710000D01*
X232290001Y-52812827D01*
X231987491Y-52873000D01*
X228414214Y-52873000D01*
X228389438Y-52875440D01*
X228006754Y-52951560D01*
X227960972Y-52970523D01*
X227636549Y-53187296D01*
X227617304Y-53203090D01*
X225513154Y-55307240D01*
X225673908Y-54874539D01*
X225649856Y-54224540D01*
X225447387Y-53735736D01*
X225180532Y-53637073D01*
X224207605Y-54610000D01*
X224221748Y-54624143D01*
X224042143Y-54803748D01*
X224028000Y-54789605D01*
X223055073Y-55762532D01*
X223153736Y-56029387D01*
X223763461Y-56255908D01*
X224413460Y-56231856D01*
X224712337Y-56108057D01*
X224711935Y-56108459D01*
X224418916Y-56304249D01*
X224073277Y-56373000D01*
X219406802Y-56373000D01*
X217989331Y-54955530D01*
X217946929Y-54892071D01*
X217695537Y-54724096D01*
X217473852Y-54680000D01*
X217473847Y-54680000D01*
X217399000Y-54665112D01*
X217324153Y-54680000D01*
X217029847Y-54680000D01*
X216955000Y-54665112D01*
X216880153Y-54680000D01*
X216880149Y-54680000D01*
X216658464Y-54724096D01*
X216407072Y-54892071D01*
X216377030Y-54937032D01*
X216332072Y-54967072D01*
X216305879Y-55006272D01*
X216225000Y-55060314D01*
X216017765Y-54921843D01*
X216005691Y-54919441D01*
X215971250Y-54885000D01*
X215903690Y-54885000D01*
X215880608Y-54894561D01*
X215770000Y-54872560D01*
X215448729Y-54872560D01*
X215226537Y-54724096D01*
X215004852Y-54680000D01*
X214930000Y-54665111D01*
X214855148Y-54680000D01*
X214357346Y-54680000D01*
X214282499Y-54665112D01*
X214207652Y-54680000D01*
X214207648Y-54680000D01*
X213985963Y-54724096D01*
X213734571Y-54892071D01*
X213692171Y-54955527D01*
X213370138Y-55277560D01*
X213103750Y-55277560D01*
X212772273Y-55343495D01*
X212491261Y-55531261D01*
X212411826Y-55650143D01*
X212349605Y-55662520D01*
X212301462Y-55672096D01*
X212179689Y-55753463D01*
X212050071Y-55840071D01*
X212007671Y-55903527D01*
X211538199Y-56373000D01*
X192512509Y-56373000D01*
X192166870Y-56304248D01*
X191884455Y-56115545D01*
X191796048Y-55983235D01*
X192000690Y-56068000D01*
X193516250Y-56068000D01*
X193675000Y-55909250D01*
X193675000Y-54797500D01*
X193929000Y-54797500D01*
X193929000Y-55909250D01*
X194087750Y-56068000D01*
X195603310Y-56068000D01*
X195707000Y-56025050D01*
X195810690Y-56068000D01*
X197326250Y-56068000D01*
X197485000Y-55909250D01*
X197485000Y-54797500D01*
X197739000Y-54797500D01*
X197739000Y-55909250D01*
X197897750Y-56068000D01*
X199413310Y-56068000D01*
X199646699Y-55971327D01*
X199825327Y-55792698D01*
X199922000Y-55559309D01*
X199922000Y-54956250D01*
X202922000Y-54956250D01*
X202922000Y-55559309D01*
X203018673Y-55792698D01*
X203197301Y-55971327D01*
X203430690Y-56068000D01*
X204946250Y-56068000D01*
X205105000Y-55909250D01*
X205105000Y-54797500D01*
X205359000Y-54797500D01*
X205359000Y-55909250D01*
X205517750Y-56068000D01*
X207033310Y-56068000D01*
X207137000Y-56025050D01*
X207240690Y-56068000D01*
X208756250Y-56068000D01*
X208915000Y-55909250D01*
X208915000Y-54797500D01*
X209169000Y-54797500D01*
X209169000Y-55909250D01*
X209327750Y-56068000D01*
X210843310Y-56068000D01*
X211076699Y-55971327D01*
X211255327Y-55792698D01*
X211352000Y-55559309D01*
X211352000Y-54956250D01*
X211193250Y-54797500D01*
X209169000Y-54797500D01*
X208915000Y-54797500D01*
X205359000Y-54797500D01*
X205105000Y-54797500D01*
X203080750Y-54797500D01*
X202922000Y-54956250D01*
X199922000Y-54956250D01*
X199763250Y-54797500D01*
X197739000Y-54797500D01*
X197485000Y-54797500D01*
X193929000Y-54797500D01*
X193675000Y-54797500D01*
X193655000Y-54797500D01*
X193655000Y-54543500D01*
X193675000Y-54543500D01*
X193675000Y-54523500D01*
X193929000Y-54523500D01*
X193929000Y-54543500D01*
X197485000Y-54543500D01*
X197485000Y-54523500D01*
X197739000Y-54523500D01*
X197739000Y-54543500D01*
X199763250Y-54543500D01*
X199922000Y-54384750D01*
X199922000Y-54127000D01*
X202922000Y-54127000D01*
X202922000Y-54384750D01*
X203080750Y-54543500D01*
X205105000Y-54543500D01*
X205105000Y-54523500D01*
X205359000Y-54523500D01*
X205359000Y-54543500D01*
X208915000Y-54543500D01*
X208915000Y-54523500D01*
X209169000Y-54523500D01*
X209169000Y-54543500D01*
X211193250Y-54543500D01*
X211352000Y-54384750D01*
X211352000Y-54345461D01*
X222382092Y-54345461D01*
X222406144Y-54995460D01*
X222608613Y-55484264D01*
X222875468Y-55582927D01*
X223848395Y-54610000D01*
X222875468Y-53637073D01*
X222608613Y-53735736D01*
X222382092Y-54345461D01*
X211352000Y-54345461D01*
X211352000Y-53781691D01*
X211335932Y-53742900D01*
X211529477Y-53453240D01*
X211548440Y-53407459D01*
X211624560Y-53024776D01*
X211627000Y-53000000D01*
X211627000Y-52924250D01*
X217400000Y-52924250D01*
X217400000Y-53527309D01*
X217496673Y-53760698D01*
X217675301Y-53939327D01*
X217908690Y-54036000D01*
X219424250Y-54036000D01*
X219583000Y-53877250D01*
X219583000Y-52765500D01*
X219837000Y-52765500D01*
X219837000Y-53877250D01*
X219995750Y-54036000D01*
X221511310Y-54036000D01*
X221744699Y-53939327D01*
X221923327Y-53760698D01*
X222020000Y-53527309D01*
X222020000Y-53457468D01*
X223055073Y-53457468D01*
X224028000Y-54430395D01*
X225000927Y-53457468D01*
X224902264Y-53190613D01*
X224292539Y-52964092D01*
X223642540Y-52988144D01*
X223153736Y-53190613D01*
X223055073Y-53457468D01*
X222020000Y-53457468D01*
X222020000Y-52924250D01*
X221861250Y-52765500D01*
X219837000Y-52765500D01*
X219583000Y-52765500D01*
X217558750Y-52765500D01*
X217400000Y-52924250D01*
X211627000Y-52924250D01*
X211627000Y-52012509D01*
X211687173Y-51710000D01*
X217416441Y-51710000D01*
X217400000Y-51749691D01*
X217400000Y-51749691D01*
G37*
X217400000Y-51749691D02*
X217400000Y-52352750D01*
X217558750Y-52511500D01*
X219583000Y-52511500D01*
X219583000Y-52491500D01*
X219837000Y-52491500D01*
X219837000Y-52511500D01*
X221861250Y-52511500D01*
X222020000Y-52352750D01*
X222020000Y-51749691D01*
X222003559Y-51710000D01*
X232290001Y-51710000D01*
X232290001Y-52812827D01*
X231987491Y-52873000D01*
X228414214Y-52873000D01*
X228389438Y-52875440D01*
X228006754Y-52951560D01*
X227960972Y-52970523D01*
X227636549Y-53187296D01*
X227617304Y-53203090D01*
X225513154Y-55307240D01*
X225673908Y-54874539D01*
X225649856Y-54224540D01*
X225447387Y-53735736D01*
X225180532Y-53637073D01*
X224207605Y-54610000D01*
X224221748Y-54624143D01*
X224042143Y-54803748D01*
X224028000Y-54789605D01*
X223055073Y-55762532D01*
X223153736Y-56029387D01*
X223763461Y-56255908D01*
X224413460Y-56231856D01*
X224712337Y-56108057D01*
X224711935Y-56108459D01*
X224418916Y-56304249D01*
X224073277Y-56373000D01*
X219406802Y-56373000D01*
X217989331Y-54955530D01*
X217946929Y-54892071D01*
X217695537Y-54724096D01*
X217473852Y-54680000D01*
X217473847Y-54680000D01*
X217399000Y-54665112D01*
X217324153Y-54680000D01*
X217029847Y-54680000D01*
X216955000Y-54665112D01*
X216880153Y-54680000D01*
X216880149Y-54680000D01*
X216658464Y-54724096D01*
X216407072Y-54892071D01*
X216377030Y-54937032D01*
X216332072Y-54967072D01*
X216305879Y-55006272D01*
X216225000Y-55060314D01*
X216017765Y-54921843D01*
X216005691Y-54919441D01*
X215971250Y-54885000D01*
X215903690Y-54885000D01*
X215880608Y-54894561D01*
X215770000Y-54872560D01*
X215448729Y-54872560D01*
X215226537Y-54724096D01*
X215004852Y-54680000D01*
X214930000Y-54665111D01*
X214855148Y-54680000D01*
X214357346Y-54680000D01*
X214282499Y-54665112D01*
X214207652Y-54680000D01*
X214207648Y-54680000D01*
X213985963Y-54724096D01*
X213734571Y-54892071D01*
X213692171Y-54955527D01*
X213370138Y-55277560D01*
X213103750Y-55277560D01*
X212772273Y-55343495D01*
X212491261Y-55531261D01*
X212411826Y-55650143D01*
X212349605Y-55662520D01*
X212301462Y-55672096D01*
X212179689Y-55753463D01*
X212050071Y-55840071D01*
X212007671Y-55903527D01*
X211538199Y-56373000D01*
X192512509Y-56373000D01*
X192166870Y-56304248D01*
X191884455Y-56115545D01*
X191796048Y-55983235D01*
X192000690Y-56068000D01*
X193516250Y-56068000D01*
X193675000Y-55909250D01*
X193675000Y-54797500D01*
X193929000Y-54797500D01*
X193929000Y-55909250D01*
X194087750Y-56068000D01*
X195603310Y-56068000D01*
X195707000Y-56025050D01*
X195810690Y-56068000D01*
X197326250Y-56068000D01*
X197485000Y-55909250D01*
X197485000Y-54797500D01*
X197739000Y-54797500D01*
X197739000Y-55909250D01*
X197897750Y-56068000D01*
X199413310Y-56068000D01*
X199646699Y-55971327D01*
X199825327Y-55792698D01*
X199922000Y-55559309D01*
X199922000Y-54956250D01*
X202922000Y-54956250D01*
X202922000Y-55559309D01*
X203018673Y-55792698D01*
X203197301Y-55971327D01*
X203430690Y-56068000D01*
X204946250Y-56068000D01*
X205105000Y-55909250D01*
X205105000Y-54797500D01*
X205359000Y-54797500D01*
X205359000Y-55909250D01*
X205517750Y-56068000D01*
X207033310Y-56068000D01*
X207137000Y-56025050D01*
X207240690Y-56068000D01*
X208756250Y-56068000D01*
X208915000Y-55909250D01*
X208915000Y-54797500D01*
X209169000Y-54797500D01*
X209169000Y-55909250D01*
X209327750Y-56068000D01*
X210843310Y-56068000D01*
X211076699Y-55971327D01*
X211255327Y-55792698D01*
X211352000Y-55559309D01*
X211352000Y-54956250D01*
X211193250Y-54797500D01*
X209169000Y-54797500D01*
X208915000Y-54797500D01*
X205359000Y-54797500D01*
X205105000Y-54797500D01*
X203080750Y-54797500D01*
X202922000Y-54956250D01*
X199922000Y-54956250D01*
X199763250Y-54797500D01*
X197739000Y-54797500D01*
X197485000Y-54797500D01*
X193929000Y-54797500D01*
X193675000Y-54797500D01*
X193655000Y-54797500D01*
X193655000Y-54543500D01*
X193675000Y-54543500D01*
X193675000Y-54523500D01*
X193929000Y-54523500D01*
X193929000Y-54543500D01*
X197485000Y-54543500D01*
X197485000Y-54523500D01*
X197739000Y-54523500D01*
X197739000Y-54543500D01*
X199763250Y-54543500D01*
X199922000Y-54384750D01*
X199922000Y-54127000D01*
X202922000Y-54127000D01*
X202922000Y-54384750D01*
X203080750Y-54543500D01*
X205105000Y-54543500D01*
X205105000Y-54523500D01*
X205359000Y-54523500D01*
X205359000Y-54543500D01*
X208915000Y-54543500D01*
X208915000Y-54523500D01*
X209169000Y-54523500D01*
X209169000Y-54543500D01*
X211193250Y-54543500D01*
X211352000Y-54384750D01*
X211352000Y-54345461D01*
X222382092Y-54345461D01*
X222406144Y-54995460D01*
X222608613Y-55484264D01*
X222875468Y-55582927D01*
X223848395Y-54610000D01*
X222875468Y-53637073D01*
X222608613Y-53735736D01*
X222382092Y-54345461D01*
X211352000Y-54345461D01*
X211352000Y-53781691D01*
X211335932Y-53742900D01*
X211529477Y-53453240D01*
X211548440Y-53407459D01*
X211624560Y-53024776D01*
X211627000Y-53000000D01*
X211627000Y-52924250D01*
X217400000Y-52924250D01*
X217400000Y-53527309D01*
X217496673Y-53760698D01*
X217675301Y-53939327D01*
X217908690Y-54036000D01*
X219424250Y-54036000D01*
X219583000Y-53877250D01*
X219583000Y-52765500D01*
X219837000Y-52765500D01*
X219837000Y-53877250D01*
X219995750Y-54036000D01*
X221511310Y-54036000D01*
X221744699Y-53939327D01*
X221923327Y-53760698D01*
X222020000Y-53527309D01*
X222020000Y-53457468D01*
X223055073Y-53457468D01*
X224028000Y-54430395D01*
X225000927Y-53457468D01*
X224902264Y-53190613D01*
X224292539Y-52964092D01*
X223642540Y-52988144D01*
X223153736Y-53190613D01*
X223055073Y-53457468D01*
X222020000Y-53457468D01*
X222020000Y-52924250D01*
X221861250Y-52765500D01*
X219837000Y-52765500D01*
X219583000Y-52765500D01*
X217558750Y-52765500D01*
X217400000Y-52924250D01*
X211627000Y-52924250D01*
X211627000Y-52012509D01*
X211687173Y-51710000D01*
X217416441Y-51710000D01*
X217400000Y-51749691D01*
G36*
X202922000Y-72043750D02*
X203080750Y-72202500D01*
X205105000Y-72202500D01*
X205105000Y-72182500D01*
X205359000Y-72182500D01*
X205359000Y-72202500D01*
X208915000Y-72202500D01*
X208915000Y-72182500D01*
X209169000Y-72182500D01*
X209169000Y-72202500D01*
X211193250Y-72202500D01*
X211352000Y-72043750D01*
X211352000Y-71627000D01*
X212987491Y-71627000D01*
X213333130Y-71695752D01*
X213615545Y-71884455D01*
X213804248Y-72166870D01*
X213870512Y-72500000D01*
X213804248Y-72833130D01*
X213615545Y-73115545D01*
X213333130Y-73304248D01*
X212987491Y-73373000D01*
X211287925Y-73373000D01*
X211352000Y-73218309D01*
X211352000Y-72615250D01*
X211193250Y-72456500D01*
X209169000Y-72456500D01*
X209169000Y-72476500D01*
X208915000Y-72476500D01*
X208915000Y-72456500D01*
X205359000Y-72456500D01*
X205359000Y-72476500D01*
X205105000Y-72476500D01*
X205105000Y-72456500D01*
X203080750Y-72456500D01*
X202922000Y-72615250D01*
X202922000Y-73218309D01*
X202986075Y-73373000D01*
X199857925Y-73373000D01*
X199922000Y-73218309D01*
X199922000Y-72615250D01*
X199763250Y-72456500D01*
X197739000Y-72456500D01*
X197739000Y-72476500D01*
X197485000Y-72476500D01*
X197485000Y-72456500D01*
X193929000Y-72456500D01*
X193929000Y-72476500D01*
X193675000Y-72476500D01*
X193675000Y-72456500D01*
X193655000Y-72456500D01*
X193655000Y-72202500D01*
X193675000Y-72202500D01*
X193675000Y-72182500D01*
X193929000Y-72182500D01*
X193929000Y-72202500D01*
X197485000Y-72202500D01*
X197485000Y-72182500D01*
X197739000Y-72182500D01*
X197739000Y-72202500D01*
X199763250Y-72202500D01*
X199922000Y-72043750D01*
X199922000Y-71627000D01*
X202922000Y-71627000D01*
X202922000Y-72043750D01*
X202922000Y-72043750D01*
G37*
X202922000Y-72043750D02*
X203080750Y-72202500D01*
X205105000Y-72202500D01*
X205105000Y-72182500D01*
X205359000Y-72182500D01*
X205359000Y-72202500D01*
X208915000Y-72202500D01*
X208915000Y-72182500D01*
X209169000Y-72182500D01*
X209169000Y-72202500D01*
X211193250Y-72202500D01*
X211352000Y-72043750D01*
X211352000Y-71627000D01*
X212987491Y-71627000D01*
X213333130Y-71695752D01*
X213615545Y-71884455D01*
X213804248Y-72166870D01*
X213870512Y-72500000D01*
X213804248Y-72833130D01*
X213615545Y-73115545D01*
X213333130Y-73304248D01*
X212987491Y-73373000D01*
X211287925Y-73373000D01*
X211352000Y-73218309D01*
X211352000Y-72615250D01*
X211193250Y-72456500D01*
X209169000Y-72456500D01*
X209169000Y-72476500D01*
X208915000Y-72476500D01*
X208915000Y-72456500D01*
X205359000Y-72456500D01*
X205359000Y-72476500D01*
X205105000Y-72476500D01*
X205105000Y-72456500D01*
X203080750Y-72456500D01*
X202922000Y-72615250D01*
X202922000Y-73218309D01*
X202986075Y-73373000D01*
X199857925Y-73373000D01*
X199922000Y-73218309D01*
X199922000Y-72615250D01*
X199763250Y-72456500D01*
X197739000Y-72456500D01*
X197739000Y-72476500D01*
X197485000Y-72476500D01*
X197485000Y-72456500D01*
X193929000Y-72456500D01*
X193929000Y-72476500D01*
X193675000Y-72476500D01*
X193675000Y-72456500D01*
X193655000Y-72456500D01*
X193655000Y-72202500D01*
X193675000Y-72202500D01*
X193675000Y-72182500D01*
X193929000Y-72182500D01*
X193929000Y-72202500D01*
X197485000Y-72202500D01*
X197485000Y-72182500D01*
X197739000Y-72182500D01*
X197739000Y-72202500D01*
X199763250Y-72202500D01*
X199922000Y-72043750D01*
X199922000Y-71627000D01*
X202922000Y-71627000D01*
X202922000Y-72043750D01*
G04 #@! TO.N,+BATT*
G36*
X232333130Y-54195752D02*
X232544001Y-54336651D01*
X232544000Y-69163349D01*
X232333130Y-69304248D01*
X231987491Y-69373000D01*
X221744247Y-69373000D01*
X221375436Y-69294246D01*
X221082028Y-69079812D01*
X220894995Y-68752334D01*
X218629872Y-61645508D01*
X218618345Y-61619701D01*
X218394134Y-61238399D01*
X218377186Y-61215781D01*
X218320758Y-61155761D01*
X218177205Y-60929779D01*
X218127000Y-60666806D01*
X218127000Y-60011000D01*
X219424250Y-60011000D01*
X219583000Y-59852250D01*
X219583000Y-58740500D01*
X219837000Y-58740500D01*
X219837000Y-59852250D01*
X219995750Y-60011000D01*
X221511310Y-60011000D01*
X221744699Y-59914327D01*
X221923327Y-59735698D01*
X222020000Y-59502309D01*
X222020000Y-58899250D01*
X221861250Y-58740500D01*
X219837000Y-58740500D01*
X219583000Y-58740500D01*
X219563000Y-58740500D01*
X219563000Y-58486500D01*
X219583000Y-58486500D01*
X219583000Y-58466500D01*
X219837000Y-58466500D01*
X219837000Y-58486500D01*
X221861250Y-58486500D01*
X222020000Y-58327750D01*
X222020000Y-57794532D01*
X227627073Y-57794532D01*
X227725736Y-58061387D01*
X228335461Y-58287908D01*
X228985460Y-58263856D01*
X229474264Y-58061387D01*
X229572927Y-57794532D01*
X228600000Y-56821605D01*
X227627073Y-57794532D01*
X222020000Y-57794532D01*
X222020000Y-57724691D01*
X221979535Y-57627000D01*
X225040065Y-57627000D01*
X225067227Y-57624061D01*
X225485084Y-57532574D01*
X225534439Y-57509874D01*
X225875839Y-57252152D01*
X225895748Y-57233442D01*
X226629446Y-56377461D01*
X226954092Y-56377461D01*
X226978144Y-57027460D01*
X227180613Y-57516264D01*
X227447468Y-57614927D01*
X228420395Y-56642000D01*
X228779605Y-56642000D01*
X229752532Y-57614927D01*
X230019387Y-57516264D01*
X230245908Y-56906539D01*
X230221856Y-56256540D01*
X230019387Y-55767736D01*
X229752532Y-55669073D01*
X228779605Y-56642000D01*
X228420395Y-56642000D01*
X227447468Y-55669073D01*
X227180613Y-55767736D01*
X226954092Y-56377461D01*
X226629446Y-56377461D01*
X227390582Y-55489468D01*
X227627073Y-55489468D01*
X228600000Y-56462395D01*
X229572927Y-55489468D01*
X229474264Y-55222613D01*
X228864539Y-54996092D01*
X228214540Y-55020144D01*
X227725736Y-55222613D01*
X227627073Y-55489468D01*
X227390582Y-55489468D01*
X228288165Y-54442289D01*
X228596403Y-54209601D01*
X228973673Y-54127000D01*
X231987491Y-54127000D01*
X232333130Y-54195752D01*
X232333130Y-54195752D01*
G37*
X232333130Y-54195752D02*
X232544001Y-54336651D01*
X232544000Y-69163349D01*
X232333130Y-69304248D01*
X231987491Y-69373000D01*
X221744247Y-69373000D01*
X221375436Y-69294246D01*
X221082028Y-69079812D01*
X220894995Y-68752334D01*
X218629872Y-61645508D01*
X218618345Y-61619701D01*
X218394134Y-61238399D01*
X218377186Y-61215781D01*
X218320758Y-61155761D01*
X218177205Y-60929779D01*
X218127000Y-60666806D01*
X218127000Y-60011000D01*
X219424250Y-60011000D01*
X219583000Y-59852250D01*
X219583000Y-58740500D01*
X219837000Y-58740500D01*
X219837000Y-59852250D01*
X219995750Y-60011000D01*
X221511310Y-60011000D01*
X221744699Y-59914327D01*
X221923327Y-59735698D01*
X222020000Y-59502309D01*
X222020000Y-58899250D01*
X221861250Y-58740500D01*
X219837000Y-58740500D01*
X219583000Y-58740500D01*
X219563000Y-58740500D01*
X219563000Y-58486500D01*
X219583000Y-58486500D01*
X219583000Y-58466500D01*
X219837000Y-58466500D01*
X219837000Y-58486500D01*
X221861250Y-58486500D01*
X222020000Y-58327750D01*
X222020000Y-57794532D01*
X227627073Y-57794532D01*
X227725736Y-58061387D01*
X228335461Y-58287908D01*
X228985460Y-58263856D01*
X229474264Y-58061387D01*
X229572927Y-57794532D01*
X228600000Y-56821605D01*
X227627073Y-57794532D01*
X222020000Y-57794532D01*
X222020000Y-57724691D01*
X221979535Y-57627000D01*
X225040065Y-57627000D01*
X225067227Y-57624061D01*
X225485084Y-57532574D01*
X225534439Y-57509874D01*
X225875839Y-57252152D01*
X225895748Y-57233442D01*
X226629446Y-56377461D01*
X226954092Y-56377461D01*
X226978144Y-57027460D01*
X227180613Y-57516264D01*
X227447468Y-57614927D01*
X228420395Y-56642000D01*
X228779605Y-56642000D01*
X229752532Y-57614927D01*
X230019387Y-57516264D01*
X230245908Y-56906539D01*
X230221856Y-56256540D01*
X230019387Y-55767736D01*
X229752532Y-55669073D01*
X228779605Y-56642000D01*
X228420395Y-56642000D01*
X227447468Y-55669073D01*
X227180613Y-55767736D01*
X226954092Y-56377461D01*
X226629446Y-56377461D01*
X227390582Y-55489468D01*
X227627073Y-55489468D01*
X228600000Y-56462395D01*
X229572927Y-55489468D01*
X229474264Y-55222613D01*
X228864539Y-54996092D01*
X228214540Y-55020144D01*
X227725736Y-55222613D01*
X227627073Y-55489468D01*
X227390582Y-55489468D01*
X228288165Y-54442289D01*
X228596403Y-54209601D01*
X228973673Y-54127000D01*
X231987491Y-54127000D01*
X232333130Y-54195752D01*
G04 #@! TD*
M02*
