G04 #@! TF.GenerationSoftware,KiCad,Pcbnew,6.0.0-rc1-unknown-7dfc4e3~65~ubuntu18.04.1*
G04 #@! TF.CreationDate,2018-07-30T15:29:30+02:00*
G04 #@! TF.ProjectId,ESP32-li-ion-cell-monitor,45535033322D6C692D696F6E2D63656C,1.1*
G04 #@! TF.SameCoordinates,Original*
G04 #@! TF.FileFunction,Paste,Bot*
G04 #@! TF.FilePolarity,Positive*
%FSLAX46Y46*%
G04 Gerber Fmt 4.6, Leading zero omitted, Abs format (unit mm)*
G04 Created by KiCad (PCBNEW 6.0.0-rc1-unknown-7dfc4e3~65~ubuntu18.04.1) date Mon Jul 30 15:29:30 2018*
%MOMM*%
%LPD*%
G01*
G04 APERTURE LIST*
%ADD10C,0.100000*%
%ADD11C,0.875000*%
%ADD12R,1.060000X0.650000*%
G04 APERTURE END LIST*
D10*
G04 #@! TO.C,R10*
G36*
X222769691Y-74202053D02*
X222790926Y-74205203D01*
X222811750Y-74210419D01*
X222831962Y-74217651D01*
X222851368Y-74226830D01*
X222869781Y-74237866D01*
X222887024Y-74250654D01*
X222902930Y-74265070D01*
X222917346Y-74280976D01*
X222930134Y-74298219D01*
X222941170Y-74316632D01*
X222950349Y-74336038D01*
X222957581Y-74356250D01*
X222962797Y-74377074D01*
X222965947Y-74398309D01*
X222967000Y-74419750D01*
X222967000Y-74932250D01*
X222965947Y-74953691D01*
X222962797Y-74974926D01*
X222957581Y-74995750D01*
X222950349Y-75015962D01*
X222941170Y-75035368D01*
X222930134Y-75053781D01*
X222917346Y-75071024D01*
X222902930Y-75086930D01*
X222887024Y-75101346D01*
X222869781Y-75114134D01*
X222851368Y-75125170D01*
X222831962Y-75134349D01*
X222811750Y-75141581D01*
X222790926Y-75146797D01*
X222769691Y-75149947D01*
X222748250Y-75151000D01*
X222310750Y-75151000D01*
X222289309Y-75149947D01*
X222268074Y-75146797D01*
X222247250Y-75141581D01*
X222227038Y-75134349D01*
X222207632Y-75125170D01*
X222189219Y-75114134D01*
X222171976Y-75101346D01*
X222156070Y-75086930D01*
X222141654Y-75071024D01*
X222128866Y-75053781D01*
X222117830Y-75035368D01*
X222108651Y-75015962D01*
X222101419Y-74995750D01*
X222096203Y-74974926D01*
X222093053Y-74953691D01*
X222092000Y-74932250D01*
X222092000Y-74419750D01*
X222093053Y-74398309D01*
X222096203Y-74377074D01*
X222101419Y-74356250D01*
X222108651Y-74336038D01*
X222117830Y-74316632D01*
X222128866Y-74298219D01*
X222141654Y-74280976D01*
X222156070Y-74265070D01*
X222171976Y-74250654D01*
X222189219Y-74237866D01*
X222207632Y-74226830D01*
X222227038Y-74217651D01*
X222247250Y-74210419D01*
X222268074Y-74205203D01*
X222289309Y-74202053D01*
X222310750Y-74201000D01*
X222748250Y-74201000D01*
X222769691Y-74202053D01*
X222769691Y-74202053D01*
G37*
D11*
X222529500Y-74676000D03*
D10*
G36*
X221194691Y-74202053D02*
X221215926Y-74205203D01*
X221236750Y-74210419D01*
X221256962Y-74217651D01*
X221276368Y-74226830D01*
X221294781Y-74237866D01*
X221312024Y-74250654D01*
X221327930Y-74265070D01*
X221342346Y-74280976D01*
X221355134Y-74298219D01*
X221366170Y-74316632D01*
X221375349Y-74336038D01*
X221382581Y-74356250D01*
X221387797Y-74377074D01*
X221390947Y-74398309D01*
X221392000Y-74419750D01*
X221392000Y-74932250D01*
X221390947Y-74953691D01*
X221387797Y-74974926D01*
X221382581Y-74995750D01*
X221375349Y-75015962D01*
X221366170Y-75035368D01*
X221355134Y-75053781D01*
X221342346Y-75071024D01*
X221327930Y-75086930D01*
X221312024Y-75101346D01*
X221294781Y-75114134D01*
X221276368Y-75125170D01*
X221256962Y-75134349D01*
X221236750Y-75141581D01*
X221215926Y-75146797D01*
X221194691Y-75149947D01*
X221173250Y-75151000D01*
X220735750Y-75151000D01*
X220714309Y-75149947D01*
X220693074Y-75146797D01*
X220672250Y-75141581D01*
X220652038Y-75134349D01*
X220632632Y-75125170D01*
X220614219Y-75114134D01*
X220596976Y-75101346D01*
X220581070Y-75086930D01*
X220566654Y-75071024D01*
X220553866Y-75053781D01*
X220542830Y-75035368D01*
X220533651Y-75015962D01*
X220526419Y-74995750D01*
X220521203Y-74974926D01*
X220518053Y-74953691D01*
X220517000Y-74932250D01*
X220517000Y-74419750D01*
X220518053Y-74398309D01*
X220521203Y-74377074D01*
X220526419Y-74356250D01*
X220533651Y-74336038D01*
X220542830Y-74316632D01*
X220553866Y-74298219D01*
X220566654Y-74280976D01*
X220581070Y-74265070D01*
X220596976Y-74250654D01*
X220614219Y-74237866D01*
X220632632Y-74226830D01*
X220652038Y-74217651D01*
X220672250Y-74210419D01*
X220693074Y-74205203D01*
X220714309Y-74202053D01*
X220735750Y-74201000D01*
X221173250Y-74201000D01*
X221194691Y-74202053D01*
X221194691Y-74202053D01*
G37*
D11*
X220954500Y-74676000D03*
G04 #@! TD*
D12*
G04 #@! TO.C,U5*
X224452000Y-75118000D03*
X224452000Y-74168000D03*
X224452000Y-73218000D03*
X226652000Y-73218000D03*
X226652000Y-75118000D03*
G04 #@! TD*
D10*
G04 #@! TO.C,C9*
G36*
X225004691Y-71154053D02*
X225025926Y-71157203D01*
X225046750Y-71162419D01*
X225066962Y-71169651D01*
X225086368Y-71178830D01*
X225104781Y-71189866D01*
X225122024Y-71202654D01*
X225137930Y-71217070D01*
X225152346Y-71232976D01*
X225165134Y-71250219D01*
X225176170Y-71268632D01*
X225185349Y-71288038D01*
X225192581Y-71308250D01*
X225197797Y-71329074D01*
X225200947Y-71350309D01*
X225202000Y-71371750D01*
X225202000Y-71884250D01*
X225200947Y-71905691D01*
X225197797Y-71926926D01*
X225192581Y-71947750D01*
X225185349Y-71967962D01*
X225176170Y-71987368D01*
X225165134Y-72005781D01*
X225152346Y-72023024D01*
X225137930Y-72038930D01*
X225122024Y-72053346D01*
X225104781Y-72066134D01*
X225086368Y-72077170D01*
X225066962Y-72086349D01*
X225046750Y-72093581D01*
X225025926Y-72098797D01*
X225004691Y-72101947D01*
X224983250Y-72103000D01*
X224545750Y-72103000D01*
X224524309Y-72101947D01*
X224503074Y-72098797D01*
X224482250Y-72093581D01*
X224462038Y-72086349D01*
X224442632Y-72077170D01*
X224424219Y-72066134D01*
X224406976Y-72053346D01*
X224391070Y-72038930D01*
X224376654Y-72023024D01*
X224363866Y-72005781D01*
X224352830Y-71987368D01*
X224343651Y-71967962D01*
X224336419Y-71947750D01*
X224331203Y-71926926D01*
X224328053Y-71905691D01*
X224327000Y-71884250D01*
X224327000Y-71371750D01*
X224328053Y-71350309D01*
X224331203Y-71329074D01*
X224336419Y-71308250D01*
X224343651Y-71288038D01*
X224352830Y-71268632D01*
X224363866Y-71250219D01*
X224376654Y-71232976D01*
X224391070Y-71217070D01*
X224406976Y-71202654D01*
X224424219Y-71189866D01*
X224442632Y-71178830D01*
X224462038Y-71169651D01*
X224482250Y-71162419D01*
X224503074Y-71157203D01*
X224524309Y-71154053D01*
X224545750Y-71153000D01*
X224983250Y-71153000D01*
X225004691Y-71154053D01*
X225004691Y-71154053D01*
G37*
D11*
X224764500Y-71628000D03*
D10*
G36*
X226579691Y-71154053D02*
X226600926Y-71157203D01*
X226621750Y-71162419D01*
X226641962Y-71169651D01*
X226661368Y-71178830D01*
X226679781Y-71189866D01*
X226697024Y-71202654D01*
X226712930Y-71217070D01*
X226727346Y-71232976D01*
X226740134Y-71250219D01*
X226751170Y-71268632D01*
X226760349Y-71288038D01*
X226767581Y-71308250D01*
X226772797Y-71329074D01*
X226775947Y-71350309D01*
X226777000Y-71371750D01*
X226777000Y-71884250D01*
X226775947Y-71905691D01*
X226772797Y-71926926D01*
X226767581Y-71947750D01*
X226760349Y-71967962D01*
X226751170Y-71987368D01*
X226740134Y-72005781D01*
X226727346Y-72023024D01*
X226712930Y-72038930D01*
X226697024Y-72053346D01*
X226679781Y-72066134D01*
X226661368Y-72077170D01*
X226641962Y-72086349D01*
X226621750Y-72093581D01*
X226600926Y-72098797D01*
X226579691Y-72101947D01*
X226558250Y-72103000D01*
X226120750Y-72103000D01*
X226099309Y-72101947D01*
X226078074Y-72098797D01*
X226057250Y-72093581D01*
X226037038Y-72086349D01*
X226017632Y-72077170D01*
X225999219Y-72066134D01*
X225981976Y-72053346D01*
X225966070Y-72038930D01*
X225951654Y-72023024D01*
X225938866Y-72005781D01*
X225927830Y-71987368D01*
X225918651Y-71967962D01*
X225911419Y-71947750D01*
X225906203Y-71926926D01*
X225903053Y-71905691D01*
X225902000Y-71884250D01*
X225902000Y-71371750D01*
X225903053Y-71350309D01*
X225906203Y-71329074D01*
X225911419Y-71308250D01*
X225918651Y-71288038D01*
X225927830Y-71268632D01*
X225938866Y-71250219D01*
X225951654Y-71232976D01*
X225966070Y-71217070D01*
X225981976Y-71202654D01*
X225999219Y-71189866D01*
X226017632Y-71178830D01*
X226037038Y-71169651D01*
X226057250Y-71162419D01*
X226078074Y-71157203D01*
X226099309Y-71154053D01*
X226120750Y-71153000D01*
X226558250Y-71153000D01*
X226579691Y-71154053D01*
X226579691Y-71154053D01*
G37*
D11*
X226339500Y-71628000D03*
G04 #@! TD*
D10*
G04 #@! TO.C,R12*
G36*
X222769691Y-72678053D02*
X222790926Y-72681203D01*
X222811750Y-72686419D01*
X222831962Y-72693651D01*
X222851368Y-72702830D01*
X222869781Y-72713866D01*
X222887024Y-72726654D01*
X222902930Y-72741070D01*
X222917346Y-72756976D01*
X222930134Y-72774219D01*
X222941170Y-72792632D01*
X222950349Y-72812038D01*
X222957581Y-72832250D01*
X222962797Y-72853074D01*
X222965947Y-72874309D01*
X222967000Y-72895750D01*
X222967000Y-73408250D01*
X222965947Y-73429691D01*
X222962797Y-73450926D01*
X222957581Y-73471750D01*
X222950349Y-73491962D01*
X222941170Y-73511368D01*
X222930134Y-73529781D01*
X222917346Y-73547024D01*
X222902930Y-73562930D01*
X222887024Y-73577346D01*
X222869781Y-73590134D01*
X222851368Y-73601170D01*
X222831962Y-73610349D01*
X222811750Y-73617581D01*
X222790926Y-73622797D01*
X222769691Y-73625947D01*
X222748250Y-73627000D01*
X222310750Y-73627000D01*
X222289309Y-73625947D01*
X222268074Y-73622797D01*
X222247250Y-73617581D01*
X222227038Y-73610349D01*
X222207632Y-73601170D01*
X222189219Y-73590134D01*
X222171976Y-73577346D01*
X222156070Y-73562930D01*
X222141654Y-73547024D01*
X222128866Y-73529781D01*
X222117830Y-73511368D01*
X222108651Y-73491962D01*
X222101419Y-73471750D01*
X222096203Y-73450926D01*
X222093053Y-73429691D01*
X222092000Y-73408250D01*
X222092000Y-72895750D01*
X222093053Y-72874309D01*
X222096203Y-72853074D01*
X222101419Y-72832250D01*
X222108651Y-72812038D01*
X222117830Y-72792632D01*
X222128866Y-72774219D01*
X222141654Y-72756976D01*
X222156070Y-72741070D01*
X222171976Y-72726654D01*
X222189219Y-72713866D01*
X222207632Y-72702830D01*
X222227038Y-72693651D01*
X222247250Y-72686419D01*
X222268074Y-72681203D01*
X222289309Y-72678053D01*
X222310750Y-72677000D01*
X222748250Y-72677000D01*
X222769691Y-72678053D01*
X222769691Y-72678053D01*
G37*
D11*
X222529500Y-73152000D03*
D10*
G36*
X221194691Y-72678053D02*
X221215926Y-72681203D01*
X221236750Y-72686419D01*
X221256962Y-72693651D01*
X221276368Y-72702830D01*
X221294781Y-72713866D01*
X221312024Y-72726654D01*
X221327930Y-72741070D01*
X221342346Y-72756976D01*
X221355134Y-72774219D01*
X221366170Y-72792632D01*
X221375349Y-72812038D01*
X221382581Y-72832250D01*
X221387797Y-72853074D01*
X221390947Y-72874309D01*
X221392000Y-72895750D01*
X221392000Y-73408250D01*
X221390947Y-73429691D01*
X221387797Y-73450926D01*
X221382581Y-73471750D01*
X221375349Y-73491962D01*
X221366170Y-73511368D01*
X221355134Y-73529781D01*
X221342346Y-73547024D01*
X221327930Y-73562930D01*
X221312024Y-73577346D01*
X221294781Y-73590134D01*
X221276368Y-73601170D01*
X221256962Y-73610349D01*
X221236750Y-73617581D01*
X221215926Y-73622797D01*
X221194691Y-73625947D01*
X221173250Y-73627000D01*
X220735750Y-73627000D01*
X220714309Y-73625947D01*
X220693074Y-73622797D01*
X220672250Y-73617581D01*
X220652038Y-73610349D01*
X220632632Y-73601170D01*
X220614219Y-73590134D01*
X220596976Y-73577346D01*
X220581070Y-73562930D01*
X220566654Y-73547024D01*
X220553866Y-73529781D01*
X220542830Y-73511368D01*
X220533651Y-73491962D01*
X220526419Y-73471750D01*
X220521203Y-73450926D01*
X220518053Y-73429691D01*
X220517000Y-73408250D01*
X220517000Y-72895750D01*
X220518053Y-72874309D01*
X220521203Y-72853074D01*
X220526419Y-72832250D01*
X220533651Y-72812038D01*
X220542830Y-72792632D01*
X220553866Y-72774219D01*
X220566654Y-72756976D01*
X220581070Y-72741070D01*
X220596976Y-72726654D01*
X220614219Y-72713866D01*
X220632632Y-72702830D01*
X220652038Y-72693651D01*
X220672250Y-72686419D01*
X220693074Y-72681203D01*
X220714309Y-72678053D01*
X220735750Y-72677000D01*
X221173250Y-72677000D01*
X221194691Y-72678053D01*
X221194691Y-72678053D01*
G37*
D11*
X220954500Y-73152000D03*
G04 #@! TD*
M02*
