G04 #@! TF.GenerationSoftware,KiCad,Pcbnew,6.0.0-rc1-unknown-7dfc4e3~65~ubuntu18.04.1*
G04 #@! TF.CreationDate,2018-07-30T15:29:30+02:00*
G04 #@! TF.ProjectId,ESP32-li-ion-cell-monitor,45535033322D6C692D696F6E2D63656C,1.1*
G04 #@! TF.SameCoordinates,Original*
G04 #@! TF.FileFunction,Copper,L2,Bot,Signal*
G04 #@! TF.FilePolarity,Positive*
%FSLAX46Y46*%
G04 Gerber Fmt 4.6, Leading zero omitted, Abs format (unit mm)*
G04 Created by KiCad (PCBNEW 6.0.0-rc1-unknown-7dfc4e3~65~ubuntu18.04.1) date Mon Jul 30 15:29:30 2018*
%MOMM*%
%LPD*%
G01*
G04 APERTURE LIST*
G04 #@! TA.AperFunction,ComponentPad*
%ADD10C,0.300000*%
G04 #@! TD*
G04 #@! TA.AperFunction,ViaPad*
%ADD11C,0.600000*%
G04 #@! TD*
G04 #@! TA.AperFunction,ComponentPad*
%ADD12O,1.700000X1.700000*%
G04 #@! TD*
G04 #@! TA.AperFunction,ComponentPad*
%ADD13R,1.700000X1.700000*%
G04 #@! TD*
G04 #@! TA.AperFunction,ComponentPad*
%ADD14C,0.800000*%
G04 #@! TD*
G04 #@! TA.AperFunction,BGAPad,CuDef*
%ADD15C,2.000000*%
G04 #@! TD*
G04 #@! TA.AperFunction,Conductor*
%ADD16C,0.100000*%
G04 #@! TD*
G04 #@! TA.AperFunction,SMDPad,CuDef*
%ADD17C,0.875000*%
G04 #@! TD*
G04 #@! TA.AperFunction,SMDPad,CuDef*
%ADD18R,1.060000X0.650000*%
G04 #@! TD*
G04 #@! TA.AperFunction,ComponentPad*
%ADD19C,10.160000*%
G04 #@! TD*
G04 #@! TA.AperFunction,ViaPad*
%ADD20C,0.800000*%
G04 #@! TD*
G04 #@! TA.AperFunction,ViaPad*
%ADD21C,2.000000*%
G04 #@! TD*
G04 #@! TA.AperFunction,Conductor*
%ADD22C,0.250000*%
G04 #@! TD*
G04 #@! TA.AperFunction,Conductor*
%ADD23C,1.000000*%
G04 #@! TD*
G04 #@! TA.AperFunction,Conductor*
%ADD24C,0.500000*%
G04 #@! TD*
G04 #@! TA.AperFunction,Conductor*
%ADD25C,0.254000*%
G04 #@! TD*
G04 APERTURE END LIST*
D10*
G04 #@! TO.P,U1,9*
G04 #@! TO.N,GND*
X215392000Y-69604000D03*
X215392000Y-69929000D03*
X215392000Y-70279000D03*
X215392000Y-70604000D03*
G04 #@! TD*
D11*
G04 #@! TO.N,GND*
G04 #@! TO.C,REF\002A\002A*
X216281000Y-71437500D03*
G04 #@! TD*
G04 #@! TO.N,GND*
G04 #@! TO.C,REF\002A\002A*
X216916000Y-59944000D03*
G04 #@! TD*
G04 #@! TO.N,VCC*
G04 #@! TO.C,REF\002A\002A*
X201422000Y-72898000D03*
G04 #@! TD*
G04 #@! TO.N,VCC*
G04 #@! TO.C,REF\002A\002A*
X202438000Y-72898000D03*
G04 #@! TD*
G04 #@! TO.N,VCC*
G04 #@! TO.C,REF\002A\002A*
X202438000Y-71882000D03*
G04 #@! TD*
G04 #@! TO.N,VCC*
G04 #@! TO.C,REF\002A\002A*
X200406000Y-72898000D03*
G04 #@! TD*
G04 #@! TO.N,VCC*
G04 #@! TO.C,REF\002A\002A*
X200406000Y-71882000D03*
G04 #@! TD*
G04 #@! TO.N,VCC*
G04 #@! TO.C,REF\002A\002A*
X202438000Y-55626000D03*
G04 #@! TD*
G04 #@! TO.N,VCC*
G04 #@! TO.C,REF\002A\002A*
X201422000Y-55626000D03*
G04 #@! TD*
G04 #@! TO.N,VCC*
G04 #@! TO.C,REF\002A\002A*
X200406000Y-55626000D03*
G04 #@! TD*
G04 #@! TO.N,VCC*
G04 #@! TO.C,REF\002A\002A*
X200406000Y-54610000D03*
G04 #@! TD*
G04 #@! TO.N,VCC*
G04 #@! TO.C,REF\002A\002A*
X202438000Y-54610000D03*
G04 #@! TD*
G04 #@! TO.N,VCC*
G04 #@! TO.C,REF\002A\002A*
X231902000Y-52324000D03*
G04 #@! TD*
G04 #@! TO.N,GND*
G04 #@! TO.C,REF\002A\002A*
X199390000Y-74676000D03*
G04 #@! TD*
G04 #@! TO.N,GND*
G04 #@! TO.C,REF\002A\002A*
X203708000Y-74676000D03*
G04 #@! TD*
G04 #@! TO.N,GND*
G04 #@! TO.C,REF\002A\002A*
X214630000Y-68580000D03*
G04 #@! TD*
G04 #@! TO.N,GND*
G04 #@! TO.C,REF\002A\002A*
X228600000Y-71374000D03*
G04 #@! TD*
G04 #@! TO.N,GND*
G04 #@! TO.C,REF\002A\002A*
X231902000Y-73406000D03*
G04 #@! TD*
G04 #@! TO.N,+BATT*
G04 #@! TO.C,REF\002A\002A*
X223012000Y-58166000D03*
G04 #@! TD*
G04 #@! TO.N,+BATT*
G04 #@! TO.C,REF\002A\002A*
X231648000Y-59436000D03*
G04 #@! TD*
G04 #@! TO.N,+BATT*
G04 #@! TO.C,REF\002A\002A*
X221488000Y-68326000D03*
G04 #@! TD*
G04 #@! TO.N,+BATT*
G04 #@! TO.C,REF\002A\002A*
X231394000Y-68326000D03*
G04 #@! TD*
G04 #@! TO.N,+BATT*
G04 #@! TO.C,REF\002A\002A*
X231648000Y-54864000D03*
G04 #@! TD*
G04 #@! TO.N,+BATT*
G04 #@! TO.C,REF\002A\002A*
X219964000Y-60706000D03*
G04 #@! TD*
G04 #@! TO.N,VCC*
G04 #@! TO.C,REF\002A\002A*
X220472000Y-55118000D03*
G04 #@! TD*
G04 #@! TO.N,VCC*
G04 #@! TO.C,REF\002A\002A*
X201422000Y-71882000D03*
G04 #@! TD*
G04 #@! TO.N,VCC*
G04 #@! TO.C,REF\002A\002A*
X201422000Y-54610000D03*
G04 #@! TD*
G04 #@! TO.N,GND*
G04 #@! TO.C,REF\002A\002A*
X205232000Y-57500000D03*
G04 #@! TD*
G04 #@! TO.N,GND*
G04 #@! TO.C,REF\002A\002A*
X209042000Y-59182000D03*
G04 #@! TD*
G04 #@! TO.N,GND*
G04 #@! TO.C,REF\002A\002A*
X197358000Y-58928000D03*
G04 #@! TD*
G04 #@! TO.N,GND*
G04 #@! TO.C,REF\002A\002A*
X194056000Y-58928000D03*
G04 #@! TD*
G04 #@! TO.N,GND*
G04 #@! TO.C,REF\002A\002A*
X208534000Y-64516000D03*
G04 #@! TD*
G04 #@! TO.N,GND*
G04 #@! TO.C,REF\002A\002A*
X193294000Y-64262000D03*
G04 #@! TD*
G04 #@! TO.N,GND*
G04 #@! TO.C,REF\002A\002A*
X193294000Y-64770000D03*
G04 #@! TD*
G04 #@! TO.N,GND*
G04 #@! TO.C,REF\002A\002A*
X197358000Y-64516000D03*
G04 #@! TD*
G04 #@! TO.N,GND*
G04 #@! TO.C,REF\002A\002A*
X204724000Y-64516000D03*
G04 #@! TD*
G04 #@! TO.N,VCC*
G04 #@! TO.C,REF\002A\002A*
X211582000Y-54610000D03*
G04 #@! TD*
G04 #@! TO.N,VCC*
G04 #@! TO.C,REF\002A\002A*
X213614000Y-54610000D03*
G04 #@! TD*
G04 #@! TO.N,VCC*
G04 #@! TO.C,REF\002A\002A*
X213614000Y-52832000D03*
G04 #@! TD*
G04 #@! TO.N,VCC*
G04 #@! TO.C,REF\002A\002A*
X211582000Y-52832000D03*
G04 #@! TD*
G04 #@! TO.N,VCC*
G04 #@! TO.C,REF\002A\002A*
X213614000Y-71882000D03*
G04 #@! TD*
G04 #@! TO.N,VCC*
G04 #@! TO.C,REF\002A\002A*
X213614000Y-73152000D03*
G04 #@! TD*
G04 #@! TO.N,VCC*
G04 #@! TO.C,REF\002A\002A*
X211328000Y-73152000D03*
G04 #@! TD*
G04 #@! TO.N,VCC*
G04 #@! TO.C,REF\002A\002A*
X211328000Y-71882000D03*
G04 #@! TD*
G04 #@! TO.N,GND*
G04 #@! TO.C,REF\002A\002A*
X217170000Y-74930000D03*
G04 #@! TD*
G04 #@! TO.N,GND*
G04 #@! TO.C,REF\002A\002A*
X223139000Y-71247000D03*
G04 #@! TD*
G04 #@! TO.N,GND*
G04 #@! TO.C,REF\002A\002A*
X204724000Y-63754000D03*
G04 #@! TD*
G04 #@! TO.N,GND*
G04 #@! TO.C,REF\002A\002A*
X198628000Y-64770000D03*
G04 #@! TD*
G04 #@! TO.N,GND*
G04 #@! TO.C,REF\002A\002A*
X230378000Y-71628000D03*
G04 #@! TD*
G04 #@! TO.N,GND*
G04 #@! TO.C,REF\002A\002A*
X217170000Y-72390000D03*
G04 #@! TD*
G04 #@! TO.N,GND*
G04 #@! TO.C,REF\002A\002A*
X215392000Y-73406000D03*
G04 #@! TD*
G04 #@! TO.N,GND*
G04 #@! TO.C,REF\002A\002A*
X209804000Y-64770000D03*
G04 #@! TD*
G04 #@! TO.N,GND*
G04 #@! TO.C,REF\002A\002A*
X201168000Y-59690000D03*
G04 #@! TD*
G04 #@! TO.N,GND*
G04 #@! TO.C,REF\002A\002A*
X205232000Y-59182000D03*
G04 #@! TD*
D12*
G04 #@! TO.P,J3,5*
G04 #@! TO.N,/BOOT*
X173482000Y-74930000D03*
G04 #@! TO.P,J3,4*
G04 #@! TO.N,/RX*
X176022000Y-74930000D03*
G04 #@! TO.P,J3,3*
G04 #@! TO.N,/TX*
X178562000Y-74930000D03*
G04 #@! TO.P,J3,2*
G04 #@! TO.N,/EN*
X181102000Y-74930000D03*
D13*
G04 #@! TO.P,J3,1*
G04 #@! TO.N,GND*
X183642000Y-74930000D03*
G04 #@! TD*
D11*
G04 #@! TO.N,GND*
G04 #@! TO.C,REF\002A\002A*
X210000000Y-69000000D03*
G04 #@! TD*
G04 #@! TO.N,GND*
G04 #@! TO.C,REF\002A\002A*
X189230000Y-59182000D03*
G04 #@! TD*
G04 #@! TO.N,GND*
G04 #@! TO.C,REF\002A\002A*
X209000000Y-57500000D03*
G04 #@! TD*
G04 #@! TO.N,GND*
G04 #@! TO.C,REF\002A\002A*
X191516000Y-58166000D03*
G04 #@! TD*
D14*
G04 #@! TO.P,U2,39*
G04 #@! TO.N,GND*
X176856000Y-58990000D03*
X176856000Y-59990000D03*
X176856000Y-60990000D03*
X176856000Y-61990000D03*
X176856000Y-62990000D03*
X177856000Y-62990000D03*
X177856000Y-61990000D03*
X177856000Y-60990000D03*
X177856000Y-59990000D03*
X177856000Y-58990000D03*
X179856000Y-58990000D03*
X179856000Y-59990000D03*
X179856000Y-60990000D03*
X179856000Y-61990000D03*
X179856000Y-62990000D03*
X178856000Y-62990000D03*
X178856000Y-61990000D03*
X178856000Y-60990000D03*
X178856000Y-59990000D03*
X178856000Y-58990000D03*
X180856000Y-62990000D03*
X180856000Y-61990000D03*
X180856000Y-60990000D03*
X180856000Y-59990000D03*
X180856000Y-58990000D03*
G04 #@! TD*
D15*
G04 #@! TO.P,TP8,1*
G04 #@! TO.N,/Alert2*
X230378000Y-74930000D03*
G04 #@! TD*
D16*
G04 #@! TO.N,/SDA*
G04 #@! TO.C,R10*
G36*
X222769691Y-74202053D02*
X222790926Y-74205203D01*
X222811750Y-74210419D01*
X222831962Y-74217651D01*
X222851368Y-74226830D01*
X222869781Y-74237866D01*
X222887024Y-74250654D01*
X222902930Y-74265070D01*
X222917346Y-74280976D01*
X222930134Y-74298219D01*
X222941170Y-74316632D01*
X222950349Y-74336038D01*
X222957581Y-74356250D01*
X222962797Y-74377074D01*
X222965947Y-74398309D01*
X222967000Y-74419750D01*
X222967000Y-74932250D01*
X222965947Y-74953691D01*
X222962797Y-74974926D01*
X222957581Y-74995750D01*
X222950349Y-75015962D01*
X222941170Y-75035368D01*
X222930134Y-75053781D01*
X222917346Y-75071024D01*
X222902930Y-75086930D01*
X222887024Y-75101346D01*
X222869781Y-75114134D01*
X222851368Y-75125170D01*
X222831962Y-75134349D01*
X222811750Y-75141581D01*
X222790926Y-75146797D01*
X222769691Y-75149947D01*
X222748250Y-75151000D01*
X222310750Y-75151000D01*
X222289309Y-75149947D01*
X222268074Y-75146797D01*
X222247250Y-75141581D01*
X222227038Y-75134349D01*
X222207632Y-75125170D01*
X222189219Y-75114134D01*
X222171976Y-75101346D01*
X222156070Y-75086930D01*
X222141654Y-75071024D01*
X222128866Y-75053781D01*
X222117830Y-75035368D01*
X222108651Y-75015962D01*
X222101419Y-74995750D01*
X222096203Y-74974926D01*
X222093053Y-74953691D01*
X222092000Y-74932250D01*
X222092000Y-74419750D01*
X222093053Y-74398309D01*
X222096203Y-74377074D01*
X222101419Y-74356250D01*
X222108651Y-74336038D01*
X222117830Y-74316632D01*
X222128866Y-74298219D01*
X222141654Y-74280976D01*
X222156070Y-74265070D01*
X222171976Y-74250654D01*
X222189219Y-74237866D01*
X222207632Y-74226830D01*
X222227038Y-74217651D01*
X222247250Y-74210419D01*
X222268074Y-74205203D01*
X222289309Y-74202053D01*
X222310750Y-74201000D01*
X222748250Y-74201000D01*
X222769691Y-74202053D01*
X222769691Y-74202053D01*
G37*
D17*
G04 #@! TD*
G04 #@! TO.P,R10,1*
G04 #@! TO.N,/SDA*
X222529500Y-74676000D03*
D16*
G04 #@! TO.N,+3V*
G04 #@! TO.C,R10*
G36*
X221194691Y-74202053D02*
X221215926Y-74205203D01*
X221236750Y-74210419D01*
X221256962Y-74217651D01*
X221276368Y-74226830D01*
X221294781Y-74237866D01*
X221312024Y-74250654D01*
X221327930Y-74265070D01*
X221342346Y-74280976D01*
X221355134Y-74298219D01*
X221366170Y-74316632D01*
X221375349Y-74336038D01*
X221382581Y-74356250D01*
X221387797Y-74377074D01*
X221390947Y-74398309D01*
X221392000Y-74419750D01*
X221392000Y-74932250D01*
X221390947Y-74953691D01*
X221387797Y-74974926D01*
X221382581Y-74995750D01*
X221375349Y-75015962D01*
X221366170Y-75035368D01*
X221355134Y-75053781D01*
X221342346Y-75071024D01*
X221327930Y-75086930D01*
X221312024Y-75101346D01*
X221294781Y-75114134D01*
X221276368Y-75125170D01*
X221256962Y-75134349D01*
X221236750Y-75141581D01*
X221215926Y-75146797D01*
X221194691Y-75149947D01*
X221173250Y-75151000D01*
X220735750Y-75151000D01*
X220714309Y-75149947D01*
X220693074Y-75146797D01*
X220672250Y-75141581D01*
X220652038Y-75134349D01*
X220632632Y-75125170D01*
X220614219Y-75114134D01*
X220596976Y-75101346D01*
X220581070Y-75086930D01*
X220566654Y-75071024D01*
X220553866Y-75053781D01*
X220542830Y-75035368D01*
X220533651Y-75015962D01*
X220526419Y-74995750D01*
X220521203Y-74974926D01*
X220518053Y-74953691D01*
X220517000Y-74932250D01*
X220517000Y-74419750D01*
X220518053Y-74398309D01*
X220521203Y-74377074D01*
X220526419Y-74356250D01*
X220533651Y-74336038D01*
X220542830Y-74316632D01*
X220553866Y-74298219D01*
X220566654Y-74280976D01*
X220581070Y-74265070D01*
X220596976Y-74250654D01*
X220614219Y-74237866D01*
X220632632Y-74226830D01*
X220652038Y-74217651D01*
X220672250Y-74210419D01*
X220693074Y-74205203D01*
X220714309Y-74202053D01*
X220735750Y-74201000D01*
X221173250Y-74201000D01*
X221194691Y-74202053D01*
X221194691Y-74202053D01*
G37*
D17*
G04 #@! TD*
G04 #@! TO.P,R10,2*
G04 #@! TO.N,+3V*
X220954500Y-74676000D03*
D18*
G04 #@! TO.P,U5,1*
G04 #@! TO.N,/SDA*
X224452000Y-75118000D03*
G04 #@! TO.P,U5,2*
G04 #@! TO.N,GND*
X224452000Y-74168000D03*
G04 #@! TO.P,U5,3*
G04 #@! TO.N,/SCL*
X224452000Y-73218000D03*
G04 #@! TO.P,U5,4*
G04 #@! TO.N,+3V*
X226652000Y-73218000D03*
G04 #@! TO.P,U5,5*
G04 #@! TO.N,/Alert2*
X226652000Y-75118000D03*
G04 #@! TD*
D11*
G04 #@! TO.N,GND*
G04 #@! TO.C,REF\002A\002A*
X214500000Y-63000000D03*
G04 #@! TD*
D16*
G04 #@! TO.N,GND*
G04 #@! TO.C,C9*
G36*
X225004691Y-71154053D02*
X225025926Y-71157203D01*
X225046750Y-71162419D01*
X225066962Y-71169651D01*
X225086368Y-71178830D01*
X225104781Y-71189866D01*
X225122024Y-71202654D01*
X225137930Y-71217070D01*
X225152346Y-71232976D01*
X225165134Y-71250219D01*
X225176170Y-71268632D01*
X225185349Y-71288038D01*
X225192581Y-71308250D01*
X225197797Y-71329074D01*
X225200947Y-71350309D01*
X225202000Y-71371750D01*
X225202000Y-71884250D01*
X225200947Y-71905691D01*
X225197797Y-71926926D01*
X225192581Y-71947750D01*
X225185349Y-71967962D01*
X225176170Y-71987368D01*
X225165134Y-72005781D01*
X225152346Y-72023024D01*
X225137930Y-72038930D01*
X225122024Y-72053346D01*
X225104781Y-72066134D01*
X225086368Y-72077170D01*
X225066962Y-72086349D01*
X225046750Y-72093581D01*
X225025926Y-72098797D01*
X225004691Y-72101947D01*
X224983250Y-72103000D01*
X224545750Y-72103000D01*
X224524309Y-72101947D01*
X224503074Y-72098797D01*
X224482250Y-72093581D01*
X224462038Y-72086349D01*
X224442632Y-72077170D01*
X224424219Y-72066134D01*
X224406976Y-72053346D01*
X224391070Y-72038930D01*
X224376654Y-72023024D01*
X224363866Y-72005781D01*
X224352830Y-71987368D01*
X224343651Y-71967962D01*
X224336419Y-71947750D01*
X224331203Y-71926926D01*
X224328053Y-71905691D01*
X224327000Y-71884250D01*
X224327000Y-71371750D01*
X224328053Y-71350309D01*
X224331203Y-71329074D01*
X224336419Y-71308250D01*
X224343651Y-71288038D01*
X224352830Y-71268632D01*
X224363866Y-71250219D01*
X224376654Y-71232976D01*
X224391070Y-71217070D01*
X224406976Y-71202654D01*
X224424219Y-71189866D01*
X224442632Y-71178830D01*
X224462038Y-71169651D01*
X224482250Y-71162419D01*
X224503074Y-71157203D01*
X224524309Y-71154053D01*
X224545750Y-71153000D01*
X224983250Y-71153000D01*
X225004691Y-71154053D01*
X225004691Y-71154053D01*
G37*
D17*
G04 #@! TD*
G04 #@! TO.P,C9,1*
G04 #@! TO.N,GND*
X224764500Y-71628000D03*
D16*
G04 #@! TO.N,+3V*
G04 #@! TO.C,C9*
G36*
X226579691Y-71154053D02*
X226600926Y-71157203D01*
X226621750Y-71162419D01*
X226641962Y-71169651D01*
X226661368Y-71178830D01*
X226679781Y-71189866D01*
X226697024Y-71202654D01*
X226712930Y-71217070D01*
X226727346Y-71232976D01*
X226740134Y-71250219D01*
X226751170Y-71268632D01*
X226760349Y-71288038D01*
X226767581Y-71308250D01*
X226772797Y-71329074D01*
X226775947Y-71350309D01*
X226777000Y-71371750D01*
X226777000Y-71884250D01*
X226775947Y-71905691D01*
X226772797Y-71926926D01*
X226767581Y-71947750D01*
X226760349Y-71967962D01*
X226751170Y-71987368D01*
X226740134Y-72005781D01*
X226727346Y-72023024D01*
X226712930Y-72038930D01*
X226697024Y-72053346D01*
X226679781Y-72066134D01*
X226661368Y-72077170D01*
X226641962Y-72086349D01*
X226621750Y-72093581D01*
X226600926Y-72098797D01*
X226579691Y-72101947D01*
X226558250Y-72103000D01*
X226120750Y-72103000D01*
X226099309Y-72101947D01*
X226078074Y-72098797D01*
X226057250Y-72093581D01*
X226037038Y-72086349D01*
X226017632Y-72077170D01*
X225999219Y-72066134D01*
X225981976Y-72053346D01*
X225966070Y-72038930D01*
X225951654Y-72023024D01*
X225938866Y-72005781D01*
X225927830Y-71987368D01*
X225918651Y-71967962D01*
X225911419Y-71947750D01*
X225906203Y-71926926D01*
X225903053Y-71905691D01*
X225902000Y-71884250D01*
X225902000Y-71371750D01*
X225903053Y-71350309D01*
X225906203Y-71329074D01*
X225911419Y-71308250D01*
X225918651Y-71288038D01*
X225927830Y-71268632D01*
X225938866Y-71250219D01*
X225951654Y-71232976D01*
X225966070Y-71217070D01*
X225981976Y-71202654D01*
X225999219Y-71189866D01*
X226017632Y-71178830D01*
X226037038Y-71169651D01*
X226057250Y-71162419D01*
X226078074Y-71157203D01*
X226099309Y-71154053D01*
X226120750Y-71153000D01*
X226558250Y-71153000D01*
X226579691Y-71154053D01*
X226579691Y-71154053D01*
G37*
D17*
G04 #@! TD*
G04 #@! TO.P,C9,2*
G04 #@! TO.N,+3V*
X226339500Y-71628000D03*
D19*
G04 #@! TO.P,J1,1*
G04 #@! TO.N,+BATT*
X226000000Y-64000000D03*
G04 #@! TD*
G04 #@! TO.P,J2,1*
G04 #@! TO.N,GND*
X162000000Y-64000000D03*
G04 #@! TD*
D16*
G04 #@! TO.N,/SCL*
G04 #@! TO.C,R12*
G36*
X222769691Y-72678053D02*
X222790926Y-72681203D01*
X222811750Y-72686419D01*
X222831962Y-72693651D01*
X222851368Y-72702830D01*
X222869781Y-72713866D01*
X222887024Y-72726654D01*
X222902930Y-72741070D01*
X222917346Y-72756976D01*
X222930134Y-72774219D01*
X222941170Y-72792632D01*
X222950349Y-72812038D01*
X222957581Y-72832250D01*
X222962797Y-72853074D01*
X222965947Y-72874309D01*
X222967000Y-72895750D01*
X222967000Y-73408250D01*
X222965947Y-73429691D01*
X222962797Y-73450926D01*
X222957581Y-73471750D01*
X222950349Y-73491962D01*
X222941170Y-73511368D01*
X222930134Y-73529781D01*
X222917346Y-73547024D01*
X222902930Y-73562930D01*
X222887024Y-73577346D01*
X222869781Y-73590134D01*
X222851368Y-73601170D01*
X222831962Y-73610349D01*
X222811750Y-73617581D01*
X222790926Y-73622797D01*
X222769691Y-73625947D01*
X222748250Y-73627000D01*
X222310750Y-73627000D01*
X222289309Y-73625947D01*
X222268074Y-73622797D01*
X222247250Y-73617581D01*
X222227038Y-73610349D01*
X222207632Y-73601170D01*
X222189219Y-73590134D01*
X222171976Y-73577346D01*
X222156070Y-73562930D01*
X222141654Y-73547024D01*
X222128866Y-73529781D01*
X222117830Y-73511368D01*
X222108651Y-73491962D01*
X222101419Y-73471750D01*
X222096203Y-73450926D01*
X222093053Y-73429691D01*
X222092000Y-73408250D01*
X222092000Y-72895750D01*
X222093053Y-72874309D01*
X222096203Y-72853074D01*
X222101419Y-72832250D01*
X222108651Y-72812038D01*
X222117830Y-72792632D01*
X222128866Y-72774219D01*
X222141654Y-72756976D01*
X222156070Y-72741070D01*
X222171976Y-72726654D01*
X222189219Y-72713866D01*
X222207632Y-72702830D01*
X222227038Y-72693651D01*
X222247250Y-72686419D01*
X222268074Y-72681203D01*
X222289309Y-72678053D01*
X222310750Y-72677000D01*
X222748250Y-72677000D01*
X222769691Y-72678053D01*
X222769691Y-72678053D01*
G37*
D17*
G04 #@! TD*
G04 #@! TO.P,R12,1*
G04 #@! TO.N,/SCL*
X222529500Y-73152000D03*
D16*
G04 #@! TO.N,+3V*
G04 #@! TO.C,R12*
G36*
X221194691Y-72678053D02*
X221215926Y-72681203D01*
X221236750Y-72686419D01*
X221256962Y-72693651D01*
X221276368Y-72702830D01*
X221294781Y-72713866D01*
X221312024Y-72726654D01*
X221327930Y-72741070D01*
X221342346Y-72756976D01*
X221355134Y-72774219D01*
X221366170Y-72792632D01*
X221375349Y-72812038D01*
X221382581Y-72832250D01*
X221387797Y-72853074D01*
X221390947Y-72874309D01*
X221392000Y-72895750D01*
X221392000Y-73408250D01*
X221390947Y-73429691D01*
X221387797Y-73450926D01*
X221382581Y-73471750D01*
X221375349Y-73491962D01*
X221366170Y-73511368D01*
X221355134Y-73529781D01*
X221342346Y-73547024D01*
X221327930Y-73562930D01*
X221312024Y-73577346D01*
X221294781Y-73590134D01*
X221276368Y-73601170D01*
X221256962Y-73610349D01*
X221236750Y-73617581D01*
X221215926Y-73622797D01*
X221194691Y-73625947D01*
X221173250Y-73627000D01*
X220735750Y-73627000D01*
X220714309Y-73625947D01*
X220693074Y-73622797D01*
X220672250Y-73617581D01*
X220652038Y-73610349D01*
X220632632Y-73601170D01*
X220614219Y-73590134D01*
X220596976Y-73577346D01*
X220581070Y-73562930D01*
X220566654Y-73547024D01*
X220553866Y-73529781D01*
X220542830Y-73511368D01*
X220533651Y-73491962D01*
X220526419Y-73471750D01*
X220521203Y-73450926D01*
X220518053Y-73429691D01*
X220517000Y-73408250D01*
X220517000Y-72895750D01*
X220518053Y-72874309D01*
X220521203Y-72853074D01*
X220526419Y-72832250D01*
X220533651Y-72812038D01*
X220542830Y-72792632D01*
X220553866Y-72774219D01*
X220566654Y-72756976D01*
X220581070Y-72741070D01*
X220596976Y-72726654D01*
X220614219Y-72713866D01*
X220632632Y-72702830D01*
X220652038Y-72693651D01*
X220672250Y-72686419D01*
X220693074Y-72681203D01*
X220714309Y-72678053D01*
X220735750Y-72677000D01*
X221173250Y-72677000D01*
X221194691Y-72678053D01*
X221194691Y-72678053D01*
G37*
D17*
G04 #@! TD*
G04 #@! TO.P,R12,2*
G04 #@! TO.N,+3V*
X220954500Y-73152000D03*
D20*
G04 #@! TO.N,/EN*
X188722000Y-72644000D03*
X182626000Y-69088000D03*
G04 #@! TO.N,/BOOT*
X175006000Y-67818000D03*
G04 #@! TO.N,/TX*
X184912000Y-57979010D03*
G04 #@! TO.N,/RX*
X183642000Y-58420000D03*
G04 #@! TO.N,Net-(Q4-Pad1)*
X188976006Y-68580000D03*
X208788000Y-62483999D03*
G04 #@! TO.N,Net-(Q3-Pad1)*
X188976000Y-67310000D03*
X204930120Y-62568430D03*
G04 #@! TO.N,Net-(Q2-Pad1)*
X188976000Y-66040000D03*
X197310123Y-62568433D03*
G04 #@! TO.N,Net-(Q1-Pad1)*
X188976000Y-64770000D03*
X193548002Y-62484000D03*
D21*
G04 #@! TO.N,VCC*
X212598000Y-53848000D03*
X212598000Y-72390000D03*
D20*
X215519000Y-66294000D03*
X214630000Y-66294000D03*
G04 #@! TO.N,/SDA*
X189992000Y-68834000D03*
X200406000Y-68797010D03*
X215900000Y-60706000D03*
X219583000Y-72898000D03*
X220852998Y-71374000D03*
G04 #@! TO.N,/SCL*
X202438000Y-68072000D03*
X214884000Y-60706000D03*
X190500000Y-67818000D03*
G04 #@! TO.N,/Alert2*
X189103000Y-63373000D03*
G04 #@! TO.N,/Alert1*
X188976000Y-61976000D03*
X198120000Y-58166000D03*
G04 #@! TO.N,+3V*
X171196000Y-54610000D03*
X202692000Y-58166000D03*
X227965000Y-73152000D03*
X219964000Y-74041000D03*
G04 #@! TD*
D22*
G04 #@! TO.N,GND*
X224452000Y-74168000D02*
X225232000Y-74168000D01*
X225232000Y-74168000D02*
X228346000Y-74168000D01*
X215492000Y-69504000D02*
X215492000Y-68988000D01*
X215492000Y-68988000D02*
X215900000Y-68580000D01*
X215492000Y-70704000D02*
X215492000Y-71474000D01*
X215292000Y-69504000D02*
X215292000Y-68988000D01*
X215292000Y-70704000D02*
X215292000Y-71274000D01*
X215492000Y-70704000D02*
X215492000Y-70304000D01*
X215492000Y-70304000D02*
X215492000Y-69904000D01*
X215492000Y-69904000D02*
X215492000Y-69504000D01*
X215292000Y-69504000D02*
X215292000Y-69904000D01*
X215292000Y-70304000D02*
X215292000Y-70704000D01*
X215292000Y-69904000D02*
X215292000Y-70304000D01*
G04 #@! TO.N,/EN*
X181102000Y-72644000D02*
X188722000Y-72644000D01*
X181102000Y-72644000D02*
X181102000Y-74930000D01*
X181102000Y-72644000D02*
X182626000Y-71120000D01*
X182626000Y-71120000D02*
X182626000Y-69653685D01*
X182626000Y-69653685D02*
X182626000Y-69088000D01*
G04 #@! TO.N,/BOOT*
X174606001Y-68217999D02*
X175006000Y-67818000D01*
X173482000Y-74930000D02*
X173482000Y-69342000D01*
X173482000Y-69342000D02*
X174606001Y-68217999D01*
G04 #@! TO.N,/TX*
X178562000Y-71628000D02*
X184912000Y-65278000D01*
X184912000Y-58544695D02*
X184912000Y-57979010D01*
X184912000Y-65278000D02*
X184912000Y-58544695D01*
X178562000Y-74930000D02*
X178562000Y-71628000D01*
G04 #@! TO.N,/RX*
X183242001Y-58819999D02*
X183242001Y-65423999D01*
X183642000Y-58420000D02*
X183242001Y-58819999D01*
X176022000Y-72644000D02*
X176022000Y-74930000D01*
X183242001Y-65423999D02*
X176022000Y-72644000D01*
G04 #@! TO.N,Net-(Q4-Pad1)*
X208388001Y-62883998D02*
X208788000Y-62483999D01*
X204333001Y-66938998D02*
X208388001Y-62883998D01*
X189738000Y-67400996D02*
X190199998Y-66938998D01*
X188976006Y-68580000D02*
X189738000Y-67818006D01*
X190199998Y-66938998D02*
X204333001Y-66938998D01*
X189738000Y-67818006D02*
X189738000Y-67400996D01*
G04 #@! TO.N,Net-(Q3-Pad1)*
X192699988Y-63586012D02*
X203912538Y-63586012D01*
X203912538Y-63586012D02*
X204530121Y-62968429D01*
X188976000Y-67310000D02*
X192699988Y-63586012D01*
X204530121Y-62968429D02*
X204930120Y-62568430D01*
G04 #@! TO.N,Net-(Q2-Pad1)*
X188976000Y-66040000D02*
X191779999Y-63236001D01*
X191779999Y-63236001D02*
X196642555Y-63236001D01*
X196642555Y-63236001D02*
X196910124Y-62968432D01*
X196910124Y-62968432D02*
X197310123Y-62568433D01*
G04 #@! TO.N,Net-(Q1-Pad1)*
X188976000Y-64770000D02*
X191262000Y-62484000D01*
X191262000Y-62484000D02*
X192982317Y-62484000D01*
X192982317Y-62484000D02*
X193548002Y-62484000D01*
D23*
G04 #@! TO.N,VCC*
X212598000Y-53848000D02*
X212598000Y-55262213D01*
X212598000Y-55262213D02*
X212598000Y-61976000D01*
D22*
X212598000Y-61976000D02*
X212598000Y-65894001D01*
D24*
X212598000Y-65894001D02*
X212870999Y-66167000D01*
D22*
X212725000Y-66167000D02*
X212598000Y-66294000D01*
D23*
X212598000Y-61976000D02*
X212598000Y-66294000D01*
X212598000Y-66294000D02*
X212598000Y-72390000D01*
X214953315Y-66294000D02*
X215519000Y-66294000D01*
X212852000Y-66294000D02*
X214953315Y-66294000D01*
X212725000Y-66167000D02*
X212852000Y-66294000D01*
D22*
G04 #@! TO.N,/SDA*
X189992000Y-68834000D02*
X200369010Y-68834000D01*
X200369010Y-68834000D02*
X200406000Y-68797010D01*
X222971500Y-75118000D02*
X224452000Y-75118000D01*
X222529500Y-74676000D02*
X222971500Y-75118000D01*
X222301000Y-75692000D02*
X222529500Y-75463500D01*
X222529500Y-75463500D02*
X222529500Y-74676000D01*
X218567000Y-73914000D02*
X219583000Y-72898000D01*
X218567000Y-75692000D02*
X218567000Y-73914000D01*
X218567000Y-75692000D02*
X222301000Y-75692000D01*
X215900000Y-62230000D02*
X218440000Y-64770000D01*
X215900000Y-60706000D02*
X215900000Y-62230000D01*
X218440000Y-64770000D02*
X218440000Y-66548000D01*
X218440000Y-66548000D02*
X219202000Y-67310000D01*
X220452999Y-70974001D02*
X220852998Y-71374000D01*
X219202000Y-67310000D02*
X219202000Y-69723002D01*
X219202000Y-69723002D02*
X220452999Y-70974001D01*
X193657020Y-76042010D02*
X189992000Y-72376990D01*
X218216990Y-76042010D02*
X193657020Y-76042010D01*
X189992000Y-72376990D02*
X189992000Y-69399685D01*
X189992000Y-69399685D02*
X189992000Y-68834000D01*
X218567000Y-75692000D02*
X218216990Y-76042010D01*
G04 #@! TO.N,/SCL*
X224386000Y-73152000D02*
X224452000Y-73218000D01*
X222529500Y-73152000D02*
X224386000Y-73152000D01*
X222529500Y-72161500D02*
X222529500Y-73152000D01*
X222377000Y-72009000D02*
X222529500Y-72161500D01*
X218821000Y-72009000D02*
X222377000Y-72009000D01*
X190754000Y-68072000D02*
X190500000Y-67818000D01*
X202438000Y-68072000D02*
X190754000Y-68072000D01*
X218694000Y-67564000D02*
X218694000Y-71882000D01*
X217932000Y-66802000D02*
X218694000Y-67564000D01*
X218694000Y-71882000D02*
X218821000Y-72009000D01*
X214884000Y-60706000D02*
X214884000Y-61976000D01*
X217932000Y-65024000D02*
X217932000Y-66802000D01*
X214884000Y-61976000D02*
X217932000Y-65024000D01*
X218821000Y-72009000D02*
X215138000Y-75692000D01*
X215138000Y-75692000D02*
X193802000Y-75692000D01*
X190500000Y-70104000D02*
X191181989Y-69422011D01*
X201087989Y-69422011D02*
X202438000Y-68072000D01*
X193802000Y-75692000D02*
X190500000Y-72390000D01*
X190500000Y-72390000D02*
X190500000Y-70104000D01*
X191181989Y-69422011D02*
X201087989Y-69422011D01*
G04 #@! TO.N,/Alert2*
X226840000Y-74930000D02*
X226652000Y-75118000D01*
X230378000Y-74930000D02*
X226840000Y-74930000D01*
X224597980Y-76392020D02*
X193486020Y-76392020D01*
X188703001Y-63772999D02*
X189103000Y-63373000D01*
X188279978Y-71185978D02*
X188279978Y-64196022D01*
X188279978Y-64196022D02*
X188703001Y-63772999D01*
X193486020Y-76392020D02*
X188279978Y-71185978D01*
X225872000Y-75118000D02*
X224597980Y-76392020D01*
X226652000Y-75118000D02*
X225872000Y-75118000D01*
G04 #@! TO.N,/Alert1*
X188976000Y-61976000D02*
X192786000Y-58166000D01*
X192786000Y-58166000D02*
X198628000Y-58166000D01*
G04 #@! TO.N,+3V*
X226339500Y-72905500D02*
X226652000Y-73218000D01*
X226339500Y-71628000D02*
X226339500Y-72905500D01*
X226718000Y-73152000D02*
X226652000Y-73218000D01*
X227965000Y-73152000D02*
X226718000Y-73152000D01*
X220192500Y-73914000D02*
X220192500Y-73997185D01*
X220148685Y-74041000D02*
X219964000Y-74041000D01*
X220954500Y-74676000D02*
X220192500Y-73914000D01*
X220192500Y-73997185D02*
X220148685Y-74041000D01*
X220954500Y-73152000D02*
X220192500Y-73914000D01*
X201930000Y-57404000D02*
X202692000Y-58166000D01*
X186944000Y-57404000D02*
X201930000Y-57404000D01*
X171196000Y-54610000D02*
X184150000Y-54610000D01*
X184150000Y-54610000D02*
X186944000Y-57404000D01*
G04 #@! TD*
D25*
G04 #@! TO.N,GND*
G36*
X232290000Y-70687173D02*
X232290000Y-76290000D01*
X231330239Y-76290000D01*
X231764086Y-75856153D01*
X232013000Y-75255222D01*
X232013000Y-74604778D01*
X231764086Y-74003847D01*
X231304153Y-73543914D01*
X230703222Y-73295000D01*
X230052778Y-73295000D01*
X229451847Y-73543914D01*
X228991914Y-74003847D01*
X228923091Y-74170000D01*
X228211916Y-74170000D01*
X228551280Y-74029431D01*
X228842431Y-73738280D01*
X229000000Y-73357874D01*
X229000000Y-72946126D01*
X228842431Y-72565720D01*
X228551280Y-72274569D01*
X228170874Y-72117000D01*
X227759126Y-72117000D01*
X227378720Y-72274569D01*
X227370278Y-72283011D01*
X227320203Y-72273050D01*
X227358505Y-72215727D01*
X227424440Y-71884250D01*
X227424440Y-71371750D01*
X227358505Y-71040273D01*
X227170739Y-70759261D01*
X226972796Y-70627000D01*
X231987491Y-70627000D01*
X232290000Y-70687173D01*
X232290000Y-70687173D01*
G37*
X232290000Y-70687173D02*
X232290000Y-76290000D01*
X231330239Y-76290000D01*
X231764086Y-75856153D01*
X232013000Y-75255222D01*
X232013000Y-74604778D01*
X231764086Y-74003847D01*
X231304153Y-73543914D01*
X230703222Y-73295000D01*
X230052778Y-73295000D01*
X229451847Y-73543914D01*
X228991914Y-74003847D01*
X228923091Y-74170000D01*
X228211916Y-74170000D01*
X228551280Y-74029431D01*
X228842431Y-73738280D01*
X229000000Y-73357874D01*
X229000000Y-72946126D01*
X228842431Y-72565720D01*
X228551280Y-72274569D01*
X228170874Y-72117000D01*
X227759126Y-72117000D01*
X227378720Y-72274569D01*
X227370278Y-72283011D01*
X227320203Y-72273050D01*
X227358505Y-72215727D01*
X227424440Y-71884250D01*
X227424440Y-71371750D01*
X227358505Y-71040273D01*
X227170739Y-70759261D01*
X226972796Y-70627000D01*
X231987491Y-70627000D01*
X232290000Y-70687173D01*
G36*
X188135720Y-73521431D02*
X188516126Y-73679000D01*
X188927874Y-73679000D01*
X189308280Y-73521431D01*
X189424455Y-73405256D01*
X192309198Y-76290000D01*
X181739545Y-76290000D01*
X182172625Y-76000625D01*
X182500839Y-75509418D01*
X182616092Y-74930000D01*
X182500839Y-74350582D01*
X182172625Y-73859375D01*
X181862000Y-73651822D01*
X181862000Y-73404000D01*
X188018289Y-73404000D01*
X188135720Y-73521431D01*
X188135720Y-73521431D01*
G37*
X188135720Y-73521431D02*
X188516126Y-73679000D01*
X188927874Y-73679000D01*
X189308280Y-73521431D01*
X189424455Y-73405256D01*
X192309198Y-76290000D01*
X181739545Y-76290000D01*
X182172625Y-76000625D01*
X182500839Y-75509418D01*
X182616092Y-74930000D01*
X182500839Y-74350582D01*
X182172625Y-73859375D01*
X181862000Y-73651822D01*
X181862000Y-73404000D01*
X188018289Y-73404000D01*
X188135720Y-73521431D01*
G36*
X169429000Y-52830000D02*
X169438667Y-52878601D01*
X169466197Y-52919803D01*
X169507399Y-52947333D01*
X169556000Y-52957000D01*
X187590000Y-52957000D01*
X187638601Y-52947333D01*
X187679803Y-52919803D01*
X187707333Y-52878601D01*
X187717000Y-52830000D01*
X187717000Y-51710000D01*
X210312827Y-51710000D01*
X210370512Y-52000000D01*
X210304248Y-52333130D01*
X210115545Y-52615545D01*
X209833130Y-52804248D01*
X209487491Y-52873000D01*
X191500000Y-52873000D01*
X191475224Y-52875440D01*
X191092541Y-52951560D01*
X191046760Y-52970523D01*
X190722336Y-53187296D01*
X190687296Y-53222336D01*
X190470523Y-53546760D01*
X190451560Y-53592541D01*
X190375440Y-53975224D01*
X190373000Y-54000000D01*
X190373000Y-56500000D01*
X190375440Y-56524776D01*
X190399155Y-56644000D01*
X187258802Y-56644000D01*
X184740331Y-54125530D01*
X184697929Y-54062071D01*
X184446537Y-53894096D01*
X184224852Y-53850000D01*
X184224847Y-53850000D01*
X184150000Y-53835112D01*
X184075153Y-53850000D01*
X171899711Y-53850000D01*
X171782280Y-53732569D01*
X171401874Y-53575000D01*
X170990126Y-53575000D01*
X170609720Y-53732569D01*
X170318569Y-54023720D01*
X170161000Y-54404126D01*
X170161000Y-54815874D01*
X170318569Y-55196280D01*
X170609720Y-55487431D01*
X170990126Y-55645000D01*
X171401874Y-55645000D01*
X171782280Y-55487431D01*
X171899711Y-55370000D01*
X183835199Y-55370000D01*
X186353670Y-57888472D01*
X186396071Y-57951929D01*
X186459527Y-57994329D01*
X186647462Y-58119904D01*
X186665355Y-58123463D01*
X186869148Y-58164000D01*
X186869152Y-58164000D01*
X186944000Y-58178888D01*
X187018848Y-58164000D01*
X191713198Y-58164000D01*
X188936199Y-60941000D01*
X188770126Y-60941000D01*
X188389720Y-61098569D01*
X188098569Y-61389720D01*
X187941000Y-61770126D01*
X187941000Y-62181874D01*
X188098569Y-62562280D01*
X188274289Y-62738000D01*
X188225569Y-62786720D01*
X188068000Y-63167126D01*
X188068000Y-63333199D01*
X187795506Y-63605693D01*
X187732050Y-63648093D01*
X187689650Y-63711549D01*
X187689649Y-63711550D01*
X187564075Y-63899485D01*
X187505090Y-64196022D01*
X187519979Y-64270874D01*
X187519978Y-71111131D01*
X187505090Y-71185978D01*
X187519978Y-71260825D01*
X187519978Y-71260829D01*
X187564074Y-71482514D01*
X187732049Y-71733907D01*
X187795508Y-71776309D01*
X187903199Y-71884000D01*
X182936803Y-71884000D01*
X183110476Y-71710327D01*
X183173929Y-71667929D01*
X183216327Y-71604476D01*
X183216329Y-71604474D01*
X183341903Y-71416538D01*
X183341904Y-71416537D01*
X183386000Y-71194852D01*
X183386000Y-71194848D01*
X183400888Y-71120001D01*
X183386000Y-71045154D01*
X183386000Y-69791711D01*
X183503431Y-69674280D01*
X183661000Y-69293874D01*
X183661000Y-68882126D01*
X183503431Y-68501720D01*
X183212280Y-68210569D01*
X183100524Y-68164278D01*
X185396473Y-65868329D01*
X185459929Y-65825929D01*
X185627904Y-65574537D01*
X185672000Y-65352852D01*
X185672000Y-65352848D01*
X185686888Y-65278001D01*
X185672000Y-65203154D01*
X185672000Y-58682721D01*
X185789431Y-58565290D01*
X185947000Y-58184884D01*
X185947000Y-57773136D01*
X185789431Y-57392730D01*
X185498280Y-57101579D01*
X185117874Y-56944010D01*
X184706126Y-56944010D01*
X184325720Y-57101579D01*
X184034569Y-57392730D01*
X184009961Y-57452139D01*
X183847874Y-57385000D01*
X183436126Y-57385000D01*
X183055720Y-57542569D01*
X182764569Y-57833720D01*
X182607000Y-58214126D01*
X182607000Y-58402383D01*
X182526097Y-58523463D01*
X182482001Y-58745148D01*
X182482001Y-58745152D01*
X182467113Y-58819999D01*
X182482001Y-58894846D01*
X182482002Y-65109195D01*
X175537530Y-72053669D01*
X175474071Y-72096071D01*
X175306096Y-72347464D01*
X175262000Y-72569149D01*
X175262000Y-72569153D01*
X175247112Y-72644000D01*
X175262000Y-72718847D01*
X175262000Y-73651822D01*
X174951375Y-73859375D01*
X174752000Y-74157761D01*
X174552625Y-73859375D01*
X174242000Y-73651822D01*
X174242000Y-69656801D01*
X175045803Y-68853000D01*
X175211874Y-68853000D01*
X175592280Y-68695431D01*
X175883431Y-68404280D01*
X176041000Y-68023874D01*
X176041000Y-67612126D01*
X175883431Y-67231720D01*
X175592280Y-66940569D01*
X175211874Y-66783000D01*
X174800126Y-66783000D01*
X174419720Y-66940569D01*
X174128569Y-67231720D01*
X173971000Y-67612126D01*
X173971000Y-67778197D01*
X172997527Y-68751671D01*
X172934072Y-68794071D01*
X172891672Y-68857527D01*
X172891671Y-68857528D01*
X172801227Y-68992887D01*
X172766097Y-69045463D01*
X172753857Y-69107000D01*
X172707112Y-69342000D01*
X172722001Y-69416852D01*
X172722000Y-73651822D01*
X172411375Y-73859375D01*
X172083161Y-74350582D01*
X171967908Y-74930000D01*
X172083161Y-75509418D01*
X172411375Y-76000625D01*
X172844455Y-76290000D01*
X155710000Y-76290000D01*
X155710000Y-51710000D01*
X169429000Y-51710000D01*
X169429000Y-52830000D01*
X169429000Y-52830000D01*
G37*
X169429000Y-52830000D02*
X169438667Y-52878601D01*
X169466197Y-52919803D01*
X169507399Y-52947333D01*
X169556000Y-52957000D01*
X187590000Y-52957000D01*
X187638601Y-52947333D01*
X187679803Y-52919803D01*
X187707333Y-52878601D01*
X187717000Y-52830000D01*
X187717000Y-51710000D01*
X210312827Y-51710000D01*
X210370512Y-52000000D01*
X210304248Y-52333130D01*
X210115545Y-52615545D01*
X209833130Y-52804248D01*
X209487491Y-52873000D01*
X191500000Y-52873000D01*
X191475224Y-52875440D01*
X191092541Y-52951560D01*
X191046760Y-52970523D01*
X190722336Y-53187296D01*
X190687296Y-53222336D01*
X190470523Y-53546760D01*
X190451560Y-53592541D01*
X190375440Y-53975224D01*
X190373000Y-54000000D01*
X190373000Y-56500000D01*
X190375440Y-56524776D01*
X190399155Y-56644000D01*
X187258802Y-56644000D01*
X184740331Y-54125530D01*
X184697929Y-54062071D01*
X184446537Y-53894096D01*
X184224852Y-53850000D01*
X184224847Y-53850000D01*
X184150000Y-53835112D01*
X184075153Y-53850000D01*
X171899711Y-53850000D01*
X171782280Y-53732569D01*
X171401874Y-53575000D01*
X170990126Y-53575000D01*
X170609720Y-53732569D01*
X170318569Y-54023720D01*
X170161000Y-54404126D01*
X170161000Y-54815874D01*
X170318569Y-55196280D01*
X170609720Y-55487431D01*
X170990126Y-55645000D01*
X171401874Y-55645000D01*
X171782280Y-55487431D01*
X171899711Y-55370000D01*
X183835199Y-55370000D01*
X186353670Y-57888472D01*
X186396071Y-57951929D01*
X186459527Y-57994329D01*
X186647462Y-58119904D01*
X186665355Y-58123463D01*
X186869148Y-58164000D01*
X186869152Y-58164000D01*
X186944000Y-58178888D01*
X187018848Y-58164000D01*
X191713198Y-58164000D01*
X188936199Y-60941000D01*
X188770126Y-60941000D01*
X188389720Y-61098569D01*
X188098569Y-61389720D01*
X187941000Y-61770126D01*
X187941000Y-62181874D01*
X188098569Y-62562280D01*
X188274289Y-62738000D01*
X188225569Y-62786720D01*
X188068000Y-63167126D01*
X188068000Y-63333199D01*
X187795506Y-63605693D01*
X187732050Y-63648093D01*
X187689650Y-63711549D01*
X187689649Y-63711550D01*
X187564075Y-63899485D01*
X187505090Y-64196022D01*
X187519979Y-64270874D01*
X187519978Y-71111131D01*
X187505090Y-71185978D01*
X187519978Y-71260825D01*
X187519978Y-71260829D01*
X187564074Y-71482514D01*
X187732049Y-71733907D01*
X187795508Y-71776309D01*
X187903199Y-71884000D01*
X182936803Y-71884000D01*
X183110476Y-71710327D01*
X183173929Y-71667929D01*
X183216327Y-71604476D01*
X183216329Y-71604474D01*
X183341903Y-71416538D01*
X183341904Y-71416537D01*
X183386000Y-71194852D01*
X183386000Y-71194848D01*
X183400888Y-71120001D01*
X183386000Y-71045154D01*
X183386000Y-69791711D01*
X183503431Y-69674280D01*
X183661000Y-69293874D01*
X183661000Y-68882126D01*
X183503431Y-68501720D01*
X183212280Y-68210569D01*
X183100524Y-68164278D01*
X185396473Y-65868329D01*
X185459929Y-65825929D01*
X185627904Y-65574537D01*
X185672000Y-65352852D01*
X185672000Y-65352848D01*
X185686888Y-65278001D01*
X185672000Y-65203154D01*
X185672000Y-58682721D01*
X185789431Y-58565290D01*
X185947000Y-58184884D01*
X185947000Y-57773136D01*
X185789431Y-57392730D01*
X185498280Y-57101579D01*
X185117874Y-56944010D01*
X184706126Y-56944010D01*
X184325720Y-57101579D01*
X184034569Y-57392730D01*
X184009961Y-57452139D01*
X183847874Y-57385000D01*
X183436126Y-57385000D01*
X183055720Y-57542569D01*
X182764569Y-57833720D01*
X182607000Y-58214126D01*
X182607000Y-58402383D01*
X182526097Y-58523463D01*
X182482001Y-58745148D01*
X182482001Y-58745152D01*
X182467113Y-58819999D01*
X182482001Y-58894846D01*
X182482002Y-65109195D01*
X175537530Y-72053669D01*
X175474071Y-72096071D01*
X175306096Y-72347464D01*
X175262000Y-72569149D01*
X175262000Y-72569153D01*
X175247112Y-72644000D01*
X175262000Y-72718847D01*
X175262000Y-73651822D01*
X174951375Y-73859375D01*
X174752000Y-74157761D01*
X174552625Y-73859375D01*
X174242000Y-73651822D01*
X174242000Y-69656801D01*
X175045803Y-68853000D01*
X175211874Y-68853000D01*
X175592280Y-68695431D01*
X175883431Y-68404280D01*
X176041000Y-68023874D01*
X176041000Y-67612126D01*
X175883431Y-67231720D01*
X175592280Y-66940569D01*
X175211874Y-66783000D01*
X174800126Y-66783000D01*
X174419720Y-66940569D01*
X174128569Y-67231720D01*
X173971000Y-67612126D01*
X173971000Y-67778197D01*
X172997527Y-68751671D01*
X172934072Y-68794071D01*
X172891672Y-68857527D01*
X172891671Y-68857528D01*
X172801227Y-68992887D01*
X172766097Y-69045463D01*
X172753857Y-69107000D01*
X172707112Y-69342000D01*
X172722001Y-69416852D01*
X172722000Y-73651822D01*
X172411375Y-73859375D01*
X172083161Y-74350582D01*
X171967908Y-74930000D01*
X172083161Y-75509418D01*
X172411375Y-76000625D01*
X172844455Y-76290000D01*
X155710000Y-76290000D01*
X155710000Y-51710000D01*
X169429000Y-51710000D01*
X169429000Y-52830000D01*
G36*
X217807000Y-75282010D02*
X216622791Y-75282010D01*
X217807001Y-74097801D01*
X217807000Y-75282010D01*
X217807000Y-75282010D01*
G37*
X217807000Y-75282010D02*
X216622791Y-75282010D01*
X217807001Y-74097801D01*
X217807000Y-75282010D01*
G36*
X216425325Y-57685427D02*
X216693578Y-57847108D01*
X216887285Y-58093239D01*
X216984905Y-58403141D01*
X217361699Y-61417497D01*
X217363864Y-61429839D01*
X217407459Y-61622032D01*
X217410830Y-61634099D01*
X217926794Y-63181992D01*
X216660000Y-61915199D01*
X216660000Y-61409711D01*
X216777431Y-61292280D01*
X216935000Y-60911874D01*
X216935000Y-60500126D01*
X216777431Y-60119720D01*
X216486280Y-59828569D01*
X216105874Y-59671000D01*
X215694126Y-59671000D01*
X215392000Y-59796144D01*
X215089874Y-59671000D01*
X214678126Y-59671000D01*
X214297720Y-59828569D01*
X214006569Y-60119720D01*
X213849000Y-60500126D01*
X213849000Y-60911874D01*
X214006569Y-61292280D01*
X214124001Y-61409712D01*
X214124001Y-61901148D01*
X214109112Y-61976000D01*
X214168097Y-62272537D01*
X214265864Y-62418855D01*
X214336072Y-62523929D01*
X214399528Y-62566329D01*
X217172000Y-65338802D01*
X217172001Y-66727148D01*
X217157112Y-66802000D01*
X217172001Y-66876852D01*
X217205072Y-67043112D01*
X217216097Y-67098537D01*
X217330717Y-67270077D01*
X217384072Y-67349929D01*
X217447528Y-67392329D01*
X217934000Y-67878802D01*
X217934001Y-71807148D01*
X217930513Y-71824686D01*
X214823199Y-74932000D01*
X194116802Y-74932000D01*
X193811802Y-74627000D01*
X214000000Y-74627000D01*
X214024776Y-74624560D01*
X214407459Y-74548440D01*
X214453240Y-74529477D01*
X214777664Y-74312704D01*
X214812704Y-74277664D01*
X215029477Y-73953240D01*
X215048440Y-73907459D01*
X215124560Y-73524776D01*
X215127000Y-73500000D01*
X215127000Y-71500000D01*
X215124560Y-71475224D01*
X215048440Y-71092541D01*
X215029477Y-71046760D01*
X214812704Y-70722336D01*
X214777664Y-70687296D01*
X214453240Y-70470523D01*
X214407459Y-70451560D01*
X214024776Y-70375440D01*
X214000000Y-70373000D01*
X213733000Y-70373000D01*
X213733000Y-67429000D01*
X215630783Y-67429000D01*
X215961855Y-67363146D01*
X216337289Y-67112289D01*
X216588146Y-66736855D01*
X216676235Y-66294000D01*
X216588146Y-65851145D01*
X216337289Y-65475711D01*
X215961855Y-65224854D01*
X215630783Y-65159000D01*
X213733000Y-65159000D01*
X213733000Y-57627000D01*
X216105705Y-57627000D01*
X216425325Y-57685427D01*
X216425325Y-57685427D01*
G37*
X216425325Y-57685427D02*
X216693578Y-57847108D01*
X216887285Y-58093239D01*
X216984905Y-58403141D01*
X217361699Y-61417497D01*
X217363864Y-61429839D01*
X217407459Y-61622032D01*
X217410830Y-61634099D01*
X217926794Y-63181992D01*
X216660000Y-61915199D01*
X216660000Y-61409711D01*
X216777431Y-61292280D01*
X216935000Y-60911874D01*
X216935000Y-60500126D01*
X216777431Y-60119720D01*
X216486280Y-59828569D01*
X216105874Y-59671000D01*
X215694126Y-59671000D01*
X215392000Y-59796144D01*
X215089874Y-59671000D01*
X214678126Y-59671000D01*
X214297720Y-59828569D01*
X214006569Y-60119720D01*
X213849000Y-60500126D01*
X213849000Y-60911874D01*
X214006569Y-61292280D01*
X214124001Y-61409712D01*
X214124001Y-61901148D01*
X214109112Y-61976000D01*
X214168097Y-62272537D01*
X214265864Y-62418855D01*
X214336072Y-62523929D01*
X214399528Y-62566329D01*
X217172000Y-65338802D01*
X217172001Y-66727148D01*
X217157112Y-66802000D01*
X217172001Y-66876852D01*
X217205072Y-67043112D01*
X217216097Y-67098537D01*
X217330717Y-67270077D01*
X217384072Y-67349929D01*
X217447528Y-67392329D01*
X217934000Y-67878802D01*
X217934001Y-71807148D01*
X217930513Y-71824686D01*
X214823199Y-74932000D01*
X194116802Y-74932000D01*
X193811802Y-74627000D01*
X214000000Y-74627000D01*
X214024776Y-74624560D01*
X214407459Y-74548440D01*
X214453240Y-74529477D01*
X214777664Y-74312704D01*
X214812704Y-74277664D01*
X215029477Y-73953240D01*
X215048440Y-73907459D01*
X215124560Y-73524776D01*
X215127000Y-73500000D01*
X215127000Y-71500000D01*
X215124560Y-71475224D01*
X215048440Y-71092541D01*
X215029477Y-71046760D01*
X214812704Y-70722336D01*
X214777664Y-70687296D01*
X214453240Y-70470523D01*
X214407459Y-70451560D01*
X214024776Y-70375440D01*
X214000000Y-70373000D01*
X213733000Y-70373000D01*
X213733000Y-67429000D01*
X215630783Y-67429000D01*
X215961855Y-67363146D01*
X216337289Y-67112289D01*
X216588146Y-66736855D01*
X216676235Y-66294000D01*
X216588146Y-65851145D01*
X216337289Y-65475711D01*
X215961855Y-65224854D01*
X215630783Y-65159000D01*
X213733000Y-65159000D01*
X213733000Y-57627000D01*
X216105705Y-57627000D01*
X216425325Y-57685427D01*
G36*
X225664191Y-74000809D02*
X225874235Y-74141157D01*
X226009185Y-74168000D01*
X225874235Y-74194843D01*
X225664191Y-74335191D01*
X225626234Y-74391997D01*
X225575463Y-74402096D01*
X225575461Y-74402097D01*
X225575462Y-74402097D01*
X225569398Y-74406148D01*
X225458250Y-74295000D01*
X225379659Y-74295000D01*
X225229765Y-74194843D01*
X225094815Y-74168000D01*
X225229765Y-74141157D01*
X225379659Y-74041000D01*
X225458250Y-74041000D01*
X225597801Y-73901449D01*
X225664191Y-74000809D01*
X225664191Y-74000809D01*
G37*
X225664191Y-74000809D02*
X225874235Y-74141157D01*
X226009185Y-74168000D01*
X225874235Y-74194843D01*
X225664191Y-74335191D01*
X225626234Y-74391997D01*
X225575463Y-74402096D01*
X225575461Y-74402097D01*
X225575462Y-74402097D01*
X225569398Y-74406148D01*
X225458250Y-74295000D01*
X225379659Y-74295000D01*
X225229765Y-74194843D01*
X225094815Y-74168000D01*
X225229765Y-74141157D01*
X225379659Y-74041000D01*
X225458250Y-74041000D01*
X225597801Y-73901449D01*
X225664191Y-74000809D01*
G36*
X223788673Y-70793301D02*
X223692000Y-71026690D01*
X223692000Y-71342250D01*
X223850750Y-71501000D01*
X224637500Y-71501000D01*
X224637500Y-71481000D01*
X224891500Y-71481000D01*
X224891500Y-71501000D01*
X224911500Y-71501000D01*
X224911500Y-71755000D01*
X224891500Y-71755000D01*
X224891500Y-71775000D01*
X224637500Y-71775000D01*
X224637500Y-71755000D01*
X223850750Y-71755000D01*
X223692000Y-71913750D01*
X223692000Y-72229310D01*
X223715726Y-72286590D01*
X223674235Y-72294843D01*
X223528830Y-72392000D01*
X223433396Y-72392000D01*
X223360739Y-72283261D01*
X223289621Y-72235741D01*
X223304388Y-72161500D01*
X223289500Y-72086652D01*
X223289500Y-72086648D01*
X223245404Y-71864963D01*
X223077429Y-71613571D01*
X223013970Y-71571169D01*
X222967331Y-71524530D01*
X222924929Y-71461071D01*
X222673537Y-71293096D01*
X222451852Y-71249000D01*
X222451847Y-71249000D01*
X222377000Y-71234112D01*
X222302153Y-71249000D01*
X221887998Y-71249000D01*
X221887998Y-71168126D01*
X221730429Y-70787720D01*
X221569709Y-70627000D01*
X223954975Y-70627000D01*
X223788673Y-70793301D01*
X223788673Y-70793301D01*
G37*
X223788673Y-70793301D02*
X223692000Y-71026690D01*
X223692000Y-71342250D01*
X223850750Y-71501000D01*
X224637500Y-71501000D01*
X224637500Y-71481000D01*
X224891500Y-71481000D01*
X224891500Y-71501000D01*
X224911500Y-71501000D01*
X224911500Y-71755000D01*
X224891500Y-71755000D01*
X224891500Y-71775000D01*
X224637500Y-71775000D01*
X224637500Y-71755000D01*
X223850750Y-71755000D01*
X223692000Y-71913750D01*
X223692000Y-72229310D01*
X223715726Y-72286590D01*
X223674235Y-72294843D01*
X223528830Y-72392000D01*
X223433396Y-72392000D01*
X223360739Y-72283261D01*
X223289621Y-72235741D01*
X223304388Y-72161500D01*
X223289500Y-72086652D01*
X223289500Y-72086648D01*
X223245404Y-71864963D01*
X223077429Y-71613571D01*
X223013970Y-71571169D01*
X222967331Y-71524530D01*
X222924929Y-71461071D01*
X222673537Y-71293096D01*
X222451852Y-71249000D01*
X222451847Y-71249000D01*
X222377000Y-71234112D01*
X222302153Y-71249000D01*
X221887998Y-71249000D01*
X221887998Y-71168126D01*
X221730429Y-70787720D01*
X221569709Y-70627000D01*
X223954975Y-70627000D01*
X223788673Y-70793301D01*
G36*
X211463001Y-61864213D02*
X211463000Y-61864218D01*
X211463001Y-66182213D01*
X211463000Y-66182218D01*
X211463001Y-70373000D01*
X192000000Y-70373000D01*
X191975224Y-70375440D01*
X191592541Y-70451560D01*
X191546760Y-70470523D01*
X191260000Y-70662130D01*
X191260000Y-70418801D01*
X191496791Y-70182011D01*
X201013142Y-70182011D01*
X201087989Y-70196899D01*
X201162836Y-70182011D01*
X201162841Y-70182011D01*
X201384526Y-70137915D01*
X201635918Y-69969940D01*
X201678320Y-69906481D01*
X202477802Y-69107000D01*
X202643874Y-69107000D01*
X203024280Y-68949431D01*
X203315431Y-68658280D01*
X203473000Y-68277874D01*
X203473000Y-67866126D01*
X203403773Y-67698998D01*
X204258154Y-67698998D01*
X204333001Y-67713886D01*
X204407848Y-67698998D01*
X204407853Y-67698998D01*
X204629538Y-67654902D01*
X204880930Y-67486927D01*
X204923332Y-67423468D01*
X208827802Y-63518999D01*
X208993874Y-63518999D01*
X209374280Y-63361430D01*
X209665431Y-63070279D01*
X209823000Y-62689873D01*
X209823000Y-62278125D01*
X209665431Y-61897719D01*
X209374280Y-61606568D01*
X208993874Y-61448999D01*
X208582126Y-61448999D01*
X208201720Y-61606568D01*
X207910569Y-61897719D01*
X207753000Y-62278125D01*
X207753000Y-62444197D01*
X204018200Y-66178998D01*
X191181804Y-66178998D01*
X193014791Y-64346012D01*
X203837691Y-64346012D01*
X203912538Y-64360900D01*
X203987385Y-64346012D01*
X203987390Y-64346012D01*
X204209075Y-64301916D01*
X204460467Y-64133941D01*
X204502869Y-64070482D01*
X204969922Y-63603430D01*
X205135994Y-63603430D01*
X205516400Y-63445861D01*
X205807551Y-63154710D01*
X205965120Y-62774304D01*
X205965120Y-62362556D01*
X205807551Y-61982150D01*
X205516400Y-61690999D01*
X205135994Y-61533430D01*
X204724246Y-61533430D01*
X204343840Y-61690999D01*
X204052689Y-61982150D01*
X203895120Y-62362556D01*
X203895120Y-62528628D01*
X203597737Y-62826012D01*
X198323706Y-62826012D01*
X198345123Y-62774307D01*
X198345123Y-62362559D01*
X198187554Y-61982153D01*
X197896403Y-61691002D01*
X197515997Y-61533433D01*
X197104249Y-61533433D01*
X196723843Y-61691002D01*
X196432692Y-61982153D01*
X196275123Y-62362559D01*
X196275123Y-62476001D01*
X194583002Y-62476001D01*
X194583002Y-62278126D01*
X194425433Y-61897720D01*
X194134282Y-61606569D01*
X193753876Y-61449000D01*
X193342128Y-61449000D01*
X192961722Y-61606569D01*
X192844291Y-61724000D01*
X191336846Y-61724000D01*
X191261999Y-61709112D01*
X191187152Y-61724000D01*
X191187148Y-61724000D01*
X190965463Y-61768096D01*
X190714071Y-61936071D01*
X190671671Y-61999527D01*
X189932455Y-62738744D01*
X189804711Y-62611000D01*
X189853431Y-62562280D01*
X190011000Y-62181874D01*
X190011000Y-62015801D01*
X193100802Y-58926000D01*
X197416289Y-58926000D01*
X197533720Y-59043431D01*
X197914126Y-59201000D01*
X198325874Y-59201000D01*
X198706280Y-59043431D01*
X198853721Y-58895990D01*
X198924537Y-58881904D01*
X199175929Y-58713929D01*
X199343904Y-58462537D01*
X199402889Y-58166000D01*
X199402491Y-58164000D01*
X201615199Y-58164000D01*
X201657000Y-58205801D01*
X201657000Y-58371874D01*
X201814569Y-58752280D01*
X202105720Y-59043431D01*
X202486126Y-59201000D01*
X202897874Y-59201000D01*
X203278280Y-59043431D01*
X203569431Y-58752280D01*
X203727000Y-58371874D01*
X203727000Y-57960126D01*
X203589015Y-57627000D01*
X211463000Y-57627000D01*
X211463001Y-61864213D01*
X211463001Y-61864213D01*
G37*
X211463001Y-61864213D02*
X211463000Y-61864218D01*
X211463001Y-66182213D01*
X211463000Y-66182218D01*
X211463001Y-70373000D01*
X192000000Y-70373000D01*
X191975224Y-70375440D01*
X191592541Y-70451560D01*
X191546760Y-70470523D01*
X191260000Y-70662130D01*
X191260000Y-70418801D01*
X191496791Y-70182011D01*
X201013142Y-70182011D01*
X201087989Y-70196899D01*
X201162836Y-70182011D01*
X201162841Y-70182011D01*
X201384526Y-70137915D01*
X201635918Y-69969940D01*
X201678320Y-69906481D01*
X202477802Y-69107000D01*
X202643874Y-69107000D01*
X203024280Y-68949431D01*
X203315431Y-68658280D01*
X203473000Y-68277874D01*
X203473000Y-67866126D01*
X203403773Y-67698998D01*
X204258154Y-67698998D01*
X204333001Y-67713886D01*
X204407848Y-67698998D01*
X204407853Y-67698998D01*
X204629538Y-67654902D01*
X204880930Y-67486927D01*
X204923332Y-67423468D01*
X208827802Y-63518999D01*
X208993874Y-63518999D01*
X209374280Y-63361430D01*
X209665431Y-63070279D01*
X209823000Y-62689873D01*
X209823000Y-62278125D01*
X209665431Y-61897719D01*
X209374280Y-61606568D01*
X208993874Y-61448999D01*
X208582126Y-61448999D01*
X208201720Y-61606568D01*
X207910569Y-61897719D01*
X207753000Y-62278125D01*
X207753000Y-62444197D01*
X204018200Y-66178998D01*
X191181804Y-66178998D01*
X193014791Y-64346012D01*
X203837691Y-64346012D01*
X203912538Y-64360900D01*
X203987385Y-64346012D01*
X203987390Y-64346012D01*
X204209075Y-64301916D01*
X204460467Y-64133941D01*
X204502869Y-64070482D01*
X204969922Y-63603430D01*
X205135994Y-63603430D01*
X205516400Y-63445861D01*
X205807551Y-63154710D01*
X205965120Y-62774304D01*
X205965120Y-62362556D01*
X205807551Y-61982150D01*
X205516400Y-61690999D01*
X205135994Y-61533430D01*
X204724246Y-61533430D01*
X204343840Y-61690999D01*
X204052689Y-61982150D01*
X203895120Y-62362556D01*
X203895120Y-62528628D01*
X203597737Y-62826012D01*
X198323706Y-62826012D01*
X198345123Y-62774307D01*
X198345123Y-62362559D01*
X198187554Y-61982153D01*
X197896403Y-61691002D01*
X197515997Y-61533433D01*
X197104249Y-61533433D01*
X196723843Y-61691002D01*
X196432692Y-61982153D01*
X196275123Y-62362559D01*
X196275123Y-62476001D01*
X194583002Y-62476001D01*
X194583002Y-62278126D01*
X194425433Y-61897720D01*
X194134282Y-61606569D01*
X193753876Y-61449000D01*
X193342128Y-61449000D01*
X192961722Y-61606569D01*
X192844291Y-61724000D01*
X191336846Y-61724000D01*
X191261999Y-61709112D01*
X191187152Y-61724000D01*
X191187148Y-61724000D01*
X190965463Y-61768096D01*
X190714071Y-61936071D01*
X190671671Y-61999527D01*
X189932455Y-62738744D01*
X189804711Y-62611000D01*
X189853431Y-62562280D01*
X190011000Y-62181874D01*
X190011000Y-62015801D01*
X193100802Y-58926000D01*
X197416289Y-58926000D01*
X197533720Y-59043431D01*
X197914126Y-59201000D01*
X198325874Y-59201000D01*
X198706280Y-59043431D01*
X198853721Y-58895990D01*
X198924537Y-58881904D01*
X199175929Y-58713929D01*
X199343904Y-58462537D01*
X199402889Y-58166000D01*
X199402491Y-58164000D01*
X201615199Y-58164000D01*
X201657000Y-58205801D01*
X201657000Y-58371874D01*
X201814569Y-58752280D01*
X202105720Y-59043431D01*
X202486126Y-59201000D01*
X202897874Y-59201000D01*
X203278280Y-59043431D01*
X203569431Y-58752280D01*
X203727000Y-58371874D01*
X203727000Y-57960126D01*
X203589015Y-57627000D01*
X211463000Y-57627000D01*
X211463001Y-61864213D01*
G04 #@! TO.N,VCC*
G36*
X232544001Y-52663349D02*
X232333130Y-52804248D01*
X231987491Y-52873000D01*
X228414214Y-52873000D01*
X228389438Y-52875440D01*
X228006754Y-52951560D01*
X227960972Y-52970523D01*
X227636549Y-53187296D01*
X227617304Y-53203090D01*
X224711935Y-56108459D01*
X224418916Y-56304249D01*
X224073277Y-56373000D01*
X192512509Y-56373000D01*
X192166870Y-56304248D01*
X191884455Y-56115545D01*
X191695752Y-55833130D01*
X191627000Y-55487491D01*
X191627000Y-55012509D01*
X191695752Y-54666870D01*
X191884455Y-54384455D01*
X192166870Y-54195752D01*
X192512509Y-54127000D01*
X210500000Y-54127000D01*
X210524776Y-54124560D01*
X210907459Y-54048440D01*
X210953240Y-54029477D01*
X211277664Y-53812704D01*
X211312704Y-53777664D01*
X211529477Y-53453240D01*
X211548440Y-53407459D01*
X211624560Y-53024776D01*
X211627000Y-53000000D01*
X211627000Y-52012509D01*
X211695752Y-51666870D01*
X211836650Y-51456000D01*
X232544001Y-51456000D01*
X232544001Y-52663349D01*
X232544001Y-52663349D01*
G37*
X232544001Y-52663349D02*
X232333130Y-52804248D01*
X231987491Y-52873000D01*
X228414214Y-52873000D01*
X228389438Y-52875440D01*
X228006754Y-52951560D01*
X227960972Y-52970523D01*
X227636549Y-53187296D01*
X227617304Y-53203090D01*
X224711935Y-56108459D01*
X224418916Y-56304249D01*
X224073277Y-56373000D01*
X192512509Y-56373000D01*
X192166870Y-56304248D01*
X191884455Y-56115545D01*
X191695752Y-55833130D01*
X191627000Y-55487491D01*
X191627000Y-55012509D01*
X191695752Y-54666870D01*
X191884455Y-54384455D01*
X192166870Y-54195752D01*
X192512509Y-54127000D01*
X210500000Y-54127000D01*
X210524776Y-54124560D01*
X210907459Y-54048440D01*
X210953240Y-54029477D01*
X211277664Y-53812704D01*
X211312704Y-53777664D01*
X211529477Y-53453240D01*
X211548440Y-53407459D01*
X211624560Y-53024776D01*
X211627000Y-53000000D01*
X211627000Y-52012509D01*
X211695752Y-51666870D01*
X211836650Y-51456000D01*
X232544001Y-51456000D01*
X232544001Y-52663349D01*
G36*
X213333130Y-71695752D02*
X213615545Y-71884455D01*
X213804248Y-72166870D01*
X213870512Y-72500000D01*
X213804248Y-72833130D01*
X213615545Y-73115545D01*
X213333130Y-73304248D01*
X212987491Y-73373000D01*
X193012509Y-73373000D01*
X192666870Y-73304248D01*
X192384455Y-73115545D01*
X192195752Y-72833130D01*
X192129488Y-72500000D01*
X192195752Y-72166870D01*
X192384455Y-71884455D01*
X192666870Y-71695752D01*
X193012509Y-71627000D01*
X212987491Y-71627000D01*
X213333130Y-71695752D01*
X213333130Y-71695752D01*
G37*
X213333130Y-71695752D02*
X213615545Y-71884455D01*
X213804248Y-72166870D01*
X213870512Y-72500000D01*
X213804248Y-72833130D01*
X213615545Y-73115545D01*
X213333130Y-73304248D01*
X212987491Y-73373000D01*
X193012509Y-73373000D01*
X192666870Y-73304248D01*
X192384455Y-73115545D01*
X192195752Y-72833130D01*
X192129488Y-72500000D01*
X192195752Y-72166870D01*
X192384455Y-71884455D01*
X192666870Y-71695752D01*
X193012509Y-71627000D01*
X212987491Y-71627000D01*
X213333130Y-71695752D01*
G04 #@! TO.N,+BATT*
G36*
X232333130Y-54195752D02*
X232544001Y-54336651D01*
X232544000Y-69163349D01*
X232333130Y-69304248D01*
X231987491Y-69373000D01*
X221744247Y-69373000D01*
X221375436Y-69294246D01*
X221082028Y-69079812D01*
X220894995Y-68752334D01*
X218634811Y-61661004D01*
X218622279Y-61633518D01*
X218376609Y-61230085D01*
X218357941Y-61206335D01*
X218284648Y-61133042D01*
X218117643Y-60883103D01*
X218059000Y-60588281D01*
X218059000Y-58649682D01*
X218125962Y-58308388D01*
X218310018Y-58028206D01*
X218586294Y-57838344D01*
X218926115Y-57764272D01*
X225055399Y-57636309D01*
X225081849Y-57632958D01*
X225488292Y-57537279D01*
X225536236Y-57514619D01*
X225868176Y-57261308D01*
X225887557Y-57242998D01*
X228288165Y-54442289D01*
X228596403Y-54209601D01*
X228973673Y-54127000D01*
X231987491Y-54127000D01*
X232333130Y-54195752D01*
X232333130Y-54195752D01*
G37*
X232333130Y-54195752D02*
X232544001Y-54336651D01*
X232544000Y-69163349D01*
X232333130Y-69304248D01*
X231987491Y-69373000D01*
X221744247Y-69373000D01*
X221375436Y-69294246D01*
X221082028Y-69079812D01*
X220894995Y-68752334D01*
X218634811Y-61661004D01*
X218622279Y-61633518D01*
X218376609Y-61230085D01*
X218357941Y-61206335D01*
X218284648Y-61133042D01*
X218117643Y-60883103D01*
X218059000Y-60588281D01*
X218059000Y-58649682D01*
X218125962Y-58308388D01*
X218310018Y-58028206D01*
X218586294Y-57838344D01*
X218926115Y-57764272D01*
X225055399Y-57636309D01*
X225081849Y-57632958D01*
X225488292Y-57537279D01*
X225536236Y-57514619D01*
X225868176Y-57261308D01*
X225887557Y-57242998D01*
X228288165Y-54442289D01*
X228596403Y-54209601D01*
X228973673Y-54127000D01*
X231987491Y-54127000D01*
X232333130Y-54195752D01*
G04 #@! TD*
M02*
