M48
;DRILL file {KiCad 5.0.0-rc3-unknown-3df2743~65~ubuntu18.04.1} date Wed Jul  4 11:38:00 2018
;FORMAT={-:-/ absolute / metric / decimal}
FMAT,2
METRIC,TZ
T1C0.200
T2C0.300
T3C0.400
T4C0.500
T5C1.000
T6C6.100
%
G90
G05
M71
T1
X215.392Y-69.604
X215.392Y-69.929
X215.392Y-70.279
X215.392Y-70.604
T2
X205.232Y-59.182
X198.628Y-64.77
X211.582Y-54.61
X231.902Y-73.406
X201.422Y-71.882
X217.17Y-74.93
X228.6Y-71.374
X213.614Y-54.61
X204.724Y-63.754
X211.328Y-73.152
X221.488Y-68.326
X193.294Y-64.262
X219.964Y-60.706
X189.23Y-59.182
X201.422Y-55.626
X209.042Y-59.182
X200.406Y-71.882
X223.012Y-58.166
X205.232Y-57.5
X199.39Y-74.676
X202.438Y-55.626
X204.724Y-64.516
X208.534Y-64.516
X202.438Y-72.898
X214.5Y-63.
X210.Y-69.
X213.614Y-71.882
X197.358Y-58.928
X209.804Y-64.77
X223.139Y-71.247
X209.Y-57.5
X213.614Y-52.832
X231.648Y-59.436
X211.328Y-71.882
X214.63Y-68.58
X200.406Y-54.61
X197.358Y-64.516
X215.392Y-73.406
X201.168Y-59.69
X202.438Y-54.61
X191.516Y-58.166
X231.902Y-52.324
X211.582Y-52.832
X203.708Y-74.676
X230.378Y-71.628
X176.856Y-58.99
X176.856Y-59.99
X176.856Y-60.99
X176.856Y-61.99
X176.856Y-62.99
X177.856Y-58.99
X177.856Y-59.99
X177.856Y-60.99
X177.856Y-61.99
X177.856Y-62.99
X178.856Y-58.99
X178.856Y-59.99
X178.856Y-60.99
X178.856Y-61.99
X178.856Y-62.99
X179.856Y-58.99
X179.856Y-59.99
X179.856Y-60.99
X179.856Y-61.99
X179.856Y-62.99
X180.856Y-58.99
X180.856Y-59.99
X180.856Y-60.99
X180.856Y-61.99
X180.856Y-62.99
X200.406Y-55.626
X194.056Y-58.928
X202.438Y-71.882
X201.422Y-72.898
X213.614Y-73.152
X216.916Y-59.944
X193.294Y-64.77
X201.422Y-54.61
X231.394Y-68.326
X200.406Y-72.898
X231.648Y-54.864
X220.472Y-55.118
X217.17Y-72.39
T3
X171.196Y-54.61
X175.006Y-67.818
X182.626Y-69.088
X183.642Y-58.42
X184.912Y-57.979
X188.722Y-72.644
X188.976Y-61.976
X188.976Y-64.77
X188.976Y-66.04
X188.976Y-67.31
X188.976Y-68.58
X189.103Y-63.373
X189.992Y-68.834
X190.5Y-67.818
X193.548Y-62.484
X197.31Y-62.568
X198.12Y-58.166
X200.406Y-68.797
X202.438Y-68.072
X202.692Y-58.166
X204.93Y-62.568
X208.788Y-62.484
X214.884Y-60.706
X215.138Y-66.294
X215.9Y-60.706
X219.583Y-72.898
X219.964Y-74.041
X220.853Y-71.374
X227.965Y-73.152
T4
X212.598Y-53.848
X212.598Y-72.39
T5
X173.482Y-74.93
X176.022Y-74.93
X178.562Y-74.93
X181.102Y-74.93
X183.642Y-74.93
T6
X226.Y-64.
X162.Y-64.
T0
M30
