G04 #@! TF.GenerationSoftware,KiCad,Pcbnew,6.0.0-rc1-unknown-7dfc4e3~65~ubuntu18.04.1*
G04 #@! TF.CreationDate,2018-07-30T15:29:30+02:00*
G04 #@! TF.ProjectId,ESP32-li-ion-cell-monitor,45535033322D6C692D696F6E2D63656C,1.1*
G04 #@! TF.SameCoordinates,Original*
G04 #@! TF.FileFunction,Soldermask,Top*
G04 #@! TF.FilePolarity,Negative*
%FSLAX46Y46*%
G04 Gerber Fmt 4.6, Leading zero omitted, Abs format (unit mm)*
G04 Created by KiCad (PCBNEW 6.0.0-rc1-unknown-7dfc4e3~65~ubuntu18.04.1) date Mon Jul 30 15:29:30 2018*
%MOMM*%
%LPD*%
G01*
G04 APERTURE LIST*
%ADD10R,0.370000X0.280000*%
%ADD11R,0.460000X1.460000*%
%ADD12C,0.320000*%
%ADD13R,0.460000X1.120000*%
%ADD14O,1.760000X1.760000*%
%ADD15R,1.760000X1.760000*%
%ADD16C,0.860000*%
%ADD17R,6.060000X6.060000*%
%ADD18R,1.410000X0.960000*%
%ADD19R,0.960000X1.410000*%
%ADD20R,0.710000X1.120000*%
%ADD21C,0.100000*%
%ADD22C,1.210000*%
%ADD23C,0.935000*%
%ADD24R,0.960000X0.860000*%
%ADD25C,2.060000*%
%ADD26R,1.160000X1.160000*%
%ADD27R,1.060000X1.060000*%
%ADD28C,1.585000*%
%ADD29C,10.220000*%
G04 APERTURE END LIST*
D10*
G04 #@! TO.C,U1*
X214867000Y-69504000D03*
X214867000Y-69904000D03*
X214867000Y-70304000D03*
X214867000Y-70704000D03*
X215917000Y-70704000D03*
X215917000Y-70304000D03*
X215917000Y-69904000D03*
X215917000Y-69504000D03*
D11*
X215392000Y-70104000D03*
D12*
X215392000Y-69604000D03*
X215392000Y-69929000D03*
X215392000Y-70279000D03*
X215392000Y-70604000D03*
G04 #@! TD*
D13*
G04 #@! TO.C,U3*
X216880000Y-58250000D03*
X216230000Y-58250000D03*
X215570000Y-58250000D03*
X214920000Y-58250000D03*
X214920000Y-56050000D03*
X215570000Y-56050000D03*
X216230000Y-56050000D03*
X216880000Y-56050000D03*
G04 #@! TD*
D14*
G04 #@! TO.C,J3*
X173482000Y-74930000D03*
X176022000Y-74930000D03*
X178562000Y-74930000D03*
X181102000Y-74930000D03*
D15*
X183642000Y-74930000D03*
G04 #@! TD*
D16*
G04 #@! TO.C,U2*
X176856000Y-58990000D03*
D17*
X178856000Y-60990000D03*
D18*
X169556000Y-53280000D03*
X169556000Y-54550000D03*
X169556000Y-55820000D03*
X169556000Y-57090000D03*
X169556000Y-58360000D03*
X169556000Y-59630000D03*
X169556000Y-60900000D03*
X169556000Y-62170000D03*
X169556000Y-63440000D03*
X169556000Y-64710000D03*
X169556000Y-65980000D03*
X169556000Y-67250000D03*
X169556000Y-68520000D03*
X169556000Y-69790000D03*
D19*
X172856000Y-71290000D03*
X174126000Y-71290000D03*
X175396000Y-71290000D03*
X176666000Y-71290000D03*
X177936000Y-71290000D03*
X179206000Y-71290000D03*
X180476000Y-71290000D03*
X181746000Y-71290000D03*
X183016000Y-71290000D03*
X184286000Y-71290000D03*
D18*
X187586000Y-69790000D03*
X187586000Y-68520000D03*
X187586000Y-67250000D03*
X187586000Y-65980000D03*
X187586000Y-64710000D03*
X187586000Y-63440000D03*
X187586000Y-62170000D03*
X187586000Y-60900000D03*
X187586000Y-59630000D03*
X187586000Y-58360000D03*
X187586000Y-57090000D03*
X187586000Y-55820000D03*
X187586000Y-54550000D03*
X187586000Y-53280000D03*
D16*
X176856000Y-59990000D03*
X176856000Y-60990000D03*
X176856000Y-61990000D03*
X176856000Y-62990000D03*
X177856000Y-62990000D03*
X177856000Y-61990000D03*
X177856000Y-60990000D03*
X177856000Y-59990000D03*
X177856000Y-58990000D03*
X179856000Y-58990000D03*
X179856000Y-59990000D03*
X179856000Y-60990000D03*
X179856000Y-61990000D03*
X179856000Y-62990000D03*
X178856000Y-62990000D03*
X178856000Y-61990000D03*
X178856000Y-60990000D03*
X178856000Y-59990000D03*
X178856000Y-58990000D03*
X180856000Y-62990000D03*
X180856000Y-61990000D03*
X180856000Y-60990000D03*
X180856000Y-59990000D03*
X180856000Y-58990000D03*
G04 #@! TD*
D20*
G04 #@! TO.C,U4*
X200472000Y-64600000D03*
X201422000Y-64600000D03*
X202372000Y-64600000D03*
X202372000Y-62400000D03*
X200472000Y-62400000D03*
G04 #@! TD*
D21*
G04 #@! TO.C,C1*
G36*
X165846740Y-51886267D02*
X165872274Y-51890054D01*
X165897314Y-51896327D01*
X165921619Y-51905023D01*
X165944955Y-51916060D01*
X165967096Y-51929331D01*
X165987830Y-51944708D01*
X166006956Y-51962044D01*
X166024292Y-51981170D01*
X166039669Y-52001904D01*
X166052940Y-52024045D01*
X166063977Y-52047381D01*
X166072673Y-52071686D01*
X166078946Y-52096726D01*
X166082733Y-52122260D01*
X166084000Y-52148043D01*
X166084000Y-52831957D01*
X166082733Y-52857740D01*
X166078946Y-52883274D01*
X166072673Y-52908314D01*
X166063977Y-52932619D01*
X166052940Y-52955955D01*
X166039669Y-52978096D01*
X166024292Y-52998830D01*
X166006956Y-53017956D01*
X165987830Y-53035292D01*
X165967096Y-53050669D01*
X165944955Y-53063940D01*
X165921619Y-53074977D01*
X165897314Y-53083673D01*
X165872274Y-53089946D01*
X165846740Y-53093733D01*
X165820957Y-53095000D01*
X164887043Y-53095000D01*
X164861260Y-53093733D01*
X164835726Y-53089946D01*
X164810686Y-53083673D01*
X164786381Y-53074977D01*
X164763045Y-53063940D01*
X164740904Y-53050669D01*
X164720170Y-53035292D01*
X164701044Y-53017956D01*
X164683708Y-52998830D01*
X164668331Y-52978096D01*
X164655060Y-52955955D01*
X164644023Y-52932619D01*
X164635327Y-52908314D01*
X164629054Y-52883274D01*
X164625267Y-52857740D01*
X164624000Y-52831957D01*
X164624000Y-52148043D01*
X164625267Y-52122260D01*
X164629054Y-52096726D01*
X164635327Y-52071686D01*
X164644023Y-52047381D01*
X164655060Y-52024045D01*
X164668331Y-52001904D01*
X164683708Y-51981170D01*
X164701044Y-51962044D01*
X164720170Y-51944708D01*
X164740904Y-51929331D01*
X164763045Y-51916060D01*
X164786381Y-51905023D01*
X164810686Y-51896327D01*
X164835726Y-51890054D01*
X164861260Y-51886267D01*
X164887043Y-51885000D01*
X165820957Y-51885000D01*
X165846740Y-51886267D01*
X165846740Y-51886267D01*
G37*
D22*
X165354000Y-52490000D03*
D21*
G36*
X165846740Y-53586267D02*
X165872274Y-53590054D01*
X165897314Y-53596327D01*
X165921619Y-53605023D01*
X165944955Y-53616060D01*
X165967096Y-53629331D01*
X165987830Y-53644708D01*
X166006956Y-53662044D01*
X166024292Y-53681170D01*
X166039669Y-53701904D01*
X166052940Y-53724045D01*
X166063977Y-53747381D01*
X166072673Y-53771686D01*
X166078946Y-53796726D01*
X166082733Y-53822260D01*
X166084000Y-53848043D01*
X166084000Y-54531957D01*
X166082733Y-54557740D01*
X166078946Y-54583274D01*
X166072673Y-54608314D01*
X166063977Y-54632619D01*
X166052940Y-54655955D01*
X166039669Y-54678096D01*
X166024292Y-54698830D01*
X166006956Y-54717956D01*
X165987830Y-54735292D01*
X165967096Y-54750669D01*
X165944955Y-54763940D01*
X165921619Y-54774977D01*
X165897314Y-54783673D01*
X165872274Y-54789946D01*
X165846740Y-54793733D01*
X165820957Y-54795000D01*
X164887043Y-54795000D01*
X164861260Y-54793733D01*
X164835726Y-54789946D01*
X164810686Y-54783673D01*
X164786381Y-54774977D01*
X164763045Y-54763940D01*
X164740904Y-54750669D01*
X164720170Y-54735292D01*
X164701044Y-54717956D01*
X164683708Y-54698830D01*
X164668331Y-54678096D01*
X164655060Y-54655955D01*
X164644023Y-54632619D01*
X164635327Y-54608314D01*
X164629054Y-54583274D01*
X164625267Y-54557740D01*
X164624000Y-54531957D01*
X164624000Y-53848043D01*
X164625267Y-53822260D01*
X164629054Y-53796726D01*
X164635327Y-53771686D01*
X164644023Y-53747381D01*
X164655060Y-53724045D01*
X164668331Y-53701904D01*
X164683708Y-53681170D01*
X164701044Y-53662044D01*
X164720170Y-53644708D01*
X164740904Y-53629331D01*
X164763045Y-53616060D01*
X164786381Y-53605023D01*
X164810686Y-53596327D01*
X164835726Y-53590054D01*
X164861260Y-53586267D01*
X164887043Y-53585000D01*
X165820957Y-53585000D01*
X165846740Y-53586267D01*
X165846740Y-53586267D01*
G37*
D22*
X165354000Y-54190000D03*
G04 #@! TD*
D21*
G04 #@! TO.C,C4*
G36*
X217464162Y-70425126D02*
X217486852Y-70428491D01*
X217509104Y-70434065D01*
X217530702Y-70441793D01*
X217551439Y-70451601D01*
X217571115Y-70463394D01*
X217589539Y-70477059D01*
X217606536Y-70492464D01*
X217621941Y-70509461D01*
X217635606Y-70527885D01*
X217647399Y-70547561D01*
X217657207Y-70568298D01*
X217664935Y-70589896D01*
X217670509Y-70612148D01*
X217673874Y-70634838D01*
X217675000Y-70657750D01*
X217675000Y-71125250D01*
X217673874Y-71148162D01*
X217670509Y-71170852D01*
X217664935Y-71193104D01*
X217657207Y-71214702D01*
X217647399Y-71235439D01*
X217635606Y-71255115D01*
X217621941Y-71273539D01*
X217606536Y-71290536D01*
X217589539Y-71305941D01*
X217571115Y-71319606D01*
X217551439Y-71331399D01*
X217530702Y-71341207D01*
X217509104Y-71348935D01*
X217486852Y-71354509D01*
X217464162Y-71357874D01*
X217441250Y-71359000D01*
X216898750Y-71359000D01*
X216875838Y-71357874D01*
X216853148Y-71354509D01*
X216830896Y-71348935D01*
X216809298Y-71341207D01*
X216788561Y-71331399D01*
X216768885Y-71319606D01*
X216750461Y-71305941D01*
X216733464Y-71290536D01*
X216718059Y-71273539D01*
X216704394Y-71255115D01*
X216692601Y-71235439D01*
X216682793Y-71214702D01*
X216675065Y-71193104D01*
X216669491Y-71170852D01*
X216666126Y-71148162D01*
X216665000Y-71125250D01*
X216665000Y-70657750D01*
X216666126Y-70634838D01*
X216669491Y-70612148D01*
X216675065Y-70589896D01*
X216682793Y-70568298D01*
X216692601Y-70547561D01*
X216704394Y-70527885D01*
X216718059Y-70509461D01*
X216733464Y-70492464D01*
X216750461Y-70477059D01*
X216768885Y-70463394D01*
X216788561Y-70451601D01*
X216809298Y-70441793D01*
X216830896Y-70434065D01*
X216853148Y-70428491D01*
X216875838Y-70425126D01*
X216898750Y-70424000D01*
X217441250Y-70424000D01*
X217464162Y-70425126D01*
X217464162Y-70425126D01*
G37*
D23*
X217170000Y-70891500D03*
D21*
G36*
X217464162Y-68850126D02*
X217486852Y-68853491D01*
X217509104Y-68859065D01*
X217530702Y-68866793D01*
X217551439Y-68876601D01*
X217571115Y-68888394D01*
X217589539Y-68902059D01*
X217606536Y-68917464D01*
X217621941Y-68934461D01*
X217635606Y-68952885D01*
X217647399Y-68972561D01*
X217657207Y-68993298D01*
X217664935Y-69014896D01*
X217670509Y-69037148D01*
X217673874Y-69059838D01*
X217675000Y-69082750D01*
X217675000Y-69550250D01*
X217673874Y-69573162D01*
X217670509Y-69595852D01*
X217664935Y-69618104D01*
X217657207Y-69639702D01*
X217647399Y-69660439D01*
X217635606Y-69680115D01*
X217621941Y-69698539D01*
X217606536Y-69715536D01*
X217589539Y-69730941D01*
X217571115Y-69744606D01*
X217551439Y-69756399D01*
X217530702Y-69766207D01*
X217509104Y-69773935D01*
X217486852Y-69779509D01*
X217464162Y-69782874D01*
X217441250Y-69784000D01*
X216898750Y-69784000D01*
X216875838Y-69782874D01*
X216853148Y-69779509D01*
X216830896Y-69773935D01*
X216809298Y-69766207D01*
X216788561Y-69756399D01*
X216768885Y-69744606D01*
X216750461Y-69730941D01*
X216733464Y-69715536D01*
X216718059Y-69698539D01*
X216704394Y-69680115D01*
X216692601Y-69660439D01*
X216682793Y-69639702D01*
X216675065Y-69618104D01*
X216669491Y-69595852D01*
X216666126Y-69573162D01*
X216665000Y-69550250D01*
X216665000Y-69082750D01*
X216666126Y-69059838D01*
X216669491Y-69037148D01*
X216675065Y-69014896D01*
X216682793Y-68993298D01*
X216692601Y-68972561D01*
X216704394Y-68952885D01*
X216718059Y-68934461D01*
X216733464Y-68917464D01*
X216750461Y-68902059D01*
X216768885Y-68888394D01*
X216788561Y-68876601D01*
X216809298Y-68866793D01*
X216830896Y-68859065D01*
X216853148Y-68853491D01*
X216875838Y-68850126D01*
X216898750Y-68849000D01*
X217441250Y-68849000D01*
X217464162Y-68850126D01*
X217464162Y-68850126D01*
G37*
D23*
X217170000Y-69316500D03*
G04 #@! TD*
D21*
G04 #@! TO.C,C5*
G36*
X213598740Y-66032267D02*
X213624274Y-66036054D01*
X213649314Y-66042327D01*
X213673619Y-66051023D01*
X213696955Y-66062060D01*
X213719096Y-66075331D01*
X213739830Y-66090708D01*
X213758956Y-66108044D01*
X213776292Y-66127170D01*
X213791669Y-66147904D01*
X213804940Y-66170045D01*
X213815977Y-66193381D01*
X213824673Y-66217686D01*
X213830946Y-66242726D01*
X213834733Y-66268260D01*
X213836000Y-66294043D01*
X213836000Y-66977957D01*
X213834733Y-67003740D01*
X213830946Y-67029274D01*
X213824673Y-67054314D01*
X213815977Y-67078619D01*
X213804940Y-67101955D01*
X213791669Y-67124096D01*
X213776292Y-67144830D01*
X213758956Y-67163956D01*
X213739830Y-67181292D01*
X213719096Y-67196669D01*
X213696955Y-67209940D01*
X213673619Y-67220977D01*
X213649314Y-67229673D01*
X213624274Y-67235946D01*
X213598740Y-67239733D01*
X213572957Y-67241000D01*
X212639043Y-67241000D01*
X212613260Y-67239733D01*
X212587726Y-67235946D01*
X212562686Y-67229673D01*
X212538381Y-67220977D01*
X212515045Y-67209940D01*
X212492904Y-67196669D01*
X212472170Y-67181292D01*
X212453044Y-67163956D01*
X212435708Y-67144830D01*
X212420331Y-67124096D01*
X212407060Y-67101955D01*
X212396023Y-67078619D01*
X212387327Y-67054314D01*
X212381054Y-67029274D01*
X212377267Y-67003740D01*
X212376000Y-66977957D01*
X212376000Y-66294043D01*
X212377267Y-66268260D01*
X212381054Y-66242726D01*
X212387327Y-66217686D01*
X212396023Y-66193381D01*
X212407060Y-66170045D01*
X212420331Y-66147904D01*
X212435708Y-66127170D01*
X212453044Y-66108044D01*
X212472170Y-66090708D01*
X212492904Y-66075331D01*
X212515045Y-66062060D01*
X212538381Y-66051023D01*
X212562686Y-66042327D01*
X212587726Y-66036054D01*
X212613260Y-66032267D01*
X212639043Y-66031000D01*
X213572957Y-66031000D01*
X213598740Y-66032267D01*
X213598740Y-66032267D01*
G37*
D22*
X213106000Y-66636000D03*
D21*
G36*
X213598740Y-64332267D02*
X213624274Y-64336054D01*
X213649314Y-64342327D01*
X213673619Y-64351023D01*
X213696955Y-64362060D01*
X213719096Y-64375331D01*
X213739830Y-64390708D01*
X213758956Y-64408044D01*
X213776292Y-64427170D01*
X213791669Y-64447904D01*
X213804940Y-64470045D01*
X213815977Y-64493381D01*
X213824673Y-64517686D01*
X213830946Y-64542726D01*
X213834733Y-64568260D01*
X213836000Y-64594043D01*
X213836000Y-65277957D01*
X213834733Y-65303740D01*
X213830946Y-65329274D01*
X213824673Y-65354314D01*
X213815977Y-65378619D01*
X213804940Y-65401955D01*
X213791669Y-65424096D01*
X213776292Y-65444830D01*
X213758956Y-65463956D01*
X213739830Y-65481292D01*
X213719096Y-65496669D01*
X213696955Y-65509940D01*
X213673619Y-65520977D01*
X213649314Y-65529673D01*
X213624274Y-65535946D01*
X213598740Y-65539733D01*
X213572957Y-65541000D01*
X212639043Y-65541000D01*
X212613260Y-65539733D01*
X212587726Y-65535946D01*
X212562686Y-65529673D01*
X212538381Y-65520977D01*
X212515045Y-65509940D01*
X212492904Y-65496669D01*
X212472170Y-65481292D01*
X212453044Y-65463956D01*
X212435708Y-65444830D01*
X212420331Y-65424096D01*
X212407060Y-65401955D01*
X212396023Y-65378619D01*
X212387327Y-65354314D01*
X212381054Y-65329274D01*
X212377267Y-65303740D01*
X212376000Y-65277957D01*
X212376000Y-64594043D01*
X212377267Y-64568260D01*
X212381054Y-64542726D01*
X212387327Y-64517686D01*
X212396023Y-64493381D01*
X212407060Y-64470045D01*
X212420331Y-64447904D01*
X212435708Y-64427170D01*
X212453044Y-64408044D01*
X212472170Y-64390708D01*
X212492904Y-64375331D01*
X212515045Y-64362060D01*
X212538381Y-64351023D01*
X212562686Y-64342327D01*
X212587726Y-64336054D01*
X212613260Y-64332267D01*
X212639043Y-64331000D01*
X213572957Y-64331000D01*
X213598740Y-64332267D01*
X213598740Y-64332267D01*
G37*
D22*
X213106000Y-64936000D03*
G04 #@! TD*
D21*
G04 #@! TO.C,C6*
G36*
X213400162Y-67834126D02*
X213422852Y-67837491D01*
X213445104Y-67843065D01*
X213466702Y-67850793D01*
X213487439Y-67860601D01*
X213507115Y-67872394D01*
X213525539Y-67886059D01*
X213542536Y-67901464D01*
X213557941Y-67918461D01*
X213571606Y-67936885D01*
X213583399Y-67956561D01*
X213593207Y-67977298D01*
X213600935Y-67998896D01*
X213606509Y-68021148D01*
X213609874Y-68043838D01*
X213611000Y-68066750D01*
X213611000Y-68534250D01*
X213609874Y-68557162D01*
X213606509Y-68579852D01*
X213600935Y-68602104D01*
X213593207Y-68623702D01*
X213583399Y-68644439D01*
X213571606Y-68664115D01*
X213557941Y-68682539D01*
X213542536Y-68699536D01*
X213525539Y-68714941D01*
X213507115Y-68728606D01*
X213487439Y-68740399D01*
X213466702Y-68750207D01*
X213445104Y-68757935D01*
X213422852Y-68763509D01*
X213400162Y-68766874D01*
X213377250Y-68768000D01*
X212834750Y-68768000D01*
X212811838Y-68766874D01*
X212789148Y-68763509D01*
X212766896Y-68757935D01*
X212745298Y-68750207D01*
X212724561Y-68740399D01*
X212704885Y-68728606D01*
X212686461Y-68714941D01*
X212669464Y-68699536D01*
X212654059Y-68682539D01*
X212640394Y-68664115D01*
X212628601Y-68644439D01*
X212618793Y-68623702D01*
X212611065Y-68602104D01*
X212605491Y-68579852D01*
X212602126Y-68557162D01*
X212601000Y-68534250D01*
X212601000Y-68066750D01*
X212602126Y-68043838D01*
X212605491Y-68021148D01*
X212611065Y-67998896D01*
X212618793Y-67977298D01*
X212628601Y-67956561D01*
X212640394Y-67936885D01*
X212654059Y-67918461D01*
X212669464Y-67901464D01*
X212686461Y-67886059D01*
X212704885Y-67872394D01*
X212724561Y-67860601D01*
X212745298Y-67850793D01*
X212766896Y-67843065D01*
X212789148Y-67837491D01*
X212811838Y-67834126D01*
X212834750Y-67833000D01*
X213377250Y-67833000D01*
X213400162Y-67834126D01*
X213400162Y-67834126D01*
G37*
D23*
X213106000Y-68300500D03*
D21*
G36*
X213400162Y-69409126D02*
X213422852Y-69412491D01*
X213445104Y-69418065D01*
X213466702Y-69425793D01*
X213487439Y-69435601D01*
X213507115Y-69447394D01*
X213525539Y-69461059D01*
X213542536Y-69476464D01*
X213557941Y-69493461D01*
X213571606Y-69511885D01*
X213583399Y-69531561D01*
X213593207Y-69552298D01*
X213600935Y-69573896D01*
X213606509Y-69596148D01*
X213609874Y-69618838D01*
X213611000Y-69641750D01*
X213611000Y-70109250D01*
X213609874Y-70132162D01*
X213606509Y-70154852D01*
X213600935Y-70177104D01*
X213593207Y-70198702D01*
X213583399Y-70219439D01*
X213571606Y-70239115D01*
X213557941Y-70257539D01*
X213542536Y-70274536D01*
X213525539Y-70289941D01*
X213507115Y-70303606D01*
X213487439Y-70315399D01*
X213466702Y-70325207D01*
X213445104Y-70332935D01*
X213422852Y-70338509D01*
X213400162Y-70341874D01*
X213377250Y-70343000D01*
X212834750Y-70343000D01*
X212811838Y-70341874D01*
X212789148Y-70338509D01*
X212766896Y-70332935D01*
X212745298Y-70325207D01*
X212724561Y-70315399D01*
X212704885Y-70303606D01*
X212686461Y-70289941D01*
X212669464Y-70274536D01*
X212654059Y-70257539D01*
X212640394Y-70239115D01*
X212628601Y-70219439D01*
X212618793Y-70198702D01*
X212611065Y-70177104D01*
X212605491Y-70154852D01*
X212602126Y-70132162D01*
X212601000Y-70109250D01*
X212601000Y-69641750D01*
X212602126Y-69618838D01*
X212605491Y-69596148D01*
X212611065Y-69573896D01*
X212618793Y-69552298D01*
X212628601Y-69531561D01*
X212640394Y-69511885D01*
X212654059Y-69493461D01*
X212669464Y-69476464D01*
X212686461Y-69461059D01*
X212704885Y-69447394D01*
X212724561Y-69435601D01*
X212745298Y-69425793D01*
X212766896Y-69418065D01*
X212789148Y-69412491D01*
X212811838Y-69409126D01*
X212834750Y-69408000D01*
X213377250Y-69408000D01*
X213400162Y-69409126D01*
X213400162Y-69409126D01*
G37*
D23*
X213106000Y-69875500D03*
G04 #@! TD*
D24*
G04 #@! TO.C,Q1*
X194548000Y-63500000D03*
X192548000Y-64450000D03*
X192548000Y-62550000D03*
G04 #@! TD*
G04 #@! TO.C,Q2*
X196358000Y-62550000D03*
X196358000Y-64450000D03*
X198358000Y-63500000D03*
G04 #@! TD*
G04 #@! TO.C,Q3*
X203978000Y-62550000D03*
X203978000Y-64450000D03*
X205978000Y-63500000D03*
G04 #@! TD*
G04 #@! TO.C,Q4*
X209788000Y-63500000D03*
X207788000Y-64450000D03*
X207788000Y-62550000D03*
G04 #@! TD*
D25*
G04 #@! TO.C,TP1*
X161036000Y-53848000D03*
G04 #@! TD*
G04 #@! TO.C,TP2*
X158496000Y-74422000D03*
G04 #@! TD*
G04 #@! TO.C,TP3*
X168492000Y-75000000D03*
G04 #@! TD*
G04 #@! TO.C,TP4*
X188492000Y-75000000D03*
G04 #@! TD*
G04 #@! TO.C,TP5*
X224028000Y-54610000D03*
G04 #@! TD*
G04 #@! TO.C,TP6*
X228600000Y-56642000D03*
G04 #@! TD*
G04 #@! TO.C,TP7*
X199898000Y-58166000D03*
G04 #@! TD*
D21*
G04 #@! TO.C,C2*
G36*
X219440740Y-68904267D02*
X219466274Y-68908054D01*
X219491314Y-68914327D01*
X219515619Y-68923023D01*
X219538955Y-68934060D01*
X219561096Y-68947331D01*
X219581830Y-68962708D01*
X219600956Y-68980044D01*
X219618292Y-68999170D01*
X219633669Y-69019904D01*
X219646940Y-69042045D01*
X219657977Y-69065381D01*
X219666673Y-69089686D01*
X219672946Y-69114726D01*
X219676733Y-69140260D01*
X219678000Y-69166043D01*
X219678000Y-69849957D01*
X219676733Y-69875740D01*
X219672946Y-69901274D01*
X219666673Y-69926314D01*
X219657977Y-69950619D01*
X219646940Y-69973955D01*
X219633669Y-69996096D01*
X219618292Y-70016830D01*
X219600956Y-70035956D01*
X219581830Y-70053292D01*
X219561096Y-70068669D01*
X219538955Y-70081940D01*
X219515619Y-70092977D01*
X219491314Y-70101673D01*
X219466274Y-70107946D01*
X219440740Y-70111733D01*
X219414957Y-70113000D01*
X218481043Y-70113000D01*
X218455260Y-70111733D01*
X218429726Y-70107946D01*
X218404686Y-70101673D01*
X218380381Y-70092977D01*
X218357045Y-70081940D01*
X218334904Y-70068669D01*
X218314170Y-70053292D01*
X218295044Y-70035956D01*
X218277708Y-70016830D01*
X218262331Y-69996096D01*
X218249060Y-69973955D01*
X218238023Y-69950619D01*
X218229327Y-69926314D01*
X218223054Y-69901274D01*
X218219267Y-69875740D01*
X218218000Y-69849957D01*
X218218000Y-69166043D01*
X218219267Y-69140260D01*
X218223054Y-69114726D01*
X218229327Y-69089686D01*
X218238023Y-69065381D01*
X218249060Y-69042045D01*
X218262331Y-69019904D01*
X218277708Y-68999170D01*
X218295044Y-68980044D01*
X218314170Y-68962708D01*
X218334904Y-68947331D01*
X218357045Y-68934060D01*
X218380381Y-68923023D01*
X218404686Y-68914327D01*
X218429726Y-68908054D01*
X218455260Y-68904267D01*
X218481043Y-68903000D01*
X219414957Y-68903000D01*
X219440740Y-68904267D01*
X219440740Y-68904267D01*
G37*
D22*
X218948000Y-69508000D03*
D21*
G36*
X219440740Y-70604267D02*
X219466274Y-70608054D01*
X219491314Y-70614327D01*
X219515619Y-70623023D01*
X219538955Y-70634060D01*
X219561096Y-70647331D01*
X219581830Y-70662708D01*
X219600956Y-70680044D01*
X219618292Y-70699170D01*
X219633669Y-70719904D01*
X219646940Y-70742045D01*
X219657977Y-70765381D01*
X219666673Y-70789686D01*
X219672946Y-70814726D01*
X219676733Y-70840260D01*
X219678000Y-70866043D01*
X219678000Y-71549957D01*
X219676733Y-71575740D01*
X219672946Y-71601274D01*
X219666673Y-71626314D01*
X219657977Y-71650619D01*
X219646940Y-71673955D01*
X219633669Y-71696096D01*
X219618292Y-71716830D01*
X219600956Y-71735956D01*
X219581830Y-71753292D01*
X219561096Y-71768669D01*
X219538955Y-71781940D01*
X219515619Y-71792977D01*
X219491314Y-71801673D01*
X219466274Y-71807946D01*
X219440740Y-71811733D01*
X219414957Y-71813000D01*
X218481043Y-71813000D01*
X218455260Y-71811733D01*
X218429726Y-71807946D01*
X218404686Y-71801673D01*
X218380381Y-71792977D01*
X218357045Y-71781940D01*
X218334904Y-71768669D01*
X218314170Y-71753292D01*
X218295044Y-71735956D01*
X218277708Y-71716830D01*
X218262331Y-71696096D01*
X218249060Y-71673955D01*
X218238023Y-71650619D01*
X218229327Y-71626314D01*
X218223054Y-71601274D01*
X218219267Y-71575740D01*
X218218000Y-71549957D01*
X218218000Y-70866043D01*
X218219267Y-70840260D01*
X218223054Y-70814726D01*
X218229327Y-70789686D01*
X218238023Y-70765381D01*
X218249060Y-70742045D01*
X218262331Y-70719904D01*
X218277708Y-70699170D01*
X218295044Y-70680044D01*
X218314170Y-70662708D01*
X218334904Y-70647331D01*
X218357045Y-70634060D01*
X218380381Y-70623023D01*
X218404686Y-70614327D01*
X218429726Y-70608054D01*
X218455260Y-70604267D01*
X218481043Y-70603000D01*
X219414957Y-70603000D01*
X219440740Y-70604267D01*
X219440740Y-70604267D01*
G37*
D22*
X218948000Y-71208000D03*
G04 #@! TD*
D21*
G04 #@! TO.C,C3*
G36*
X167426162Y-52086126D02*
X167448852Y-52089491D01*
X167471104Y-52095065D01*
X167492702Y-52102793D01*
X167513439Y-52112601D01*
X167533115Y-52124394D01*
X167551539Y-52138059D01*
X167568536Y-52153464D01*
X167583941Y-52170461D01*
X167597606Y-52188885D01*
X167609399Y-52208561D01*
X167619207Y-52229298D01*
X167626935Y-52250896D01*
X167632509Y-52273148D01*
X167635874Y-52295838D01*
X167637000Y-52318750D01*
X167637000Y-52786250D01*
X167635874Y-52809162D01*
X167632509Y-52831852D01*
X167626935Y-52854104D01*
X167619207Y-52875702D01*
X167609399Y-52896439D01*
X167597606Y-52916115D01*
X167583941Y-52934539D01*
X167568536Y-52951536D01*
X167551539Y-52966941D01*
X167533115Y-52980606D01*
X167513439Y-52992399D01*
X167492702Y-53002207D01*
X167471104Y-53009935D01*
X167448852Y-53015509D01*
X167426162Y-53018874D01*
X167403250Y-53020000D01*
X166860750Y-53020000D01*
X166837838Y-53018874D01*
X166815148Y-53015509D01*
X166792896Y-53009935D01*
X166771298Y-53002207D01*
X166750561Y-52992399D01*
X166730885Y-52980606D01*
X166712461Y-52966941D01*
X166695464Y-52951536D01*
X166680059Y-52934539D01*
X166666394Y-52916115D01*
X166654601Y-52896439D01*
X166644793Y-52875702D01*
X166637065Y-52854104D01*
X166631491Y-52831852D01*
X166628126Y-52809162D01*
X166627000Y-52786250D01*
X166627000Y-52318750D01*
X166628126Y-52295838D01*
X166631491Y-52273148D01*
X166637065Y-52250896D01*
X166644793Y-52229298D01*
X166654601Y-52208561D01*
X166666394Y-52188885D01*
X166680059Y-52170461D01*
X166695464Y-52153464D01*
X166712461Y-52138059D01*
X166730885Y-52124394D01*
X166750561Y-52112601D01*
X166771298Y-52102793D01*
X166792896Y-52095065D01*
X166815148Y-52089491D01*
X166837838Y-52086126D01*
X166860750Y-52085000D01*
X167403250Y-52085000D01*
X167426162Y-52086126D01*
X167426162Y-52086126D01*
G37*
D23*
X167132000Y-52552500D03*
D21*
G36*
X167426162Y-53661126D02*
X167448852Y-53664491D01*
X167471104Y-53670065D01*
X167492702Y-53677793D01*
X167513439Y-53687601D01*
X167533115Y-53699394D01*
X167551539Y-53713059D01*
X167568536Y-53728464D01*
X167583941Y-53745461D01*
X167597606Y-53763885D01*
X167609399Y-53783561D01*
X167619207Y-53804298D01*
X167626935Y-53825896D01*
X167632509Y-53848148D01*
X167635874Y-53870838D01*
X167637000Y-53893750D01*
X167637000Y-54361250D01*
X167635874Y-54384162D01*
X167632509Y-54406852D01*
X167626935Y-54429104D01*
X167619207Y-54450702D01*
X167609399Y-54471439D01*
X167597606Y-54491115D01*
X167583941Y-54509539D01*
X167568536Y-54526536D01*
X167551539Y-54541941D01*
X167533115Y-54555606D01*
X167513439Y-54567399D01*
X167492702Y-54577207D01*
X167471104Y-54584935D01*
X167448852Y-54590509D01*
X167426162Y-54593874D01*
X167403250Y-54595000D01*
X166860750Y-54595000D01*
X166837838Y-54593874D01*
X166815148Y-54590509D01*
X166792896Y-54584935D01*
X166771298Y-54577207D01*
X166750561Y-54567399D01*
X166730885Y-54555606D01*
X166712461Y-54541941D01*
X166695464Y-54526536D01*
X166680059Y-54509539D01*
X166666394Y-54491115D01*
X166654601Y-54471439D01*
X166644793Y-54450702D01*
X166637065Y-54429104D01*
X166631491Y-54406852D01*
X166628126Y-54384162D01*
X166627000Y-54361250D01*
X166627000Y-53893750D01*
X166628126Y-53870838D01*
X166631491Y-53848148D01*
X166637065Y-53825896D01*
X166644793Y-53804298D01*
X166654601Y-53783561D01*
X166666394Y-53763885D01*
X166680059Y-53745461D01*
X166695464Y-53728464D01*
X166712461Y-53713059D01*
X166730885Y-53699394D01*
X166750561Y-53687601D01*
X166771298Y-53677793D01*
X166792896Y-53670065D01*
X166815148Y-53664491D01*
X166837838Y-53661126D01*
X166860750Y-53660000D01*
X167403250Y-53660000D01*
X167426162Y-53661126D01*
X167426162Y-53661126D01*
G37*
D23*
X167132000Y-54127500D03*
G04 #@! TD*
D21*
G04 #@! TO.C,R1*
G36*
X167426162Y-56709126D02*
X167448852Y-56712491D01*
X167471104Y-56718065D01*
X167492702Y-56725793D01*
X167513439Y-56735601D01*
X167533115Y-56747394D01*
X167551539Y-56761059D01*
X167568536Y-56776464D01*
X167583941Y-56793461D01*
X167597606Y-56811885D01*
X167609399Y-56831561D01*
X167619207Y-56852298D01*
X167626935Y-56873896D01*
X167632509Y-56896148D01*
X167635874Y-56918838D01*
X167637000Y-56941750D01*
X167637000Y-57409250D01*
X167635874Y-57432162D01*
X167632509Y-57454852D01*
X167626935Y-57477104D01*
X167619207Y-57498702D01*
X167609399Y-57519439D01*
X167597606Y-57539115D01*
X167583941Y-57557539D01*
X167568536Y-57574536D01*
X167551539Y-57589941D01*
X167533115Y-57603606D01*
X167513439Y-57615399D01*
X167492702Y-57625207D01*
X167471104Y-57632935D01*
X167448852Y-57638509D01*
X167426162Y-57641874D01*
X167403250Y-57643000D01*
X166860750Y-57643000D01*
X166837838Y-57641874D01*
X166815148Y-57638509D01*
X166792896Y-57632935D01*
X166771298Y-57625207D01*
X166750561Y-57615399D01*
X166730885Y-57603606D01*
X166712461Y-57589941D01*
X166695464Y-57574536D01*
X166680059Y-57557539D01*
X166666394Y-57539115D01*
X166654601Y-57519439D01*
X166644793Y-57498702D01*
X166637065Y-57477104D01*
X166631491Y-57454852D01*
X166628126Y-57432162D01*
X166627000Y-57409250D01*
X166627000Y-56941750D01*
X166628126Y-56918838D01*
X166631491Y-56896148D01*
X166637065Y-56873896D01*
X166644793Y-56852298D01*
X166654601Y-56831561D01*
X166666394Y-56811885D01*
X166680059Y-56793461D01*
X166695464Y-56776464D01*
X166712461Y-56761059D01*
X166730885Y-56747394D01*
X166750561Y-56735601D01*
X166771298Y-56725793D01*
X166792896Y-56718065D01*
X166815148Y-56712491D01*
X166837838Y-56709126D01*
X166860750Y-56708000D01*
X167403250Y-56708000D01*
X167426162Y-56709126D01*
X167426162Y-56709126D01*
G37*
D23*
X167132000Y-57175500D03*
D21*
G36*
X167426162Y-55134126D02*
X167448852Y-55137491D01*
X167471104Y-55143065D01*
X167492702Y-55150793D01*
X167513439Y-55160601D01*
X167533115Y-55172394D01*
X167551539Y-55186059D01*
X167568536Y-55201464D01*
X167583941Y-55218461D01*
X167597606Y-55236885D01*
X167609399Y-55256561D01*
X167619207Y-55277298D01*
X167626935Y-55298896D01*
X167632509Y-55321148D01*
X167635874Y-55343838D01*
X167637000Y-55366750D01*
X167637000Y-55834250D01*
X167635874Y-55857162D01*
X167632509Y-55879852D01*
X167626935Y-55902104D01*
X167619207Y-55923702D01*
X167609399Y-55944439D01*
X167597606Y-55964115D01*
X167583941Y-55982539D01*
X167568536Y-55999536D01*
X167551539Y-56014941D01*
X167533115Y-56028606D01*
X167513439Y-56040399D01*
X167492702Y-56050207D01*
X167471104Y-56057935D01*
X167448852Y-56063509D01*
X167426162Y-56066874D01*
X167403250Y-56068000D01*
X166860750Y-56068000D01*
X166837838Y-56066874D01*
X166815148Y-56063509D01*
X166792896Y-56057935D01*
X166771298Y-56050207D01*
X166750561Y-56040399D01*
X166730885Y-56028606D01*
X166712461Y-56014941D01*
X166695464Y-55999536D01*
X166680059Y-55982539D01*
X166666394Y-55964115D01*
X166654601Y-55944439D01*
X166644793Y-55923702D01*
X166637065Y-55902104D01*
X166631491Y-55879852D01*
X166628126Y-55857162D01*
X166627000Y-55834250D01*
X166627000Y-55366750D01*
X166628126Y-55343838D01*
X166631491Y-55321148D01*
X166637065Y-55298896D01*
X166644793Y-55277298D01*
X166654601Y-55256561D01*
X166666394Y-55236885D01*
X166680059Y-55218461D01*
X166695464Y-55201464D01*
X166712461Y-55186059D01*
X166730885Y-55172394D01*
X166750561Y-55160601D01*
X166771298Y-55150793D01*
X166792896Y-55143065D01*
X166815148Y-55137491D01*
X166837838Y-55134126D01*
X166860750Y-55133000D01*
X167403250Y-55133000D01*
X167426162Y-55134126D01*
X167426162Y-55134126D01*
G37*
D23*
X167132000Y-55600500D03*
G04 #@! TD*
D21*
G04 #@! TO.C,C7*
G36*
X213654162Y-57471126D02*
X213676852Y-57474491D01*
X213699104Y-57480065D01*
X213720702Y-57487793D01*
X213741439Y-57497601D01*
X213761115Y-57509394D01*
X213779539Y-57523059D01*
X213796536Y-57538464D01*
X213811941Y-57555461D01*
X213825606Y-57573885D01*
X213837399Y-57593561D01*
X213847207Y-57614298D01*
X213854935Y-57635896D01*
X213860509Y-57658148D01*
X213863874Y-57680838D01*
X213865000Y-57703750D01*
X213865000Y-58171250D01*
X213863874Y-58194162D01*
X213860509Y-58216852D01*
X213854935Y-58239104D01*
X213847207Y-58260702D01*
X213837399Y-58281439D01*
X213825606Y-58301115D01*
X213811941Y-58319539D01*
X213796536Y-58336536D01*
X213779539Y-58351941D01*
X213761115Y-58365606D01*
X213741439Y-58377399D01*
X213720702Y-58387207D01*
X213699104Y-58394935D01*
X213676852Y-58400509D01*
X213654162Y-58403874D01*
X213631250Y-58405000D01*
X213088750Y-58405000D01*
X213065838Y-58403874D01*
X213043148Y-58400509D01*
X213020896Y-58394935D01*
X212999298Y-58387207D01*
X212978561Y-58377399D01*
X212958885Y-58365606D01*
X212940461Y-58351941D01*
X212923464Y-58336536D01*
X212908059Y-58319539D01*
X212894394Y-58301115D01*
X212882601Y-58281439D01*
X212872793Y-58260702D01*
X212865065Y-58239104D01*
X212859491Y-58216852D01*
X212856126Y-58194162D01*
X212855000Y-58171250D01*
X212855000Y-57703750D01*
X212856126Y-57680838D01*
X212859491Y-57658148D01*
X212865065Y-57635896D01*
X212872793Y-57614298D01*
X212882601Y-57593561D01*
X212894394Y-57573885D01*
X212908059Y-57555461D01*
X212923464Y-57538464D01*
X212940461Y-57523059D01*
X212958885Y-57509394D01*
X212978561Y-57497601D01*
X212999298Y-57487793D01*
X213020896Y-57480065D01*
X213043148Y-57474491D01*
X213065838Y-57471126D01*
X213088750Y-57470000D01*
X213631250Y-57470000D01*
X213654162Y-57471126D01*
X213654162Y-57471126D01*
G37*
D23*
X213360000Y-57937500D03*
D21*
G36*
X213654162Y-55896126D02*
X213676852Y-55899491D01*
X213699104Y-55905065D01*
X213720702Y-55912793D01*
X213741439Y-55922601D01*
X213761115Y-55934394D01*
X213779539Y-55948059D01*
X213796536Y-55963464D01*
X213811941Y-55980461D01*
X213825606Y-55998885D01*
X213837399Y-56018561D01*
X213847207Y-56039298D01*
X213854935Y-56060896D01*
X213860509Y-56083148D01*
X213863874Y-56105838D01*
X213865000Y-56128750D01*
X213865000Y-56596250D01*
X213863874Y-56619162D01*
X213860509Y-56641852D01*
X213854935Y-56664104D01*
X213847207Y-56685702D01*
X213837399Y-56706439D01*
X213825606Y-56726115D01*
X213811941Y-56744539D01*
X213796536Y-56761536D01*
X213779539Y-56776941D01*
X213761115Y-56790606D01*
X213741439Y-56802399D01*
X213720702Y-56812207D01*
X213699104Y-56819935D01*
X213676852Y-56825509D01*
X213654162Y-56828874D01*
X213631250Y-56830000D01*
X213088750Y-56830000D01*
X213065838Y-56828874D01*
X213043148Y-56825509D01*
X213020896Y-56819935D01*
X212999298Y-56812207D01*
X212978561Y-56802399D01*
X212958885Y-56790606D01*
X212940461Y-56776941D01*
X212923464Y-56761536D01*
X212908059Y-56744539D01*
X212894394Y-56726115D01*
X212882601Y-56706439D01*
X212872793Y-56685702D01*
X212865065Y-56664104D01*
X212859491Y-56641852D01*
X212856126Y-56619162D01*
X212855000Y-56596250D01*
X212855000Y-56128750D01*
X212856126Y-56105838D01*
X212859491Y-56083148D01*
X212865065Y-56060896D01*
X212872793Y-56039298D01*
X212882601Y-56018561D01*
X212894394Y-55998885D01*
X212908059Y-55980461D01*
X212923464Y-55963464D01*
X212940461Y-55948059D01*
X212958885Y-55934394D01*
X212978561Y-55922601D01*
X212999298Y-55912793D01*
X213020896Y-55905065D01*
X213043148Y-55899491D01*
X213065838Y-55896126D01*
X213088750Y-55895000D01*
X213631250Y-55895000D01*
X213654162Y-55896126D01*
X213654162Y-55896126D01*
G37*
D23*
X213360000Y-56362500D03*
G04 #@! TD*
D21*
G04 #@! TO.C,C8*
G36*
X202720162Y-60202126D02*
X202742852Y-60205491D01*
X202765104Y-60211065D01*
X202786702Y-60218793D01*
X202807439Y-60228601D01*
X202827115Y-60240394D01*
X202845539Y-60254059D01*
X202862536Y-60269464D01*
X202877941Y-60286461D01*
X202891606Y-60304885D01*
X202903399Y-60324561D01*
X202913207Y-60345298D01*
X202920935Y-60366896D01*
X202926509Y-60389148D01*
X202929874Y-60411838D01*
X202931000Y-60434750D01*
X202931000Y-60977250D01*
X202929874Y-61000162D01*
X202926509Y-61022852D01*
X202920935Y-61045104D01*
X202913207Y-61066702D01*
X202903399Y-61087439D01*
X202891606Y-61107115D01*
X202877941Y-61125539D01*
X202862536Y-61142536D01*
X202845539Y-61157941D01*
X202827115Y-61171606D01*
X202807439Y-61183399D01*
X202786702Y-61193207D01*
X202765104Y-61200935D01*
X202742852Y-61206509D01*
X202720162Y-61209874D01*
X202697250Y-61211000D01*
X202229750Y-61211000D01*
X202206838Y-61209874D01*
X202184148Y-61206509D01*
X202161896Y-61200935D01*
X202140298Y-61193207D01*
X202119561Y-61183399D01*
X202099885Y-61171606D01*
X202081461Y-61157941D01*
X202064464Y-61142536D01*
X202049059Y-61125539D01*
X202035394Y-61107115D01*
X202023601Y-61087439D01*
X202013793Y-61066702D01*
X202006065Y-61045104D01*
X202000491Y-61022852D01*
X201997126Y-61000162D01*
X201996000Y-60977250D01*
X201996000Y-60434750D01*
X201997126Y-60411838D01*
X202000491Y-60389148D01*
X202006065Y-60366896D01*
X202013793Y-60345298D01*
X202023601Y-60324561D01*
X202035394Y-60304885D01*
X202049059Y-60286461D01*
X202064464Y-60269464D01*
X202081461Y-60254059D01*
X202099885Y-60240394D01*
X202119561Y-60228601D01*
X202140298Y-60218793D01*
X202161896Y-60211065D01*
X202184148Y-60205491D01*
X202206838Y-60202126D01*
X202229750Y-60201000D01*
X202697250Y-60201000D01*
X202720162Y-60202126D01*
X202720162Y-60202126D01*
G37*
D23*
X202463500Y-60706000D03*
D21*
G36*
X201145162Y-60202126D02*
X201167852Y-60205491D01*
X201190104Y-60211065D01*
X201211702Y-60218793D01*
X201232439Y-60228601D01*
X201252115Y-60240394D01*
X201270539Y-60254059D01*
X201287536Y-60269464D01*
X201302941Y-60286461D01*
X201316606Y-60304885D01*
X201328399Y-60324561D01*
X201338207Y-60345298D01*
X201345935Y-60366896D01*
X201351509Y-60389148D01*
X201354874Y-60411838D01*
X201356000Y-60434750D01*
X201356000Y-60977250D01*
X201354874Y-61000162D01*
X201351509Y-61022852D01*
X201345935Y-61045104D01*
X201338207Y-61066702D01*
X201328399Y-61087439D01*
X201316606Y-61107115D01*
X201302941Y-61125539D01*
X201287536Y-61142536D01*
X201270539Y-61157941D01*
X201252115Y-61171606D01*
X201232439Y-61183399D01*
X201211702Y-61193207D01*
X201190104Y-61200935D01*
X201167852Y-61206509D01*
X201145162Y-61209874D01*
X201122250Y-61211000D01*
X200654750Y-61211000D01*
X200631838Y-61209874D01*
X200609148Y-61206509D01*
X200586896Y-61200935D01*
X200565298Y-61193207D01*
X200544561Y-61183399D01*
X200524885Y-61171606D01*
X200506461Y-61157941D01*
X200489464Y-61142536D01*
X200474059Y-61125539D01*
X200460394Y-61107115D01*
X200448601Y-61087439D01*
X200438793Y-61066702D01*
X200431065Y-61045104D01*
X200425491Y-61022852D01*
X200422126Y-61000162D01*
X200421000Y-60977250D01*
X200421000Y-60434750D01*
X200422126Y-60411838D01*
X200425491Y-60389148D01*
X200431065Y-60366896D01*
X200438793Y-60345298D01*
X200448601Y-60324561D01*
X200460394Y-60304885D01*
X200474059Y-60286461D01*
X200489464Y-60269464D01*
X200506461Y-60254059D01*
X200524885Y-60240394D01*
X200544561Y-60228601D01*
X200565298Y-60218793D01*
X200586896Y-60211065D01*
X200609148Y-60205491D01*
X200631838Y-60202126D01*
X200654750Y-60201000D01*
X201122250Y-60201000D01*
X201145162Y-60202126D01*
X201145162Y-60202126D01*
G37*
D23*
X200888500Y-60706000D03*
G04 #@! TD*
D26*
G04 #@! TO.C,D1*
X217170000Y-67694000D03*
X217170000Y-64894000D03*
G04 #@! TD*
D27*
G04 #@! TO.C,D2*
X215138000Y-67544000D03*
X215138000Y-65044000D03*
G04 #@! TD*
D21*
G04 #@! TO.C,R2*
G36*
X195272633Y-71538251D02*
X195297856Y-71541993D01*
X195322591Y-71548188D01*
X195346600Y-71556779D01*
X195369650Y-71567681D01*
X195391522Y-71580790D01*
X195412003Y-71595980D01*
X195430896Y-71613104D01*
X195448020Y-71631997D01*
X195463210Y-71652478D01*
X195476319Y-71674350D01*
X195487221Y-71697400D01*
X195495812Y-71721409D01*
X195502007Y-71746144D01*
X195505749Y-71771367D01*
X195507000Y-71796835D01*
X195507000Y-72862165D01*
X195505749Y-72887633D01*
X195502007Y-72912856D01*
X195495812Y-72937591D01*
X195487221Y-72961600D01*
X195476319Y-72984650D01*
X195463210Y-73006522D01*
X195448020Y-73027003D01*
X195430896Y-73045896D01*
X195412003Y-73063020D01*
X195391522Y-73078210D01*
X195369650Y-73091319D01*
X195346600Y-73102221D01*
X195322591Y-73110812D01*
X195297856Y-73117007D01*
X195272633Y-73120749D01*
X195247165Y-73122000D01*
X192356835Y-73122000D01*
X192331367Y-73120749D01*
X192306144Y-73117007D01*
X192281409Y-73110812D01*
X192257400Y-73102221D01*
X192234350Y-73091319D01*
X192212478Y-73078210D01*
X192191997Y-73063020D01*
X192173104Y-73045896D01*
X192155980Y-73027003D01*
X192140790Y-73006522D01*
X192127681Y-72984650D01*
X192116779Y-72961600D01*
X192108188Y-72937591D01*
X192101993Y-72912856D01*
X192098251Y-72887633D01*
X192097000Y-72862165D01*
X192097000Y-71796835D01*
X192098251Y-71771367D01*
X192101993Y-71746144D01*
X192108188Y-71721409D01*
X192116779Y-71697400D01*
X192127681Y-71674350D01*
X192140790Y-71652478D01*
X192155980Y-71631997D01*
X192173104Y-71613104D01*
X192191997Y-71595980D01*
X192212478Y-71580790D01*
X192234350Y-71567681D01*
X192257400Y-71556779D01*
X192281409Y-71548188D01*
X192306144Y-71541993D01*
X192331367Y-71538251D01*
X192356835Y-71537000D01*
X195247165Y-71537000D01*
X195272633Y-71538251D01*
X195272633Y-71538251D01*
G37*
D28*
X193802000Y-72329500D03*
D21*
G36*
X195272633Y-65563251D02*
X195297856Y-65566993D01*
X195322591Y-65573188D01*
X195346600Y-65581779D01*
X195369650Y-65592681D01*
X195391522Y-65605790D01*
X195412003Y-65620980D01*
X195430896Y-65638104D01*
X195448020Y-65656997D01*
X195463210Y-65677478D01*
X195476319Y-65699350D01*
X195487221Y-65722400D01*
X195495812Y-65746409D01*
X195502007Y-65771144D01*
X195505749Y-65796367D01*
X195507000Y-65821835D01*
X195507000Y-66887165D01*
X195505749Y-66912633D01*
X195502007Y-66937856D01*
X195495812Y-66962591D01*
X195487221Y-66986600D01*
X195476319Y-67009650D01*
X195463210Y-67031522D01*
X195448020Y-67052003D01*
X195430896Y-67070896D01*
X195412003Y-67088020D01*
X195391522Y-67103210D01*
X195369650Y-67116319D01*
X195346600Y-67127221D01*
X195322591Y-67135812D01*
X195297856Y-67142007D01*
X195272633Y-67145749D01*
X195247165Y-67147000D01*
X192356835Y-67147000D01*
X192331367Y-67145749D01*
X192306144Y-67142007D01*
X192281409Y-67135812D01*
X192257400Y-67127221D01*
X192234350Y-67116319D01*
X192212478Y-67103210D01*
X192191997Y-67088020D01*
X192173104Y-67070896D01*
X192155980Y-67052003D01*
X192140790Y-67031522D01*
X192127681Y-67009650D01*
X192116779Y-66986600D01*
X192108188Y-66962591D01*
X192101993Y-66937856D01*
X192098251Y-66912633D01*
X192097000Y-66887165D01*
X192097000Y-65821835D01*
X192098251Y-65796367D01*
X192101993Y-65771144D01*
X192108188Y-65746409D01*
X192116779Y-65722400D01*
X192127681Y-65699350D01*
X192140790Y-65677478D01*
X192155980Y-65656997D01*
X192173104Y-65638104D01*
X192191997Y-65620980D01*
X192212478Y-65605790D01*
X192234350Y-65592681D01*
X192257400Y-65581779D01*
X192281409Y-65573188D01*
X192306144Y-65566993D01*
X192331367Y-65563251D01*
X192356835Y-65562000D01*
X195247165Y-65562000D01*
X195272633Y-65563251D01*
X195272633Y-65563251D01*
G37*
D28*
X193802000Y-66354500D03*
G04 #@! TD*
D21*
G04 #@! TO.C,R3*
G36*
X199082633Y-65563251D02*
X199107856Y-65566993D01*
X199132591Y-65573188D01*
X199156600Y-65581779D01*
X199179650Y-65592681D01*
X199201522Y-65605790D01*
X199222003Y-65620980D01*
X199240896Y-65638104D01*
X199258020Y-65656997D01*
X199273210Y-65677478D01*
X199286319Y-65699350D01*
X199297221Y-65722400D01*
X199305812Y-65746409D01*
X199312007Y-65771144D01*
X199315749Y-65796367D01*
X199317000Y-65821835D01*
X199317000Y-66887165D01*
X199315749Y-66912633D01*
X199312007Y-66937856D01*
X199305812Y-66962591D01*
X199297221Y-66986600D01*
X199286319Y-67009650D01*
X199273210Y-67031522D01*
X199258020Y-67052003D01*
X199240896Y-67070896D01*
X199222003Y-67088020D01*
X199201522Y-67103210D01*
X199179650Y-67116319D01*
X199156600Y-67127221D01*
X199132591Y-67135812D01*
X199107856Y-67142007D01*
X199082633Y-67145749D01*
X199057165Y-67147000D01*
X196166835Y-67147000D01*
X196141367Y-67145749D01*
X196116144Y-67142007D01*
X196091409Y-67135812D01*
X196067400Y-67127221D01*
X196044350Y-67116319D01*
X196022478Y-67103210D01*
X196001997Y-67088020D01*
X195983104Y-67070896D01*
X195965980Y-67052003D01*
X195950790Y-67031522D01*
X195937681Y-67009650D01*
X195926779Y-66986600D01*
X195918188Y-66962591D01*
X195911993Y-66937856D01*
X195908251Y-66912633D01*
X195907000Y-66887165D01*
X195907000Y-65821835D01*
X195908251Y-65796367D01*
X195911993Y-65771144D01*
X195918188Y-65746409D01*
X195926779Y-65722400D01*
X195937681Y-65699350D01*
X195950790Y-65677478D01*
X195965980Y-65656997D01*
X195983104Y-65638104D01*
X196001997Y-65620980D01*
X196022478Y-65605790D01*
X196044350Y-65592681D01*
X196067400Y-65581779D01*
X196091409Y-65573188D01*
X196116144Y-65566993D01*
X196141367Y-65563251D01*
X196166835Y-65562000D01*
X199057165Y-65562000D01*
X199082633Y-65563251D01*
X199082633Y-65563251D01*
G37*
D28*
X197612000Y-66354500D03*
D21*
G36*
X199082633Y-71538251D02*
X199107856Y-71541993D01*
X199132591Y-71548188D01*
X199156600Y-71556779D01*
X199179650Y-71567681D01*
X199201522Y-71580790D01*
X199222003Y-71595980D01*
X199240896Y-71613104D01*
X199258020Y-71631997D01*
X199273210Y-71652478D01*
X199286319Y-71674350D01*
X199297221Y-71697400D01*
X199305812Y-71721409D01*
X199312007Y-71746144D01*
X199315749Y-71771367D01*
X199317000Y-71796835D01*
X199317000Y-72862165D01*
X199315749Y-72887633D01*
X199312007Y-72912856D01*
X199305812Y-72937591D01*
X199297221Y-72961600D01*
X199286319Y-72984650D01*
X199273210Y-73006522D01*
X199258020Y-73027003D01*
X199240896Y-73045896D01*
X199222003Y-73063020D01*
X199201522Y-73078210D01*
X199179650Y-73091319D01*
X199156600Y-73102221D01*
X199132591Y-73110812D01*
X199107856Y-73117007D01*
X199082633Y-73120749D01*
X199057165Y-73122000D01*
X196166835Y-73122000D01*
X196141367Y-73120749D01*
X196116144Y-73117007D01*
X196091409Y-73110812D01*
X196067400Y-73102221D01*
X196044350Y-73091319D01*
X196022478Y-73078210D01*
X196001997Y-73063020D01*
X195983104Y-73045896D01*
X195965980Y-73027003D01*
X195950790Y-73006522D01*
X195937681Y-72984650D01*
X195926779Y-72961600D01*
X195918188Y-72937591D01*
X195911993Y-72912856D01*
X195908251Y-72887633D01*
X195907000Y-72862165D01*
X195907000Y-71796835D01*
X195908251Y-71771367D01*
X195911993Y-71746144D01*
X195918188Y-71721409D01*
X195926779Y-71697400D01*
X195937681Y-71674350D01*
X195950790Y-71652478D01*
X195965980Y-71631997D01*
X195983104Y-71613104D01*
X196001997Y-71595980D01*
X196022478Y-71580790D01*
X196044350Y-71567681D01*
X196067400Y-71556779D01*
X196091409Y-71548188D01*
X196116144Y-71541993D01*
X196141367Y-71538251D01*
X196166835Y-71537000D01*
X199057165Y-71537000D01*
X199082633Y-71538251D01*
X199082633Y-71538251D01*
G37*
D28*
X197612000Y-72329500D03*
G04 #@! TD*
D21*
G04 #@! TO.C,R4*
G36*
X195272633Y-53879251D02*
X195297856Y-53882993D01*
X195322591Y-53889188D01*
X195346600Y-53897779D01*
X195369650Y-53908681D01*
X195391522Y-53921790D01*
X195412003Y-53936980D01*
X195430896Y-53954104D01*
X195448020Y-53972997D01*
X195463210Y-53993478D01*
X195476319Y-54015350D01*
X195487221Y-54038400D01*
X195495812Y-54062409D01*
X195502007Y-54087144D01*
X195505749Y-54112367D01*
X195507000Y-54137835D01*
X195507000Y-55203165D01*
X195505749Y-55228633D01*
X195502007Y-55253856D01*
X195495812Y-55278591D01*
X195487221Y-55302600D01*
X195476319Y-55325650D01*
X195463210Y-55347522D01*
X195448020Y-55368003D01*
X195430896Y-55386896D01*
X195412003Y-55404020D01*
X195391522Y-55419210D01*
X195369650Y-55432319D01*
X195346600Y-55443221D01*
X195322591Y-55451812D01*
X195297856Y-55458007D01*
X195272633Y-55461749D01*
X195247165Y-55463000D01*
X192356835Y-55463000D01*
X192331367Y-55461749D01*
X192306144Y-55458007D01*
X192281409Y-55451812D01*
X192257400Y-55443221D01*
X192234350Y-55432319D01*
X192212478Y-55419210D01*
X192191997Y-55404020D01*
X192173104Y-55386896D01*
X192155980Y-55368003D01*
X192140790Y-55347522D01*
X192127681Y-55325650D01*
X192116779Y-55302600D01*
X192108188Y-55278591D01*
X192101993Y-55253856D01*
X192098251Y-55228633D01*
X192097000Y-55203165D01*
X192097000Y-54137835D01*
X192098251Y-54112367D01*
X192101993Y-54087144D01*
X192108188Y-54062409D01*
X192116779Y-54038400D01*
X192127681Y-54015350D01*
X192140790Y-53993478D01*
X192155980Y-53972997D01*
X192173104Y-53954104D01*
X192191997Y-53936980D01*
X192212478Y-53921790D01*
X192234350Y-53908681D01*
X192257400Y-53897779D01*
X192281409Y-53889188D01*
X192306144Y-53882993D01*
X192331367Y-53879251D01*
X192356835Y-53878000D01*
X195247165Y-53878000D01*
X195272633Y-53879251D01*
X195272633Y-53879251D01*
G37*
D28*
X193802000Y-54670500D03*
D21*
G36*
X195272633Y-59854251D02*
X195297856Y-59857993D01*
X195322591Y-59864188D01*
X195346600Y-59872779D01*
X195369650Y-59883681D01*
X195391522Y-59896790D01*
X195412003Y-59911980D01*
X195430896Y-59929104D01*
X195448020Y-59947997D01*
X195463210Y-59968478D01*
X195476319Y-59990350D01*
X195487221Y-60013400D01*
X195495812Y-60037409D01*
X195502007Y-60062144D01*
X195505749Y-60087367D01*
X195507000Y-60112835D01*
X195507000Y-61178165D01*
X195505749Y-61203633D01*
X195502007Y-61228856D01*
X195495812Y-61253591D01*
X195487221Y-61277600D01*
X195476319Y-61300650D01*
X195463210Y-61322522D01*
X195448020Y-61343003D01*
X195430896Y-61361896D01*
X195412003Y-61379020D01*
X195391522Y-61394210D01*
X195369650Y-61407319D01*
X195346600Y-61418221D01*
X195322591Y-61426812D01*
X195297856Y-61433007D01*
X195272633Y-61436749D01*
X195247165Y-61438000D01*
X192356835Y-61438000D01*
X192331367Y-61436749D01*
X192306144Y-61433007D01*
X192281409Y-61426812D01*
X192257400Y-61418221D01*
X192234350Y-61407319D01*
X192212478Y-61394210D01*
X192191997Y-61379020D01*
X192173104Y-61361896D01*
X192155980Y-61343003D01*
X192140790Y-61322522D01*
X192127681Y-61300650D01*
X192116779Y-61277600D01*
X192108188Y-61253591D01*
X192101993Y-61228856D01*
X192098251Y-61203633D01*
X192097000Y-61178165D01*
X192097000Y-60112835D01*
X192098251Y-60087367D01*
X192101993Y-60062144D01*
X192108188Y-60037409D01*
X192116779Y-60013400D01*
X192127681Y-59990350D01*
X192140790Y-59968478D01*
X192155980Y-59947997D01*
X192173104Y-59929104D01*
X192191997Y-59911980D01*
X192212478Y-59896790D01*
X192234350Y-59883681D01*
X192257400Y-59872779D01*
X192281409Y-59864188D01*
X192306144Y-59857993D01*
X192331367Y-59854251D01*
X192356835Y-59853000D01*
X195247165Y-59853000D01*
X195272633Y-59854251D01*
X195272633Y-59854251D01*
G37*
D28*
X193802000Y-60645500D03*
G04 #@! TD*
D21*
G04 #@! TO.C,R5*
G36*
X221180633Y-57822251D02*
X221205856Y-57825993D01*
X221230591Y-57832188D01*
X221254600Y-57840779D01*
X221277650Y-57851681D01*
X221299522Y-57864790D01*
X221320003Y-57879980D01*
X221338896Y-57897104D01*
X221356020Y-57915997D01*
X221371210Y-57936478D01*
X221384319Y-57958350D01*
X221395221Y-57981400D01*
X221403812Y-58005409D01*
X221410007Y-58030144D01*
X221413749Y-58055367D01*
X221415000Y-58080835D01*
X221415000Y-59146165D01*
X221413749Y-59171633D01*
X221410007Y-59196856D01*
X221403812Y-59221591D01*
X221395221Y-59245600D01*
X221384319Y-59268650D01*
X221371210Y-59290522D01*
X221356020Y-59311003D01*
X221338896Y-59329896D01*
X221320003Y-59347020D01*
X221299522Y-59362210D01*
X221277650Y-59375319D01*
X221254600Y-59386221D01*
X221230591Y-59394812D01*
X221205856Y-59401007D01*
X221180633Y-59404749D01*
X221155165Y-59406000D01*
X218264835Y-59406000D01*
X218239367Y-59404749D01*
X218214144Y-59401007D01*
X218189409Y-59394812D01*
X218165400Y-59386221D01*
X218142350Y-59375319D01*
X218120478Y-59362210D01*
X218099997Y-59347020D01*
X218081104Y-59329896D01*
X218063980Y-59311003D01*
X218048790Y-59290522D01*
X218035681Y-59268650D01*
X218024779Y-59245600D01*
X218016188Y-59221591D01*
X218009993Y-59196856D01*
X218006251Y-59171633D01*
X218005000Y-59146165D01*
X218005000Y-58080835D01*
X218006251Y-58055367D01*
X218009993Y-58030144D01*
X218016188Y-58005409D01*
X218024779Y-57981400D01*
X218035681Y-57958350D01*
X218048790Y-57936478D01*
X218063980Y-57915997D01*
X218081104Y-57897104D01*
X218099997Y-57879980D01*
X218120478Y-57864790D01*
X218142350Y-57851681D01*
X218165400Y-57840779D01*
X218189409Y-57832188D01*
X218214144Y-57825993D01*
X218239367Y-57822251D01*
X218264835Y-57821000D01*
X221155165Y-57821000D01*
X221180633Y-57822251D01*
X221180633Y-57822251D01*
G37*
D28*
X219710000Y-58613500D03*
D21*
G36*
X221180633Y-51847251D02*
X221205856Y-51850993D01*
X221230591Y-51857188D01*
X221254600Y-51865779D01*
X221277650Y-51876681D01*
X221299522Y-51889790D01*
X221320003Y-51904980D01*
X221338896Y-51922104D01*
X221356020Y-51940997D01*
X221371210Y-51961478D01*
X221384319Y-51983350D01*
X221395221Y-52006400D01*
X221403812Y-52030409D01*
X221410007Y-52055144D01*
X221413749Y-52080367D01*
X221415000Y-52105835D01*
X221415000Y-53171165D01*
X221413749Y-53196633D01*
X221410007Y-53221856D01*
X221403812Y-53246591D01*
X221395221Y-53270600D01*
X221384319Y-53293650D01*
X221371210Y-53315522D01*
X221356020Y-53336003D01*
X221338896Y-53354896D01*
X221320003Y-53372020D01*
X221299522Y-53387210D01*
X221277650Y-53400319D01*
X221254600Y-53411221D01*
X221230591Y-53419812D01*
X221205856Y-53426007D01*
X221180633Y-53429749D01*
X221155165Y-53431000D01*
X218264835Y-53431000D01*
X218239367Y-53429749D01*
X218214144Y-53426007D01*
X218189409Y-53419812D01*
X218165400Y-53411221D01*
X218142350Y-53400319D01*
X218120478Y-53387210D01*
X218099997Y-53372020D01*
X218081104Y-53354896D01*
X218063980Y-53336003D01*
X218048790Y-53315522D01*
X218035681Y-53293650D01*
X218024779Y-53270600D01*
X218016188Y-53246591D01*
X218009993Y-53221856D01*
X218006251Y-53196633D01*
X218005000Y-53171165D01*
X218005000Y-52105835D01*
X218006251Y-52080367D01*
X218009993Y-52055144D01*
X218016188Y-52030409D01*
X218024779Y-52006400D01*
X218035681Y-51983350D01*
X218048790Y-51961478D01*
X218063980Y-51940997D01*
X218081104Y-51922104D01*
X218099997Y-51904980D01*
X218120478Y-51889790D01*
X218142350Y-51876681D01*
X218165400Y-51865779D01*
X218189409Y-51857188D01*
X218214144Y-51850993D01*
X218239367Y-51847251D01*
X218264835Y-51846000D01*
X221155165Y-51846000D01*
X221180633Y-51847251D01*
X221180633Y-51847251D01*
G37*
D28*
X219710000Y-52638500D03*
G04 #@! TD*
D21*
G04 #@! TO.C,R6*
G36*
X199082633Y-59854251D02*
X199107856Y-59857993D01*
X199132591Y-59864188D01*
X199156600Y-59872779D01*
X199179650Y-59883681D01*
X199201522Y-59896790D01*
X199222003Y-59911980D01*
X199240896Y-59929104D01*
X199258020Y-59947997D01*
X199273210Y-59968478D01*
X199286319Y-59990350D01*
X199297221Y-60013400D01*
X199305812Y-60037409D01*
X199312007Y-60062144D01*
X199315749Y-60087367D01*
X199317000Y-60112835D01*
X199317000Y-61178165D01*
X199315749Y-61203633D01*
X199312007Y-61228856D01*
X199305812Y-61253591D01*
X199297221Y-61277600D01*
X199286319Y-61300650D01*
X199273210Y-61322522D01*
X199258020Y-61343003D01*
X199240896Y-61361896D01*
X199222003Y-61379020D01*
X199201522Y-61394210D01*
X199179650Y-61407319D01*
X199156600Y-61418221D01*
X199132591Y-61426812D01*
X199107856Y-61433007D01*
X199082633Y-61436749D01*
X199057165Y-61438000D01*
X196166835Y-61438000D01*
X196141367Y-61436749D01*
X196116144Y-61433007D01*
X196091409Y-61426812D01*
X196067400Y-61418221D01*
X196044350Y-61407319D01*
X196022478Y-61394210D01*
X196001997Y-61379020D01*
X195983104Y-61361896D01*
X195965980Y-61343003D01*
X195950790Y-61322522D01*
X195937681Y-61300650D01*
X195926779Y-61277600D01*
X195918188Y-61253591D01*
X195911993Y-61228856D01*
X195908251Y-61203633D01*
X195907000Y-61178165D01*
X195907000Y-60112835D01*
X195908251Y-60087367D01*
X195911993Y-60062144D01*
X195918188Y-60037409D01*
X195926779Y-60013400D01*
X195937681Y-59990350D01*
X195950790Y-59968478D01*
X195965980Y-59947997D01*
X195983104Y-59929104D01*
X196001997Y-59911980D01*
X196022478Y-59896790D01*
X196044350Y-59883681D01*
X196067400Y-59872779D01*
X196091409Y-59864188D01*
X196116144Y-59857993D01*
X196141367Y-59854251D01*
X196166835Y-59853000D01*
X199057165Y-59853000D01*
X199082633Y-59854251D01*
X199082633Y-59854251D01*
G37*
D28*
X197612000Y-60645500D03*
D21*
G36*
X199082633Y-53879251D02*
X199107856Y-53882993D01*
X199132591Y-53889188D01*
X199156600Y-53897779D01*
X199179650Y-53908681D01*
X199201522Y-53921790D01*
X199222003Y-53936980D01*
X199240896Y-53954104D01*
X199258020Y-53972997D01*
X199273210Y-53993478D01*
X199286319Y-54015350D01*
X199297221Y-54038400D01*
X199305812Y-54062409D01*
X199312007Y-54087144D01*
X199315749Y-54112367D01*
X199317000Y-54137835D01*
X199317000Y-55203165D01*
X199315749Y-55228633D01*
X199312007Y-55253856D01*
X199305812Y-55278591D01*
X199297221Y-55302600D01*
X199286319Y-55325650D01*
X199273210Y-55347522D01*
X199258020Y-55368003D01*
X199240896Y-55386896D01*
X199222003Y-55404020D01*
X199201522Y-55419210D01*
X199179650Y-55432319D01*
X199156600Y-55443221D01*
X199132591Y-55451812D01*
X199107856Y-55458007D01*
X199082633Y-55461749D01*
X199057165Y-55463000D01*
X196166835Y-55463000D01*
X196141367Y-55461749D01*
X196116144Y-55458007D01*
X196091409Y-55451812D01*
X196067400Y-55443221D01*
X196044350Y-55432319D01*
X196022478Y-55419210D01*
X196001997Y-55404020D01*
X195983104Y-55386896D01*
X195965980Y-55368003D01*
X195950790Y-55347522D01*
X195937681Y-55325650D01*
X195926779Y-55302600D01*
X195918188Y-55278591D01*
X195911993Y-55253856D01*
X195908251Y-55228633D01*
X195907000Y-55203165D01*
X195907000Y-54137835D01*
X195908251Y-54112367D01*
X195911993Y-54087144D01*
X195918188Y-54062409D01*
X195926779Y-54038400D01*
X195937681Y-54015350D01*
X195950790Y-53993478D01*
X195965980Y-53972997D01*
X195983104Y-53954104D01*
X196001997Y-53936980D01*
X196022478Y-53921790D01*
X196044350Y-53908681D01*
X196067400Y-53897779D01*
X196091409Y-53889188D01*
X196116144Y-53882993D01*
X196141367Y-53879251D01*
X196166835Y-53878000D01*
X199057165Y-53878000D01*
X199082633Y-53879251D01*
X199082633Y-53879251D01*
G37*
D28*
X197612000Y-54670500D03*
G04 #@! TD*
D21*
G04 #@! TO.C,R7*
G36*
X206702633Y-65563251D02*
X206727856Y-65566993D01*
X206752591Y-65573188D01*
X206776600Y-65581779D01*
X206799650Y-65592681D01*
X206821522Y-65605790D01*
X206842003Y-65620980D01*
X206860896Y-65638104D01*
X206878020Y-65656997D01*
X206893210Y-65677478D01*
X206906319Y-65699350D01*
X206917221Y-65722400D01*
X206925812Y-65746409D01*
X206932007Y-65771144D01*
X206935749Y-65796367D01*
X206937000Y-65821835D01*
X206937000Y-66887165D01*
X206935749Y-66912633D01*
X206932007Y-66937856D01*
X206925812Y-66962591D01*
X206917221Y-66986600D01*
X206906319Y-67009650D01*
X206893210Y-67031522D01*
X206878020Y-67052003D01*
X206860896Y-67070896D01*
X206842003Y-67088020D01*
X206821522Y-67103210D01*
X206799650Y-67116319D01*
X206776600Y-67127221D01*
X206752591Y-67135812D01*
X206727856Y-67142007D01*
X206702633Y-67145749D01*
X206677165Y-67147000D01*
X203786835Y-67147000D01*
X203761367Y-67145749D01*
X203736144Y-67142007D01*
X203711409Y-67135812D01*
X203687400Y-67127221D01*
X203664350Y-67116319D01*
X203642478Y-67103210D01*
X203621997Y-67088020D01*
X203603104Y-67070896D01*
X203585980Y-67052003D01*
X203570790Y-67031522D01*
X203557681Y-67009650D01*
X203546779Y-66986600D01*
X203538188Y-66962591D01*
X203531993Y-66937856D01*
X203528251Y-66912633D01*
X203527000Y-66887165D01*
X203527000Y-65821835D01*
X203528251Y-65796367D01*
X203531993Y-65771144D01*
X203538188Y-65746409D01*
X203546779Y-65722400D01*
X203557681Y-65699350D01*
X203570790Y-65677478D01*
X203585980Y-65656997D01*
X203603104Y-65638104D01*
X203621997Y-65620980D01*
X203642478Y-65605790D01*
X203664350Y-65592681D01*
X203687400Y-65581779D01*
X203711409Y-65573188D01*
X203736144Y-65566993D01*
X203761367Y-65563251D01*
X203786835Y-65562000D01*
X206677165Y-65562000D01*
X206702633Y-65563251D01*
X206702633Y-65563251D01*
G37*
D28*
X205232000Y-66354500D03*
D21*
G36*
X206702633Y-71538251D02*
X206727856Y-71541993D01*
X206752591Y-71548188D01*
X206776600Y-71556779D01*
X206799650Y-71567681D01*
X206821522Y-71580790D01*
X206842003Y-71595980D01*
X206860896Y-71613104D01*
X206878020Y-71631997D01*
X206893210Y-71652478D01*
X206906319Y-71674350D01*
X206917221Y-71697400D01*
X206925812Y-71721409D01*
X206932007Y-71746144D01*
X206935749Y-71771367D01*
X206937000Y-71796835D01*
X206937000Y-72862165D01*
X206935749Y-72887633D01*
X206932007Y-72912856D01*
X206925812Y-72937591D01*
X206917221Y-72961600D01*
X206906319Y-72984650D01*
X206893210Y-73006522D01*
X206878020Y-73027003D01*
X206860896Y-73045896D01*
X206842003Y-73063020D01*
X206821522Y-73078210D01*
X206799650Y-73091319D01*
X206776600Y-73102221D01*
X206752591Y-73110812D01*
X206727856Y-73117007D01*
X206702633Y-73120749D01*
X206677165Y-73122000D01*
X203786835Y-73122000D01*
X203761367Y-73120749D01*
X203736144Y-73117007D01*
X203711409Y-73110812D01*
X203687400Y-73102221D01*
X203664350Y-73091319D01*
X203642478Y-73078210D01*
X203621997Y-73063020D01*
X203603104Y-73045896D01*
X203585980Y-73027003D01*
X203570790Y-73006522D01*
X203557681Y-72984650D01*
X203546779Y-72961600D01*
X203538188Y-72937591D01*
X203531993Y-72912856D01*
X203528251Y-72887633D01*
X203527000Y-72862165D01*
X203527000Y-71796835D01*
X203528251Y-71771367D01*
X203531993Y-71746144D01*
X203538188Y-71721409D01*
X203546779Y-71697400D01*
X203557681Y-71674350D01*
X203570790Y-71652478D01*
X203585980Y-71631997D01*
X203603104Y-71613104D01*
X203621997Y-71595980D01*
X203642478Y-71580790D01*
X203664350Y-71567681D01*
X203687400Y-71556779D01*
X203711409Y-71548188D01*
X203736144Y-71541993D01*
X203761367Y-71538251D01*
X203786835Y-71537000D01*
X206677165Y-71537000D01*
X206702633Y-71538251D01*
X206702633Y-71538251D01*
G37*
D28*
X205232000Y-72329500D03*
G04 #@! TD*
D21*
G04 #@! TO.C,R8*
G36*
X210512633Y-65563251D02*
X210537856Y-65566993D01*
X210562591Y-65573188D01*
X210586600Y-65581779D01*
X210609650Y-65592681D01*
X210631522Y-65605790D01*
X210652003Y-65620980D01*
X210670896Y-65638104D01*
X210688020Y-65656997D01*
X210703210Y-65677478D01*
X210716319Y-65699350D01*
X210727221Y-65722400D01*
X210735812Y-65746409D01*
X210742007Y-65771144D01*
X210745749Y-65796367D01*
X210747000Y-65821835D01*
X210747000Y-66887165D01*
X210745749Y-66912633D01*
X210742007Y-66937856D01*
X210735812Y-66962591D01*
X210727221Y-66986600D01*
X210716319Y-67009650D01*
X210703210Y-67031522D01*
X210688020Y-67052003D01*
X210670896Y-67070896D01*
X210652003Y-67088020D01*
X210631522Y-67103210D01*
X210609650Y-67116319D01*
X210586600Y-67127221D01*
X210562591Y-67135812D01*
X210537856Y-67142007D01*
X210512633Y-67145749D01*
X210487165Y-67147000D01*
X207596835Y-67147000D01*
X207571367Y-67145749D01*
X207546144Y-67142007D01*
X207521409Y-67135812D01*
X207497400Y-67127221D01*
X207474350Y-67116319D01*
X207452478Y-67103210D01*
X207431997Y-67088020D01*
X207413104Y-67070896D01*
X207395980Y-67052003D01*
X207380790Y-67031522D01*
X207367681Y-67009650D01*
X207356779Y-66986600D01*
X207348188Y-66962591D01*
X207341993Y-66937856D01*
X207338251Y-66912633D01*
X207337000Y-66887165D01*
X207337000Y-65821835D01*
X207338251Y-65796367D01*
X207341993Y-65771144D01*
X207348188Y-65746409D01*
X207356779Y-65722400D01*
X207367681Y-65699350D01*
X207380790Y-65677478D01*
X207395980Y-65656997D01*
X207413104Y-65638104D01*
X207431997Y-65620980D01*
X207452478Y-65605790D01*
X207474350Y-65592681D01*
X207497400Y-65581779D01*
X207521409Y-65573188D01*
X207546144Y-65566993D01*
X207571367Y-65563251D01*
X207596835Y-65562000D01*
X210487165Y-65562000D01*
X210512633Y-65563251D01*
X210512633Y-65563251D01*
G37*
D28*
X209042000Y-66354500D03*
D21*
G36*
X210512633Y-71538251D02*
X210537856Y-71541993D01*
X210562591Y-71548188D01*
X210586600Y-71556779D01*
X210609650Y-71567681D01*
X210631522Y-71580790D01*
X210652003Y-71595980D01*
X210670896Y-71613104D01*
X210688020Y-71631997D01*
X210703210Y-71652478D01*
X210716319Y-71674350D01*
X210727221Y-71697400D01*
X210735812Y-71721409D01*
X210742007Y-71746144D01*
X210745749Y-71771367D01*
X210747000Y-71796835D01*
X210747000Y-72862165D01*
X210745749Y-72887633D01*
X210742007Y-72912856D01*
X210735812Y-72937591D01*
X210727221Y-72961600D01*
X210716319Y-72984650D01*
X210703210Y-73006522D01*
X210688020Y-73027003D01*
X210670896Y-73045896D01*
X210652003Y-73063020D01*
X210631522Y-73078210D01*
X210609650Y-73091319D01*
X210586600Y-73102221D01*
X210562591Y-73110812D01*
X210537856Y-73117007D01*
X210512633Y-73120749D01*
X210487165Y-73122000D01*
X207596835Y-73122000D01*
X207571367Y-73120749D01*
X207546144Y-73117007D01*
X207521409Y-73110812D01*
X207497400Y-73102221D01*
X207474350Y-73091319D01*
X207452478Y-73078210D01*
X207431997Y-73063020D01*
X207413104Y-73045896D01*
X207395980Y-73027003D01*
X207380790Y-73006522D01*
X207367681Y-72984650D01*
X207356779Y-72961600D01*
X207348188Y-72937591D01*
X207341993Y-72912856D01*
X207338251Y-72887633D01*
X207337000Y-72862165D01*
X207337000Y-71796835D01*
X207338251Y-71771367D01*
X207341993Y-71746144D01*
X207348188Y-71721409D01*
X207356779Y-71697400D01*
X207367681Y-71674350D01*
X207380790Y-71652478D01*
X207395980Y-71631997D01*
X207413104Y-71613104D01*
X207431997Y-71595980D01*
X207452478Y-71580790D01*
X207474350Y-71567681D01*
X207497400Y-71556779D01*
X207521409Y-71548188D01*
X207546144Y-71541993D01*
X207571367Y-71538251D01*
X207596835Y-71537000D01*
X210487165Y-71537000D01*
X210512633Y-71538251D01*
X210512633Y-71538251D01*
G37*
D28*
X209042000Y-72329500D03*
G04 #@! TD*
D21*
G04 #@! TO.C,R9*
G36*
X206702633Y-53879251D02*
X206727856Y-53882993D01*
X206752591Y-53889188D01*
X206776600Y-53897779D01*
X206799650Y-53908681D01*
X206821522Y-53921790D01*
X206842003Y-53936980D01*
X206860896Y-53954104D01*
X206878020Y-53972997D01*
X206893210Y-53993478D01*
X206906319Y-54015350D01*
X206917221Y-54038400D01*
X206925812Y-54062409D01*
X206932007Y-54087144D01*
X206935749Y-54112367D01*
X206937000Y-54137835D01*
X206937000Y-55203165D01*
X206935749Y-55228633D01*
X206932007Y-55253856D01*
X206925812Y-55278591D01*
X206917221Y-55302600D01*
X206906319Y-55325650D01*
X206893210Y-55347522D01*
X206878020Y-55368003D01*
X206860896Y-55386896D01*
X206842003Y-55404020D01*
X206821522Y-55419210D01*
X206799650Y-55432319D01*
X206776600Y-55443221D01*
X206752591Y-55451812D01*
X206727856Y-55458007D01*
X206702633Y-55461749D01*
X206677165Y-55463000D01*
X203786835Y-55463000D01*
X203761367Y-55461749D01*
X203736144Y-55458007D01*
X203711409Y-55451812D01*
X203687400Y-55443221D01*
X203664350Y-55432319D01*
X203642478Y-55419210D01*
X203621997Y-55404020D01*
X203603104Y-55386896D01*
X203585980Y-55368003D01*
X203570790Y-55347522D01*
X203557681Y-55325650D01*
X203546779Y-55302600D01*
X203538188Y-55278591D01*
X203531993Y-55253856D01*
X203528251Y-55228633D01*
X203527000Y-55203165D01*
X203527000Y-54137835D01*
X203528251Y-54112367D01*
X203531993Y-54087144D01*
X203538188Y-54062409D01*
X203546779Y-54038400D01*
X203557681Y-54015350D01*
X203570790Y-53993478D01*
X203585980Y-53972997D01*
X203603104Y-53954104D01*
X203621997Y-53936980D01*
X203642478Y-53921790D01*
X203664350Y-53908681D01*
X203687400Y-53897779D01*
X203711409Y-53889188D01*
X203736144Y-53882993D01*
X203761367Y-53879251D01*
X203786835Y-53878000D01*
X206677165Y-53878000D01*
X206702633Y-53879251D01*
X206702633Y-53879251D01*
G37*
D28*
X205232000Y-54670500D03*
D21*
G36*
X206702633Y-59854251D02*
X206727856Y-59857993D01*
X206752591Y-59864188D01*
X206776600Y-59872779D01*
X206799650Y-59883681D01*
X206821522Y-59896790D01*
X206842003Y-59911980D01*
X206860896Y-59929104D01*
X206878020Y-59947997D01*
X206893210Y-59968478D01*
X206906319Y-59990350D01*
X206917221Y-60013400D01*
X206925812Y-60037409D01*
X206932007Y-60062144D01*
X206935749Y-60087367D01*
X206937000Y-60112835D01*
X206937000Y-61178165D01*
X206935749Y-61203633D01*
X206932007Y-61228856D01*
X206925812Y-61253591D01*
X206917221Y-61277600D01*
X206906319Y-61300650D01*
X206893210Y-61322522D01*
X206878020Y-61343003D01*
X206860896Y-61361896D01*
X206842003Y-61379020D01*
X206821522Y-61394210D01*
X206799650Y-61407319D01*
X206776600Y-61418221D01*
X206752591Y-61426812D01*
X206727856Y-61433007D01*
X206702633Y-61436749D01*
X206677165Y-61438000D01*
X203786835Y-61438000D01*
X203761367Y-61436749D01*
X203736144Y-61433007D01*
X203711409Y-61426812D01*
X203687400Y-61418221D01*
X203664350Y-61407319D01*
X203642478Y-61394210D01*
X203621997Y-61379020D01*
X203603104Y-61361896D01*
X203585980Y-61343003D01*
X203570790Y-61322522D01*
X203557681Y-61300650D01*
X203546779Y-61277600D01*
X203538188Y-61253591D01*
X203531993Y-61228856D01*
X203528251Y-61203633D01*
X203527000Y-61178165D01*
X203527000Y-60112835D01*
X203528251Y-60087367D01*
X203531993Y-60062144D01*
X203538188Y-60037409D01*
X203546779Y-60013400D01*
X203557681Y-59990350D01*
X203570790Y-59968478D01*
X203585980Y-59947997D01*
X203603104Y-59929104D01*
X203621997Y-59911980D01*
X203642478Y-59896790D01*
X203664350Y-59883681D01*
X203687400Y-59872779D01*
X203711409Y-59864188D01*
X203736144Y-59857993D01*
X203761367Y-59854251D01*
X203786835Y-59853000D01*
X206677165Y-59853000D01*
X206702633Y-59854251D01*
X206702633Y-59854251D01*
G37*
D28*
X205232000Y-60645500D03*
G04 #@! TD*
D21*
G04 #@! TO.C,R11*
G36*
X210512633Y-53879251D02*
X210537856Y-53882993D01*
X210562591Y-53889188D01*
X210586600Y-53897779D01*
X210609650Y-53908681D01*
X210631522Y-53921790D01*
X210652003Y-53936980D01*
X210670896Y-53954104D01*
X210688020Y-53972997D01*
X210703210Y-53993478D01*
X210716319Y-54015350D01*
X210727221Y-54038400D01*
X210735812Y-54062409D01*
X210742007Y-54087144D01*
X210745749Y-54112367D01*
X210747000Y-54137835D01*
X210747000Y-55203165D01*
X210745749Y-55228633D01*
X210742007Y-55253856D01*
X210735812Y-55278591D01*
X210727221Y-55302600D01*
X210716319Y-55325650D01*
X210703210Y-55347522D01*
X210688020Y-55368003D01*
X210670896Y-55386896D01*
X210652003Y-55404020D01*
X210631522Y-55419210D01*
X210609650Y-55432319D01*
X210586600Y-55443221D01*
X210562591Y-55451812D01*
X210537856Y-55458007D01*
X210512633Y-55461749D01*
X210487165Y-55463000D01*
X207596835Y-55463000D01*
X207571367Y-55461749D01*
X207546144Y-55458007D01*
X207521409Y-55451812D01*
X207497400Y-55443221D01*
X207474350Y-55432319D01*
X207452478Y-55419210D01*
X207431997Y-55404020D01*
X207413104Y-55386896D01*
X207395980Y-55368003D01*
X207380790Y-55347522D01*
X207367681Y-55325650D01*
X207356779Y-55302600D01*
X207348188Y-55278591D01*
X207341993Y-55253856D01*
X207338251Y-55228633D01*
X207337000Y-55203165D01*
X207337000Y-54137835D01*
X207338251Y-54112367D01*
X207341993Y-54087144D01*
X207348188Y-54062409D01*
X207356779Y-54038400D01*
X207367681Y-54015350D01*
X207380790Y-53993478D01*
X207395980Y-53972997D01*
X207413104Y-53954104D01*
X207431997Y-53936980D01*
X207452478Y-53921790D01*
X207474350Y-53908681D01*
X207497400Y-53897779D01*
X207521409Y-53889188D01*
X207546144Y-53882993D01*
X207571367Y-53879251D01*
X207596835Y-53878000D01*
X210487165Y-53878000D01*
X210512633Y-53879251D01*
X210512633Y-53879251D01*
G37*
D28*
X209042000Y-54670500D03*
D21*
G36*
X210512633Y-59854251D02*
X210537856Y-59857993D01*
X210562591Y-59864188D01*
X210586600Y-59872779D01*
X210609650Y-59883681D01*
X210631522Y-59896790D01*
X210652003Y-59911980D01*
X210670896Y-59929104D01*
X210688020Y-59947997D01*
X210703210Y-59968478D01*
X210716319Y-59990350D01*
X210727221Y-60013400D01*
X210735812Y-60037409D01*
X210742007Y-60062144D01*
X210745749Y-60087367D01*
X210747000Y-60112835D01*
X210747000Y-61178165D01*
X210745749Y-61203633D01*
X210742007Y-61228856D01*
X210735812Y-61253591D01*
X210727221Y-61277600D01*
X210716319Y-61300650D01*
X210703210Y-61322522D01*
X210688020Y-61343003D01*
X210670896Y-61361896D01*
X210652003Y-61379020D01*
X210631522Y-61394210D01*
X210609650Y-61407319D01*
X210586600Y-61418221D01*
X210562591Y-61426812D01*
X210537856Y-61433007D01*
X210512633Y-61436749D01*
X210487165Y-61438000D01*
X207596835Y-61438000D01*
X207571367Y-61436749D01*
X207546144Y-61433007D01*
X207521409Y-61426812D01*
X207497400Y-61418221D01*
X207474350Y-61407319D01*
X207452478Y-61394210D01*
X207431997Y-61379020D01*
X207413104Y-61361896D01*
X207395980Y-61343003D01*
X207380790Y-61322522D01*
X207367681Y-61300650D01*
X207356779Y-61277600D01*
X207348188Y-61253591D01*
X207341993Y-61228856D01*
X207338251Y-61203633D01*
X207337000Y-61178165D01*
X207337000Y-60112835D01*
X207338251Y-60087367D01*
X207341993Y-60062144D01*
X207348188Y-60037409D01*
X207356779Y-60013400D01*
X207367681Y-59990350D01*
X207380790Y-59968478D01*
X207395980Y-59947997D01*
X207413104Y-59929104D01*
X207431997Y-59911980D01*
X207452478Y-59896790D01*
X207474350Y-59883681D01*
X207497400Y-59872779D01*
X207521409Y-59864188D01*
X207546144Y-59857993D01*
X207571367Y-59854251D01*
X207596835Y-59853000D01*
X210487165Y-59853000D01*
X210512633Y-59854251D01*
X210512633Y-59854251D01*
G37*
D28*
X209042000Y-60645500D03*
G04 #@! TD*
D29*
G04 #@! TO.C,J1*
X226000000Y-64000000D03*
G04 #@! TD*
G04 #@! TO.C,J2*
X162000000Y-64000000D03*
G04 #@! TD*
M02*
