M48
;DRILL file {KiCad no-vcs-found-91ed3e2~59~ubuntu16.04.1} date Thu Dec 14 12:11:23 2017
;FORMAT={-:-/ absolute / metric / decimal}
FMAT,2
METRIC,TZ
T1C0.300
T2C0.400
T3C1.000
T4C0.300
%
G90
G05
M71
T1
X76.636Y-114.314
X38.002Y-126.296
X89.59Y-100.852
X27.334Y-130.614
X56.684Y-110.25
X38.002Y-97.296
X30.636Y-172.314
X41.05Y-107.964
X27.334Y-101.614
X50.334Y-159.614
X107.002Y-155.296
X67.86Y-113.044
X76.636Y-146.87
X112.59Y-100.852
X82.478Y-165.964
X102.684Y-110.25
X35.716Y-95.518
X66.59Y-100.852
X104.716Y-95.518
X53.636Y-146.87
X36.478Y-136.964
X27.842Y-169.012
X27.588Y-124.518
X36.478Y-107.964
X43.59Y-158.852
X110.05Y-107.964
X61.002Y-97.296
X102.684Y-175.87
X93.44Y-129.59
X85.172Y-172.052
X110.05Y-165.964
X101.414Y-126.804
X44.86Y-113.044
X81.716Y-124.518
X30.636Y-175.87
X66.59Y-129.852
X90.86Y-171.044
X59.478Y-107.964
X113.86Y-171.044
X90.86Y-144.33
X110.05Y-136.964
X53.636Y-143.314
X102.684Y-168.25
X108.172Y-172.052
X101.414Y-97.804
X87.05Y-95.518
X33.684Y-110.25
X79.684Y-117.87
X58.716Y-124.518
X67.86Y-144.33
X41.05Y-165.964
X39.172Y-114.052
X30.636Y-117.87
X62.172Y-172.052
X41.05Y-153.518
X50.334Y-101.614
X43.59Y-100.852
X67.86Y-171.044
X85.172Y-114.052
X56.684Y-175.87
X73.334Y-101.614
X110.05Y-124.518
X108.172Y-143.052
X50.842Y-140.012
X33.684Y-146.87
X104.716Y-124.518
X99.636Y-117.87
X96.588Y-95.518
X93.44Y-100.59
X84.002Y-126.296
X61.002Y-155.296
X41.05Y-95.518
X90.86Y-115.33
X58.716Y-153.518
X78.414Y-126.804
X87.05Y-153.518
X96.842Y-111.012
X44.86Y-142.044
X96.334Y-101.614
X64.05Y-95.518
X67.86Y-173.33
X70.44Y-129.59
X87.05Y-165.964
X32.414Y-97.804
X39.172Y-143.052
X33.684Y-139.25
X64.05Y-107.964
X79.684Y-110.25
X47.44Y-100.59
X96.588Y-153.518
X24.44Y-158.59
X78.414Y-97.804
X90.86Y-173.33
X73.842Y-111.012
X30.636Y-114.314
X41.05Y-136.964
X56.684Y-139.25
X50.842Y-169.012
X41.05Y-124.518
X53.636Y-117.87
X102.684Y-146.87
X90.86Y-113.044
X73.334Y-159.614
X113.86Y-173.33
X113.86Y-142.044
X56.684Y-117.87
X96.842Y-169.012
X32.414Y-155.804
X62.172Y-143.052
X78.414Y-155.804
X104.716Y-153.518
X99.636Y-172.314
X87.05Y-136.964
X27.334Y-159.614
X33.684Y-117.87
X113.86Y-144.33
X105.478Y-107.964
X67.86Y-142.044
X70.44Y-158.59
X112.59Y-158.852
X56.684Y-146.87
X99.636Y-175.87
X64.05Y-136.964
X44.86Y-173.33
X110.05Y-95.518
X35.716Y-153.518
X55.414Y-155.804
X38.002Y-155.296
X99.636Y-114.314
X55.414Y-97.804
X47.44Y-158.59
X50.334Y-130.614
X67.86Y-115.33
X107.002Y-126.296
X30.636Y-143.314
X96.842Y-140.012
X99.636Y-146.87
X44.86Y-115.33
X87.05Y-124.518
X64.05Y-153.518
X79.684Y-168.25
X64.05Y-165.964
X89.59Y-129.852
X73.588Y-153.518
X33.684Y-175.87
X43.59Y-129.852
X76.636Y-143.314
X58.716Y-95.518
X27.588Y-95.518
X30.636Y-146.87
X81.716Y-95.518
X113.86Y-113.044
X110.05Y-153.518
X76.636Y-117.87
X73.334Y-130.614
X24.44Y-100.59
X64.05Y-124.518
X73.588Y-95.518
X44.86Y-144.33
X44.86Y-171.044
X87.05Y-107.964
X35.716Y-124.518
X70.44Y-100.59
X61.002Y-126.296
X99.636Y-143.314
X76.636Y-175.87
X105.478Y-165.964
X112.59Y-129.852
X73.842Y-169.012
X39.172Y-172.052
X55.414Y-126.804
X89.59Y-158.852
X93.44Y-158.59
X84.002Y-97.296
X108.172Y-114.052
X82.478Y-136.964
X105.478Y-136.964
X47.44Y-129.59
X76.636Y-172.314
X79.684Y-175.87
X101.414Y-155.804
X96.334Y-159.614
X50.588Y-124.518
X102.684Y-117.87
X59.478Y-136.964
X53.636Y-175.87
X36.478Y-165.964
X50.842Y-111.012
X27.588Y-153.518
X66.59Y-158.852
X33.684Y-168.25
X27.842Y-111.012
X53.636Y-172.314
X96.588Y-124.518
X27.842Y-140.012
X82.478Y-107.964
X24.44Y-129.59
X73.842Y-140.012
X53.636Y-114.314
X50.588Y-95.518
X96.334Y-130.614
X102.684Y-139.25
X79.684Y-139.25
X56.684Y-168.25
X73.588Y-124.518
X50.588Y-153.518
X85.172Y-143.052
X84.002Y-155.296
X62.172Y-114.052
X59.478Y-165.964
X90.86Y-142.044
X81.716Y-153.518
X113.86Y-115.33
X107.002Y-97.296
X32.414Y-126.804
X79.684Y-146.87
T2
X31.398Y-101.614
X31.398Y-130.614
X31.398Y-159.614
X32.608Y-101.543
X32.608Y-130.543
X32.608Y-159.543
X33.721Y-101.455
X33.721Y-130.455
X33.721Y-159.455
X33.938Y-98.312
X33.938Y-127.312
X33.938Y-156.312
X34.493Y-97.48
X34.493Y-126.48
X34.493Y-155.48
X35.272Y-101.17
X35.272Y-130.17
X35.272Y-159.17
X54.398Y-101.614
X54.398Y-130.614
X54.398Y-159.614
X55.608Y-101.543
X55.608Y-130.543
X55.608Y-159.543
X56.721Y-101.455
X56.721Y-130.455
X56.721Y-159.455
X56.938Y-98.312
X56.938Y-127.312
X56.938Y-156.312
X57.493Y-97.48
X57.493Y-126.48
X57.493Y-155.48
X58.272Y-101.17
X58.272Y-130.17
X58.272Y-159.17
X77.398Y-101.614
X77.398Y-130.614
X77.398Y-159.614
X78.608Y-101.543
X78.608Y-130.543
X78.608Y-159.543
X79.721Y-101.455
X79.721Y-130.455
X79.721Y-159.455
X79.938Y-98.312
X79.938Y-127.312
X79.938Y-156.312
X80.493Y-97.48
X80.493Y-126.48
X80.493Y-155.48
X81.272Y-101.17
X81.272Y-130.17
X81.272Y-159.17
X100.398Y-101.614
X100.398Y-130.614
X100.398Y-159.614
X101.608Y-101.543
X101.608Y-130.543
X101.608Y-159.543
X102.721Y-101.455
X102.721Y-130.455
X102.721Y-159.455
X102.938Y-98.312
X102.938Y-127.312
X102.938Y-156.312
X103.493Y-97.48
X103.493Y-126.48
X103.493Y-155.48
X104.272Y-101.17
X104.272Y-130.17
X104.272Y-159.17
T3
X25.456Y-148.894
X27.996Y-148.894
X30.536Y-148.894
X33.076Y-148.894
X35.616Y-148.894
X38.156Y-148.894
X40.696Y-148.894
X43.236Y-148.894
X48.456Y-148.894
X50.996Y-148.894
X53.536Y-148.894
X56.076Y-148.894
X58.616Y-148.894
X61.156Y-148.894
X63.696Y-148.894
X66.236Y-148.894
X94.456Y-119.894
X96.996Y-119.894
X99.536Y-119.894
X102.076Y-119.894
X104.616Y-119.894
X107.156Y-119.894
X109.696Y-119.894
X112.236Y-119.894
X25.456Y-177.894
X27.996Y-177.894
X30.536Y-177.894
X33.076Y-177.894
X35.616Y-177.894
X38.156Y-177.894
X40.696Y-177.894
X43.236Y-177.894
X48.456Y-119.894
X50.996Y-119.894
X53.536Y-119.894
X56.076Y-119.894
X58.616Y-119.894
X61.156Y-119.894
X63.696Y-119.894
X66.236Y-119.894
X71.456Y-177.894
X73.996Y-177.894
X76.536Y-177.894
X79.076Y-177.894
X81.616Y-177.894
X84.156Y-177.894
X86.696Y-177.894
X89.236Y-177.894
X71.456Y-119.894
X73.996Y-119.894
X76.536Y-119.894
X79.076Y-119.894
X81.616Y-119.894
X84.156Y-119.894
X86.696Y-119.894
X89.236Y-119.894
X25.456Y-119.894
X27.996Y-119.894
X30.536Y-119.894
X33.076Y-119.894
X35.616Y-119.894
X38.156Y-119.894
X40.696Y-119.894
X43.236Y-119.894
X71.456Y-148.894
X73.996Y-148.894
X76.536Y-148.894
X79.076Y-148.894
X81.616Y-148.894
X84.156Y-148.894
X86.696Y-148.894
X89.236Y-148.894
X94.456Y-148.894
X96.996Y-148.894
X99.536Y-148.894
X102.076Y-148.894
X104.616Y-148.894
X107.156Y-148.894
X109.696Y-148.894
X112.236Y-148.894
X48.456Y-177.894
X50.996Y-177.894
X53.536Y-177.894
X56.076Y-177.894
X58.616Y-177.894
X61.156Y-177.894
X63.696Y-177.894
X66.236Y-177.894
X94.456Y-177.894
X96.996Y-177.894
X99.536Y-177.894
X102.076Y-177.894
X104.616Y-177.894
X107.156Y-177.894
X109.696Y-177.894
X112.236Y-177.894
T4
X101.976Y-94.03
X102.476Y-94.03
X102.976Y-94.03
X103.476Y-94.03
X103.976Y-94.03
X45.976Y-165.03
X45.976Y-165.53
X45.976Y-166.03
X45.976Y-166.53
X45.976Y-167.03
X68.976Y-136.03
X68.976Y-136.53
X68.976Y-137.03
X68.976Y-137.53
X68.976Y-138.03
X68.976Y-107.03
X68.976Y-107.53
X68.976Y-108.03
X68.976Y-108.53
X68.976Y-109.03
X22.976Y-165.03
X22.976Y-165.53
X22.976Y-166.03
X22.976Y-166.53
X22.976Y-167.03
X91.976Y-136.03
X91.976Y-136.53
X91.976Y-137.03
X91.976Y-137.53
X91.976Y-138.03
X78.976Y-123.03
X79.476Y-123.03
X79.976Y-123.03
X80.476Y-123.03
X80.976Y-123.03
X91.976Y-107.03
X91.976Y-107.53
X91.976Y-108.03
X91.976Y-108.53
X91.976Y-109.03
X32.976Y-181.03
X33.476Y-181.03
X33.976Y-181.03
X34.476Y-181.03
X34.976Y-181.03
X114.976Y-107.03
X114.976Y-107.53
X114.976Y-108.03
X114.976Y-108.53
X114.976Y-109.03
X45.976Y-107.03
X45.976Y-107.53
X45.976Y-108.03
X45.976Y-108.53
X45.976Y-109.03
X101.976Y-152.03
X102.476Y-152.03
X102.976Y-152.03
X103.476Y-152.03
X103.976Y-152.03
X45.976Y-136.03
X45.976Y-136.53
X45.976Y-137.03
X45.976Y-137.53
X45.976Y-138.03
X101.976Y-123.03
X102.476Y-123.03
X102.976Y-123.03
X103.476Y-123.03
X103.976Y-123.03
X101.976Y-181.03
X102.476Y-181.03
X102.976Y-181.03
X103.476Y-181.03
X103.976Y-181.03
X45.976Y-165.03
X45.976Y-165.53
X45.976Y-166.03
X45.976Y-166.53
X45.976Y-167.03
X55.976Y-123.03
X56.476Y-123.03
X56.976Y-123.03
X57.476Y-123.03
X57.976Y-123.03
X45.976Y-107.03
X45.976Y-107.53
X45.976Y-108.03
X45.976Y-108.53
X45.976Y-109.03
X114.976Y-165.03
X114.976Y-165.53
X114.976Y-166.03
X114.976Y-166.53
X114.976Y-167.03
X68.976Y-165.03
X68.976Y-165.53
X68.976Y-166.03
X68.976Y-166.53
X68.976Y-167.03
X101.976Y-152.03
X102.476Y-152.03
X102.976Y-152.03
X103.476Y-152.03
X103.976Y-152.03
X55.976Y-181.03
X56.476Y-181.03
X56.976Y-181.03
X57.476Y-181.03
X57.976Y-181.03
X55.976Y-152.03
X56.476Y-152.03
X56.976Y-152.03
X57.476Y-152.03
X57.976Y-152.03
X91.976Y-165.03
X91.976Y-165.53
X91.976Y-166.03
X91.976Y-166.53
X91.976Y-167.03
X55.976Y-152.03
X56.476Y-152.03
X56.976Y-152.03
X57.476Y-152.03
X57.976Y-152.03
X22.976Y-107.03
X22.976Y-107.53
X22.976Y-108.03
X22.976Y-108.53
X22.976Y-109.03
X114.976Y-136.03
X114.976Y-136.53
X114.976Y-137.03
X114.976Y-137.53
X114.976Y-138.03
X91.976Y-107.03
X91.976Y-107.53
X91.976Y-108.03
X91.976Y-108.53
X91.976Y-109.03
X55.976Y-123.03
X56.476Y-123.03
X56.976Y-123.03
X57.476Y-123.03
X57.976Y-123.03
X91.976Y-136.03
X91.976Y-136.53
X91.976Y-137.03
X91.976Y-137.53
X91.976Y-138.03
X55.976Y-94.03
X56.476Y-94.03
X56.976Y-94.03
X57.476Y-94.03
X57.976Y-94.03
X22.976Y-136.03
X22.976Y-136.53
X22.976Y-137.03
X22.976Y-137.53
X22.976Y-138.03
X78.976Y-94.03
X79.476Y-94.03
X79.976Y-94.03
X80.476Y-94.03
X80.976Y-94.03
X78.976Y-152.03
X79.476Y-152.03
X79.976Y-152.03
X80.476Y-152.03
X80.976Y-152.03
X32.976Y-152.03
X33.476Y-152.03
X33.976Y-152.03
X34.476Y-152.03
X34.976Y-152.03
X32.976Y-123.03
X33.476Y-123.03
X33.976Y-123.03
X34.476Y-123.03
X34.976Y-123.03
X68.976Y-107.03
X68.976Y-107.53
X68.976Y-108.03
X68.976Y-108.53
X68.976Y-109.03
X78.976Y-123.03
X79.476Y-123.03
X79.976Y-123.03
X80.476Y-123.03
X80.976Y-123.03
X32.976Y-123.03
X33.476Y-123.03
X33.976Y-123.03
X34.476Y-123.03
X34.976Y-123.03
X32.976Y-152.03
X33.476Y-152.03
X33.976Y-152.03
X34.476Y-152.03
X34.976Y-152.03
X68.976Y-165.03
X68.976Y-165.53
X68.976Y-166.03
X68.976Y-166.53
X68.976Y-167.03
X91.976Y-165.03
X91.976Y-165.53
X91.976Y-166.03
X91.976Y-166.53
X91.976Y-167.03
X32.976Y-94.03
X33.476Y-94.03
X33.976Y-94.03
X34.476Y-94.03
X34.976Y-94.03
X78.976Y-181.03
X79.476Y-181.03
X79.976Y-181.03
X80.476Y-181.03
X80.976Y-181.03
X45.976Y-136.03
X45.976Y-136.53
X45.976Y-137.03
X45.976Y-137.53
X45.976Y-138.03
X78.976Y-152.03
X79.476Y-152.03
X79.976Y-152.03
X80.476Y-152.03
X80.976Y-152.03
X68.976Y-136.03
X68.976Y-136.53
X68.976Y-137.03
X68.976Y-137.53
X68.976Y-138.03
X101.976Y-123.03
X102.476Y-123.03
X102.976Y-123.03
X103.476Y-123.03
X103.976Y-123.03
T0
M30
