G04 #@! TF.GenerationSoftware,KiCad,Pcbnew,no-vcs-found-91ed3e2~59~ubuntu16.04.1*
G04 #@! TF.CreationDate,2017-12-14T12:11:24+01:00*
G04 #@! TF.ProjectId,ESP32-epaper-adapter-pan,45535033322D6570617065722D616461,rev?*
G04 #@! TF.SameCoordinates,Original*
G04 #@! TF.FileFunction,Soldermask,Bot*
G04 #@! TF.FilePolarity,Negative*
%FSLAX46Y46*%
G04 Gerber Fmt 4.6, Leading zero omitted, Abs format (unit mm)*
G04 Created by KiCad (PCBNEW no-vcs-found-91ed3e2~59~ubuntu16.04.1) date Thu Dec 14 12:11:24 2017*
%MOMM*%
%LPD*%
G01*
G04 APERTURE LIST*
%ADD10R,1.800000X1.800000*%
%ADD11O,1.800000X1.800000*%
G04 APERTURE END LIST*
D10*
X89236000Y-177894000D03*
D11*
X86696000Y-177894000D03*
X84156000Y-177894000D03*
X81616000Y-177894000D03*
X79076000Y-177894000D03*
X76536000Y-177894000D03*
X73996000Y-177894000D03*
X71456000Y-177894000D03*
X94456000Y-177894000D03*
X96996000Y-177894000D03*
X99536000Y-177894000D03*
X102076000Y-177894000D03*
X104616000Y-177894000D03*
X107156000Y-177894000D03*
X109696000Y-177894000D03*
D10*
X112236000Y-177894000D03*
X66236000Y-177894000D03*
D11*
X63696000Y-177894000D03*
X61156000Y-177894000D03*
X58616000Y-177894000D03*
X56076000Y-177894000D03*
X53536000Y-177894000D03*
X50996000Y-177894000D03*
X48456000Y-177894000D03*
X25456000Y-177894000D03*
X27996000Y-177894000D03*
X30536000Y-177894000D03*
X33076000Y-177894000D03*
X35616000Y-177894000D03*
X38156000Y-177894000D03*
X40696000Y-177894000D03*
D10*
X43236000Y-177894000D03*
X89236000Y-148894000D03*
D11*
X86696000Y-148894000D03*
X84156000Y-148894000D03*
X81616000Y-148894000D03*
X79076000Y-148894000D03*
X76536000Y-148894000D03*
X73996000Y-148894000D03*
X71456000Y-148894000D03*
X94456000Y-148894000D03*
X96996000Y-148894000D03*
X99536000Y-148894000D03*
X102076000Y-148894000D03*
X104616000Y-148894000D03*
X107156000Y-148894000D03*
X109696000Y-148894000D03*
D10*
X112236000Y-148894000D03*
X66236000Y-148894000D03*
D11*
X63696000Y-148894000D03*
X61156000Y-148894000D03*
X58616000Y-148894000D03*
X56076000Y-148894000D03*
X53536000Y-148894000D03*
X50996000Y-148894000D03*
X48456000Y-148894000D03*
X25456000Y-148894000D03*
X27996000Y-148894000D03*
X30536000Y-148894000D03*
X33076000Y-148894000D03*
X35616000Y-148894000D03*
X38156000Y-148894000D03*
X40696000Y-148894000D03*
D10*
X43236000Y-148894000D03*
X89236000Y-119894000D03*
D11*
X86696000Y-119894000D03*
X84156000Y-119894000D03*
X81616000Y-119894000D03*
X79076000Y-119894000D03*
X76536000Y-119894000D03*
X73996000Y-119894000D03*
X71456000Y-119894000D03*
X94456000Y-119894000D03*
X96996000Y-119894000D03*
X99536000Y-119894000D03*
X102076000Y-119894000D03*
X104616000Y-119894000D03*
X107156000Y-119894000D03*
X109696000Y-119894000D03*
D10*
X112236000Y-119894000D03*
X66236000Y-119894000D03*
D11*
X63696000Y-119894000D03*
X61156000Y-119894000D03*
X58616000Y-119894000D03*
X56076000Y-119894000D03*
X53536000Y-119894000D03*
X50996000Y-119894000D03*
X48456000Y-119894000D03*
X25456000Y-119894000D03*
X27996000Y-119894000D03*
X30536000Y-119894000D03*
X33076000Y-119894000D03*
X35616000Y-119894000D03*
X38156000Y-119894000D03*
X40696000Y-119894000D03*
D10*
X43236000Y-119894000D03*
M02*
