G04 #@! TF.GenerationSoftware,KiCad,Pcbnew,no-vcs-found-91ed3e2~59~ubuntu16.04.1*
G04 #@! TF.CreationDate,2017-12-14T12:11:24+01:00*
G04 #@! TF.ProjectId,ESP32-epaper-adapter-pan,45535033322D6570617065722D616461,rev?*
G04 #@! TF.SameCoordinates,Original*
G04 #@! TF.FileFunction,Profile,NP*
%FSLAX46Y46*%
G04 Gerber Fmt 4.6, Leading zero omitted, Abs format (unit mm)*
G04 Created by KiCad (PCBNEW no-vcs-found-91ed3e2~59~ubuntu16.04.1) date Thu Dec 14 12:11:24 2017*
%MOMM*%
%LPD*%
G01*
G04 APERTURE LIST*
%ADD10C,0.500000*%
%ADD11C,0.010000*%
%ADD12C,0.150000*%
G04 APERTURE END LIST*
D10*
X68976000Y-168030000D02*
X68976000Y-181030000D01*
X68976000Y-181030000D02*
X77976000Y-181030000D01*
X81976000Y-181030000D02*
X91976000Y-181030000D01*
X91976000Y-181030000D02*
X91976000Y-168030000D01*
X91976000Y-164030000D02*
X91976000Y-152030000D01*
X91976000Y-152030000D02*
X81976000Y-152030000D01*
X77976000Y-152030000D02*
X68976000Y-152030000D01*
X68976000Y-152030000D02*
X68976000Y-164030000D01*
D11*
X68976000Y-168030000D02*
X68976000Y-164030000D01*
X77976000Y-152030000D02*
X81976000Y-152030000D01*
X91976000Y-164030000D02*
X91976000Y-168030000D01*
D12*
X81976000Y-181030000D02*
X77976000Y-181030000D01*
X104976000Y-181030000D02*
X100976000Y-181030000D01*
D11*
X114976000Y-164030000D02*
X114976000Y-168030000D01*
X100976000Y-152030000D02*
X104976000Y-152030000D01*
X91976000Y-168030000D02*
X91976000Y-164030000D01*
D10*
X91976000Y-152030000D02*
X91976000Y-164030000D01*
X100976000Y-152030000D02*
X91976000Y-152030000D01*
X114976000Y-152030000D02*
X104976000Y-152030000D01*
X114976000Y-164030000D02*
X114976000Y-152030000D01*
X114976000Y-181030000D02*
X114976000Y-168030000D01*
X104976000Y-181030000D02*
X114976000Y-181030000D01*
X91976000Y-181030000D02*
X100976000Y-181030000D01*
X91976000Y-168030000D02*
X91976000Y-181030000D01*
X45976000Y-168030000D02*
X45976000Y-181030000D01*
X45976000Y-181030000D02*
X54976000Y-181030000D01*
X58976000Y-181030000D02*
X68976000Y-181030000D01*
X68976000Y-181030000D02*
X68976000Y-168030000D01*
X68976000Y-164030000D02*
X68976000Y-152030000D01*
X68976000Y-152030000D02*
X58976000Y-152030000D01*
X54976000Y-152030000D02*
X45976000Y-152030000D01*
X45976000Y-152030000D02*
X45976000Y-164030000D01*
D11*
X45976000Y-168030000D02*
X45976000Y-164030000D01*
X54976000Y-152030000D02*
X58976000Y-152030000D01*
X68976000Y-164030000D02*
X68976000Y-168030000D01*
D12*
X58976000Y-181030000D02*
X54976000Y-181030000D01*
X35976000Y-181030000D02*
X31976000Y-181030000D01*
D11*
X45976000Y-164030000D02*
X45976000Y-168030000D01*
X31976000Y-152030000D02*
X35976000Y-152030000D01*
X22976000Y-168030000D02*
X22976000Y-164030000D01*
D10*
X22976000Y-152030000D02*
X22976000Y-164030000D01*
X31976000Y-152030000D02*
X22976000Y-152030000D01*
X45976000Y-152030000D02*
X35976000Y-152030000D01*
X45976000Y-164030000D02*
X45976000Y-152030000D01*
X45976000Y-181030000D02*
X45976000Y-168030000D01*
X35976000Y-181030000D02*
X45976000Y-181030000D01*
X22976000Y-181030000D02*
X31976000Y-181030000D01*
X22976000Y-168030000D02*
X22976000Y-181030000D01*
X68976000Y-139030000D02*
X68976000Y-152030000D01*
X68976000Y-152030000D02*
X77976000Y-152030000D01*
X81976000Y-152030000D02*
X91976000Y-152030000D01*
X91976000Y-152030000D02*
X91976000Y-139030000D01*
X91976000Y-135030000D02*
X91976000Y-123030000D01*
X91976000Y-123030000D02*
X81976000Y-123030000D01*
X77976000Y-123030000D02*
X68976000Y-123030000D01*
X68976000Y-123030000D02*
X68976000Y-135030000D01*
D11*
X68976000Y-139030000D02*
X68976000Y-135030000D01*
X77976000Y-123030000D02*
X81976000Y-123030000D01*
X91976000Y-135030000D02*
X91976000Y-139030000D01*
D12*
X81976000Y-152030000D02*
X77976000Y-152030000D01*
X104976000Y-152030000D02*
X100976000Y-152030000D01*
D11*
X114976000Y-135030000D02*
X114976000Y-139030000D01*
X100976000Y-123030000D02*
X104976000Y-123030000D01*
X91976000Y-139030000D02*
X91976000Y-135030000D01*
D10*
X91976000Y-123030000D02*
X91976000Y-135030000D01*
X100976000Y-123030000D02*
X91976000Y-123030000D01*
X114976000Y-123030000D02*
X104976000Y-123030000D01*
X114976000Y-135030000D02*
X114976000Y-123030000D01*
X114976000Y-152030000D02*
X114976000Y-139030000D01*
X104976000Y-152030000D02*
X114976000Y-152030000D01*
X91976000Y-152030000D02*
X100976000Y-152030000D01*
X91976000Y-139030000D02*
X91976000Y-152030000D01*
X45976000Y-139030000D02*
X45976000Y-152030000D01*
X45976000Y-152030000D02*
X54976000Y-152030000D01*
X58976000Y-152030000D02*
X68976000Y-152030000D01*
X68976000Y-152030000D02*
X68976000Y-139030000D01*
X68976000Y-135030000D02*
X68976000Y-123030000D01*
X68976000Y-123030000D02*
X58976000Y-123030000D01*
X54976000Y-123030000D02*
X45976000Y-123030000D01*
X45976000Y-123030000D02*
X45976000Y-135030000D01*
D11*
X45976000Y-139030000D02*
X45976000Y-135030000D01*
X54976000Y-123030000D02*
X58976000Y-123030000D01*
X68976000Y-135030000D02*
X68976000Y-139030000D01*
D12*
X58976000Y-152030000D02*
X54976000Y-152030000D01*
X35976000Y-152030000D02*
X31976000Y-152030000D01*
D11*
X45976000Y-135030000D02*
X45976000Y-139030000D01*
X31976000Y-123030000D02*
X35976000Y-123030000D01*
X22976000Y-139030000D02*
X22976000Y-135030000D01*
D10*
X22976000Y-123030000D02*
X22976000Y-135030000D01*
X31976000Y-123030000D02*
X22976000Y-123030000D01*
X45976000Y-123030000D02*
X35976000Y-123030000D01*
X45976000Y-135030000D02*
X45976000Y-123030000D01*
X45976000Y-152030000D02*
X45976000Y-139030000D01*
X35976000Y-152030000D02*
X45976000Y-152030000D01*
X22976000Y-152030000D02*
X31976000Y-152030000D01*
X22976000Y-139030000D02*
X22976000Y-152030000D01*
X68976000Y-110030000D02*
X68976000Y-123030000D01*
X68976000Y-123030000D02*
X77976000Y-123030000D01*
X81976000Y-123030000D02*
X91976000Y-123030000D01*
X91976000Y-123030000D02*
X91976000Y-110030000D01*
X91976000Y-106030000D02*
X91976000Y-94030000D01*
X91976000Y-94030000D02*
X81976000Y-94030000D01*
X77976000Y-94030000D02*
X68976000Y-94030000D01*
X68976000Y-94030000D02*
X68976000Y-106030000D01*
D11*
X68976000Y-110030000D02*
X68976000Y-106030000D01*
X77976000Y-94030000D02*
X81976000Y-94030000D01*
X91976000Y-106030000D02*
X91976000Y-110030000D01*
D12*
X81976000Y-123030000D02*
X77976000Y-123030000D01*
X104976000Y-123030000D02*
X100976000Y-123030000D01*
D11*
X114976000Y-106030000D02*
X114976000Y-110030000D01*
X100976000Y-94030000D02*
X104976000Y-94030000D01*
X91976000Y-110030000D02*
X91976000Y-106030000D01*
D10*
X91976000Y-94030000D02*
X91976000Y-106030000D01*
X100976000Y-94030000D02*
X91976000Y-94030000D01*
X114976000Y-94030000D02*
X104976000Y-94030000D01*
X114976000Y-106030000D02*
X114976000Y-94030000D01*
X114976000Y-123030000D02*
X114976000Y-110030000D01*
X104976000Y-123030000D02*
X114976000Y-123030000D01*
X91976000Y-123030000D02*
X100976000Y-123030000D01*
X91976000Y-110030000D02*
X91976000Y-123030000D01*
X45976000Y-110030000D02*
X45976000Y-123030000D01*
X45976000Y-123030000D02*
X54976000Y-123030000D01*
X58976000Y-123030000D02*
X68976000Y-123030000D01*
X68976000Y-123030000D02*
X68976000Y-110030000D01*
X68976000Y-106030000D02*
X68976000Y-94030000D01*
X68976000Y-94030000D02*
X58976000Y-94030000D01*
X54976000Y-94030000D02*
X45976000Y-94030000D01*
X45976000Y-94030000D02*
X45976000Y-106030000D01*
D11*
X45976000Y-110030000D02*
X45976000Y-106030000D01*
X54976000Y-94030000D02*
X58976000Y-94030000D01*
X68976000Y-106030000D02*
X68976000Y-110030000D01*
D12*
X58976000Y-123030000D02*
X54976000Y-123030000D01*
X35976000Y-123030000D02*
X31976000Y-123030000D01*
D11*
X45976000Y-106030000D02*
X45976000Y-110030000D01*
X31976000Y-94030000D02*
X35976000Y-94030000D01*
X22976000Y-110030000D02*
X22976000Y-106030000D01*
D10*
X22976000Y-94030000D02*
X22976000Y-106030000D01*
X31976000Y-94030000D02*
X22976000Y-94030000D01*
X45976000Y-94030000D02*
X35976000Y-94030000D01*
X45976000Y-106030000D02*
X45976000Y-94030000D01*
X45976000Y-123030000D02*
X45976000Y-110030000D01*
X35976000Y-123030000D02*
X45976000Y-123030000D01*
X22976000Y-123030000D02*
X31976000Y-123030000D01*
X22976000Y-110030000D02*
X22976000Y-123030000D01*
M02*
