G04 #@! TF.GenerationSoftware,KiCad,Pcbnew,no-vcs-found-91ed3e2~59~ubuntu16.04.1*
G04 #@! TF.CreationDate,2017-12-14T12:11:24+01:00*
G04 #@! TF.ProjectId,ESP32-epaper-adapter-pan,45535033322D6570617065722D616461,rev?*
G04 #@! TF.SameCoordinates,Original*
G04 #@! TF.FileFunction,Copper,L2,Bot,Signal*
G04 #@! TF.FilePolarity,Positive*
%FSLAX46Y46*%
G04 Gerber Fmt 4.6, Leading zero omitted, Abs format (unit mm)*
G04 Created by KiCad (PCBNEW no-vcs-found-91ed3e2~59~ubuntu16.04.1) date Thu Dec 14 12:11:24 2017*
%MOMM*%
%LPD*%
G01*
G04 APERTURE LIST*
%ADD10R,1.700000X1.700000*%
%ADD11O,1.700000X1.700000*%
%ADD12C,0.600000*%
%ADD13C,0.800000*%
%ADD14C,0.250000*%
%ADD15C,0.254000*%
G04 APERTURE END LIST*
D10*
X89236000Y-177894000D03*
D11*
X86696000Y-177894000D03*
X84156000Y-177894000D03*
X81616000Y-177894000D03*
X79076000Y-177894000D03*
X76536000Y-177894000D03*
X73996000Y-177894000D03*
X71456000Y-177894000D03*
D12*
X79684000Y-175870000D03*
X76636000Y-172314000D03*
X70440000Y-158590000D03*
X90860000Y-171044000D03*
X89590000Y-158852000D03*
X78414000Y-155804000D03*
X85172000Y-172052000D03*
X76636000Y-175870000D03*
X73334000Y-159614000D03*
X90860000Y-173330000D03*
X82478000Y-165964000D03*
X87050000Y-165964000D03*
X81716000Y-153518000D03*
X73588000Y-153518000D03*
X87050000Y-153518000D03*
X84002000Y-155296000D03*
X79684000Y-168250000D03*
X73842000Y-169012000D03*
X96842000Y-169012000D03*
X102684000Y-168250000D03*
X107002000Y-155296000D03*
X110050000Y-153518000D03*
X96588000Y-153518000D03*
X104716000Y-153518000D03*
X110050000Y-165964000D03*
X105478000Y-165964000D03*
X113860000Y-173330000D03*
X96334000Y-159614000D03*
X99636000Y-175870000D03*
X108172000Y-172052000D03*
X101414000Y-155804000D03*
X112590000Y-158852000D03*
X113860000Y-171044000D03*
X93440000Y-158590000D03*
X99636000Y-172314000D03*
X102684000Y-175870000D03*
D11*
X94456000Y-177894000D03*
X96996000Y-177894000D03*
X99536000Y-177894000D03*
X102076000Y-177894000D03*
X104616000Y-177894000D03*
X107156000Y-177894000D03*
X109696000Y-177894000D03*
D10*
X112236000Y-177894000D03*
X66236000Y-177894000D03*
D11*
X63696000Y-177894000D03*
X61156000Y-177894000D03*
X58616000Y-177894000D03*
X56076000Y-177894000D03*
X53536000Y-177894000D03*
X50996000Y-177894000D03*
X48456000Y-177894000D03*
D12*
X56684000Y-175870000D03*
X53636000Y-172314000D03*
X47440000Y-158590000D03*
X67860000Y-171044000D03*
X66590000Y-158852000D03*
X55414000Y-155804000D03*
X62172000Y-172052000D03*
X53636000Y-175870000D03*
X50334000Y-159614000D03*
X67860000Y-173330000D03*
X59478000Y-165964000D03*
X64050000Y-165964000D03*
X58716000Y-153518000D03*
X50588000Y-153518000D03*
X64050000Y-153518000D03*
X61002000Y-155296000D03*
X56684000Y-168250000D03*
X50842000Y-169012000D03*
X27842000Y-169012000D03*
X33684000Y-168250000D03*
X38002000Y-155296000D03*
X41050000Y-153518000D03*
X27588000Y-153518000D03*
X35716000Y-153518000D03*
X41050000Y-165964000D03*
X36478000Y-165964000D03*
X44860000Y-173330000D03*
X27334000Y-159614000D03*
X30636000Y-175870000D03*
X39172000Y-172052000D03*
X32414000Y-155804000D03*
X43590000Y-158852000D03*
X44860000Y-171044000D03*
X24440000Y-158590000D03*
X30636000Y-172314000D03*
X33684000Y-175870000D03*
D11*
X25456000Y-177894000D03*
X27996000Y-177894000D03*
X30536000Y-177894000D03*
X33076000Y-177894000D03*
X35616000Y-177894000D03*
X38156000Y-177894000D03*
X40696000Y-177894000D03*
D10*
X43236000Y-177894000D03*
X89236000Y-148894000D03*
D11*
X86696000Y-148894000D03*
X84156000Y-148894000D03*
X81616000Y-148894000D03*
X79076000Y-148894000D03*
X76536000Y-148894000D03*
X73996000Y-148894000D03*
X71456000Y-148894000D03*
D12*
X79684000Y-146870000D03*
X76636000Y-143314000D03*
X70440000Y-129590000D03*
X90860000Y-142044000D03*
X89590000Y-129852000D03*
X78414000Y-126804000D03*
X85172000Y-143052000D03*
X76636000Y-146870000D03*
X73334000Y-130614000D03*
X90860000Y-144330000D03*
X82478000Y-136964000D03*
X87050000Y-136964000D03*
X81716000Y-124518000D03*
X73588000Y-124518000D03*
X87050000Y-124518000D03*
X84002000Y-126296000D03*
X79684000Y-139250000D03*
X73842000Y-140012000D03*
X96842000Y-140012000D03*
X102684000Y-139250000D03*
X107002000Y-126296000D03*
X110050000Y-124518000D03*
X96588000Y-124518000D03*
X104716000Y-124518000D03*
X110050000Y-136964000D03*
X105478000Y-136964000D03*
X113860000Y-144330000D03*
X96334000Y-130614000D03*
X99636000Y-146870000D03*
X108172000Y-143052000D03*
X101414000Y-126804000D03*
X112590000Y-129852000D03*
X113860000Y-142044000D03*
X93440000Y-129590000D03*
X99636000Y-143314000D03*
X102684000Y-146870000D03*
D11*
X94456000Y-148894000D03*
X96996000Y-148894000D03*
X99536000Y-148894000D03*
X102076000Y-148894000D03*
X104616000Y-148894000D03*
X107156000Y-148894000D03*
X109696000Y-148894000D03*
D10*
X112236000Y-148894000D03*
X66236000Y-148894000D03*
D11*
X63696000Y-148894000D03*
X61156000Y-148894000D03*
X58616000Y-148894000D03*
X56076000Y-148894000D03*
X53536000Y-148894000D03*
X50996000Y-148894000D03*
X48456000Y-148894000D03*
D12*
X56684000Y-146870000D03*
X53636000Y-143314000D03*
X47440000Y-129590000D03*
X67860000Y-142044000D03*
X66590000Y-129852000D03*
X55414000Y-126804000D03*
X62172000Y-143052000D03*
X53636000Y-146870000D03*
X50334000Y-130614000D03*
X67860000Y-144330000D03*
X59478000Y-136964000D03*
X64050000Y-136964000D03*
X58716000Y-124518000D03*
X50588000Y-124518000D03*
X64050000Y-124518000D03*
X61002000Y-126296000D03*
X56684000Y-139250000D03*
X50842000Y-140012000D03*
X27842000Y-140012000D03*
X33684000Y-139250000D03*
X38002000Y-126296000D03*
X41050000Y-124518000D03*
X27588000Y-124518000D03*
X35716000Y-124518000D03*
X41050000Y-136964000D03*
X36478000Y-136964000D03*
X44860000Y-144330000D03*
X27334000Y-130614000D03*
X30636000Y-146870000D03*
X39172000Y-143052000D03*
X32414000Y-126804000D03*
X43590000Y-129852000D03*
X44860000Y-142044000D03*
X24440000Y-129590000D03*
X30636000Y-143314000D03*
X33684000Y-146870000D03*
D11*
X25456000Y-148894000D03*
X27996000Y-148894000D03*
X30536000Y-148894000D03*
X33076000Y-148894000D03*
X35616000Y-148894000D03*
X38156000Y-148894000D03*
X40696000Y-148894000D03*
D10*
X43236000Y-148894000D03*
X89236000Y-119894000D03*
D11*
X86696000Y-119894000D03*
X84156000Y-119894000D03*
X81616000Y-119894000D03*
X79076000Y-119894000D03*
X76536000Y-119894000D03*
X73996000Y-119894000D03*
X71456000Y-119894000D03*
D12*
X79684000Y-117870000D03*
X76636000Y-114314000D03*
X70440000Y-100590000D03*
X90860000Y-113044000D03*
X89590000Y-100852000D03*
X78414000Y-97804000D03*
X85172000Y-114052000D03*
X76636000Y-117870000D03*
X73334000Y-101614000D03*
X90860000Y-115330000D03*
X82478000Y-107964000D03*
X87050000Y-107964000D03*
X81716000Y-95518000D03*
X73588000Y-95518000D03*
X87050000Y-95518000D03*
X84002000Y-97296000D03*
X79684000Y-110250000D03*
X73842000Y-111012000D03*
X96842000Y-111012000D03*
X102684000Y-110250000D03*
X107002000Y-97296000D03*
X110050000Y-95518000D03*
X96588000Y-95518000D03*
X104716000Y-95518000D03*
X110050000Y-107964000D03*
X105478000Y-107964000D03*
X113860000Y-115330000D03*
X96334000Y-101614000D03*
X99636000Y-117870000D03*
X108172000Y-114052000D03*
X101414000Y-97804000D03*
X112590000Y-100852000D03*
X113860000Y-113044000D03*
X93440000Y-100590000D03*
X99636000Y-114314000D03*
X102684000Y-117870000D03*
D11*
X94456000Y-119894000D03*
X96996000Y-119894000D03*
X99536000Y-119894000D03*
X102076000Y-119894000D03*
X104616000Y-119894000D03*
X107156000Y-119894000D03*
X109696000Y-119894000D03*
D10*
X112236000Y-119894000D03*
X66236000Y-119894000D03*
D11*
X63696000Y-119894000D03*
X61156000Y-119894000D03*
X58616000Y-119894000D03*
X56076000Y-119894000D03*
X53536000Y-119894000D03*
X50996000Y-119894000D03*
X48456000Y-119894000D03*
D12*
X56684000Y-117870000D03*
X53636000Y-114314000D03*
X47440000Y-100590000D03*
X67860000Y-113044000D03*
X66590000Y-100852000D03*
X55414000Y-97804000D03*
X62172000Y-114052000D03*
X53636000Y-117870000D03*
X50334000Y-101614000D03*
X67860000Y-115330000D03*
X59478000Y-107964000D03*
X64050000Y-107964000D03*
X58716000Y-95518000D03*
X50588000Y-95518000D03*
X64050000Y-95518000D03*
X61002000Y-97296000D03*
X56684000Y-110250000D03*
X50842000Y-111012000D03*
X27842000Y-111012000D03*
X33684000Y-110250000D03*
X38002000Y-97296000D03*
X41050000Y-95518000D03*
X27588000Y-95518000D03*
X35716000Y-95518000D03*
X41050000Y-107964000D03*
X36478000Y-107964000D03*
X44860000Y-115330000D03*
X27334000Y-101614000D03*
X30636000Y-117870000D03*
X39172000Y-114052000D03*
X32414000Y-97804000D03*
X43590000Y-100852000D03*
X44860000Y-113044000D03*
X24440000Y-100590000D03*
X30636000Y-114314000D03*
X33684000Y-117870000D03*
D11*
X25456000Y-119894000D03*
X27996000Y-119894000D03*
X30536000Y-119894000D03*
X33076000Y-119894000D03*
X35616000Y-119894000D03*
X38156000Y-119894000D03*
X40696000Y-119894000D03*
D10*
X43236000Y-119894000D03*
D13*
X77398000Y-159614000D03*
X100398000Y-159614000D03*
X54398000Y-159614000D03*
X31398000Y-159614000D03*
X77398000Y-130614000D03*
X100398000Y-130614000D03*
X54398000Y-130614000D03*
X31398000Y-130614000D03*
X77398000Y-101614000D03*
X100398000Y-101614000D03*
X54398000Y-101614000D03*
X31398000Y-101614000D03*
X78607889Y-159542771D03*
X101607889Y-159542771D03*
X55607889Y-159542771D03*
X32607889Y-159542771D03*
X78607889Y-130542771D03*
X101607889Y-130542771D03*
X55607889Y-130542771D03*
X32607889Y-130542771D03*
X78607889Y-101542771D03*
X101607889Y-101542771D03*
X55607889Y-101542771D03*
X32607889Y-101542771D03*
X79720990Y-159454990D03*
X102720990Y-159454990D03*
X56720990Y-159454990D03*
X33720990Y-159454990D03*
X79720990Y-130454990D03*
X102720990Y-130454990D03*
X56720990Y-130454990D03*
X33720990Y-130454990D03*
X79720990Y-101454990D03*
X102720990Y-101454990D03*
X56720990Y-101454990D03*
X33720990Y-101454990D03*
X79938000Y-156312000D03*
X102938000Y-156312000D03*
X56938000Y-156312000D03*
X33938000Y-156312000D03*
X79938000Y-127312000D03*
X102938000Y-127312000D03*
X56938000Y-127312000D03*
X33938000Y-127312000D03*
X79938000Y-98312000D03*
X102938000Y-98312000D03*
X56938000Y-98312000D03*
X33938000Y-98312000D03*
X81271537Y-159169537D03*
X104271537Y-159169537D03*
X58271537Y-159169537D03*
X35271537Y-159169537D03*
X81271537Y-130169537D03*
X104271537Y-130169537D03*
X58271537Y-130169537D03*
X35271537Y-130169537D03*
X81271537Y-101169537D03*
X104271537Y-101169537D03*
X58271537Y-101169537D03*
X35271537Y-101169537D03*
X80492701Y-155479949D03*
X103492701Y-155479949D03*
X57492701Y-155479949D03*
X34492701Y-155479949D03*
X80492701Y-126479949D03*
X103492701Y-126479949D03*
X57492701Y-126479949D03*
X34492701Y-126479949D03*
X80492701Y-97479949D03*
X103492701Y-97479949D03*
X57492701Y-97479949D03*
X34492701Y-97479949D03*
D14*
X75112000Y-176778000D02*
X73996000Y-177894000D01*
X75112000Y-162408000D02*
X75112000Y-176778000D01*
X76998001Y-160521999D02*
X75112000Y-162408000D01*
X76998001Y-160013999D02*
X76998001Y-160521999D01*
X77398000Y-159614000D02*
X76998001Y-160013999D01*
X100398000Y-159614000D02*
X99998001Y-160013999D01*
X99998001Y-160013999D02*
X99998001Y-160521999D01*
X99998001Y-160521999D02*
X98112000Y-162408000D01*
X98112000Y-162408000D02*
X98112000Y-176778000D01*
X98112000Y-176778000D02*
X96996000Y-177894000D01*
X52112000Y-176778000D02*
X50996000Y-177894000D01*
X52112000Y-162408000D02*
X52112000Y-176778000D01*
X53998001Y-160521999D02*
X52112000Y-162408000D01*
X53998001Y-160013999D02*
X53998001Y-160521999D01*
X54398000Y-159614000D02*
X53998001Y-160013999D01*
X31398000Y-159614000D02*
X30998001Y-160013999D01*
X30998001Y-160013999D02*
X30998001Y-160521999D01*
X30998001Y-160521999D02*
X29112000Y-162408000D01*
X29112000Y-162408000D02*
X29112000Y-176778000D01*
X29112000Y-176778000D02*
X27996000Y-177894000D01*
X75112000Y-147778000D02*
X73996000Y-148894000D01*
X75112000Y-133408000D02*
X75112000Y-147778000D01*
X76998001Y-131521999D02*
X75112000Y-133408000D01*
X76998001Y-131013999D02*
X76998001Y-131521999D01*
X77398000Y-130614000D02*
X76998001Y-131013999D01*
X100398000Y-130614000D02*
X99998001Y-131013999D01*
X99998001Y-131013999D02*
X99998001Y-131521999D01*
X99998001Y-131521999D02*
X98112000Y-133408000D01*
X98112000Y-133408000D02*
X98112000Y-147778000D01*
X98112000Y-147778000D02*
X96996000Y-148894000D01*
X52112000Y-147778000D02*
X50996000Y-148894000D01*
X52112000Y-133408000D02*
X52112000Y-147778000D01*
X53998001Y-131521999D02*
X52112000Y-133408000D01*
X53998001Y-131013999D02*
X53998001Y-131521999D01*
X54398000Y-130614000D02*
X53998001Y-131013999D01*
X31398000Y-130614000D02*
X30998001Y-131013999D01*
X30998001Y-131013999D02*
X30998001Y-131521999D01*
X30998001Y-131521999D02*
X29112000Y-133408000D01*
X29112000Y-133408000D02*
X29112000Y-147778000D01*
X29112000Y-147778000D02*
X27996000Y-148894000D01*
X75112000Y-118778000D02*
X73996000Y-119894000D01*
X75112000Y-104408000D02*
X75112000Y-118778000D01*
X76998001Y-102521999D02*
X75112000Y-104408000D01*
X76998001Y-102013999D02*
X76998001Y-102521999D01*
X77398000Y-101614000D02*
X76998001Y-102013999D01*
X100398000Y-101614000D02*
X99998001Y-102013999D01*
X99998001Y-102013999D02*
X99998001Y-102521999D01*
X99998001Y-102521999D02*
X98112000Y-104408000D01*
X98112000Y-104408000D02*
X98112000Y-118778000D01*
X98112000Y-118778000D02*
X96996000Y-119894000D01*
X52112000Y-118778000D02*
X50996000Y-119894000D01*
X52112000Y-104408000D02*
X52112000Y-118778000D01*
X53998001Y-102521999D02*
X52112000Y-104408000D01*
X53998001Y-102013999D02*
X53998001Y-102521999D01*
X54398000Y-101614000D02*
X53998001Y-102013999D01*
X31398000Y-101614000D02*
X30998001Y-102013999D01*
X30998001Y-102013999D02*
X30998001Y-102521999D01*
X30998001Y-102521999D02*
X29112000Y-104408000D01*
X29112000Y-104408000D02*
X29112000Y-118778000D01*
X29112000Y-118778000D02*
X27996000Y-119894000D01*
X78207890Y-159942770D02*
X78607889Y-159542771D01*
X76536000Y-177894000D02*
X77906000Y-176524000D01*
X77906000Y-176524000D02*
X77906000Y-160244660D01*
X77906000Y-160244660D02*
X78207890Y-159942770D01*
X100906000Y-160244660D02*
X101207890Y-159942770D01*
X100906000Y-176524000D02*
X100906000Y-160244660D01*
X99536000Y-177894000D02*
X100906000Y-176524000D01*
X101207890Y-159942770D02*
X101607889Y-159542771D01*
X55207890Y-159942770D02*
X55607889Y-159542771D01*
X53536000Y-177894000D02*
X54906000Y-176524000D01*
X54906000Y-176524000D02*
X54906000Y-160244660D01*
X54906000Y-160244660D02*
X55207890Y-159942770D01*
X31906000Y-160244660D02*
X32207890Y-159942770D01*
X31906000Y-176524000D02*
X31906000Y-160244660D01*
X30536000Y-177894000D02*
X31906000Y-176524000D01*
X32207890Y-159942770D02*
X32607889Y-159542771D01*
X78207890Y-130942770D02*
X78607889Y-130542771D01*
X76536000Y-148894000D02*
X77906000Y-147524000D01*
X77906000Y-147524000D02*
X77906000Y-131244660D01*
X77906000Y-131244660D02*
X78207890Y-130942770D01*
X100906000Y-131244660D02*
X101207890Y-130942770D01*
X100906000Y-147524000D02*
X100906000Y-131244660D01*
X99536000Y-148894000D02*
X100906000Y-147524000D01*
X101207890Y-130942770D02*
X101607889Y-130542771D01*
X55207890Y-130942770D02*
X55607889Y-130542771D01*
X53536000Y-148894000D02*
X54906000Y-147524000D01*
X54906000Y-147524000D02*
X54906000Y-131244660D01*
X54906000Y-131244660D02*
X55207890Y-130942770D01*
X31906000Y-131244660D02*
X32207890Y-130942770D01*
X31906000Y-147524000D02*
X31906000Y-131244660D01*
X30536000Y-148894000D02*
X31906000Y-147524000D01*
X32207890Y-130942770D02*
X32607889Y-130542771D01*
X78207890Y-101942770D02*
X78607889Y-101542771D01*
X76536000Y-119894000D02*
X77906000Y-118524000D01*
X77906000Y-118524000D02*
X77906000Y-102244660D01*
X77906000Y-102244660D02*
X78207890Y-101942770D01*
X100906000Y-102244660D02*
X101207890Y-101942770D01*
X100906000Y-118524000D02*
X100906000Y-102244660D01*
X99536000Y-119894000D02*
X100906000Y-118524000D01*
X101207890Y-101942770D02*
X101607889Y-101542771D01*
X55207890Y-101942770D02*
X55607889Y-101542771D01*
X53536000Y-119894000D02*
X54906000Y-118524000D01*
X54906000Y-118524000D02*
X54906000Y-102244660D01*
X54906000Y-102244660D02*
X55207890Y-101942770D01*
X31906000Y-102244660D02*
X32207890Y-101942770D01*
X31906000Y-118524000D02*
X31906000Y-102244660D01*
X30536000Y-119894000D02*
X31906000Y-118524000D01*
X32207890Y-101942770D02*
X32607889Y-101542771D01*
X79076000Y-177894000D02*
X78668000Y-177486000D01*
X79320991Y-159854989D02*
X79720990Y-159454990D01*
X78668000Y-177486000D02*
X78668000Y-160507980D01*
X78668000Y-160507980D02*
X79320991Y-159854989D01*
X101668000Y-160507980D02*
X102320991Y-159854989D01*
X101668000Y-177486000D02*
X101668000Y-160507980D01*
X102320991Y-159854989D02*
X102720990Y-159454990D01*
X102076000Y-177894000D02*
X101668000Y-177486000D01*
X56076000Y-177894000D02*
X55668000Y-177486000D01*
X56320991Y-159854989D02*
X56720990Y-159454990D01*
X55668000Y-177486000D02*
X55668000Y-160507980D01*
X55668000Y-160507980D02*
X56320991Y-159854989D01*
X32668000Y-160507980D02*
X33320991Y-159854989D01*
X32668000Y-177486000D02*
X32668000Y-160507980D01*
X33320991Y-159854989D02*
X33720990Y-159454990D01*
X33076000Y-177894000D02*
X32668000Y-177486000D01*
X79076000Y-148894000D02*
X78668000Y-148486000D01*
X79320991Y-130854989D02*
X79720990Y-130454990D01*
X78668000Y-148486000D02*
X78668000Y-131507980D01*
X78668000Y-131507980D02*
X79320991Y-130854989D01*
X101668000Y-131507980D02*
X102320991Y-130854989D01*
X101668000Y-148486000D02*
X101668000Y-131507980D01*
X102320991Y-130854989D02*
X102720990Y-130454990D01*
X102076000Y-148894000D02*
X101668000Y-148486000D01*
X56076000Y-148894000D02*
X55668000Y-148486000D01*
X56320991Y-130854989D02*
X56720990Y-130454990D01*
X55668000Y-148486000D02*
X55668000Y-131507980D01*
X55668000Y-131507980D02*
X56320991Y-130854989D01*
X32668000Y-131507980D02*
X33320991Y-130854989D01*
X32668000Y-148486000D02*
X32668000Y-131507980D01*
X33320991Y-130854989D02*
X33720990Y-130454990D01*
X33076000Y-148894000D02*
X32668000Y-148486000D01*
X79076000Y-119894000D02*
X78668000Y-119486000D01*
X79320991Y-101854989D02*
X79720990Y-101454990D01*
X78668000Y-119486000D02*
X78668000Y-102507980D01*
X78668000Y-102507980D02*
X79320991Y-101854989D01*
X101668000Y-102507980D02*
X102320991Y-101854989D01*
X101668000Y-119486000D02*
X101668000Y-102507980D01*
X102320991Y-101854989D02*
X102720990Y-101454990D01*
X102076000Y-119894000D02*
X101668000Y-119486000D01*
X56076000Y-119894000D02*
X55668000Y-119486000D01*
X56320991Y-101854989D02*
X56720990Y-101454990D01*
X55668000Y-119486000D02*
X55668000Y-102507980D01*
X55668000Y-102507980D02*
X56320991Y-101854989D01*
X32668000Y-102507980D02*
X33320991Y-101854989D01*
X32668000Y-119486000D02*
X32668000Y-102507980D01*
X33320991Y-101854989D02*
X33720990Y-101454990D01*
X33076000Y-119894000D02*
X32668000Y-119486000D01*
X80446000Y-176724000D02*
X81616000Y-177894000D01*
X80446000Y-156820000D02*
X80446000Y-176724000D01*
X79938000Y-156312000D02*
X80446000Y-156820000D01*
X102938000Y-156312000D02*
X103446000Y-156820000D01*
X103446000Y-156820000D02*
X103446000Y-176724000D01*
X103446000Y-176724000D02*
X104616000Y-177894000D01*
X57446000Y-176724000D02*
X58616000Y-177894000D01*
X57446000Y-156820000D02*
X57446000Y-176724000D01*
X56938000Y-156312000D02*
X57446000Y-156820000D01*
X33938000Y-156312000D02*
X34446000Y-156820000D01*
X34446000Y-156820000D02*
X34446000Y-176724000D01*
X34446000Y-176724000D02*
X35616000Y-177894000D01*
X80446000Y-147724000D02*
X81616000Y-148894000D01*
X80446000Y-127820000D02*
X80446000Y-147724000D01*
X79938000Y-127312000D02*
X80446000Y-127820000D01*
X102938000Y-127312000D02*
X103446000Y-127820000D01*
X103446000Y-127820000D02*
X103446000Y-147724000D01*
X103446000Y-147724000D02*
X104616000Y-148894000D01*
X57446000Y-147724000D02*
X58616000Y-148894000D01*
X57446000Y-127820000D02*
X57446000Y-147724000D01*
X56938000Y-127312000D02*
X57446000Y-127820000D01*
X33938000Y-127312000D02*
X34446000Y-127820000D01*
X34446000Y-127820000D02*
X34446000Y-147724000D01*
X34446000Y-147724000D02*
X35616000Y-148894000D01*
X80446000Y-118724000D02*
X81616000Y-119894000D01*
X80446000Y-98820000D02*
X80446000Y-118724000D01*
X79938000Y-98312000D02*
X80446000Y-98820000D01*
X102938000Y-98312000D02*
X103446000Y-98820000D01*
X103446000Y-98820000D02*
X103446000Y-118724000D01*
X103446000Y-118724000D02*
X104616000Y-119894000D01*
X57446000Y-118724000D02*
X58616000Y-119894000D01*
X57446000Y-98820000D02*
X57446000Y-118724000D01*
X56938000Y-98312000D02*
X57446000Y-98820000D01*
X33938000Y-98312000D02*
X34446000Y-98820000D01*
X34446000Y-98820000D02*
X34446000Y-118724000D01*
X34446000Y-118724000D02*
X35616000Y-119894000D01*
X84156000Y-162054000D02*
X84156000Y-177894000D01*
X81271537Y-159169537D02*
X84156000Y-162054000D01*
X104271537Y-159169537D02*
X107156000Y-162054000D01*
X107156000Y-162054000D02*
X107156000Y-177894000D01*
X61156000Y-162054000D02*
X61156000Y-177894000D01*
X58271537Y-159169537D02*
X61156000Y-162054000D01*
X35271537Y-159169537D02*
X38156000Y-162054000D01*
X38156000Y-162054000D02*
X38156000Y-177894000D01*
X84156000Y-133054000D02*
X84156000Y-148894000D01*
X81271537Y-130169537D02*
X84156000Y-133054000D01*
X104271537Y-130169537D02*
X107156000Y-133054000D01*
X107156000Y-133054000D02*
X107156000Y-148894000D01*
X61156000Y-133054000D02*
X61156000Y-148894000D01*
X58271537Y-130169537D02*
X61156000Y-133054000D01*
X35271537Y-130169537D02*
X38156000Y-133054000D01*
X38156000Y-133054000D02*
X38156000Y-148894000D01*
X84156000Y-104054000D02*
X84156000Y-119894000D01*
X81271537Y-101169537D02*
X84156000Y-104054000D01*
X104271537Y-101169537D02*
X107156000Y-104054000D01*
X107156000Y-104054000D02*
X107156000Y-119894000D01*
X61156000Y-104054000D02*
X61156000Y-119894000D01*
X58271537Y-101169537D02*
X61156000Y-104054000D01*
X35271537Y-101169537D02*
X38156000Y-104054000D01*
X38156000Y-104054000D02*
X38156000Y-119894000D01*
X86288000Y-177486000D02*
X86696000Y-177894000D01*
X86288000Y-161275248D02*
X86288000Y-177486000D01*
X80492701Y-155479949D02*
X86288000Y-161275248D01*
X103492701Y-155479949D02*
X109288000Y-161275248D01*
X109288000Y-161275248D02*
X109288000Y-177486000D01*
X109288000Y-177486000D02*
X109696000Y-177894000D01*
X63288000Y-177486000D02*
X63696000Y-177894000D01*
X63288000Y-161275248D02*
X63288000Y-177486000D01*
X57492701Y-155479949D02*
X63288000Y-161275248D01*
X34492701Y-155479949D02*
X40288000Y-161275248D01*
X40288000Y-161275248D02*
X40288000Y-177486000D01*
X40288000Y-177486000D02*
X40696000Y-177894000D01*
X86288000Y-148486000D02*
X86696000Y-148894000D01*
X86288000Y-132275248D02*
X86288000Y-148486000D01*
X80492701Y-126479949D02*
X86288000Y-132275248D01*
X103492701Y-126479949D02*
X109288000Y-132275248D01*
X109288000Y-132275248D02*
X109288000Y-148486000D01*
X109288000Y-148486000D02*
X109696000Y-148894000D01*
X63288000Y-148486000D02*
X63696000Y-148894000D01*
X63288000Y-132275248D02*
X63288000Y-148486000D01*
X57492701Y-126479949D02*
X63288000Y-132275248D01*
X34492701Y-126479949D02*
X40288000Y-132275248D01*
X40288000Y-132275248D02*
X40288000Y-148486000D01*
X40288000Y-148486000D02*
X40696000Y-148894000D01*
X86288000Y-119486000D02*
X86696000Y-119894000D01*
X86288000Y-103275248D02*
X86288000Y-119486000D01*
X80492701Y-97479949D02*
X86288000Y-103275248D01*
X103492701Y-97479949D02*
X109288000Y-103275248D01*
X109288000Y-103275248D02*
X109288000Y-119486000D01*
X109288000Y-119486000D02*
X109696000Y-119894000D01*
X63288000Y-119486000D02*
X63696000Y-119894000D01*
X63288000Y-103275248D02*
X63288000Y-119486000D01*
X57492701Y-97479949D02*
X63288000Y-103275248D01*
X34492701Y-97479949D02*
X40288000Y-103275248D01*
X40288000Y-103275248D02*
X40288000Y-119486000D01*
X40288000Y-119486000D02*
X40696000Y-119894000D01*
D15*
G36*
X78819169Y-94814863D02*
X79131461Y-94815136D01*
X79225876Y-94776125D01*
X79319169Y-94814863D01*
X79631461Y-94815136D01*
X79725876Y-94776125D01*
X79819169Y-94814863D01*
X80131461Y-94815136D01*
X80225876Y-94776125D01*
X80319169Y-94814863D01*
X80631461Y-94815136D01*
X80725876Y-94776125D01*
X80819169Y-94814863D01*
X81131461Y-94815136D01*
X81413982Y-94698401D01*
X81637325Y-94847633D01*
X81976000Y-94915000D01*
X91091000Y-94915000D01*
X91091000Y-106030000D01*
X91158367Y-106368675D01*
X91307773Y-106592278D01*
X91191137Y-106873169D01*
X91190864Y-107185461D01*
X91229875Y-107279876D01*
X91191137Y-107373169D01*
X91190864Y-107685461D01*
X91229875Y-107779876D01*
X91191137Y-107873169D01*
X91190864Y-108185461D01*
X91229875Y-108279876D01*
X91191137Y-108373169D01*
X91190864Y-108685461D01*
X91229875Y-108779876D01*
X91191137Y-108873169D01*
X91190864Y-109185461D01*
X91307599Y-109467982D01*
X91158367Y-109691325D01*
X91091000Y-110030000D01*
X91091000Y-122145000D01*
X81976000Y-122145000D01*
X81637325Y-122212367D01*
X81476240Y-122320000D01*
X81313122Y-122320000D01*
X81132831Y-122245137D01*
X80820539Y-122244864D01*
X80726124Y-122283875D01*
X80632831Y-122245137D01*
X80320539Y-122244864D01*
X80226124Y-122283875D01*
X80132831Y-122245137D01*
X79820539Y-122244864D01*
X79726124Y-122283875D01*
X79632831Y-122245137D01*
X79320539Y-122244864D01*
X79226124Y-122283875D01*
X79132831Y-122245137D01*
X78820539Y-122244864D01*
X78638695Y-122320000D01*
X78475760Y-122320000D01*
X78314675Y-122212367D01*
X77976000Y-122145000D01*
X69861000Y-122145000D01*
X69861000Y-119864907D01*
X69971000Y-119864907D01*
X69971000Y-119923093D01*
X70084039Y-120491378D01*
X70405946Y-120973147D01*
X70887715Y-121295054D01*
X71456000Y-121408093D01*
X72024285Y-121295054D01*
X72506054Y-120973147D01*
X72726000Y-120643974D01*
X72945946Y-120973147D01*
X73427715Y-121295054D01*
X73996000Y-121408093D01*
X74564285Y-121295054D01*
X75046054Y-120973147D01*
X75266000Y-120643974D01*
X75485946Y-120973147D01*
X75967715Y-121295054D01*
X76536000Y-121408093D01*
X77104285Y-121295054D01*
X77586054Y-120973147D01*
X77806000Y-120643974D01*
X78025946Y-120973147D01*
X78507715Y-121295054D01*
X79076000Y-121408093D01*
X79644285Y-121295054D01*
X80126054Y-120973147D01*
X80346000Y-120643974D01*
X80565946Y-120973147D01*
X81047715Y-121295054D01*
X81616000Y-121408093D01*
X82184285Y-121295054D01*
X82666054Y-120973147D01*
X82886000Y-120643974D01*
X83105946Y-120973147D01*
X83587715Y-121295054D01*
X84156000Y-121408093D01*
X84724285Y-121295054D01*
X85206054Y-120973147D01*
X85426000Y-120643974D01*
X85645946Y-120973147D01*
X86127715Y-121295054D01*
X86696000Y-121408093D01*
X87264285Y-121295054D01*
X87746054Y-120973147D01*
X87775403Y-120929223D01*
X87847673Y-121103698D01*
X88026301Y-121282327D01*
X88259690Y-121379000D01*
X88950250Y-121379000D01*
X89109000Y-121220250D01*
X89109000Y-120021000D01*
X89363000Y-120021000D01*
X89363000Y-121220250D01*
X89521750Y-121379000D01*
X90212310Y-121379000D01*
X90445699Y-121282327D01*
X90624327Y-121103698D01*
X90721000Y-120870309D01*
X90721000Y-120179750D01*
X90562250Y-120021000D01*
X89363000Y-120021000D01*
X89109000Y-120021000D01*
X89089000Y-120021000D01*
X89089000Y-119767000D01*
X89109000Y-119767000D01*
X89109000Y-118567750D01*
X89363000Y-118567750D01*
X89363000Y-119767000D01*
X90562250Y-119767000D01*
X90721000Y-119608250D01*
X90721000Y-118917691D01*
X90624327Y-118684302D01*
X90445699Y-118505673D01*
X90212310Y-118409000D01*
X89521750Y-118409000D01*
X89363000Y-118567750D01*
X89109000Y-118567750D01*
X88950250Y-118409000D01*
X88259690Y-118409000D01*
X88026301Y-118505673D01*
X87847673Y-118684302D01*
X87775403Y-118858777D01*
X87746054Y-118814853D01*
X87264285Y-118492946D01*
X87048000Y-118449924D01*
X87048000Y-103275248D01*
X86990148Y-102984409D01*
X86990148Y-102984408D01*
X86825401Y-102737847D01*
X81527736Y-97440182D01*
X81527880Y-97274978D01*
X81370643Y-96894434D01*
X81079747Y-96603030D01*
X80699478Y-96445129D01*
X80287730Y-96444770D01*
X79907186Y-96602007D01*
X79615782Y-96892903D01*
X79457881Y-97273172D01*
X79457779Y-97390552D01*
X79352485Y-97434058D01*
X79061081Y-97724954D01*
X78903180Y-98105223D01*
X78902821Y-98516971D01*
X79060058Y-98897515D01*
X79350954Y-99188919D01*
X79686000Y-99328042D01*
X79686000Y-100419959D01*
X79516019Y-100419811D01*
X79135475Y-100577048D01*
X79090116Y-100622328D01*
X78814666Y-100507951D01*
X78402918Y-100507592D01*
X78022374Y-100664829D01*
X77960292Y-100726802D01*
X77604777Y-100579180D01*
X77193029Y-100578821D01*
X76812485Y-100736058D01*
X76521081Y-101026954D01*
X76363180Y-101407223D01*
X76362992Y-101622679D01*
X76295853Y-101723160D01*
X76238001Y-102013999D01*
X76238001Y-102207197D01*
X74574599Y-103870599D01*
X74409852Y-104117161D01*
X74352000Y-104408000D01*
X74352000Y-118450720D01*
X73996000Y-118379907D01*
X73427715Y-118492946D01*
X72945946Y-118814853D01*
X72726000Y-119144026D01*
X72506054Y-118814853D01*
X72024285Y-118492946D01*
X71456000Y-118379907D01*
X70887715Y-118492946D01*
X70405946Y-118814853D01*
X70084039Y-119296622D01*
X69971000Y-119864907D01*
X69861000Y-119864907D01*
X69861000Y-110030000D01*
X69793633Y-109691325D01*
X69644227Y-109467722D01*
X69760863Y-109186831D01*
X69761136Y-108874539D01*
X69722125Y-108780124D01*
X69760863Y-108686831D01*
X69761136Y-108374539D01*
X69722125Y-108280124D01*
X69760863Y-108186831D01*
X69761136Y-107874539D01*
X69722125Y-107780124D01*
X69760863Y-107686831D01*
X69761136Y-107374539D01*
X69722125Y-107280124D01*
X69760863Y-107186831D01*
X69761136Y-106874539D01*
X69644401Y-106592018D01*
X69793633Y-106368675D01*
X69861000Y-106030000D01*
X69861000Y-94915000D01*
X77976000Y-94915000D01*
X78314675Y-94847633D01*
X78538278Y-94698227D01*
X78819169Y-94814863D01*
X78819169Y-94814863D01*
G37*
X78819169Y-94814863D02*
X79131461Y-94815136D01*
X79225876Y-94776125D01*
X79319169Y-94814863D01*
X79631461Y-94815136D01*
X79725876Y-94776125D01*
X79819169Y-94814863D01*
X80131461Y-94815136D01*
X80225876Y-94776125D01*
X80319169Y-94814863D01*
X80631461Y-94815136D01*
X80725876Y-94776125D01*
X80819169Y-94814863D01*
X81131461Y-94815136D01*
X81413982Y-94698401D01*
X81637325Y-94847633D01*
X81976000Y-94915000D01*
X91091000Y-94915000D01*
X91091000Y-106030000D01*
X91158367Y-106368675D01*
X91307773Y-106592278D01*
X91191137Y-106873169D01*
X91190864Y-107185461D01*
X91229875Y-107279876D01*
X91191137Y-107373169D01*
X91190864Y-107685461D01*
X91229875Y-107779876D01*
X91191137Y-107873169D01*
X91190864Y-108185461D01*
X91229875Y-108279876D01*
X91191137Y-108373169D01*
X91190864Y-108685461D01*
X91229875Y-108779876D01*
X91191137Y-108873169D01*
X91190864Y-109185461D01*
X91307599Y-109467982D01*
X91158367Y-109691325D01*
X91091000Y-110030000D01*
X91091000Y-122145000D01*
X81976000Y-122145000D01*
X81637325Y-122212367D01*
X81476240Y-122320000D01*
X81313122Y-122320000D01*
X81132831Y-122245137D01*
X80820539Y-122244864D01*
X80726124Y-122283875D01*
X80632831Y-122245137D01*
X80320539Y-122244864D01*
X80226124Y-122283875D01*
X80132831Y-122245137D01*
X79820539Y-122244864D01*
X79726124Y-122283875D01*
X79632831Y-122245137D01*
X79320539Y-122244864D01*
X79226124Y-122283875D01*
X79132831Y-122245137D01*
X78820539Y-122244864D01*
X78638695Y-122320000D01*
X78475760Y-122320000D01*
X78314675Y-122212367D01*
X77976000Y-122145000D01*
X69861000Y-122145000D01*
X69861000Y-119864907D01*
X69971000Y-119864907D01*
X69971000Y-119923093D01*
X70084039Y-120491378D01*
X70405946Y-120973147D01*
X70887715Y-121295054D01*
X71456000Y-121408093D01*
X72024285Y-121295054D01*
X72506054Y-120973147D01*
X72726000Y-120643974D01*
X72945946Y-120973147D01*
X73427715Y-121295054D01*
X73996000Y-121408093D01*
X74564285Y-121295054D01*
X75046054Y-120973147D01*
X75266000Y-120643974D01*
X75485946Y-120973147D01*
X75967715Y-121295054D01*
X76536000Y-121408093D01*
X77104285Y-121295054D01*
X77586054Y-120973147D01*
X77806000Y-120643974D01*
X78025946Y-120973147D01*
X78507715Y-121295054D01*
X79076000Y-121408093D01*
X79644285Y-121295054D01*
X80126054Y-120973147D01*
X80346000Y-120643974D01*
X80565946Y-120973147D01*
X81047715Y-121295054D01*
X81616000Y-121408093D01*
X82184285Y-121295054D01*
X82666054Y-120973147D01*
X82886000Y-120643974D01*
X83105946Y-120973147D01*
X83587715Y-121295054D01*
X84156000Y-121408093D01*
X84724285Y-121295054D01*
X85206054Y-120973147D01*
X85426000Y-120643974D01*
X85645946Y-120973147D01*
X86127715Y-121295054D01*
X86696000Y-121408093D01*
X87264285Y-121295054D01*
X87746054Y-120973147D01*
X87775403Y-120929223D01*
X87847673Y-121103698D01*
X88026301Y-121282327D01*
X88259690Y-121379000D01*
X88950250Y-121379000D01*
X89109000Y-121220250D01*
X89109000Y-120021000D01*
X89363000Y-120021000D01*
X89363000Y-121220250D01*
X89521750Y-121379000D01*
X90212310Y-121379000D01*
X90445699Y-121282327D01*
X90624327Y-121103698D01*
X90721000Y-120870309D01*
X90721000Y-120179750D01*
X90562250Y-120021000D01*
X89363000Y-120021000D01*
X89109000Y-120021000D01*
X89089000Y-120021000D01*
X89089000Y-119767000D01*
X89109000Y-119767000D01*
X89109000Y-118567750D01*
X89363000Y-118567750D01*
X89363000Y-119767000D01*
X90562250Y-119767000D01*
X90721000Y-119608250D01*
X90721000Y-118917691D01*
X90624327Y-118684302D01*
X90445699Y-118505673D01*
X90212310Y-118409000D01*
X89521750Y-118409000D01*
X89363000Y-118567750D01*
X89109000Y-118567750D01*
X88950250Y-118409000D01*
X88259690Y-118409000D01*
X88026301Y-118505673D01*
X87847673Y-118684302D01*
X87775403Y-118858777D01*
X87746054Y-118814853D01*
X87264285Y-118492946D01*
X87048000Y-118449924D01*
X87048000Y-103275248D01*
X86990148Y-102984409D01*
X86990148Y-102984408D01*
X86825401Y-102737847D01*
X81527736Y-97440182D01*
X81527880Y-97274978D01*
X81370643Y-96894434D01*
X81079747Y-96603030D01*
X80699478Y-96445129D01*
X80287730Y-96444770D01*
X79907186Y-96602007D01*
X79615782Y-96892903D01*
X79457881Y-97273172D01*
X79457779Y-97390552D01*
X79352485Y-97434058D01*
X79061081Y-97724954D01*
X78903180Y-98105223D01*
X78902821Y-98516971D01*
X79060058Y-98897515D01*
X79350954Y-99188919D01*
X79686000Y-99328042D01*
X79686000Y-100419959D01*
X79516019Y-100419811D01*
X79135475Y-100577048D01*
X79090116Y-100622328D01*
X78814666Y-100507951D01*
X78402918Y-100507592D01*
X78022374Y-100664829D01*
X77960292Y-100726802D01*
X77604777Y-100579180D01*
X77193029Y-100578821D01*
X76812485Y-100736058D01*
X76521081Y-101026954D01*
X76363180Y-101407223D01*
X76362992Y-101622679D01*
X76295853Y-101723160D01*
X76238001Y-102013999D01*
X76238001Y-102207197D01*
X74574599Y-103870599D01*
X74409852Y-104117161D01*
X74352000Y-104408000D01*
X74352000Y-118450720D01*
X73996000Y-118379907D01*
X73427715Y-118492946D01*
X72945946Y-118814853D01*
X72726000Y-119144026D01*
X72506054Y-118814853D01*
X72024285Y-118492946D01*
X71456000Y-118379907D01*
X70887715Y-118492946D01*
X70405946Y-118814853D01*
X70084039Y-119296622D01*
X69971000Y-119864907D01*
X69861000Y-119864907D01*
X69861000Y-110030000D01*
X69793633Y-109691325D01*
X69644227Y-109467722D01*
X69760863Y-109186831D01*
X69761136Y-108874539D01*
X69722125Y-108780124D01*
X69760863Y-108686831D01*
X69761136Y-108374539D01*
X69722125Y-108280124D01*
X69760863Y-108186831D01*
X69761136Y-107874539D01*
X69722125Y-107780124D01*
X69760863Y-107686831D01*
X69761136Y-107374539D01*
X69722125Y-107280124D01*
X69760863Y-107186831D01*
X69761136Y-106874539D01*
X69644401Y-106592018D01*
X69793633Y-106368675D01*
X69861000Y-106030000D01*
X69861000Y-94915000D01*
X77976000Y-94915000D01*
X78314675Y-94847633D01*
X78538278Y-94698227D01*
X78819169Y-94814863D01*
G36*
X85528000Y-103590050D02*
X85528000Y-118991372D01*
X85426000Y-119144026D01*
X85206054Y-118814853D01*
X84916000Y-118621046D01*
X84916000Y-104054000D01*
X84858148Y-103763161D01*
X84693401Y-103516599D01*
X82306572Y-101129770D01*
X82306716Y-100964566D01*
X82149479Y-100584022D01*
X81858583Y-100292618D01*
X81478314Y-100134717D01*
X81206000Y-100134480D01*
X81206000Y-99268050D01*
X85528000Y-103590050D01*
X85528000Y-103590050D01*
G37*
X85528000Y-103590050D02*
X85528000Y-118991372D01*
X85426000Y-119144026D01*
X85206054Y-118814853D01*
X84916000Y-118621046D01*
X84916000Y-104054000D01*
X84858148Y-103763161D01*
X84693401Y-103516599D01*
X82306572Y-101129770D01*
X82306716Y-100964566D01*
X82149479Y-100584022D01*
X81858583Y-100292618D01*
X81478314Y-100134717D01*
X81206000Y-100134480D01*
X81206000Y-99268050D01*
X85528000Y-103590050D01*
G36*
X81231701Y-102204503D02*
X83396000Y-104368802D01*
X83396000Y-118621046D01*
X83105946Y-118814853D01*
X82886000Y-119144026D01*
X82666054Y-118814853D01*
X82184285Y-118492946D01*
X81616000Y-118379907D01*
X81249592Y-118452790D01*
X81206000Y-118409198D01*
X81206000Y-102204480D01*
X81231701Y-102204503D01*
X81231701Y-102204503D01*
G37*
X81231701Y-102204503D02*
X83396000Y-104368802D01*
X83396000Y-118621046D01*
X83105946Y-118814853D01*
X82886000Y-119144026D01*
X82666054Y-118814853D01*
X82184285Y-118492946D01*
X81616000Y-118379907D01*
X81249592Y-118452790D01*
X81206000Y-118409198D01*
X81206000Y-102204480D01*
X81231701Y-102204503D01*
G36*
X77146000Y-118209198D02*
X76902408Y-118452790D01*
X76536000Y-118379907D01*
X75967715Y-118492946D01*
X75872000Y-118556901D01*
X75872000Y-104722802D01*
X77146000Y-103448802D01*
X77146000Y-118209198D01*
X77146000Y-118209198D01*
G37*
X77146000Y-118209198D02*
X76902408Y-118452790D01*
X76536000Y-118379907D01*
X75967715Y-118492946D01*
X75872000Y-118556901D01*
X75872000Y-104722802D01*
X77146000Y-103448802D01*
X77146000Y-118209198D01*
G36*
X79686000Y-118520819D02*
X79644285Y-118492946D01*
X79428000Y-118449924D01*
X79428000Y-102822782D01*
X79686000Y-102564782D01*
X79686000Y-118520819D01*
X79686000Y-118520819D01*
G37*
X79686000Y-118520819D02*
X79644285Y-118492946D01*
X79428000Y-118449924D01*
X79428000Y-102822782D01*
X79686000Y-102564782D01*
X79686000Y-118520819D01*
G36*
X101819169Y-94814863D02*
X102131461Y-94815136D01*
X102225876Y-94776125D01*
X102319169Y-94814863D01*
X102631461Y-94815136D01*
X102725876Y-94776125D01*
X102819169Y-94814863D01*
X103131461Y-94815136D01*
X103225876Y-94776125D01*
X103319169Y-94814863D01*
X103631461Y-94815136D01*
X103725876Y-94776125D01*
X103819169Y-94814863D01*
X104131461Y-94815136D01*
X104413982Y-94698401D01*
X104637325Y-94847633D01*
X104976000Y-94915000D01*
X114091000Y-94915000D01*
X114091000Y-106030000D01*
X114158367Y-106368675D01*
X114307773Y-106592278D01*
X114191137Y-106873169D01*
X114190864Y-107185461D01*
X114229875Y-107279876D01*
X114191137Y-107373169D01*
X114190864Y-107685461D01*
X114229875Y-107779876D01*
X114191137Y-107873169D01*
X114190864Y-108185461D01*
X114229875Y-108279876D01*
X114191137Y-108373169D01*
X114190864Y-108685461D01*
X114229875Y-108779876D01*
X114191137Y-108873169D01*
X114190864Y-109185461D01*
X114307599Y-109467982D01*
X114158367Y-109691325D01*
X114091000Y-110030000D01*
X114091000Y-122145000D01*
X104976000Y-122145000D01*
X104637325Y-122212367D01*
X104476240Y-122320000D01*
X104313122Y-122320000D01*
X104132831Y-122245137D01*
X103820539Y-122244864D01*
X103726124Y-122283875D01*
X103632831Y-122245137D01*
X103320539Y-122244864D01*
X103226124Y-122283875D01*
X103132831Y-122245137D01*
X102820539Y-122244864D01*
X102726124Y-122283875D01*
X102632831Y-122245137D01*
X102320539Y-122244864D01*
X102226124Y-122283875D01*
X102132831Y-122245137D01*
X101820539Y-122244864D01*
X101638695Y-122320000D01*
X101475760Y-122320000D01*
X101314675Y-122212367D01*
X100976000Y-122145000D01*
X92861000Y-122145000D01*
X92861000Y-119864907D01*
X92971000Y-119864907D01*
X92971000Y-119923093D01*
X93084039Y-120491378D01*
X93405946Y-120973147D01*
X93887715Y-121295054D01*
X94456000Y-121408093D01*
X95024285Y-121295054D01*
X95506054Y-120973147D01*
X95726000Y-120643974D01*
X95945946Y-120973147D01*
X96427715Y-121295054D01*
X96996000Y-121408093D01*
X97564285Y-121295054D01*
X98046054Y-120973147D01*
X98266000Y-120643974D01*
X98485946Y-120973147D01*
X98967715Y-121295054D01*
X99536000Y-121408093D01*
X100104285Y-121295054D01*
X100586054Y-120973147D01*
X100806000Y-120643974D01*
X101025946Y-120973147D01*
X101507715Y-121295054D01*
X102076000Y-121408093D01*
X102644285Y-121295054D01*
X103126054Y-120973147D01*
X103346000Y-120643974D01*
X103565946Y-120973147D01*
X104047715Y-121295054D01*
X104616000Y-121408093D01*
X105184285Y-121295054D01*
X105666054Y-120973147D01*
X105886000Y-120643974D01*
X106105946Y-120973147D01*
X106587715Y-121295054D01*
X107156000Y-121408093D01*
X107724285Y-121295054D01*
X108206054Y-120973147D01*
X108426000Y-120643974D01*
X108645946Y-120973147D01*
X109127715Y-121295054D01*
X109696000Y-121408093D01*
X110264285Y-121295054D01*
X110746054Y-120973147D01*
X110775403Y-120929223D01*
X110847673Y-121103698D01*
X111026301Y-121282327D01*
X111259690Y-121379000D01*
X111950250Y-121379000D01*
X112109000Y-121220250D01*
X112109000Y-120021000D01*
X112363000Y-120021000D01*
X112363000Y-121220250D01*
X112521750Y-121379000D01*
X113212310Y-121379000D01*
X113445699Y-121282327D01*
X113624327Y-121103698D01*
X113721000Y-120870309D01*
X113721000Y-120179750D01*
X113562250Y-120021000D01*
X112363000Y-120021000D01*
X112109000Y-120021000D01*
X112089000Y-120021000D01*
X112089000Y-119767000D01*
X112109000Y-119767000D01*
X112109000Y-118567750D01*
X112363000Y-118567750D01*
X112363000Y-119767000D01*
X113562250Y-119767000D01*
X113721000Y-119608250D01*
X113721000Y-118917691D01*
X113624327Y-118684302D01*
X113445699Y-118505673D01*
X113212310Y-118409000D01*
X112521750Y-118409000D01*
X112363000Y-118567750D01*
X112109000Y-118567750D01*
X111950250Y-118409000D01*
X111259690Y-118409000D01*
X111026301Y-118505673D01*
X110847673Y-118684302D01*
X110775403Y-118858777D01*
X110746054Y-118814853D01*
X110264285Y-118492946D01*
X110048000Y-118449924D01*
X110048000Y-103275248D01*
X109990148Y-102984409D01*
X109990148Y-102984408D01*
X109825401Y-102737847D01*
X104527736Y-97440182D01*
X104527880Y-97274978D01*
X104370643Y-96894434D01*
X104079747Y-96603030D01*
X103699478Y-96445129D01*
X103287730Y-96444770D01*
X102907186Y-96602007D01*
X102615782Y-96892903D01*
X102457881Y-97273172D01*
X102457779Y-97390552D01*
X102352485Y-97434058D01*
X102061081Y-97724954D01*
X101903180Y-98105223D01*
X101902821Y-98516971D01*
X102060058Y-98897515D01*
X102350954Y-99188919D01*
X102686000Y-99328042D01*
X102686000Y-100419959D01*
X102516019Y-100419811D01*
X102135475Y-100577048D01*
X102090116Y-100622328D01*
X101814666Y-100507951D01*
X101402918Y-100507592D01*
X101022374Y-100664829D01*
X100960292Y-100726802D01*
X100604777Y-100579180D01*
X100193029Y-100578821D01*
X99812485Y-100736058D01*
X99521081Y-101026954D01*
X99363180Y-101407223D01*
X99362992Y-101622679D01*
X99295853Y-101723160D01*
X99238001Y-102013999D01*
X99238001Y-102207197D01*
X97574599Y-103870599D01*
X97409852Y-104117161D01*
X97352000Y-104408000D01*
X97352000Y-118450720D01*
X96996000Y-118379907D01*
X96427715Y-118492946D01*
X95945946Y-118814853D01*
X95726000Y-119144026D01*
X95506054Y-118814853D01*
X95024285Y-118492946D01*
X94456000Y-118379907D01*
X93887715Y-118492946D01*
X93405946Y-118814853D01*
X93084039Y-119296622D01*
X92971000Y-119864907D01*
X92861000Y-119864907D01*
X92861000Y-110030000D01*
X92793633Y-109691325D01*
X92644227Y-109467722D01*
X92760863Y-109186831D01*
X92761136Y-108874539D01*
X92722125Y-108780124D01*
X92760863Y-108686831D01*
X92761136Y-108374539D01*
X92722125Y-108280124D01*
X92760863Y-108186831D01*
X92761136Y-107874539D01*
X92722125Y-107780124D01*
X92760863Y-107686831D01*
X92761136Y-107374539D01*
X92722125Y-107280124D01*
X92760863Y-107186831D01*
X92761136Y-106874539D01*
X92644401Y-106592018D01*
X92793633Y-106368675D01*
X92861000Y-106030000D01*
X92861000Y-94915000D01*
X100976000Y-94915000D01*
X101314675Y-94847633D01*
X101538278Y-94698227D01*
X101819169Y-94814863D01*
X101819169Y-94814863D01*
G37*
X101819169Y-94814863D02*
X102131461Y-94815136D01*
X102225876Y-94776125D01*
X102319169Y-94814863D01*
X102631461Y-94815136D01*
X102725876Y-94776125D01*
X102819169Y-94814863D01*
X103131461Y-94815136D01*
X103225876Y-94776125D01*
X103319169Y-94814863D01*
X103631461Y-94815136D01*
X103725876Y-94776125D01*
X103819169Y-94814863D01*
X104131461Y-94815136D01*
X104413982Y-94698401D01*
X104637325Y-94847633D01*
X104976000Y-94915000D01*
X114091000Y-94915000D01*
X114091000Y-106030000D01*
X114158367Y-106368675D01*
X114307773Y-106592278D01*
X114191137Y-106873169D01*
X114190864Y-107185461D01*
X114229875Y-107279876D01*
X114191137Y-107373169D01*
X114190864Y-107685461D01*
X114229875Y-107779876D01*
X114191137Y-107873169D01*
X114190864Y-108185461D01*
X114229875Y-108279876D01*
X114191137Y-108373169D01*
X114190864Y-108685461D01*
X114229875Y-108779876D01*
X114191137Y-108873169D01*
X114190864Y-109185461D01*
X114307599Y-109467982D01*
X114158367Y-109691325D01*
X114091000Y-110030000D01*
X114091000Y-122145000D01*
X104976000Y-122145000D01*
X104637325Y-122212367D01*
X104476240Y-122320000D01*
X104313122Y-122320000D01*
X104132831Y-122245137D01*
X103820539Y-122244864D01*
X103726124Y-122283875D01*
X103632831Y-122245137D01*
X103320539Y-122244864D01*
X103226124Y-122283875D01*
X103132831Y-122245137D01*
X102820539Y-122244864D01*
X102726124Y-122283875D01*
X102632831Y-122245137D01*
X102320539Y-122244864D01*
X102226124Y-122283875D01*
X102132831Y-122245137D01*
X101820539Y-122244864D01*
X101638695Y-122320000D01*
X101475760Y-122320000D01*
X101314675Y-122212367D01*
X100976000Y-122145000D01*
X92861000Y-122145000D01*
X92861000Y-119864907D01*
X92971000Y-119864907D01*
X92971000Y-119923093D01*
X93084039Y-120491378D01*
X93405946Y-120973147D01*
X93887715Y-121295054D01*
X94456000Y-121408093D01*
X95024285Y-121295054D01*
X95506054Y-120973147D01*
X95726000Y-120643974D01*
X95945946Y-120973147D01*
X96427715Y-121295054D01*
X96996000Y-121408093D01*
X97564285Y-121295054D01*
X98046054Y-120973147D01*
X98266000Y-120643974D01*
X98485946Y-120973147D01*
X98967715Y-121295054D01*
X99536000Y-121408093D01*
X100104285Y-121295054D01*
X100586054Y-120973147D01*
X100806000Y-120643974D01*
X101025946Y-120973147D01*
X101507715Y-121295054D01*
X102076000Y-121408093D01*
X102644285Y-121295054D01*
X103126054Y-120973147D01*
X103346000Y-120643974D01*
X103565946Y-120973147D01*
X104047715Y-121295054D01*
X104616000Y-121408093D01*
X105184285Y-121295054D01*
X105666054Y-120973147D01*
X105886000Y-120643974D01*
X106105946Y-120973147D01*
X106587715Y-121295054D01*
X107156000Y-121408093D01*
X107724285Y-121295054D01*
X108206054Y-120973147D01*
X108426000Y-120643974D01*
X108645946Y-120973147D01*
X109127715Y-121295054D01*
X109696000Y-121408093D01*
X110264285Y-121295054D01*
X110746054Y-120973147D01*
X110775403Y-120929223D01*
X110847673Y-121103698D01*
X111026301Y-121282327D01*
X111259690Y-121379000D01*
X111950250Y-121379000D01*
X112109000Y-121220250D01*
X112109000Y-120021000D01*
X112363000Y-120021000D01*
X112363000Y-121220250D01*
X112521750Y-121379000D01*
X113212310Y-121379000D01*
X113445699Y-121282327D01*
X113624327Y-121103698D01*
X113721000Y-120870309D01*
X113721000Y-120179750D01*
X113562250Y-120021000D01*
X112363000Y-120021000D01*
X112109000Y-120021000D01*
X112089000Y-120021000D01*
X112089000Y-119767000D01*
X112109000Y-119767000D01*
X112109000Y-118567750D01*
X112363000Y-118567750D01*
X112363000Y-119767000D01*
X113562250Y-119767000D01*
X113721000Y-119608250D01*
X113721000Y-118917691D01*
X113624327Y-118684302D01*
X113445699Y-118505673D01*
X113212310Y-118409000D01*
X112521750Y-118409000D01*
X112363000Y-118567750D01*
X112109000Y-118567750D01*
X111950250Y-118409000D01*
X111259690Y-118409000D01*
X111026301Y-118505673D01*
X110847673Y-118684302D01*
X110775403Y-118858777D01*
X110746054Y-118814853D01*
X110264285Y-118492946D01*
X110048000Y-118449924D01*
X110048000Y-103275248D01*
X109990148Y-102984409D01*
X109990148Y-102984408D01*
X109825401Y-102737847D01*
X104527736Y-97440182D01*
X104527880Y-97274978D01*
X104370643Y-96894434D01*
X104079747Y-96603030D01*
X103699478Y-96445129D01*
X103287730Y-96444770D01*
X102907186Y-96602007D01*
X102615782Y-96892903D01*
X102457881Y-97273172D01*
X102457779Y-97390552D01*
X102352485Y-97434058D01*
X102061081Y-97724954D01*
X101903180Y-98105223D01*
X101902821Y-98516971D01*
X102060058Y-98897515D01*
X102350954Y-99188919D01*
X102686000Y-99328042D01*
X102686000Y-100419959D01*
X102516019Y-100419811D01*
X102135475Y-100577048D01*
X102090116Y-100622328D01*
X101814666Y-100507951D01*
X101402918Y-100507592D01*
X101022374Y-100664829D01*
X100960292Y-100726802D01*
X100604777Y-100579180D01*
X100193029Y-100578821D01*
X99812485Y-100736058D01*
X99521081Y-101026954D01*
X99363180Y-101407223D01*
X99362992Y-101622679D01*
X99295853Y-101723160D01*
X99238001Y-102013999D01*
X99238001Y-102207197D01*
X97574599Y-103870599D01*
X97409852Y-104117161D01*
X97352000Y-104408000D01*
X97352000Y-118450720D01*
X96996000Y-118379907D01*
X96427715Y-118492946D01*
X95945946Y-118814853D01*
X95726000Y-119144026D01*
X95506054Y-118814853D01*
X95024285Y-118492946D01*
X94456000Y-118379907D01*
X93887715Y-118492946D01*
X93405946Y-118814853D01*
X93084039Y-119296622D01*
X92971000Y-119864907D01*
X92861000Y-119864907D01*
X92861000Y-110030000D01*
X92793633Y-109691325D01*
X92644227Y-109467722D01*
X92760863Y-109186831D01*
X92761136Y-108874539D01*
X92722125Y-108780124D01*
X92760863Y-108686831D01*
X92761136Y-108374539D01*
X92722125Y-108280124D01*
X92760863Y-108186831D01*
X92761136Y-107874539D01*
X92722125Y-107780124D01*
X92760863Y-107686831D01*
X92761136Y-107374539D01*
X92722125Y-107280124D01*
X92760863Y-107186831D01*
X92761136Y-106874539D01*
X92644401Y-106592018D01*
X92793633Y-106368675D01*
X92861000Y-106030000D01*
X92861000Y-94915000D01*
X100976000Y-94915000D01*
X101314675Y-94847633D01*
X101538278Y-94698227D01*
X101819169Y-94814863D01*
G36*
X108528000Y-103590050D02*
X108528000Y-118991372D01*
X108426000Y-119144026D01*
X108206054Y-118814853D01*
X107916000Y-118621046D01*
X107916000Y-104054000D01*
X107858148Y-103763161D01*
X107693401Y-103516599D01*
X105306572Y-101129770D01*
X105306716Y-100964566D01*
X105149479Y-100584022D01*
X104858583Y-100292618D01*
X104478314Y-100134717D01*
X104206000Y-100134480D01*
X104206000Y-99268050D01*
X108528000Y-103590050D01*
X108528000Y-103590050D01*
G37*
X108528000Y-103590050D02*
X108528000Y-118991372D01*
X108426000Y-119144026D01*
X108206054Y-118814853D01*
X107916000Y-118621046D01*
X107916000Y-104054000D01*
X107858148Y-103763161D01*
X107693401Y-103516599D01*
X105306572Y-101129770D01*
X105306716Y-100964566D01*
X105149479Y-100584022D01*
X104858583Y-100292618D01*
X104478314Y-100134717D01*
X104206000Y-100134480D01*
X104206000Y-99268050D01*
X108528000Y-103590050D01*
G36*
X104231701Y-102204503D02*
X106396000Y-104368802D01*
X106396000Y-118621046D01*
X106105946Y-118814853D01*
X105886000Y-119144026D01*
X105666054Y-118814853D01*
X105184285Y-118492946D01*
X104616000Y-118379907D01*
X104249592Y-118452790D01*
X104206000Y-118409198D01*
X104206000Y-102204480D01*
X104231701Y-102204503D01*
X104231701Y-102204503D01*
G37*
X104231701Y-102204503D02*
X106396000Y-104368802D01*
X106396000Y-118621046D01*
X106105946Y-118814853D01*
X105886000Y-119144026D01*
X105666054Y-118814853D01*
X105184285Y-118492946D01*
X104616000Y-118379907D01*
X104249592Y-118452790D01*
X104206000Y-118409198D01*
X104206000Y-102204480D01*
X104231701Y-102204503D01*
G36*
X100146000Y-118209198D02*
X99902408Y-118452790D01*
X99536000Y-118379907D01*
X98967715Y-118492946D01*
X98872000Y-118556901D01*
X98872000Y-104722802D01*
X100146000Y-103448802D01*
X100146000Y-118209198D01*
X100146000Y-118209198D01*
G37*
X100146000Y-118209198D02*
X99902408Y-118452790D01*
X99536000Y-118379907D01*
X98967715Y-118492946D01*
X98872000Y-118556901D01*
X98872000Y-104722802D01*
X100146000Y-103448802D01*
X100146000Y-118209198D01*
G36*
X102686000Y-118520819D02*
X102644285Y-118492946D01*
X102428000Y-118449924D01*
X102428000Y-102822782D01*
X102686000Y-102564782D01*
X102686000Y-118520819D01*
X102686000Y-118520819D01*
G37*
X102686000Y-118520819D02*
X102644285Y-118492946D01*
X102428000Y-118449924D01*
X102428000Y-102822782D01*
X102686000Y-102564782D01*
X102686000Y-118520819D01*
G36*
X32819169Y-94814863D02*
X33131461Y-94815136D01*
X33225876Y-94776125D01*
X33319169Y-94814863D01*
X33631461Y-94815136D01*
X33725876Y-94776125D01*
X33819169Y-94814863D01*
X34131461Y-94815136D01*
X34225876Y-94776125D01*
X34319169Y-94814863D01*
X34631461Y-94815136D01*
X34725876Y-94776125D01*
X34819169Y-94814863D01*
X35131461Y-94815136D01*
X35413982Y-94698401D01*
X35637325Y-94847633D01*
X35976000Y-94915000D01*
X45091000Y-94915000D01*
X45091000Y-106030000D01*
X45158367Y-106368675D01*
X45307773Y-106592278D01*
X45191137Y-106873169D01*
X45190864Y-107185461D01*
X45229875Y-107279876D01*
X45191137Y-107373169D01*
X45190864Y-107685461D01*
X45229875Y-107779876D01*
X45191137Y-107873169D01*
X45190864Y-108185461D01*
X45229875Y-108279876D01*
X45191137Y-108373169D01*
X45190864Y-108685461D01*
X45229875Y-108779876D01*
X45191137Y-108873169D01*
X45190864Y-109185461D01*
X45307599Y-109467982D01*
X45158367Y-109691325D01*
X45091000Y-110030000D01*
X45091000Y-122145000D01*
X35976000Y-122145000D01*
X35637325Y-122212367D01*
X35476240Y-122320000D01*
X35313122Y-122320000D01*
X35132831Y-122245137D01*
X34820539Y-122244864D01*
X34726124Y-122283875D01*
X34632831Y-122245137D01*
X34320539Y-122244864D01*
X34226124Y-122283875D01*
X34132831Y-122245137D01*
X33820539Y-122244864D01*
X33726124Y-122283875D01*
X33632831Y-122245137D01*
X33320539Y-122244864D01*
X33226124Y-122283875D01*
X33132831Y-122245137D01*
X32820539Y-122244864D01*
X32638695Y-122320000D01*
X32475760Y-122320000D01*
X32314675Y-122212367D01*
X31976000Y-122145000D01*
X23861000Y-122145000D01*
X23861000Y-119864907D01*
X23971000Y-119864907D01*
X23971000Y-119923093D01*
X24084039Y-120491378D01*
X24405946Y-120973147D01*
X24887715Y-121295054D01*
X25456000Y-121408093D01*
X26024285Y-121295054D01*
X26506054Y-120973147D01*
X26726000Y-120643974D01*
X26945946Y-120973147D01*
X27427715Y-121295054D01*
X27996000Y-121408093D01*
X28564285Y-121295054D01*
X29046054Y-120973147D01*
X29266000Y-120643974D01*
X29485946Y-120973147D01*
X29967715Y-121295054D01*
X30536000Y-121408093D01*
X31104285Y-121295054D01*
X31586054Y-120973147D01*
X31806000Y-120643974D01*
X32025946Y-120973147D01*
X32507715Y-121295054D01*
X33076000Y-121408093D01*
X33644285Y-121295054D01*
X34126054Y-120973147D01*
X34346000Y-120643974D01*
X34565946Y-120973147D01*
X35047715Y-121295054D01*
X35616000Y-121408093D01*
X36184285Y-121295054D01*
X36666054Y-120973147D01*
X36886000Y-120643974D01*
X37105946Y-120973147D01*
X37587715Y-121295054D01*
X38156000Y-121408093D01*
X38724285Y-121295054D01*
X39206054Y-120973147D01*
X39426000Y-120643974D01*
X39645946Y-120973147D01*
X40127715Y-121295054D01*
X40696000Y-121408093D01*
X41264285Y-121295054D01*
X41746054Y-120973147D01*
X41775403Y-120929223D01*
X41847673Y-121103698D01*
X42026301Y-121282327D01*
X42259690Y-121379000D01*
X42950250Y-121379000D01*
X43109000Y-121220250D01*
X43109000Y-120021000D01*
X43363000Y-120021000D01*
X43363000Y-121220250D01*
X43521750Y-121379000D01*
X44212310Y-121379000D01*
X44445699Y-121282327D01*
X44624327Y-121103698D01*
X44721000Y-120870309D01*
X44721000Y-120179750D01*
X44562250Y-120021000D01*
X43363000Y-120021000D01*
X43109000Y-120021000D01*
X43089000Y-120021000D01*
X43089000Y-119767000D01*
X43109000Y-119767000D01*
X43109000Y-118567750D01*
X43363000Y-118567750D01*
X43363000Y-119767000D01*
X44562250Y-119767000D01*
X44721000Y-119608250D01*
X44721000Y-118917691D01*
X44624327Y-118684302D01*
X44445699Y-118505673D01*
X44212310Y-118409000D01*
X43521750Y-118409000D01*
X43363000Y-118567750D01*
X43109000Y-118567750D01*
X42950250Y-118409000D01*
X42259690Y-118409000D01*
X42026301Y-118505673D01*
X41847673Y-118684302D01*
X41775403Y-118858777D01*
X41746054Y-118814853D01*
X41264285Y-118492946D01*
X41048000Y-118449924D01*
X41048000Y-103275248D01*
X40990148Y-102984409D01*
X40990148Y-102984408D01*
X40825401Y-102737847D01*
X35527736Y-97440182D01*
X35527880Y-97274978D01*
X35370643Y-96894434D01*
X35079747Y-96603030D01*
X34699478Y-96445129D01*
X34287730Y-96444770D01*
X33907186Y-96602007D01*
X33615782Y-96892903D01*
X33457881Y-97273172D01*
X33457779Y-97390552D01*
X33352485Y-97434058D01*
X33061081Y-97724954D01*
X32903180Y-98105223D01*
X32902821Y-98516971D01*
X33060058Y-98897515D01*
X33350954Y-99188919D01*
X33686000Y-99328042D01*
X33686000Y-100419959D01*
X33516019Y-100419811D01*
X33135475Y-100577048D01*
X33090116Y-100622328D01*
X32814666Y-100507951D01*
X32402918Y-100507592D01*
X32022374Y-100664829D01*
X31960292Y-100726802D01*
X31604777Y-100579180D01*
X31193029Y-100578821D01*
X30812485Y-100736058D01*
X30521081Y-101026954D01*
X30363180Y-101407223D01*
X30362992Y-101622679D01*
X30295853Y-101723160D01*
X30238001Y-102013999D01*
X30238001Y-102207197D01*
X28574599Y-103870599D01*
X28409852Y-104117161D01*
X28352000Y-104408000D01*
X28352000Y-118450720D01*
X27996000Y-118379907D01*
X27427715Y-118492946D01*
X26945946Y-118814853D01*
X26726000Y-119144026D01*
X26506054Y-118814853D01*
X26024285Y-118492946D01*
X25456000Y-118379907D01*
X24887715Y-118492946D01*
X24405946Y-118814853D01*
X24084039Y-119296622D01*
X23971000Y-119864907D01*
X23861000Y-119864907D01*
X23861000Y-110030000D01*
X23793633Y-109691325D01*
X23644227Y-109467722D01*
X23760863Y-109186831D01*
X23761136Y-108874539D01*
X23722125Y-108780124D01*
X23760863Y-108686831D01*
X23761136Y-108374539D01*
X23722125Y-108280124D01*
X23760863Y-108186831D01*
X23761136Y-107874539D01*
X23722125Y-107780124D01*
X23760863Y-107686831D01*
X23761136Y-107374539D01*
X23722125Y-107280124D01*
X23760863Y-107186831D01*
X23761136Y-106874539D01*
X23644401Y-106592018D01*
X23793633Y-106368675D01*
X23861000Y-106030000D01*
X23861000Y-94915000D01*
X31976000Y-94915000D01*
X32314675Y-94847633D01*
X32538278Y-94698227D01*
X32819169Y-94814863D01*
X32819169Y-94814863D01*
G37*
X32819169Y-94814863D02*
X33131461Y-94815136D01*
X33225876Y-94776125D01*
X33319169Y-94814863D01*
X33631461Y-94815136D01*
X33725876Y-94776125D01*
X33819169Y-94814863D01*
X34131461Y-94815136D01*
X34225876Y-94776125D01*
X34319169Y-94814863D01*
X34631461Y-94815136D01*
X34725876Y-94776125D01*
X34819169Y-94814863D01*
X35131461Y-94815136D01*
X35413982Y-94698401D01*
X35637325Y-94847633D01*
X35976000Y-94915000D01*
X45091000Y-94915000D01*
X45091000Y-106030000D01*
X45158367Y-106368675D01*
X45307773Y-106592278D01*
X45191137Y-106873169D01*
X45190864Y-107185461D01*
X45229875Y-107279876D01*
X45191137Y-107373169D01*
X45190864Y-107685461D01*
X45229875Y-107779876D01*
X45191137Y-107873169D01*
X45190864Y-108185461D01*
X45229875Y-108279876D01*
X45191137Y-108373169D01*
X45190864Y-108685461D01*
X45229875Y-108779876D01*
X45191137Y-108873169D01*
X45190864Y-109185461D01*
X45307599Y-109467982D01*
X45158367Y-109691325D01*
X45091000Y-110030000D01*
X45091000Y-122145000D01*
X35976000Y-122145000D01*
X35637325Y-122212367D01*
X35476240Y-122320000D01*
X35313122Y-122320000D01*
X35132831Y-122245137D01*
X34820539Y-122244864D01*
X34726124Y-122283875D01*
X34632831Y-122245137D01*
X34320539Y-122244864D01*
X34226124Y-122283875D01*
X34132831Y-122245137D01*
X33820539Y-122244864D01*
X33726124Y-122283875D01*
X33632831Y-122245137D01*
X33320539Y-122244864D01*
X33226124Y-122283875D01*
X33132831Y-122245137D01*
X32820539Y-122244864D01*
X32638695Y-122320000D01*
X32475760Y-122320000D01*
X32314675Y-122212367D01*
X31976000Y-122145000D01*
X23861000Y-122145000D01*
X23861000Y-119864907D01*
X23971000Y-119864907D01*
X23971000Y-119923093D01*
X24084039Y-120491378D01*
X24405946Y-120973147D01*
X24887715Y-121295054D01*
X25456000Y-121408093D01*
X26024285Y-121295054D01*
X26506054Y-120973147D01*
X26726000Y-120643974D01*
X26945946Y-120973147D01*
X27427715Y-121295054D01*
X27996000Y-121408093D01*
X28564285Y-121295054D01*
X29046054Y-120973147D01*
X29266000Y-120643974D01*
X29485946Y-120973147D01*
X29967715Y-121295054D01*
X30536000Y-121408093D01*
X31104285Y-121295054D01*
X31586054Y-120973147D01*
X31806000Y-120643974D01*
X32025946Y-120973147D01*
X32507715Y-121295054D01*
X33076000Y-121408093D01*
X33644285Y-121295054D01*
X34126054Y-120973147D01*
X34346000Y-120643974D01*
X34565946Y-120973147D01*
X35047715Y-121295054D01*
X35616000Y-121408093D01*
X36184285Y-121295054D01*
X36666054Y-120973147D01*
X36886000Y-120643974D01*
X37105946Y-120973147D01*
X37587715Y-121295054D01*
X38156000Y-121408093D01*
X38724285Y-121295054D01*
X39206054Y-120973147D01*
X39426000Y-120643974D01*
X39645946Y-120973147D01*
X40127715Y-121295054D01*
X40696000Y-121408093D01*
X41264285Y-121295054D01*
X41746054Y-120973147D01*
X41775403Y-120929223D01*
X41847673Y-121103698D01*
X42026301Y-121282327D01*
X42259690Y-121379000D01*
X42950250Y-121379000D01*
X43109000Y-121220250D01*
X43109000Y-120021000D01*
X43363000Y-120021000D01*
X43363000Y-121220250D01*
X43521750Y-121379000D01*
X44212310Y-121379000D01*
X44445699Y-121282327D01*
X44624327Y-121103698D01*
X44721000Y-120870309D01*
X44721000Y-120179750D01*
X44562250Y-120021000D01*
X43363000Y-120021000D01*
X43109000Y-120021000D01*
X43089000Y-120021000D01*
X43089000Y-119767000D01*
X43109000Y-119767000D01*
X43109000Y-118567750D01*
X43363000Y-118567750D01*
X43363000Y-119767000D01*
X44562250Y-119767000D01*
X44721000Y-119608250D01*
X44721000Y-118917691D01*
X44624327Y-118684302D01*
X44445699Y-118505673D01*
X44212310Y-118409000D01*
X43521750Y-118409000D01*
X43363000Y-118567750D01*
X43109000Y-118567750D01*
X42950250Y-118409000D01*
X42259690Y-118409000D01*
X42026301Y-118505673D01*
X41847673Y-118684302D01*
X41775403Y-118858777D01*
X41746054Y-118814853D01*
X41264285Y-118492946D01*
X41048000Y-118449924D01*
X41048000Y-103275248D01*
X40990148Y-102984409D01*
X40990148Y-102984408D01*
X40825401Y-102737847D01*
X35527736Y-97440182D01*
X35527880Y-97274978D01*
X35370643Y-96894434D01*
X35079747Y-96603030D01*
X34699478Y-96445129D01*
X34287730Y-96444770D01*
X33907186Y-96602007D01*
X33615782Y-96892903D01*
X33457881Y-97273172D01*
X33457779Y-97390552D01*
X33352485Y-97434058D01*
X33061081Y-97724954D01*
X32903180Y-98105223D01*
X32902821Y-98516971D01*
X33060058Y-98897515D01*
X33350954Y-99188919D01*
X33686000Y-99328042D01*
X33686000Y-100419959D01*
X33516019Y-100419811D01*
X33135475Y-100577048D01*
X33090116Y-100622328D01*
X32814666Y-100507951D01*
X32402918Y-100507592D01*
X32022374Y-100664829D01*
X31960292Y-100726802D01*
X31604777Y-100579180D01*
X31193029Y-100578821D01*
X30812485Y-100736058D01*
X30521081Y-101026954D01*
X30363180Y-101407223D01*
X30362992Y-101622679D01*
X30295853Y-101723160D01*
X30238001Y-102013999D01*
X30238001Y-102207197D01*
X28574599Y-103870599D01*
X28409852Y-104117161D01*
X28352000Y-104408000D01*
X28352000Y-118450720D01*
X27996000Y-118379907D01*
X27427715Y-118492946D01*
X26945946Y-118814853D01*
X26726000Y-119144026D01*
X26506054Y-118814853D01*
X26024285Y-118492946D01*
X25456000Y-118379907D01*
X24887715Y-118492946D01*
X24405946Y-118814853D01*
X24084039Y-119296622D01*
X23971000Y-119864907D01*
X23861000Y-119864907D01*
X23861000Y-110030000D01*
X23793633Y-109691325D01*
X23644227Y-109467722D01*
X23760863Y-109186831D01*
X23761136Y-108874539D01*
X23722125Y-108780124D01*
X23760863Y-108686831D01*
X23761136Y-108374539D01*
X23722125Y-108280124D01*
X23760863Y-108186831D01*
X23761136Y-107874539D01*
X23722125Y-107780124D01*
X23760863Y-107686831D01*
X23761136Y-107374539D01*
X23722125Y-107280124D01*
X23760863Y-107186831D01*
X23761136Y-106874539D01*
X23644401Y-106592018D01*
X23793633Y-106368675D01*
X23861000Y-106030000D01*
X23861000Y-94915000D01*
X31976000Y-94915000D01*
X32314675Y-94847633D01*
X32538278Y-94698227D01*
X32819169Y-94814863D01*
G36*
X39528000Y-103590050D02*
X39528000Y-118991372D01*
X39426000Y-119144026D01*
X39206054Y-118814853D01*
X38916000Y-118621046D01*
X38916000Y-104054000D01*
X38858148Y-103763161D01*
X38693401Y-103516599D01*
X36306572Y-101129770D01*
X36306716Y-100964566D01*
X36149479Y-100584022D01*
X35858583Y-100292618D01*
X35478314Y-100134717D01*
X35206000Y-100134480D01*
X35206000Y-99268050D01*
X39528000Y-103590050D01*
X39528000Y-103590050D01*
G37*
X39528000Y-103590050D02*
X39528000Y-118991372D01*
X39426000Y-119144026D01*
X39206054Y-118814853D01*
X38916000Y-118621046D01*
X38916000Y-104054000D01*
X38858148Y-103763161D01*
X38693401Y-103516599D01*
X36306572Y-101129770D01*
X36306716Y-100964566D01*
X36149479Y-100584022D01*
X35858583Y-100292618D01*
X35478314Y-100134717D01*
X35206000Y-100134480D01*
X35206000Y-99268050D01*
X39528000Y-103590050D01*
G36*
X35231701Y-102204503D02*
X37396000Y-104368802D01*
X37396000Y-118621046D01*
X37105946Y-118814853D01*
X36886000Y-119144026D01*
X36666054Y-118814853D01*
X36184285Y-118492946D01*
X35616000Y-118379907D01*
X35249592Y-118452790D01*
X35206000Y-118409198D01*
X35206000Y-102204480D01*
X35231701Y-102204503D01*
X35231701Y-102204503D01*
G37*
X35231701Y-102204503D02*
X37396000Y-104368802D01*
X37396000Y-118621046D01*
X37105946Y-118814853D01*
X36886000Y-119144026D01*
X36666054Y-118814853D01*
X36184285Y-118492946D01*
X35616000Y-118379907D01*
X35249592Y-118452790D01*
X35206000Y-118409198D01*
X35206000Y-102204480D01*
X35231701Y-102204503D01*
G36*
X31146000Y-118209198D02*
X30902408Y-118452790D01*
X30536000Y-118379907D01*
X29967715Y-118492946D01*
X29872000Y-118556901D01*
X29872000Y-104722802D01*
X31146000Y-103448802D01*
X31146000Y-118209198D01*
X31146000Y-118209198D01*
G37*
X31146000Y-118209198D02*
X30902408Y-118452790D01*
X30536000Y-118379907D01*
X29967715Y-118492946D01*
X29872000Y-118556901D01*
X29872000Y-104722802D01*
X31146000Y-103448802D01*
X31146000Y-118209198D01*
G36*
X33686000Y-118520819D02*
X33644285Y-118492946D01*
X33428000Y-118449924D01*
X33428000Y-102822782D01*
X33686000Y-102564782D01*
X33686000Y-118520819D01*
X33686000Y-118520819D01*
G37*
X33686000Y-118520819D02*
X33644285Y-118492946D01*
X33428000Y-118449924D01*
X33428000Y-102822782D01*
X33686000Y-102564782D01*
X33686000Y-118520819D01*
G36*
X55819169Y-94814863D02*
X56131461Y-94815136D01*
X56225876Y-94776125D01*
X56319169Y-94814863D01*
X56631461Y-94815136D01*
X56725876Y-94776125D01*
X56819169Y-94814863D01*
X57131461Y-94815136D01*
X57225876Y-94776125D01*
X57319169Y-94814863D01*
X57631461Y-94815136D01*
X57725876Y-94776125D01*
X57819169Y-94814863D01*
X58131461Y-94815136D01*
X58413982Y-94698401D01*
X58637325Y-94847633D01*
X58976000Y-94915000D01*
X68091000Y-94915000D01*
X68091000Y-106030000D01*
X68158367Y-106368675D01*
X68307773Y-106592278D01*
X68191137Y-106873169D01*
X68190864Y-107185461D01*
X68229875Y-107279876D01*
X68191137Y-107373169D01*
X68190864Y-107685461D01*
X68229875Y-107779876D01*
X68191137Y-107873169D01*
X68190864Y-108185461D01*
X68229875Y-108279876D01*
X68191137Y-108373169D01*
X68190864Y-108685461D01*
X68229875Y-108779876D01*
X68191137Y-108873169D01*
X68190864Y-109185461D01*
X68307599Y-109467982D01*
X68158367Y-109691325D01*
X68091000Y-110030000D01*
X68091000Y-122145000D01*
X58976000Y-122145000D01*
X58637325Y-122212367D01*
X58476240Y-122320000D01*
X58313122Y-122320000D01*
X58132831Y-122245137D01*
X57820539Y-122244864D01*
X57726124Y-122283875D01*
X57632831Y-122245137D01*
X57320539Y-122244864D01*
X57226124Y-122283875D01*
X57132831Y-122245137D01*
X56820539Y-122244864D01*
X56726124Y-122283875D01*
X56632831Y-122245137D01*
X56320539Y-122244864D01*
X56226124Y-122283875D01*
X56132831Y-122245137D01*
X55820539Y-122244864D01*
X55638695Y-122320000D01*
X55475760Y-122320000D01*
X55314675Y-122212367D01*
X54976000Y-122145000D01*
X46861000Y-122145000D01*
X46861000Y-119864907D01*
X46971000Y-119864907D01*
X46971000Y-119923093D01*
X47084039Y-120491378D01*
X47405946Y-120973147D01*
X47887715Y-121295054D01*
X48456000Y-121408093D01*
X49024285Y-121295054D01*
X49506054Y-120973147D01*
X49726000Y-120643974D01*
X49945946Y-120973147D01*
X50427715Y-121295054D01*
X50996000Y-121408093D01*
X51564285Y-121295054D01*
X52046054Y-120973147D01*
X52266000Y-120643974D01*
X52485946Y-120973147D01*
X52967715Y-121295054D01*
X53536000Y-121408093D01*
X54104285Y-121295054D01*
X54586054Y-120973147D01*
X54806000Y-120643974D01*
X55025946Y-120973147D01*
X55507715Y-121295054D01*
X56076000Y-121408093D01*
X56644285Y-121295054D01*
X57126054Y-120973147D01*
X57346000Y-120643974D01*
X57565946Y-120973147D01*
X58047715Y-121295054D01*
X58616000Y-121408093D01*
X59184285Y-121295054D01*
X59666054Y-120973147D01*
X59886000Y-120643974D01*
X60105946Y-120973147D01*
X60587715Y-121295054D01*
X61156000Y-121408093D01*
X61724285Y-121295054D01*
X62206054Y-120973147D01*
X62426000Y-120643974D01*
X62645946Y-120973147D01*
X63127715Y-121295054D01*
X63696000Y-121408093D01*
X64264285Y-121295054D01*
X64746054Y-120973147D01*
X64775403Y-120929223D01*
X64847673Y-121103698D01*
X65026301Y-121282327D01*
X65259690Y-121379000D01*
X65950250Y-121379000D01*
X66109000Y-121220250D01*
X66109000Y-120021000D01*
X66363000Y-120021000D01*
X66363000Y-121220250D01*
X66521750Y-121379000D01*
X67212310Y-121379000D01*
X67445699Y-121282327D01*
X67624327Y-121103698D01*
X67721000Y-120870309D01*
X67721000Y-120179750D01*
X67562250Y-120021000D01*
X66363000Y-120021000D01*
X66109000Y-120021000D01*
X66089000Y-120021000D01*
X66089000Y-119767000D01*
X66109000Y-119767000D01*
X66109000Y-118567750D01*
X66363000Y-118567750D01*
X66363000Y-119767000D01*
X67562250Y-119767000D01*
X67721000Y-119608250D01*
X67721000Y-118917691D01*
X67624327Y-118684302D01*
X67445699Y-118505673D01*
X67212310Y-118409000D01*
X66521750Y-118409000D01*
X66363000Y-118567750D01*
X66109000Y-118567750D01*
X65950250Y-118409000D01*
X65259690Y-118409000D01*
X65026301Y-118505673D01*
X64847673Y-118684302D01*
X64775403Y-118858777D01*
X64746054Y-118814853D01*
X64264285Y-118492946D01*
X64048000Y-118449924D01*
X64048000Y-103275248D01*
X63990148Y-102984409D01*
X63990148Y-102984408D01*
X63825401Y-102737847D01*
X58527736Y-97440182D01*
X58527880Y-97274978D01*
X58370643Y-96894434D01*
X58079747Y-96603030D01*
X57699478Y-96445129D01*
X57287730Y-96444770D01*
X56907186Y-96602007D01*
X56615782Y-96892903D01*
X56457881Y-97273172D01*
X56457779Y-97390552D01*
X56352485Y-97434058D01*
X56061081Y-97724954D01*
X55903180Y-98105223D01*
X55902821Y-98516971D01*
X56060058Y-98897515D01*
X56350954Y-99188919D01*
X56686000Y-99328042D01*
X56686000Y-100419959D01*
X56516019Y-100419811D01*
X56135475Y-100577048D01*
X56090116Y-100622328D01*
X55814666Y-100507951D01*
X55402918Y-100507592D01*
X55022374Y-100664829D01*
X54960292Y-100726802D01*
X54604777Y-100579180D01*
X54193029Y-100578821D01*
X53812485Y-100736058D01*
X53521081Y-101026954D01*
X53363180Y-101407223D01*
X53362992Y-101622679D01*
X53295853Y-101723160D01*
X53238001Y-102013999D01*
X53238001Y-102207197D01*
X51574599Y-103870599D01*
X51409852Y-104117161D01*
X51352000Y-104408000D01*
X51352000Y-118450720D01*
X50996000Y-118379907D01*
X50427715Y-118492946D01*
X49945946Y-118814853D01*
X49726000Y-119144026D01*
X49506054Y-118814853D01*
X49024285Y-118492946D01*
X48456000Y-118379907D01*
X47887715Y-118492946D01*
X47405946Y-118814853D01*
X47084039Y-119296622D01*
X46971000Y-119864907D01*
X46861000Y-119864907D01*
X46861000Y-110030000D01*
X46793633Y-109691325D01*
X46644227Y-109467722D01*
X46760863Y-109186831D01*
X46761136Y-108874539D01*
X46722125Y-108780124D01*
X46760863Y-108686831D01*
X46761136Y-108374539D01*
X46722125Y-108280124D01*
X46760863Y-108186831D01*
X46761136Y-107874539D01*
X46722125Y-107780124D01*
X46760863Y-107686831D01*
X46761136Y-107374539D01*
X46722125Y-107280124D01*
X46760863Y-107186831D01*
X46761136Y-106874539D01*
X46644401Y-106592018D01*
X46793633Y-106368675D01*
X46861000Y-106030000D01*
X46861000Y-94915000D01*
X54976000Y-94915000D01*
X55314675Y-94847633D01*
X55538278Y-94698227D01*
X55819169Y-94814863D01*
X55819169Y-94814863D01*
G37*
X55819169Y-94814863D02*
X56131461Y-94815136D01*
X56225876Y-94776125D01*
X56319169Y-94814863D01*
X56631461Y-94815136D01*
X56725876Y-94776125D01*
X56819169Y-94814863D01*
X57131461Y-94815136D01*
X57225876Y-94776125D01*
X57319169Y-94814863D01*
X57631461Y-94815136D01*
X57725876Y-94776125D01*
X57819169Y-94814863D01*
X58131461Y-94815136D01*
X58413982Y-94698401D01*
X58637325Y-94847633D01*
X58976000Y-94915000D01*
X68091000Y-94915000D01*
X68091000Y-106030000D01*
X68158367Y-106368675D01*
X68307773Y-106592278D01*
X68191137Y-106873169D01*
X68190864Y-107185461D01*
X68229875Y-107279876D01*
X68191137Y-107373169D01*
X68190864Y-107685461D01*
X68229875Y-107779876D01*
X68191137Y-107873169D01*
X68190864Y-108185461D01*
X68229875Y-108279876D01*
X68191137Y-108373169D01*
X68190864Y-108685461D01*
X68229875Y-108779876D01*
X68191137Y-108873169D01*
X68190864Y-109185461D01*
X68307599Y-109467982D01*
X68158367Y-109691325D01*
X68091000Y-110030000D01*
X68091000Y-122145000D01*
X58976000Y-122145000D01*
X58637325Y-122212367D01*
X58476240Y-122320000D01*
X58313122Y-122320000D01*
X58132831Y-122245137D01*
X57820539Y-122244864D01*
X57726124Y-122283875D01*
X57632831Y-122245137D01*
X57320539Y-122244864D01*
X57226124Y-122283875D01*
X57132831Y-122245137D01*
X56820539Y-122244864D01*
X56726124Y-122283875D01*
X56632831Y-122245137D01*
X56320539Y-122244864D01*
X56226124Y-122283875D01*
X56132831Y-122245137D01*
X55820539Y-122244864D01*
X55638695Y-122320000D01*
X55475760Y-122320000D01*
X55314675Y-122212367D01*
X54976000Y-122145000D01*
X46861000Y-122145000D01*
X46861000Y-119864907D01*
X46971000Y-119864907D01*
X46971000Y-119923093D01*
X47084039Y-120491378D01*
X47405946Y-120973147D01*
X47887715Y-121295054D01*
X48456000Y-121408093D01*
X49024285Y-121295054D01*
X49506054Y-120973147D01*
X49726000Y-120643974D01*
X49945946Y-120973147D01*
X50427715Y-121295054D01*
X50996000Y-121408093D01*
X51564285Y-121295054D01*
X52046054Y-120973147D01*
X52266000Y-120643974D01*
X52485946Y-120973147D01*
X52967715Y-121295054D01*
X53536000Y-121408093D01*
X54104285Y-121295054D01*
X54586054Y-120973147D01*
X54806000Y-120643974D01*
X55025946Y-120973147D01*
X55507715Y-121295054D01*
X56076000Y-121408093D01*
X56644285Y-121295054D01*
X57126054Y-120973147D01*
X57346000Y-120643974D01*
X57565946Y-120973147D01*
X58047715Y-121295054D01*
X58616000Y-121408093D01*
X59184285Y-121295054D01*
X59666054Y-120973147D01*
X59886000Y-120643974D01*
X60105946Y-120973147D01*
X60587715Y-121295054D01*
X61156000Y-121408093D01*
X61724285Y-121295054D01*
X62206054Y-120973147D01*
X62426000Y-120643974D01*
X62645946Y-120973147D01*
X63127715Y-121295054D01*
X63696000Y-121408093D01*
X64264285Y-121295054D01*
X64746054Y-120973147D01*
X64775403Y-120929223D01*
X64847673Y-121103698D01*
X65026301Y-121282327D01*
X65259690Y-121379000D01*
X65950250Y-121379000D01*
X66109000Y-121220250D01*
X66109000Y-120021000D01*
X66363000Y-120021000D01*
X66363000Y-121220250D01*
X66521750Y-121379000D01*
X67212310Y-121379000D01*
X67445699Y-121282327D01*
X67624327Y-121103698D01*
X67721000Y-120870309D01*
X67721000Y-120179750D01*
X67562250Y-120021000D01*
X66363000Y-120021000D01*
X66109000Y-120021000D01*
X66089000Y-120021000D01*
X66089000Y-119767000D01*
X66109000Y-119767000D01*
X66109000Y-118567750D01*
X66363000Y-118567750D01*
X66363000Y-119767000D01*
X67562250Y-119767000D01*
X67721000Y-119608250D01*
X67721000Y-118917691D01*
X67624327Y-118684302D01*
X67445699Y-118505673D01*
X67212310Y-118409000D01*
X66521750Y-118409000D01*
X66363000Y-118567750D01*
X66109000Y-118567750D01*
X65950250Y-118409000D01*
X65259690Y-118409000D01*
X65026301Y-118505673D01*
X64847673Y-118684302D01*
X64775403Y-118858777D01*
X64746054Y-118814853D01*
X64264285Y-118492946D01*
X64048000Y-118449924D01*
X64048000Y-103275248D01*
X63990148Y-102984409D01*
X63990148Y-102984408D01*
X63825401Y-102737847D01*
X58527736Y-97440182D01*
X58527880Y-97274978D01*
X58370643Y-96894434D01*
X58079747Y-96603030D01*
X57699478Y-96445129D01*
X57287730Y-96444770D01*
X56907186Y-96602007D01*
X56615782Y-96892903D01*
X56457881Y-97273172D01*
X56457779Y-97390552D01*
X56352485Y-97434058D01*
X56061081Y-97724954D01*
X55903180Y-98105223D01*
X55902821Y-98516971D01*
X56060058Y-98897515D01*
X56350954Y-99188919D01*
X56686000Y-99328042D01*
X56686000Y-100419959D01*
X56516019Y-100419811D01*
X56135475Y-100577048D01*
X56090116Y-100622328D01*
X55814666Y-100507951D01*
X55402918Y-100507592D01*
X55022374Y-100664829D01*
X54960292Y-100726802D01*
X54604777Y-100579180D01*
X54193029Y-100578821D01*
X53812485Y-100736058D01*
X53521081Y-101026954D01*
X53363180Y-101407223D01*
X53362992Y-101622679D01*
X53295853Y-101723160D01*
X53238001Y-102013999D01*
X53238001Y-102207197D01*
X51574599Y-103870599D01*
X51409852Y-104117161D01*
X51352000Y-104408000D01*
X51352000Y-118450720D01*
X50996000Y-118379907D01*
X50427715Y-118492946D01*
X49945946Y-118814853D01*
X49726000Y-119144026D01*
X49506054Y-118814853D01*
X49024285Y-118492946D01*
X48456000Y-118379907D01*
X47887715Y-118492946D01*
X47405946Y-118814853D01*
X47084039Y-119296622D01*
X46971000Y-119864907D01*
X46861000Y-119864907D01*
X46861000Y-110030000D01*
X46793633Y-109691325D01*
X46644227Y-109467722D01*
X46760863Y-109186831D01*
X46761136Y-108874539D01*
X46722125Y-108780124D01*
X46760863Y-108686831D01*
X46761136Y-108374539D01*
X46722125Y-108280124D01*
X46760863Y-108186831D01*
X46761136Y-107874539D01*
X46722125Y-107780124D01*
X46760863Y-107686831D01*
X46761136Y-107374539D01*
X46722125Y-107280124D01*
X46760863Y-107186831D01*
X46761136Y-106874539D01*
X46644401Y-106592018D01*
X46793633Y-106368675D01*
X46861000Y-106030000D01*
X46861000Y-94915000D01*
X54976000Y-94915000D01*
X55314675Y-94847633D01*
X55538278Y-94698227D01*
X55819169Y-94814863D01*
G36*
X62528000Y-103590050D02*
X62528000Y-118991372D01*
X62426000Y-119144026D01*
X62206054Y-118814853D01*
X61916000Y-118621046D01*
X61916000Y-104054000D01*
X61858148Y-103763161D01*
X61693401Y-103516599D01*
X59306572Y-101129770D01*
X59306716Y-100964566D01*
X59149479Y-100584022D01*
X58858583Y-100292618D01*
X58478314Y-100134717D01*
X58206000Y-100134480D01*
X58206000Y-99268050D01*
X62528000Y-103590050D01*
X62528000Y-103590050D01*
G37*
X62528000Y-103590050D02*
X62528000Y-118991372D01*
X62426000Y-119144026D01*
X62206054Y-118814853D01*
X61916000Y-118621046D01*
X61916000Y-104054000D01*
X61858148Y-103763161D01*
X61693401Y-103516599D01*
X59306572Y-101129770D01*
X59306716Y-100964566D01*
X59149479Y-100584022D01*
X58858583Y-100292618D01*
X58478314Y-100134717D01*
X58206000Y-100134480D01*
X58206000Y-99268050D01*
X62528000Y-103590050D01*
G36*
X58231701Y-102204503D02*
X60396000Y-104368802D01*
X60396000Y-118621046D01*
X60105946Y-118814853D01*
X59886000Y-119144026D01*
X59666054Y-118814853D01*
X59184285Y-118492946D01*
X58616000Y-118379907D01*
X58249592Y-118452790D01*
X58206000Y-118409198D01*
X58206000Y-102204480D01*
X58231701Y-102204503D01*
X58231701Y-102204503D01*
G37*
X58231701Y-102204503D02*
X60396000Y-104368802D01*
X60396000Y-118621046D01*
X60105946Y-118814853D01*
X59886000Y-119144026D01*
X59666054Y-118814853D01*
X59184285Y-118492946D01*
X58616000Y-118379907D01*
X58249592Y-118452790D01*
X58206000Y-118409198D01*
X58206000Y-102204480D01*
X58231701Y-102204503D01*
G36*
X54146000Y-118209198D02*
X53902408Y-118452790D01*
X53536000Y-118379907D01*
X52967715Y-118492946D01*
X52872000Y-118556901D01*
X52872000Y-104722802D01*
X54146000Y-103448802D01*
X54146000Y-118209198D01*
X54146000Y-118209198D01*
G37*
X54146000Y-118209198D02*
X53902408Y-118452790D01*
X53536000Y-118379907D01*
X52967715Y-118492946D01*
X52872000Y-118556901D01*
X52872000Y-104722802D01*
X54146000Y-103448802D01*
X54146000Y-118209198D01*
G36*
X56686000Y-118520819D02*
X56644285Y-118492946D01*
X56428000Y-118449924D01*
X56428000Y-102822782D01*
X56686000Y-102564782D01*
X56686000Y-118520819D01*
X56686000Y-118520819D01*
G37*
X56686000Y-118520819D02*
X56644285Y-118492946D01*
X56428000Y-118449924D01*
X56428000Y-102822782D01*
X56686000Y-102564782D01*
X56686000Y-118520819D01*
G36*
X78819169Y-123814863D02*
X79131461Y-123815136D01*
X79225876Y-123776125D01*
X79319169Y-123814863D01*
X79631461Y-123815136D01*
X79725876Y-123776125D01*
X79819169Y-123814863D01*
X80131461Y-123815136D01*
X80225876Y-123776125D01*
X80319169Y-123814863D01*
X80631461Y-123815136D01*
X80725876Y-123776125D01*
X80819169Y-123814863D01*
X81131461Y-123815136D01*
X81413982Y-123698401D01*
X81637325Y-123847633D01*
X81976000Y-123915000D01*
X91091000Y-123915000D01*
X91091000Y-135030000D01*
X91158367Y-135368675D01*
X91307773Y-135592278D01*
X91191137Y-135873169D01*
X91190864Y-136185461D01*
X91229875Y-136279876D01*
X91191137Y-136373169D01*
X91190864Y-136685461D01*
X91229875Y-136779876D01*
X91191137Y-136873169D01*
X91190864Y-137185461D01*
X91229875Y-137279876D01*
X91191137Y-137373169D01*
X91190864Y-137685461D01*
X91229875Y-137779876D01*
X91191137Y-137873169D01*
X91190864Y-138185461D01*
X91307599Y-138467982D01*
X91158367Y-138691325D01*
X91091000Y-139030000D01*
X91091000Y-151145000D01*
X81976000Y-151145000D01*
X81637325Y-151212367D01*
X81476240Y-151320000D01*
X81313122Y-151320000D01*
X81132831Y-151245137D01*
X80820539Y-151244864D01*
X80726124Y-151283875D01*
X80632831Y-151245137D01*
X80320539Y-151244864D01*
X80226124Y-151283875D01*
X80132831Y-151245137D01*
X79820539Y-151244864D01*
X79726124Y-151283875D01*
X79632831Y-151245137D01*
X79320539Y-151244864D01*
X79226124Y-151283875D01*
X79132831Y-151245137D01*
X78820539Y-151244864D01*
X78638695Y-151320000D01*
X78475760Y-151320000D01*
X78314675Y-151212367D01*
X77976000Y-151145000D01*
X69861000Y-151145000D01*
X69861000Y-148864907D01*
X69971000Y-148864907D01*
X69971000Y-148923093D01*
X70084039Y-149491378D01*
X70405946Y-149973147D01*
X70887715Y-150295054D01*
X71456000Y-150408093D01*
X72024285Y-150295054D01*
X72506054Y-149973147D01*
X72726000Y-149643974D01*
X72945946Y-149973147D01*
X73427715Y-150295054D01*
X73996000Y-150408093D01*
X74564285Y-150295054D01*
X75046054Y-149973147D01*
X75266000Y-149643974D01*
X75485946Y-149973147D01*
X75967715Y-150295054D01*
X76536000Y-150408093D01*
X77104285Y-150295054D01*
X77586054Y-149973147D01*
X77806000Y-149643974D01*
X78025946Y-149973147D01*
X78507715Y-150295054D01*
X79076000Y-150408093D01*
X79644285Y-150295054D01*
X80126054Y-149973147D01*
X80346000Y-149643974D01*
X80565946Y-149973147D01*
X81047715Y-150295054D01*
X81616000Y-150408093D01*
X82184285Y-150295054D01*
X82666054Y-149973147D01*
X82886000Y-149643974D01*
X83105946Y-149973147D01*
X83587715Y-150295054D01*
X84156000Y-150408093D01*
X84724285Y-150295054D01*
X85206054Y-149973147D01*
X85426000Y-149643974D01*
X85645946Y-149973147D01*
X86127715Y-150295054D01*
X86696000Y-150408093D01*
X87264285Y-150295054D01*
X87746054Y-149973147D01*
X87775403Y-149929223D01*
X87847673Y-150103698D01*
X88026301Y-150282327D01*
X88259690Y-150379000D01*
X88950250Y-150379000D01*
X89109000Y-150220250D01*
X89109000Y-149021000D01*
X89363000Y-149021000D01*
X89363000Y-150220250D01*
X89521750Y-150379000D01*
X90212310Y-150379000D01*
X90445699Y-150282327D01*
X90624327Y-150103698D01*
X90721000Y-149870309D01*
X90721000Y-149179750D01*
X90562250Y-149021000D01*
X89363000Y-149021000D01*
X89109000Y-149021000D01*
X89089000Y-149021000D01*
X89089000Y-148767000D01*
X89109000Y-148767000D01*
X89109000Y-147567750D01*
X89363000Y-147567750D01*
X89363000Y-148767000D01*
X90562250Y-148767000D01*
X90721000Y-148608250D01*
X90721000Y-147917691D01*
X90624327Y-147684302D01*
X90445699Y-147505673D01*
X90212310Y-147409000D01*
X89521750Y-147409000D01*
X89363000Y-147567750D01*
X89109000Y-147567750D01*
X88950250Y-147409000D01*
X88259690Y-147409000D01*
X88026301Y-147505673D01*
X87847673Y-147684302D01*
X87775403Y-147858777D01*
X87746054Y-147814853D01*
X87264285Y-147492946D01*
X87048000Y-147449924D01*
X87048000Y-132275248D01*
X86990148Y-131984409D01*
X86990148Y-131984408D01*
X86825401Y-131737847D01*
X81527736Y-126440182D01*
X81527880Y-126274978D01*
X81370643Y-125894434D01*
X81079747Y-125603030D01*
X80699478Y-125445129D01*
X80287730Y-125444770D01*
X79907186Y-125602007D01*
X79615782Y-125892903D01*
X79457881Y-126273172D01*
X79457779Y-126390552D01*
X79352485Y-126434058D01*
X79061081Y-126724954D01*
X78903180Y-127105223D01*
X78902821Y-127516971D01*
X79060058Y-127897515D01*
X79350954Y-128188919D01*
X79686000Y-128328042D01*
X79686000Y-129419959D01*
X79516019Y-129419811D01*
X79135475Y-129577048D01*
X79090116Y-129622328D01*
X78814666Y-129507951D01*
X78402918Y-129507592D01*
X78022374Y-129664829D01*
X77960292Y-129726802D01*
X77604777Y-129579180D01*
X77193029Y-129578821D01*
X76812485Y-129736058D01*
X76521081Y-130026954D01*
X76363180Y-130407223D01*
X76362992Y-130622679D01*
X76295853Y-130723160D01*
X76238001Y-131013999D01*
X76238001Y-131207197D01*
X74574599Y-132870599D01*
X74409852Y-133117161D01*
X74352000Y-133408000D01*
X74352000Y-147450720D01*
X73996000Y-147379907D01*
X73427715Y-147492946D01*
X72945946Y-147814853D01*
X72726000Y-148144026D01*
X72506054Y-147814853D01*
X72024285Y-147492946D01*
X71456000Y-147379907D01*
X70887715Y-147492946D01*
X70405946Y-147814853D01*
X70084039Y-148296622D01*
X69971000Y-148864907D01*
X69861000Y-148864907D01*
X69861000Y-139030000D01*
X69793633Y-138691325D01*
X69644227Y-138467722D01*
X69760863Y-138186831D01*
X69761136Y-137874539D01*
X69722125Y-137780124D01*
X69760863Y-137686831D01*
X69761136Y-137374539D01*
X69722125Y-137280124D01*
X69760863Y-137186831D01*
X69761136Y-136874539D01*
X69722125Y-136780124D01*
X69760863Y-136686831D01*
X69761136Y-136374539D01*
X69722125Y-136280124D01*
X69760863Y-136186831D01*
X69761136Y-135874539D01*
X69644401Y-135592018D01*
X69793633Y-135368675D01*
X69861000Y-135030000D01*
X69861000Y-123915000D01*
X77976000Y-123915000D01*
X78314675Y-123847633D01*
X78538278Y-123698227D01*
X78819169Y-123814863D01*
X78819169Y-123814863D01*
G37*
X78819169Y-123814863D02*
X79131461Y-123815136D01*
X79225876Y-123776125D01*
X79319169Y-123814863D01*
X79631461Y-123815136D01*
X79725876Y-123776125D01*
X79819169Y-123814863D01*
X80131461Y-123815136D01*
X80225876Y-123776125D01*
X80319169Y-123814863D01*
X80631461Y-123815136D01*
X80725876Y-123776125D01*
X80819169Y-123814863D01*
X81131461Y-123815136D01*
X81413982Y-123698401D01*
X81637325Y-123847633D01*
X81976000Y-123915000D01*
X91091000Y-123915000D01*
X91091000Y-135030000D01*
X91158367Y-135368675D01*
X91307773Y-135592278D01*
X91191137Y-135873169D01*
X91190864Y-136185461D01*
X91229875Y-136279876D01*
X91191137Y-136373169D01*
X91190864Y-136685461D01*
X91229875Y-136779876D01*
X91191137Y-136873169D01*
X91190864Y-137185461D01*
X91229875Y-137279876D01*
X91191137Y-137373169D01*
X91190864Y-137685461D01*
X91229875Y-137779876D01*
X91191137Y-137873169D01*
X91190864Y-138185461D01*
X91307599Y-138467982D01*
X91158367Y-138691325D01*
X91091000Y-139030000D01*
X91091000Y-151145000D01*
X81976000Y-151145000D01*
X81637325Y-151212367D01*
X81476240Y-151320000D01*
X81313122Y-151320000D01*
X81132831Y-151245137D01*
X80820539Y-151244864D01*
X80726124Y-151283875D01*
X80632831Y-151245137D01*
X80320539Y-151244864D01*
X80226124Y-151283875D01*
X80132831Y-151245137D01*
X79820539Y-151244864D01*
X79726124Y-151283875D01*
X79632831Y-151245137D01*
X79320539Y-151244864D01*
X79226124Y-151283875D01*
X79132831Y-151245137D01*
X78820539Y-151244864D01*
X78638695Y-151320000D01*
X78475760Y-151320000D01*
X78314675Y-151212367D01*
X77976000Y-151145000D01*
X69861000Y-151145000D01*
X69861000Y-148864907D01*
X69971000Y-148864907D01*
X69971000Y-148923093D01*
X70084039Y-149491378D01*
X70405946Y-149973147D01*
X70887715Y-150295054D01*
X71456000Y-150408093D01*
X72024285Y-150295054D01*
X72506054Y-149973147D01*
X72726000Y-149643974D01*
X72945946Y-149973147D01*
X73427715Y-150295054D01*
X73996000Y-150408093D01*
X74564285Y-150295054D01*
X75046054Y-149973147D01*
X75266000Y-149643974D01*
X75485946Y-149973147D01*
X75967715Y-150295054D01*
X76536000Y-150408093D01*
X77104285Y-150295054D01*
X77586054Y-149973147D01*
X77806000Y-149643974D01*
X78025946Y-149973147D01*
X78507715Y-150295054D01*
X79076000Y-150408093D01*
X79644285Y-150295054D01*
X80126054Y-149973147D01*
X80346000Y-149643974D01*
X80565946Y-149973147D01*
X81047715Y-150295054D01*
X81616000Y-150408093D01*
X82184285Y-150295054D01*
X82666054Y-149973147D01*
X82886000Y-149643974D01*
X83105946Y-149973147D01*
X83587715Y-150295054D01*
X84156000Y-150408093D01*
X84724285Y-150295054D01*
X85206054Y-149973147D01*
X85426000Y-149643974D01*
X85645946Y-149973147D01*
X86127715Y-150295054D01*
X86696000Y-150408093D01*
X87264285Y-150295054D01*
X87746054Y-149973147D01*
X87775403Y-149929223D01*
X87847673Y-150103698D01*
X88026301Y-150282327D01*
X88259690Y-150379000D01*
X88950250Y-150379000D01*
X89109000Y-150220250D01*
X89109000Y-149021000D01*
X89363000Y-149021000D01*
X89363000Y-150220250D01*
X89521750Y-150379000D01*
X90212310Y-150379000D01*
X90445699Y-150282327D01*
X90624327Y-150103698D01*
X90721000Y-149870309D01*
X90721000Y-149179750D01*
X90562250Y-149021000D01*
X89363000Y-149021000D01*
X89109000Y-149021000D01*
X89089000Y-149021000D01*
X89089000Y-148767000D01*
X89109000Y-148767000D01*
X89109000Y-147567750D01*
X89363000Y-147567750D01*
X89363000Y-148767000D01*
X90562250Y-148767000D01*
X90721000Y-148608250D01*
X90721000Y-147917691D01*
X90624327Y-147684302D01*
X90445699Y-147505673D01*
X90212310Y-147409000D01*
X89521750Y-147409000D01*
X89363000Y-147567750D01*
X89109000Y-147567750D01*
X88950250Y-147409000D01*
X88259690Y-147409000D01*
X88026301Y-147505673D01*
X87847673Y-147684302D01*
X87775403Y-147858777D01*
X87746054Y-147814853D01*
X87264285Y-147492946D01*
X87048000Y-147449924D01*
X87048000Y-132275248D01*
X86990148Y-131984409D01*
X86990148Y-131984408D01*
X86825401Y-131737847D01*
X81527736Y-126440182D01*
X81527880Y-126274978D01*
X81370643Y-125894434D01*
X81079747Y-125603030D01*
X80699478Y-125445129D01*
X80287730Y-125444770D01*
X79907186Y-125602007D01*
X79615782Y-125892903D01*
X79457881Y-126273172D01*
X79457779Y-126390552D01*
X79352485Y-126434058D01*
X79061081Y-126724954D01*
X78903180Y-127105223D01*
X78902821Y-127516971D01*
X79060058Y-127897515D01*
X79350954Y-128188919D01*
X79686000Y-128328042D01*
X79686000Y-129419959D01*
X79516019Y-129419811D01*
X79135475Y-129577048D01*
X79090116Y-129622328D01*
X78814666Y-129507951D01*
X78402918Y-129507592D01*
X78022374Y-129664829D01*
X77960292Y-129726802D01*
X77604777Y-129579180D01*
X77193029Y-129578821D01*
X76812485Y-129736058D01*
X76521081Y-130026954D01*
X76363180Y-130407223D01*
X76362992Y-130622679D01*
X76295853Y-130723160D01*
X76238001Y-131013999D01*
X76238001Y-131207197D01*
X74574599Y-132870599D01*
X74409852Y-133117161D01*
X74352000Y-133408000D01*
X74352000Y-147450720D01*
X73996000Y-147379907D01*
X73427715Y-147492946D01*
X72945946Y-147814853D01*
X72726000Y-148144026D01*
X72506054Y-147814853D01*
X72024285Y-147492946D01*
X71456000Y-147379907D01*
X70887715Y-147492946D01*
X70405946Y-147814853D01*
X70084039Y-148296622D01*
X69971000Y-148864907D01*
X69861000Y-148864907D01*
X69861000Y-139030000D01*
X69793633Y-138691325D01*
X69644227Y-138467722D01*
X69760863Y-138186831D01*
X69761136Y-137874539D01*
X69722125Y-137780124D01*
X69760863Y-137686831D01*
X69761136Y-137374539D01*
X69722125Y-137280124D01*
X69760863Y-137186831D01*
X69761136Y-136874539D01*
X69722125Y-136780124D01*
X69760863Y-136686831D01*
X69761136Y-136374539D01*
X69722125Y-136280124D01*
X69760863Y-136186831D01*
X69761136Y-135874539D01*
X69644401Y-135592018D01*
X69793633Y-135368675D01*
X69861000Y-135030000D01*
X69861000Y-123915000D01*
X77976000Y-123915000D01*
X78314675Y-123847633D01*
X78538278Y-123698227D01*
X78819169Y-123814863D01*
G36*
X85528000Y-132590050D02*
X85528000Y-147991372D01*
X85426000Y-148144026D01*
X85206054Y-147814853D01*
X84916000Y-147621046D01*
X84916000Y-133054000D01*
X84858148Y-132763161D01*
X84693401Y-132516599D01*
X82306572Y-130129770D01*
X82306716Y-129964566D01*
X82149479Y-129584022D01*
X81858583Y-129292618D01*
X81478314Y-129134717D01*
X81206000Y-129134480D01*
X81206000Y-128268050D01*
X85528000Y-132590050D01*
X85528000Y-132590050D01*
G37*
X85528000Y-132590050D02*
X85528000Y-147991372D01*
X85426000Y-148144026D01*
X85206054Y-147814853D01*
X84916000Y-147621046D01*
X84916000Y-133054000D01*
X84858148Y-132763161D01*
X84693401Y-132516599D01*
X82306572Y-130129770D01*
X82306716Y-129964566D01*
X82149479Y-129584022D01*
X81858583Y-129292618D01*
X81478314Y-129134717D01*
X81206000Y-129134480D01*
X81206000Y-128268050D01*
X85528000Y-132590050D01*
G36*
X81231701Y-131204503D02*
X83396000Y-133368802D01*
X83396000Y-147621046D01*
X83105946Y-147814853D01*
X82886000Y-148144026D01*
X82666054Y-147814853D01*
X82184285Y-147492946D01*
X81616000Y-147379907D01*
X81249592Y-147452790D01*
X81206000Y-147409198D01*
X81206000Y-131204480D01*
X81231701Y-131204503D01*
X81231701Y-131204503D01*
G37*
X81231701Y-131204503D02*
X83396000Y-133368802D01*
X83396000Y-147621046D01*
X83105946Y-147814853D01*
X82886000Y-148144026D01*
X82666054Y-147814853D01*
X82184285Y-147492946D01*
X81616000Y-147379907D01*
X81249592Y-147452790D01*
X81206000Y-147409198D01*
X81206000Y-131204480D01*
X81231701Y-131204503D01*
G36*
X77146000Y-147209198D02*
X76902408Y-147452790D01*
X76536000Y-147379907D01*
X75967715Y-147492946D01*
X75872000Y-147556901D01*
X75872000Y-133722802D01*
X77146000Y-132448802D01*
X77146000Y-147209198D01*
X77146000Y-147209198D01*
G37*
X77146000Y-147209198D02*
X76902408Y-147452790D01*
X76536000Y-147379907D01*
X75967715Y-147492946D01*
X75872000Y-147556901D01*
X75872000Y-133722802D01*
X77146000Y-132448802D01*
X77146000Y-147209198D01*
G36*
X79686000Y-147520819D02*
X79644285Y-147492946D01*
X79428000Y-147449924D01*
X79428000Y-131822782D01*
X79686000Y-131564782D01*
X79686000Y-147520819D01*
X79686000Y-147520819D01*
G37*
X79686000Y-147520819D02*
X79644285Y-147492946D01*
X79428000Y-147449924D01*
X79428000Y-131822782D01*
X79686000Y-131564782D01*
X79686000Y-147520819D01*
G36*
X101819169Y-123814863D02*
X102131461Y-123815136D01*
X102225876Y-123776125D01*
X102319169Y-123814863D01*
X102631461Y-123815136D01*
X102725876Y-123776125D01*
X102819169Y-123814863D01*
X103131461Y-123815136D01*
X103225876Y-123776125D01*
X103319169Y-123814863D01*
X103631461Y-123815136D01*
X103725876Y-123776125D01*
X103819169Y-123814863D01*
X104131461Y-123815136D01*
X104413982Y-123698401D01*
X104637325Y-123847633D01*
X104976000Y-123915000D01*
X114091000Y-123915000D01*
X114091000Y-135030000D01*
X114158367Y-135368675D01*
X114307773Y-135592278D01*
X114191137Y-135873169D01*
X114190864Y-136185461D01*
X114229875Y-136279876D01*
X114191137Y-136373169D01*
X114190864Y-136685461D01*
X114229875Y-136779876D01*
X114191137Y-136873169D01*
X114190864Y-137185461D01*
X114229875Y-137279876D01*
X114191137Y-137373169D01*
X114190864Y-137685461D01*
X114229875Y-137779876D01*
X114191137Y-137873169D01*
X114190864Y-138185461D01*
X114307599Y-138467982D01*
X114158367Y-138691325D01*
X114091000Y-139030000D01*
X114091000Y-151145000D01*
X104976000Y-151145000D01*
X104637325Y-151212367D01*
X104476240Y-151320000D01*
X104313122Y-151320000D01*
X104132831Y-151245137D01*
X103820539Y-151244864D01*
X103726124Y-151283875D01*
X103632831Y-151245137D01*
X103320539Y-151244864D01*
X103226124Y-151283875D01*
X103132831Y-151245137D01*
X102820539Y-151244864D01*
X102726124Y-151283875D01*
X102632831Y-151245137D01*
X102320539Y-151244864D01*
X102226124Y-151283875D01*
X102132831Y-151245137D01*
X101820539Y-151244864D01*
X101638695Y-151320000D01*
X101475760Y-151320000D01*
X101314675Y-151212367D01*
X100976000Y-151145000D01*
X92861000Y-151145000D01*
X92861000Y-148864907D01*
X92971000Y-148864907D01*
X92971000Y-148923093D01*
X93084039Y-149491378D01*
X93405946Y-149973147D01*
X93887715Y-150295054D01*
X94456000Y-150408093D01*
X95024285Y-150295054D01*
X95506054Y-149973147D01*
X95726000Y-149643974D01*
X95945946Y-149973147D01*
X96427715Y-150295054D01*
X96996000Y-150408093D01*
X97564285Y-150295054D01*
X98046054Y-149973147D01*
X98266000Y-149643974D01*
X98485946Y-149973147D01*
X98967715Y-150295054D01*
X99536000Y-150408093D01*
X100104285Y-150295054D01*
X100586054Y-149973147D01*
X100806000Y-149643974D01*
X101025946Y-149973147D01*
X101507715Y-150295054D01*
X102076000Y-150408093D01*
X102644285Y-150295054D01*
X103126054Y-149973147D01*
X103346000Y-149643974D01*
X103565946Y-149973147D01*
X104047715Y-150295054D01*
X104616000Y-150408093D01*
X105184285Y-150295054D01*
X105666054Y-149973147D01*
X105886000Y-149643974D01*
X106105946Y-149973147D01*
X106587715Y-150295054D01*
X107156000Y-150408093D01*
X107724285Y-150295054D01*
X108206054Y-149973147D01*
X108426000Y-149643974D01*
X108645946Y-149973147D01*
X109127715Y-150295054D01*
X109696000Y-150408093D01*
X110264285Y-150295054D01*
X110746054Y-149973147D01*
X110775403Y-149929223D01*
X110847673Y-150103698D01*
X111026301Y-150282327D01*
X111259690Y-150379000D01*
X111950250Y-150379000D01*
X112109000Y-150220250D01*
X112109000Y-149021000D01*
X112363000Y-149021000D01*
X112363000Y-150220250D01*
X112521750Y-150379000D01*
X113212310Y-150379000D01*
X113445699Y-150282327D01*
X113624327Y-150103698D01*
X113721000Y-149870309D01*
X113721000Y-149179750D01*
X113562250Y-149021000D01*
X112363000Y-149021000D01*
X112109000Y-149021000D01*
X112089000Y-149021000D01*
X112089000Y-148767000D01*
X112109000Y-148767000D01*
X112109000Y-147567750D01*
X112363000Y-147567750D01*
X112363000Y-148767000D01*
X113562250Y-148767000D01*
X113721000Y-148608250D01*
X113721000Y-147917691D01*
X113624327Y-147684302D01*
X113445699Y-147505673D01*
X113212310Y-147409000D01*
X112521750Y-147409000D01*
X112363000Y-147567750D01*
X112109000Y-147567750D01*
X111950250Y-147409000D01*
X111259690Y-147409000D01*
X111026301Y-147505673D01*
X110847673Y-147684302D01*
X110775403Y-147858777D01*
X110746054Y-147814853D01*
X110264285Y-147492946D01*
X110048000Y-147449924D01*
X110048000Y-132275248D01*
X109990148Y-131984409D01*
X109990148Y-131984408D01*
X109825401Y-131737847D01*
X104527736Y-126440182D01*
X104527880Y-126274978D01*
X104370643Y-125894434D01*
X104079747Y-125603030D01*
X103699478Y-125445129D01*
X103287730Y-125444770D01*
X102907186Y-125602007D01*
X102615782Y-125892903D01*
X102457881Y-126273172D01*
X102457779Y-126390552D01*
X102352485Y-126434058D01*
X102061081Y-126724954D01*
X101903180Y-127105223D01*
X101902821Y-127516971D01*
X102060058Y-127897515D01*
X102350954Y-128188919D01*
X102686000Y-128328042D01*
X102686000Y-129419959D01*
X102516019Y-129419811D01*
X102135475Y-129577048D01*
X102090116Y-129622328D01*
X101814666Y-129507951D01*
X101402918Y-129507592D01*
X101022374Y-129664829D01*
X100960292Y-129726802D01*
X100604777Y-129579180D01*
X100193029Y-129578821D01*
X99812485Y-129736058D01*
X99521081Y-130026954D01*
X99363180Y-130407223D01*
X99362992Y-130622679D01*
X99295853Y-130723160D01*
X99238001Y-131013999D01*
X99238001Y-131207197D01*
X97574599Y-132870599D01*
X97409852Y-133117161D01*
X97352000Y-133408000D01*
X97352000Y-147450720D01*
X96996000Y-147379907D01*
X96427715Y-147492946D01*
X95945946Y-147814853D01*
X95726000Y-148144026D01*
X95506054Y-147814853D01*
X95024285Y-147492946D01*
X94456000Y-147379907D01*
X93887715Y-147492946D01*
X93405946Y-147814853D01*
X93084039Y-148296622D01*
X92971000Y-148864907D01*
X92861000Y-148864907D01*
X92861000Y-139030000D01*
X92793633Y-138691325D01*
X92644227Y-138467722D01*
X92760863Y-138186831D01*
X92761136Y-137874539D01*
X92722125Y-137780124D01*
X92760863Y-137686831D01*
X92761136Y-137374539D01*
X92722125Y-137280124D01*
X92760863Y-137186831D01*
X92761136Y-136874539D01*
X92722125Y-136780124D01*
X92760863Y-136686831D01*
X92761136Y-136374539D01*
X92722125Y-136280124D01*
X92760863Y-136186831D01*
X92761136Y-135874539D01*
X92644401Y-135592018D01*
X92793633Y-135368675D01*
X92861000Y-135030000D01*
X92861000Y-123915000D01*
X100976000Y-123915000D01*
X101314675Y-123847633D01*
X101538278Y-123698227D01*
X101819169Y-123814863D01*
X101819169Y-123814863D01*
G37*
X101819169Y-123814863D02*
X102131461Y-123815136D01*
X102225876Y-123776125D01*
X102319169Y-123814863D01*
X102631461Y-123815136D01*
X102725876Y-123776125D01*
X102819169Y-123814863D01*
X103131461Y-123815136D01*
X103225876Y-123776125D01*
X103319169Y-123814863D01*
X103631461Y-123815136D01*
X103725876Y-123776125D01*
X103819169Y-123814863D01*
X104131461Y-123815136D01*
X104413982Y-123698401D01*
X104637325Y-123847633D01*
X104976000Y-123915000D01*
X114091000Y-123915000D01*
X114091000Y-135030000D01*
X114158367Y-135368675D01*
X114307773Y-135592278D01*
X114191137Y-135873169D01*
X114190864Y-136185461D01*
X114229875Y-136279876D01*
X114191137Y-136373169D01*
X114190864Y-136685461D01*
X114229875Y-136779876D01*
X114191137Y-136873169D01*
X114190864Y-137185461D01*
X114229875Y-137279876D01*
X114191137Y-137373169D01*
X114190864Y-137685461D01*
X114229875Y-137779876D01*
X114191137Y-137873169D01*
X114190864Y-138185461D01*
X114307599Y-138467982D01*
X114158367Y-138691325D01*
X114091000Y-139030000D01*
X114091000Y-151145000D01*
X104976000Y-151145000D01*
X104637325Y-151212367D01*
X104476240Y-151320000D01*
X104313122Y-151320000D01*
X104132831Y-151245137D01*
X103820539Y-151244864D01*
X103726124Y-151283875D01*
X103632831Y-151245137D01*
X103320539Y-151244864D01*
X103226124Y-151283875D01*
X103132831Y-151245137D01*
X102820539Y-151244864D01*
X102726124Y-151283875D01*
X102632831Y-151245137D01*
X102320539Y-151244864D01*
X102226124Y-151283875D01*
X102132831Y-151245137D01*
X101820539Y-151244864D01*
X101638695Y-151320000D01*
X101475760Y-151320000D01*
X101314675Y-151212367D01*
X100976000Y-151145000D01*
X92861000Y-151145000D01*
X92861000Y-148864907D01*
X92971000Y-148864907D01*
X92971000Y-148923093D01*
X93084039Y-149491378D01*
X93405946Y-149973147D01*
X93887715Y-150295054D01*
X94456000Y-150408093D01*
X95024285Y-150295054D01*
X95506054Y-149973147D01*
X95726000Y-149643974D01*
X95945946Y-149973147D01*
X96427715Y-150295054D01*
X96996000Y-150408093D01*
X97564285Y-150295054D01*
X98046054Y-149973147D01*
X98266000Y-149643974D01*
X98485946Y-149973147D01*
X98967715Y-150295054D01*
X99536000Y-150408093D01*
X100104285Y-150295054D01*
X100586054Y-149973147D01*
X100806000Y-149643974D01*
X101025946Y-149973147D01*
X101507715Y-150295054D01*
X102076000Y-150408093D01*
X102644285Y-150295054D01*
X103126054Y-149973147D01*
X103346000Y-149643974D01*
X103565946Y-149973147D01*
X104047715Y-150295054D01*
X104616000Y-150408093D01*
X105184285Y-150295054D01*
X105666054Y-149973147D01*
X105886000Y-149643974D01*
X106105946Y-149973147D01*
X106587715Y-150295054D01*
X107156000Y-150408093D01*
X107724285Y-150295054D01*
X108206054Y-149973147D01*
X108426000Y-149643974D01*
X108645946Y-149973147D01*
X109127715Y-150295054D01*
X109696000Y-150408093D01*
X110264285Y-150295054D01*
X110746054Y-149973147D01*
X110775403Y-149929223D01*
X110847673Y-150103698D01*
X111026301Y-150282327D01*
X111259690Y-150379000D01*
X111950250Y-150379000D01*
X112109000Y-150220250D01*
X112109000Y-149021000D01*
X112363000Y-149021000D01*
X112363000Y-150220250D01*
X112521750Y-150379000D01*
X113212310Y-150379000D01*
X113445699Y-150282327D01*
X113624327Y-150103698D01*
X113721000Y-149870309D01*
X113721000Y-149179750D01*
X113562250Y-149021000D01*
X112363000Y-149021000D01*
X112109000Y-149021000D01*
X112089000Y-149021000D01*
X112089000Y-148767000D01*
X112109000Y-148767000D01*
X112109000Y-147567750D01*
X112363000Y-147567750D01*
X112363000Y-148767000D01*
X113562250Y-148767000D01*
X113721000Y-148608250D01*
X113721000Y-147917691D01*
X113624327Y-147684302D01*
X113445699Y-147505673D01*
X113212310Y-147409000D01*
X112521750Y-147409000D01*
X112363000Y-147567750D01*
X112109000Y-147567750D01*
X111950250Y-147409000D01*
X111259690Y-147409000D01*
X111026301Y-147505673D01*
X110847673Y-147684302D01*
X110775403Y-147858777D01*
X110746054Y-147814853D01*
X110264285Y-147492946D01*
X110048000Y-147449924D01*
X110048000Y-132275248D01*
X109990148Y-131984409D01*
X109990148Y-131984408D01*
X109825401Y-131737847D01*
X104527736Y-126440182D01*
X104527880Y-126274978D01*
X104370643Y-125894434D01*
X104079747Y-125603030D01*
X103699478Y-125445129D01*
X103287730Y-125444770D01*
X102907186Y-125602007D01*
X102615782Y-125892903D01*
X102457881Y-126273172D01*
X102457779Y-126390552D01*
X102352485Y-126434058D01*
X102061081Y-126724954D01*
X101903180Y-127105223D01*
X101902821Y-127516971D01*
X102060058Y-127897515D01*
X102350954Y-128188919D01*
X102686000Y-128328042D01*
X102686000Y-129419959D01*
X102516019Y-129419811D01*
X102135475Y-129577048D01*
X102090116Y-129622328D01*
X101814666Y-129507951D01*
X101402918Y-129507592D01*
X101022374Y-129664829D01*
X100960292Y-129726802D01*
X100604777Y-129579180D01*
X100193029Y-129578821D01*
X99812485Y-129736058D01*
X99521081Y-130026954D01*
X99363180Y-130407223D01*
X99362992Y-130622679D01*
X99295853Y-130723160D01*
X99238001Y-131013999D01*
X99238001Y-131207197D01*
X97574599Y-132870599D01*
X97409852Y-133117161D01*
X97352000Y-133408000D01*
X97352000Y-147450720D01*
X96996000Y-147379907D01*
X96427715Y-147492946D01*
X95945946Y-147814853D01*
X95726000Y-148144026D01*
X95506054Y-147814853D01*
X95024285Y-147492946D01*
X94456000Y-147379907D01*
X93887715Y-147492946D01*
X93405946Y-147814853D01*
X93084039Y-148296622D01*
X92971000Y-148864907D01*
X92861000Y-148864907D01*
X92861000Y-139030000D01*
X92793633Y-138691325D01*
X92644227Y-138467722D01*
X92760863Y-138186831D01*
X92761136Y-137874539D01*
X92722125Y-137780124D01*
X92760863Y-137686831D01*
X92761136Y-137374539D01*
X92722125Y-137280124D01*
X92760863Y-137186831D01*
X92761136Y-136874539D01*
X92722125Y-136780124D01*
X92760863Y-136686831D01*
X92761136Y-136374539D01*
X92722125Y-136280124D01*
X92760863Y-136186831D01*
X92761136Y-135874539D01*
X92644401Y-135592018D01*
X92793633Y-135368675D01*
X92861000Y-135030000D01*
X92861000Y-123915000D01*
X100976000Y-123915000D01*
X101314675Y-123847633D01*
X101538278Y-123698227D01*
X101819169Y-123814863D01*
G36*
X108528000Y-132590050D02*
X108528000Y-147991372D01*
X108426000Y-148144026D01*
X108206054Y-147814853D01*
X107916000Y-147621046D01*
X107916000Y-133054000D01*
X107858148Y-132763161D01*
X107693401Y-132516599D01*
X105306572Y-130129770D01*
X105306716Y-129964566D01*
X105149479Y-129584022D01*
X104858583Y-129292618D01*
X104478314Y-129134717D01*
X104206000Y-129134480D01*
X104206000Y-128268050D01*
X108528000Y-132590050D01*
X108528000Y-132590050D01*
G37*
X108528000Y-132590050D02*
X108528000Y-147991372D01*
X108426000Y-148144026D01*
X108206054Y-147814853D01*
X107916000Y-147621046D01*
X107916000Y-133054000D01*
X107858148Y-132763161D01*
X107693401Y-132516599D01*
X105306572Y-130129770D01*
X105306716Y-129964566D01*
X105149479Y-129584022D01*
X104858583Y-129292618D01*
X104478314Y-129134717D01*
X104206000Y-129134480D01*
X104206000Y-128268050D01*
X108528000Y-132590050D01*
G36*
X104231701Y-131204503D02*
X106396000Y-133368802D01*
X106396000Y-147621046D01*
X106105946Y-147814853D01*
X105886000Y-148144026D01*
X105666054Y-147814853D01*
X105184285Y-147492946D01*
X104616000Y-147379907D01*
X104249592Y-147452790D01*
X104206000Y-147409198D01*
X104206000Y-131204480D01*
X104231701Y-131204503D01*
X104231701Y-131204503D01*
G37*
X104231701Y-131204503D02*
X106396000Y-133368802D01*
X106396000Y-147621046D01*
X106105946Y-147814853D01*
X105886000Y-148144026D01*
X105666054Y-147814853D01*
X105184285Y-147492946D01*
X104616000Y-147379907D01*
X104249592Y-147452790D01*
X104206000Y-147409198D01*
X104206000Y-131204480D01*
X104231701Y-131204503D01*
G36*
X100146000Y-147209198D02*
X99902408Y-147452790D01*
X99536000Y-147379907D01*
X98967715Y-147492946D01*
X98872000Y-147556901D01*
X98872000Y-133722802D01*
X100146000Y-132448802D01*
X100146000Y-147209198D01*
X100146000Y-147209198D01*
G37*
X100146000Y-147209198D02*
X99902408Y-147452790D01*
X99536000Y-147379907D01*
X98967715Y-147492946D01*
X98872000Y-147556901D01*
X98872000Y-133722802D01*
X100146000Y-132448802D01*
X100146000Y-147209198D01*
G36*
X102686000Y-147520819D02*
X102644285Y-147492946D01*
X102428000Y-147449924D01*
X102428000Y-131822782D01*
X102686000Y-131564782D01*
X102686000Y-147520819D01*
X102686000Y-147520819D01*
G37*
X102686000Y-147520819D02*
X102644285Y-147492946D01*
X102428000Y-147449924D01*
X102428000Y-131822782D01*
X102686000Y-131564782D01*
X102686000Y-147520819D01*
G36*
X32819169Y-123814863D02*
X33131461Y-123815136D01*
X33225876Y-123776125D01*
X33319169Y-123814863D01*
X33631461Y-123815136D01*
X33725876Y-123776125D01*
X33819169Y-123814863D01*
X34131461Y-123815136D01*
X34225876Y-123776125D01*
X34319169Y-123814863D01*
X34631461Y-123815136D01*
X34725876Y-123776125D01*
X34819169Y-123814863D01*
X35131461Y-123815136D01*
X35413982Y-123698401D01*
X35637325Y-123847633D01*
X35976000Y-123915000D01*
X45091000Y-123915000D01*
X45091000Y-135030000D01*
X45158367Y-135368675D01*
X45307773Y-135592278D01*
X45191137Y-135873169D01*
X45190864Y-136185461D01*
X45229875Y-136279876D01*
X45191137Y-136373169D01*
X45190864Y-136685461D01*
X45229875Y-136779876D01*
X45191137Y-136873169D01*
X45190864Y-137185461D01*
X45229875Y-137279876D01*
X45191137Y-137373169D01*
X45190864Y-137685461D01*
X45229875Y-137779876D01*
X45191137Y-137873169D01*
X45190864Y-138185461D01*
X45307599Y-138467982D01*
X45158367Y-138691325D01*
X45091000Y-139030000D01*
X45091000Y-151145000D01*
X35976000Y-151145000D01*
X35637325Y-151212367D01*
X35476240Y-151320000D01*
X35313122Y-151320000D01*
X35132831Y-151245137D01*
X34820539Y-151244864D01*
X34726124Y-151283875D01*
X34632831Y-151245137D01*
X34320539Y-151244864D01*
X34226124Y-151283875D01*
X34132831Y-151245137D01*
X33820539Y-151244864D01*
X33726124Y-151283875D01*
X33632831Y-151245137D01*
X33320539Y-151244864D01*
X33226124Y-151283875D01*
X33132831Y-151245137D01*
X32820539Y-151244864D01*
X32638695Y-151320000D01*
X32475760Y-151320000D01*
X32314675Y-151212367D01*
X31976000Y-151145000D01*
X23861000Y-151145000D01*
X23861000Y-148864907D01*
X23971000Y-148864907D01*
X23971000Y-148923093D01*
X24084039Y-149491378D01*
X24405946Y-149973147D01*
X24887715Y-150295054D01*
X25456000Y-150408093D01*
X26024285Y-150295054D01*
X26506054Y-149973147D01*
X26726000Y-149643974D01*
X26945946Y-149973147D01*
X27427715Y-150295054D01*
X27996000Y-150408093D01*
X28564285Y-150295054D01*
X29046054Y-149973147D01*
X29266000Y-149643974D01*
X29485946Y-149973147D01*
X29967715Y-150295054D01*
X30536000Y-150408093D01*
X31104285Y-150295054D01*
X31586054Y-149973147D01*
X31806000Y-149643974D01*
X32025946Y-149973147D01*
X32507715Y-150295054D01*
X33076000Y-150408093D01*
X33644285Y-150295054D01*
X34126054Y-149973147D01*
X34346000Y-149643974D01*
X34565946Y-149973147D01*
X35047715Y-150295054D01*
X35616000Y-150408093D01*
X36184285Y-150295054D01*
X36666054Y-149973147D01*
X36886000Y-149643974D01*
X37105946Y-149973147D01*
X37587715Y-150295054D01*
X38156000Y-150408093D01*
X38724285Y-150295054D01*
X39206054Y-149973147D01*
X39426000Y-149643974D01*
X39645946Y-149973147D01*
X40127715Y-150295054D01*
X40696000Y-150408093D01*
X41264285Y-150295054D01*
X41746054Y-149973147D01*
X41775403Y-149929223D01*
X41847673Y-150103698D01*
X42026301Y-150282327D01*
X42259690Y-150379000D01*
X42950250Y-150379000D01*
X43109000Y-150220250D01*
X43109000Y-149021000D01*
X43363000Y-149021000D01*
X43363000Y-150220250D01*
X43521750Y-150379000D01*
X44212310Y-150379000D01*
X44445699Y-150282327D01*
X44624327Y-150103698D01*
X44721000Y-149870309D01*
X44721000Y-149179750D01*
X44562250Y-149021000D01*
X43363000Y-149021000D01*
X43109000Y-149021000D01*
X43089000Y-149021000D01*
X43089000Y-148767000D01*
X43109000Y-148767000D01*
X43109000Y-147567750D01*
X43363000Y-147567750D01*
X43363000Y-148767000D01*
X44562250Y-148767000D01*
X44721000Y-148608250D01*
X44721000Y-147917691D01*
X44624327Y-147684302D01*
X44445699Y-147505673D01*
X44212310Y-147409000D01*
X43521750Y-147409000D01*
X43363000Y-147567750D01*
X43109000Y-147567750D01*
X42950250Y-147409000D01*
X42259690Y-147409000D01*
X42026301Y-147505673D01*
X41847673Y-147684302D01*
X41775403Y-147858777D01*
X41746054Y-147814853D01*
X41264285Y-147492946D01*
X41048000Y-147449924D01*
X41048000Y-132275248D01*
X40990148Y-131984409D01*
X40990148Y-131984408D01*
X40825401Y-131737847D01*
X35527736Y-126440182D01*
X35527880Y-126274978D01*
X35370643Y-125894434D01*
X35079747Y-125603030D01*
X34699478Y-125445129D01*
X34287730Y-125444770D01*
X33907186Y-125602007D01*
X33615782Y-125892903D01*
X33457881Y-126273172D01*
X33457779Y-126390552D01*
X33352485Y-126434058D01*
X33061081Y-126724954D01*
X32903180Y-127105223D01*
X32902821Y-127516971D01*
X33060058Y-127897515D01*
X33350954Y-128188919D01*
X33686000Y-128328042D01*
X33686000Y-129419959D01*
X33516019Y-129419811D01*
X33135475Y-129577048D01*
X33090116Y-129622328D01*
X32814666Y-129507951D01*
X32402918Y-129507592D01*
X32022374Y-129664829D01*
X31960292Y-129726802D01*
X31604777Y-129579180D01*
X31193029Y-129578821D01*
X30812485Y-129736058D01*
X30521081Y-130026954D01*
X30363180Y-130407223D01*
X30362992Y-130622679D01*
X30295853Y-130723160D01*
X30238001Y-131013999D01*
X30238001Y-131207197D01*
X28574599Y-132870599D01*
X28409852Y-133117161D01*
X28352000Y-133408000D01*
X28352000Y-147450720D01*
X27996000Y-147379907D01*
X27427715Y-147492946D01*
X26945946Y-147814853D01*
X26726000Y-148144026D01*
X26506054Y-147814853D01*
X26024285Y-147492946D01*
X25456000Y-147379907D01*
X24887715Y-147492946D01*
X24405946Y-147814853D01*
X24084039Y-148296622D01*
X23971000Y-148864907D01*
X23861000Y-148864907D01*
X23861000Y-139030000D01*
X23793633Y-138691325D01*
X23644227Y-138467722D01*
X23760863Y-138186831D01*
X23761136Y-137874539D01*
X23722125Y-137780124D01*
X23760863Y-137686831D01*
X23761136Y-137374539D01*
X23722125Y-137280124D01*
X23760863Y-137186831D01*
X23761136Y-136874539D01*
X23722125Y-136780124D01*
X23760863Y-136686831D01*
X23761136Y-136374539D01*
X23722125Y-136280124D01*
X23760863Y-136186831D01*
X23761136Y-135874539D01*
X23644401Y-135592018D01*
X23793633Y-135368675D01*
X23861000Y-135030000D01*
X23861000Y-123915000D01*
X31976000Y-123915000D01*
X32314675Y-123847633D01*
X32538278Y-123698227D01*
X32819169Y-123814863D01*
X32819169Y-123814863D01*
G37*
X32819169Y-123814863D02*
X33131461Y-123815136D01*
X33225876Y-123776125D01*
X33319169Y-123814863D01*
X33631461Y-123815136D01*
X33725876Y-123776125D01*
X33819169Y-123814863D01*
X34131461Y-123815136D01*
X34225876Y-123776125D01*
X34319169Y-123814863D01*
X34631461Y-123815136D01*
X34725876Y-123776125D01*
X34819169Y-123814863D01*
X35131461Y-123815136D01*
X35413982Y-123698401D01*
X35637325Y-123847633D01*
X35976000Y-123915000D01*
X45091000Y-123915000D01*
X45091000Y-135030000D01*
X45158367Y-135368675D01*
X45307773Y-135592278D01*
X45191137Y-135873169D01*
X45190864Y-136185461D01*
X45229875Y-136279876D01*
X45191137Y-136373169D01*
X45190864Y-136685461D01*
X45229875Y-136779876D01*
X45191137Y-136873169D01*
X45190864Y-137185461D01*
X45229875Y-137279876D01*
X45191137Y-137373169D01*
X45190864Y-137685461D01*
X45229875Y-137779876D01*
X45191137Y-137873169D01*
X45190864Y-138185461D01*
X45307599Y-138467982D01*
X45158367Y-138691325D01*
X45091000Y-139030000D01*
X45091000Y-151145000D01*
X35976000Y-151145000D01*
X35637325Y-151212367D01*
X35476240Y-151320000D01*
X35313122Y-151320000D01*
X35132831Y-151245137D01*
X34820539Y-151244864D01*
X34726124Y-151283875D01*
X34632831Y-151245137D01*
X34320539Y-151244864D01*
X34226124Y-151283875D01*
X34132831Y-151245137D01*
X33820539Y-151244864D01*
X33726124Y-151283875D01*
X33632831Y-151245137D01*
X33320539Y-151244864D01*
X33226124Y-151283875D01*
X33132831Y-151245137D01*
X32820539Y-151244864D01*
X32638695Y-151320000D01*
X32475760Y-151320000D01*
X32314675Y-151212367D01*
X31976000Y-151145000D01*
X23861000Y-151145000D01*
X23861000Y-148864907D01*
X23971000Y-148864907D01*
X23971000Y-148923093D01*
X24084039Y-149491378D01*
X24405946Y-149973147D01*
X24887715Y-150295054D01*
X25456000Y-150408093D01*
X26024285Y-150295054D01*
X26506054Y-149973147D01*
X26726000Y-149643974D01*
X26945946Y-149973147D01*
X27427715Y-150295054D01*
X27996000Y-150408093D01*
X28564285Y-150295054D01*
X29046054Y-149973147D01*
X29266000Y-149643974D01*
X29485946Y-149973147D01*
X29967715Y-150295054D01*
X30536000Y-150408093D01*
X31104285Y-150295054D01*
X31586054Y-149973147D01*
X31806000Y-149643974D01*
X32025946Y-149973147D01*
X32507715Y-150295054D01*
X33076000Y-150408093D01*
X33644285Y-150295054D01*
X34126054Y-149973147D01*
X34346000Y-149643974D01*
X34565946Y-149973147D01*
X35047715Y-150295054D01*
X35616000Y-150408093D01*
X36184285Y-150295054D01*
X36666054Y-149973147D01*
X36886000Y-149643974D01*
X37105946Y-149973147D01*
X37587715Y-150295054D01*
X38156000Y-150408093D01*
X38724285Y-150295054D01*
X39206054Y-149973147D01*
X39426000Y-149643974D01*
X39645946Y-149973147D01*
X40127715Y-150295054D01*
X40696000Y-150408093D01*
X41264285Y-150295054D01*
X41746054Y-149973147D01*
X41775403Y-149929223D01*
X41847673Y-150103698D01*
X42026301Y-150282327D01*
X42259690Y-150379000D01*
X42950250Y-150379000D01*
X43109000Y-150220250D01*
X43109000Y-149021000D01*
X43363000Y-149021000D01*
X43363000Y-150220250D01*
X43521750Y-150379000D01*
X44212310Y-150379000D01*
X44445699Y-150282327D01*
X44624327Y-150103698D01*
X44721000Y-149870309D01*
X44721000Y-149179750D01*
X44562250Y-149021000D01*
X43363000Y-149021000D01*
X43109000Y-149021000D01*
X43089000Y-149021000D01*
X43089000Y-148767000D01*
X43109000Y-148767000D01*
X43109000Y-147567750D01*
X43363000Y-147567750D01*
X43363000Y-148767000D01*
X44562250Y-148767000D01*
X44721000Y-148608250D01*
X44721000Y-147917691D01*
X44624327Y-147684302D01*
X44445699Y-147505673D01*
X44212310Y-147409000D01*
X43521750Y-147409000D01*
X43363000Y-147567750D01*
X43109000Y-147567750D01*
X42950250Y-147409000D01*
X42259690Y-147409000D01*
X42026301Y-147505673D01*
X41847673Y-147684302D01*
X41775403Y-147858777D01*
X41746054Y-147814853D01*
X41264285Y-147492946D01*
X41048000Y-147449924D01*
X41048000Y-132275248D01*
X40990148Y-131984409D01*
X40990148Y-131984408D01*
X40825401Y-131737847D01*
X35527736Y-126440182D01*
X35527880Y-126274978D01*
X35370643Y-125894434D01*
X35079747Y-125603030D01*
X34699478Y-125445129D01*
X34287730Y-125444770D01*
X33907186Y-125602007D01*
X33615782Y-125892903D01*
X33457881Y-126273172D01*
X33457779Y-126390552D01*
X33352485Y-126434058D01*
X33061081Y-126724954D01*
X32903180Y-127105223D01*
X32902821Y-127516971D01*
X33060058Y-127897515D01*
X33350954Y-128188919D01*
X33686000Y-128328042D01*
X33686000Y-129419959D01*
X33516019Y-129419811D01*
X33135475Y-129577048D01*
X33090116Y-129622328D01*
X32814666Y-129507951D01*
X32402918Y-129507592D01*
X32022374Y-129664829D01*
X31960292Y-129726802D01*
X31604777Y-129579180D01*
X31193029Y-129578821D01*
X30812485Y-129736058D01*
X30521081Y-130026954D01*
X30363180Y-130407223D01*
X30362992Y-130622679D01*
X30295853Y-130723160D01*
X30238001Y-131013999D01*
X30238001Y-131207197D01*
X28574599Y-132870599D01*
X28409852Y-133117161D01*
X28352000Y-133408000D01*
X28352000Y-147450720D01*
X27996000Y-147379907D01*
X27427715Y-147492946D01*
X26945946Y-147814853D01*
X26726000Y-148144026D01*
X26506054Y-147814853D01*
X26024285Y-147492946D01*
X25456000Y-147379907D01*
X24887715Y-147492946D01*
X24405946Y-147814853D01*
X24084039Y-148296622D01*
X23971000Y-148864907D01*
X23861000Y-148864907D01*
X23861000Y-139030000D01*
X23793633Y-138691325D01*
X23644227Y-138467722D01*
X23760863Y-138186831D01*
X23761136Y-137874539D01*
X23722125Y-137780124D01*
X23760863Y-137686831D01*
X23761136Y-137374539D01*
X23722125Y-137280124D01*
X23760863Y-137186831D01*
X23761136Y-136874539D01*
X23722125Y-136780124D01*
X23760863Y-136686831D01*
X23761136Y-136374539D01*
X23722125Y-136280124D01*
X23760863Y-136186831D01*
X23761136Y-135874539D01*
X23644401Y-135592018D01*
X23793633Y-135368675D01*
X23861000Y-135030000D01*
X23861000Y-123915000D01*
X31976000Y-123915000D01*
X32314675Y-123847633D01*
X32538278Y-123698227D01*
X32819169Y-123814863D01*
G36*
X39528000Y-132590050D02*
X39528000Y-147991372D01*
X39426000Y-148144026D01*
X39206054Y-147814853D01*
X38916000Y-147621046D01*
X38916000Y-133054000D01*
X38858148Y-132763161D01*
X38693401Y-132516599D01*
X36306572Y-130129770D01*
X36306716Y-129964566D01*
X36149479Y-129584022D01*
X35858583Y-129292618D01*
X35478314Y-129134717D01*
X35206000Y-129134480D01*
X35206000Y-128268050D01*
X39528000Y-132590050D01*
X39528000Y-132590050D01*
G37*
X39528000Y-132590050D02*
X39528000Y-147991372D01*
X39426000Y-148144026D01*
X39206054Y-147814853D01*
X38916000Y-147621046D01*
X38916000Y-133054000D01*
X38858148Y-132763161D01*
X38693401Y-132516599D01*
X36306572Y-130129770D01*
X36306716Y-129964566D01*
X36149479Y-129584022D01*
X35858583Y-129292618D01*
X35478314Y-129134717D01*
X35206000Y-129134480D01*
X35206000Y-128268050D01*
X39528000Y-132590050D01*
G36*
X35231701Y-131204503D02*
X37396000Y-133368802D01*
X37396000Y-147621046D01*
X37105946Y-147814853D01*
X36886000Y-148144026D01*
X36666054Y-147814853D01*
X36184285Y-147492946D01*
X35616000Y-147379907D01*
X35249592Y-147452790D01*
X35206000Y-147409198D01*
X35206000Y-131204480D01*
X35231701Y-131204503D01*
X35231701Y-131204503D01*
G37*
X35231701Y-131204503D02*
X37396000Y-133368802D01*
X37396000Y-147621046D01*
X37105946Y-147814853D01*
X36886000Y-148144026D01*
X36666054Y-147814853D01*
X36184285Y-147492946D01*
X35616000Y-147379907D01*
X35249592Y-147452790D01*
X35206000Y-147409198D01*
X35206000Y-131204480D01*
X35231701Y-131204503D01*
G36*
X31146000Y-147209198D02*
X30902408Y-147452790D01*
X30536000Y-147379907D01*
X29967715Y-147492946D01*
X29872000Y-147556901D01*
X29872000Y-133722802D01*
X31146000Y-132448802D01*
X31146000Y-147209198D01*
X31146000Y-147209198D01*
G37*
X31146000Y-147209198D02*
X30902408Y-147452790D01*
X30536000Y-147379907D01*
X29967715Y-147492946D01*
X29872000Y-147556901D01*
X29872000Y-133722802D01*
X31146000Y-132448802D01*
X31146000Y-147209198D01*
G36*
X33686000Y-147520819D02*
X33644285Y-147492946D01*
X33428000Y-147449924D01*
X33428000Y-131822782D01*
X33686000Y-131564782D01*
X33686000Y-147520819D01*
X33686000Y-147520819D01*
G37*
X33686000Y-147520819D02*
X33644285Y-147492946D01*
X33428000Y-147449924D01*
X33428000Y-131822782D01*
X33686000Y-131564782D01*
X33686000Y-147520819D01*
G36*
X55819169Y-123814863D02*
X56131461Y-123815136D01*
X56225876Y-123776125D01*
X56319169Y-123814863D01*
X56631461Y-123815136D01*
X56725876Y-123776125D01*
X56819169Y-123814863D01*
X57131461Y-123815136D01*
X57225876Y-123776125D01*
X57319169Y-123814863D01*
X57631461Y-123815136D01*
X57725876Y-123776125D01*
X57819169Y-123814863D01*
X58131461Y-123815136D01*
X58413982Y-123698401D01*
X58637325Y-123847633D01*
X58976000Y-123915000D01*
X68091000Y-123915000D01*
X68091000Y-135030000D01*
X68158367Y-135368675D01*
X68307773Y-135592278D01*
X68191137Y-135873169D01*
X68190864Y-136185461D01*
X68229875Y-136279876D01*
X68191137Y-136373169D01*
X68190864Y-136685461D01*
X68229875Y-136779876D01*
X68191137Y-136873169D01*
X68190864Y-137185461D01*
X68229875Y-137279876D01*
X68191137Y-137373169D01*
X68190864Y-137685461D01*
X68229875Y-137779876D01*
X68191137Y-137873169D01*
X68190864Y-138185461D01*
X68307599Y-138467982D01*
X68158367Y-138691325D01*
X68091000Y-139030000D01*
X68091000Y-151145000D01*
X58976000Y-151145000D01*
X58637325Y-151212367D01*
X58476240Y-151320000D01*
X58313122Y-151320000D01*
X58132831Y-151245137D01*
X57820539Y-151244864D01*
X57726124Y-151283875D01*
X57632831Y-151245137D01*
X57320539Y-151244864D01*
X57226124Y-151283875D01*
X57132831Y-151245137D01*
X56820539Y-151244864D01*
X56726124Y-151283875D01*
X56632831Y-151245137D01*
X56320539Y-151244864D01*
X56226124Y-151283875D01*
X56132831Y-151245137D01*
X55820539Y-151244864D01*
X55638695Y-151320000D01*
X55475760Y-151320000D01*
X55314675Y-151212367D01*
X54976000Y-151145000D01*
X46861000Y-151145000D01*
X46861000Y-148864907D01*
X46971000Y-148864907D01*
X46971000Y-148923093D01*
X47084039Y-149491378D01*
X47405946Y-149973147D01*
X47887715Y-150295054D01*
X48456000Y-150408093D01*
X49024285Y-150295054D01*
X49506054Y-149973147D01*
X49726000Y-149643974D01*
X49945946Y-149973147D01*
X50427715Y-150295054D01*
X50996000Y-150408093D01*
X51564285Y-150295054D01*
X52046054Y-149973147D01*
X52266000Y-149643974D01*
X52485946Y-149973147D01*
X52967715Y-150295054D01*
X53536000Y-150408093D01*
X54104285Y-150295054D01*
X54586054Y-149973147D01*
X54806000Y-149643974D01*
X55025946Y-149973147D01*
X55507715Y-150295054D01*
X56076000Y-150408093D01*
X56644285Y-150295054D01*
X57126054Y-149973147D01*
X57346000Y-149643974D01*
X57565946Y-149973147D01*
X58047715Y-150295054D01*
X58616000Y-150408093D01*
X59184285Y-150295054D01*
X59666054Y-149973147D01*
X59886000Y-149643974D01*
X60105946Y-149973147D01*
X60587715Y-150295054D01*
X61156000Y-150408093D01*
X61724285Y-150295054D01*
X62206054Y-149973147D01*
X62426000Y-149643974D01*
X62645946Y-149973147D01*
X63127715Y-150295054D01*
X63696000Y-150408093D01*
X64264285Y-150295054D01*
X64746054Y-149973147D01*
X64775403Y-149929223D01*
X64847673Y-150103698D01*
X65026301Y-150282327D01*
X65259690Y-150379000D01*
X65950250Y-150379000D01*
X66109000Y-150220250D01*
X66109000Y-149021000D01*
X66363000Y-149021000D01*
X66363000Y-150220250D01*
X66521750Y-150379000D01*
X67212310Y-150379000D01*
X67445699Y-150282327D01*
X67624327Y-150103698D01*
X67721000Y-149870309D01*
X67721000Y-149179750D01*
X67562250Y-149021000D01*
X66363000Y-149021000D01*
X66109000Y-149021000D01*
X66089000Y-149021000D01*
X66089000Y-148767000D01*
X66109000Y-148767000D01*
X66109000Y-147567750D01*
X66363000Y-147567750D01*
X66363000Y-148767000D01*
X67562250Y-148767000D01*
X67721000Y-148608250D01*
X67721000Y-147917691D01*
X67624327Y-147684302D01*
X67445699Y-147505673D01*
X67212310Y-147409000D01*
X66521750Y-147409000D01*
X66363000Y-147567750D01*
X66109000Y-147567750D01*
X65950250Y-147409000D01*
X65259690Y-147409000D01*
X65026301Y-147505673D01*
X64847673Y-147684302D01*
X64775403Y-147858777D01*
X64746054Y-147814853D01*
X64264285Y-147492946D01*
X64048000Y-147449924D01*
X64048000Y-132275248D01*
X63990148Y-131984409D01*
X63990148Y-131984408D01*
X63825401Y-131737847D01*
X58527736Y-126440182D01*
X58527880Y-126274978D01*
X58370643Y-125894434D01*
X58079747Y-125603030D01*
X57699478Y-125445129D01*
X57287730Y-125444770D01*
X56907186Y-125602007D01*
X56615782Y-125892903D01*
X56457881Y-126273172D01*
X56457779Y-126390552D01*
X56352485Y-126434058D01*
X56061081Y-126724954D01*
X55903180Y-127105223D01*
X55902821Y-127516971D01*
X56060058Y-127897515D01*
X56350954Y-128188919D01*
X56686000Y-128328042D01*
X56686000Y-129419959D01*
X56516019Y-129419811D01*
X56135475Y-129577048D01*
X56090116Y-129622328D01*
X55814666Y-129507951D01*
X55402918Y-129507592D01*
X55022374Y-129664829D01*
X54960292Y-129726802D01*
X54604777Y-129579180D01*
X54193029Y-129578821D01*
X53812485Y-129736058D01*
X53521081Y-130026954D01*
X53363180Y-130407223D01*
X53362992Y-130622679D01*
X53295853Y-130723160D01*
X53238001Y-131013999D01*
X53238001Y-131207197D01*
X51574599Y-132870599D01*
X51409852Y-133117161D01*
X51352000Y-133408000D01*
X51352000Y-147450720D01*
X50996000Y-147379907D01*
X50427715Y-147492946D01*
X49945946Y-147814853D01*
X49726000Y-148144026D01*
X49506054Y-147814853D01*
X49024285Y-147492946D01*
X48456000Y-147379907D01*
X47887715Y-147492946D01*
X47405946Y-147814853D01*
X47084039Y-148296622D01*
X46971000Y-148864907D01*
X46861000Y-148864907D01*
X46861000Y-139030000D01*
X46793633Y-138691325D01*
X46644227Y-138467722D01*
X46760863Y-138186831D01*
X46761136Y-137874539D01*
X46722125Y-137780124D01*
X46760863Y-137686831D01*
X46761136Y-137374539D01*
X46722125Y-137280124D01*
X46760863Y-137186831D01*
X46761136Y-136874539D01*
X46722125Y-136780124D01*
X46760863Y-136686831D01*
X46761136Y-136374539D01*
X46722125Y-136280124D01*
X46760863Y-136186831D01*
X46761136Y-135874539D01*
X46644401Y-135592018D01*
X46793633Y-135368675D01*
X46861000Y-135030000D01*
X46861000Y-123915000D01*
X54976000Y-123915000D01*
X55314675Y-123847633D01*
X55538278Y-123698227D01*
X55819169Y-123814863D01*
X55819169Y-123814863D01*
G37*
X55819169Y-123814863D02*
X56131461Y-123815136D01*
X56225876Y-123776125D01*
X56319169Y-123814863D01*
X56631461Y-123815136D01*
X56725876Y-123776125D01*
X56819169Y-123814863D01*
X57131461Y-123815136D01*
X57225876Y-123776125D01*
X57319169Y-123814863D01*
X57631461Y-123815136D01*
X57725876Y-123776125D01*
X57819169Y-123814863D01*
X58131461Y-123815136D01*
X58413982Y-123698401D01*
X58637325Y-123847633D01*
X58976000Y-123915000D01*
X68091000Y-123915000D01*
X68091000Y-135030000D01*
X68158367Y-135368675D01*
X68307773Y-135592278D01*
X68191137Y-135873169D01*
X68190864Y-136185461D01*
X68229875Y-136279876D01*
X68191137Y-136373169D01*
X68190864Y-136685461D01*
X68229875Y-136779876D01*
X68191137Y-136873169D01*
X68190864Y-137185461D01*
X68229875Y-137279876D01*
X68191137Y-137373169D01*
X68190864Y-137685461D01*
X68229875Y-137779876D01*
X68191137Y-137873169D01*
X68190864Y-138185461D01*
X68307599Y-138467982D01*
X68158367Y-138691325D01*
X68091000Y-139030000D01*
X68091000Y-151145000D01*
X58976000Y-151145000D01*
X58637325Y-151212367D01*
X58476240Y-151320000D01*
X58313122Y-151320000D01*
X58132831Y-151245137D01*
X57820539Y-151244864D01*
X57726124Y-151283875D01*
X57632831Y-151245137D01*
X57320539Y-151244864D01*
X57226124Y-151283875D01*
X57132831Y-151245137D01*
X56820539Y-151244864D01*
X56726124Y-151283875D01*
X56632831Y-151245137D01*
X56320539Y-151244864D01*
X56226124Y-151283875D01*
X56132831Y-151245137D01*
X55820539Y-151244864D01*
X55638695Y-151320000D01*
X55475760Y-151320000D01*
X55314675Y-151212367D01*
X54976000Y-151145000D01*
X46861000Y-151145000D01*
X46861000Y-148864907D01*
X46971000Y-148864907D01*
X46971000Y-148923093D01*
X47084039Y-149491378D01*
X47405946Y-149973147D01*
X47887715Y-150295054D01*
X48456000Y-150408093D01*
X49024285Y-150295054D01*
X49506054Y-149973147D01*
X49726000Y-149643974D01*
X49945946Y-149973147D01*
X50427715Y-150295054D01*
X50996000Y-150408093D01*
X51564285Y-150295054D01*
X52046054Y-149973147D01*
X52266000Y-149643974D01*
X52485946Y-149973147D01*
X52967715Y-150295054D01*
X53536000Y-150408093D01*
X54104285Y-150295054D01*
X54586054Y-149973147D01*
X54806000Y-149643974D01*
X55025946Y-149973147D01*
X55507715Y-150295054D01*
X56076000Y-150408093D01*
X56644285Y-150295054D01*
X57126054Y-149973147D01*
X57346000Y-149643974D01*
X57565946Y-149973147D01*
X58047715Y-150295054D01*
X58616000Y-150408093D01*
X59184285Y-150295054D01*
X59666054Y-149973147D01*
X59886000Y-149643974D01*
X60105946Y-149973147D01*
X60587715Y-150295054D01*
X61156000Y-150408093D01*
X61724285Y-150295054D01*
X62206054Y-149973147D01*
X62426000Y-149643974D01*
X62645946Y-149973147D01*
X63127715Y-150295054D01*
X63696000Y-150408093D01*
X64264285Y-150295054D01*
X64746054Y-149973147D01*
X64775403Y-149929223D01*
X64847673Y-150103698D01*
X65026301Y-150282327D01*
X65259690Y-150379000D01*
X65950250Y-150379000D01*
X66109000Y-150220250D01*
X66109000Y-149021000D01*
X66363000Y-149021000D01*
X66363000Y-150220250D01*
X66521750Y-150379000D01*
X67212310Y-150379000D01*
X67445699Y-150282327D01*
X67624327Y-150103698D01*
X67721000Y-149870309D01*
X67721000Y-149179750D01*
X67562250Y-149021000D01*
X66363000Y-149021000D01*
X66109000Y-149021000D01*
X66089000Y-149021000D01*
X66089000Y-148767000D01*
X66109000Y-148767000D01*
X66109000Y-147567750D01*
X66363000Y-147567750D01*
X66363000Y-148767000D01*
X67562250Y-148767000D01*
X67721000Y-148608250D01*
X67721000Y-147917691D01*
X67624327Y-147684302D01*
X67445699Y-147505673D01*
X67212310Y-147409000D01*
X66521750Y-147409000D01*
X66363000Y-147567750D01*
X66109000Y-147567750D01*
X65950250Y-147409000D01*
X65259690Y-147409000D01*
X65026301Y-147505673D01*
X64847673Y-147684302D01*
X64775403Y-147858777D01*
X64746054Y-147814853D01*
X64264285Y-147492946D01*
X64048000Y-147449924D01*
X64048000Y-132275248D01*
X63990148Y-131984409D01*
X63990148Y-131984408D01*
X63825401Y-131737847D01*
X58527736Y-126440182D01*
X58527880Y-126274978D01*
X58370643Y-125894434D01*
X58079747Y-125603030D01*
X57699478Y-125445129D01*
X57287730Y-125444770D01*
X56907186Y-125602007D01*
X56615782Y-125892903D01*
X56457881Y-126273172D01*
X56457779Y-126390552D01*
X56352485Y-126434058D01*
X56061081Y-126724954D01*
X55903180Y-127105223D01*
X55902821Y-127516971D01*
X56060058Y-127897515D01*
X56350954Y-128188919D01*
X56686000Y-128328042D01*
X56686000Y-129419959D01*
X56516019Y-129419811D01*
X56135475Y-129577048D01*
X56090116Y-129622328D01*
X55814666Y-129507951D01*
X55402918Y-129507592D01*
X55022374Y-129664829D01*
X54960292Y-129726802D01*
X54604777Y-129579180D01*
X54193029Y-129578821D01*
X53812485Y-129736058D01*
X53521081Y-130026954D01*
X53363180Y-130407223D01*
X53362992Y-130622679D01*
X53295853Y-130723160D01*
X53238001Y-131013999D01*
X53238001Y-131207197D01*
X51574599Y-132870599D01*
X51409852Y-133117161D01*
X51352000Y-133408000D01*
X51352000Y-147450720D01*
X50996000Y-147379907D01*
X50427715Y-147492946D01*
X49945946Y-147814853D01*
X49726000Y-148144026D01*
X49506054Y-147814853D01*
X49024285Y-147492946D01*
X48456000Y-147379907D01*
X47887715Y-147492946D01*
X47405946Y-147814853D01*
X47084039Y-148296622D01*
X46971000Y-148864907D01*
X46861000Y-148864907D01*
X46861000Y-139030000D01*
X46793633Y-138691325D01*
X46644227Y-138467722D01*
X46760863Y-138186831D01*
X46761136Y-137874539D01*
X46722125Y-137780124D01*
X46760863Y-137686831D01*
X46761136Y-137374539D01*
X46722125Y-137280124D01*
X46760863Y-137186831D01*
X46761136Y-136874539D01*
X46722125Y-136780124D01*
X46760863Y-136686831D01*
X46761136Y-136374539D01*
X46722125Y-136280124D01*
X46760863Y-136186831D01*
X46761136Y-135874539D01*
X46644401Y-135592018D01*
X46793633Y-135368675D01*
X46861000Y-135030000D01*
X46861000Y-123915000D01*
X54976000Y-123915000D01*
X55314675Y-123847633D01*
X55538278Y-123698227D01*
X55819169Y-123814863D01*
G36*
X62528000Y-132590050D02*
X62528000Y-147991372D01*
X62426000Y-148144026D01*
X62206054Y-147814853D01*
X61916000Y-147621046D01*
X61916000Y-133054000D01*
X61858148Y-132763161D01*
X61693401Y-132516599D01*
X59306572Y-130129770D01*
X59306716Y-129964566D01*
X59149479Y-129584022D01*
X58858583Y-129292618D01*
X58478314Y-129134717D01*
X58206000Y-129134480D01*
X58206000Y-128268050D01*
X62528000Y-132590050D01*
X62528000Y-132590050D01*
G37*
X62528000Y-132590050D02*
X62528000Y-147991372D01*
X62426000Y-148144026D01*
X62206054Y-147814853D01*
X61916000Y-147621046D01*
X61916000Y-133054000D01*
X61858148Y-132763161D01*
X61693401Y-132516599D01*
X59306572Y-130129770D01*
X59306716Y-129964566D01*
X59149479Y-129584022D01*
X58858583Y-129292618D01*
X58478314Y-129134717D01*
X58206000Y-129134480D01*
X58206000Y-128268050D01*
X62528000Y-132590050D01*
G36*
X58231701Y-131204503D02*
X60396000Y-133368802D01*
X60396000Y-147621046D01*
X60105946Y-147814853D01*
X59886000Y-148144026D01*
X59666054Y-147814853D01*
X59184285Y-147492946D01*
X58616000Y-147379907D01*
X58249592Y-147452790D01*
X58206000Y-147409198D01*
X58206000Y-131204480D01*
X58231701Y-131204503D01*
X58231701Y-131204503D01*
G37*
X58231701Y-131204503D02*
X60396000Y-133368802D01*
X60396000Y-147621046D01*
X60105946Y-147814853D01*
X59886000Y-148144026D01*
X59666054Y-147814853D01*
X59184285Y-147492946D01*
X58616000Y-147379907D01*
X58249592Y-147452790D01*
X58206000Y-147409198D01*
X58206000Y-131204480D01*
X58231701Y-131204503D01*
G36*
X54146000Y-147209198D02*
X53902408Y-147452790D01*
X53536000Y-147379907D01*
X52967715Y-147492946D01*
X52872000Y-147556901D01*
X52872000Y-133722802D01*
X54146000Y-132448802D01*
X54146000Y-147209198D01*
X54146000Y-147209198D01*
G37*
X54146000Y-147209198D02*
X53902408Y-147452790D01*
X53536000Y-147379907D01*
X52967715Y-147492946D01*
X52872000Y-147556901D01*
X52872000Y-133722802D01*
X54146000Y-132448802D01*
X54146000Y-147209198D01*
G36*
X56686000Y-147520819D02*
X56644285Y-147492946D01*
X56428000Y-147449924D01*
X56428000Y-131822782D01*
X56686000Y-131564782D01*
X56686000Y-147520819D01*
X56686000Y-147520819D01*
G37*
X56686000Y-147520819D02*
X56644285Y-147492946D01*
X56428000Y-147449924D01*
X56428000Y-131822782D01*
X56686000Y-131564782D01*
X56686000Y-147520819D01*
G36*
X78819169Y-152814863D02*
X79131461Y-152815136D01*
X79225876Y-152776125D01*
X79319169Y-152814863D01*
X79631461Y-152815136D01*
X79725876Y-152776125D01*
X79819169Y-152814863D01*
X80131461Y-152815136D01*
X80225876Y-152776125D01*
X80319169Y-152814863D01*
X80631461Y-152815136D01*
X80725876Y-152776125D01*
X80819169Y-152814863D01*
X81131461Y-152815136D01*
X81413982Y-152698401D01*
X81637325Y-152847633D01*
X81976000Y-152915000D01*
X91091000Y-152915000D01*
X91091000Y-164030000D01*
X91158367Y-164368675D01*
X91307773Y-164592278D01*
X91191137Y-164873169D01*
X91190864Y-165185461D01*
X91229875Y-165279876D01*
X91191137Y-165373169D01*
X91190864Y-165685461D01*
X91229875Y-165779876D01*
X91191137Y-165873169D01*
X91190864Y-166185461D01*
X91229875Y-166279876D01*
X91191137Y-166373169D01*
X91190864Y-166685461D01*
X91229875Y-166779876D01*
X91191137Y-166873169D01*
X91190864Y-167185461D01*
X91307599Y-167467982D01*
X91158367Y-167691325D01*
X91091000Y-168030000D01*
X91091000Y-180145000D01*
X81976000Y-180145000D01*
X81637325Y-180212367D01*
X81476240Y-180320000D01*
X81313122Y-180320000D01*
X81132831Y-180245137D01*
X80820539Y-180244864D01*
X80726124Y-180283875D01*
X80632831Y-180245137D01*
X80320539Y-180244864D01*
X80226124Y-180283875D01*
X80132831Y-180245137D01*
X79820539Y-180244864D01*
X79726124Y-180283875D01*
X79632831Y-180245137D01*
X79320539Y-180244864D01*
X79226124Y-180283875D01*
X79132831Y-180245137D01*
X78820539Y-180244864D01*
X78638695Y-180320000D01*
X78475760Y-180320000D01*
X78314675Y-180212367D01*
X77976000Y-180145000D01*
X69861000Y-180145000D01*
X69861000Y-177864907D01*
X69971000Y-177864907D01*
X69971000Y-177923093D01*
X70084039Y-178491378D01*
X70405946Y-178973147D01*
X70887715Y-179295054D01*
X71456000Y-179408093D01*
X72024285Y-179295054D01*
X72506054Y-178973147D01*
X72726000Y-178643974D01*
X72945946Y-178973147D01*
X73427715Y-179295054D01*
X73996000Y-179408093D01*
X74564285Y-179295054D01*
X75046054Y-178973147D01*
X75266000Y-178643974D01*
X75485946Y-178973147D01*
X75967715Y-179295054D01*
X76536000Y-179408093D01*
X77104285Y-179295054D01*
X77586054Y-178973147D01*
X77806000Y-178643974D01*
X78025946Y-178973147D01*
X78507715Y-179295054D01*
X79076000Y-179408093D01*
X79644285Y-179295054D01*
X80126054Y-178973147D01*
X80346000Y-178643974D01*
X80565946Y-178973147D01*
X81047715Y-179295054D01*
X81616000Y-179408093D01*
X82184285Y-179295054D01*
X82666054Y-178973147D01*
X82886000Y-178643974D01*
X83105946Y-178973147D01*
X83587715Y-179295054D01*
X84156000Y-179408093D01*
X84724285Y-179295054D01*
X85206054Y-178973147D01*
X85426000Y-178643974D01*
X85645946Y-178973147D01*
X86127715Y-179295054D01*
X86696000Y-179408093D01*
X87264285Y-179295054D01*
X87746054Y-178973147D01*
X87775403Y-178929223D01*
X87847673Y-179103698D01*
X88026301Y-179282327D01*
X88259690Y-179379000D01*
X88950250Y-179379000D01*
X89109000Y-179220250D01*
X89109000Y-178021000D01*
X89363000Y-178021000D01*
X89363000Y-179220250D01*
X89521750Y-179379000D01*
X90212310Y-179379000D01*
X90445699Y-179282327D01*
X90624327Y-179103698D01*
X90721000Y-178870309D01*
X90721000Y-178179750D01*
X90562250Y-178021000D01*
X89363000Y-178021000D01*
X89109000Y-178021000D01*
X89089000Y-178021000D01*
X89089000Y-177767000D01*
X89109000Y-177767000D01*
X89109000Y-176567750D01*
X89363000Y-176567750D01*
X89363000Y-177767000D01*
X90562250Y-177767000D01*
X90721000Y-177608250D01*
X90721000Y-176917691D01*
X90624327Y-176684302D01*
X90445699Y-176505673D01*
X90212310Y-176409000D01*
X89521750Y-176409000D01*
X89363000Y-176567750D01*
X89109000Y-176567750D01*
X88950250Y-176409000D01*
X88259690Y-176409000D01*
X88026301Y-176505673D01*
X87847673Y-176684302D01*
X87775403Y-176858777D01*
X87746054Y-176814853D01*
X87264285Y-176492946D01*
X87048000Y-176449924D01*
X87048000Y-161275248D01*
X86990148Y-160984409D01*
X86990148Y-160984408D01*
X86825401Y-160737847D01*
X81527736Y-155440182D01*
X81527880Y-155274978D01*
X81370643Y-154894434D01*
X81079747Y-154603030D01*
X80699478Y-154445129D01*
X80287730Y-154444770D01*
X79907186Y-154602007D01*
X79615782Y-154892903D01*
X79457881Y-155273172D01*
X79457779Y-155390552D01*
X79352485Y-155434058D01*
X79061081Y-155724954D01*
X78903180Y-156105223D01*
X78902821Y-156516971D01*
X79060058Y-156897515D01*
X79350954Y-157188919D01*
X79686000Y-157328042D01*
X79686000Y-158419959D01*
X79516019Y-158419811D01*
X79135475Y-158577048D01*
X79090116Y-158622328D01*
X78814666Y-158507951D01*
X78402918Y-158507592D01*
X78022374Y-158664829D01*
X77960292Y-158726802D01*
X77604777Y-158579180D01*
X77193029Y-158578821D01*
X76812485Y-158736058D01*
X76521081Y-159026954D01*
X76363180Y-159407223D01*
X76362992Y-159622679D01*
X76295853Y-159723160D01*
X76238001Y-160013999D01*
X76238001Y-160207197D01*
X74574599Y-161870599D01*
X74409852Y-162117161D01*
X74352000Y-162408000D01*
X74352000Y-176450720D01*
X73996000Y-176379907D01*
X73427715Y-176492946D01*
X72945946Y-176814853D01*
X72726000Y-177144026D01*
X72506054Y-176814853D01*
X72024285Y-176492946D01*
X71456000Y-176379907D01*
X70887715Y-176492946D01*
X70405946Y-176814853D01*
X70084039Y-177296622D01*
X69971000Y-177864907D01*
X69861000Y-177864907D01*
X69861000Y-168030000D01*
X69793633Y-167691325D01*
X69644227Y-167467722D01*
X69760863Y-167186831D01*
X69761136Y-166874539D01*
X69722125Y-166780124D01*
X69760863Y-166686831D01*
X69761136Y-166374539D01*
X69722125Y-166280124D01*
X69760863Y-166186831D01*
X69761136Y-165874539D01*
X69722125Y-165780124D01*
X69760863Y-165686831D01*
X69761136Y-165374539D01*
X69722125Y-165280124D01*
X69760863Y-165186831D01*
X69761136Y-164874539D01*
X69644401Y-164592018D01*
X69793633Y-164368675D01*
X69861000Y-164030000D01*
X69861000Y-152915000D01*
X77976000Y-152915000D01*
X78314675Y-152847633D01*
X78538278Y-152698227D01*
X78819169Y-152814863D01*
X78819169Y-152814863D01*
G37*
X78819169Y-152814863D02*
X79131461Y-152815136D01*
X79225876Y-152776125D01*
X79319169Y-152814863D01*
X79631461Y-152815136D01*
X79725876Y-152776125D01*
X79819169Y-152814863D01*
X80131461Y-152815136D01*
X80225876Y-152776125D01*
X80319169Y-152814863D01*
X80631461Y-152815136D01*
X80725876Y-152776125D01*
X80819169Y-152814863D01*
X81131461Y-152815136D01*
X81413982Y-152698401D01*
X81637325Y-152847633D01*
X81976000Y-152915000D01*
X91091000Y-152915000D01*
X91091000Y-164030000D01*
X91158367Y-164368675D01*
X91307773Y-164592278D01*
X91191137Y-164873169D01*
X91190864Y-165185461D01*
X91229875Y-165279876D01*
X91191137Y-165373169D01*
X91190864Y-165685461D01*
X91229875Y-165779876D01*
X91191137Y-165873169D01*
X91190864Y-166185461D01*
X91229875Y-166279876D01*
X91191137Y-166373169D01*
X91190864Y-166685461D01*
X91229875Y-166779876D01*
X91191137Y-166873169D01*
X91190864Y-167185461D01*
X91307599Y-167467982D01*
X91158367Y-167691325D01*
X91091000Y-168030000D01*
X91091000Y-180145000D01*
X81976000Y-180145000D01*
X81637325Y-180212367D01*
X81476240Y-180320000D01*
X81313122Y-180320000D01*
X81132831Y-180245137D01*
X80820539Y-180244864D01*
X80726124Y-180283875D01*
X80632831Y-180245137D01*
X80320539Y-180244864D01*
X80226124Y-180283875D01*
X80132831Y-180245137D01*
X79820539Y-180244864D01*
X79726124Y-180283875D01*
X79632831Y-180245137D01*
X79320539Y-180244864D01*
X79226124Y-180283875D01*
X79132831Y-180245137D01*
X78820539Y-180244864D01*
X78638695Y-180320000D01*
X78475760Y-180320000D01*
X78314675Y-180212367D01*
X77976000Y-180145000D01*
X69861000Y-180145000D01*
X69861000Y-177864907D01*
X69971000Y-177864907D01*
X69971000Y-177923093D01*
X70084039Y-178491378D01*
X70405946Y-178973147D01*
X70887715Y-179295054D01*
X71456000Y-179408093D01*
X72024285Y-179295054D01*
X72506054Y-178973147D01*
X72726000Y-178643974D01*
X72945946Y-178973147D01*
X73427715Y-179295054D01*
X73996000Y-179408093D01*
X74564285Y-179295054D01*
X75046054Y-178973147D01*
X75266000Y-178643974D01*
X75485946Y-178973147D01*
X75967715Y-179295054D01*
X76536000Y-179408093D01*
X77104285Y-179295054D01*
X77586054Y-178973147D01*
X77806000Y-178643974D01*
X78025946Y-178973147D01*
X78507715Y-179295054D01*
X79076000Y-179408093D01*
X79644285Y-179295054D01*
X80126054Y-178973147D01*
X80346000Y-178643974D01*
X80565946Y-178973147D01*
X81047715Y-179295054D01*
X81616000Y-179408093D01*
X82184285Y-179295054D01*
X82666054Y-178973147D01*
X82886000Y-178643974D01*
X83105946Y-178973147D01*
X83587715Y-179295054D01*
X84156000Y-179408093D01*
X84724285Y-179295054D01*
X85206054Y-178973147D01*
X85426000Y-178643974D01*
X85645946Y-178973147D01*
X86127715Y-179295054D01*
X86696000Y-179408093D01*
X87264285Y-179295054D01*
X87746054Y-178973147D01*
X87775403Y-178929223D01*
X87847673Y-179103698D01*
X88026301Y-179282327D01*
X88259690Y-179379000D01*
X88950250Y-179379000D01*
X89109000Y-179220250D01*
X89109000Y-178021000D01*
X89363000Y-178021000D01*
X89363000Y-179220250D01*
X89521750Y-179379000D01*
X90212310Y-179379000D01*
X90445699Y-179282327D01*
X90624327Y-179103698D01*
X90721000Y-178870309D01*
X90721000Y-178179750D01*
X90562250Y-178021000D01*
X89363000Y-178021000D01*
X89109000Y-178021000D01*
X89089000Y-178021000D01*
X89089000Y-177767000D01*
X89109000Y-177767000D01*
X89109000Y-176567750D01*
X89363000Y-176567750D01*
X89363000Y-177767000D01*
X90562250Y-177767000D01*
X90721000Y-177608250D01*
X90721000Y-176917691D01*
X90624327Y-176684302D01*
X90445699Y-176505673D01*
X90212310Y-176409000D01*
X89521750Y-176409000D01*
X89363000Y-176567750D01*
X89109000Y-176567750D01*
X88950250Y-176409000D01*
X88259690Y-176409000D01*
X88026301Y-176505673D01*
X87847673Y-176684302D01*
X87775403Y-176858777D01*
X87746054Y-176814853D01*
X87264285Y-176492946D01*
X87048000Y-176449924D01*
X87048000Y-161275248D01*
X86990148Y-160984409D01*
X86990148Y-160984408D01*
X86825401Y-160737847D01*
X81527736Y-155440182D01*
X81527880Y-155274978D01*
X81370643Y-154894434D01*
X81079747Y-154603030D01*
X80699478Y-154445129D01*
X80287730Y-154444770D01*
X79907186Y-154602007D01*
X79615782Y-154892903D01*
X79457881Y-155273172D01*
X79457779Y-155390552D01*
X79352485Y-155434058D01*
X79061081Y-155724954D01*
X78903180Y-156105223D01*
X78902821Y-156516971D01*
X79060058Y-156897515D01*
X79350954Y-157188919D01*
X79686000Y-157328042D01*
X79686000Y-158419959D01*
X79516019Y-158419811D01*
X79135475Y-158577048D01*
X79090116Y-158622328D01*
X78814666Y-158507951D01*
X78402918Y-158507592D01*
X78022374Y-158664829D01*
X77960292Y-158726802D01*
X77604777Y-158579180D01*
X77193029Y-158578821D01*
X76812485Y-158736058D01*
X76521081Y-159026954D01*
X76363180Y-159407223D01*
X76362992Y-159622679D01*
X76295853Y-159723160D01*
X76238001Y-160013999D01*
X76238001Y-160207197D01*
X74574599Y-161870599D01*
X74409852Y-162117161D01*
X74352000Y-162408000D01*
X74352000Y-176450720D01*
X73996000Y-176379907D01*
X73427715Y-176492946D01*
X72945946Y-176814853D01*
X72726000Y-177144026D01*
X72506054Y-176814853D01*
X72024285Y-176492946D01*
X71456000Y-176379907D01*
X70887715Y-176492946D01*
X70405946Y-176814853D01*
X70084039Y-177296622D01*
X69971000Y-177864907D01*
X69861000Y-177864907D01*
X69861000Y-168030000D01*
X69793633Y-167691325D01*
X69644227Y-167467722D01*
X69760863Y-167186831D01*
X69761136Y-166874539D01*
X69722125Y-166780124D01*
X69760863Y-166686831D01*
X69761136Y-166374539D01*
X69722125Y-166280124D01*
X69760863Y-166186831D01*
X69761136Y-165874539D01*
X69722125Y-165780124D01*
X69760863Y-165686831D01*
X69761136Y-165374539D01*
X69722125Y-165280124D01*
X69760863Y-165186831D01*
X69761136Y-164874539D01*
X69644401Y-164592018D01*
X69793633Y-164368675D01*
X69861000Y-164030000D01*
X69861000Y-152915000D01*
X77976000Y-152915000D01*
X78314675Y-152847633D01*
X78538278Y-152698227D01*
X78819169Y-152814863D01*
G36*
X85528000Y-161590050D02*
X85528000Y-176991372D01*
X85426000Y-177144026D01*
X85206054Y-176814853D01*
X84916000Y-176621046D01*
X84916000Y-162054000D01*
X84858148Y-161763161D01*
X84693401Y-161516599D01*
X82306572Y-159129770D01*
X82306716Y-158964566D01*
X82149479Y-158584022D01*
X81858583Y-158292618D01*
X81478314Y-158134717D01*
X81206000Y-158134480D01*
X81206000Y-157268050D01*
X85528000Y-161590050D01*
X85528000Y-161590050D01*
G37*
X85528000Y-161590050D02*
X85528000Y-176991372D01*
X85426000Y-177144026D01*
X85206054Y-176814853D01*
X84916000Y-176621046D01*
X84916000Y-162054000D01*
X84858148Y-161763161D01*
X84693401Y-161516599D01*
X82306572Y-159129770D01*
X82306716Y-158964566D01*
X82149479Y-158584022D01*
X81858583Y-158292618D01*
X81478314Y-158134717D01*
X81206000Y-158134480D01*
X81206000Y-157268050D01*
X85528000Y-161590050D01*
G36*
X81231701Y-160204503D02*
X83396000Y-162368802D01*
X83396000Y-176621046D01*
X83105946Y-176814853D01*
X82886000Y-177144026D01*
X82666054Y-176814853D01*
X82184285Y-176492946D01*
X81616000Y-176379907D01*
X81249592Y-176452790D01*
X81206000Y-176409198D01*
X81206000Y-160204480D01*
X81231701Y-160204503D01*
X81231701Y-160204503D01*
G37*
X81231701Y-160204503D02*
X83396000Y-162368802D01*
X83396000Y-176621046D01*
X83105946Y-176814853D01*
X82886000Y-177144026D01*
X82666054Y-176814853D01*
X82184285Y-176492946D01*
X81616000Y-176379907D01*
X81249592Y-176452790D01*
X81206000Y-176409198D01*
X81206000Y-160204480D01*
X81231701Y-160204503D01*
G36*
X77146000Y-176209198D02*
X76902408Y-176452790D01*
X76536000Y-176379907D01*
X75967715Y-176492946D01*
X75872000Y-176556901D01*
X75872000Y-162722802D01*
X77146000Y-161448802D01*
X77146000Y-176209198D01*
X77146000Y-176209198D01*
G37*
X77146000Y-176209198D02*
X76902408Y-176452790D01*
X76536000Y-176379907D01*
X75967715Y-176492946D01*
X75872000Y-176556901D01*
X75872000Y-162722802D01*
X77146000Y-161448802D01*
X77146000Y-176209198D01*
G36*
X79686000Y-176520819D02*
X79644285Y-176492946D01*
X79428000Y-176449924D01*
X79428000Y-160822782D01*
X79686000Y-160564782D01*
X79686000Y-176520819D01*
X79686000Y-176520819D01*
G37*
X79686000Y-176520819D02*
X79644285Y-176492946D01*
X79428000Y-176449924D01*
X79428000Y-160822782D01*
X79686000Y-160564782D01*
X79686000Y-176520819D01*
G36*
X101819169Y-152814863D02*
X102131461Y-152815136D01*
X102225876Y-152776125D01*
X102319169Y-152814863D01*
X102631461Y-152815136D01*
X102725876Y-152776125D01*
X102819169Y-152814863D01*
X103131461Y-152815136D01*
X103225876Y-152776125D01*
X103319169Y-152814863D01*
X103631461Y-152815136D01*
X103725876Y-152776125D01*
X103819169Y-152814863D01*
X104131461Y-152815136D01*
X104413982Y-152698401D01*
X104637325Y-152847633D01*
X104976000Y-152915000D01*
X114091000Y-152915000D01*
X114091000Y-164030000D01*
X114158367Y-164368675D01*
X114307773Y-164592278D01*
X114191137Y-164873169D01*
X114190864Y-165185461D01*
X114229875Y-165279876D01*
X114191137Y-165373169D01*
X114190864Y-165685461D01*
X114229875Y-165779876D01*
X114191137Y-165873169D01*
X114190864Y-166185461D01*
X114229875Y-166279876D01*
X114191137Y-166373169D01*
X114190864Y-166685461D01*
X114229875Y-166779876D01*
X114191137Y-166873169D01*
X114190864Y-167185461D01*
X114307599Y-167467982D01*
X114158367Y-167691325D01*
X114091000Y-168030000D01*
X114091000Y-180145000D01*
X104976000Y-180145000D01*
X104637325Y-180212367D01*
X104476240Y-180320000D01*
X104313122Y-180320000D01*
X104132831Y-180245137D01*
X103820539Y-180244864D01*
X103726124Y-180283875D01*
X103632831Y-180245137D01*
X103320539Y-180244864D01*
X103226124Y-180283875D01*
X103132831Y-180245137D01*
X102820539Y-180244864D01*
X102726124Y-180283875D01*
X102632831Y-180245137D01*
X102320539Y-180244864D01*
X102226124Y-180283875D01*
X102132831Y-180245137D01*
X101820539Y-180244864D01*
X101638695Y-180320000D01*
X101475760Y-180320000D01*
X101314675Y-180212367D01*
X100976000Y-180145000D01*
X92861000Y-180145000D01*
X92861000Y-177864907D01*
X92971000Y-177864907D01*
X92971000Y-177923093D01*
X93084039Y-178491378D01*
X93405946Y-178973147D01*
X93887715Y-179295054D01*
X94456000Y-179408093D01*
X95024285Y-179295054D01*
X95506054Y-178973147D01*
X95726000Y-178643974D01*
X95945946Y-178973147D01*
X96427715Y-179295054D01*
X96996000Y-179408093D01*
X97564285Y-179295054D01*
X98046054Y-178973147D01*
X98266000Y-178643974D01*
X98485946Y-178973147D01*
X98967715Y-179295054D01*
X99536000Y-179408093D01*
X100104285Y-179295054D01*
X100586054Y-178973147D01*
X100806000Y-178643974D01*
X101025946Y-178973147D01*
X101507715Y-179295054D01*
X102076000Y-179408093D01*
X102644285Y-179295054D01*
X103126054Y-178973147D01*
X103346000Y-178643974D01*
X103565946Y-178973147D01*
X104047715Y-179295054D01*
X104616000Y-179408093D01*
X105184285Y-179295054D01*
X105666054Y-178973147D01*
X105886000Y-178643974D01*
X106105946Y-178973147D01*
X106587715Y-179295054D01*
X107156000Y-179408093D01*
X107724285Y-179295054D01*
X108206054Y-178973147D01*
X108426000Y-178643974D01*
X108645946Y-178973147D01*
X109127715Y-179295054D01*
X109696000Y-179408093D01*
X110264285Y-179295054D01*
X110746054Y-178973147D01*
X110775403Y-178929223D01*
X110847673Y-179103698D01*
X111026301Y-179282327D01*
X111259690Y-179379000D01*
X111950250Y-179379000D01*
X112109000Y-179220250D01*
X112109000Y-178021000D01*
X112363000Y-178021000D01*
X112363000Y-179220250D01*
X112521750Y-179379000D01*
X113212310Y-179379000D01*
X113445699Y-179282327D01*
X113624327Y-179103698D01*
X113721000Y-178870309D01*
X113721000Y-178179750D01*
X113562250Y-178021000D01*
X112363000Y-178021000D01*
X112109000Y-178021000D01*
X112089000Y-178021000D01*
X112089000Y-177767000D01*
X112109000Y-177767000D01*
X112109000Y-176567750D01*
X112363000Y-176567750D01*
X112363000Y-177767000D01*
X113562250Y-177767000D01*
X113721000Y-177608250D01*
X113721000Y-176917691D01*
X113624327Y-176684302D01*
X113445699Y-176505673D01*
X113212310Y-176409000D01*
X112521750Y-176409000D01*
X112363000Y-176567750D01*
X112109000Y-176567750D01*
X111950250Y-176409000D01*
X111259690Y-176409000D01*
X111026301Y-176505673D01*
X110847673Y-176684302D01*
X110775403Y-176858777D01*
X110746054Y-176814853D01*
X110264285Y-176492946D01*
X110048000Y-176449924D01*
X110048000Y-161275248D01*
X109990148Y-160984409D01*
X109990148Y-160984408D01*
X109825401Y-160737847D01*
X104527736Y-155440182D01*
X104527880Y-155274978D01*
X104370643Y-154894434D01*
X104079747Y-154603030D01*
X103699478Y-154445129D01*
X103287730Y-154444770D01*
X102907186Y-154602007D01*
X102615782Y-154892903D01*
X102457881Y-155273172D01*
X102457779Y-155390552D01*
X102352485Y-155434058D01*
X102061081Y-155724954D01*
X101903180Y-156105223D01*
X101902821Y-156516971D01*
X102060058Y-156897515D01*
X102350954Y-157188919D01*
X102686000Y-157328042D01*
X102686000Y-158419959D01*
X102516019Y-158419811D01*
X102135475Y-158577048D01*
X102090116Y-158622328D01*
X101814666Y-158507951D01*
X101402918Y-158507592D01*
X101022374Y-158664829D01*
X100960292Y-158726802D01*
X100604777Y-158579180D01*
X100193029Y-158578821D01*
X99812485Y-158736058D01*
X99521081Y-159026954D01*
X99363180Y-159407223D01*
X99362992Y-159622679D01*
X99295853Y-159723160D01*
X99238001Y-160013999D01*
X99238001Y-160207197D01*
X97574599Y-161870599D01*
X97409852Y-162117161D01*
X97352000Y-162408000D01*
X97352000Y-176450720D01*
X96996000Y-176379907D01*
X96427715Y-176492946D01*
X95945946Y-176814853D01*
X95726000Y-177144026D01*
X95506054Y-176814853D01*
X95024285Y-176492946D01*
X94456000Y-176379907D01*
X93887715Y-176492946D01*
X93405946Y-176814853D01*
X93084039Y-177296622D01*
X92971000Y-177864907D01*
X92861000Y-177864907D01*
X92861000Y-168030000D01*
X92793633Y-167691325D01*
X92644227Y-167467722D01*
X92760863Y-167186831D01*
X92761136Y-166874539D01*
X92722125Y-166780124D01*
X92760863Y-166686831D01*
X92761136Y-166374539D01*
X92722125Y-166280124D01*
X92760863Y-166186831D01*
X92761136Y-165874539D01*
X92722125Y-165780124D01*
X92760863Y-165686831D01*
X92761136Y-165374539D01*
X92722125Y-165280124D01*
X92760863Y-165186831D01*
X92761136Y-164874539D01*
X92644401Y-164592018D01*
X92793633Y-164368675D01*
X92861000Y-164030000D01*
X92861000Y-152915000D01*
X100976000Y-152915000D01*
X101314675Y-152847633D01*
X101538278Y-152698227D01*
X101819169Y-152814863D01*
X101819169Y-152814863D01*
G37*
X101819169Y-152814863D02*
X102131461Y-152815136D01*
X102225876Y-152776125D01*
X102319169Y-152814863D01*
X102631461Y-152815136D01*
X102725876Y-152776125D01*
X102819169Y-152814863D01*
X103131461Y-152815136D01*
X103225876Y-152776125D01*
X103319169Y-152814863D01*
X103631461Y-152815136D01*
X103725876Y-152776125D01*
X103819169Y-152814863D01*
X104131461Y-152815136D01*
X104413982Y-152698401D01*
X104637325Y-152847633D01*
X104976000Y-152915000D01*
X114091000Y-152915000D01*
X114091000Y-164030000D01*
X114158367Y-164368675D01*
X114307773Y-164592278D01*
X114191137Y-164873169D01*
X114190864Y-165185461D01*
X114229875Y-165279876D01*
X114191137Y-165373169D01*
X114190864Y-165685461D01*
X114229875Y-165779876D01*
X114191137Y-165873169D01*
X114190864Y-166185461D01*
X114229875Y-166279876D01*
X114191137Y-166373169D01*
X114190864Y-166685461D01*
X114229875Y-166779876D01*
X114191137Y-166873169D01*
X114190864Y-167185461D01*
X114307599Y-167467982D01*
X114158367Y-167691325D01*
X114091000Y-168030000D01*
X114091000Y-180145000D01*
X104976000Y-180145000D01*
X104637325Y-180212367D01*
X104476240Y-180320000D01*
X104313122Y-180320000D01*
X104132831Y-180245137D01*
X103820539Y-180244864D01*
X103726124Y-180283875D01*
X103632831Y-180245137D01*
X103320539Y-180244864D01*
X103226124Y-180283875D01*
X103132831Y-180245137D01*
X102820539Y-180244864D01*
X102726124Y-180283875D01*
X102632831Y-180245137D01*
X102320539Y-180244864D01*
X102226124Y-180283875D01*
X102132831Y-180245137D01*
X101820539Y-180244864D01*
X101638695Y-180320000D01*
X101475760Y-180320000D01*
X101314675Y-180212367D01*
X100976000Y-180145000D01*
X92861000Y-180145000D01*
X92861000Y-177864907D01*
X92971000Y-177864907D01*
X92971000Y-177923093D01*
X93084039Y-178491378D01*
X93405946Y-178973147D01*
X93887715Y-179295054D01*
X94456000Y-179408093D01*
X95024285Y-179295054D01*
X95506054Y-178973147D01*
X95726000Y-178643974D01*
X95945946Y-178973147D01*
X96427715Y-179295054D01*
X96996000Y-179408093D01*
X97564285Y-179295054D01*
X98046054Y-178973147D01*
X98266000Y-178643974D01*
X98485946Y-178973147D01*
X98967715Y-179295054D01*
X99536000Y-179408093D01*
X100104285Y-179295054D01*
X100586054Y-178973147D01*
X100806000Y-178643974D01*
X101025946Y-178973147D01*
X101507715Y-179295054D01*
X102076000Y-179408093D01*
X102644285Y-179295054D01*
X103126054Y-178973147D01*
X103346000Y-178643974D01*
X103565946Y-178973147D01*
X104047715Y-179295054D01*
X104616000Y-179408093D01*
X105184285Y-179295054D01*
X105666054Y-178973147D01*
X105886000Y-178643974D01*
X106105946Y-178973147D01*
X106587715Y-179295054D01*
X107156000Y-179408093D01*
X107724285Y-179295054D01*
X108206054Y-178973147D01*
X108426000Y-178643974D01*
X108645946Y-178973147D01*
X109127715Y-179295054D01*
X109696000Y-179408093D01*
X110264285Y-179295054D01*
X110746054Y-178973147D01*
X110775403Y-178929223D01*
X110847673Y-179103698D01*
X111026301Y-179282327D01*
X111259690Y-179379000D01*
X111950250Y-179379000D01*
X112109000Y-179220250D01*
X112109000Y-178021000D01*
X112363000Y-178021000D01*
X112363000Y-179220250D01*
X112521750Y-179379000D01*
X113212310Y-179379000D01*
X113445699Y-179282327D01*
X113624327Y-179103698D01*
X113721000Y-178870309D01*
X113721000Y-178179750D01*
X113562250Y-178021000D01*
X112363000Y-178021000D01*
X112109000Y-178021000D01*
X112089000Y-178021000D01*
X112089000Y-177767000D01*
X112109000Y-177767000D01*
X112109000Y-176567750D01*
X112363000Y-176567750D01*
X112363000Y-177767000D01*
X113562250Y-177767000D01*
X113721000Y-177608250D01*
X113721000Y-176917691D01*
X113624327Y-176684302D01*
X113445699Y-176505673D01*
X113212310Y-176409000D01*
X112521750Y-176409000D01*
X112363000Y-176567750D01*
X112109000Y-176567750D01*
X111950250Y-176409000D01*
X111259690Y-176409000D01*
X111026301Y-176505673D01*
X110847673Y-176684302D01*
X110775403Y-176858777D01*
X110746054Y-176814853D01*
X110264285Y-176492946D01*
X110048000Y-176449924D01*
X110048000Y-161275248D01*
X109990148Y-160984409D01*
X109990148Y-160984408D01*
X109825401Y-160737847D01*
X104527736Y-155440182D01*
X104527880Y-155274978D01*
X104370643Y-154894434D01*
X104079747Y-154603030D01*
X103699478Y-154445129D01*
X103287730Y-154444770D01*
X102907186Y-154602007D01*
X102615782Y-154892903D01*
X102457881Y-155273172D01*
X102457779Y-155390552D01*
X102352485Y-155434058D01*
X102061081Y-155724954D01*
X101903180Y-156105223D01*
X101902821Y-156516971D01*
X102060058Y-156897515D01*
X102350954Y-157188919D01*
X102686000Y-157328042D01*
X102686000Y-158419959D01*
X102516019Y-158419811D01*
X102135475Y-158577048D01*
X102090116Y-158622328D01*
X101814666Y-158507951D01*
X101402918Y-158507592D01*
X101022374Y-158664829D01*
X100960292Y-158726802D01*
X100604777Y-158579180D01*
X100193029Y-158578821D01*
X99812485Y-158736058D01*
X99521081Y-159026954D01*
X99363180Y-159407223D01*
X99362992Y-159622679D01*
X99295853Y-159723160D01*
X99238001Y-160013999D01*
X99238001Y-160207197D01*
X97574599Y-161870599D01*
X97409852Y-162117161D01*
X97352000Y-162408000D01*
X97352000Y-176450720D01*
X96996000Y-176379907D01*
X96427715Y-176492946D01*
X95945946Y-176814853D01*
X95726000Y-177144026D01*
X95506054Y-176814853D01*
X95024285Y-176492946D01*
X94456000Y-176379907D01*
X93887715Y-176492946D01*
X93405946Y-176814853D01*
X93084039Y-177296622D01*
X92971000Y-177864907D01*
X92861000Y-177864907D01*
X92861000Y-168030000D01*
X92793633Y-167691325D01*
X92644227Y-167467722D01*
X92760863Y-167186831D01*
X92761136Y-166874539D01*
X92722125Y-166780124D01*
X92760863Y-166686831D01*
X92761136Y-166374539D01*
X92722125Y-166280124D01*
X92760863Y-166186831D01*
X92761136Y-165874539D01*
X92722125Y-165780124D01*
X92760863Y-165686831D01*
X92761136Y-165374539D01*
X92722125Y-165280124D01*
X92760863Y-165186831D01*
X92761136Y-164874539D01*
X92644401Y-164592018D01*
X92793633Y-164368675D01*
X92861000Y-164030000D01*
X92861000Y-152915000D01*
X100976000Y-152915000D01*
X101314675Y-152847633D01*
X101538278Y-152698227D01*
X101819169Y-152814863D01*
G36*
X108528000Y-161590050D02*
X108528000Y-176991372D01*
X108426000Y-177144026D01*
X108206054Y-176814853D01*
X107916000Y-176621046D01*
X107916000Y-162054000D01*
X107858148Y-161763161D01*
X107693401Y-161516599D01*
X105306572Y-159129770D01*
X105306716Y-158964566D01*
X105149479Y-158584022D01*
X104858583Y-158292618D01*
X104478314Y-158134717D01*
X104206000Y-158134480D01*
X104206000Y-157268050D01*
X108528000Y-161590050D01*
X108528000Y-161590050D01*
G37*
X108528000Y-161590050D02*
X108528000Y-176991372D01*
X108426000Y-177144026D01*
X108206054Y-176814853D01*
X107916000Y-176621046D01*
X107916000Y-162054000D01*
X107858148Y-161763161D01*
X107693401Y-161516599D01*
X105306572Y-159129770D01*
X105306716Y-158964566D01*
X105149479Y-158584022D01*
X104858583Y-158292618D01*
X104478314Y-158134717D01*
X104206000Y-158134480D01*
X104206000Y-157268050D01*
X108528000Y-161590050D01*
G36*
X104231701Y-160204503D02*
X106396000Y-162368802D01*
X106396000Y-176621046D01*
X106105946Y-176814853D01*
X105886000Y-177144026D01*
X105666054Y-176814853D01*
X105184285Y-176492946D01*
X104616000Y-176379907D01*
X104249592Y-176452790D01*
X104206000Y-176409198D01*
X104206000Y-160204480D01*
X104231701Y-160204503D01*
X104231701Y-160204503D01*
G37*
X104231701Y-160204503D02*
X106396000Y-162368802D01*
X106396000Y-176621046D01*
X106105946Y-176814853D01*
X105886000Y-177144026D01*
X105666054Y-176814853D01*
X105184285Y-176492946D01*
X104616000Y-176379907D01*
X104249592Y-176452790D01*
X104206000Y-176409198D01*
X104206000Y-160204480D01*
X104231701Y-160204503D01*
G36*
X100146000Y-176209198D02*
X99902408Y-176452790D01*
X99536000Y-176379907D01*
X98967715Y-176492946D01*
X98872000Y-176556901D01*
X98872000Y-162722802D01*
X100146000Y-161448802D01*
X100146000Y-176209198D01*
X100146000Y-176209198D01*
G37*
X100146000Y-176209198D02*
X99902408Y-176452790D01*
X99536000Y-176379907D01*
X98967715Y-176492946D01*
X98872000Y-176556901D01*
X98872000Y-162722802D01*
X100146000Y-161448802D01*
X100146000Y-176209198D01*
G36*
X102686000Y-176520819D02*
X102644285Y-176492946D01*
X102428000Y-176449924D01*
X102428000Y-160822782D01*
X102686000Y-160564782D01*
X102686000Y-176520819D01*
X102686000Y-176520819D01*
G37*
X102686000Y-176520819D02*
X102644285Y-176492946D01*
X102428000Y-176449924D01*
X102428000Y-160822782D01*
X102686000Y-160564782D01*
X102686000Y-176520819D01*
G36*
X32819169Y-152814863D02*
X33131461Y-152815136D01*
X33225876Y-152776125D01*
X33319169Y-152814863D01*
X33631461Y-152815136D01*
X33725876Y-152776125D01*
X33819169Y-152814863D01*
X34131461Y-152815136D01*
X34225876Y-152776125D01*
X34319169Y-152814863D01*
X34631461Y-152815136D01*
X34725876Y-152776125D01*
X34819169Y-152814863D01*
X35131461Y-152815136D01*
X35413982Y-152698401D01*
X35637325Y-152847633D01*
X35976000Y-152915000D01*
X45091000Y-152915000D01*
X45091000Y-164030000D01*
X45158367Y-164368675D01*
X45307773Y-164592278D01*
X45191137Y-164873169D01*
X45190864Y-165185461D01*
X45229875Y-165279876D01*
X45191137Y-165373169D01*
X45190864Y-165685461D01*
X45229875Y-165779876D01*
X45191137Y-165873169D01*
X45190864Y-166185461D01*
X45229875Y-166279876D01*
X45191137Y-166373169D01*
X45190864Y-166685461D01*
X45229875Y-166779876D01*
X45191137Y-166873169D01*
X45190864Y-167185461D01*
X45307599Y-167467982D01*
X45158367Y-167691325D01*
X45091000Y-168030000D01*
X45091000Y-180145000D01*
X35976000Y-180145000D01*
X35637325Y-180212367D01*
X35476240Y-180320000D01*
X35313122Y-180320000D01*
X35132831Y-180245137D01*
X34820539Y-180244864D01*
X34726124Y-180283875D01*
X34632831Y-180245137D01*
X34320539Y-180244864D01*
X34226124Y-180283875D01*
X34132831Y-180245137D01*
X33820539Y-180244864D01*
X33726124Y-180283875D01*
X33632831Y-180245137D01*
X33320539Y-180244864D01*
X33226124Y-180283875D01*
X33132831Y-180245137D01*
X32820539Y-180244864D01*
X32638695Y-180320000D01*
X32475760Y-180320000D01*
X32314675Y-180212367D01*
X31976000Y-180145000D01*
X23861000Y-180145000D01*
X23861000Y-177864907D01*
X23971000Y-177864907D01*
X23971000Y-177923093D01*
X24084039Y-178491378D01*
X24405946Y-178973147D01*
X24887715Y-179295054D01*
X25456000Y-179408093D01*
X26024285Y-179295054D01*
X26506054Y-178973147D01*
X26726000Y-178643974D01*
X26945946Y-178973147D01*
X27427715Y-179295054D01*
X27996000Y-179408093D01*
X28564285Y-179295054D01*
X29046054Y-178973147D01*
X29266000Y-178643974D01*
X29485946Y-178973147D01*
X29967715Y-179295054D01*
X30536000Y-179408093D01*
X31104285Y-179295054D01*
X31586054Y-178973147D01*
X31806000Y-178643974D01*
X32025946Y-178973147D01*
X32507715Y-179295054D01*
X33076000Y-179408093D01*
X33644285Y-179295054D01*
X34126054Y-178973147D01*
X34346000Y-178643974D01*
X34565946Y-178973147D01*
X35047715Y-179295054D01*
X35616000Y-179408093D01*
X36184285Y-179295054D01*
X36666054Y-178973147D01*
X36886000Y-178643974D01*
X37105946Y-178973147D01*
X37587715Y-179295054D01*
X38156000Y-179408093D01*
X38724285Y-179295054D01*
X39206054Y-178973147D01*
X39426000Y-178643974D01*
X39645946Y-178973147D01*
X40127715Y-179295054D01*
X40696000Y-179408093D01*
X41264285Y-179295054D01*
X41746054Y-178973147D01*
X41775403Y-178929223D01*
X41847673Y-179103698D01*
X42026301Y-179282327D01*
X42259690Y-179379000D01*
X42950250Y-179379000D01*
X43109000Y-179220250D01*
X43109000Y-178021000D01*
X43363000Y-178021000D01*
X43363000Y-179220250D01*
X43521750Y-179379000D01*
X44212310Y-179379000D01*
X44445699Y-179282327D01*
X44624327Y-179103698D01*
X44721000Y-178870309D01*
X44721000Y-178179750D01*
X44562250Y-178021000D01*
X43363000Y-178021000D01*
X43109000Y-178021000D01*
X43089000Y-178021000D01*
X43089000Y-177767000D01*
X43109000Y-177767000D01*
X43109000Y-176567750D01*
X43363000Y-176567750D01*
X43363000Y-177767000D01*
X44562250Y-177767000D01*
X44721000Y-177608250D01*
X44721000Y-176917691D01*
X44624327Y-176684302D01*
X44445699Y-176505673D01*
X44212310Y-176409000D01*
X43521750Y-176409000D01*
X43363000Y-176567750D01*
X43109000Y-176567750D01*
X42950250Y-176409000D01*
X42259690Y-176409000D01*
X42026301Y-176505673D01*
X41847673Y-176684302D01*
X41775403Y-176858777D01*
X41746054Y-176814853D01*
X41264285Y-176492946D01*
X41048000Y-176449924D01*
X41048000Y-161275248D01*
X40990148Y-160984409D01*
X40990148Y-160984408D01*
X40825401Y-160737847D01*
X35527736Y-155440182D01*
X35527880Y-155274978D01*
X35370643Y-154894434D01*
X35079747Y-154603030D01*
X34699478Y-154445129D01*
X34287730Y-154444770D01*
X33907186Y-154602007D01*
X33615782Y-154892903D01*
X33457881Y-155273172D01*
X33457779Y-155390552D01*
X33352485Y-155434058D01*
X33061081Y-155724954D01*
X32903180Y-156105223D01*
X32902821Y-156516971D01*
X33060058Y-156897515D01*
X33350954Y-157188919D01*
X33686000Y-157328042D01*
X33686000Y-158419959D01*
X33516019Y-158419811D01*
X33135475Y-158577048D01*
X33090116Y-158622328D01*
X32814666Y-158507951D01*
X32402918Y-158507592D01*
X32022374Y-158664829D01*
X31960292Y-158726802D01*
X31604777Y-158579180D01*
X31193029Y-158578821D01*
X30812485Y-158736058D01*
X30521081Y-159026954D01*
X30363180Y-159407223D01*
X30362992Y-159622679D01*
X30295853Y-159723160D01*
X30238001Y-160013999D01*
X30238001Y-160207197D01*
X28574599Y-161870599D01*
X28409852Y-162117161D01*
X28352000Y-162408000D01*
X28352000Y-176450720D01*
X27996000Y-176379907D01*
X27427715Y-176492946D01*
X26945946Y-176814853D01*
X26726000Y-177144026D01*
X26506054Y-176814853D01*
X26024285Y-176492946D01*
X25456000Y-176379907D01*
X24887715Y-176492946D01*
X24405946Y-176814853D01*
X24084039Y-177296622D01*
X23971000Y-177864907D01*
X23861000Y-177864907D01*
X23861000Y-168030000D01*
X23793633Y-167691325D01*
X23644227Y-167467722D01*
X23760863Y-167186831D01*
X23761136Y-166874539D01*
X23722125Y-166780124D01*
X23760863Y-166686831D01*
X23761136Y-166374539D01*
X23722125Y-166280124D01*
X23760863Y-166186831D01*
X23761136Y-165874539D01*
X23722125Y-165780124D01*
X23760863Y-165686831D01*
X23761136Y-165374539D01*
X23722125Y-165280124D01*
X23760863Y-165186831D01*
X23761136Y-164874539D01*
X23644401Y-164592018D01*
X23793633Y-164368675D01*
X23861000Y-164030000D01*
X23861000Y-152915000D01*
X31976000Y-152915000D01*
X32314675Y-152847633D01*
X32538278Y-152698227D01*
X32819169Y-152814863D01*
X32819169Y-152814863D01*
G37*
X32819169Y-152814863D02*
X33131461Y-152815136D01*
X33225876Y-152776125D01*
X33319169Y-152814863D01*
X33631461Y-152815136D01*
X33725876Y-152776125D01*
X33819169Y-152814863D01*
X34131461Y-152815136D01*
X34225876Y-152776125D01*
X34319169Y-152814863D01*
X34631461Y-152815136D01*
X34725876Y-152776125D01*
X34819169Y-152814863D01*
X35131461Y-152815136D01*
X35413982Y-152698401D01*
X35637325Y-152847633D01*
X35976000Y-152915000D01*
X45091000Y-152915000D01*
X45091000Y-164030000D01*
X45158367Y-164368675D01*
X45307773Y-164592278D01*
X45191137Y-164873169D01*
X45190864Y-165185461D01*
X45229875Y-165279876D01*
X45191137Y-165373169D01*
X45190864Y-165685461D01*
X45229875Y-165779876D01*
X45191137Y-165873169D01*
X45190864Y-166185461D01*
X45229875Y-166279876D01*
X45191137Y-166373169D01*
X45190864Y-166685461D01*
X45229875Y-166779876D01*
X45191137Y-166873169D01*
X45190864Y-167185461D01*
X45307599Y-167467982D01*
X45158367Y-167691325D01*
X45091000Y-168030000D01*
X45091000Y-180145000D01*
X35976000Y-180145000D01*
X35637325Y-180212367D01*
X35476240Y-180320000D01*
X35313122Y-180320000D01*
X35132831Y-180245137D01*
X34820539Y-180244864D01*
X34726124Y-180283875D01*
X34632831Y-180245137D01*
X34320539Y-180244864D01*
X34226124Y-180283875D01*
X34132831Y-180245137D01*
X33820539Y-180244864D01*
X33726124Y-180283875D01*
X33632831Y-180245137D01*
X33320539Y-180244864D01*
X33226124Y-180283875D01*
X33132831Y-180245137D01*
X32820539Y-180244864D01*
X32638695Y-180320000D01*
X32475760Y-180320000D01*
X32314675Y-180212367D01*
X31976000Y-180145000D01*
X23861000Y-180145000D01*
X23861000Y-177864907D01*
X23971000Y-177864907D01*
X23971000Y-177923093D01*
X24084039Y-178491378D01*
X24405946Y-178973147D01*
X24887715Y-179295054D01*
X25456000Y-179408093D01*
X26024285Y-179295054D01*
X26506054Y-178973147D01*
X26726000Y-178643974D01*
X26945946Y-178973147D01*
X27427715Y-179295054D01*
X27996000Y-179408093D01*
X28564285Y-179295054D01*
X29046054Y-178973147D01*
X29266000Y-178643974D01*
X29485946Y-178973147D01*
X29967715Y-179295054D01*
X30536000Y-179408093D01*
X31104285Y-179295054D01*
X31586054Y-178973147D01*
X31806000Y-178643974D01*
X32025946Y-178973147D01*
X32507715Y-179295054D01*
X33076000Y-179408093D01*
X33644285Y-179295054D01*
X34126054Y-178973147D01*
X34346000Y-178643974D01*
X34565946Y-178973147D01*
X35047715Y-179295054D01*
X35616000Y-179408093D01*
X36184285Y-179295054D01*
X36666054Y-178973147D01*
X36886000Y-178643974D01*
X37105946Y-178973147D01*
X37587715Y-179295054D01*
X38156000Y-179408093D01*
X38724285Y-179295054D01*
X39206054Y-178973147D01*
X39426000Y-178643974D01*
X39645946Y-178973147D01*
X40127715Y-179295054D01*
X40696000Y-179408093D01*
X41264285Y-179295054D01*
X41746054Y-178973147D01*
X41775403Y-178929223D01*
X41847673Y-179103698D01*
X42026301Y-179282327D01*
X42259690Y-179379000D01*
X42950250Y-179379000D01*
X43109000Y-179220250D01*
X43109000Y-178021000D01*
X43363000Y-178021000D01*
X43363000Y-179220250D01*
X43521750Y-179379000D01*
X44212310Y-179379000D01*
X44445699Y-179282327D01*
X44624327Y-179103698D01*
X44721000Y-178870309D01*
X44721000Y-178179750D01*
X44562250Y-178021000D01*
X43363000Y-178021000D01*
X43109000Y-178021000D01*
X43089000Y-178021000D01*
X43089000Y-177767000D01*
X43109000Y-177767000D01*
X43109000Y-176567750D01*
X43363000Y-176567750D01*
X43363000Y-177767000D01*
X44562250Y-177767000D01*
X44721000Y-177608250D01*
X44721000Y-176917691D01*
X44624327Y-176684302D01*
X44445699Y-176505673D01*
X44212310Y-176409000D01*
X43521750Y-176409000D01*
X43363000Y-176567750D01*
X43109000Y-176567750D01*
X42950250Y-176409000D01*
X42259690Y-176409000D01*
X42026301Y-176505673D01*
X41847673Y-176684302D01*
X41775403Y-176858777D01*
X41746054Y-176814853D01*
X41264285Y-176492946D01*
X41048000Y-176449924D01*
X41048000Y-161275248D01*
X40990148Y-160984409D01*
X40990148Y-160984408D01*
X40825401Y-160737847D01*
X35527736Y-155440182D01*
X35527880Y-155274978D01*
X35370643Y-154894434D01*
X35079747Y-154603030D01*
X34699478Y-154445129D01*
X34287730Y-154444770D01*
X33907186Y-154602007D01*
X33615782Y-154892903D01*
X33457881Y-155273172D01*
X33457779Y-155390552D01*
X33352485Y-155434058D01*
X33061081Y-155724954D01*
X32903180Y-156105223D01*
X32902821Y-156516971D01*
X33060058Y-156897515D01*
X33350954Y-157188919D01*
X33686000Y-157328042D01*
X33686000Y-158419959D01*
X33516019Y-158419811D01*
X33135475Y-158577048D01*
X33090116Y-158622328D01*
X32814666Y-158507951D01*
X32402918Y-158507592D01*
X32022374Y-158664829D01*
X31960292Y-158726802D01*
X31604777Y-158579180D01*
X31193029Y-158578821D01*
X30812485Y-158736058D01*
X30521081Y-159026954D01*
X30363180Y-159407223D01*
X30362992Y-159622679D01*
X30295853Y-159723160D01*
X30238001Y-160013999D01*
X30238001Y-160207197D01*
X28574599Y-161870599D01*
X28409852Y-162117161D01*
X28352000Y-162408000D01*
X28352000Y-176450720D01*
X27996000Y-176379907D01*
X27427715Y-176492946D01*
X26945946Y-176814853D01*
X26726000Y-177144026D01*
X26506054Y-176814853D01*
X26024285Y-176492946D01*
X25456000Y-176379907D01*
X24887715Y-176492946D01*
X24405946Y-176814853D01*
X24084039Y-177296622D01*
X23971000Y-177864907D01*
X23861000Y-177864907D01*
X23861000Y-168030000D01*
X23793633Y-167691325D01*
X23644227Y-167467722D01*
X23760863Y-167186831D01*
X23761136Y-166874539D01*
X23722125Y-166780124D01*
X23760863Y-166686831D01*
X23761136Y-166374539D01*
X23722125Y-166280124D01*
X23760863Y-166186831D01*
X23761136Y-165874539D01*
X23722125Y-165780124D01*
X23760863Y-165686831D01*
X23761136Y-165374539D01*
X23722125Y-165280124D01*
X23760863Y-165186831D01*
X23761136Y-164874539D01*
X23644401Y-164592018D01*
X23793633Y-164368675D01*
X23861000Y-164030000D01*
X23861000Y-152915000D01*
X31976000Y-152915000D01*
X32314675Y-152847633D01*
X32538278Y-152698227D01*
X32819169Y-152814863D01*
G36*
X39528000Y-161590050D02*
X39528000Y-176991372D01*
X39426000Y-177144026D01*
X39206054Y-176814853D01*
X38916000Y-176621046D01*
X38916000Y-162054000D01*
X38858148Y-161763161D01*
X38693401Y-161516599D01*
X36306572Y-159129770D01*
X36306716Y-158964566D01*
X36149479Y-158584022D01*
X35858583Y-158292618D01*
X35478314Y-158134717D01*
X35206000Y-158134480D01*
X35206000Y-157268050D01*
X39528000Y-161590050D01*
X39528000Y-161590050D01*
G37*
X39528000Y-161590050D02*
X39528000Y-176991372D01*
X39426000Y-177144026D01*
X39206054Y-176814853D01*
X38916000Y-176621046D01*
X38916000Y-162054000D01*
X38858148Y-161763161D01*
X38693401Y-161516599D01*
X36306572Y-159129770D01*
X36306716Y-158964566D01*
X36149479Y-158584022D01*
X35858583Y-158292618D01*
X35478314Y-158134717D01*
X35206000Y-158134480D01*
X35206000Y-157268050D01*
X39528000Y-161590050D01*
G36*
X35231701Y-160204503D02*
X37396000Y-162368802D01*
X37396000Y-176621046D01*
X37105946Y-176814853D01*
X36886000Y-177144026D01*
X36666054Y-176814853D01*
X36184285Y-176492946D01*
X35616000Y-176379907D01*
X35249592Y-176452790D01*
X35206000Y-176409198D01*
X35206000Y-160204480D01*
X35231701Y-160204503D01*
X35231701Y-160204503D01*
G37*
X35231701Y-160204503D02*
X37396000Y-162368802D01*
X37396000Y-176621046D01*
X37105946Y-176814853D01*
X36886000Y-177144026D01*
X36666054Y-176814853D01*
X36184285Y-176492946D01*
X35616000Y-176379907D01*
X35249592Y-176452790D01*
X35206000Y-176409198D01*
X35206000Y-160204480D01*
X35231701Y-160204503D01*
G36*
X31146000Y-176209198D02*
X30902408Y-176452790D01*
X30536000Y-176379907D01*
X29967715Y-176492946D01*
X29872000Y-176556901D01*
X29872000Y-162722802D01*
X31146000Y-161448802D01*
X31146000Y-176209198D01*
X31146000Y-176209198D01*
G37*
X31146000Y-176209198D02*
X30902408Y-176452790D01*
X30536000Y-176379907D01*
X29967715Y-176492946D01*
X29872000Y-176556901D01*
X29872000Y-162722802D01*
X31146000Y-161448802D01*
X31146000Y-176209198D01*
G36*
X33686000Y-176520819D02*
X33644285Y-176492946D01*
X33428000Y-176449924D01*
X33428000Y-160822782D01*
X33686000Y-160564782D01*
X33686000Y-176520819D01*
X33686000Y-176520819D01*
G37*
X33686000Y-176520819D02*
X33644285Y-176492946D01*
X33428000Y-176449924D01*
X33428000Y-160822782D01*
X33686000Y-160564782D01*
X33686000Y-176520819D01*
G36*
X55819169Y-152814863D02*
X56131461Y-152815136D01*
X56225876Y-152776125D01*
X56319169Y-152814863D01*
X56631461Y-152815136D01*
X56725876Y-152776125D01*
X56819169Y-152814863D01*
X57131461Y-152815136D01*
X57225876Y-152776125D01*
X57319169Y-152814863D01*
X57631461Y-152815136D01*
X57725876Y-152776125D01*
X57819169Y-152814863D01*
X58131461Y-152815136D01*
X58413982Y-152698401D01*
X58637325Y-152847633D01*
X58976000Y-152915000D01*
X68091000Y-152915000D01*
X68091000Y-164030000D01*
X68158367Y-164368675D01*
X68307773Y-164592278D01*
X68191137Y-164873169D01*
X68190864Y-165185461D01*
X68229875Y-165279876D01*
X68191137Y-165373169D01*
X68190864Y-165685461D01*
X68229875Y-165779876D01*
X68191137Y-165873169D01*
X68190864Y-166185461D01*
X68229875Y-166279876D01*
X68191137Y-166373169D01*
X68190864Y-166685461D01*
X68229875Y-166779876D01*
X68191137Y-166873169D01*
X68190864Y-167185461D01*
X68307599Y-167467982D01*
X68158367Y-167691325D01*
X68091000Y-168030000D01*
X68091000Y-180145000D01*
X58976000Y-180145000D01*
X58637325Y-180212367D01*
X58476240Y-180320000D01*
X58313122Y-180320000D01*
X58132831Y-180245137D01*
X57820539Y-180244864D01*
X57726124Y-180283875D01*
X57632831Y-180245137D01*
X57320539Y-180244864D01*
X57226124Y-180283875D01*
X57132831Y-180245137D01*
X56820539Y-180244864D01*
X56726124Y-180283875D01*
X56632831Y-180245137D01*
X56320539Y-180244864D01*
X56226124Y-180283875D01*
X56132831Y-180245137D01*
X55820539Y-180244864D01*
X55638695Y-180320000D01*
X55475760Y-180320000D01*
X55314675Y-180212367D01*
X54976000Y-180145000D01*
X46861000Y-180145000D01*
X46861000Y-177864907D01*
X46971000Y-177864907D01*
X46971000Y-177923093D01*
X47084039Y-178491378D01*
X47405946Y-178973147D01*
X47887715Y-179295054D01*
X48456000Y-179408093D01*
X49024285Y-179295054D01*
X49506054Y-178973147D01*
X49726000Y-178643974D01*
X49945946Y-178973147D01*
X50427715Y-179295054D01*
X50996000Y-179408093D01*
X51564285Y-179295054D01*
X52046054Y-178973147D01*
X52266000Y-178643974D01*
X52485946Y-178973147D01*
X52967715Y-179295054D01*
X53536000Y-179408093D01*
X54104285Y-179295054D01*
X54586054Y-178973147D01*
X54806000Y-178643974D01*
X55025946Y-178973147D01*
X55507715Y-179295054D01*
X56076000Y-179408093D01*
X56644285Y-179295054D01*
X57126054Y-178973147D01*
X57346000Y-178643974D01*
X57565946Y-178973147D01*
X58047715Y-179295054D01*
X58616000Y-179408093D01*
X59184285Y-179295054D01*
X59666054Y-178973147D01*
X59886000Y-178643974D01*
X60105946Y-178973147D01*
X60587715Y-179295054D01*
X61156000Y-179408093D01*
X61724285Y-179295054D01*
X62206054Y-178973147D01*
X62426000Y-178643974D01*
X62645946Y-178973147D01*
X63127715Y-179295054D01*
X63696000Y-179408093D01*
X64264285Y-179295054D01*
X64746054Y-178973147D01*
X64775403Y-178929223D01*
X64847673Y-179103698D01*
X65026301Y-179282327D01*
X65259690Y-179379000D01*
X65950250Y-179379000D01*
X66109000Y-179220250D01*
X66109000Y-178021000D01*
X66363000Y-178021000D01*
X66363000Y-179220250D01*
X66521750Y-179379000D01*
X67212310Y-179379000D01*
X67445699Y-179282327D01*
X67624327Y-179103698D01*
X67721000Y-178870309D01*
X67721000Y-178179750D01*
X67562250Y-178021000D01*
X66363000Y-178021000D01*
X66109000Y-178021000D01*
X66089000Y-178021000D01*
X66089000Y-177767000D01*
X66109000Y-177767000D01*
X66109000Y-176567750D01*
X66363000Y-176567750D01*
X66363000Y-177767000D01*
X67562250Y-177767000D01*
X67721000Y-177608250D01*
X67721000Y-176917691D01*
X67624327Y-176684302D01*
X67445699Y-176505673D01*
X67212310Y-176409000D01*
X66521750Y-176409000D01*
X66363000Y-176567750D01*
X66109000Y-176567750D01*
X65950250Y-176409000D01*
X65259690Y-176409000D01*
X65026301Y-176505673D01*
X64847673Y-176684302D01*
X64775403Y-176858777D01*
X64746054Y-176814853D01*
X64264285Y-176492946D01*
X64048000Y-176449924D01*
X64048000Y-161275248D01*
X63990148Y-160984409D01*
X63990148Y-160984408D01*
X63825401Y-160737847D01*
X58527736Y-155440182D01*
X58527880Y-155274978D01*
X58370643Y-154894434D01*
X58079747Y-154603030D01*
X57699478Y-154445129D01*
X57287730Y-154444770D01*
X56907186Y-154602007D01*
X56615782Y-154892903D01*
X56457881Y-155273172D01*
X56457779Y-155390552D01*
X56352485Y-155434058D01*
X56061081Y-155724954D01*
X55903180Y-156105223D01*
X55902821Y-156516971D01*
X56060058Y-156897515D01*
X56350954Y-157188919D01*
X56686000Y-157328042D01*
X56686000Y-158419959D01*
X56516019Y-158419811D01*
X56135475Y-158577048D01*
X56090116Y-158622328D01*
X55814666Y-158507951D01*
X55402918Y-158507592D01*
X55022374Y-158664829D01*
X54960292Y-158726802D01*
X54604777Y-158579180D01*
X54193029Y-158578821D01*
X53812485Y-158736058D01*
X53521081Y-159026954D01*
X53363180Y-159407223D01*
X53362992Y-159622679D01*
X53295853Y-159723160D01*
X53238001Y-160013999D01*
X53238001Y-160207197D01*
X51574599Y-161870599D01*
X51409852Y-162117161D01*
X51352000Y-162408000D01*
X51352000Y-176450720D01*
X50996000Y-176379907D01*
X50427715Y-176492946D01*
X49945946Y-176814853D01*
X49726000Y-177144026D01*
X49506054Y-176814853D01*
X49024285Y-176492946D01*
X48456000Y-176379907D01*
X47887715Y-176492946D01*
X47405946Y-176814853D01*
X47084039Y-177296622D01*
X46971000Y-177864907D01*
X46861000Y-177864907D01*
X46861000Y-168030000D01*
X46793633Y-167691325D01*
X46644227Y-167467722D01*
X46760863Y-167186831D01*
X46761136Y-166874539D01*
X46722125Y-166780124D01*
X46760863Y-166686831D01*
X46761136Y-166374539D01*
X46722125Y-166280124D01*
X46760863Y-166186831D01*
X46761136Y-165874539D01*
X46722125Y-165780124D01*
X46760863Y-165686831D01*
X46761136Y-165374539D01*
X46722125Y-165280124D01*
X46760863Y-165186831D01*
X46761136Y-164874539D01*
X46644401Y-164592018D01*
X46793633Y-164368675D01*
X46861000Y-164030000D01*
X46861000Y-152915000D01*
X54976000Y-152915000D01*
X55314675Y-152847633D01*
X55538278Y-152698227D01*
X55819169Y-152814863D01*
X55819169Y-152814863D01*
G37*
X55819169Y-152814863D02*
X56131461Y-152815136D01*
X56225876Y-152776125D01*
X56319169Y-152814863D01*
X56631461Y-152815136D01*
X56725876Y-152776125D01*
X56819169Y-152814863D01*
X57131461Y-152815136D01*
X57225876Y-152776125D01*
X57319169Y-152814863D01*
X57631461Y-152815136D01*
X57725876Y-152776125D01*
X57819169Y-152814863D01*
X58131461Y-152815136D01*
X58413982Y-152698401D01*
X58637325Y-152847633D01*
X58976000Y-152915000D01*
X68091000Y-152915000D01*
X68091000Y-164030000D01*
X68158367Y-164368675D01*
X68307773Y-164592278D01*
X68191137Y-164873169D01*
X68190864Y-165185461D01*
X68229875Y-165279876D01*
X68191137Y-165373169D01*
X68190864Y-165685461D01*
X68229875Y-165779876D01*
X68191137Y-165873169D01*
X68190864Y-166185461D01*
X68229875Y-166279876D01*
X68191137Y-166373169D01*
X68190864Y-166685461D01*
X68229875Y-166779876D01*
X68191137Y-166873169D01*
X68190864Y-167185461D01*
X68307599Y-167467982D01*
X68158367Y-167691325D01*
X68091000Y-168030000D01*
X68091000Y-180145000D01*
X58976000Y-180145000D01*
X58637325Y-180212367D01*
X58476240Y-180320000D01*
X58313122Y-180320000D01*
X58132831Y-180245137D01*
X57820539Y-180244864D01*
X57726124Y-180283875D01*
X57632831Y-180245137D01*
X57320539Y-180244864D01*
X57226124Y-180283875D01*
X57132831Y-180245137D01*
X56820539Y-180244864D01*
X56726124Y-180283875D01*
X56632831Y-180245137D01*
X56320539Y-180244864D01*
X56226124Y-180283875D01*
X56132831Y-180245137D01*
X55820539Y-180244864D01*
X55638695Y-180320000D01*
X55475760Y-180320000D01*
X55314675Y-180212367D01*
X54976000Y-180145000D01*
X46861000Y-180145000D01*
X46861000Y-177864907D01*
X46971000Y-177864907D01*
X46971000Y-177923093D01*
X47084039Y-178491378D01*
X47405946Y-178973147D01*
X47887715Y-179295054D01*
X48456000Y-179408093D01*
X49024285Y-179295054D01*
X49506054Y-178973147D01*
X49726000Y-178643974D01*
X49945946Y-178973147D01*
X50427715Y-179295054D01*
X50996000Y-179408093D01*
X51564285Y-179295054D01*
X52046054Y-178973147D01*
X52266000Y-178643974D01*
X52485946Y-178973147D01*
X52967715Y-179295054D01*
X53536000Y-179408093D01*
X54104285Y-179295054D01*
X54586054Y-178973147D01*
X54806000Y-178643974D01*
X55025946Y-178973147D01*
X55507715Y-179295054D01*
X56076000Y-179408093D01*
X56644285Y-179295054D01*
X57126054Y-178973147D01*
X57346000Y-178643974D01*
X57565946Y-178973147D01*
X58047715Y-179295054D01*
X58616000Y-179408093D01*
X59184285Y-179295054D01*
X59666054Y-178973147D01*
X59886000Y-178643974D01*
X60105946Y-178973147D01*
X60587715Y-179295054D01*
X61156000Y-179408093D01*
X61724285Y-179295054D01*
X62206054Y-178973147D01*
X62426000Y-178643974D01*
X62645946Y-178973147D01*
X63127715Y-179295054D01*
X63696000Y-179408093D01*
X64264285Y-179295054D01*
X64746054Y-178973147D01*
X64775403Y-178929223D01*
X64847673Y-179103698D01*
X65026301Y-179282327D01*
X65259690Y-179379000D01*
X65950250Y-179379000D01*
X66109000Y-179220250D01*
X66109000Y-178021000D01*
X66363000Y-178021000D01*
X66363000Y-179220250D01*
X66521750Y-179379000D01*
X67212310Y-179379000D01*
X67445699Y-179282327D01*
X67624327Y-179103698D01*
X67721000Y-178870309D01*
X67721000Y-178179750D01*
X67562250Y-178021000D01*
X66363000Y-178021000D01*
X66109000Y-178021000D01*
X66089000Y-178021000D01*
X66089000Y-177767000D01*
X66109000Y-177767000D01*
X66109000Y-176567750D01*
X66363000Y-176567750D01*
X66363000Y-177767000D01*
X67562250Y-177767000D01*
X67721000Y-177608250D01*
X67721000Y-176917691D01*
X67624327Y-176684302D01*
X67445699Y-176505673D01*
X67212310Y-176409000D01*
X66521750Y-176409000D01*
X66363000Y-176567750D01*
X66109000Y-176567750D01*
X65950250Y-176409000D01*
X65259690Y-176409000D01*
X65026301Y-176505673D01*
X64847673Y-176684302D01*
X64775403Y-176858777D01*
X64746054Y-176814853D01*
X64264285Y-176492946D01*
X64048000Y-176449924D01*
X64048000Y-161275248D01*
X63990148Y-160984409D01*
X63990148Y-160984408D01*
X63825401Y-160737847D01*
X58527736Y-155440182D01*
X58527880Y-155274978D01*
X58370643Y-154894434D01*
X58079747Y-154603030D01*
X57699478Y-154445129D01*
X57287730Y-154444770D01*
X56907186Y-154602007D01*
X56615782Y-154892903D01*
X56457881Y-155273172D01*
X56457779Y-155390552D01*
X56352485Y-155434058D01*
X56061081Y-155724954D01*
X55903180Y-156105223D01*
X55902821Y-156516971D01*
X56060058Y-156897515D01*
X56350954Y-157188919D01*
X56686000Y-157328042D01*
X56686000Y-158419959D01*
X56516019Y-158419811D01*
X56135475Y-158577048D01*
X56090116Y-158622328D01*
X55814666Y-158507951D01*
X55402918Y-158507592D01*
X55022374Y-158664829D01*
X54960292Y-158726802D01*
X54604777Y-158579180D01*
X54193029Y-158578821D01*
X53812485Y-158736058D01*
X53521081Y-159026954D01*
X53363180Y-159407223D01*
X53362992Y-159622679D01*
X53295853Y-159723160D01*
X53238001Y-160013999D01*
X53238001Y-160207197D01*
X51574599Y-161870599D01*
X51409852Y-162117161D01*
X51352000Y-162408000D01*
X51352000Y-176450720D01*
X50996000Y-176379907D01*
X50427715Y-176492946D01*
X49945946Y-176814853D01*
X49726000Y-177144026D01*
X49506054Y-176814853D01*
X49024285Y-176492946D01*
X48456000Y-176379907D01*
X47887715Y-176492946D01*
X47405946Y-176814853D01*
X47084039Y-177296622D01*
X46971000Y-177864907D01*
X46861000Y-177864907D01*
X46861000Y-168030000D01*
X46793633Y-167691325D01*
X46644227Y-167467722D01*
X46760863Y-167186831D01*
X46761136Y-166874539D01*
X46722125Y-166780124D01*
X46760863Y-166686831D01*
X46761136Y-166374539D01*
X46722125Y-166280124D01*
X46760863Y-166186831D01*
X46761136Y-165874539D01*
X46722125Y-165780124D01*
X46760863Y-165686831D01*
X46761136Y-165374539D01*
X46722125Y-165280124D01*
X46760863Y-165186831D01*
X46761136Y-164874539D01*
X46644401Y-164592018D01*
X46793633Y-164368675D01*
X46861000Y-164030000D01*
X46861000Y-152915000D01*
X54976000Y-152915000D01*
X55314675Y-152847633D01*
X55538278Y-152698227D01*
X55819169Y-152814863D01*
G36*
X62528000Y-161590050D02*
X62528000Y-176991372D01*
X62426000Y-177144026D01*
X62206054Y-176814853D01*
X61916000Y-176621046D01*
X61916000Y-162054000D01*
X61858148Y-161763161D01*
X61693401Y-161516599D01*
X59306572Y-159129770D01*
X59306716Y-158964566D01*
X59149479Y-158584022D01*
X58858583Y-158292618D01*
X58478314Y-158134717D01*
X58206000Y-158134480D01*
X58206000Y-157268050D01*
X62528000Y-161590050D01*
X62528000Y-161590050D01*
G37*
X62528000Y-161590050D02*
X62528000Y-176991372D01*
X62426000Y-177144026D01*
X62206054Y-176814853D01*
X61916000Y-176621046D01*
X61916000Y-162054000D01*
X61858148Y-161763161D01*
X61693401Y-161516599D01*
X59306572Y-159129770D01*
X59306716Y-158964566D01*
X59149479Y-158584022D01*
X58858583Y-158292618D01*
X58478314Y-158134717D01*
X58206000Y-158134480D01*
X58206000Y-157268050D01*
X62528000Y-161590050D01*
G36*
X58231701Y-160204503D02*
X60396000Y-162368802D01*
X60396000Y-176621046D01*
X60105946Y-176814853D01*
X59886000Y-177144026D01*
X59666054Y-176814853D01*
X59184285Y-176492946D01*
X58616000Y-176379907D01*
X58249592Y-176452790D01*
X58206000Y-176409198D01*
X58206000Y-160204480D01*
X58231701Y-160204503D01*
X58231701Y-160204503D01*
G37*
X58231701Y-160204503D02*
X60396000Y-162368802D01*
X60396000Y-176621046D01*
X60105946Y-176814853D01*
X59886000Y-177144026D01*
X59666054Y-176814853D01*
X59184285Y-176492946D01*
X58616000Y-176379907D01*
X58249592Y-176452790D01*
X58206000Y-176409198D01*
X58206000Y-160204480D01*
X58231701Y-160204503D01*
G36*
X54146000Y-176209198D02*
X53902408Y-176452790D01*
X53536000Y-176379907D01*
X52967715Y-176492946D01*
X52872000Y-176556901D01*
X52872000Y-162722802D01*
X54146000Y-161448802D01*
X54146000Y-176209198D01*
X54146000Y-176209198D01*
G37*
X54146000Y-176209198D02*
X53902408Y-176452790D01*
X53536000Y-176379907D01*
X52967715Y-176492946D01*
X52872000Y-176556901D01*
X52872000Y-162722802D01*
X54146000Y-161448802D01*
X54146000Y-176209198D01*
G36*
X56686000Y-176520819D02*
X56644285Y-176492946D01*
X56428000Y-176449924D01*
X56428000Y-160822782D01*
X56686000Y-160564782D01*
X56686000Y-176520819D01*
X56686000Y-176520819D01*
G37*
X56686000Y-176520819D02*
X56644285Y-176492946D01*
X56428000Y-176449924D01*
X56428000Y-160822782D01*
X56686000Y-160564782D01*
X56686000Y-176520819D01*
M02*
