G04 #@! TF.FileFunction,Soldermask,Bot*
%FSLAX46Y46*%
G04 Gerber Fmt 4.6, Leading zero omitted, Abs format (unit mm)*
G04 Created by KiCad (PCBNEW no-vcs-found-undefined) date Sun Nov  6 11:39:55 2016*
%MOMM*%
%LPD*%
G01*
G04 APERTURE LIST*
%ADD10C,0.100000*%
%ADD11R,2.432000X2.127200*%
%ADD12O,2.432000X2.127200*%
%ADD13C,2.900000*%
G04 APERTURE END LIST*
D10*
D11*
X89941400Y-95351600D03*
D12*
X89941400Y-97891600D03*
X89941400Y-100431600D03*
X89941400Y-102971600D03*
X89941400Y-105511600D03*
X89941400Y-108051600D03*
X89941400Y-110591600D03*
X89941400Y-113131600D03*
X89941400Y-115671600D03*
X89941400Y-118211600D03*
X89941400Y-120751600D03*
X89941400Y-123291600D03*
X89941400Y-125831600D03*
X89941400Y-128371600D03*
X89941400Y-130911600D03*
X89941400Y-133451600D03*
X115341400Y-95351600D03*
X115341400Y-97891600D03*
X115341400Y-100431600D03*
X115341400Y-102971600D03*
X115341400Y-105511600D03*
X115341400Y-108051600D03*
X115341400Y-110591600D03*
X115341400Y-113131600D03*
X115341400Y-115671600D03*
X115341400Y-118211600D03*
X115341400Y-120751600D03*
X115341400Y-123291600D03*
X115341400Y-125831600D03*
X115341400Y-128371600D03*
X115341400Y-130911600D03*
D11*
X115341400Y-133451600D03*
D13*
X100177000Y-136025000D03*
X105177000Y-136025000D03*
X72157000Y-136025000D03*
X67157000Y-136025000D03*
D11*
X82321400Y-133451600D03*
D12*
X82321400Y-130911600D03*
X82321400Y-128371600D03*
X82321400Y-125831600D03*
X82321400Y-123291600D03*
X82321400Y-120751600D03*
X82321400Y-118211600D03*
X82321400Y-115671600D03*
X82321400Y-113131600D03*
X82321400Y-110591600D03*
X82321400Y-108051600D03*
X82321400Y-105511600D03*
X82321400Y-102971600D03*
X82321400Y-100431600D03*
X82321400Y-97891600D03*
X82321400Y-95351600D03*
X56921400Y-133451600D03*
X56921400Y-130911600D03*
X56921400Y-128371600D03*
X56921400Y-125831600D03*
X56921400Y-123291600D03*
X56921400Y-120751600D03*
X56921400Y-118211600D03*
X56921400Y-115671600D03*
X56921400Y-113131600D03*
X56921400Y-110591600D03*
X56921400Y-108051600D03*
X56921400Y-105511600D03*
X56921400Y-102971600D03*
X56921400Y-100431600D03*
X56921400Y-97891600D03*
D11*
X56921400Y-95351600D03*
X23901400Y-95351600D03*
D12*
X23901400Y-97891600D03*
X23901400Y-100431600D03*
X23901400Y-102971600D03*
X23901400Y-105511600D03*
X23901400Y-108051600D03*
X23901400Y-110591600D03*
X23901400Y-113131600D03*
X23901400Y-115671600D03*
X23901400Y-118211600D03*
X23901400Y-120751600D03*
X23901400Y-123291600D03*
X23901400Y-125831600D03*
X23901400Y-128371600D03*
X23901400Y-130911600D03*
X23901400Y-133451600D03*
X49301400Y-95351600D03*
X49301400Y-97891600D03*
X49301400Y-100431600D03*
X49301400Y-102971600D03*
X49301400Y-105511600D03*
X49301400Y-108051600D03*
X49301400Y-110591600D03*
X49301400Y-113131600D03*
X49301400Y-115671600D03*
X49301400Y-118211600D03*
X49301400Y-120751600D03*
X49301400Y-123291600D03*
X49301400Y-125831600D03*
X49301400Y-128371600D03*
X49301400Y-130911600D03*
D11*
X49301400Y-133451600D03*
D13*
X34137000Y-136025000D03*
X39137000Y-136025000D03*
X39137000Y-184285000D03*
X34137000Y-184285000D03*
D11*
X49301400Y-181711600D03*
D12*
X49301400Y-179171600D03*
X49301400Y-176631600D03*
X49301400Y-174091600D03*
X49301400Y-171551600D03*
X49301400Y-169011600D03*
X49301400Y-166471600D03*
X49301400Y-163931600D03*
X49301400Y-161391600D03*
X49301400Y-158851600D03*
X49301400Y-156311600D03*
X49301400Y-153771600D03*
X49301400Y-151231600D03*
X49301400Y-148691600D03*
X49301400Y-146151600D03*
X49301400Y-143611600D03*
X23901400Y-181711600D03*
X23901400Y-179171600D03*
X23901400Y-176631600D03*
X23901400Y-174091600D03*
X23901400Y-171551600D03*
X23901400Y-169011600D03*
X23901400Y-166471600D03*
X23901400Y-163931600D03*
X23901400Y-161391600D03*
X23901400Y-158851600D03*
X23901400Y-156311600D03*
X23901400Y-153771600D03*
X23901400Y-151231600D03*
X23901400Y-148691600D03*
X23901400Y-146151600D03*
D11*
X23901400Y-143611600D03*
X56921400Y-143611600D03*
D12*
X56921400Y-146151600D03*
X56921400Y-148691600D03*
X56921400Y-151231600D03*
X56921400Y-153771600D03*
X56921400Y-156311600D03*
X56921400Y-158851600D03*
X56921400Y-161391600D03*
X56921400Y-163931600D03*
X56921400Y-166471600D03*
X56921400Y-169011600D03*
X56921400Y-171551600D03*
X56921400Y-174091600D03*
X56921400Y-176631600D03*
X56921400Y-179171600D03*
X56921400Y-181711600D03*
X82321400Y-143611600D03*
X82321400Y-146151600D03*
X82321400Y-148691600D03*
X82321400Y-151231600D03*
X82321400Y-153771600D03*
X82321400Y-156311600D03*
X82321400Y-158851600D03*
X82321400Y-161391600D03*
X82321400Y-163931600D03*
X82321400Y-166471600D03*
X82321400Y-169011600D03*
X82321400Y-171551600D03*
X82321400Y-174091600D03*
X82321400Y-176631600D03*
X82321400Y-179171600D03*
D11*
X82321400Y-181711600D03*
D13*
X67157000Y-184285000D03*
X72157000Y-184285000D03*
X105177000Y-184285000D03*
X100177000Y-184285000D03*
D11*
X115341400Y-181711600D03*
D12*
X115341400Y-179171600D03*
X115341400Y-176631600D03*
X115341400Y-174091600D03*
X115341400Y-171551600D03*
X115341400Y-169011600D03*
X115341400Y-166471600D03*
X115341400Y-163931600D03*
X115341400Y-161391600D03*
X115341400Y-158851600D03*
X115341400Y-156311600D03*
X115341400Y-153771600D03*
X115341400Y-151231600D03*
X115341400Y-148691600D03*
X115341400Y-146151600D03*
X115341400Y-143611600D03*
X89941400Y-181711600D03*
X89941400Y-179171600D03*
X89941400Y-176631600D03*
X89941400Y-174091600D03*
X89941400Y-171551600D03*
X89941400Y-169011600D03*
X89941400Y-166471600D03*
X89941400Y-163931600D03*
X89941400Y-161391600D03*
X89941400Y-158851600D03*
X89941400Y-156311600D03*
X89941400Y-153771600D03*
X89941400Y-151231600D03*
X89941400Y-148691600D03*
X89941400Y-146151600D03*
D11*
X89941400Y-143611600D03*
M02*
