G04 #@! TF.FileFunction,Legend,Top*
%FSLAX46Y46*%
G04 Gerber Fmt 4.6, Leading zero omitted, Abs format (unit mm)*
G04 Created by KiCad (PCBNEW no-vcs-found-undefined) date Sun Nov  6 11:39:55 2016*
%MOMM*%
%LPD*%
G01*
G04 APERTURE LIST*
%ADD10C,0.100000*%
%ADD11C,0.300000*%
%ADD12C,0.150000*%
%ADD13C,0.127000*%
%ADD14C,0.254000*%
%ADD15C,0.050000*%
%ADD16C,0.381000*%
G04 APERTURE END LIST*
D10*
X112747828Y-127919028D02*
X112747828Y-128169028D01*
X113140685Y-128169028D02*
X112390685Y-128169028D01*
X112390685Y-127811885D01*
X113140685Y-127419028D02*
X113104971Y-127490457D01*
X113033542Y-127526171D01*
X112390685Y-127526171D01*
X113140685Y-126811885D02*
X112747828Y-126811885D01*
X112676400Y-126847600D01*
X112640685Y-126919028D01*
X112640685Y-127061885D01*
X112676400Y-127133314D01*
X113104971Y-126811885D02*
X113140685Y-126883314D01*
X113140685Y-127061885D01*
X113104971Y-127133314D01*
X113033542Y-127169028D01*
X112962114Y-127169028D01*
X112890685Y-127133314D01*
X112854971Y-127061885D01*
X112854971Y-126883314D01*
X112819257Y-126811885D01*
X113104971Y-126490457D02*
X113140685Y-126419028D01*
X113140685Y-126276171D01*
X113104971Y-126204742D01*
X113033542Y-126169028D01*
X112997828Y-126169028D01*
X112926400Y-126204742D01*
X112890685Y-126276171D01*
X112890685Y-126383314D01*
X112854971Y-126454742D01*
X112783542Y-126490457D01*
X112747828Y-126490457D01*
X112676400Y-126454742D01*
X112640685Y-126383314D01*
X112640685Y-126276171D01*
X112676400Y-126204742D01*
X113140685Y-125847600D02*
X112390685Y-125847600D01*
X113140685Y-125526171D02*
X112747828Y-125526171D01*
X112676400Y-125561885D01*
X112640685Y-125633314D01*
X112640685Y-125740457D01*
X112676400Y-125811885D01*
X112712114Y-125847600D01*
X98154685Y-128030171D02*
X97797542Y-128280171D01*
X98154685Y-128458742D02*
X97404685Y-128458742D01*
X97404685Y-128173028D01*
X97440400Y-128101600D01*
X97476114Y-128065885D01*
X97547542Y-128030171D01*
X97654685Y-128030171D01*
X97726114Y-128065885D01*
X97761828Y-128101600D01*
X97797542Y-128173028D01*
X97797542Y-128458742D01*
X98118971Y-127423028D02*
X98154685Y-127494457D01*
X98154685Y-127637314D01*
X98118971Y-127708742D01*
X98047542Y-127744457D01*
X97761828Y-127744457D01*
X97690400Y-127708742D01*
X97654685Y-127637314D01*
X97654685Y-127494457D01*
X97690400Y-127423028D01*
X97761828Y-127387314D01*
X97833257Y-127387314D01*
X97904685Y-127744457D01*
X98118971Y-127101600D02*
X98154685Y-127030171D01*
X98154685Y-126887314D01*
X98118971Y-126815885D01*
X98047542Y-126780171D01*
X98011828Y-126780171D01*
X97940400Y-126815885D01*
X97904685Y-126887314D01*
X97904685Y-126994457D01*
X97868971Y-127065885D01*
X97797542Y-127101600D01*
X97761828Y-127101600D01*
X97690400Y-127065885D01*
X97654685Y-126994457D01*
X97654685Y-126887314D01*
X97690400Y-126815885D01*
X98118971Y-126173028D02*
X98154685Y-126244457D01*
X98154685Y-126387314D01*
X98118971Y-126458742D01*
X98047542Y-126494457D01*
X97761828Y-126494457D01*
X97690400Y-126458742D01*
X97654685Y-126387314D01*
X97654685Y-126244457D01*
X97690400Y-126173028D01*
X97761828Y-126137314D01*
X97833257Y-126137314D01*
X97904685Y-126494457D01*
X97654685Y-125923028D02*
X97654685Y-125637314D01*
X97404685Y-125815885D02*
X98047542Y-125815885D01*
X98118971Y-125780171D01*
X98154685Y-125708742D01*
X98154685Y-125637314D01*
D11*
X95719971Y-136098742D02*
X96862828Y-136098742D01*
X96291400Y-136670171D02*
X96291400Y-135527314D01*
X108419971Y-136098742D02*
X109562828Y-136098742D01*
X75399971Y-136098742D02*
X76542828Y-136098742D01*
X62699971Y-136098742D02*
X63842828Y-136098742D01*
X63271400Y-136670171D02*
X63271400Y-135527314D01*
D10*
X65134685Y-128030171D02*
X64777542Y-128280171D01*
X65134685Y-128458742D02*
X64384685Y-128458742D01*
X64384685Y-128173028D01*
X64420400Y-128101600D01*
X64456114Y-128065885D01*
X64527542Y-128030171D01*
X64634685Y-128030171D01*
X64706114Y-128065885D01*
X64741828Y-128101600D01*
X64777542Y-128173028D01*
X64777542Y-128458742D01*
X65098971Y-127423028D02*
X65134685Y-127494457D01*
X65134685Y-127637314D01*
X65098971Y-127708742D01*
X65027542Y-127744457D01*
X64741828Y-127744457D01*
X64670400Y-127708742D01*
X64634685Y-127637314D01*
X64634685Y-127494457D01*
X64670400Y-127423028D01*
X64741828Y-127387314D01*
X64813257Y-127387314D01*
X64884685Y-127744457D01*
X65098971Y-127101600D02*
X65134685Y-127030171D01*
X65134685Y-126887314D01*
X65098971Y-126815885D01*
X65027542Y-126780171D01*
X64991828Y-126780171D01*
X64920400Y-126815885D01*
X64884685Y-126887314D01*
X64884685Y-126994457D01*
X64848971Y-127065885D01*
X64777542Y-127101600D01*
X64741828Y-127101600D01*
X64670400Y-127065885D01*
X64634685Y-126994457D01*
X64634685Y-126887314D01*
X64670400Y-126815885D01*
X65098971Y-126173028D02*
X65134685Y-126244457D01*
X65134685Y-126387314D01*
X65098971Y-126458742D01*
X65027542Y-126494457D01*
X64741828Y-126494457D01*
X64670400Y-126458742D01*
X64634685Y-126387314D01*
X64634685Y-126244457D01*
X64670400Y-126173028D01*
X64741828Y-126137314D01*
X64813257Y-126137314D01*
X64884685Y-126494457D01*
X64634685Y-125923028D02*
X64634685Y-125637314D01*
X64384685Y-125815885D02*
X65027542Y-125815885D01*
X65098971Y-125780171D01*
X65134685Y-125708742D01*
X65134685Y-125637314D01*
X79727828Y-127919028D02*
X79727828Y-128169028D01*
X80120685Y-128169028D02*
X79370685Y-128169028D01*
X79370685Y-127811885D01*
X80120685Y-127419028D02*
X80084971Y-127490457D01*
X80013542Y-127526171D01*
X79370685Y-127526171D01*
X80120685Y-126811885D02*
X79727828Y-126811885D01*
X79656400Y-126847600D01*
X79620685Y-126919028D01*
X79620685Y-127061885D01*
X79656400Y-127133314D01*
X80084971Y-126811885D02*
X80120685Y-126883314D01*
X80120685Y-127061885D01*
X80084971Y-127133314D01*
X80013542Y-127169028D01*
X79942114Y-127169028D01*
X79870685Y-127133314D01*
X79834971Y-127061885D01*
X79834971Y-126883314D01*
X79799257Y-126811885D01*
X80084971Y-126490457D02*
X80120685Y-126419028D01*
X80120685Y-126276171D01*
X80084971Y-126204742D01*
X80013542Y-126169028D01*
X79977828Y-126169028D01*
X79906400Y-126204742D01*
X79870685Y-126276171D01*
X79870685Y-126383314D01*
X79834971Y-126454742D01*
X79763542Y-126490457D01*
X79727828Y-126490457D01*
X79656400Y-126454742D01*
X79620685Y-126383314D01*
X79620685Y-126276171D01*
X79656400Y-126204742D01*
X80120685Y-125847600D02*
X79370685Y-125847600D01*
X80120685Y-125526171D02*
X79727828Y-125526171D01*
X79656400Y-125561885D01*
X79620685Y-125633314D01*
X79620685Y-125740457D01*
X79656400Y-125811885D01*
X79692114Y-125847600D01*
X46707828Y-127919028D02*
X46707828Y-128169028D01*
X47100685Y-128169028D02*
X46350685Y-128169028D01*
X46350685Y-127811885D01*
X47100685Y-127419028D02*
X47064971Y-127490457D01*
X46993542Y-127526171D01*
X46350685Y-127526171D01*
X47100685Y-126811885D02*
X46707828Y-126811885D01*
X46636400Y-126847600D01*
X46600685Y-126919028D01*
X46600685Y-127061885D01*
X46636400Y-127133314D01*
X47064971Y-126811885D02*
X47100685Y-126883314D01*
X47100685Y-127061885D01*
X47064971Y-127133314D01*
X46993542Y-127169028D01*
X46922114Y-127169028D01*
X46850685Y-127133314D01*
X46814971Y-127061885D01*
X46814971Y-126883314D01*
X46779257Y-126811885D01*
X47064971Y-126490457D02*
X47100685Y-126419028D01*
X47100685Y-126276171D01*
X47064971Y-126204742D01*
X46993542Y-126169028D01*
X46957828Y-126169028D01*
X46886400Y-126204742D01*
X46850685Y-126276171D01*
X46850685Y-126383314D01*
X46814971Y-126454742D01*
X46743542Y-126490457D01*
X46707828Y-126490457D01*
X46636400Y-126454742D01*
X46600685Y-126383314D01*
X46600685Y-126276171D01*
X46636400Y-126204742D01*
X47100685Y-125847600D02*
X46350685Y-125847600D01*
X47100685Y-125526171D02*
X46707828Y-125526171D01*
X46636400Y-125561885D01*
X46600685Y-125633314D01*
X46600685Y-125740457D01*
X46636400Y-125811885D01*
X46672114Y-125847600D01*
X32114685Y-128030171D02*
X31757542Y-128280171D01*
X32114685Y-128458742D02*
X31364685Y-128458742D01*
X31364685Y-128173028D01*
X31400400Y-128101600D01*
X31436114Y-128065885D01*
X31507542Y-128030171D01*
X31614685Y-128030171D01*
X31686114Y-128065885D01*
X31721828Y-128101600D01*
X31757542Y-128173028D01*
X31757542Y-128458742D01*
X32078971Y-127423028D02*
X32114685Y-127494457D01*
X32114685Y-127637314D01*
X32078971Y-127708742D01*
X32007542Y-127744457D01*
X31721828Y-127744457D01*
X31650400Y-127708742D01*
X31614685Y-127637314D01*
X31614685Y-127494457D01*
X31650400Y-127423028D01*
X31721828Y-127387314D01*
X31793257Y-127387314D01*
X31864685Y-127744457D01*
X32078971Y-127101600D02*
X32114685Y-127030171D01*
X32114685Y-126887314D01*
X32078971Y-126815885D01*
X32007542Y-126780171D01*
X31971828Y-126780171D01*
X31900400Y-126815885D01*
X31864685Y-126887314D01*
X31864685Y-126994457D01*
X31828971Y-127065885D01*
X31757542Y-127101600D01*
X31721828Y-127101600D01*
X31650400Y-127065885D01*
X31614685Y-126994457D01*
X31614685Y-126887314D01*
X31650400Y-126815885D01*
X32078971Y-126173028D02*
X32114685Y-126244457D01*
X32114685Y-126387314D01*
X32078971Y-126458742D01*
X32007542Y-126494457D01*
X31721828Y-126494457D01*
X31650400Y-126458742D01*
X31614685Y-126387314D01*
X31614685Y-126244457D01*
X31650400Y-126173028D01*
X31721828Y-126137314D01*
X31793257Y-126137314D01*
X31864685Y-126494457D01*
X31614685Y-125923028D02*
X31614685Y-125637314D01*
X31364685Y-125815885D02*
X32007542Y-125815885D01*
X32078971Y-125780171D01*
X32114685Y-125708742D01*
X32114685Y-125637314D01*
D11*
X29679971Y-136098742D02*
X30822828Y-136098742D01*
X30251400Y-136670171D02*
X30251400Y-135527314D01*
X42379971Y-136098742D02*
X43522828Y-136098742D01*
X42379971Y-184358742D02*
X43522828Y-184358742D01*
X29679971Y-184358742D02*
X30822828Y-184358742D01*
X30251400Y-184930171D02*
X30251400Y-183787314D01*
D10*
X32114685Y-176290171D02*
X31757542Y-176540171D01*
X32114685Y-176718742D02*
X31364685Y-176718742D01*
X31364685Y-176433028D01*
X31400400Y-176361600D01*
X31436114Y-176325885D01*
X31507542Y-176290171D01*
X31614685Y-176290171D01*
X31686114Y-176325885D01*
X31721828Y-176361600D01*
X31757542Y-176433028D01*
X31757542Y-176718742D01*
X32078971Y-175683028D02*
X32114685Y-175754457D01*
X32114685Y-175897314D01*
X32078971Y-175968742D01*
X32007542Y-176004457D01*
X31721828Y-176004457D01*
X31650400Y-175968742D01*
X31614685Y-175897314D01*
X31614685Y-175754457D01*
X31650400Y-175683028D01*
X31721828Y-175647314D01*
X31793257Y-175647314D01*
X31864685Y-176004457D01*
X32078971Y-175361600D02*
X32114685Y-175290171D01*
X32114685Y-175147314D01*
X32078971Y-175075885D01*
X32007542Y-175040171D01*
X31971828Y-175040171D01*
X31900400Y-175075885D01*
X31864685Y-175147314D01*
X31864685Y-175254457D01*
X31828971Y-175325885D01*
X31757542Y-175361600D01*
X31721828Y-175361600D01*
X31650400Y-175325885D01*
X31614685Y-175254457D01*
X31614685Y-175147314D01*
X31650400Y-175075885D01*
X32078971Y-174433028D02*
X32114685Y-174504457D01*
X32114685Y-174647314D01*
X32078971Y-174718742D01*
X32007542Y-174754457D01*
X31721828Y-174754457D01*
X31650400Y-174718742D01*
X31614685Y-174647314D01*
X31614685Y-174504457D01*
X31650400Y-174433028D01*
X31721828Y-174397314D01*
X31793257Y-174397314D01*
X31864685Y-174754457D01*
X31614685Y-174183028D02*
X31614685Y-173897314D01*
X31364685Y-174075885D02*
X32007542Y-174075885D01*
X32078971Y-174040171D01*
X32114685Y-173968742D01*
X32114685Y-173897314D01*
X46707828Y-176179028D02*
X46707828Y-176429028D01*
X47100685Y-176429028D02*
X46350685Y-176429028D01*
X46350685Y-176071885D01*
X47100685Y-175679028D02*
X47064971Y-175750457D01*
X46993542Y-175786171D01*
X46350685Y-175786171D01*
X47100685Y-175071885D02*
X46707828Y-175071885D01*
X46636400Y-175107600D01*
X46600685Y-175179028D01*
X46600685Y-175321885D01*
X46636400Y-175393314D01*
X47064971Y-175071885D02*
X47100685Y-175143314D01*
X47100685Y-175321885D01*
X47064971Y-175393314D01*
X46993542Y-175429028D01*
X46922114Y-175429028D01*
X46850685Y-175393314D01*
X46814971Y-175321885D01*
X46814971Y-175143314D01*
X46779257Y-175071885D01*
X47064971Y-174750457D02*
X47100685Y-174679028D01*
X47100685Y-174536171D01*
X47064971Y-174464742D01*
X46993542Y-174429028D01*
X46957828Y-174429028D01*
X46886400Y-174464742D01*
X46850685Y-174536171D01*
X46850685Y-174643314D01*
X46814971Y-174714742D01*
X46743542Y-174750457D01*
X46707828Y-174750457D01*
X46636400Y-174714742D01*
X46600685Y-174643314D01*
X46600685Y-174536171D01*
X46636400Y-174464742D01*
X47100685Y-174107600D02*
X46350685Y-174107600D01*
X47100685Y-173786171D02*
X46707828Y-173786171D01*
X46636400Y-173821885D01*
X46600685Y-173893314D01*
X46600685Y-174000457D01*
X46636400Y-174071885D01*
X46672114Y-174107600D01*
X79727828Y-176179028D02*
X79727828Y-176429028D01*
X80120685Y-176429028D02*
X79370685Y-176429028D01*
X79370685Y-176071885D01*
X80120685Y-175679028D02*
X80084971Y-175750457D01*
X80013542Y-175786171D01*
X79370685Y-175786171D01*
X80120685Y-175071885D02*
X79727828Y-175071885D01*
X79656400Y-175107600D01*
X79620685Y-175179028D01*
X79620685Y-175321885D01*
X79656400Y-175393314D01*
X80084971Y-175071885D02*
X80120685Y-175143314D01*
X80120685Y-175321885D01*
X80084971Y-175393314D01*
X80013542Y-175429028D01*
X79942114Y-175429028D01*
X79870685Y-175393314D01*
X79834971Y-175321885D01*
X79834971Y-175143314D01*
X79799257Y-175071885D01*
X80084971Y-174750457D02*
X80120685Y-174679028D01*
X80120685Y-174536171D01*
X80084971Y-174464742D01*
X80013542Y-174429028D01*
X79977828Y-174429028D01*
X79906400Y-174464742D01*
X79870685Y-174536171D01*
X79870685Y-174643314D01*
X79834971Y-174714742D01*
X79763542Y-174750457D01*
X79727828Y-174750457D01*
X79656400Y-174714742D01*
X79620685Y-174643314D01*
X79620685Y-174536171D01*
X79656400Y-174464742D01*
X80120685Y-174107600D02*
X79370685Y-174107600D01*
X80120685Y-173786171D02*
X79727828Y-173786171D01*
X79656400Y-173821885D01*
X79620685Y-173893314D01*
X79620685Y-174000457D01*
X79656400Y-174071885D01*
X79692114Y-174107600D01*
X65134685Y-176290171D02*
X64777542Y-176540171D01*
X65134685Y-176718742D02*
X64384685Y-176718742D01*
X64384685Y-176433028D01*
X64420400Y-176361600D01*
X64456114Y-176325885D01*
X64527542Y-176290171D01*
X64634685Y-176290171D01*
X64706114Y-176325885D01*
X64741828Y-176361600D01*
X64777542Y-176433028D01*
X64777542Y-176718742D01*
X65098971Y-175683028D02*
X65134685Y-175754457D01*
X65134685Y-175897314D01*
X65098971Y-175968742D01*
X65027542Y-176004457D01*
X64741828Y-176004457D01*
X64670400Y-175968742D01*
X64634685Y-175897314D01*
X64634685Y-175754457D01*
X64670400Y-175683028D01*
X64741828Y-175647314D01*
X64813257Y-175647314D01*
X64884685Y-176004457D01*
X65098971Y-175361600D02*
X65134685Y-175290171D01*
X65134685Y-175147314D01*
X65098971Y-175075885D01*
X65027542Y-175040171D01*
X64991828Y-175040171D01*
X64920400Y-175075885D01*
X64884685Y-175147314D01*
X64884685Y-175254457D01*
X64848971Y-175325885D01*
X64777542Y-175361600D01*
X64741828Y-175361600D01*
X64670400Y-175325885D01*
X64634685Y-175254457D01*
X64634685Y-175147314D01*
X64670400Y-175075885D01*
X65098971Y-174433028D02*
X65134685Y-174504457D01*
X65134685Y-174647314D01*
X65098971Y-174718742D01*
X65027542Y-174754457D01*
X64741828Y-174754457D01*
X64670400Y-174718742D01*
X64634685Y-174647314D01*
X64634685Y-174504457D01*
X64670400Y-174433028D01*
X64741828Y-174397314D01*
X64813257Y-174397314D01*
X64884685Y-174754457D01*
X64634685Y-174183028D02*
X64634685Y-173897314D01*
X64384685Y-174075885D02*
X65027542Y-174075885D01*
X65098971Y-174040171D01*
X65134685Y-173968742D01*
X65134685Y-173897314D01*
D11*
X62699971Y-184358742D02*
X63842828Y-184358742D01*
X63271400Y-184930171D02*
X63271400Y-183787314D01*
X75399971Y-184358742D02*
X76542828Y-184358742D01*
X108419971Y-184358742D02*
X109562828Y-184358742D01*
X95719971Y-184358742D02*
X96862828Y-184358742D01*
X96291400Y-184930171D02*
X96291400Y-183787314D01*
D10*
X98154685Y-176290171D02*
X97797542Y-176540171D01*
X98154685Y-176718742D02*
X97404685Y-176718742D01*
X97404685Y-176433028D01*
X97440400Y-176361600D01*
X97476114Y-176325885D01*
X97547542Y-176290171D01*
X97654685Y-176290171D01*
X97726114Y-176325885D01*
X97761828Y-176361600D01*
X97797542Y-176433028D01*
X97797542Y-176718742D01*
X98118971Y-175683028D02*
X98154685Y-175754457D01*
X98154685Y-175897314D01*
X98118971Y-175968742D01*
X98047542Y-176004457D01*
X97761828Y-176004457D01*
X97690400Y-175968742D01*
X97654685Y-175897314D01*
X97654685Y-175754457D01*
X97690400Y-175683028D01*
X97761828Y-175647314D01*
X97833257Y-175647314D01*
X97904685Y-176004457D01*
X98118971Y-175361600D02*
X98154685Y-175290171D01*
X98154685Y-175147314D01*
X98118971Y-175075885D01*
X98047542Y-175040171D01*
X98011828Y-175040171D01*
X97940400Y-175075885D01*
X97904685Y-175147314D01*
X97904685Y-175254457D01*
X97868971Y-175325885D01*
X97797542Y-175361600D01*
X97761828Y-175361600D01*
X97690400Y-175325885D01*
X97654685Y-175254457D01*
X97654685Y-175147314D01*
X97690400Y-175075885D01*
X98118971Y-174433028D02*
X98154685Y-174504457D01*
X98154685Y-174647314D01*
X98118971Y-174718742D01*
X98047542Y-174754457D01*
X97761828Y-174754457D01*
X97690400Y-174718742D01*
X97654685Y-174647314D01*
X97654685Y-174504457D01*
X97690400Y-174433028D01*
X97761828Y-174397314D01*
X97833257Y-174397314D01*
X97904685Y-174754457D01*
X97654685Y-174183028D02*
X97654685Y-173897314D01*
X97404685Y-174075885D02*
X98047542Y-174075885D01*
X98118971Y-174040171D01*
X98154685Y-173968742D01*
X98154685Y-173897314D01*
X112747828Y-176179028D02*
X112747828Y-176429028D01*
X113140685Y-176429028D02*
X112390685Y-176429028D01*
X112390685Y-176071885D01*
X113140685Y-175679028D02*
X113104971Y-175750457D01*
X113033542Y-175786171D01*
X112390685Y-175786171D01*
X113140685Y-175071885D02*
X112747828Y-175071885D01*
X112676400Y-175107600D01*
X112640685Y-175179028D01*
X112640685Y-175321885D01*
X112676400Y-175393314D01*
X113104971Y-175071885D02*
X113140685Y-175143314D01*
X113140685Y-175321885D01*
X113104971Y-175393314D01*
X113033542Y-175429028D01*
X112962114Y-175429028D01*
X112890685Y-175393314D01*
X112854971Y-175321885D01*
X112854971Y-175143314D01*
X112819257Y-175071885D01*
X113104971Y-174750457D02*
X113140685Y-174679028D01*
X113140685Y-174536171D01*
X113104971Y-174464742D01*
X113033542Y-174429028D01*
X112997828Y-174429028D01*
X112926400Y-174464742D01*
X112890685Y-174536171D01*
X112890685Y-174643314D01*
X112854971Y-174714742D01*
X112783542Y-174750457D01*
X112747828Y-174750457D01*
X112676400Y-174714742D01*
X112640685Y-174643314D01*
X112640685Y-174536171D01*
X112676400Y-174464742D01*
X113140685Y-174107600D02*
X112390685Y-174107600D01*
X113140685Y-173786171D02*
X112747828Y-173786171D01*
X112676400Y-173821885D01*
X112640685Y-173893314D01*
X112640685Y-174000457D01*
X112676400Y-174071885D01*
X112712114Y-174107600D01*
D12*
X88671400Y-96621600D02*
X88671400Y-134721600D01*
X88671400Y-134721600D02*
X91211400Y-134721600D01*
X91211400Y-134721600D02*
X91211400Y-96621600D01*
X91491400Y-93801600D02*
X91491400Y-95351600D01*
X91211400Y-96621600D02*
X88671400Y-96621600D01*
X88391400Y-95351600D02*
X88391400Y-93801600D01*
X88391400Y-93801600D02*
X91491400Y-93801600D01*
X116891400Y-135001600D02*
X113791400Y-135001600D01*
X116891400Y-133451600D02*
X116891400Y-135001600D01*
X114071400Y-132181600D02*
X116611400Y-132181600D01*
X113791400Y-135001600D02*
X113791400Y-133451600D01*
X114071400Y-94081600D02*
X114071400Y-132181600D01*
X116611400Y-94081600D02*
X114071400Y-94081600D01*
X116611400Y-132181600D02*
X116611400Y-94081600D01*
D13*
X100799900Y-127419100D02*
X101460300Y-127419100D01*
X100799900Y-129324100D02*
X101460300Y-129324100D01*
X99402900Y-128371600D02*
X98742500Y-128371600D01*
X99402900Y-129870200D02*
X99402900Y-126873000D01*
X99402900Y-126873000D02*
X100799900Y-126873000D01*
X100799900Y-126873000D02*
X100799900Y-129870200D01*
X100799900Y-129870200D02*
X99402900Y-129870200D01*
X95427800Y-121564400D02*
X94615000Y-121564400D01*
X95427800Y-119938800D02*
X95427800Y-121564400D01*
X94615000Y-119938800D02*
X95427800Y-119938800D01*
X94615000Y-121564400D02*
X94615000Y-119938800D01*
X94640400Y-121310400D02*
X95427800Y-121310400D01*
X95427800Y-120192800D02*
X94615000Y-120192800D01*
X105740200Y-128778000D02*
X105740200Y-127965200D01*
X104622600Y-127990600D02*
X104622600Y-128778000D01*
X104368600Y-127965200D02*
X105994200Y-127965200D01*
X105994200Y-127965200D02*
X105994200Y-128778000D01*
X105994200Y-128778000D02*
X104368600Y-128778000D01*
X104368600Y-128778000D02*
X104368600Y-127965200D01*
D14*
X94320360Y-125801120D02*
X93621860Y-124500640D01*
X95722440Y-125801120D02*
X96420940Y-124500640D01*
X95722440Y-128402080D02*
X96420940Y-129702560D01*
X93621860Y-129702560D02*
X94320360Y-128402080D01*
X93621860Y-129702560D02*
X93621860Y-124500640D01*
X93621860Y-124500640D02*
X96420940Y-124500640D01*
X96420940Y-124500640D02*
X96420940Y-129702560D01*
X96420940Y-129702560D02*
X93621860Y-129702560D01*
X94320360Y-128402080D02*
X94320360Y-125801120D01*
X94320360Y-125801120D02*
X95722440Y-125801120D01*
X95722440Y-125801120D02*
X95722440Y-128402080D01*
X95722440Y-128402080D02*
X94320360Y-128402080D01*
X93220540Y-130101340D02*
X93220540Y-124101860D01*
X93220540Y-124101860D02*
X96822260Y-124101860D01*
X96822260Y-124101860D02*
X96822260Y-130101340D01*
X96822260Y-130101340D02*
X93220540Y-130101340D01*
X108460540Y-124101860D02*
X112062260Y-124101860D01*
X108460540Y-130101340D02*
X108460540Y-124101860D01*
X112062260Y-130101340D02*
X108460540Y-130101340D01*
X112062260Y-124101860D02*
X112062260Y-130101340D01*
X109560360Y-125801120D02*
X110962440Y-125801120D01*
X109560360Y-128402080D02*
X109560360Y-125801120D01*
X110962440Y-128402080D02*
X109560360Y-128402080D01*
X110962440Y-125801120D02*
X110962440Y-128402080D01*
X108861860Y-124500640D02*
X111660940Y-124500640D01*
X108861860Y-129702560D02*
X108861860Y-124500640D01*
X111660940Y-129702560D02*
X108861860Y-129702560D01*
X111660940Y-124500640D02*
X111660940Y-129702560D01*
X111660940Y-124500640D02*
X110962440Y-125801120D01*
X109560360Y-125801120D02*
X108861860Y-124500640D01*
X109560360Y-128402080D02*
X108861860Y-129702560D01*
X110962440Y-128402080D02*
X111660940Y-129702560D01*
D12*
X104673400Y-121767600D02*
X103911400Y-121767600D01*
X106959400Y-120243600D02*
X104673400Y-121767600D01*
X106959400Y-116179600D02*
X106959400Y-120243600D01*
X104673400Y-114655600D02*
X106959400Y-116179600D01*
X103911400Y-114655600D02*
X104673400Y-114655600D01*
X97815400Y-121767600D02*
X100863400Y-121767600D01*
X97815400Y-114655600D02*
X97815400Y-121767600D01*
X100863400Y-114655600D02*
X97815400Y-114655600D01*
X102760780Y-124561600D02*
X103710740Y-123311920D01*
X103710740Y-123311920D02*
X103710740Y-125811280D01*
X103710740Y-125811280D02*
X102712520Y-124561600D01*
X102712520Y-123311920D02*
X102712520Y-125811280D01*
X105011220Y-123311920D02*
X105110280Y-123311920D01*
X105011220Y-125811280D02*
X105110280Y-125811280D01*
X102712520Y-123311920D02*
X105062020Y-123311920D01*
X102712520Y-125811280D02*
X104960420Y-125811280D01*
D13*
X110566200Y-119811800D02*
X110566200Y-116611400D01*
X108940600Y-119811800D02*
X110566200Y-119811800D01*
X108940600Y-116611400D02*
X108940600Y-119811800D01*
X110566200Y-116611400D02*
X108940600Y-116611400D01*
X110566200Y-117068600D02*
X108940600Y-117068600D01*
X108940600Y-119354600D02*
X110566200Y-119354600D01*
X94208600Y-117576600D02*
X95834200Y-117576600D01*
X95834200Y-115290600D02*
X94208600Y-115290600D01*
X95834200Y-114833400D02*
X94208600Y-114833400D01*
X94208600Y-114833400D02*
X94208600Y-118033800D01*
X94208600Y-118033800D02*
X95834200Y-118033800D01*
X95834200Y-118033800D02*
X95834200Y-114833400D01*
D15*
X110640400Y-111861600D02*
X94640400Y-111861600D01*
X110642400Y-93573600D02*
X110642400Y-111861600D01*
X94640400Y-93573600D02*
X110642400Y-93573600D01*
X94640400Y-93573600D02*
X94640400Y-111861600D01*
D16*
X107677000Y-138325000D02*
X97677000Y-138325000D01*
X107677000Y-133425000D02*
X97677000Y-133425000D01*
X107177000Y-135925000D02*
G75*
G03X107177000Y-135925000I-2000000J0D01*
G01*
X102177000Y-135925000D02*
G75*
G03X102177000Y-135925000I-2000000J0D01*
G01*
X97597000Y-138311000D02*
X97597000Y-133485000D01*
X107757000Y-138311000D02*
X107757000Y-133485000D01*
X74737000Y-138311000D02*
X74737000Y-133485000D01*
X64577000Y-138311000D02*
X64577000Y-133485000D01*
X69157000Y-135925000D02*
G75*
G03X69157000Y-135925000I-2000000J0D01*
G01*
X74157000Y-135925000D02*
G75*
G03X74157000Y-135925000I-2000000J0D01*
G01*
X74657000Y-133425000D02*
X64657000Y-133425000D01*
X74657000Y-138325000D02*
X64657000Y-138325000D01*
D15*
X61620400Y-93573600D02*
X61620400Y-111861600D01*
X61620400Y-93573600D02*
X77622400Y-93573600D01*
X77622400Y-93573600D02*
X77622400Y-111861600D01*
X77620400Y-111861600D02*
X61620400Y-111861600D01*
D13*
X62814200Y-118033800D02*
X62814200Y-114833400D01*
X61188600Y-118033800D02*
X62814200Y-118033800D01*
X61188600Y-114833400D02*
X61188600Y-118033800D01*
X62814200Y-114833400D02*
X61188600Y-114833400D01*
X62814200Y-115290600D02*
X61188600Y-115290600D01*
X61188600Y-117576600D02*
X62814200Y-117576600D01*
X75920600Y-119354600D02*
X77546200Y-119354600D01*
X77546200Y-117068600D02*
X75920600Y-117068600D01*
X77546200Y-116611400D02*
X75920600Y-116611400D01*
X75920600Y-116611400D02*
X75920600Y-119811800D01*
X75920600Y-119811800D02*
X77546200Y-119811800D01*
X77546200Y-119811800D02*
X77546200Y-116611400D01*
D12*
X69692520Y-125811280D02*
X71940420Y-125811280D01*
X69692520Y-123311920D02*
X72042020Y-123311920D01*
X71991220Y-125811280D02*
X72090280Y-125811280D01*
X71991220Y-123311920D02*
X72090280Y-123311920D01*
X69692520Y-123311920D02*
X69692520Y-125811280D01*
X70690740Y-125811280D02*
X69692520Y-124561600D01*
X70690740Y-123311920D02*
X70690740Y-125811280D01*
X69740780Y-124561600D02*
X70690740Y-123311920D01*
X67843400Y-114655600D02*
X64795400Y-114655600D01*
X64795400Y-114655600D02*
X64795400Y-121767600D01*
X64795400Y-121767600D02*
X67843400Y-121767600D01*
X70891400Y-114655600D02*
X71653400Y-114655600D01*
X71653400Y-114655600D02*
X73939400Y-116179600D01*
X73939400Y-116179600D02*
X73939400Y-120243600D01*
X73939400Y-120243600D02*
X71653400Y-121767600D01*
X71653400Y-121767600D02*
X70891400Y-121767600D01*
D14*
X77942440Y-128402080D02*
X78640940Y-129702560D01*
X76540360Y-128402080D02*
X75841860Y-129702560D01*
X76540360Y-125801120D02*
X75841860Y-124500640D01*
X78640940Y-124500640D02*
X77942440Y-125801120D01*
X78640940Y-124500640D02*
X78640940Y-129702560D01*
X78640940Y-129702560D02*
X75841860Y-129702560D01*
X75841860Y-129702560D02*
X75841860Y-124500640D01*
X75841860Y-124500640D02*
X78640940Y-124500640D01*
X77942440Y-125801120D02*
X77942440Y-128402080D01*
X77942440Y-128402080D02*
X76540360Y-128402080D01*
X76540360Y-128402080D02*
X76540360Y-125801120D01*
X76540360Y-125801120D02*
X77942440Y-125801120D01*
X79042260Y-124101860D02*
X79042260Y-130101340D01*
X79042260Y-130101340D02*
X75440540Y-130101340D01*
X75440540Y-130101340D02*
X75440540Y-124101860D01*
X75440540Y-124101860D02*
X79042260Y-124101860D01*
X63802260Y-130101340D02*
X60200540Y-130101340D01*
X63802260Y-124101860D02*
X63802260Y-130101340D01*
X60200540Y-124101860D02*
X63802260Y-124101860D01*
X60200540Y-130101340D02*
X60200540Y-124101860D01*
X62702440Y-128402080D02*
X61300360Y-128402080D01*
X62702440Y-125801120D02*
X62702440Y-128402080D01*
X61300360Y-125801120D02*
X62702440Y-125801120D01*
X61300360Y-128402080D02*
X61300360Y-125801120D01*
X63400940Y-129702560D02*
X60601860Y-129702560D01*
X63400940Y-124500640D02*
X63400940Y-129702560D01*
X60601860Y-124500640D02*
X63400940Y-124500640D01*
X60601860Y-129702560D02*
X60601860Y-124500640D01*
X60601860Y-129702560D02*
X61300360Y-128402080D01*
X62702440Y-128402080D02*
X63400940Y-129702560D01*
X62702440Y-125801120D02*
X63400940Y-124500640D01*
X61300360Y-125801120D02*
X60601860Y-124500640D01*
D13*
X71348600Y-128778000D02*
X71348600Y-127965200D01*
X72974200Y-128778000D02*
X71348600Y-128778000D01*
X72974200Y-127965200D02*
X72974200Y-128778000D01*
X71348600Y-127965200D02*
X72974200Y-127965200D01*
X71602600Y-127990600D02*
X71602600Y-128778000D01*
X72720200Y-128778000D02*
X72720200Y-127965200D01*
X62407800Y-120192800D02*
X61595000Y-120192800D01*
X61620400Y-121310400D02*
X62407800Y-121310400D01*
X61595000Y-121564400D02*
X61595000Y-119938800D01*
X61595000Y-119938800D02*
X62407800Y-119938800D01*
X62407800Y-119938800D02*
X62407800Y-121564400D01*
X62407800Y-121564400D02*
X61595000Y-121564400D01*
X67779900Y-129870200D02*
X66382900Y-129870200D01*
X67779900Y-126873000D02*
X67779900Y-129870200D01*
X66382900Y-126873000D02*
X67779900Y-126873000D01*
X66382900Y-129870200D02*
X66382900Y-126873000D01*
X66382900Y-128371600D02*
X65722500Y-128371600D01*
X67779900Y-129324100D02*
X68440300Y-129324100D01*
X67779900Y-127419100D02*
X68440300Y-127419100D01*
D12*
X83591400Y-132181600D02*
X83591400Y-94081600D01*
X83591400Y-94081600D02*
X81051400Y-94081600D01*
X81051400Y-94081600D02*
X81051400Y-132181600D01*
X80771400Y-135001600D02*
X80771400Y-133451600D01*
X81051400Y-132181600D02*
X83591400Y-132181600D01*
X83871400Y-133451600D02*
X83871400Y-135001600D01*
X83871400Y-135001600D02*
X80771400Y-135001600D01*
X55371400Y-93801600D02*
X58471400Y-93801600D01*
X55371400Y-95351600D02*
X55371400Y-93801600D01*
X58191400Y-96621600D02*
X55651400Y-96621600D01*
X58471400Y-93801600D02*
X58471400Y-95351600D01*
X58191400Y-134721600D02*
X58191400Y-96621600D01*
X55651400Y-134721600D02*
X58191400Y-134721600D01*
X55651400Y-96621600D02*
X55651400Y-134721600D01*
X22631400Y-96621600D02*
X22631400Y-134721600D01*
X22631400Y-134721600D02*
X25171400Y-134721600D01*
X25171400Y-134721600D02*
X25171400Y-96621600D01*
X25451400Y-93801600D02*
X25451400Y-95351600D01*
X25171400Y-96621600D02*
X22631400Y-96621600D01*
X22351400Y-95351600D02*
X22351400Y-93801600D01*
X22351400Y-93801600D02*
X25451400Y-93801600D01*
X50851400Y-135001600D02*
X47751400Y-135001600D01*
X50851400Y-133451600D02*
X50851400Y-135001600D01*
X48031400Y-132181600D02*
X50571400Y-132181600D01*
X47751400Y-135001600D02*
X47751400Y-133451600D01*
X48031400Y-94081600D02*
X48031400Y-132181600D01*
X50571400Y-94081600D02*
X48031400Y-94081600D01*
X50571400Y-132181600D02*
X50571400Y-94081600D01*
D13*
X34759900Y-127419100D02*
X35420300Y-127419100D01*
X34759900Y-129324100D02*
X35420300Y-129324100D01*
X33362900Y-128371600D02*
X32702500Y-128371600D01*
X33362900Y-129870200D02*
X33362900Y-126873000D01*
X33362900Y-126873000D02*
X34759900Y-126873000D01*
X34759900Y-126873000D02*
X34759900Y-129870200D01*
X34759900Y-129870200D02*
X33362900Y-129870200D01*
X29387800Y-121564400D02*
X28575000Y-121564400D01*
X29387800Y-119938800D02*
X29387800Y-121564400D01*
X28575000Y-119938800D02*
X29387800Y-119938800D01*
X28575000Y-121564400D02*
X28575000Y-119938800D01*
X28600400Y-121310400D02*
X29387800Y-121310400D01*
X29387800Y-120192800D02*
X28575000Y-120192800D01*
X39700200Y-128778000D02*
X39700200Y-127965200D01*
X38582600Y-127990600D02*
X38582600Y-128778000D01*
X38328600Y-127965200D02*
X39954200Y-127965200D01*
X39954200Y-127965200D02*
X39954200Y-128778000D01*
X39954200Y-128778000D02*
X38328600Y-128778000D01*
X38328600Y-128778000D02*
X38328600Y-127965200D01*
D14*
X28280360Y-125801120D02*
X27581860Y-124500640D01*
X29682440Y-125801120D02*
X30380940Y-124500640D01*
X29682440Y-128402080D02*
X30380940Y-129702560D01*
X27581860Y-129702560D02*
X28280360Y-128402080D01*
X27581860Y-129702560D02*
X27581860Y-124500640D01*
X27581860Y-124500640D02*
X30380940Y-124500640D01*
X30380940Y-124500640D02*
X30380940Y-129702560D01*
X30380940Y-129702560D02*
X27581860Y-129702560D01*
X28280360Y-128402080D02*
X28280360Y-125801120D01*
X28280360Y-125801120D02*
X29682440Y-125801120D01*
X29682440Y-125801120D02*
X29682440Y-128402080D01*
X29682440Y-128402080D02*
X28280360Y-128402080D01*
X27180540Y-130101340D02*
X27180540Y-124101860D01*
X27180540Y-124101860D02*
X30782260Y-124101860D01*
X30782260Y-124101860D02*
X30782260Y-130101340D01*
X30782260Y-130101340D02*
X27180540Y-130101340D01*
X42420540Y-124101860D02*
X46022260Y-124101860D01*
X42420540Y-130101340D02*
X42420540Y-124101860D01*
X46022260Y-130101340D02*
X42420540Y-130101340D01*
X46022260Y-124101860D02*
X46022260Y-130101340D01*
X43520360Y-125801120D02*
X44922440Y-125801120D01*
X43520360Y-128402080D02*
X43520360Y-125801120D01*
X44922440Y-128402080D02*
X43520360Y-128402080D01*
X44922440Y-125801120D02*
X44922440Y-128402080D01*
X42821860Y-124500640D02*
X45620940Y-124500640D01*
X42821860Y-129702560D02*
X42821860Y-124500640D01*
X45620940Y-129702560D02*
X42821860Y-129702560D01*
X45620940Y-124500640D02*
X45620940Y-129702560D01*
X45620940Y-124500640D02*
X44922440Y-125801120D01*
X43520360Y-125801120D02*
X42821860Y-124500640D01*
X43520360Y-128402080D02*
X42821860Y-129702560D01*
X44922440Y-128402080D02*
X45620940Y-129702560D01*
D12*
X38633400Y-121767600D02*
X37871400Y-121767600D01*
X40919400Y-120243600D02*
X38633400Y-121767600D01*
X40919400Y-116179600D02*
X40919400Y-120243600D01*
X38633400Y-114655600D02*
X40919400Y-116179600D01*
X37871400Y-114655600D02*
X38633400Y-114655600D01*
X31775400Y-121767600D02*
X34823400Y-121767600D01*
X31775400Y-114655600D02*
X31775400Y-121767600D01*
X34823400Y-114655600D02*
X31775400Y-114655600D01*
X36720780Y-124561600D02*
X37670740Y-123311920D01*
X37670740Y-123311920D02*
X37670740Y-125811280D01*
X37670740Y-125811280D02*
X36672520Y-124561600D01*
X36672520Y-123311920D02*
X36672520Y-125811280D01*
X38971220Y-123311920D02*
X39070280Y-123311920D01*
X38971220Y-125811280D02*
X39070280Y-125811280D01*
X36672520Y-123311920D02*
X39022020Y-123311920D01*
X36672520Y-125811280D02*
X38920420Y-125811280D01*
D13*
X44526200Y-119811800D02*
X44526200Y-116611400D01*
X42900600Y-119811800D02*
X44526200Y-119811800D01*
X42900600Y-116611400D02*
X42900600Y-119811800D01*
X44526200Y-116611400D02*
X42900600Y-116611400D01*
X44526200Y-117068600D02*
X42900600Y-117068600D01*
X42900600Y-119354600D02*
X44526200Y-119354600D01*
X28168600Y-117576600D02*
X29794200Y-117576600D01*
X29794200Y-115290600D02*
X28168600Y-115290600D01*
X29794200Y-114833400D02*
X28168600Y-114833400D01*
X28168600Y-114833400D02*
X28168600Y-118033800D01*
X28168600Y-118033800D02*
X29794200Y-118033800D01*
X29794200Y-118033800D02*
X29794200Y-114833400D01*
D15*
X44600400Y-111861600D02*
X28600400Y-111861600D01*
X44602400Y-93573600D02*
X44602400Y-111861600D01*
X28600400Y-93573600D02*
X44602400Y-93573600D01*
X28600400Y-93573600D02*
X28600400Y-111861600D01*
D16*
X41637000Y-138325000D02*
X31637000Y-138325000D01*
X41637000Y-133425000D02*
X31637000Y-133425000D01*
X41137000Y-135925000D02*
G75*
G03X41137000Y-135925000I-2000000J0D01*
G01*
X36137000Y-135925000D02*
G75*
G03X36137000Y-135925000I-2000000J0D01*
G01*
X31557000Y-138311000D02*
X31557000Y-133485000D01*
X41717000Y-138311000D02*
X41717000Y-133485000D01*
X41717000Y-186571000D02*
X41717000Y-181745000D01*
X31557000Y-186571000D02*
X31557000Y-181745000D01*
X36137000Y-184185000D02*
G75*
G03X36137000Y-184185000I-2000000J0D01*
G01*
X41137000Y-184185000D02*
G75*
G03X41137000Y-184185000I-2000000J0D01*
G01*
X41637000Y-181685000D02*
X31637000Y-181685000D01*
X41637000Y-186585000D02*
X31637000Y-186585000D01*
D15*
X28600400Y-141833600D02*
X28600400Y-160121600D01*
X28600400Y-141833600D02*
X44602400Y-141833600D01*
X44602400Y-141833600D02*
X44602400Y-160121600D01*
X44600400Y-160121600D02*
X28600400Y-160121600D01*
D13*
X29794200Y-166293800D02*
X29794200Y-163093400D01*
X28168600Y-166293800D02*
X29794200Y-166293800D01*
X28168600Y-163093400D02*
X28168600Y-166293800D01*
X29794200Y-163093400D02*
X28168600Y-163093400D01*
X29794200Y-163550600D02*
X28168600Y-163550600D01*
X28168600Y-165836600D02*
X29794200Y-165836600D01*
X42900600Y-167614600D02*
X44526200Y-167614600D01*
X44526200Y-165328600D02*
X42900600Y-165328600D01*
X44526200Y-164871400D02*
X42900600Y-164871400D01*
X42900600Y-164871400D02*
X42900600Y-168071800D01*
X42900600Y-168071800D02*
X44526200Y-168071800D01*
X44526200Y-168071800D02*
X44526200Y-164871400D01*
D12*
X36672520Y-174071280D02*
X38920420Y-174071280D01*
X36672520Y-171571920D02*
X39022020Y-171571920D01*
X38971220Y-174071280D02*
X39070280Y-174071280D01*
X38971220Y-171571920D02*
X39070280Y-171571920D01*
X36672520Y-171571920D02*
X36672520Y-174071280D01*
X37670740Y-174071280D02*
X36672520Y-172821600D01*
X37670740Y-171571920D02*
X37670740Y-174071280D01*
X36720780Y-172821600D02*
X37670740Y-171571920D01*
X34823400Y-162915600D02*
X31775400Y-162915600D01*
X31775400Y-162915600D02*
X31775400Y-170027600D01*
X31775400Y-170027600D02*
X34823400Y-170027600D01*
X37871400Y-162915600D02*
X38633400Y-162915600D01*
X38633400Y-162915600D02*
X40919400Y-164439600D01*
X40919400Y-164439600D02*
X40919400Y-168503600D01*
X40919400Y-168503600D02*
X38633400Y-170027600D01*
X38633400Y-170027600D02*
X37871400Y-170027600D01*
D14*
X44922440Y-176662080D02*
X45620940Y-177962560D01*
X43520360Y-176662080D02*
X42821860Y-177962560D01*
X43520360Y-174061120D02*
X42821860Y-172760640D01*
X45620940Y-172760640D02*
X44922440Y-174061120D01*
X45620940Y-172760640D02*
X45620940Y-177962560D01*
X45620940Y-177962560D02*
X42821860Y-177962560D01*
X42821860Y-177962560D02*
X42821860Y-172760640D01*
X42821860Y-172760640D02*
X45620940Y-172760640D01*
X44922440Y-174061120D02*
X44922440Y-176662080D01*
X44922440Y-176662080D02*
X43520360Y-176662080D01*
X43520360Y-176662080D02*
X43520360Y-174061120D01*
X43520360Y-174061120D02*
X44922440Y-174061120D01*
X46022260Y-172361860D02*
X46022260Y-178361340D01*
X46022260Y-178361340D02*
X42420540Y-178361340D01*
X42420540Y-178361340D02*
X42420540Y-172361860D01*
X42420540Y-172361860D02*
X46022260Y-172361860D01*
X30782260Y-178361340D02*
X27180540Y-178361340D01*
X30782260Y-172361860D02*
X30782260Y-178361340D01*
X27180540Y-172361860D02*
X30782260Y-172361860D01*
X27180540Y-178361340D02*
X27180540Y-172361860D01*
X29682440Y-176662080D02*
X28280360Y-176662080D01*
X29682440Y-174061120D02*
X29682440Y-176662080D01*
X28280360Y-174061120D02*
X29682440Y-174061120D01*
X28280360Y-176662080D02*
X28280360Y-174061120D01*
X30380940Y-177962560D02*
X27581860Y-177962560D01*
X30380940Y-172760640D02*
X30380940Y-177962560D01*
X27581860Y-172760640D02*
X30380940Y-172760640D01*
X27581860Y-177962560D02*
X27581860Y-172760640D01*
X27581860Y-177962560D02*
X28280360Y-176662080D01*
X29682440Y-176662080D02*
X30380940Y-177962560D01*
X29682440Y-174061120D02*
X30380940Y-172760640D01*
X28280360Y-174061120D02*
X27581860Y-172760640D01*
D13*
X38328600Y-177038000D02*
X38328600Y-176225200D01*
X39954200Y-177038000D02*
X38328600Y-177038000D01*
X39954200Y-176225200D02*
X39954200Y-177038000D01*
X38328600Y-176225200D02*
X39954200Y-176225200D01*
X38582600Y-176250600D02*
X38582600Y-177038000D01*
X39700200Y-177038000D02*
X39700200Y-176225200D01*
X29387800Y-168452800D02*
X28575000Y-168452800D01*
X28600400Y-169570400D02*
X29387800Y-169570400D01*
X28575000Y-169824400D02*
X28575000Y-168198800D01*
X28575000Y-168198800D02*
X29387800Y-168198800D01*
X29387800Y-168198800D02*
X29387800Y-169824400D01*
X29387800Y-169824400D02*
X28575000Y-169824400D01*
X34759900Y-178130200D02*
X33362900Y-178130200D01*
X34759900Y-175133000D02*
X34759900Y-178130200D01*
X33362900Y-175133000D02*
X34759900Y-175133000D01*
X33362900Y-178130200D02*
X33362900Y-175133000D01*
X33362900Y-176631600D02*
X32702500Y-176631600D01*
X34759900Y-177584100D02*
X35420300Y-177584100D01*
X34759900Y-175679100D02*
X35420300Y-175679100D01*
D12*
X50571400Y-180441600D02*
X50571400Y-142341600D01*
X50571400Y-142341600D02*
X48031400Y-142341600D01*
X48031400Y-142341600D02*
X48031400Y-180441600D01*
X47751400Y-183261600D02*
X47751400Y-181711600D01*
X48031400Y-180441600D02*
X50571400Y-180441600D01*
X50851400Y-181711600D02*
X50851400Y-183261600D01*
X50851400Y-183261600D02*
X47751400Y-183261600D01*
X22351400Y-142061600D02*
X25451400Y-142061600D01*
X22351400Y-143611600D02*
X22351400Y-142061600D01*
X25171400Y-144881600D02*
X22631400Y-144881600D01*
X25451400Y-142061600D02*
X25451400Y-143611600D01*
X25171400Y-182981600D02*
X25171400Y-144881600D01*
X22631400Y-182981600D02*
X25171400Y-182981600D01*
X22631400Y-144881600D02*
X22631400Y-182981600D01*
X55651400Y-144881600D02*
X55651400Y-182981600D01*
X55651400Y-182981600D02*
X58191400Y-182981600D01*
X58191400Y-182981600D02*
X58191400Y-144881600D01*
X58471400Y-142061600D02*
X58471400Y-143611600D01*
X58191400Y-144881600D02*
X55651400Y-144881600D01*
X55371400Y-143611600D02*
X55371400Y-142061600D01*
X55371400Y-142061600D02*
X58471400Y-142061600D01*
X83871400Y-183261600D02*
X80771400Y-183261600D01*
X83871400Y-181711600D02*
X83871400Y-183261600D01*
X81051400Y-180441600D02*
X83591400Y-180441600D01*
X80771400Y-183261600D02*
X80771400Y-181711600D01*
X81051400Y-142341600D02*
X81051400Y-180441600D01*
X83591400Y-142341600D02*
X81051400Y-142341600D01*
X83591400Y-180441600D02*
X83591400Y-142341600D01*
D13*
X67779900Y-175679100D02*
X68440300Y-175679100D01*
X67779900Y-177584100D02*
X68440300Y-177584100D01*
X66382900Y-176631600D02*
X65722500Y-176631600D01*
X66382900Y-178130200D02*
X66382900Y-175133000D01*
X66382900Y-175133000D02*
X67779900Y-175133000D01*
X67779900Y-175133000D02*
X67779900Y-178130200D01*
X67779900Y-178130200D02*
X66382900Y-178130200D01*
X62407800Y-169824400D02*
X61595000Y-169824400D01*
X62407800Y-168198800D02*
X62407800Y-169824400D01*
X61595000Y-168198800D02*
X62407800Y-168198800D01*
X61595000Y-169824400D02*
X61595000Y-168198800D01*
X61620400Y-169570400D02*
X62407800Y-169570400D01*
X62407800Y-168452800D02*
X61595000Y-168452800D01*
X72720200Y-177038000D02*
X72720200Y-176225200D01*
X71602600Y-176250600D02*
X71602600Y-177038000D01*
X71348600Y-176225200D02*
X72974200Y-176225200D01*
X72974200Y-176225200D02*
X72974200Y-177038000D01*
X72974200Y-177038000D02*
X71348600Y-177038000D01*
X71348600Y-177038000D02*
X71348600Y-176225200D01*
D14*
X61300360Y-174061120D02*
X60601860Y-172760640D01*
X62702440Y-174061120D02*
X63400940Y-172760640D01*
X62702440Y-176662080D02*
X63400940Y-177962560D01*
X60601860Y-177962560D02*
X61300360Y-176662080D01*
X60601860Y-177962560D02*
X60601860Y-172760640D01*
X60601860Y-172760640D02*
X63400940Y-172760640D01*
X63400940Y-172760640D02*
X63400940Y-177962560D01*
X63400940Y-177962560D02*
X60601860Y-177962560D01*
X61300360Y-176662080D02*
X61300360Y-174061120D01*
X61300360Y-174061120D02*
X62702440Y-174061120D01*
X62702440Y-174061120D02*
X62702440Y-176662080D01*
X62702440Y-176662080D02*
X61300360Y-176662080D01*
X60200540Y-178361340D02*
X60200540Y-172361860D01*
X60200540Y-172361860D02*
X63802260Y-172361860D01*
X63802260Y-172361860D02*
X63802260Y-178361340D01*
X63802260Y-178361340D02*
X60200540Y-178361340D01*
X75440540Y-172361860D02*
X79042260Y-172361860D01*
X75440540Y-178361340D02*
X75440540Y-172361860D01*
X79042260Y-178361340D02*
X75440540Y-178361340D01*
X79042260Y-172361860D02*
X79042260Y-178361340D01*
X76540360Y-174061120D02*
X77942440Y-174061120D01*
X76540360Y-176662080D02*
X76540360Y-174061120D01*
X77942440Y-176662080D02*
X76540360Y-176662080D01*
X77942440Y-174061120D02*
X77942440Y-176662080D01*
X75841860Y-172760640D02*
X78640940Y-172760640D01*
X75841860Y-177962560D02*
X75841860Y-172760640D01*
X78640940Y-177962560D02*
X75841860Y-177962560D01*
X78640940Y-172760640D02*
X78640940Y-177962560D01*
X78640940Y-172760640D02*
X77942440Y-174061120D01*
X76540360Y-174061120D02*
X75841860Y-172760640D01*
X76540360Y-176662080D02*
X75841860Y-177962560D01*
X77942440Y-176662080D02*
X78640940Y-177962560D01*
D12*
X71653400Y-170027600D02*
X70891400Y-170027600D01*
X73939400Y-168503600D02*
X71653400Y-170027600D01*
X73939400Y-164439600D02*
X73939400Y-168503600D01*
X71653400Y-162915600D02*
X73939400Y-164439600D01*
X70891400Y-162915600D02*
X71653400Y-162915600D01*
X64795400Y-170027600D02*
X67843400Y-170027600D01*
X64795400Y-162915600D02*
X64795400Y-170027600D01*
X67843400Y-162915600D02*
X64795400Y-162915600D01*
X69740780Y-172821600D02*
X70690740Y-171571920D01*
X70690740Y-171571920D02*
X70690740Y-174071280D01*
X70690740Y-174071280D02*
X69692520Y-172821600D01*
X69692520Y-171571920D02*
X69692520Y-174071280D01*
X71991220Y-171571920D02*
X72090280Y-171571920D01*
X71991220Y-174071280D02*
X72090280Y-174071280D01*
X69692520Y-171571920D02*
X72042020Y-171571920D01*
X69692520Y-174071280D02*
X71940420Y-174071280D01*
D13*
X77546200Y-168071800D02*
X77546200Y-164871400D01*
X75920600Y-168071800D02*
X77546200Y-168071800D01*
X75920600Y-164871400D02*
X75920600Y-168071800D01*
X77546200Y-164871400D02*
X75920600Y-164871400D01*
X77546200Y-165328600D02*
X75920600Y-165328600D01*
X75920600Y-167614600D02*
X77546200Y-167614600D01*
X61188600Y-165836600D02*
X62814200Y-165836600D01*
X62814200Y-163550600D02*
X61188600Y-163550600D01*
X62814200Y-163093400D02*
X61188600Y-163093400D01*
X61188600Y-163093400D02*
X61188600Y-166293800D01*
X61188600Y-166293800D02*
X62814200Y-166293800D01*
X62814200Y-166293800D02*
X62814200Y-163093400D01*
D15*
X77620400Y-160121600D02*
X61620400Y-160121600D01*
X77622400Y-141833600D02*
X77622400Y-160121600D01*
X61620400Y-141833600D02*
X77622400Y-141833600D01*
X61620400Y-141833600D02*
X61620400Y-160121600D01*
D16*
X74657000Y-186585000D02*
X64657000Y-186585000D01*
X74657000Y-181685000D02*
X64657000Y-181685000D01*
X74157000Y-184185000D02*
G75*
G03X74157000Y-184185000I-2000000J0D01*
G01*
X69157000Y-184185000D02*
G75*
G03X69157000Y-184185000I-2000000J0D01*
G01*
X64577000Y-186571000D02*
X64577000Y-181745000D01*
X74737000Y-186571000D02*
X74737000Y-181745000D01*
X107757000Y-186571000D02*
X107757000Y-181745000D01*
X97597000Y-186571000D02*
X97597000Y-181745000D01*
X102177000Y-184185000D02*
G75*
G03X102177000Y-184185000I-2000000J0D01*
G01*
X107177000Y-184185000D02*
G75*
G03X107177000Y-184185000I-2000000J0D01*
G01*
X107677000Y-181685000D02*
X97677000Y-181685000D01*
X107677000Y-186585000D02*
X97677000Y-186585000D01*
D15*
X94640400Y-141833600D02*
X94640400Y-160121600D01*
X94640400Y-141833600D02*
X110642400Y-141833600D01*
X110642400Y-141833600D02*
X110642400Y-160121600D01*
X110640400Y-160121600D02*
X94640400Y-160121600D01*
D13*
X95834200Y-166293800D02*
X95834200Y-163093400D01*
X94208600Y-166293800D02*
X95834200Y-166293800D01*
X94208600Y-163093400D02*
X94208600Y-166293800D01*
X95834200Y-163093400D02*
X94208600Y-163093400D01*
X95834200Y-163550600D02*
X94208600Y-163550600D01*
X94208600Y-165836600D02*
X95834200Y-165836600D01*
X108940600Y-167614600D02*
X110566200Y-167614600D01*
X110566200Y-165328600D02*
X108940600Y-165328600D01*
X110566200Y-164871400D02*
X108940600Y-164871400D01*
X108940600Y-164871400D02*
X108940600Y-168071800D01*
X108940600Y-168071800D02*
X110566200Y-168071800D01*
X110566200Y-168071800D02*
X110566200Y-164871400D01*
D12*
X102712520Y-174071280D02*
X104960420Y-174071280D01*
X102712520Y-171571920D02*
X105062020Y-171571920D01*
X105011220Y-174071280D02*
X105110280Y-174071280D01*
X105011220Y-171571920D02*
X105110280Y-171571920D01*
X102712520Y-171571920D02*
X102712520Y-174071280D01*
X103710740Y-174071280D02*
X102712520Y-172821600D01*
X103710740Y-171571920D02*
X103710740Y-174071280D01*
X102760780Y-172821600D02*
X103710740Y-171571920D01*
X100863400Y-162915600D02*
X97815400Y-162915600D01*
X97815400Y-162915600D02*
X97815400Y-170027600D01*
X97815400Y-170027600D02*
X100863400Y-170027600D01*
X103911400Y-162915600D02*
X104673400Y-162915600D01*
X104673400Y-162915600D02*
X106959400Y-164439600D01*
X106959400Y-164439600D02*
X106959400Y-168503600D01*
X106959400Y-168503600D02*
X104673400Y-170027600D01*
X104673400Y-170027600D02*
X103911400Y-170027600D01*
D14*
X110962440Y-176662080D02*
X111660940Y-177962560D01*
X109560360Y-176662080D02*
X108861860Y-177962560D01*
X109560360Y-174061120D02*
X108861860Y-172760640D01*
X111660940Y-172760640D02*
X110962440Y-174061120D01*
X111660940Y-172760640D02*
X111660940Y-177962560D01*
X111660940Y-177962560D02*
X108861860Y-177962560D01*
X108861860Y-177962560D02*
X108861860Y-172760640D01*
X108861860Y-172760640D02*
X111660940Y-172760640D01*
X110962440Y-174061120D02*
X110962440Y-176662080D01*
X110962440Y-176662080D02*
X109560360Y-176662080D01*
X109560360Y-176662080D02*
X109560360Y-174061120D01*
X109560360Y-174061120D02*
X110962440Y-174061120D01*
X112062260Y-172361860D02*
X112062260Y-178361340D01*
X112062260Y-178361340D02*
X108460540Y-178361340D01*
X108460540Y-178361340D02*
X108460540Y-172361860D01*
X108460540Y-172361860D02*
X112062260Y-172361860D01*
X96822260Y-178361340D02*
X93220540Y-178361340D01*
X96822260Y-172361860D02*
X96822260Y-178361340D01*
X93220540Y-172361860D02*
X96822260Y-172361860D01*
X93220540Y-178361340D02*
X93220540Y-172361860D01*
X95722440Y-176662080D02*
X94320360Y-176662080D01*
X95722440Y-174061120D02*
X95722440Y-176662080D01*
X94320360Y-174061120D02*
X95722440Y-174061120D01*
X94320360Y-176662080D02*
X94320360Y-174061120D01*
X96420940Y-177962560D02*
X93621860Y-177962560D01*
X96420940Y-172760640D02*
X96420940Y-177962560D01*
X93621860Y-172760640D02*
X96420940Y-172760640D01*
X93621860Y-177962560D02*
X93621860Y-172760640D01*
X93621860Y-177962560D02*
X94320360Y-176662080D01*
X95722440Y-176662080D02*
X96420940Y-177962560D01*
X95722440Y-174061120D02*
X96420940Y-172760640D01*
X94320360Y-174061120D02*
X93621860Y-172760640D01*
D13*
X104368600Y-177038000D02*
X104368600Y-176225200D01*
X105994200Y-177038000D02*
X104368600Y-177038000D01*
X105994200Y-176225200D02*
X105994200Y-177038000D01*
X104368600Y-176225200D02*
X105994200Y-176225200D01*
X104622600Y-176250600D02*
X104622600Y-177038000D01*
X105740200Y-177038000D02*
X105740200Y-176225200D01*
X95427800Y-168452800D02*
X94615000Y-168452800D01*
X94640400Y-169570400D02*
X95427800Y-169570400D01*
X94615000Y-169824400D02*
X94615000Y-168198800D01*
X94615000Y-168198800D02*
X95427800Y-168198800D01*
X95427800Y-168198800D02*
X95427800Y-169824400D01*
X95427800Y-169824400D02*
X94615000Y-169824400D01*
X100799900Y-178130200D02*
X99402900Y-178130200D01*
X100799900Y-175133000D02*
X100799900Y-178130200D01*
X99402900Y-175133000D02*
X100799900Y-175133000D01*
X99402900Y-178130200D02*
X99402900Y-175133000D01*
X99402900Y-176631600D02*
X98742500Y-176631600D01*
X100799900Y-177584100D02*
X101460300Y-177584100D01*
X100799900Y-175679100D02*
X101460300Y-175679100D01*
D12*
X116611400Y-180441600D02*
X116611400Y-142341600D01*
X116611400Y-142341600D02*
X114071400Y-142341600D01*
X114071400Y-142341600D02*
X114071400Y-180441600D01*
X113791400Y-183261600D02*
X113791400Y-181711600D01*
X114071400Y-180441600D02*
X116611400Y-180441600D01*
X116891400Y-181711600D02*
X116891400Y-183261600D01*
X116891400Y-183261600D02*
X113791400Y-183261600D01*
X88391400Y-142061600D02*
X91491400Y-142061600D01*
X88391400Y-143611600D02*
X88391400Y-142061600D01*
X91211400Y-144881600D02*
X88671400Y-144881600D01*
X91491400Y-142061600D02*
X91491400Y-143611600D01*
X91211400Y-182981600D02*
X91211400Y-144881600D01*
X88671400Y-182981600D02*
X91211400Y-182981600D01*
X88671400Y-144881600D02*
X88671400Y-182981600D01*
D10*
X102798114Y-128189028D02*
X102762400Y-128260457D01*
X102690971Y-128331885D01*
X102583828Y-128439028D01*
X102548114Y-128510457D01*
X102548114Y-128581885D01*
X102726685Y-128546171D02*
X102690971Y-128617600D01*
X102619542Y-128689028D01*
X102476685Y-128724742D01*
X102226685Y-128724742D01*
X102083828Y-128689028D01*
X102012400Y-128617600D01*
X101976685Y-128546171D01*
X101976685Y-128403314D01*
X102012400Y-128331885D01*
X102083828Y-128260457D01*
X102226685Y-128224742D01*
X102476685Y-128224742D01*
X102619542Y-128260457D01*
X102690971Y-128331885D01*
X102726685Y-128403314D01*
X102726685Y-128546171D01*
X102048114Y-127939028D02*
X102012400Y-127903314D01*
X101976685Y-127831885D01*
X101976685Y-127653314D01*
X102012400Y-127581885D01*
X102048114Y-127546171D01*
X102119542Y-127510457D01*
X102190971Y-127510457D01*
X102298114Y-127546171D01*
X102726685Y-127974742D01*
X102726685Y-127510457D01*
X96884685Y-120876600D02*
X96527542Y-121126600D01*
X96884685Y-121305171D02*
X96134685Y-121305171D01*
X96134685Y-121019457D01*
X96170400Y-120948028D01*
X96206114Y-120912314D01*
X96277542Y-120876600D01*
X96384685Y-120876600D01*
X96456114Y-120912314D01*
X96491828Y-120948028D01*
X96527542Y-121019457D01*
X96527542Y-121305171D01*
X96134685Y-120626600D02*
X96134685Y-120162314D01*
X96420400Y-120412314D01*
X96420400Y-120305171D01*
X96456114Y-120233742D01*
X96491828Y-120198028D01*
X96563257Y-120162314D01*
X96741828Y-120162314D01*
X96813257Y-120198028D01*
X96848971Y-120233742D01*
X96884685Y-120305171D01*
X96884685Y-120519457D01*
X96848971Y-120590885D01*
X96813257Y-120626600D01*
X105056400Y-129980885D02*
X104806400Y-129623742D01*
X104627828Y-129980885D02*
X104627828Y-129230885D01*
X104913542Y-129230885D01*
X104984971Y-129266600D01*
X105020685Y-129302314D01*
X105056400Y-129373742D01*
X105056400Y-129480885D01*
X105020685Y-129552314D01*
X104984971Y-129588028D01*
X104913542Y-129623742D01*
X104627828Y-129623742D01*
X105699257Y-129480885D02*
X105699257Y-129980885D01*
X105520685Y-129195171D02*
X105342114Y-129730885D01*
X105806400Y-129730885D01*
X102027485Y-118732228D02*
X102634628Y-118732228D01*
X102706057Y-118696514D01*
X102741771Y-118660800D01*
X102777485Y-118589371D01*
X102777485Y-118446514D01*
X102741771Y-118375085D01*
X102706057Y-118339371D01*
X102634628Y-118303657D01*
X102027485Y-118303657D01*
X102277485Y-117625085D02*
X102777485Y-117625085D01*
X101991771Y-117803657D02*
X102527485Y-117982228D01*
X102527485Y-117517942D01*
X100186685Y-125115171D02*
X99436685Y-125115171D01*
X99436685Y-124936600D01*
X99472400Y-124829457D01*
X99543828Y-124758028D01*
X99615257Y-124722314D01*
X99758114Y-124686600D01*
X99865257Y-124686600D01*
X100008114Y-124722314D01*
X100079542Y-124758028D01*
X100150971Y-124829457D01*
X100186685Y-124936600D01*
X100186685Y-125115171D01*
X99508114Y-124400885D02*
X99472400Y-124365171D01*
X99436685Y-124293742D01*
X99436685Y-124115171D01*
X99472400Y-124043742D01*
X99508114Y-124008028D01*
X99579542Y-123972314D01*
X99650971Y-123972314D01*
X99758114Y-124008028D01*
X100186685Y-124436600D01*
X100186685Y-123972314D01*
X111850057Y-118235000D02*
X111885771Y-118270714D01*
X111921485Y-118377857D01*
X111921485Y-118449285D01*
X111885771Y-118556428D01*
X111814342Y-118627857D01*
X111742914Y-118663571D01*
X111600057Y-118699285D01*
X111492914Y-118699285D01*
X111350057Y-118663571D01*
X111278628Y-118627857D01*
X111207200Y-118556428D01*
X111171485Y-118449285D01*
X111171485Y-118377857D01*
X111207200Y-118270714D01*
X111242914Y-118235000D01*
X111171485Y-117985000D02*
X111171485Y-117520714D01*
X111457200Y-117770714D01*
X111457200Y-117663571D01*
X111492914Y-117592142D01*
X111528628Y-117556428D01*
X111600057Y-117520714D01*
X111778628Y-117520714D01*
X111850057Y-117556428D01*
X111885771Y-117592142D01*
X111921485Y-117663571D01*
X111921485Y-117877857D01*
X111885771Y-117949285D01*
X111850057Y-117985000D01*
X96864057Y-116406200D02*
X96899771Y-116441914D01*
X96935485Y-116549057D01*
X96935485Y-116620485D01*
X96899771Y-116727628D01*
X96828342Y-116799057D01*
X96756914Y-116834771D01*
X96614057Y-116870485D01*
X96506914Y-116870485D01*
X96364057Y-116834771D01*
X96292628Y-116799057D01*
X96221200Y-116727628D01*
X96185485Y-116620485D01*
X96185485Y-116549057D01*
X96221200Y-116441914D01*
X96256914Y-116406200D01*
X96435485Y-115763342D02*
X96935485Y-115763342D01*
X96149771Y-115941914D02*
X96685485Y-116120485D01*
X96685485Y-115656200D01*
X109689971Y-112212885D02*
X109689971Y-112820028D01*
X109725685Y-112891457D01*
X109761400Y-112927171D01*
X109832828Y-112962885D01*
X109975685Y-112962885D01*
X110047114Y-112927171D01*
X110082828Y-112891457D01*
X110118542Y-112820028D01*
X110118542Y-112212885D01*
X110404257Y-112212885D02*
X110868542Y-112212885D01*
X110618542Y-112498600D01*
X110725685Y-112498600D01*
X110797114Y-112534314D01*
X110832828Y-112570028D01*
X110868542Y-112641457D01*
X110868542Y-112820028D01*
X110832828Y-112891457D01*
X110797114Y-112927171D01*
X110725685Y-112962885D01*
X110511400Y-112962885D01*
X110439971Y-112927171D01*
X110404257Y-112891457D01*
X76669971Y-112212885D02*
X76669971Y-112820028D01*
X76705685Y-112891457D01*
X76741400Y-112927171D01*
X76812828Y-112962885D01*
X76955685Y-112962885D01*
X77027114Y-112927171D01*
X77062828Y-112891457D01*
X77098542Y-112820028D01*
X77098542Y-112212885D01*
X77384257Y-112212885D02*
X77848542Y-112212885D01*
X77598542Y-112498600D01*
X77705685Y-112498600D01*
X77777114Y-112534314D01*
X77812828Y-112570028D01*
X77848542Y-112641457D01*
X77848542Y-112820028D01*
X77812828Y-112891457D01*
X77777114Y-112927171D01*
X77705685Y-112962885D01*
X77491400Y-112962885D01*
X77419971Y-112927171D01*
X77384257Y-112891457D01*
X63844057Y-116406200D02*
X63879771Y-116441914D01*
X63915485Y-116549057D01*
X63915485Y-116620485D01*
X63879771Y-116727628D01*
X63808342Y-116799057D01*
X63736914Y-116834771D01*
X63594057Y-116870485D01*
X63486914Y-116870485D01*
X63344057Y-116834771D01*
X63272628Y-116799057D01*
X63201200Y-116727628D01*
X63165485Y-116620485D01*
X63165485Y-116549057D01*
X63201200Y-116441914D01*
X63236914Y-116406200D01*
X63415485Y-115763342D02*
X63915485Y-115763342D01*
X63129771Y-115941914D02*
X63665485Y-116120485D01*
X63665485Y-115656200D01*
X78830057Y-118235000D02*
X78865771Y-118270714D01*
X78901485Y-118377857D01*
X78901485Y-118449285D01*
X78865771Y-118556428D01*
X78794342Y-118627857D01*
X78722914Y-118663571D01*
X78580057Y-118699285D01*
X78472914Y-118699285D01*
X78330057Y-118663571D01*
X78258628Y-118627857D01*
X78187200Y-118556428D01*
X78151485Y-118449285D01*
X78151485Y-118377857D01*
X78187200Y-118270714D01*
X78222914Y-118235000D01*
X78151485Y-117985000D02*
X78151485Y-117520714D01*
X78437200Y-117770714D01*
X78437200Y-117663571D01*
X78472914Y-117592142D01*
X78508628Y-117556428D01*
X78580057Y-117520714D01*
X78758628Y-117520714D01*
X78830057Y-117556428D01*
X78865771Y-117592142D01*
X78901485Y-117663571D01*
X78901485Y-117877857D01*
X78865771Y-117949285D01*
X78830057Y-117985000D01*
X67166685Y-125115171D02*
X66416685Y-125115171D01*
X66416685Y-124936600D01*
X66452400Y-124829457D01*
X66523828Y-124758028D01*
X66595257Y-124722314D01*
X66738114Y-124686600D01*
X66845257Y-124686600D01*
X66988114Y-124722314D01*
X67059542Y-124758028D01*
X67130971Y-124829457D01*
X67166685Y-124936600D01*
X67166685Y-125115171D01*
X66488114Y-124400885D02*
X66452400Y-124365171D01*
X66416685Y-124293742D01*
X66416685Y-124115171D01*
X66452400Y-124043742D01*
X66488114Y-124008028D01*
X66559542Y-123972314D01*
X66630971Y-123972314D01*
X66738114Y-124008028D01*
X67166685Y-124436600D01*
X67166685Y-123972314D01*
X69007485Y-118732228D02*
X69614628Y-118732228D01*
X69686057Y-118696514D01*
X69721771Y-118660800D01*
X69757485Y-118589371D01*
X69757485Y-118446514D01*
X69721771Y-118375085D01*
X69686057Y-118339371D01*
X69614628Y-118303657D01*
X69007485Y-118303657D01*
X69257485Y-117625085D02*
X69757485Y-117625085D01*
X68971771Y-117803657D02*
X69507485Y-117982228D01*
X69507485Y-117517942D01*
X72036400Y-129980885D02*
X71786400Y-129623742D01*
X71607828Y-129980885D02*
X71607828Y-129230885D01*
X71893542Y-129230885D01*
X71964971Y-129266600D01*
X72000685Y-129302314D01*
X72036400Y-129373742D01*
X72036400Y-129480885D01*
X72000685Y-129552314D01*
X71964971Y-129588028D01*
X71893542Y-129623742D01*
X71607828Y-129623742D01*
X72679257Y-129480885D02*
X72679257Y-129980885D01*
X72500685Y-129195171D02*
X72322114Y-129730885D01*
X72786400Y-129730885D01*
X63864685Y-120876600D02*
X63507542Y-121126600D01*
X63864685Y-121305171D02*
X63114685Y-121305171D01*
X63114685Y-121019457D01*
X63150400Y-120948028D01*
X63186114Y-120912314D01*
X63257542Y-120876600D01*
X63364685Y-120876600D01*
X63436114Y-120912314D01*
X63471828Y-120948028D01*
X63507542Y-121019457D01*
X63507542Y-121305171D01*
X63114685Y-120626600D02*
X63114685Y-120162314D01*
X63400400Y-120412314D01*
X63400400Y-120305171D01*
X63436114Y-120233742D01*
X63471828Y-120198028D01*
X63543257Y-120162314D01*
X63721828Y-120162314D01*
X63793257Y-120198028D01*
X63828971Y-120233742D01*
X63864685Y-120305171D01*
X63864685Y-120519457D01*
X63828971Y-120590885D01*
X63793257Y-120626600D01*
X69778114Y-128189028D02*
X69742400Y-128260457D01*
X69670971Y-128331885D01*
X69563828Y-128439028D01*
X69528114Y-128510457D01*
X69528114Y-128581885D01*
X69706685Y-128546171D02*
X69670971Y-128617600D01*
X69599542Y-128689028D01*
X69456685Y-128724742D01*
X69206685Y-128724742D01*
X69063828Y-128689028D01*
X68992400Y-128617600D01*
X68956685Y-128546171D01*
X68956685Y-128403314D01*
X68992400Y-128331885D01*
X69063828Y-128260457D01*
X69206685Y-128224742D01*
X69456685Y-128224742D01*
X69599542Y-128260457D01*
X69670971Y-128331885D01*
X69706685Y-128403314D01*
X69706685Y-128546171D01*
X69028114Y-127939028D02*
X68992400Y-127903314D01*
X68956685Y-127831885D01*
X68956685Y-127653314D01*
X68992400Y-127581885D01*
X69028114Y-127546171D01*
X69099542Y-127510457D01*
X69170971Y-127510457D01*
X69278114Y-127546171D01*
X69706685Y-127974742D01*
X69706685Y-127510457D01*
X36758114Y-128189028D02*
X36722400Y-128260457D01*
X36650971Y-128331885D01*
X36543828Y-128439028D01*
X36508114Y-128510457D01*
X36508114Y-128581885D01*
X36686685Y-128546171D02*
X36650971Y-128617600D01*
X36579542Y-128689028D01*
X36436685Y-128724742D01*
X36186685Y-128724742D01*
X36043828Y-128689028D01*
X35972400Y-128617600D01*
X35936685Y-128546171D01*
X35936685Y-128403314D01*
X35972400Y-128331885D01*
X36043828Y-128260457D01*
X36186685Y-128224742D01*
X36436685Y-128224742D01*
X36579542Y-128260457D01*
X36650971Y-128331885D01*
X36686685Y-128403314D01*
X36686685Y-128546171D01*
X36008114Y-127939028D02*
X35972400Y-127903314D01*
X35936685Y-127831885D01*
X35936685Y-127653314D01*
X35972400Y-127581885D01*
X36008114Y-127546171D01*
X36079542Y-127510457D01*
X36150971Y-127510457D01*
X36258114Y-127546171D01*
X36686685Y-127974742D01*
X36686685Y-127510457D01*
X30844685Y-120876600D02*
X30487542Y-121126600D01*
X30844685Y-121305171D02*
X30094685Y-121305171D01*
X30094685Y-121019457D01*
X30130400Y-120948028D01*
X30166114Y-120912314D01*
X30237542Y-120876600D01*
X30344685Y-120876600D01*
X30416114Y-120912314D01*
X30451828Y-120948028D01*
X30487542Y-121019457D01*
X30487542Y-121305171D01*
X30094685Y-120626600D02*
X30094685Y-120162314D01*
X30380400Y-120412314D01*
X30380400Y-120305171D01*
X30416114Y-120233742D01*
X30451828Y-120198028D01*
X30523257Y-120162314D01*
X30701828Y-120162314D01*
X30773257Y-120198028D01*
X30808971Y-120233742D01*
X30844685Y-120305171D01*
X30844685Y-120519457D01*
X30808971Y-120590885D01*
X30773257Y-120626600D01*
X39016400Y-129980885D02*
X38766400Y-129623742D01*
X38587828Y-129980885D02*
X38587828Y-129230885D01*
X38873542Y-129230885D01*
X38944971Y-129266600D01*
X38980685Y-129302314D01*
X39016400Y-129373742D01*
X39016400Y-129480885D01*
X38980685Y-129552314D01*
X38944971Y-129588028D01*
X38873542Y-129623742D01*
X38587828Y-129623742D01*
X39659257Y-129480885D02*
X39659257Y-129980885D01*
X39480685Y-129195171D02*
X39302114Y-129730885D01*
X39766400Y-129730885D01*
X35987485Y-118732228D02*
X36594628Y-118732228D01*
X36666057Y-118696514D01*
X36701771Y-118660800D01*
X36737485Y-118589371D01*
X36737485Y-118446514D01*
X36701771Y-118375085D01*
X36666057Y-118339371D01*
X36594628Y-118303657D01*
X35987485Y-118303657D01*
X36237485Y-117625085D02*
X36737485Y-117625085D01*
X35951771Y-117803657D02*
X36487485Y-117982228D01*
X36487485Y-117517942D01*
X34146685Y-125115171D02*
X33396685Y-125115171D01*
X33396685Y-124936600D01*
X33432400Y-124829457D01*
X33503828Y-124758028D01*
X33575257Y-124722314D01*
X33718114Y-124686600D01*
X33825257Y-124686600D01*
X33968114Y-124722314D01*
X34039542Y-124758028D01*
X34110971Y-124829457D01*
X34146685Y-124936600D01*
X34146685Y-125115171D01*
X33468114Y-124400885D02*
X33432400Y-124365171D01*
X33396685Y-124293742D01*
X33396685Y-124115171D01*
X33432400Y-124043742D01*
X33468114Y-124008028D01*
X33539542Y-123972314D01*
X33610971Y-123972314D01*
X33718114Y-124008028D01*
X34146685Y-124436600D01*
X34146685Y-123972314D01*
X45810057Y-118235000D02*
X45845771Y-118270714D01*
X45881485Y-118377857D01*
X45881485Y-118449285D01*
X45845771Y-118556428D01*
X45774342Y-118627857D01*
X45702914Y-118663571D01*
X45560057Y-118699285D01*
X45452914Y-118699285D01*
X45310057Y-118663571D01*
X45238628Y-118627857D01*
X45167200Y-118556428D01*
X45131485Y-118449285D01*
X45131485Y-118377857D01*
X45167200Y-118270714D01*
X45202914Y-118235000D01*
X45131485Y-117985000D02*
X45131485Y-117520714D01*
X45417200Y-117770714D01*
X45417200Y-117663571D01*
X45452914Y-117592142D01*
X45488628Y-117556428D01*
X45560057Y-117520714D01*
X45738628Y-117520714D01*
X45810057Y-117556428D01*
X45845771Y-117592142D01*
X45881485Y-117663571D01*
X45881485Y-117877857D01*
X45845771Y-117949285D01*
X45810057Y-117985000D01*
X30824057Y-116406200D02*
X30859771Y-116441914D01*
X30895485Y-116549057D01*
X30895485Y-116620485D01*
X30859771Y-116727628D01*
X30788342Y-116799057D01*
X30716914Y-116834771D01*
X30574057Y-116870485D01*
X30466914Y-116870485D01*
X30324057Y-116834771D01*
X30252628Y-116799057D01*
X30181200Y-116727628D01*
X30145485Y-116620485D01*
X30145485Y-116549057D01*
X30181200Y-116441914D01*
X30216914Y-116406200D01*
X30395485Y-115763342D02*
X30895485Y-115763342D01*
X30109771Y-115941914D02*
X30645485Y-116120485D01*
X30645485Y-115656200D01*
X43649971Y-112212885D02*
X43649971Y-112820028D01*
X43685685Y-112891457D01*
X43721400Y-112927171D01*
X43792828Y-112962885D01*
X43935685Y-112962885D01*
X44007114Y-112927171D01*
X44042828Y-112891457D01*
X44078542Y-112820028D01*
X44078542Y-112212885D01*
X44364257Y-112212885D02*
X44828542Y-112212885D01*
X44578542Y-112498600D01*
X44685685Y-112498600D01*
X44757114Y-112534314D01*
X44792828Y-112570028D01*
X44828542Y-112641457D01*
X44828542Y-112820028D01*
X44792828Y-112891457D01*
X44757114Y-112927171D01*
X44685685Y-112962885D01*
X44471400Y-112962885D01*
X44399971Y-112927171D01*
X44364257Y-112891457D01*
X43649971Y-160472885D02*
X43649971Y-161080028D01*
X43685685Y-161151457D01*
X43721400Y-161187171D01*
X43792828Y-161222885D01*
X43935685Y-161222885D01*
X44007114Y-161187171D01*
X44042828Y-161151457D01*
X44078542Y-161080028D01*
X44078542Y-160472885D01*
X44364257Y-160472885D02*
X44828542Y-160472885D01*
X44578542Y-160758600D01*
X44685685Y-160758600D01*
X44757114Y-160794314D01*
X44792828Y-160830028D01*
X44828542Y-160901457D01*
X44828542Y-161080028D01*
X44792828Y-161151457D01*
X44757114Y-161187171D01*
X44685685Y-161222885D01*
X44471400Y-161222885D01*
X44399971Y-161187171D01*
X44364257Y-161151457D01*
X30824057Y-164666200D02*
X30859771Y-164701914D01*
X30895485Y-164809057D01*
X30895485Y-164880485D01*
X30859771Y-164987628D01*
X30788342Y-165059057D01*
X30716914Y-165094771D01*
X30574057Y-165130485D01*
X30466914Y-165130485D01*
X30324057Y-165094771D01*
X30252628Y-165059057D01*
X30181200Y-164987628D01*
X30145485Y-164880485D01*
X30145485Y-164809057D01*
X30181200Y-164701914D01*
X30216914Y-164666200D01*
X30395485Y-164023342D02*
X30895485Y-164023342D01*
X30109771Y-164201914D02*
X30645485Y-164380485D01*
X30645485Y-163916200D01*
X45810057Y-166495000D02*
X45845771Y-166530714D01*
X45881485Y-166637857D01*
X45881485Y-166709285D01*
X45845771Y-166816428D01*
X45774342Y-166887857D01*
X45702914Y-166923571D01*
X45560057Y-166959285D01*
X45452914Y-166959285D01*
X45310057Y-166923571D01*
X45238628Y-166887857D01*
X45167200Y-166816428D01*
X45131485Y-166709285D01*
X45131485Y-166637857D01*
X45167200Y-166530714D01*
X45202914Y-166495000D01*
X45131485Y-166245000D02*
X45131485Y-165780714D01*
X45417200Y-166030714D01*
X45417200Y-165923571D01*
X45452914Y-165852142D01*
X45488628Y-165816428D01*
X45560057Y-165780714D01*
X45738628Y-165780714D01*
X45810057Y-165816428D01*
X45845771Y-165852142D01*
X45881485Y-165923571D01*
X45881485Y-166137857D01*
X45845771Y-166209285D01*
X45810057Y-166245000D01*
X34146685Y-173375171D02*
X33396685Y-173375171D01*
X33396685Y-173196600D01*
X33432400Y-173089457D01*
X33503828Y-173018028D01*
X33575257Y-172982314D01*
X33718114Y-172946600D01*
X33825257Y-172946600D01*
X33968114Y-172982314D01*
X34039542Y-173018028D01*
X34110971Y-173089457D01*
X34146685Y-173196600D01*
X34146685Y-173375171D01*
X33468114Y-172660885D02*
X33432400Y-172625171D01*
X33396685Y-172553742D01*
X33396685Y-172375171D01*
X33432400Y-172303742D01*
X33468114Y-172268028D01*
X33539542Y-172232314D01*
X33610971Y-172232314D01*
X33718114Y-172268028D01*
X34146685Y-172696600D01*
X34146685Y-172232314D01*
X35987485Y-166992228D02*
X36594628Y-166992228D01*
X36666057Y-166956514D01*
X36701771Y-166920800D01*
X36737485Y-166849371D01*
X36737485Y-166706514D01*
X36701771Y-166635085D01*
X36666057Y-166599371D01*
X36594628Y-166563657D01*
X35987485Y-166563657D01*
X36237485Y-165885085D02*
X36737485Y-165885085D01*
X35951771Y-166063657D02*
X36487485Y-166242228D01*
X36487485Y-165777942D01*
X39016400Y-178240885D02*
X38766400Y-177883742D01*
X38587828Y-178240885D02*
X38587828Y-177490885D01*
X38873542Y-177490885D01*
X38944971Y-177526600D01*
X38980685Y-177562314D01*
X39016400Y-177633742D01*
X39016400Y-177740885D01*
X38980685Y-177812314D01*
X38944971Y-177848028D01*
X38873542Y-177883742D01*
X38587828Y-177883742D01*
X39659257Y-177740885D02*
X39659257Y-178240885D01*
X39480685Y-177455171D02*
X39302114Y-177990885D01*
X39766400Y-177990885D01*
X30844685Y-169136600D02*
X30487542Y-169386600D01*
X30844685Y-169565171D02*
X30094685Y-169565171D01*
X30094685Y-169279457D01*
X30130400Y-169208028D01*
X30166114Y-169172314D01*
X30237542Y-169136600D01*
X30344685Y-169136600D01*
X30416114Y-169172314D01*
X30451828Y-169208028D01*
X30487542Y-169279457D01*
X30487542Y-169565171D01*
X30094685Y-168886600D02*
X30094685Y-168422314D01*
X30380400Y-168672314D01*
X30380400Y-168565171D01*
X30416114Y-168493742D01*
X30451828Y-168458028D01*
X30523257Y-168422314D01*
X30701828Y-168422314D01*
X30773257Y-168458028D01*
X30808971Y-168493742D01*
X30844685Y-168565171D01*
X30844685Y-168779457D01*
X30808971Y-168850885D01*
X30773257Y-168886600D01*
X36758114Y-176449028D02*
X36722400Y-176520457D01*
X36650971Y-176591885D01*
X36543828Y-176699028D01*
X36508114Y-176770457D01*
X36508114Y-176841885D01*
X36686685Y-176806171D02*
X36650971Y-176877600D01*
X36579542Y-176949028D01*
X36436685Y-176984742D01*
X36186685Y-176984742D01*
X36043828Y-176949028D01*
X35972400Y-176877600D01*
X35936685Y-176806171D01*
X35936685Y-176663314D01*
X35972400Y-176591885D01*
X36043828Y-176520457D01*
X36186685Y-176484742D01*
X36436685Y-176484742D01*
X36579542Y-176520457D01*
X36650971Y-176591885D01*
X36686685Y-176663314D01*
X36686685Y-176806171D01*
X36008114Y-176199028D02*
X35972400Y-176163314D01*
X35936685Y-176091885D01*
X35936685Y-175913314D01*
X35972400Y-175841885D01*
X36008114Y-175806171D01*
X36079542Y-175770457D01*
X36150971Y-175770457D01*
X36258114Y-175806171D01*
X36686685Y-176234742D01*
X36686685Y-175770457D01*
X69778114Y-176449028D02*
X69742400Y-176520457D01*
X69670971Y-176591885D01*
X69563828Y-176699028D01*
X69528114Y-176770457D01*
X69528114Y-176841885D01*
X69706685Y-176806171D02*
X69670971Y-176877600D01*
X69599542Y-176949028D01*
X69456685Y-176984742D01*
X69206685Y-176984742D01*
X69063828Y-176949028D01*
X68992400Y-176877600D01*
X68956685Y-176806171D01*
X68956685Y-176663314D01*
X68992400Y-176591885D01*
X69063828Y-176520457D01*
X69206685Y-176484742D01*
X69456685Y-176484742D01*
X69599542Y-176520457D01*
X69670971Y-176591885D01*
X69706685Y-176663314D01*
X69706685Y-176806171D01*
X69028114Y-176199028D02*
X68992400Y-176163314D01*
X68956685Y-176091885D01*
X68956685Y-175913314D01*
X68992400Y-175841885D01*
X69028114Y-175806171D01*
X69099542Y-175770457D01*
X69170971Y-175770457D01*
X69278114Y-175806171D01*
X69706685Y-176234742D01*
X69706685Y-175770457D01*
X63864685Y-169136600D02*
X63507542Y-169386600D01*
X63864685Y-169565171D02*
X63114685Y-169565171D01*
X63114685Y-169279457D01*
X63150400Y-169208028D01*
X63186114Y-169172314D01*
X63257542Y-169136600D01*
X63364685Y-169136600D01*
X63436114Y-169172314D01*
X63471828Y-169208028D01*
X63507542Y-169279457D01*
X63507542Y-169565171D01*
X63114685Y-168886600D02*
X63114685Y-168422314D01*
X63400400Y-168672314D01*
X63400400Y-168565171D01*
X63436114Y-168493742D01*
X63471828Y-168458028D01*
X63543257Y-168422314D01*
X63721828Y-168422314D01*
X63793257Y-168458028D01*
X63828971Y-168493742D01*
X63864685Y-168565171D01*
X63864685Y-168779457D01*
X63828971Y-168850885D01*
X63793257Y-168886600D01*
X72036400Y-178240885D02*
X71786400Y-177883742D01*
X71607828Y-178240885D02*
X71607828Y-177490885D01*
X71893542Y-177490885D01*
X71964971Y-177526600D01*
X72000685Y-177562314D01*
X72036400Y-177633742D01*
X72036400Y-177740885D01*
X72000685Y-177812314D01*
X71964971Y-177848028D01*
X71893542Y-177883742D01*
X71607828Y-177883742D01*
X72679257Y-177740885D02*
X72679257Y-178240885D01*
X72500685Y-177455171D02*
X72322114Y-177990885D01*
X72786400Y-177990885D01*
X69007485Y-166992228D02*
X69614628Y-166992228D01*
X69686057Y-166956514D01*
X69721771Y-166920800D01*
X69757485Y-166849371D01*
X69757485Y-166706514D01*
X69721771Y-166635085D01*
X69686057Y-166599371D01*
X69614628Y-166563657D01*
X69007485Y-166563657D01*
X69257485Y-165885085D02*
X69757485Y-165885085D01*
X68971771Y-166063657D02*
X69507485Y-166242228D01*
X69507485Y-165777942D01*
X67166685Y-173375171D02*
X66416685Y-173375171D01*
X66416685Y-173196600D01*
X66452400Y-173089457D01*
X66523828Y-173018028D01*
X66595257Y-172982314D01*
X66738114Y-172946600D01*
X66845257Y-172946600D01*
X66988114Y-172982314D01*
X67059542Y-173018028D01*
X67130971Y-173089457D01*
X67166685Y-173196600D01*
X67166685Y-173375171D01*
X66488114Y-172660885D02*
X66452400Y-172625171D01*
X66416685Y-172553742D01*
X66416685Y-172375171D01*
X66452400Y-172303742D01*
X66488114Y-172268028D01*
X66559542Y-172232314D01*
X66630971Y-172232314D01*
X66738114Y-172268028D01*
X67166685Y-172696600D01*
X67166685Y-172232314D01*
X78830057Y-166495000D02*
X78865771Y-166530714D01*
X78901485Y-166637857D01*
X78901485Y-166709285D01*
X78865771Y-166816428D01*
X78794342Y-166887857D01*
X78722914Y-166923571D01*
X78580057Y-166959285D01*
X78472914Y-166959285D01*
X78330057Y-166923571D01*
X78258628Y-166887857D01*
X78187200Y-166816428D01*
X78151485Y-166709285D01*
X78151485Y-166637857D01*
X78187200Y-166530714D01*
X78222914Y-166495000D01*
X78151485Y-166245000D02*
X78151485Y-165780714D01*
X78437200Y-166030714D01*
X78437200Y-165923571D01*
X78472914Y-165852142D01*
X78508628Y-165816428D01*
X78580057Y-165780714D01*
X78758628Y-165780714D01*
X78830057Y-165816428D01*
X78865771Y-165852142D01*
X78901485Y-165923571D01*
X78901485Y-166137857D01*
X78865771Y-166209285D01*
X78830057Y-166245000D01*
X63844057Y-164666200D02*
X63879771Y-164701914D01*
X63915485Y-164809057D01*
X63915485Y-164880485D01*
X63879771Y-164987628D01*
X63808342Y-165059057D01*
X63736914Y-165094771D01*
X63594057Y-165130485D01*
X63486914Y-165130485D01*
X63344057Y-165094771D01*
X63272628Y-165059057D01*
X63201200Y-164987628D01*
X63165485Y-164880485D01*
X63165485Y-164809057D01*
X63201200Y-164701914D01*
X63236914Y-164666200D01*
X63415485Y-164023342D02*
X63915485Y-164023342D01*
X63129771Y-164201914D02*
X63665485Y-164380485D01*
X63665485Y-163916200D01*
X76669971Y-160472885D02*
X76669971Y-161080028D01*
X76705685Y-161151457D01*
X76741400Y-161187171D01*
X76812828Y-161222885D01*
X76955685Y-161222885D01*
X77027114Y-161187171D01*
X77062828Y-161151457D01*
X77098542Y-161080028D01*
X77098542Y-160472885D01*
X77384257Y-160472885D02*
X77848542Y-160472885D01*
X77598542Y-160758600D01*
X77705685Y-160758600D01*
X77777114Y-160794314D01*
X77812828Y-160830028D01*
X77848542Y-160901457D01*
X77848542Y-161080028D01*
X77812828Y-161151457D01*
X77777114Y-161187171D01*
X77705685Y-161222885D01*
X77491400Y-161222885D01*
X77419971Y-161187171D01*
X77384257Y-161151457D01*
X109689971Y-160472885D02*
X109689971Y-161080028D01*
X109725685Y-161151457D01*
X109761400Y-161187171D01*
X109832828Y-161222885D01*
X109975685Y-161222885D01*
X110047114Y-161187171D01*
X110082828Y-161151457D01*
X110118542Y-161080028D01*
X110118542Y-160472885D01*
X110404257Y-160472885D02*
X110868542Y-160472885D01*
X110618542Y-160758600D01*
X110725685Y-160758600D01*
X110797114Y-160794314D01*
X110832828Y-160830028D01*
X110868542Y-160901457D01*
X110868542Y-161080028D01*
X110832828Y-161151457D01*
X110797114Y-161187171D01*
X110725685Y-161222885D01*
X110511400Y-161222885D01*
X110439971Y-161187171D01*
X110404257Y-161151457D01*
X96864057Y-164666200D02*
X96899771Y-164701914D01*
X96935485Y-164809057D01*
X96935485Y-164880485D01*
X96899771Y-164987628D01*
X96828342Y-165059057D01*
X96756914Y-165094771D01*
X96614057Y-165130485D01*
X96506914Y-165130485D01*
X96364057Y-165094771D01*
X96292628Y-165059057D01*
X96221200Y-164987628D01*
X96185485Y-164880485D01*
X96185485Y-164809057D01*
X96221200Y-164701914D01*
X96256914Y-164666200D01*
X96435485Y-164023342D02*
X96935485Y-164023342D01*
X96149771Y-164201914D02*
X96685485Y-164380485D01*
X96685485Y-163916200D01*
X111850057Y-166495000D02*
X111885771Y-166530714D01*
X111921485Y-166637857D01*
X111921485Y-166709285D01*
X111885771Y-166816428D01*
X111814342Y-166887857D01*
X111742914Y-166923571D01*
X111600057Y-166959285D01*
X111492914Y-166959285D01*
X111350057Y-166923571D01*
X111278628Y-166887857D01*
X111207200Y-166816428D01*
X111171485Y-166709285D01*
X111171485Y-166637857D01*
X111207200Y-166530714D01*
X111242914Y-166495000D01*
X111171485Y-166245000D02*
X111171485Y-165780714D01*
X111457200Y-166030714D01*
X111457200Y-165923571D01*
X111492914Y-165852142D01*
X111528628Y-165816428D01*
X111600057Y-165780714D01*
X111778628Y-165780714D01*
X111850057Y-165816428D01*
X111885771Y-165852142D01*
X111921485Y-165923571D01*
X111921485Y-166137857D01*
X111885771Y-166209285D01*
X111850057Y-166245000D01*
X100186685Y-173375171D02*
X99436685Y-173375171D01*
X99436685Y-173196600D01*
X99472400Y-173089457D01*
X99543828Y-173018028D01*
X99615257Y-172982314D01*
X99758114Y-172946600D01*
X99865257Y-172946600D01*
X100008114Y-172982314D01*
X100079542Y-173018028D01*
X100150971Y-173089457D01*
X100186685Y-173196600D01*
X100186685Y-173375171D01*
X99508114Y-172660885D02*
X99472400Y-172625171D01*
X99436685Y-172553742D01*
X99436685Y-172375171D01*
X99472400Y-172303742D01*
X99508114Y-172268028D01*
X99579542Y-172232314D01*
X99650971Y-172232314D01*
X99758114Y-172268028D01*
X100186685Y-172696600D01*
X100186685Y-172232314D01*
X102027485Y-166992228D02*
X102634628Y-166992228D01*
X102706057Y-166956514D01*
X102741771Y-166920800D01*
X102777485Y-166849371D01*
X102777485Y-166706514D01*
X102741771Y-166635085D01*
X102706057Y-166599371D01*
X102634628Y-166563657D01*
X102027485Y-166563657D01*
X102277485Y-165885085D02*
X102777485Y-165885085D01*
X101991771Y-166063657D02*
X102527485Y-166242228D01*
X102527485Y-165777942D01*
X105056400Y-178240885D02*
X104806400Y-177883742D01*
X104627828Y-178240885D02*
X104627828Y-177490885D01*
X104913542Y-177490885D01*
X104984971Y-177526600D01*
X105020685Y-177562314D01*
X105056400Y-177633742D01*
X105056400Y-177740885D01*
X105020685Y-177812314D01*
X104984971Y-177848028D01*
X104913542Y-177883742D01*
X104627828Y-177883742D01*
X105699257Y-177740885D02*
X105699257Y-178240885D01*
X105520685Y-177455171D02*
X105342114Y-177990885D01*
X105806400Y-177990885D01*
X96884685Y-169136600D02*
X96527542Y-169386600D01*
X96884685Y-169565171D02*
X96134685Y-169565171D01*
X96134685Y-169279457D01*
X96170400Y-169208028D01*
X96206114Y-169172314D01*
X96277542Y-169136600D01*
X96384685Y-169136600D01*
X96456114Y-169172314D01*
X96491828Y-169208028D01*
X96527542Y-169279457D01*
X96527542Y-169565171D01*
X96134685Y-168886600D02*
X96134685Y-168422314D01*
X96420400Y-168672314D01*
X96420400Y-168565171D01*
X96456114Y-168493742D01*
X96491828Y-168458028D01*
X96563257Y-168422314D01*
X96741828Y-168422314D01*
X96813257Y-168458028D01*
X96848971Y-168493742D01*
X96884685Y-168565171D01*
X96884685Y-168779457D01*
X96848971Y-168850885D01*
X96813257Y-168886600D01*
X102798114Y-176449028D02*
X102762400Y-176520457D01*
X102690971Y-176591885D01*
X102583828Y-176699028D01*
X102548114Y-176770457D01*
X102548114Y-176841885D01*
X102726685Y-176806171D02*
X102690971Y-176877600D01*
X102619542Y-176949028D01*
X102476685Y-176984742D01*
X102226685Y-176984742D01*
X102083828Y-176949028D01*
X102012400Y-176877600D01*
X101976685Y-176806171D01*
X101976685Y-176663314D01*
X102012400Y-176591885D01*
X102083828Y-176520457D01*
X102226685Y-176484742D01*
X102476685Y-176484742D01*
X102619542Y-176520457D01*
X102690971Y-176591885D01*
X102726685Y-176663314D01*
X102726685Y-176806171D01*
X102048114Y-176199028D02*
X102012400Y-176163314D01*
X101976685Y-176091885D01*
X101976685Y-175913314D01*
X102012400Y-175841885D01*
X102048114Y-175806171D01*
X102119542Y-175770457D01*
X102190971Y-175770457D01*
X102298114Y-175806171D01*
X102726685Y-176234742D01*
X102726685Y-175770457D01*
M02*
