M48
;DRILL file {KiCad no-vcs-found-undefined} date Sun Nov  6 11:39:59 2016
;FORMAT={-:-/ absolute / metric / decimal}
FMAT,2
METRIC,TZ
T1C0.300
T2C0.400
T3C1.016
T4C1.300
T5C0.300
%
G90
G05
M71
T1
X28.169Y-94.234
X28.169Y-142.494
X31.725Y-96.012
X31.725Y-144.272
X32.487Y-96.012
X32.487Y-144.272
X33.249Y-96.012
X33.249Y-144.272
X34.061Y-96.012
X34.061Y-144.272
X34.874Y-96.012
X34.874Y-144.272
X35.687Y-96.012
X35.687Y-144.272
X36.449Y-96.012
X36.449Y-144.272
X37.211Y-96.012
X37.211Y-144.272
X37.922Y-96.012
X37.922Y-144.272
X38.684Y-96.012
X38.684Y-144.272
X39.446Y-96.012
X39.446Y-144.272
X40.157Y-96.012
X40.157Y-144.272
X40.97Y-96.012
X40.97Y-144.272
X41.681Y-96.012
X41.681Y-144.272
X42.443Y-96.012
X42.443Y-144.272
X45.237Y-94.082
X45.237Y-142.342
X61.189Y-94.234
X61.189Y-142.494
X64.745Y-96.012
X64.745Y-144.272
X65.507Y-96.012
X65.507Y-144.272
X66.269Y-96.012
X66.269Y-144.272
X67.081Y-96.012
X67.081Y-144.272
X67.894Y-96.012
X67.894Y-144.272
X68.707Y-96.012
X68.707Y-144.272
X69.469Y-96.012
X69.469Y-144.272
X70.231Y-96.012
X70.231Y-144.272
X70.942Y-96.012
X70.942Y-144.272
X71.704Y-96.012
X71.704Y-144.272
X72.466Y-96.012
X72.466Y-144.272
X73.177Y-96.012
X73.177Y-144.272
X73.99Y-96.012
X73.99Y-144.272
X74.701Y-96.012
X74.701Y-144.272
X75.463Y-96.012
X75.463Y-144.272
X78.257Y-94.082
X78.257Y-142.342
X94.209Y-94.234
X94.209Y-142.494
X97.765Y-96.012
X97.765Y-144.272
X98.527Y-96.012
X98.527Y-144.272
X99.289Y-96.012
X99.289Y-144.272
X100.101Y-96.012
X100.101Y-144.272
X100.914Y-96.012
X100.914Y-144.272
X101.727Y-96.012
X101.727Y-144.272
X102.489Y-96.012
X102.489Y-144.272
X103.251Y-96.012
X103.251Y-144.272
X103.962Y-96.012
X103.962Y-144.272
X104.724Y-96.012
X104.724Y-144.272
X105.486Y-96.012
X105.486Y-144.272
X106.197Y-96.012
X106.197Y-144.272
X107.01Y-96.012
X107.01Y-144.272
X107.721Y-96.012
X107.721Y-144.272
X108.483Y-96.012
X108.483Y-144.272
X111.277Y-94.082
X111.277Y-142.342
T2
X27.203Y-119.736
X27.203Y-167.996
X28.981Y-132.436
X28.981Y-180.696
X30.251Y-96.876
X30.251Y-108.814
X30.251Y-145.136
X30.251Y-157.074
X32.029Y-110.084
X32.029Y-158.344
X33.299Y-110.084
X33.299Y-158.344
X35.077Y-110.084
X35.077Y-115.926
X35.077Y-158.344
X35.077Y-164.186
X36.601Y-110.084
X36.601Y-158.344
X38.125Y-113.386
X38.125Y-161.646
X39.649Y-110.084
X39.649Y-158.344
X39.903Y-130.658
X39.903Y-178.918
X41.173Y-113.386
X41.173Y-161.646
X42.697Y-108.814
X42.697Y-157.074
X42.829Y-113.254
X42.829Y-161.514
X42.956Y-123.296
X42.956Y-171.556
X60.223Y-119.736
X60.223Y-167.996
X62.001Y-132.436
X62.001Y-180.696
X63.271Y-96.876
X63.271Y-108.814
X63.271Y-145.136
X63.271Y-157.074
X65.049Y-110.084
X65.049Y-158.344
X66.319Y-110.084
X66.319Y-158.344
X68.097Y-110.084
X68.097Y-115.926
X68.097Y-158.344
X68.097Y-164.186
X69.621Y-110.084
X69.621Y-158.344
X71.145Y-113.386
X71.145Y-161.646
X72.669Y-110.084
X72.669Y-158.344
X72.923Y-130.658
X72.923Y-178.918
X74.193Y-113.386
X74.193Y-161.646
X75.717Y-108.814
X75.717Y-157.074
X75.849Y-113.254
X75.849Y-161.514
X75.976Y-123.296
X75.976Y-171.556
X93.243Y-119.736
X93.243Y-167.996
X95.021Y-132.436
X95.021Y-180.696
X96.291Y-96.876
X96.291Y-108.814
X96.291Y-145.136
X96.291Y-157.074
X98.069Y-110.084
X98.069Y-158.344
X99.339Y-110.084
X99.339Y-158.344
X101.117Y-110.084
X101.117Y-115.926
X101.117Y-158.344
X101.117Y-164.186
X102.641Y-110.084
X102.641Y-158.344
X104.165Y-113.386
X104.165Y-161.646
X105.689Y-110.084
X105.689Y-158.344
X105.943Y-130.658
X105.943Y-178.918
X107.213Y-113.386
X107.213Y-161.646
X108.737Y-108.814
X108.737Y-157.074
X108.869Y-113.254
X108.869Y-161.514
X108.996Y-123.296
X108.996Y-171.556
T3
X23.901Y-95.352
X23.901Y-97.892
X23.901Y-100.432
X23.901Y-102.972
X23.901Y-105.512
X23.901Y-108.052
X23.901Y-110.592
X23.901Y-113.132
X23.901Y-115.672
X23.901Y-118.212
X23.901Y-120.752
X23.901Y-123.292
X23.901Y-125.832
X23.901Y-128.372
X23.901Y-130.912
X23.901Y-133.452
X23.901Y-143.612
X23.901Y-146.152
X23.901Y-148.692
X23.901Y-151.232
X23.901Y-153.772
X23.901Y-156.312
X23.901Y-158.852
X23.901Y-161.392
X23.901Y-163.932
X23.901Y-166.472
X23.901Y-169.012
X23.901Y-171.552
X23.901Y-174.092
X23.901Y-176.632
X23.901Y-179.172
X23.901Y-181.712
X49.301Y-95.352
X49.301Y-97.892
X49.301Y-100.432
X49.301Y-102.972
X49.301Y-105.512
X49.301Y-108.052
X49.301Y-110.592
X49.301Y-113.132
X49.301Y-115.672
X49.301Y-118.212
X49.301Y-120.752
X49.301Y-123.292
X49.301Y-125.832
X49.301Y-128.372
X49.301Y-130.912
X49.301Y-133.452
X49.301Y-143.612
X49.301Y-146.152
X49.301Y-148.692
X49.301Y-151.232
X49.301Y-153.772
X49.301Y-156.312
X49.301Y-158.852
X49.301Y-161.392
X49.301Y-163.932
X49.301Y-166.472
X49.301Y-169.012
X49.301Y-171.552
X49.301Y-174.092
X49.301Y-176.632
X49.301Y-179.172
X49.301Y-181.712
X56.921Y-95.352
X56.921Y-97.892
X56.921Y-100.432
X56.921Y-102.972
X56.921Y-105.512
X56.921Y-108.052
X56.921Y-110.592
X56.921Y-113.132
X56.921Y-115.672
X56.921Y-118.212
X56.921Y-120.752
X56.921Y-123.292
X56.921Y-125.832
X56.921Y-128.372
X56.921Y-130.912
X56.921Y-133.452
X56.921Y-143.612
X56.921Y-146.152
X56.921Y-148.692
X56.921Y-151.232
X56.921Y-153.772
X56.921Y-156.312
X56.921Y-158.852
X56.921Y-161.392
X56.921Y-163.932
X56.921Y-166.472
X56.921Y-169.012
X56.921Y-171.552
X56.921Y-174.092
X56.921Y-176.632
X56.921Y-179.172
X56.921Y-181.712
X82.321Y-95.352
X82.321Y-97.892
X82.321Y-100.432
X82.321Y-102.972
X82.321Y-105.512
X82.321Y-108.052
X82.321Y-110.592
X82.321Y-113.132
X82.321Y-115.672
X82.321Y-118.212
X82.321Y-120.752
X82.321Y-123.292
X82.321Y-125.832
X82.321Y-128.372
X82.321Y-130.912
X82.321Y-133.452
X82.321Y-143.612
X82.321Y-146.152
X82.321Y-148.692
X82.321Y-151.232
X82.321Y-153.772
X82.321Y-156.312
X82.321Y-158.852
X82.321Y-161.392
X82.321Y-163.932
X82.321Y-166.472
X82.321Y-169.012
X82.321Y-171.552
X82.321Y-174.092
X82.321Y-176.632
X82.321Y-179.172
X82.321Y-181.712
X89.941Y-95.352
X89.941Y-97.892
X89.941Y-100.432
X89.941Y-102.972
X89.941Y-105.512
X89.941Y-108.052
X89.941Y-110.592
X89.941Y-113.132
X89.941Y-115.672
X89.941Y-118.212
X89.941Y-120.752
X89.941Y-123.292
X89.941Y-125.832
X89.941Y-128.372
X89.941Y-130.912
X89.941Y-133.452
X89.941Y-143.612
X89.941Y-146.152
X89.941Y-148.692
X89.941Y-151.232
X89.941Y-153.772
X89.941Y-156.312
X89.941Y-158.852
X89.941Y-161.392
X89.941Y-163.932
X89.941Y-166.472
X89.941Y-169.012
X89.941Y-171.552
X89.941Y-174.092
X89.941Y-176.632
X89.941Y-179.172
X89.941Y-181.712
X115.341Y-95.352
X115.341Y-97.892
X115.341Y-100.432
X115.341Y-102.972
X115.341Y-105.512
X115.341Y-108.052
X115.341Y-110.592
X115.341Y-113.132
X115.341Y-115.672
X115.341Y-118.212
X115.341Y-120.752
X115.341Y-123.292
X115.341Y-125.832
X115.341Y-128.372
X115.341Y-130.912
X115.341Y-133.452
X115.341Y-143.612
X115.341Y-146.152
X115.341Y-148.692
X115.341Y-151.232
X115.341Y-153.772
X115.341Y-156.312
X115.341Y-158.852
X115.341Y-161.392
X115.341Y-163.932
X115.341Y-166.472
X115.341Y-169.012
X115.341Y-171.552
X115.341Y-174.092
X115.341Y-176.632
X115.341Y-179.172
X115.341Y-181.712
T4
X34.137Y-136.025
X34.137Y-184.285
X39.137Y-136.025
X39.137Y-184.285
X67.157Y-136.025
X67.157Y-184.285
X72.157Y-136.025
X72.157Y-184.285
X100.177Y-136.025
X100.177Y-184.285
X105.177Y-136.025
X105.177Y-184.285
T5
X21.107Y-119.752
X21.107Y-120.252
X21.107Y-120.752
X21.107Y-121.252
X21.107Y-121.752
X21.107Y-168.012
X21.107Y-168.512
X21.107Y-169.012
X21.107Y-169.512
X21.107Y-170.012
X35.601Y-92.558
X35.601Y-140.818
X35.609Y-139.04
X35.609Y-187.3
X36.101Y-92.558
X36.101Y-140.818
X36.109Y-139.04
X36.109Y-187.3
X36.601Y-92.558
X36.601Y-140.818
X36.609Y-139.04
X36.609Y-187.3
X37.101Y-92.558
X37.101Y-140.818
X37.109Y-139.04
X37.109Y-187.3
X37.601Y-92.558
X37.601Y-140.818
X37.609Y-139.04
X37.609Y-187.3
X52.095Y-119.752
X52.095Y-120.252
X52.095Y-120.752
X52.095Y-121.252
X52.095Y-121.752
X52.095Y-168.012
X52.095Y-168.512
X52.095Y-169.012
X52.095Y-169.512
X52.095Y-170.012
X54.127Y-119.752
X54.127Y-120.252
X54.127Y-120.752
X54.127Y-121.252
X54.127Y-121.752
X54.127Y-168.012
X54.127Y-168.512
X54.127Y-169.012
X54.127Y-169.512
X54.127Y-170.012
X68.621Y-92.558
X68.621Y-140.818
X68.629Y-139.04
X68.629Y-187.3
X69.121Y-92.558
X69.121Y-140.818
X69.129Y-139.04
X69.129Y-187.3
X69.621Y-92.558
X69.621Y-140.818
X69.629Y-139.04
X69.629Y-187.3
X70.121Y-92.558
X70.121Y-140.818
X70.129Y-139.04
X70.129Y-187.3
X70.621Y-92.558
X70.621Y-140.818
X70.629Y-139.04
X70.629Y-187.3
X85.115Y-119.752
X85.115Y-120.252
X85.115Y-120.752
X85.115Y-121.252
X85.115Y-121.752
X85.115Y-168.012
X85.115Y-168.512
X85.115Y-169.012
X85.115Y-169.512
X85.115Y-170.012
X87.147Y-119.752
X87.147Y-120.252
X87.147Y-120.752
X87.147Y-121.252
X87.147Y-121.752
X87.147Y-168.012
X87.147Y-168.512
X87.147Y-169.012
X87.147Y-169.512
X87.147Y-170.012
X101.641Y-92.558
X101.641Y-140.818
X101.649Y-139.04
X101.649Y-187.3
X102.141Y-92.558
X102.141Y-140.818
X102.149Y-139.04
X102.149Y-187.3
X102.641Y-92.558
X102.641Y-140.818
X102.649Y-139.04
X102.649Y-187.3
X103.141Y-92.558
X103.141Y-140.818
X103.149Y-139.04
X103.149Y-187.3
X103.641Y-92.558
X103.641Y-140.818
X103.649Y-139.04
X103.649Y-187.3
X118.135Y-119.752
X118.135Y-120.252
X118.135Y-120.752
X118.135Y-121.252
X118.135Y-121.752
X118.135Y-168.012
X118.135Y-168.512
X118.135Y-169.012
X118.135Y-169.512
X118.135Y-170.012
T0
M30
