G04 #@! TF.FileFunction,Soldermask,Top*
%FSLAX46Y46*%
G04 Gerber Fmt 4.6, Leading zero omitted, Abs format (unit mm)*
G04 Created by KiCad (PCBNEW no-vcs-found-undefined) date Sun Nov  6 11:39:55 2016*
%MOMM*%
%LPD*%
G01*
G04 APERTURE LIST*
%ADD10C,0.100000*%
%ADD11R,2.432000X2.127200*%
%ADD12O,2.432000X2.127200*%
%ADD13R,1.400760X0.999440*%
%ADD14R,1.400760X1.299160*%
%ADD15R,1.299160X1.400760*%
%ADD16R,1.400760X1.400760*%
%ADD17R,2.432000X1.416000*%
%ADD18R,2.432000X4.057600*%
%ADD19R,1.901140X3.100020*%
%ADD20R,2.203400X2.000200*%
%ADD21R,1.300000X1.750000*%
%ADD22R,1.750000X1.300000*%
%ADD23C,2.900000*%
G04 APERTURE END LIST*
D10*
D11*
X89941400Y-95351600D03*
D12*
X89941400Y-97891600D03*
X89941400Y-100431600D03*
X89941400Y-102971600D03*
X89941400Y-105511600D03*
X89941400Y-108051600D03*
X89941400Y-110591600D03*
X89941400Y-113131600D03*
X89941400Y-115671600D03*
X89941400Y-118211600D03*
X89941400Y-120751600D03*
X89941400Y-123291600D03*
X89941400Y-125831600D03*
X89941400Y-128371600D03*
X89941400Y-130911600D03*
X89941400Y-133451600D03*
X115341400Y-95351600D03*
X115341400Y-97891600D03*
X115341400Y-100431600D03*
X115341400Y-102971600D03*
X115341400Y-105511600D03*
X115341400Y-108051600D03*
X115341400Y-110591600D03*
X115341400Y-113131600D03*
X115341400Y-115671600D03*
X115341400Y-118211600D03*
X115341400Y-120751600D03*
X115341400Y-123291600D03*
X115341400Y-125831600D03*
X115341400Y-128371600D03*
X115341400Y-130911600D03*
D11*
X115341400Y-133451600D03*
D13*
X101158040Y-129324100D03*
X99044760Y-128371600D03*
X101158040Y-127419100D03*
D14*
X95021400Y-121503440D03*
X95021400Y-119999760D03*
D15*
X105933240Y-128371600D03*
X104429560Y-128371600D03*
D16*
X95021400Y-130700780D03*
X95021400Y-123502420D03*
X110261400Y-130700780D03*
X110261400Y-123502420D03*
D17*
X99085400Y-115925600D03*
X99085400Y-120497600D03*
X99085400Y-118211600D03*
D18*
X105689400Y-118211600D03*
D19*
X101511100Y-124561600D03*
X106311700Y-124561600D03*
D20*
X109753400Y-116814600D03*
X109753400Y-119608600D03*
X95021400Y-117830600D03*
X95021400Y-115036600D03*
D21*
X96640400Y-111861600D03*
X98140400Y-111861600D03*
X99640400Y-111861600D03*
X101140400Y-111861600D03*
X102640400Y-111861600D03*
X104140400Y-111861600D03*
X105640400Y-111861600D03*
X107140400Y-111861600D03*
X108640400Y-111861600D03*
D22*
X94640400Y-110361600D03*
X94640400Y-108861600D03*
X94640400Y-107361600D03*
X94640400Y-105861600D03*
X94640400Y-104361600D03*
X94640400Y-102861600D03*
X94640400Y-101361600D03*
X94640400Y-99861600D03*
X94640400Y-98361600D03*
X94640400Y-96861600D03*
X94640400Y-95361600D03*
X110640400Y-95361600D03*
X110640400Y-96861600D03*
X110640400Y-98361600D03*
X110640400Y-99861600D03*
X110640400Y-101361600D03*
X110640400Y-102861600D03*
X110640400Y-104361600D03*
X110640400Y-105861600D03*
X110640400Y-107361600D03*
X110640400Y-108861600D03*
X110640400Y-110361600D03*
D23*
X100177000Y-136025000D03*
X105177000Y-136025000D03*
X72157000Y-136025000D03*
X67157000Y-136025000D03*
D22*
X77620400Y-110361600D03*
X77620400Y-108861600D03*
X77620400Y-107361600D03*
X77620400Y-105861600D03*
X77620400Y-104361600D03*
X77620400Y-102861600D03*
X77620400Y-101361600D03*
X77620400Y-99861600D03*
X77620400Y-98361600D03*
X77620400Y-96861600D03*
X77620400Y-95361600D03*
X61620400Y-95361600D03*
X61620400Y-96861600D03*
X61620400Y-98361600D03*
X61620400Y-99861600D03*
X61620400Y-101361600D03*
X61620400Y-102861600D03*
X61620400Y-104361600D03*
X61620400Y-105861600D03*
X61620400Y-107361600D03*
X61620400Y-108861600D03*
X61620400Y-110361600D03*
D21*
X75620400Y-111861600D03*
X74120400Y-111861600D03*
X72620400Y-111861600D03*
X71120400Y-111861600D03*
X69620400Y-111861600D03*
X68120400Y-111861600D03*
X66620400Y-111861600D03*
X65120400Y-111861600D03*
X63620400Y-111861600D03*
D20*
X62001400Y-115036600D03*
X62001400Y-117830600D03*
X76733400Y-119608600D03*
X76733400Y-116814600D03*
D19*
X73291700Y-124561600D03*
X68491100Y-124561600D03*
D18*
X72669400Y-118211600D03*
D17*
X66065400Y-118211600D03*
X66065400Y-120497600D03*
X66065400Y-115925600D03*
D16*
X77241400Y-123502420D03*
X77241400Y-130700780D03*
X62001400Y-123502420D03*
X62001400Y-130700780D03*
D15*
X71409560Y-128371600D03*
X72913240Y-128371600D03*
D14*
X62001400Y-119999760D03*
X62001400Y-121503440D03*
D13*
X68138040Y-127419100D03*
X66024760Y-128371600D03*
X68138040Y-129324100D03*
D11*
X82321400Y-133451600D03*
D12*
X82321400Y-130911600D03*
X82321400Y-128371600D03*
X82321400Y-125831600D03*
X82321400Y-123291600D03*
X82321400Y-120751600D03*
X82321400Y-118211600D03*
X82321400Y-115671600D03*
X82321400Y-113131600D03*
X82321400Y-110591600D03*
X82321400Y-108051600D03*
X82321400Y-105511600D03*
X82321400Y-102971600D03*
X82321400Y-100431600D03*
X82321400Y-97891600D03*
X82321400Y-95351600D03*
X56921400Y-133451600D03*
X56921400Y-130911600D03*
X56921400Y-128371600D03*
X56921400Y-125831600D03*
X56921400Y-123291600D03*
X56921400Y-120751600D03*
X56921400Y-118211600D03*
X56921400Y-115671600D03*
X56921400Y-113131600D03*
X56921400Y-110591600D03*
X56921400Y-108051600D03*
X56921400Y-105511600D03*
X56921400Y-102971600D03*
X56921400Y-100431600D03*
X56921400Y-97891600D03*
D11*
X56921400Y-95351600D03*
X23901400Y-95351600D03*
D12*
X23901400Y-97891600D03*
X23901400Y-100431600D03*
X23901400Y-102971600D03*
X23901400Y-105511600D03*
X23901400Y-108051600D03*
X23901400Y-110591600D03*
X23901400Y-113131600D03*
X23901400Y-115671600D03*
X23901400Y-118211600D03*
X23901400Y-120751600D03*
X23901400Y-123291600D03*
X23901400Y-125831600D03*
X23901400Y-128371600D03*
X23901400Y-130911600D03*
X23901400Y-133451600D03*
X49301400Y-95351600D03*
X49301400Y-97891600D03*
X49301400Y-100431600D03*
X49301400Y-102971600D03*
X49301400Y-105511600D03*
X49301400Y-108051600D03*
X49301400Y-110591600D03*
X49301400Y-113131600D03*
X49301400Y-115671600D03*
X49301400Y-118211600D03*
X49301400Y-120751600D03*
X49301400Y-123291600D03*
X49301400Y-125831600D03*
X49301400Y-128371600D03*
X49301400Y-130911600D03*
D11*
X49301400Y-133451600D03*
D13*
X35118040Y-129324100D03*
X33004760Y-128371600D03*
X35118040Y-127419100D03*
D14*
X28981400Y-121503440D03*
X28981400Y-119999760D03*
D15*
X39893240Y-128371600D03*
X38389560Y-128371600D03*
D16*
X28981400Y-130700780D03*
X28981400Y-123502420D03*
X44221400Y-130700780D03*
X44221400Y-123502420D03*
D17*
X33045400Y-115925600D03*
X33045400Y-120497600D03*
X33045400Y-118211600D03*
D18*
X39649400Y-118211600D03*
D19*
X35471100Y-124561600D03*
X40271700Y-124561600D03*
D20*
X43713400Y-116814600D03*
X43713400Y-119608600D03*
X28981400Y-117830600D03*
X28981400Y-115036600D03*
D21*
X30600400Y-111861600D03*
X32100400Y-111861600D03*
X33600400Y-111861600D03*
X35100400Y-111861600D03*
X36600400Y-111861600D03*
X38100400Y-111861600D03*
X39600400Y-111861600D03*
X41100400Y-111861600D03*
X42600400Y-111861600D03*
D22*
X28600400Y-110361600D03*
X28600400Y-108861600D03*
X28600400Y-107361600D03*
X28600400Y-105861600D03*
X28600400Y-104361600D03*
X28600400Y-102861600D03*
X28600400Y-101361600D03*
X28600400Y-99861600D03*
X28600400Y-98361600D03*
X28600400Y-96861600D03*
X28600400Y-95361600D03*
X44600400Y-95361600D03*
X44600400Y-96861600D03*
X44600400Y-98361600D03*
X44600400Y-99861600D03*
X44600400Y-101361600D03*
X44600400Y-102861600D03*
X44600400Y-104361600D03*
X44600400Y-105861600D03*
X44600400Y-107361600D03*
X44600400Y-108861600D03*
X44600400Y-110361600D03*
D23*
X34137000Y-136025000D03*
X39137000Y-136025000D03*
X39137000Y-184285000D03*
X34137000Y-184285000D03*
D22*
X44600400Y-158621600D03*
X44600400Y-157121600D03*
X44600400Y-155621600D03*
X44600400Y-154121600D03*
X44600400Y-152621600D03*
X44600400Y-151121600D03*
X44600400Y-149621600D03*
X44600400Y-148121600D03*
X44600400Y-146621600D03*
X44600400Y-145121600D03*
X44600400Y-143621600D03*
X28600400Y-143621600D03*
X28600400Y-145121600D03*
X28600400Y-146621600D03*
X28600400Y-148121600D03*
X28600400Y-149621600D03*
X28600400Y-151121600D03*
X28600400Y-152621600D03*
X28600400Y-154121600D03*
X28600400Y-155621600D03*
X28600400Y-157121600D03*
X28600400Y-158621600D03*
D21*
X42600400Y-160121600D03*
X41100400Y-160121600D03*
X39600400Y-160121600D03*
X38100400Y-160121600D03*
X36600400Y-160121600D03*
X35100400Y-160121600D03*
X33600400Y-160121600D03*
X32100400Y-160121600D03*
X30600400Y-160121600D03*
D20*
X28981400Y-163296600D03*
X28981400Y-166090600D03*
X43713400Y-167868600D03*
X43713400Y-165074600D03*
D19*
X40271700Y-172821600D03*
X35471100Y-172821600D03*
D18*
X39649400Y-166471600D03*
D17*
X33045400Y-166471600D03*
X33045400Y-168757600D03*
X33045400Y-164185600D03*
D16*
X44221400Y-171762420D03*
X44221400Y-178960780D03*
X28981400Y-171762420D03*
X28981400Y-178960780D03*
D15*
X38389560Y-176631600D03*
X39893240Y-176631600D03*
D14*
X28981400Y-168259760D03*
X28981400Y-169763440D03*
D13*
X35118040Y-175679100D03*
X33004760Y-176631600D03*
X35118040Y-177584100D03*
D11*
X49301400Y-181711600D03*
D12*
X49301400Y-179171600D03*
X49301400Y-176631600D03*
X49301400Y-174091600D03*
X49301400Y-171551600D03*
X49301400Y-169011600D03*
X49301400Y-166471600D03*
X49301400Y-163931600D03*
X49301400Y-161391600D03*
X49301400Y-158851600D03*
X49301400Y-156311600D03*
X49301400Y-153771600D03*
X49301400Y-151231600D03*
X49301400Y-148691600D03*
X49301400Y-146151600D03*
X49301400Y-143611600D03*
X23901400Y-181711600D03*
X23901400Y-179171600D03*
X23901400Y-176631600D03*
X23901400Y-174091600D03*
X23901400Y-171551600D03*
X23901400Y-169011600D03*
X23901400Y-166471600D03*
X23901400Y-163931600D03*
X23901400Y-161391600D03*
X23901400Y-158851600D03*
X23901400Y-156311600D03*
X23901400Y-153771600D03*
X23901400Y-151231600D03*
X23901400Y-148691600D03*
X23901400Y-146151600D03*
D11*
X23901400Y-143611600D03*
X56921400Y-143611600D03*
D12*
X56921400Y-146151600D03*
X56921400Y-148691600D03*
X56921400Y-151231600D03*
X56921400Y-153771600D03*
X56921400Y-156311600D03*
X56921400Y-158851600D03*
X56921400Y-161391600D03*
X56921400Y-163931600D03*
X56921400Y-166471600D03*
X56921400Y-169011600D03*
X56921400Y-171551600D03*
X56921400Y-174091600D03*
X56921400Y-176631600D03*
X56921400Y-179171600D03*
X56921400Y-181711600D03*
X82321400Y-143611600D03*
X82321400Y-146151600D03*
X82321400Y-148691600D03*
X82321400Y-151231600D03*
X82321400Y-153771600D03*
X82321400Y-156311600D03*
X82321400Y-158851600D03*
X82321400Y-161391600D03*
X82321400Y-163931600D03*
X82321400Y-166471600D03*
X82321400Y-169011600D03*
X82321400Y-171551600D03*
X82321400Y-174091600D03*
X82321400Y-176631600D03*
X82321400Y-179171600D03*
D11*
X82321400Y-181711600D03*
D13*
X68138040Y-177584100D03*
X66024760Y-176631600D03*
X68138040Y-175679100D03*
D14*
X62001400Y-169763440D03*
X62001400Y-168259760D03*
D15*
X72913240Y-176631600D03*
X71409560Y-176631600D03*
D16*
X62001400Y-178960780D03*
X62001400Y-171762420D03*
X77241400Y-178960780D03*
X77241400Y-171762420D03*
D17*
X66065400Y-164185600D03*
X66065400Y-168757600D03*
X66065400Y-166471600D03*
D18*
X72669400Y-166471600D03*
D19*
X68491100Y-172821600D03*
X73291700Y-172821600D03*
D20*
X76733400Y-165074600D03*
X76733400Y-167868600D03*
X62001400Y-166090600D03*
X62001400Y-163296600D03*
D21*
X63620400Y-160121600D03*
X65120400Y-160121600D03*
X66620400Y-160121600D03*
X68120400Y-160121600D03*
X69620400Y-160121600D03*
X71120400Y-160121600D03*
X72620400Y-160121600D03*
X74120400Y-160121600D03*
X75620400Y-160121600D03*
D22*
X61620400Y-158621600D03*
X61620400Y-157121600D03*
X61620400Y-155621600D03*
X61620400Y-154121600D03*
X61620400Y-152621600D03*
X61620400Y-151121600D03*
X61620400Y-149621600D03*
X61620400Y-148121600D03*
X61620400Y-146621600D03*
X61620400Y-145121600D03*
X61620400Y-143621600D03*
X77620400Y-143621600D03*
X77620400Y-145121600D03*
X77620400Y-146621600D03*
X77620400Y-148121600D03*
X77620400Y-149621600D03*
X77620400Y-151121600D03*
X77620400Y-152621600D03*
X77620400Y-154121600D03*
X77620400Y-155621600D03*
X77620400Y-157121600D03*
X77620400Y-158621600D03*
D23*
X67157000Y-184285000D03*
X72157000Y-184285000D03*
X105177000Y-184285000D03*
X100177000Y-184285000D03*
D22*
X110640400Y-158621600D03*
X110640400Y-157121600D03*
X110640400Y-155621600D03*
X110640400Y-154121600D03*
X110640400Y-152621600D03*
X110640400Y-151121600D03*
X110640400Y-149621600D03*
X110640400Y-148121600D03*
X110640400Y-146621600D03*
X110640400Y-145121600D03*
X110640400Y-143621600D03*
X94640400Y-143621600D03*
X94640400Y-145121600D03*
X94640400Y-146621600D03*
X94640400Y-148121600D03*
X94640400Y-149621600D03*
X94640400Y-151121600D03*
X94640400Y-152621600D03*
X94640400Y-154121600D03*
X94640400Y-155621600D03*
X94640400Y-157121600D03*
X94640400Y-158621600D03*
D21*
X108640400Y-160121600D03*
X107140400Y-160121600D03*
X105640400Y-160121600D03*
X104140400Y-160121600D03*
X102640400Y-160121600D03*
X101140400Y-160121600D03*
X99640400Y-160121600D03*
X98140400Y-160121600D03*
X96640400Y-160121600D03*
D20*
X95021400Y-163296600D03*
X95021400Y-166090600D03*
X109753400Y-167868600D03*
X109753400Y-165074600D03*
D19*
X106311700Y-172821600D03*
X101511100Y-172821600D03*
D18*
X105689400Y-166471600D03*
D17*
X99085400Y-166471600D03*
X99085400Y-168757600D03*
X99085400Y-164185600D03*
D16*
X110261400Y-171762420D03*
X110261400Y-178960780D03*
X95021400Y-171762420D03*
X95021400Y-178960780D03*
D15*
X104429560Y-176631600D03*
X105933240Y-176631600D03*
D14*
X95021400Y-168259760D03*
X95021400Y-169763440D03*
D13*
X101158040Y-175679100D03*
X99044760Y-176631600D03*
X101158040Y-177584100D03*
D11*
X115341400Y-181711600D03*
D12*
X115341400Y-179171600D03*
X115341400Y-176631600D03*
X115341400Y-174091600D03*
X115341400Y-171551600D03*
X115341400Y-169011600D03*
X115341400Y-166471600D03*
X115341400Y-163931600D03*
X115341400Y-161391600D03*
X115341400Y-158851600D03*
X115341400Y-156311600D03*
X115341400Y-153771600D03*
X115341400Y-151231600D03*
X115341400Y-148691600D03*
X115341400Y-146151600D03*
X115341400Y-143611600D03*
X89941400Y-181711600D03*
X89941400Y-179171600D03*
X89941400Y-176631600D03*
X89941400Y-174091600D03*
X89941400Y-171551600D03*
X89941400Y-169011600D03*
X89941400Y-166471600D03*
X89941400Y-163931600D03*
X89941400Y-161391600D03*
X89941400Y-158851600D03*
X89941400Y-156311600D03*
X89941400Y-153771600D03*
X89941400Y-151231600D03*
X89941400Y-148691600D03*
X89941400Y-146151600D03*
D11*
X89941400Y-143611600D03*
M02*
