M48
;DRILL file {KiCad no-vcs-found-91ed3e2~59~ubuntu16.04.1} date Thu Jan 11 15:10:52 2018
;FORMAT={-:-/ absolute / metric / decimal}
FMAT,2
METRIC,TZ
T1C0.300
T2C0.400
T3C1.000
T4C0.300
%
G90
G05
M71
T1
X89.939Y-83.576
X89.939Y-84.576
X89.939Y-85.576
X89.939Y-86.576
X89.939Y-87.576
X90.939Y-83.576
X90.939Y-84.576
X90.939Y-85.576
X90.939Y-86.576
X90.939Y-87.576
X91.939Y-83.576
X91.939Y-84.576
X91.939Y-85.576
X91.939Y-86.576
X91.939Y-87.576
X92.939Y-83.576
X92.939Y-84.576
X92.939Y-85.576
X92.939Y-86.576
X92.939Y-87.576
X93.939Y-83.576
X93.939Y-84.576
X93.939Y-85.576
X93.939Y-86.576
X93.939Y-87.576
X122.076Y-132.561
X122.076Y-133.561
X122.076Y-134.561
X122.076Y-135.561
X122.076Y-136.561
X123.076Y-132.561
X123.076Y-133.561
X123.076Y-134.561
X123.076Y-135.561
X123.076Y-136.561
X124.076Y-132.561
X124.076Y-133.561
X124.076Y-134.561
X124.076Y-135.561
X124.076Y-136.561
X125.076Y-132.561
X125.076Y-133.561
X125.076Y-134.561
X125.076Y-135.561
X125.076Y-136.561
X126.076Y-132.561
X126.076Y-133.561
X126.076Y-134.561
X126.076Y-135.561
X126.076Y-136.561
X89.939Y-123.576
X89.939Y-124.576
X89.939Y-125.576
X89.939Y-126.576
X89.939Y-127.576
X90.939Y-123.576
X90.939Y-124.576
X90.939Y-125.576
X90.939Y-126.576
X90.939Y-127.576
X91.939Y-123.576
X91.939Y-124.576
X91.939Y-125.576
X91.939Y-126.576
X91.939Y-127.576
X92.939Y-123.576
X92.939Y-124.576
X92.939Y-125.576
X92.939Y-126.576
X92.939Y-127.576
X93.939Y-123.576
X93.939Y-124.576
X93.939Y-125.576
X93.939Y-126.576
X93.939Y-127.576
X62.939Y-123.576
X62.939Y-124.576
X62.939Y-125.576
X62.939Y-126.576
X62.939Y-127.576
X63.939Y-123.576
X63.939Y-124.576
X63.939Y-125.576
X63.939Y-126.576
X63.939Y-127.576
X64.939Y-123.576
X64.939Y-124.576
X64.939Y-125.576
X64.939Y-126.576
X64.939Y-127.576
X65.939Y-123.576
X65.939Y-124.576
X65.939Y-125.576
X65.939Y-126.576
X65.939Y-127.576
X66.939Y-123.576
X66.939Y-124.576
X66.939Y-125.576
X66.939Y-126.576
X66.939Y-127.576
X62.939Y-83.576
X62.939Y-84.576
X62.939Y-85.576
X62.939Y-86.576
X62.939Y-87.576
X63.939Y-83.576
X63.939Y-84.576
X63.939Y-85.576
X63.939Y-86.576
X63.939Y-87.576
X64.939Y-83.576
X64.939Y-84.576
X64.939Y-85.576
X64.939Y-86.576
X64.939Y-87.576
X65.939Y-83.576
X65.939Y-84.576
X65.939Y-85.576
X65.939Y-86.576
X65.939Y-87.576
X66.939Y-83.576
X66.939Y-84.576
X66.939Y-85.576
X66.939Y-86.576
X66.939Y-87.576
X122.076Y-78.561
X122.076Y-79.561
X122.076Y-80.561
X122.076Y-81.561
X122.076Y-82.561
X123.076Y-78.561
X123.076Y-79.561
X123.076Y-80.561
X123.076Y-81.561
X123.076Y-82.561
X124.076Y-78.561
X124.076Y-79.561
X124.076Y-80.561
X124.076Y-81.561
X124.076Y-82.561
X125.076Y-78.561
X125.076Y-79.561
X125.076Y-80.561
X125.076Y-81.561
X125.076Y-82.561
X126.076Y-78.561
X126.076Y-79.561
X126.076Y-80.561
X126.076Y-81.561
X126.076Y-82.561
X122.076Y-105.561
X122.076Y-106.561
X122.076Y-107.561
X122.076Y-108.561
X122.076Y-109.561
X123.076Y-105.561
X123.076Y-106.561
X123.076Y-107.561
X123.076Y-108.561
X123.076Y-109.561
X124.076Y-105.561
X124.076Y-106.561
X124.076Y-107.561
X124.076Y-108.561
X124.076Y-109.561
X125.076Y-105.561
X125.076Y-106.561
X125.076Y-107.561
X125.076Y-108.561
X125.076Y-109.561
X126.076Y-105.561
X126.076Y-106.561
X126.076Y-107.561
X126.076Y-108.561
X126.076Y-109.561
T2
X58.022Y-79.942
X58.022Y-81.212
X58.022Y-82.482
X58.022Y-86.292
X58.022Y-87.562
X58.022Y-89.086
X58.022Y-90.61
X58.022Y-91.626
X58.022Y-92.642
X58.022Y-93.912
X58.022Y-119.942
X58.022Y-121.212
X58.022Y-122.482
X58.022Y-126.292
X58.022Y-127.562
X58.022Y-129.086
X58.022Y-130.61
X58.022Y-131.626
X58.022Y-132.642
X58.022Y-133.912
X58.276Y-95.182
X58.276Y-135.182
X63.102Y-99.754
X63.102Y-139.754
X64.626Y-99.754
X64.626Y-139.754
X68.182Y-97.722
X68.182Y-137.722
X72.5Y-79.942
X72.5Y-82.482
X72.5Y-83.752
X72.5Y-97.722
X72.5Y-119.942
X72.5Y-122.482
X72.5Y-123.752
X72.5Y-137.722
X72.506Y-81.206
X72.506Y-121.206
X85.022Y-79.942
X85.022Y-81.212
X85.022Y-82.482
X85.022Y-86.292
X85.022Y-87.562
X85.022Y-89.086
X85.022Y-90.61
X85.022Y-91.626
X85.022Y-92.642
X85.022Y-93.912
X85.022Y-119.942
X85.022Y-121.212
X85.022Y-122.482
X85.022Y-126.292
X85.022Y-127.562
X85.022Y-129.086
X85.022Y-130.61
X85.022Y-131.626
X85.022Y-132.642
X85.022Y-133.912
X85.276Y-95.182
X85.276Y-135.182
X90.102Y-99.754
X90.102Y-139.754
X91.626Y-99.754
X91.626Y-139.754
X95.182Y-97.722
X95.182Y-137.722
X99.5Y-79.942
X99.5Y-82.482
X99.5Y-83.752
X99.5Y-97.722
X99.5Y-119.942
X99.5Y-122.482
X99.5Y-123.752
X99.5Y-137.722
X99.506Y-81.206
X99.506Y-121.206
X118.442Y-73.
X118.442Y-87.478
X118.442Y-100.
X118.442Y-114.478
X118.442Y-127.
X118.442Y-141.478
X119.706Y-72.994
X119.706Y-99.994
X119.706Y-126.994
X119.712Y-87.478
X119.712Y-114.478
X119.712Y-141.478
X120.982Y-73.
X120.982Y-87.478
X120.982Y-100.
X120.982Y-114.478
X120.982Y-127.
X120.982Y-141.478
X122.252Y-73.
X122.252Y-100.
X122.252Y-127.
X124.792Y-87.478
X124.792Y-114.478
X124.792Y-141.478
X126.062Y-87.478
X126.062Y-114.478
X126.062Y-141.478
X127.586Y-87.478
X127.586Y-114.478
X127.586Y-141.478
X129.11Y-87.478
X129.11Y-114.478
X129.11Y-141.478
X130.126Y-87.478
X130.126Y-114.478
X130.126Y-141.478
X131.142Y-87.478
X131.142Y-114.478
X131.142Y-141.478
X132.412Y-87.478
X132.412Y-114.478
X132.412Y-141.478
X133.682Y-87.224
X133.682Y-114.224
X133.682Y-141.224
X136.222Y-73.
X136.222Y-77.318
X136.222Y-100.
X136.222Y-104.318
X136.222Y-127.
X136.222Y-131.318
X138.254Y-80.874
X138.254Y-82.398
X138.254Y-107.874
X138.254Y-109.398
X138.254Y-134.874
X138.254Y-136.398
T3
X76.818Y-113.338
X76.818Y-115.878
X76.818Y-118.418
X76.818Y-120.958
X76.818Y-123.498
X76.818Y-126.038
X76.818Y-128.578
X76.818Y-131.118
X76.818Y-133.658
X76.818Y-136.198
X76.818Y-138.738
X76.818Y-141.278
X76.818Y-143.818
X76.818Y-146.358
X53.958Y-113.338
X53.958Y-115.878
X53.958Y-118.418
X53.958Y-120.958
X53.958Y-123.498
X53.958Y-126.038
X53.958Y-128.578
X53.958Y-131.118
X53.958Y-133.658
X53.958Y-136.198
X53.958Y-138.738
X53.958Y-141.278
X53.958Y-143.818
X53.958Y-146.358
X80.958Y-73.338
X80.958Y-75.878
X80.958Y-78.418
X80.958Y-80.958
X80.958Y-83.498
X80.958Y-86.038
X80.958Y-88.578
X80.958Y-91.118
X80.958Y-93.658
X80.958Y-96.198
X80.958Y-98.738
X80.958Y-101.278
X80.958Y-103.818
X80.958Y-106.358
X80.958Y-113.338
X80.958Y-115.878
X80.958Y-118.418
X80.958Y-120.958
X80.958Y-123.498
X80.958Y-126.038
X80.958Y-128.578
X80.958Y-131.118
X80.958Y-133.658
X80.958Y-136.198
X80.958Y-138.738
X80.958Y-141.278
X80.958Y-143.818
X80.958Y-146.358
X53.958Y-73.338
X53.958Y-75.878
X53.958Y-78.418
X53.958Y-80.958
X53.958Y-83.498
X53.958Y-86.038
X53.958Y-88.578
X53.958Y-91.118
X53.958Y-93.658
X53.958Y-96.198
X53.958Y-98.738
X53.958Y-101.278
X53.958Y-103.818
X53.958Y-106.358
X103.818Y-73.338
X103.818Y-75.878
X103.818Y-78.418
X103.818Y-80.958
X103.818Y-83.498
X103.818Y-86.038
X103.818Y-88.578
X103.818Y-91.118
X103.818Y-93.658
X103.818Y-96.198
X103.818Y-98.738
X103.818Y-101.278
X103.818Y-103.818
X103.818Y-106.358
X111.838Y-68.682
X114.378Y-68.682
X116.918Y-68.682
X119.458Y-68.682
X121.998Y-68.682
X124.538Y-68.682
X127.078Y-68.682
X129.618Y-68.682
X132.158Y-68.682
X134.698Y-68.682
X137.238Y-68.682
X139.778Y-68.682
X142.318Y-68.682
X144.858Y-68.682
X111.838Y-118.542
X114.378Y-118.542
X116.918Y-118.542
X119.458Y-118.542
X121.998Y-118.542
X124.538Y-118.542
X127.078Y-118.542
X129.618Y-118.542
X132.158Y-118.542
X134.698Y-118.542
X137.238Y-118.542
X139.778Y-118.542
X142.318Y-118.542
X144.858Y-118.542
X103.818Y-113.338
X103.818Y-115.878
X103.818Y-118.418
X103.818Y-120.958
X103.818Y-123.498
X103.818Y-126.038
X103.818Y-128.578
X103.818Y-131.118
X103.818Y-133.658
X103.818Y-136.198
X103.818Y-138.738
X103.818Y-141.278
X103.818Y-143.818
X103.818Y-146.358
X111.838Y-95.682
X114.378Y-95.682
X116.918Y-95.682
X119.458Y-95.682
X121.998Y-95.682
X124.538Y-95.682
X127.078Y-95.682
X129.618Y-95.682
X132.158Y-95.682
X134.698Y-95.682
X137.238Y-95.682
X139.778Y-95.682
X142.318Y-95.682
X144.858Y-95.682
X111.838Y-145.542
X114.378Y-145.542
X116.918Y-145.542
X119.458Y-145.542
X121.998Y-145.542
X124.538Y-145.542
X127.078Y-145.542
X129.618Y-145.542
X132.158Y-145.542
X134.698Y-145.542
X137.238Y-145.542
X139.778Y-145.542
X142.318Y-145.542
X144.858Y-145.542
X76.818Y-73.338
X76.818Y-75.878
X76.818Y-78.418
X76.818Y-80.958
X76.818Y-83.498
X76.818Y-86.038
X76.818Y-88.578
X76.818Y-91.118
X76.818Y-93.658
X76.818Y-96.198
X76.818Y-98.738
X76.818Y-101.278
X76.818Y-103.818
X76.818Y-106.358
X111.838Y-122.682
X114.378Y-122.682
X116.918Y-122.682
X119.458Y-122.682
X121.998Y-122.682
X124.538Y-122.682
X127.078Y-122.682
X129.618Y-122.682
X132.158Y-122.682
X134.698Y-122.682
X137.238Y-122.682
X139.778Y-122.682
X142.318Y-122.682
X144.858Y-122.682
X111.838Y-91.542
X114.378Y-91.542
X116.918Y-91.542
X119.458Y-91.542
X121.998Y-91.542
X124.538Y-91.542
X127.078Y-91.542
X129.618Y-91.542
X132.158Y-91.542
X134.698Y-91.542
X137.238Y-91.542
X139.778Y-91.542
X142.318Y-91.542
X144.858Y-91.542
T4
X90.5Y-148.
X91.Y-148.
X91.5Y-148.
X92.Y-148.
X92.5Y-148.
X90.5Y-111.
X91.Y-111.
X91.5Y-111.
X92.Y-111.
X92.5Y-111.
X63.5Y-71.
X64.Y-71.
X64.5Y-71.
X65.Y-71.
X65.5Y-71.
X109.5Y-80.
X109.5Y-80.5
X109.5Y-81.
X109.5Y-81.5
X109.5Y-82.
X90.5Y-108.
X91.Y-108.
X91.5Y-108.
X92.Y-108.
X92.5Y-108.
X90.5Y-71.
X91.Y-71.
X91.5Y-71.
X92.Y-71.
X92.5Y-71.
X63.5Y-108.
X64.Y-108.
X64.5Y-108.
X65.Y-108.
X65.5Y-108.
X146.5Y-107.
X146.5Y-107.5
X146.5Y-108.
X146.5Y-108.5
X146.5Y-109.
X109.5Y-107.
X109.5Y-107.5
X109.5Y-108.
X109.5Y-108.5
X109.5Y-109.
X146.5Y-80.
X146.5Y-80.5
X146.5Y-81.
X146.5Y-81.5
X146.5Y-82.
X109.5Y-134.
X109.5Y-134.5
X109.5Y-135.
X109.5Y-135.5
X109.5Y-136.
X63.5Y-111.
X64.Y-111.
X64.5Y-111.
X65.Y-111.
X65.5Y-111.
X146.5Y-134.
X146.5Y-134.5
X146.5Y-135.
X146.5Y-135.5
X146.5Y-136.
X63.5Y-148.
X64.Y-148.
X64.5Y-148.
X65.Y-148.
X65.5Y-148.
T0
M30
