G04 #@! TF.GenerationSoftware,KiCad,Pcbnew,no-vcs-found-91ed3e2~59~ubuntu16.04.1*
G04 #@! TF.CreationDate,2018-01-11T15:10:50+01:00*
G04 #@! TF.ProjectId,ESP32-wroover-adapter-pan,45535033322D77726F6F7665722D6164,rev?*
G04 #@! TF.SameCoordinates,Original*
G04 #@! TF.FileFunction,Soldermask,Bot*
G04 #@! TF.FilePolarity,Negative*
%FSLAX46Y46*%
G04 Gerber Fmt 4.6, Leading zero omitted, Abs format (unit mm)*
G04 Created by KiCad (PCBNEW no-vcs-found-91ed3e2~59~ubuntu16.04.1) date Thu Jan 11 15:10:50 2018*
%MOMM*%
%LPD*%
G01*
G04 APERTURE LIST*
%ADD10C,1.000000*%
%ADD11R,1.900000X1.900000*%
%ADD12O,1.900000X1.900000*%
G04 APERTURE END LIST*
D10*
X122076000Y-78561000D03*
X123076000Y-78561000D03*
X124076000Y-78561000D03*
X125076000Y-78561000D03*
X126076000Y-78561000D03*
X122076000Y-80561000D03*
X123076000Y-80561000D03*
X124076000Y-80561000D03*
X125076000Y-80561000D03*
X126076000Y-80561000D03*
X126076000Y-79561000D03*
X125076000Y-79561000D03*
X124076000Y-79561000D03*
X123076000Y-79561000D03*
X122076000Y-79561000D03*
X122076000Y-81561000D03*
X123076000Y-81561000D03*
X124076000Y-81561000D03*
X125076000Y-81561000D03*
X126076000Y-81561000D03*
X126076000Y-82561000D03*
X125076000Y-82561000D03*
X124076000Y-82561000D03*
X123076000Y-82561000D03*
X122076000Y-82561000D03*
D11*
X144858000Y-91542000D03*
D12*
X142318000Y-91542000D03*
X139778000Y-91542000D03*
X137238000Y-91542000D03*
X134698000Y-91542000D03*
X132158000Y-91542000D03*
X129618000Y-91542000D03*
X127078000Y-91542000D03*
X124538000Y-91542000D03*
X121998000Y-91542000D03*
X119458000Y-91542000D03*
X116918000Y-91542000D03*
X114378000Y-91542000D03*
X111838000Y-91542000D03*
X144858000Y-68682000D03*
X142318000Y-68682000D03*
X139778000Y-68682000D03*
X137238000Y-68682000D03*
X134698000Y-68682000D03*
X132158000Y-68682000D03*
X129618000Y-68682000D03*
X127078000Y-68682000D03*
X124538000Y-68682000D03*
X121998000Y-68682000D03*
X119458000Y-68682000D03*
X116918000Y-68682000D03*
X114378000Y-68682000D03*
D11*
X111838000Y-68682000D03*
X111838000Y-95682000D03*
D12*
X114378000Y-95682000D03*
X116918000Y-95682000D03*
X119458000Y-95682000D03*
X121998000Y-95682000D03*
X124538000Y-95682000D03*
X127078000Y-95682000D03*
X129618000Y-95682000D03*
X132158000Y-95682000D03*
X134698000Y-95682000D03*
X137238000Y-95682000D03*
X139778000Y-95682000D03*
X142318000Y-95682000D03*
X144858000Y-95682000D03*
X111838000Y-118542000D03*
X114378000Y-118542000D03*
X116918000Y-118542000D03*
X119458000Y-118542000D03*
X121998000Y-118542000D03*
X124538000Y-118542000D03*
X127078000Y-118542000D03*
X129618000Y-118542000D03*
X132158000Y-118542000D03*
X134698000Y-118542000D03*
X137238000Y-118542000D03*
X139778000Y-118542000D03*
X142318000Y-118542000D03*
D11*
X144858000Y-118542000D03*
D10*
X122076000Y-109561000D03*
X123076000Y-109561000D03*
X124076000Y-109561000D03*
X125076000Y-109561000D03*
X126076000Y-109561000D03*
X126076000Y-108561000D03*
X125076000Y-108561000D03*
X124076000Y-108561000D03*
X123076000Y-108561000D03*
X122076000Y-108561000D03*
X122076000Y-106561000D03*
X123076000Y-106561000D03*
X124076000Y-106561000D03*
X125076000Y-106561000D03*
X126076000Y-106561000D03*
X126076000Y-107561000D03*
X125076000Y-107561000D03*
X124076000Y-107561000D03*
X123076000Y-107561000D03*
X122076000Y-107561000D03*
X126076000Y-105561000D03*
X125076000Y-105561000D03*
X124076000Y-105561000D03*
X123076000Y-105561000D03*
X122076000Y-105561000D03*
X122076000Y-132561000D03*
X123076000Y-132561000D03*
X124076000Y-132561000D03*
X125076000Y-132561000D03*
X126076000Y-132561000D03*
X122076000Y-134561000D03*
X123076000Y-134561000D03*
X124076000Y-134561000D03*
X125076000Y-134561000D03*
X126076000Y-134561000D03*
X126076000Y-133561000D03*
X125076000Y-133561000D03*
X124076000Y-133561000D03*
X123076000Y-133561000D03*
X122076000Y-133561000D03*
X122076000Y-135561000D03*
X123076000Y-135561000D03*
X124076000Y-135561000D03*
X125076000Y-135561000D03*
X126076000Y-135561000D03*
X126076000Y-136561000D03*
X125076000Y-136561000D03*
X124076000Y-136561000D03*
X123076000Y-136561000D03*
X122076000Y-136561000D03*
D11*
X144858000Y-145542000D03*
D12*
X142318000Y-145542000D03*
X139778000Y-145542000D03*
X137238000Y-145542000D03*
X134698000Y-145542000D03*
X132158000Y-145542000D03*
X129618000Y-145542000D03*
X127078000Y-145542000D03*
X124538000Y-145542000D03*
X121998000Y-145542000D03*
X119458000Y-145542000D03*
X116918000Y-145542000D03*
X114378000Y-145542000D03*
X111838000Y-145542000D03*
X144858000Y-122682000D03*
X142318000Y-122682000D03*
X139778000Y-122682000D03*
X137238000Y-122682000D03*
X134698000Y-122682000D03*
X132158000Y-122682000D03*
X129618000Y-122682000D03*
X127078000Y-122682000D03*
X124538000Y-122682000D03*
X121998000Y-122682000D03*
X119458000Y-122682000D03*
X116918000Y-122682000D03*
X114378000Y-122682000D03*
D11*
X111838000Y-122682000D03*
D10*
X66939000Y-83576000D03*
X66939000Y-84576000D03*
X66939000Y-85576000D03*
X66939000Y-86576000D03*
X66939000Y-87576000D03*
X64939000Y-83576000D03*
X64939000Y-84576000D03*
X64939000Y-85576000D03*
X64939000Y-86576000D03*
X64939000Y-87576000D03*
X65939000Y-87576000D03*
X65939000Y-86576000D03*
X65939000Y-85576000D03*
X65939000Y-84576000D03*
X65939000Y-83576000D03*
X63939000Y-83576000D03*
X63939000Y-84576000D03*
X63939000Y-85576000D03*
X63939000Y-86576000D03*
X63939000Y-87576000D03*
X62939000Y-87576000D03*
X62939000Y-86576000D03*
X62939000Y-85576000D03*
X62939000Y-84576000D03*
X62939000Y-83576000D03*
D11*
X53958000Y-106358000D03*
D12*
X53958000Y-103818000D03*
X53958000Y-101278000D03*
X53958000Y-98738000D03*
X53958000Y-96198000D03*
X53958000Y-93658000D03*
X53958000Y-91118000D03*
X53958000Y-88578000D03*
X53958000Y-86038000D03*
X53958000Y-83498000D03*
X53958000Y-80958000D03*
X53958000Y-78418000D03*
X53958000Y-75878000D03*
X53958000Y-73338000D03*
X76818000Y-106358000D03*
X76818000Y-103818000D03*
X76818000Y-101278000D03*
X76818000Y-98738000D03*
X76818000Y-96198000D03*
X76818000Y-93658000D03*
X76818000Y-91118000D03*
X76818000Y-88578000D03*
X76818000Y-86038000D03*
X76818000Y-83498000D03*
X76818000Y-80958000D03*
X76818000Y-78418000D03*
X76818000Y-75878000D03*
D11*
X76818000Y-73338000D03*
X103818000Y-73338000D03*
D12*
X103818000Y-75878000D03*
X103818000Y-78418000D03*
X103818000Y-80958000D03*
X103818000Y-83498000D03*
X103818000Y-86038000D03*
X103818000Y-88578000D03*
X103818000Y-91118000D03*
X103818000Y-93658000D03*
X103818000Y-96198000D03*
X103818000Y-98738000D03*
X103818000Y-101278000D03*
X103818000Y-103818000D03*
X103818000Y-106358000D03*
X80958000Y-73338000D03*
X80958000Y-75878000D03*
X80958000Y-78418000D03*
X80958000Y-80958000D03*
X80958000Y-83498000D03*
X80958000Y-86038000D03*
X80958000Y-88578000D03*
X80958000Y-91118000D03*
X80958000Y-93658000D03*
X80958000Y-96198000D03*
X80958000Y-98738000D03*
X80958000Y-101278000D03*
X80958000Y-103818000D03*
D11*
X80958000Y-106358000D03*
D10*
X89939000Y-83576000D03*
X89939000Y-84576000D03*
X89939000Y-85576000D03*
X89939000Y-86576000D03*
X89939000Y-87576000D03*
X90939000Y-87576000D03*
X90939000Y-86576000D03*
X90939000Y-85576000D03*
X90939000Y-84576000D03*
X90939000Y-83576000D03*
X92939000Y-83576000D03*
X92939000Y-84576000D03*
X92939000Y-85576000D03*
X92939000Y-86576000D03*
X92939000Y-87576000D03*
X91939000Y-87576000D03*
X91939000Y-86576000D03*
X91939000Y-85576000D03*
X91939000Y-84576000D03*
X91939000Y-83576000D03*
X93939000Y-87576000D03*
X93939000Y-86576000D03*
X93939000Y-85576000D03*
X93939000Y-84576000D03*
X93939000Y-83576000D03*
X66939000Y-123576000D03*
X66939000Y-124576000D03*
X66939000Y-125576000D03*
X66939000Y-126576000D03*
X66939000Y-127576000D03*
X64939000Y-123576000D03*
X64939000Y-124576000D03*
X64939000Y-125576000D03*
X64939000Y-126576000D03*
X64939000Y-127576000D03*
X65939000Y-127576000D03*
X65939000Y-126576000D03*
X65939000Y-125576000D03*
X65939000Y-124576000D03*
X65939000Y-123576000D03*
X63939000Y-123576000D03*
X63939000Y-124576000D03*
X63939000Y-125576000D03*
X63939000Y-126576000D03*
X63939000Y-127576000D03*
X62939000Y-127576000D03*
X62939000Y-126576000D03*
X62939000Y-125576000D03*
X62939000Y-124576000D03*
X62939000Y-123576000D03*
D11*
X53958000Y-146358000D03*
D12*
X53958000Y-143818000D03*
X53958000Y-141278000D03*
X53958000Y-138738000D03*
X53958000Y-136198000D03*
X53958000Y-133658000D03*
X53958000Y-131118000D03*
X53958000Y-128578000D03*
X53958000Y-126038000D03*
X53958000Y-123498000D03*
X53958000Y-120958000D03*
X53958000Y-118418000D03*
X53958000Y-115878000D03*
X53958000Y-113338000D03*
X76818000Y-146358000D03*
X76818000Y-143818000D03*
X76818000Y-141278000D03*
X76818000Y-138738000D03*
X76818000Y-136198000D03*
X76818000Y-133658000D03*
X76818000Y-131118000D03*
X76818000Y-128578000D03*
X76818000Y-126038000D03*
X76818000Y-123498000D03*
X76818000Y-120958000D03*
X76818000Y-118418000D03*
X76818000Y-115878000D03*
D11*
X76818000Y-113338000D03*
X103818000Y-113338000D03*
D12*
X103818000Y-115878000D03*
X103818000Y-118418000D03*
X103818000Y-120958000D03*
X103818000Y-123498000D03*
X103818000Y-126038000D03*
X103818000Y-128578000D03*
X103818000Y-131118000D03*
X103818000Y-133658000D03*
X103818000Y-136198000D03*
X103818000Y-138738000D03*
X103818000Y-141278000D03*
X103818000Y-143818000D03*
X103818000Y-146358000D03*
X80958000Y-113338000D03*
X80958000Y-115878000D03*
X80958000Y-118418000D03*
X80958000Y-120958000D03*
X80958000Y-123498000D03*
X80958000Y-126038000D03*
X80958000Y-128578000D03*
X80958000Y-131118000D03*
X80958000Y-133658000D03*
X80958000Y-136198000D03*
X80958000Y-138738000D03*
X80958000Y-141278000D03*
X80958000Y-143818000D03*
D11*
X80958000Y-146358000D03*
D10*
X89939000Y-123576000D03*
X89939000Y-124576000D03*
X89939000Y-125576000D03*
X89939000Y-126576000D03*
X89939000Y-127576000D03*
X90939000Y-127576000D03*
X90939000Y-126576000D03*
X90939000Y-125576000D03*
X90939000Y-124576000D03*
X90939000Y-123576000D03*
X92939000Y-123576000D03*
X92939000Y-124576000D03*
X92939000Y-125576000D03*
X92939000Y-126576000D03*
X92939000Y-127576000D03*
X91939000Y-127576000D03*
X91939000Y-126576000D03*
X91939000Y-125576000D03*
X91939000Y-124576000D03*
X91939000Y-123576000D03*
X93939000Y-127576000D03*
X93939000Y-126576000D03*
X93939000Y-125576000D03*
X93939000Y-124576000D03*
X93939000Y-123576000D03*
M02*
