G04 #@! TF.GenerationSoftware,KiCad,Pcbnew,no-vcs-found-91ed3e2~59~ubuntu16.04.1*
G04 #@! TF.CreationDate,2018-01-11T15:10:50+01:00*
G04 #@! TF.ProjectId,ESP32-wroover-adapter-pan,45535033322D77726F6F7665722D6164,rev?*
G04 #@! TF.SameCoordinates,Original*
G04 #@! TF.FileFunction,Soldermask,Top*
G04 #@! TF.FilePolarity,Negative*
%FSLAX46Y46*%
G04 Gerber Fmt 4.6, Leading zero omitted, Abs format (unit mm)*
G04 Created by KiCad (PCBNEW no-vcs-found-91ed3e2~59~ubuntu16.04.1) date Thu Jan 11 15:10:50 2018*
%MOMM*%
%LPD*%
G01*
G04 APERTURE LIST*
%ADD10C,1.000000*%
%ADD11R,1.100000X1.550000*%
%ADD12R,5.200000X5.200000*%
%ADD13R,1.200760X1.200760*%
%ADD14R,1.099160X1.200760*%
%ADD15R,1.900000X1.900000*%
%ADD16O,1.900000X1.900000*%
%ADD17R,1.550000X1.100000*%
%ADD18R,1.200760X1.099160*%
G04 APERTURE END LIST*
D10*
X122076000Y-78561000D03*
X123076000Y-78561000D03*
X124076000Y-78561000D03*
X125076000Y-78561000D03*
X126076000Y-78561000D03*
X122076000Y-80561000D03*
X123076000Y-80561000D03*
X124076000Y-80561000D03*
X125076000Y-80561000D03*
X126076000Y-80561000D03*
X126076000Y-79561000D03*
X125076000Y-79561000D03*
X124076000Y-79561000D03*
X123076000Y-79561000D03*
X122076000Y-79561000D03*
X122076000Y-81561000D03*
X123076000Y-81561000D03*
X124076000Y-81561000D03*
X125076000Y-81561000D03*
X126076000Y-81561000D03*
X126076000Y-82561000D03*
X125076000Y-82561000D03*
X124076000Y-82561000D03*
X123076000Y-82561000D03*
D11*
X117166000Y-71131000D03*
X118436000Y-71131000D03*
X119706000Y-71131000D03*
X120976000Y-71131000D03*
X122246000Y-71131000D03*
X123516000Y-71131000D03*
X124786000Y-71131000D03*
X126056000Y-71131000D03*
X127326000Y-71131000D03*
X128596000Y-71131000D03*
X129866000Y-71131000D03*
X131136000Y-71131000D03*
X132406000Y-71131000D03*
X133676000Y-71131000D03*
X134976000Y-71161000D03*
X136246000Y-71161000D03*
X137516000Y-71161000D03*
X138786000Y-71161000D03*
X140056000Y-71161000D03*
X140056000Y-89161000D03*
X138786000Y-89161000D03*
X137516000Y-89161000D03*
X136246000Y-89161000D03*
X134976000Y-89161000D03*
X133676000Y-89161000D03*
X132406000Y-89161000D03*
X131136000Y-89161000D03*
X129866000Y-89161000D03*
X128596000Y-89161000D03*
X127326000Y-89161000D03*
X126056000Y-89161000D03*
X124786000Y-89161000D03*
X123516000Y-89161000D03*
X122246000Y-89161000D03*
X120976000Y-89161000D03*
X119706000Y-89161000D03*
X118436000Y-89161000D03*
X117166000Y-89161000D03*
D12*
X124086000Y-80561000D03*
D10*
X122076000Y-82561000D03*
D13*
X143334000Y-81846820D03*
X143334000Y-89045180D03*
X143334000Y-70924820D03*
X143334000Y-78123180D03*
D14*
X141820160Y-79858000D03*
X143323840Y-79858000D03*
D15*
X144858000Y-91542000D03*
D16*
X142318000Y-91542000D03*
X139778000Y-91542000D03*
X137238000Y-91542000D03*
X134698000Y-91542000D03*
X132158000Y-91542000D03*
X129618000Y-91542000D03*
X127078000Y-91542000D03*
X124538000Y-91542000D03*
X121998000Y-91542000D03*
X119458000Y-91542000D03*
X116918000Y-91542000D03*
X114378000Y-91542000D03*
X111838000Y-91542000D03*
X144858000Y-68682000D03*
X142318000Y-68682000D03*
X139778000Y-68682000D03*
X137238000Y-68682000D03*
X134698000Y-68682000D03*
X132158000Y-68682000D03*
X129618000Y-68682000D03*
X127078000Y-68682000D03*
X124538000Y-68682000D03*
X121998000Y-68682000D03*
X119458000Y-68682000D03*
X116918000Y-68682000D03*
X114378000Y-68682000D03*
D15*
X111838000Y-68682000D03*
X111838000Y-95682000D03*
D16*
X114378000Y-95682000D03*
X116918000Y-95682000D03*
X119458000Y-95682000D03*
X121998000Y-95682000D03*
X124538000Y-95682000D03*
X127078000Y-95682000D03*
X129618000Y-95682000D03*
X132158000Y-95682000D03*
X134698000Y-95682000D03*
X137238000Y-95682000D03*
X139778000Y-95682000D03*
X142318000Y-95682000D03*
X144858000Y-95682000D03*
X111838000Y-118542000D03*
X114378000Y-118542000D03*
X116918000Y-118542000D03*
X119458000Y-118542000D03*
X121998000Y-118542000D03*
X124538000Y-118542000D03*
X127078000Y-118542000D03*
X129618000Y-118542000D03*
X132158000Y-118542000D03*
X134698000Y-118542000D03*
X137238000Y-118542000D03*
X139778000Y-118542000D03*
X142318000Y-118542000D03*
D15*
X144858000Y-118542000D03*
D14*
X143323840Y-106858000D03*
X141820160Y-106858000D03*
D13*
X143334000Y-105123180D03*
X143334000Y-97924820D03*
X143334000Y-116045180D03*
X143334000Y-108846820D03*
D10*
X122076000Y-109561000D03*
D12*
X124086000Y-107561000D03*
D11*
X117166000Y-116161000D03*
X118436000Y-116161000D03*
X119706000Y-116161000D03*
X120976000Y-116161000D03*
X122246000Y-116161000D03*
X123516000Y-116161000D03*
X124786000Y-116161000D03*
X126056000Y-116161000D03*
X127326000Y-116161000D03*
X128596000Y-116161000D03*
X129866000Y-116161000D03*
X131136000Y-116161000D03*
X132406000Y-116161000D03*
X133676000Y-116161000D03*
X134976000Y-116161000D03*
X136246000Y-116161000D03*
X137516000Y-116161000D03*
X138786000Y-116161000D03*
X140056000Y-116161000D03*
X140056000Y-98161000D03*
X138786000Y-98161000D03*
X137516000Y-98161000D03*
X136246000Y-98161000D03*
X134976000Y-98161000D03*
X133676000Y-98131000D03*
X132406000Y-98131000D03*
X131136000Y-98131000D03*
X129866000Y-98131000D03*
X128596000Y-98131000D03*
X127326000Y-98131000D03*
X126056000Y-98131000D03*
X124786000Y-98131000D03*
X123516000Y-98131000D03*
X122246000Y-98131000D03*
X120976000Y-98131000D03*
X119706000Y-98131000D03*
X118436000Y-98131000D03*
X117166000Y-98131000D03*
D10*
X123076000Y-109561000D03*
X124076000Y-109561000D03*
X125076000Y-109561000D03*
X126076000Y-109561000D03*
X126076000Y-108561000D03*
X125076000Y-108561000D03*
X124076000Y-108561000D03*
X123076000Y-108561000D03*
X122076000Y-108561000D03*
X122076000Y-106561000D03*
X123076000Y-106561000D03*
X124076000Y-106561000D03*
X125076000Y-106561000D03*
X126076000Y-106561000D03*
X126076000Y-107561000D03*
X125076000Y-107561000D03*
X124076000Y-107561000D03*
X123076000Y-107561000D03*
X122076000Y-107561000D03*
X126076000Y-105561000D03*
X125076000Y-105561000D03*
X124076000Y-105561000D03*
X123076000Y-105561000D03*
X122076000Y-105561000D03*
X122076000Y-132561000D03*
X123076000Y-132561000D03*
X124076000Y-132561000D03*
X125076000Y-132561000D03*
X126076000Y-132561000D03*
X122076000Y-134561000D03*
X123076000Y-134561000D03*
X124076000Y-134561000D03*
X125076000Y-134561000D03*
X126076000Y-134561000D03*
X126076000Y-133561000D03*
X125076000Y-133561000D03*
X124076000Y-133561000D03*
X123076000Y-133561000D03*
X122076000Y-133561000D03*
X122076000Y-135561000D03*
X123076000Y-135561000D03*
X124076000Y-135561000D03*
X125076000Y-135561000D03*
X126076000Y-135561000D03*
X126076000Y-136561000D03*
X125076000Y-136561000D03*
X124076000Y-136561000D03*
X123076000Y-136561000D03*
D11*
X117166000Y-125131000D03*
X118436000Y-125131000D03*
X119706000Y-125131000D03*
X120976000Y-125131000D03*
X122246000Y-125131000D03*
X123516000Y-125131000D03*
X124786000Y-125131000D03*
X126056000Y-125131000D03*
X127326000Y-125131000D03*
X128596000Y-125131000D03*
X129866000Y-125131000D03*
X131136000Y-125131000D03*
X132406000Y-125131000D03*
X133676000Y-125131000D03*
X134976000Y-125161000D03*
X136246000Y-125161000D03*
X137516000Y-125161000D03*
X138786000Y-125161000D03*
X140056000Y-125161000D03*
X140056000Y-143161000D03*
X138786000Y-143161000D03*
X137516000Y-143161000D03*
X136246000Y-143161000D03*
X134976000Y-143161000D03*
X133676000Y-143161000D03*
X132406000Y-143161000D03*
X131136000Y-143161000D03*
X129866000Y-143161000D03*
X128596000Y-143161000D03*
X127326000Y-143161000D03*
X126056000Y-143161000D03*
X124786000Y-143161000D03*
X123516000Y-143161000D03*
X122246000Y-143161000D03*
X120976000Y-143161000D03*
X119706000Y-143161000D03*
X118436000Y-143161000D03*
X117166000Y-143161000D03*
D12*
X124086000Y-134561000D03*
D10*
X122076000Y-136561000D03*
D13*
X143334000Y-135846820D03*
X143334000Y-143045180D03*
X143334000Y-124924820D03*
X143334000Y-132123180D03*
D14*
X141820160Y-133858000D03*
X143323840Y-133858000D03*
D15*
X144858000Y-145542000D03*
D16*
X142318000Y-145542000D03*
X139778000Y-145542000D03*
X137238000Y-145542000D03*
X134698000Y-145542000D03*
X132158000Y-145542000D03*
X129618000Y-145542000D03*
X127078000Y-145542000D03*
X124538000Y-145542000D03*
X121998000Y-145542000D03*
X119458000Y-145542000D03*
X116918000Y-145542000D03*
X114378000Y-145542000D03*
X111838000Y-145542000D03*
X144858000Y-122682000D03*
X142318000Y-122682000D03*
X139778000Y-122682000D03*
X137238000Y-122682000D03*
X134698000Y-122682000D03*
X132158000Y-122682000D03*
X129618000Y-122682000D03*
X127078000Y-122682000D03*
X124538000Y-122682000D03*
X121998000Y-122682000D03*
X119458000Y-122682000D03*
X116918000Y-122682000D03*
X114378000Y-122682000D03*
D15*
X111838000Y-122682000D03*
D10*
X66939000Y-83576000D03*
X66939000Y-84576000D03*
X66939000Y-85576000D03*
X66939000Y-86576000D03*
X66939000Y-87576000D03*
X64939000Y-83576000D03*
X64939000Y-84576000D03*
X64939000Y-85576000D03*
X64939000Y-86576000D03*
X64939000Y-87576000D03*
X65939000Y-87576000D03*
X65939000Y-86576000D03*
X65939000Y-85576000D03*
X65939000Y-84576000D03*
X65939000Y-83576000D03*
X63939000Y-83576000D03*
X63939000Y-84576000D03*
X63939000Y-85576000D03*
X63939000Y-86576000D03*
X63939000Y-87576000D03*
X62939000Y-87576000D03*
X62939000Y-86576000D03*
X62939000Y-85576000D03*
X62939000Y-84576000D03*
D17*
X74369000Y-78666000D03*
X74369000Y-79936000D03*
X74369000Y-81206000D03*
X74369000Y-82476000D03*
X74369000Y-83746000D03*
X74369000Y-85016000D03*
X74369000Y-86286000D03*
X74369000Y-87556000D03*
X74369000Y-88826000D03*
X74369000Y-90096000D03*
X74369000Y-91366000D03*
X74369000Y-92636000D03*
X74369000Y-93906000D03*
X74369000Y-95176000D03*
X74339000Y-96476000D03*
X74339000Y-97746000D03*
X74339000Y-99016000D03*
X74339000Y-100286000D03*
X74339000Y-101556000D03*
X56339000Y-101556000D03*
X56339000Y-100286000D03*
X56339000Y-99016000D03*
X56339000Y-97746000D03*
X56339000Y-96476000D03*
X56339000Y-95176000D03*
X56339000Y-93906000D03*
X56339000Y-92636000D03*
X56339000Y-91366000D03*
X56339000Y-90096000D03*
X56339000Y-88826000D03*
X56339000Y-87556000D03*
X56339000Y-86286000D03*
X56339000Y-85016000D03*
X56339000Y-83746000D03*
X56339000Y-82476000D03*
X56339000Y-81206000D03*
X56339000Y-79936000D03*
X56339000Y-78666000D03*
D12*
X64939000Y-85586000D03*
D10*
X62939000Y-83576000D03*
D13*
X63653180Y-104834000D03*
X56454820Y-104834000D03*
X74575180Y-104834000D03*
X67376820Y-104834000D03*
D18*
X65642000Y-103320160D03*
X65642000Y-104823840D03*
D15*
X53958000Y-106358000D03*
D16*
X53958000Y-103818000D03*
X53958000Y-101278000D03*
X53958000Y-98738000D03*
X53958000Y-96198000D03*
X53958000Y-93658000D03*
X53958000Y-91118000D03*
X53958000Y-88578000D03*
X53958000Y-86038000D03*
X53958000Y-83498000D03*
X53958000Y-80958000D03*
X53958000Y-78418000D03*
X53958000Y-75878000D03*
X53958000Y-73338000D03*
X76818000Y-106358000D03*
X76818000Y-103818000D03*
X76818000Y-101278000D03*
X76818000Y-98738000D03*
X76818000Y-96198000D03*
X76818000Y-93658000D03*
X76818000Y-91118000D03*
X76818000Y-88578000D03*
X76818000Y-86038000D03*
X76818000Y-83498000D03*
X76818000Y-80958000D03*
X76818000Y-78418000D03*
X76818000Y-75878000D03*
D15*
X76818000Y-73338000D03*
X103818000Y-73338000D03*
D16*
X103818000Y-75878000D03*
X103818000Y-78418000D03*
X103818000Y-80958000D03*
X103818000Y-83498000D03*
X103818000Y-86038000D03*
X103818000Y-88578000D03*
X103818000Y-91118000D03*
X103818000Y-93658000D03*
X103818000Y-96198000D03*
X103818000Y-98738000D03*
X103818000Y-101278000D03*
X103818000Y-103818000D03*
X103818000Y-106358000D03*
X80958000Y-73338000D03*
X80958000Y-75878000D03*
X80958000Y-78418000D03*
X80958000Y-80958000D03*
X80958000Y-83498000D03*
X80958000Y-86038000D03*
X80958000Y-88578000D03*
X80958000Y-91118000D03*
X80958000Y-93658000D03*
X80958000Y-96198000D03*
X80958000Y-98738000D03*
X80958000Y-101278000D03*
X80958000Y-103818000D03*
D15*
X80958000Y-106358000D03*
D18*
X92642000Y-104823840D03*
X92642000Y-103320160D03*
D13*
X94376820Y-104834000D03*
X101575180Y-104834000D03*
X83454820Y-104834000D03*
X90653180Y-104834000D03*
D10*
X89939000Y-83576000D03*
D12*
X91939000Y-85586000D03*
D17*
X83339000Y-78666000D03*
X83339000Y-79936000D03*
X83339000Y-81206000D03*
X83339000Y-82476000D03*
X83339000Y-83746000D03*
X83339000Y-85016000D03*
X83339000Y-86286000D03*
X83339000Y-87556000D03*
X83339000Y-88826000D03*
X83339000Y-90096000D03*
X83339000Y-91366000D03*
X83339000Y-92636000D03*
X83339000Y-93906000D03*
X83339000Y-95176000D03*
X83339000Y-96476000D03*
X83339000Y-97746000D03*
X83339000Y-99016000D03*
X83339000Y-100286000D03*
X83339000Y-101556000D03*
X101339000Y-101556000D03*
X101339000Y-100286000D03*
X101339000Y-99016000D03*
X101339000Y-97746000D03*
X101339000Y-96476000D03*
X101369000Y-95176000D03*
X101369000Y-93906000D03*
X101369000Y-92636000D03*
X101369000Y-91366000D03*
X101369000Y-90096000D03*
X101369000Y-88826000D03*
X101369000Y-87556000D03*
X101369000Y-86286000D03*
X101369000Y-85016000D03*
X101369000Y-83746000D03*
X101369000Y-82476000D03*
X101369000Y-81206000D03*
X101369000Y-79936000D03*
X101369000Y-78666000D03*
D10*
X89939000Y-84576000D03*
X89939000Y-85576000D03*
X89939000Y-86576000D03*
X89939000Y-87576000D03*
X90939000Y-87576000D03*
X90939000Y-86576000D03*
X90939000Y-85576000D03*
X90939000Y-84576000D03*
X90939000Y-83576000D03*
X92939000Y-83576000D03*
X92939000Y-84576000D03*
X92939000Y-85576000D03*
X92939000Y-86576000D03*
X92939000Y-87576000D03*
X91939000Y-87576000D03*
X91939000Y-86576000D03*
X91939000Y-85576000D03*
X91939000Y-84576000D03*
X91939000Y-83576000D03*
X93939000Y-87576000D03*
X93939000Y-86576000D03*
X93939000Y-85576000D03*
X93939000Y-84576000D03*
X93939000Y-83576000D03*
X66939000Y-123576000D03*
X66939000Y-124576000D03*
X66939000Y-125576000D03*
X66939000Y-126576000D03*
X66939000Y-127576000D03*
X64939000Y-123576000D03*
X64939000Y-124576000D03*
X64939000Y-125576000D03*
X64939000Y-126576000D03*
X64939000Y-127576000D03*
X65939000Y-127576000D03*
X65939000Y-126576000D03*
X65939000Y-125576000D03*
X65939000Y-124576000D03*
X65939000Y-123576000D03*
X63939000Y-123576000D03*
X63939000Y-124576000D03*
X63939000Y-125576000D03*
X63939000Y-126576000D03*
X63939000Y-127576000D03*
X62939000Y-127576000D03*
X62939000Y-126576000D03*
X62939000Y-125576000D03*
X62939000Y-124576000D03*
D17*
X74369000Y-118666000D03*
X74369000Y-119936000D03*
X74369000Y-121206000D03*
X74369000Y-122476000D03*
X74369000Y-123746000D03*
X74369000Y-125016000D03*
X74369000Y-126286000D03*
X74369000Y-127556000D03*
X74369000Y-128826000D03*
X74369000Y-130096000D03*
X74369000Y-131366000D03*
X74369000Y-132636000D03*
X74369000Y-133906000D03*
X74369000Y-135176000D03*
X74339000Y-136476000D03*
X74339000Y-137746000D03*
X74339000Y-139016000D03*
X74339000Y-140286000D03*
X74339000Y-141556000D03*
X56339000Y-141556000D03*
X56339000Y-140286000D03*
X56339000Y-139016000D03*
X56339000Y-137746000D03*
X56339000Y-136476000D03*
X56339000Y-135176000D03*
X56339000Y-133906000D03*
X56339000Y-132636000D03*
X56339000Y-131366000D03*
X56339000Y-130096000D03*
X56339000Y-128826000D03*
X56339000Y-127556000D03*
X56339000Y-126286000D03*
X56339000Y-125016000D03*
X56339000Y-123746000D03*
X56339000Y-122476000D03*
X56339000Y-121206000D03*
X56339000Y-119936000D03*
X56339000Y-118666000D03*
D12*
X64939000Y-125586000D03*
D10*
X62939000Y-123576000D03*
D13*
X63653180Y-144834000D03*
X56454820Y-144834000D03*
X74575180Y-144834000D03*
X67376820Y-144834000D03*
D18*
X65642000Y-143320160D03*
X65642000Y-144823840D03*
D15*
X53958000Y-146358000D03*
D16*
X53958000Y-143818000D03*
X53958000Y-141278000D03*
X53958000Y-138738000D03*
X53958000Y-136198000D03*
X53958000Y-133658000D03*
X53958000Y-131118000D03*
X53958000Y-128578000D03*
X53958000Y-126038000D03*
X53958000Y-123498000D03*
X53958000Y-120958000D03*
X53958000Y-118418000D03*
X53958000Y-115878000D03*
X53958000Y-113338000D03*
X76818000Y-146358000D03*
X76818000Y-143818000D03*
X76818000Y-141278000D03*
X76818000Y-138738000D03*
X76818000Y-136198000D03*
X76818000Y-133658000D03*
X76818000Y-131118000D03*
X76818000Y-128578000D03*
X76818000Y-126038000D03*
X76818000Y-123498000D03*
X76818000Y-120958000D03*
X76818000Y-118418000D03*
X76818000Y-115878000D03*
D15*
X76818000Y-113338000D03*
X103818000Y-113338000D03*
D16*
X103818000Y-115878000D03*
X103818000Y-118418000D03*
X103818000Y-120958000D03*
X103818000Y-123498000D03*
X103818000Y-126038000D03*
X103818000Y-128578000D03*
X103818000Y-131118000D03*
X103818000Y-133658000D03*
X103818000Y-136198000D03*
X103818000Y-138738000D03*
X103818000Y-141278000D03*
X103818000Y-143818000D03*
X103818000Y-146358000D03*
X80958000Y-113338000D03*
X80958000Y-115878000D03*
X80958000Y-118418000D03*
X80958000Y-120958000D03*
X80958000Y-123498000D03*
X80958000Y-126038000D03*
X80958000Y-128578000D03*
X80958000Y-131118000D03*
X80958000Y-133658000D03*
X80958000Y-136198000D03*
X80958000Y-138738000D03*
X80958000Y-141278000D03*
X80958000Y-143818000D03*
D15*
X80958000Y-146358000D03*
D18*
X92642000Y-144823840D03*
X92642000Y-143320160D03*
D13*
X94376820Y-144834000D03*
X101575180Y-144834000D03*
X83454820Y-144834000D03*
X90653180Y-144834000D03*
D10*
X89939000Y-123576000D03*
D12*
X91939000Y-125586000D03*
D17*
X83339000Y-118666000D03*
X83339000Y-119936000D03*
X83339000Y-121206000D03*
X83339000Y-122476000D03*
X83339000Y-123746000D03*
X83339000Y-125016000D03*
X83339000Y-126286000D03*
X83339000Y-127556000D03*
X83339000Y-128826000D03*
X83339000Y-130096000D03*
X83339000Y-131366000D03*
X83339000Y-132636000D03*
X83339000Y-133906000D03*
X83339000Y-135176000D03*
X83339000Y-136476000D03*
X83339000Y-137746000D03*
X83339000Y-139016000D03*
X83339000Y-140286000D03*
X83339000Y-141556000D03*
X101339000Y-141556000D03*
X101339000Y-140286000D03*
X101339000Y-139016000D03*
X101339000Y-137746000D03*
X101339000Y-136476000D03*
X101369000Y-135176000D03*
X101369000Y-133906000D03*
X101369000Y-132636000D03*
X101369000Y-131366000D03*
X101369000Y-130096000D03*
X101369000Y-128826000D03*
X101369000Y-127556000D03*
X101369000Y-126286000D03*
X101369000Y-125016000D03*
X101369000Y-123746000D03*
X101369000Y-122476000D03*
X101369000Y-121206000D03*
X101369000Y-119936000D03*
X101369000Y-118666000D03*
D10*
X89939000Y-124576000D03*
X89939000Y-125576000D03*
X89939000Y-126576000D03*
X89939000Y-127576000D03*
X90939000Y-127576000D03*
X90939000Y-126576000D03*
X90939000Y-125576000D03*
X90939000Y-124576000D03*
X90939000Y-123576000D03*
X92939000Y-123576000D03*
X92939000Y-124576000D03*
X92939000Y-125576000D03*
X92939000Y-126576000D03*
X92939000Y-127576000D03*
X91939000Y-127576000D03*
X91939000Y-126576000D03*
X91939000Y-125576000D03*
X91939000Y-124576000D03*
X91939000Y-123576000D03*
X93939000Y-127576000D03*
X93939000Y-126576000D03*
X93939000Y-125576000D03*
X93939000Y-124576000D03*
X93939000Y-123576000D03*
M02*
