G04 #@! TF.GenerationSoftware,KiCad,Pcbnew,no-vcs-found*
G04 #@! TF.CreationDate,2017-01-06T12:50:59+01:00*
G04 #@! TF.ProjectId,ESP32-HELP-Button-pan,45535033322D48454C502D427574746F,rev?*
G04 #@! TF.FileFunction,Soldermask,Bot*
G04 #@! TF.FilePolarity,Negative*
%FSLAX46Y46*%
G04 Gerber Fmt 4.6, Leading zero omitted, Abs format (unit mm)*
G04 Created by KiCad (PCBNEW no-vcs-found) date Fri Jan  6 12:50:59 2017*
%MOMM*%
%LPD*%
G01*
G04 APERTURE LIST*
%ADD10C,0.100000*%
%ADD11C,2.540000*%
%ADD12C,1.200000*%
%ADD13R,2.100000X2.100000*%
%ADD14O,2.100000X2.100000*%
%ADD15R,3.400000X6.400000*%
%ADD16C,16.400000*%
%ADD17R,10.400000X8.400000*%
G04 APERTURE END LIST*
D10*
D11*
X32500000Y-167000000D03*
X32500000Y-73000000D03*
X127500000Y-167000000D03*
D12*
X71956000Y-89322000D03*
X70956000Y-89322000D03*
X69956000Y-89322000D03*
X68956000Y-89322000D03*
X67956000Y-89322000D03*
X71956000Y-87322000D03*
X70956000Y-87322000D03*
X69956000Y-87322000D03*
X68956000Y-87322000D03*
X67956000Y-87322000D03*
X67956000Y-88322000D03*
X68956000Y-88322000D03*
X69956000Y-88322000D03*
X70956000Y-88322000D03*
X71956000Y-88322000D03*
X71956000Y-86322000D03*
X70956000Y-86322000D03*
X69956000Y-86322000D03*
X68956000Y-86322000D03*
X67956000Y-86322000D03*
X67956000Y-85322000D03*
X68956000Y-85322000D03*
X69956000Y-85322000D03*
X70956000Y-85322000D03*
X71956000Y-85322000D03*
D13*
X74237000Y-100120000D03*
D14*
X71697000Y-100120000D03*
X69157000Y-100120000D03*
X66617000Y-100120000D03*
X64077000Y-100120000D03*
D15*
X64067961Y-87273131D03*
X38067961Y-87473131D03*
D16*
X51067961Y-87473131D03*
D17*
X43075000Y-116174000D03*
X121175000Y-116174000D03*
D12*
X105270000Y-111200000D03*
X105270000Y-112200000D03*
X105270000Y-113200000D03*
X105270000Y-114200000D03*
X105270000Y-115200000D03*
X103270000Y-111200000D03*
X103270000Y-112200000D03*
X103270000Y-113200000D03*
X103270000Y-114200000D03*
X103270000Y-115200000D03*
X104270000Y-115200000D03*
X104270000Y-114200000D03*
X104270000Y-113200000D03*
X104270000Y-112200000D03*
X104270000Y-111200000D03*
X102270000Y-111200000D03*
X102270000Y-112200000D03*
X102270000Y-113200000D03*
X102270000Y-114200000D03*
X102270000Y-115200000D03*
X101270000Y-115200000D03*
X101270000Y-114200000D03*
X101270000Y-113200000D03*
X101270000Y-112200000D03*
X101270000Y-111200000D03*
D13*
X124000000Y-128500000D03*
D14*
X121460000Y-128500000D03*
X118920000Y-128500000D03*
X116380000Y-128500000D03*
X113840000Y-128500000D03*
D16*
X98067961Y-87473131D03*
D15*
X85067961Y-87473131D03*
X111067961Y-87273131D03*
D14*
X111077000Y-100120000D03*
X113617000Y-100120000D03*
X116157000Y-100120000D03*
X118697000Y-100120000D03*
D13*
X121237000Y-100120000D03*
D12*
X118956000Y-85322000D03*
X117956000Y-85322000D03*
X116956000Y-85322000D03*
X115956000Y-85322000D03*
X114956000Y-85322000D03*
X114956000Y-86322000D03*
X115956000Y-86322000D03*
X116956000Y-86322000D03*
X117956000Y-86322000D03*
X118956000Y-86322000D03*
X118956000Y-88322000D03*
X117956000Y-88322000D03*
X116956000Y-88322000D03*
X115956000Y-88322000D03*
X114956000Y-88322000D03*
X114956000Y-87322000D03*
X115956000Y-87322000D03*
X116956000Y-87322000D03*
X117956000Y-87322000D03*
X118956000Y-87322000D03*
X114956000Y-89322000D03*
X115956000Y-89322000D03*
X116956000Y-89322000D03*
X117956000Y-89322000D03*
X118956000Y-89322000D03*
D14*
X113840000Y-157000000D03*
X116380000Y-157000000D03*
X118920000Y-157000000D03*
X121460000Y-157000000D03*
D13*
X124000000Y-157000000D03*
D12*
X101270000Y-139700000D03*
X101270000Y-140700000D03*
X101270000Y-141700000D03*
X101270000Y-142700000D03*
X101270000Y-143700000D03*
X102270000Y-143700000D03*
X102270000Y-142700000D03*
X102270000Y-141700000D03*
X102270000Y-140700000D03*
X102270000Y-139700000D03*
X104270000Y-139700000D03*
X104270000Y-140700000D03*
X104270000Y-141700000D03*
X104270000Y-142700000D03*
X104270000Y-143700000D03*
X103270000Y-143700000D03*
X103270000Y-142700000D03*
X103270000Y-141700000D03*
X103270000Y-140700000D03*
X103270000Y-139700000D03*
X105270000Y-143700000D03*
X105270000Y-142700000D03*
X105270000Y-141700000D03*
X105270000Y-140700000D03*
X105270000Y-139700000D03*
D17*
X121175000Y-144674000D03*
X43075000Y-144674000D03*
M02*
