M48
;DRILL file {KiCad no-vcs-found} date Thu Jan  5 13:18:53 2017
;FORMAT={-:-/ absolute / metric / decimal}
FMAT,2
METRIC,TZ
T1C0.300
T2C0.400
T3C1.000
%
G90
G05
M71
T1
X51.808Y-71.945
X52.951Y-71.945
X53.967Y-71.945
X54.983Y-71.945
X56.126Y-71.945
X56.822Y-78.544
X56.822Y-79.544
X56.822Y-80.544
X56.822Y-81.544
X56.822Y-82.544
X57.142Y-71.945
X57.822Y-78.544
X57.822Y-79.544
X57.822Y-80.544
X57.822Y-81.544
X57.822Y-82.544
X58.158Y-71.945
X58.822Y-78.544
X58.822Y-79.544
X58.822Y-80.544
X58.822Y-81.544
X58.822Y-82.544
X59.174Y-71.945
X59.822Y-78.544
X59.822Y-79.544
X59.822Y-80.544
X59.822Y-81.544
X59.822Y-82.544
X60.19Y-71.945
X60.822Y-78.544
X60.822Y-79.544
X60.822Y-80.544
X60.822Y-81.544
X60.822Y-82.544
X61.206Y-71.945
X62.222Y-71.945
X63.238Y-71.945
X64.127Y-81.597
X64.254Y-71.945
X65.27Y-71.945
X66.794Y-94.805
X69.334Y-88.201
X78.808Y-71.945
X79.951Y-71.945
X80.967Y-71.945
X81.983Y-71.945
X83.126Y-71.945
X83.822Y-78.544
X83.822Y-79.544
X83.822Y-80.544
X83.822Y-81.544
X83.822Y-82.544
X84.142Y-71.945
X84.822Y-78.544
X84.822Y-79.544
X84.822Y-80.544
X84.822Y-81.544
X84.822Y-82.544
X85.158Y-71.945
X85.822Y-78.544
X85.822Y-79.544
X85.822Y-80.544
X85.822Y-81.544
X85.822Y-82.544
X86.174Y-71.945
X86.822Y-78.544
X86.822Y-79.544
X86.822Y-80.544
X86.822Y-81.544
X86.822Y-82.544
X87.19Y-71.945
X87.822Y-78.544
X87.822Y-79.544
X87.822Y-80.544
X87.822Y-81.544
X87.822Y-82.544
X88.206Y-71.945
X89.222Y-71.945
X90.238Y-71.945
X91.127Y-81.597
X91.254Y-71.945
X92.27Y-71.945
X92.695Y-135.294
X92.695Y-162.294
X93.794Y-94.805
X96.334Y-88.201
X99.299Y-137.834
X99.299Y-164.834
X104.956Y-125.322
X104.956Y-126.322
X104.956Y-127.322
X104.956Y-128.322
X104.956Y-129.322
X104.956Y-152.322
X104.956Y-153.322
X104.956Y-154.322
X104.956Y-155.322
X104.956Y-156.322
X105.808Y-71.945
X105.903Y-132.627
X105.903Y-159.627
X105.956Y-125.322
X105.956Y-126.322
X105.956Y-127.322
X105.956Y-128.322
X105.956Y-129.322
X105.956Y-152.322
X105.956Y-153.322
X105.956Y-154.322
X105.956Y-155.322
X105.956Y-156.322
X106.951Y-71.945
X106.956Y-125.322
X106.956Y-126.322
X106.956Y-127.322
X106.956Y-128.322
X106.956Y-129.322
X106.956Y-152.322
X106.956Y-153.322
X106.956Y-154.322
X106.956Y-155.322
X106.956Y-156.322
X107.956Y-125.322
X107.956Y-126.322
X107.956Y-127.322
X107.956Y-128.322
X107.956Y-129.322
X107.956Y-152.322
X107.956Y-153.322
X107.956Y-154.322
X107.956Y-155.322
X107.956Y-156.322
X107.967Y-71.945
X108.956Y-125.322
X108.956Y-126.322
X108.956Y-127.322
X108.956Y-128.322
X108.956Y-129.322
X108.956Y-152.322
X108.956Y-153.322
X108.956Y-154.322
X108.956Y-155.322
X108.956Y-156.322
X108.983Y-71.945
X110.126Y-71.945
X110.822Y-78.544
X110.822Y-79.544
X110.822Y-80.544
X110.822Y-81.544
X110.822Y-82.544
X111.142Y-71.945
X111.822Y-78.544
X111.822Y-79.544
X111.822Y-80.544
X111.822Y-81.544
X111.822Y-82.544
X112.158Y-71.945
X112.822Y-78.544
X112.822Y-79.544
X112.822Y-80.544
X112.822Y-81.544
X112.822Y-82.544
X113.174Y-71.945
X113.822Y-78.544
X113.822Y-79.544
X113.822Y-80.544
X113.822Y-81.544
X113.822Y-82.544
X114.19Y-71.945
X114.822Y-78.544
X114.822Y-79.544
X114.822Y-80.544
X114.822Y-81.544
X114.822Y-82.544
X115.206Y-71.945
X115.555Y-120.435
X115.555Y-121.451
X115.555Y-122.467
X115.555Y-123.483
X115.555Y-124.626
X115.555Y-125.642
X115.555Y-126.658
X115.555Y-127.674
X115.555Y-128.69
X115.555Y-129.706
X115.555Y-130.722
X115.555Y-131.738
X115.555Y-132.754
X115.555Y-133.77
X115.555Y-147.435
X115.555Y-148.451
X115.555Y-149.467
X115.555Y-150.483
X115.555Y-151.626
X115.555Y-152.642
X115.555Y-153.658
X115.555Y-154.674
X115.555Y-155.69
X115.555Y-156.706
X115.555Y-157.722
X115.555Y-158.738
X115.555Y-159.754
X115.555Y-160.77
X116.222Y-71.945
X117.238Y-71.945
X118.127Y-81.597
X118.254Y-71.945
X119.27Y-71.945
X120.794Y-94.805
X123.334Y-88.201
X126.62Y-117.387
X126.62Y-144.387
T2
X49.527Y-93.794
X51.173Y-74.104
X51.93Y-93.794
X52.697Y-75.374
X53.205Y-92.519
X66.413Y-93.154
X68.572Y-98.361
X76.527Y-93.794
X78.173Y-74.104
X78.93Y-93.794
X79.697Y-75.374
X80.205Y-92.519
X89.139Y-137.072
X89.139Y-164.072
X93.413Y-93.154
X93.706Y-118.027
X93.706Y-120.43
X93.706Y-145.027
X93.706Y-147.43
X94.346Y-134.913
X94.346Y-161.913
X94.981Y-121.705
X94.981Y-148.705
X95.572Y-98.361
X103.527Y-93.794
X105.173Y-74.104
X105.93Y-93.794
X106.697Y-75.374
X107.205Y-92.519
X112.126Y-121.197
X112.126Y-148.197
X113.396Y-119.673
X113.396Y-146.673
X120.413Y-93.154
X122.572Y-98.361
T3
X71.62Y-76.263
X71.62Y-78.803
X71.62Y-81.343
X71.62Y-83.883
X71.62Y-86.423
X98.62Y-76.263
X98.62Y-78.803
X98.62Y-81.343
X98.62Y-83.883
X98.62Y-86.423
X101.077Y-140.12
X101.077Y-167.12
X103.617Y-140.12
X103.617Y-167.12
X106.157Y-140.12
X106.157Y-167.12
X108.697Y-140.12
X108.697Y-167.12
X111.237Y-140.12
X111.237Y-167.12
X125.62Y-76.263
X125.62Y-78.803
X125.62Y-81.343
X125.62Y-83.883
X125.62Y-86.423
T0
M30
