G04 #@! TF.GenerationSoftware,KiCad,Pcbnew,no-vcs-found*
G04 #@! TF.CreationDate,2017-01-06T12:50:59+01:00*
G04 #@! TF.ProjectId,ESP32-HELP-Button-pan,45535033322D48454C502D427574746F,rev?*
G04 #@! TF.FileFunction,Copper,L1,Top,Signal*
G04 #@! TF.FilePolarity,Positive*
%FSLAX46Y46*%
G04 Gerber Fmt 4.6, Leading zero omitted, Abs format (unit mm)*
G04 Created by KiCad (PCBNEW no-vcs-found) date Fri Jan  6 12:50:59 2017*
%MOMM*%
%LPD*%
G01*
G04 APERTURE LIST*
%ADD10C,0.100000*%
%ADD11C,1.000000*%
%ADD12R,1.600200X1.803400*%
%ADD13R,0.899160X1.000760*%
%ADD14C,0.800000*%
%ADD15R,0.900000X1.350000*%
%ADD16R,1.350000X0.900000*%
%ADD17R,6.000000X6.000000*%
%ADD18R,1.000760X0.899160*%
%ADD19R,1.000760X0.599440*%
%ADD20R,1.700000X1.700000*%
%ADD21O,1.700000X1.700000*%
%ADD22R,0.800000X0.800000*%
%ADD23R,1.300000X2.340000*%
%ADD24C,0.600000*%
%ADD25R,1.803400X1.600200*%
%ADD26C,0.250000*%
%ADD27C,0.500000*%
%ADD28C,0.254000*%
G04 APERTURE END LIST*
D10*
D11*
X32500000Y-167000000D03*
X32500000Y-73000000D03*
X127500000Y-167000000D03*
D12*
X54044000Y-99358000D03*
X56838000Y-99358000D03*
D13*
X54953320Y-96691000D03*
X56457000Y-96691000D03*
D14*
X71956000Y-89322000D03*
X70956000Y-89322000D03*
X69956000Y-89322000D03*
X68956000Y-89322000D03*
X67956000Y-89322000D03*
X71956000Y-87322000D03*
X70956000Y-87322000D03*
X69956000Y-87322000D03*
X68956000Y-87322000D03*
X67956000Y-87322000D03*
X67956000Y-88322000D03*
X68956000Y-88322000D03*
X69956000Y-88322000D03*
X70956000Y-88322000D03*
X71956000Y-88322000D03*
X71956000Y-86322000D03*
X70956000Y-86322000D03*
X69956000Y-86322000D03*
X68956000Y-86322000D03*
X67956000Y-86322000D03*
X67956000Y-85322000D03*
X68956000Y-85322000D03*
X69956000Y-85322000D03*
X70956000Y-85322000D03*
D15*
X77666000Y-96052000D03*
X76396000Y-96052000D03*
X75126000Y-96052000D03*
X73856000Y-96052000D03*
X72586000Y-96052000D03*
X71316000Y-96052000D03*
X70046000Y-96052000D03*
X68776000Y-96052000D03*
X67506000Y-96052000D03*
X66236000Y-96052000D03*
X64966000Y-96052000D03*
X63696000Y-96052000D03*
X62426000Y-96052000D03*
X61156000Y-96052000D03*
D16*
X59656000Y-92752000D03*
X59656000Y-91482000D03*
X59656000Y-90212000D03*
X59656000Y-88942000D03*
X59656000Y-87672000D03*
X59656000Y-86402000D03*
X59656000Y-85132000D03*
X59656000Y-83862000D03*
X59656000Y-82592000D03*
X59656000Y-81322000D03*
D15*
X61156000Y-78022000D03*
X62426000Y-78022000D03*
X63696000Y-78022000D03*
X64966000Y-78022000D03*
X66236000Y-78022000D03*
X67506000Y-78022000D03*
X68776000Y-78022000D03*
X70046000Y-78022000D03*
X71316000Y-78022000D03*
X72586000Y-78022000D03*
X73856000Y-78022000D03*
X75126000Y-78022000D03*
X76396000Y-78022000D03*
X77666000Y-78022000D03*
D17*
X69956000Y-87322000D03*
D14*
X71956000Y-85322000D03*
D18*
X40328000Y-90722000D03*
X40328000Y-89218320D03*
X44011000Y-89218320D03*
X44011000Y-90722000D03*
X55695000Y-87313320D03*
X55695000Y-88817000D03*
D19*
X54846640Y-81197000D03*
X52733360Y-82149500D03*
X54846640Y-83102000D03*
D20*
X74237000Y-100120000D03*
D21*
X71697000Y-100120000D03*
X69157000Y-100120000D03*
X66617000Y-100120000D03*
X64077000Y-100120000D03*
D22*
X40455000Y-85845000D03*
X40455000Y-84245000D03*
X44011000Y-84296000D03*
X44011000Y-85896000D03*
D23*
X49853000Y-96997000D03*
X49853000Y-78657000D03*
D24*
X68903000Y-92627000D03*
X62299000Y-97834000D03*
X55695000Y-95294000D03*
X78555000Y-81451000D03*
X78555000Y-82467000D03*
X78555000Y-83483000D03*
X78555000Y-84626000D03*
X78555000Y-85642000D03*
X78555000Y-86658000D03*
X78555000Y-87674000D03*
X78555000Y-88690000D03*
X78555000Y-89706000D03*
X78555000Y-90722000D03*
X78555000Y-91738000D03*
X78555000Y-92754000D03*
X78555000Y-93770000D03*
X78555000Y-80308000D03*
D25*
X88000000Y-107500000D03*
X88000000Y-110294000D03*
D18*
X85000000Y-107500000D03*
X85000000Y-109003680D03*
D14*
X105270000Y-111200000D03*
X105270000Y-112200000D03*
X105270000Y-113200000D03*
X105270000Y-114200000D03*
X105270000Y-115200000D03*
X103270000Y-111200000D03*
X103270000Y-112200000D03*
X103270000Y-113200000D03*
X103270000Y-114200000D03*
X103270000Y-115200000D03*
X104270000Y-115200000D03*
X104270000Y-114200000D03*
X104270000Y-113200000D03*
X104270000Y-112200000D03*
X104270000Y-111200000D03*
X102270000Y-111200000D03*
X102270000Y-112200000D03*
X102270000Y-113200000D03*
X102270000Y-114200000D03*
X102270000Y-115200000D03*
X101270000Y-115200000D03*
X101270000Y-114200000D03*
X101270000Y-113200000D03*
X101270000Y-112200000D03*
D16*
X112000000Y-105490000D03*
X112000000Y-106760000D03*
X112000000Y-108030000D03*
X112000000Y-109300000D03*
X112000000Y-110570000D03*
X112000000Y-111840000D03*
X112000000Y-113110000D03*
X112000000Y-114380000D03*
X112000000Y-115650000D03*
X112000000Y-116920000D03*
X112000000Y-118190000D03*
X112000000Y-119460000D03*
X112000000Y-120730000D03*
X112000000Y-122000000D03*
D15*
X108700000Y-123500000D03*
X107430000Y-123500000D03*
X106160000Y-123500000D03*
X104890000Y-123500000D03*
X103620000Y-123500000D03*
X102350000Y-123500000D03*
X101080000Y-123500000D03*
X99810000Y-123500000D03*
X98540000Y-123500000D03*
X97270000Y-123500000D03*
D16*
X93970000Y-122000000D03*
X93970000Y-120730000D03*
X93970000Y-119460000D03*
X93970000Y-118190000D03*
X93970000Y-116920000D03*
X93970000Y-115650000D03*
X93970000Y-114380000D03*
X93970000Y-113110000D03*
X93970000Y-111840000D03*
X93970000Y-110570000D03*
X93970000Y-109300000D03*
X93970000Y-108030000D03*
X93970000Y-106760000D03*
X93970000Y-105490000D03*
D17*
X103270000Y-113200000D03*
D14*
X101270000Y-111200000D03*
D18*
X69678000Y-122222000D03*
X69678000Y-120718320D03*
X67011000Y-120718320D03*
X67011000Y-122222000D03*
X91695000Y-106996320D03*
X91695000Y-108500000D03*
D19*
X87056640Y-114547500D03*
X84943360Y-115500000D03*
X87056640Y-116452500D03*
D20*
X124000000Y-128500000D03*
D21*
X121460000Y-128500000D03*
X118920000Y-128500000D03*
X116380000Y-128500000D03*
X113840000Y-128500000D03*
D22*
X69805000Y-117345000D03*
X69805000Y-115745000D03*
X67011000Y-115796000D03*
X67011000Y-117396000D03*
D23*
X78940000Y-108230000D03*
X78940000Y-126570000D03*
D24*
X96918312Y-105502568D03*
X97934312Y-105502568D03*
X98950312Y-105502568D03*
X100093312Y-105502568D03*
X101109312Y-105502568D03*
X102125312Y-105502568D03*
X103141312Y-105502568D03*
X104157312Y-105502568D03*
X105173312Y-105502568D03*
X106189312Y-105502568D03*
X107205312Y-105502568D03*
X108221312Y-105502568D03*
X109237312Y-105502568D03*
X95902312Y-105502568D03*
X114119000Y-115088000D03*
X115135000Y-123470000D03*
X117548000Y-123470000D03*
X120469000Y-123470000D03*
X120469000Y-124867000D03*
X125555000Y-80308000D03*
X125555000Y-93770000D03*
X125555000Y-92754000D03*
X125555000Y-91738000D03*
X125555000Y-90722000D03*
X125555000Y-89706000D03*
X125555000Y-88690000D03*
X125555000Y-87674000D03*
X125555000Y-86658000D03*
X125555000Y-85642000D03*
X125555000Y-84626000D03*
X125555000Y-83483000D03*
X125555000Y-82467000D03*
X125555000Y-81451000D03*
X102695000Y-95294000D03*
X109299000Y-97834000D03*
X115903000Y-92627000D03*
D23*
X96853000Y-78657000D03*
X96853000Y-96997000D03*
D22*
X91011000Y-85896000D03*
X91011000Y-84296000D03*
X87455000Y-84245000D03*
X87455000Y-85845000D03*
D21*
X111077000Y-100120000D03*
X113617000Y-100120000D03*
X116157000Y-100120000D03*
X118697000Y-100120000D03*
D20*
X121237000Y-100120000D03*
D19*
X101846640Y-83102000D03*
X99733360Y-82149500D03*
X101846640Y-81197000D03*
D18*
X102695000Y-88817000D03*
X102695000Y-87313320D03*
X91011000Y-90722000D03*
X91011000Y-89218320D03*
X87328000Y-89218320D03*
X87328000Y-90722000D03*
D14*
X118956000Y-85322000D03*
D17*
X116956000Y-87322000D03*
D15*
X124666000Y-78022000D03*
X123396000Y-78022000D03*
X122126000Y-78022000D03*
X120856000Y-78022000D03*
X119586000Y-78022000D03*
X118316000Y-78022000D03*
X117046000Y-78022000D03*
X115776000Y-78022000D03*
X114506000Y-78022000D03*
X113236000Y-78022000D03*
X111966000Y-78022000D03*
X110696000Y-78022000D03*
X109426000Y-78022000D03*
X108156000Y-78022000D03*
D16*
X106656000Y-81322000D03*
X106656000Y-82592000D03*
X106656000Y-83862000D03*
X106656000Y-85132000D03*
X106656000Y-86402000D03*
X106656000Y-87672000D03*
X106656000Y-88942000D03*
X106656000Y-90212000D03*
X106656000Y-91482000D03*
X106656000Y-92752000D03*
D15*
X108156000Y-96052000D03*
X109426000Y-96052000D03*
X110696000Y-96052000D03*
X111966000Y-96052000D03*
X113236000Y-96052000D03*
X114506000Y-96052000D03*
X115776000Y-96052000D03*
X117046000Y-96052000D03*
X118316000Y-96052000D03*
X119586000Y-96052000D03*
X120856000Y-96052000D03*
X122126000Y-96052000D03*
X123396000Y-96052000D03*
X124666000Y-96052000D03*
D14*
X117956000Y-85322000D03*
X116956000Y-85322000D03*
X115956000Y-85322000D03*
X114956000Y-85322000D03*
X114956000Y-86322000D03*
X115956000Y-86322000D03*
X116956000Y-86322000D03*
X117956000Y-86322000D03*
X118956000Y-86322000D03*
X118956000Y-88322000D03*
X117956000Y-88322000D03*
X116956000Y-88322000D03*
X115956000Y-88322000D03*
X114956000Y-88322000D03*
X114956000Y-87322000D03*
X115956000Y-87322000D03*
X116956000Y-87322000D03*
X117956000Y-87322000D03*
X118956000Y-87322000D03*
X114956000Y-89322000D03*
X115956000Y-89322000D03*
X116956000Y-89322000D03*
X117956000Y-89322000D03*
X118956000Y-89322000D03*
D13*
X103457000Y-96691000D03*
X101953320Y-96691000D03*
D12*
X103838000Y-99358000D03*
X101044000Y-99358000D03*
D24*
X120469000Y-153367000D03*
X120469000Y-151970000D03*
X117548000Y-151970000D03*
X115135000Y-151970000D03*
X114119000Y-143588000D03*
X95902312Y-134002568D03*
X109237312Y-134002568D03*
X108221312Y-134002568D03*
X107205312Y-134002568D03*
X106189312Y-134002568D03*
X105173312Y-134002568D03*
X104157312Y-134002568D03*
X103141312Y-134002568D03*
X102125312Y-134002568D03*
X101109312Y-134002568D03*
X100093312Y-134002568D03*
X98950312Y-134002568D03*
X97934312Y-134002568D03*
X96918312Y-134002568D03*
D23*
X78940000Y-155070000D03*
X78940000Y-136730000D03*
D22*
X67011000Y-145896000D03*
X67011000Y-144296000D03*
X69805000Y-144245000D03*
X69805000Y-145845000D03*
D21*
X113840000Y-157000000D03*
X116380000Y-157000000D03*
X118920000Y-157000000D03*
X121460000Y-157000000D03*
D20*
X124000000Y-157000000D03*
D19*
X87056640Y-144952500D03*
X84943360Y-144000000D03*
X87056640Y-143047500D03*
D18*
X91695000Y-137000000D03*
X91695000Y-135496320D03*
X67011000Y-150722000D03*
X67011000Y-149218320D03*
X69678000Y-149218320D03*
X69678000Y-150722000D03*
D14*
X101270000Y-139700000D03*
D17*
X103270000Y-141700000D03*
D16*
X93970000Y-133990000D03*
X93970000Y-135260000D03*
X93970000Y-136530000D03*
X93970000Y-137800000D03*
X93970000Y-139070000D03*
X93970000Y-140340000D03*
X93970000Y-141610000D03*
X93970000Y-142880000D03*
X93970000Y-144150000D03*
X93970000Y-145420000D03*
X93970000Y-146690000D03*
X93970000Y-147960000D03*
X93970000Y-149230000D03*
X93970000Y-150500000D03*
D15*
X97270000Y-152000000D03*
X98540000Y-152000000D03*
X99810000Y-152000000D03*
X101080000Y-152000000D03*
X102350000Y-152000000D03*
X103620000Y-152000000D03*
X104890000Y-152000000D03*
X106160000Y-152000000D03*
X107430000Y-152000000D03*
X108700000Y-152000000D03*
D16*
X112000000Y-150500000D03*
X112000000Y-149230000D03*
X112000000Y-147960000D03*
X112000000Y-146690000D03*
X112000000Y-145420000D03*
X112000000Y-144150000D03*
X112000000Y-142880000D03*
X112000000Y-141610000D03*
X112000000Y-140340000D03*
X112000000Y-139070000D03*
X112000000Y-137800000D03*
X112000000Y-136530000D03*
X112000000Y-135260000D03*
X112000000Y-133990000D03*
D14*
X101270000Y-140700000D03*
X101270000Y-141700000D03*
X101270000Y-142700000D03*
X101270000Y-143700000D03*
X102270000Y-143700000D03*
X102270000Y-142700000D03*
X102270000Y-141700000D03*
X102270000Y-140700000D03*
X102270000Y-139700000D03*
X104270000Y-139700000D03*
X104270000Y-140700000D03*
X104270000Y-141700000D03*
X104270000Y-142700000D03*
X104270000Y-143700000D03*
X103270000Y-143700000D03*
X103270000Y-142700000D03*
X103270000Y-141700000D03*
X103270000Y-140700000D03*
X103270000Y-139700000D03*
X105270000Y-143700000D03*
X105270000Y-142700000D03*
X105270000Y-141700000D03*
X105270000Y-140700000D03*
X105270000Y-139700000D03*
D18*
X85000000Y-137503680D03*
X85000000Y-136000000D03*
D25*
X88000000Y-138794000D03*
X88000000Y-136000000D03*
D14*
X52139000Y-97072000D03*
X75003000Y-108230000D03*
X99139000Y-97072000D03*
X75003000Y-136730000D03*
X76396000Y-79673000D03*
X57981000Y-81705000D03*
X90116000Y-112802000D03*
X104981000Y-81705000D03*
X123396000Y-79673000D03*
X90116000Y-141302000D03*
X75126000Y-81197000D03*
X57346000Y-94913000D03*
X97000000Y-108500000D03*
X116024000Y-108357000D03*
X104346000Y-94913000D03*
X122126000Y-81197000D03*
X116024000Y-136857000D03*
X97000000Y-137000000D03*
X56706347Y-78026653D03*
X56706347Y-80430347D03*
X103706347Y-80430347D03*
X103706347Y-78026653D03*
D26*
X52064000Y-96997000D02*
X52139000Y-97072000D01*
X49853000Y-96997000D02*
X52064000Y-96997000D01*
X54096260Y-81197000D02*
X53663000Y-81630260D01*
X54846640Y-81197000D02*
X54096260Y-81197000D01*
X53663000Y-95548000D02*
X52139000Y-97072000D01*
X53663000Y-81630260D02*
X53663000Y-95548000D01*
D27*
X87056640Y-113747780D02*
X85348860Y-112040000D01*
X87056640Y-114547500D02*
X87056640Y-113747780D01*
X85348860Y-112040000D02*
X80210000Y-112040000D01*
X78940000Y-110770000D02*
X78940000Y-108230000D01*
X80210000Y-112040000D02*
X78940000Y-110770000D01*
X75003000Y-108230000D02*
X78940000Y-108230000D01*
D26*
X100663000Y-81630260D02*
X100663000Y-95548000D01*
X100663000Y-95548000D02*
X99139000Y-97072000D01*
X101846640Y-81197000D02*
X101096260Y-81197000D01*
X101096260Y-81197000D02*
X100663000Y-81630260D01*
X96853000Y-96997000D02*
X99064000Y-96997000D01*
X99064000Y-96997000D02*
X99139000Y-97072000D01*
D27*
X75003000Y-136730000D02*
X78940000Y-136730000D01*
X80210000Y-140540000D02*
X78940000Y-139270000D01*
X78940000Y-139270000D02*
X78940000Y-136730000D01*
X85348860Y-140540000D02*
X80210000Y-140540000D01*
X87056640Y-143047500D02*
X87056640Y-142247780D01*
X87056640Y-142247780D02*
X85348860Y-140540000D01*
D26*
X76396000Y-79673000D02*
X76396000Y-78022000D01*
X57581001Y-82104999D02*
X57981000Y-81705000D01*
X55695000Y-87313320D02*
X55695000Y-83991000D01*
X55695000Y-83991000D02*
X57581001Y-82104999D01*
X54044000Y-98206300D02*
X54924300Y-97326000D01*
X54044000Y-99358000D02*
X54044000Y-98206300D01*
X54924300Y-96720020D02*
X54953320Y-96691000D01*
X54924300Y-97326000D02*
X54924300Y-96720020D01*
X54658680Y-87313320D02*
X55695000Y-87313320D01*
X54425000Y-87547000D02*
X54658680Y-87313320D01*
X54425000Y-95412300D02*
X54425000Y-87547000D01*
X54953320Y-95940620D02*
X54425000Y-95412300D01*
X54953320Y-96691000D02*
X54953320Y-95940620D01*
D27*
X90694620Y-106996320D02*
X91695000Y-106996320D01*
X90116000Y-107574940D02*
X90694620Y-106996320D01*
X90116000Y-112802000D02*
X90116000Y-107574940D01*
X90041060Y-107500000D02*
X88000000Y-107500000D01*
X90116000Y-107574940D02*
X90041060Y-107500000D01*
X91931320Y-106760000D02*
X93970000Y-106760000D01*
X91695000Y-106996320D02*
X91931320Y-106760000D01*
X85000000Y-107500000D02*
X88000000Y-107500000D01*
D26*
X101953320Y-96691000D02*
X101953320Y-95940620D01*
X101953320Y-95940620D02*
X101425000Y-95412300D01*
X101425000Y-95412300D02*
X101425000Y-87547000D01*
X101425000Y-87547000D02*
X101658680Y-87313320D01*
X101658680Y-87313320D02*
X102695000Y-87313320D01*
X101924300Y-97326000D02*
X101924300Y-96720020D01*
X101924300Y-96720020D02*
X101953320Y-96691000D01*
X101044000Y-99358000D02*
X101044000Y-98206300D01*
X101044000Y-98206300D02*
X101924300Y-97326000D01*
X102695000Y-83991000D02*
X104581001Y-82104999D01*
X102695000Y-87313320D02*
X102695000Y-83991000D01*
X104581001Y-82104999D02*
X104981000Y-81705000D01*
X123396000Y-79673000D02*
X123396000Y-78022000D01*
D27*
X85000000Y-136000000D02*
X88000000Y-136000000D01*
X91695000Y-135496320D02*
X91931320Y-135260000D01*
X91931320Y-135260000D02*
X93970000Y-135260000D01*
X90116000Y-136074940D02*
X90041060Y-136000000D01*
X90041060Y-136000000D02*
X88000000Y-136000000D01*
X90116000Y-141302000D02*
X90116000Y-136074940D01*
X90116000Y-136074940D02*
X90694620Y-135496320D01*
X90694620Y-135496320D02*
X91695000Y-135496320D01*
D26*
X44011000Y-85896000D02*
X44011000Y-89218320D01*
X67011000Y-118046000D02*
X67011000Y-120718320D01*
X67011000Y-117396000D02*
X67011000Y-118046000D01*
X91011000Y-85896000D02*
X91011000Y-89218320D01*
X67011000Y-145896000D02*
X67011000Y-146546000D01*
X67011000Y-146546000D02*
X67011000Y-149218320D01*
X44011000Y-83646000D02*
X46460000Y-81197000D01*
X44011000Y-84296000D02*
X44011000Y-83646000D01*
X46460000Y-81197000D02*
X50869000Y-81197000D01*
X50869000Y-81197000D02*
X52393000Y-79673000D01*
X64966000Y-78947000D02*
X64966000Y-78022000D01*
X64240000Y-79673000D02*
X64966000Y-78947000D01*
X52393000Y-79673000D02*
X64240000Y-79673000D01*
X67637000Y-114199000D02*
X67011000Y-114825000D01*
X70685000Y-114199000D02*
X67637000Y-114199000D01*
X67011000Y-114825000D02*
X67011000Y-115796000D01*
X74676000Y-118190000D02*
X70685000Y-114199000D01*
X93970000Y-118190000D02*
X74676000Y-118190000D01*
X99393000Y-79673000D02*
X111240000Y-79673000D01*
X111240000Y-79673000D02*
X111966000Y-78947000D01*
X111966000Y-78947000D02*
X111966000Y-78022000D01*
X97869000Y-81197000D02*
X99393000Y-79673000D01*
X93460000Y-81197000D02*
X97869000Y-81197000D01*
X91011000Y-84296000D02*
X91011000Y-83646000D01*
X91011000Y-83646000D02*
X93460000Y-81197000D01*
X93970000Y-146690000D02*
X74676000Y-146690000D01*
X74676000Y-146690000D02*
X70685000Y-142699000D01*
X67011000Y-143325000D02*
X67011000Y-144296000D01*
X70685000Y-142699000D02*
X67637000Y-142699000D01*
X67637000Y-142699000D02*
X67011000Y-143325000D01*
X40455000Y-83595000D02*
X43361000Y-80689000D01*
X40455000Y-84245000D02*
X40455000Y-83595000D01*
X50740590Y-80689000D02*
X52264590Y-79165000D01*
X43361000Y-80689000D02*
X50740590Y-80689000D01*
X63696000Y-78947000D02*
X63696000Y-78022000D01*
X63478000Y-79165000D02*
X63696000Y-78947000D01*
X52264590Y-79165000D02*
X63478000Y-79165000D01*
X73520000Y-119460000D02*
X69805000Y-115745000D01*
X93970000Y-119460000D02*
X73520000Y-119460000D01*
X99264590Y-79165000D02*
X110478000Y-79165000D01*
X110478000Y-79165000D02*
X110696000Y-78947000D01*
X110696000Y-78947000D02*
X110696000Y-78022000D01*
X90361000Y-80689000D02*
X97740590Y-80689000D01*
X97740590Y-80689000D02*
X99264590Y-79165000D01*
X87455000Y-84245000D02*
X87455000Y-83595000D01*
X87455000Y-83595000D02*
X90361000Y-80689000D01*
X93970000Y-147960000D02*
X73520000Y-147960000D01*
X73520000Y-147960000D02*
X69805000Y-144245000D01*
X40455000Y-89091320D02*
X40328000Y-89218320D01*
X40455000Y-85845000D02*
X40455000Y-89091320D01*
X69805000Y-120591320D02*
X69678000Y-120718320D01*
X69805000Y-117345000D02*
X69805000Y-120591320D01*
X87455000Y-85845000D02*
X87455000Y-89091320D01*
X87455000Y-89091320D02*
X87328000Y-89218320D01*
X69805000Y-145845000D02*
X69805000Y-149091320D01*
X69805000Y-149091320D02*
X69678000Y-149218320D01*
X62680000Y-100120000D02*
X64077000Y-100120000D01*
X61156000Y-98596000D02*
X62680000Y-100120000D01*
X61156000Y-96052000D02*
X61156000Y-98596000D01*
X113840000Y-127297919D02*
X113840000Y-128500000D01*
X113840000Y-122915000D02*
X113840000Y-127297919D01*
X112925000Y-122000000D02*
X113840000Y-122915000D01*
X112000000Y-122000000D02*
X112925000Y-122000000D01*
X108156000Y-96052000D02*
X108156000Y-98596000D01*
X108156000Y-98596000D02*
X109680000Y-100120000D01*
X109680000Y-100120000D02*
X111077000Y-100120000D01*
X112000000Y-150500000D02*
X112925000Y-150500000D01*
X112925000Y-150500000D02*
X113840000Y-151415000D01*
X113840000Y-151415000D02*
X113840000Y-155797919D01*
X113840000Y-155797919D02*
X113840000Y-157000000D01*
X72586000Y-96977000D02*
X72586000Y-96052000D01*
X71983000Y-97580000D02*
X72586000Y-96977000D01*
X69157000Y-97580000D02*
X71983000Y-97580000D01*
X66617000Y-100120000D02*
X69157000Y-97580000D01*
X116380000Y-127297919D02*
X116380000Y-128500000D01*
X116380000Y-113285000D02*
X116380000Y-127297919D01*
X113665000Y-110570000D02*
X116380000Y-113285000D01*
X112000000Y-110570000D02*
X113665000Y-110570000D01*
X113617000Y-100120000D02*
X116157000Y-97580000D01*
X116157000Y-97580000D02*
X118983000Y-97580000D01*
X118983000Y-97580000D02*
X119586000Y-96977000D01*
X119586000Y-96977000D02*
X119586000Y-96052000D01*
X112000000Y-139070000D02*
X113665000Y-139070000D01*
X113665000Y-139070000D02*
X116380000Y-141785000D01*
X116380000Y-141785000D02*
X116380000Y-155797919D01*
X116380000Y-155797919D02*
X116380000Y-157000000D01*
X73856000Y-96977000D02*
X73856000Y-96052000D01*
X72618000Y-98215000D02*
X73856000Y-96977000D01*
X71062000Y-98215000D02*
X72618000Y-98215000D01*
X69157000Y-100120000D02*
X71062000Y-98215000D01*
X118920000Y-127297919D02*
X118920000Y-128500000D01*
X118920000Y-113920000D02*
X118920000Y-127297919D01*
X114300000Y-109300000D02*
X118920000Y-113920000D01*
X112000000Y-109300000D02*
X114300000Y-109300000D01*
X116157000Y-100120000D02*
X118062000Y-98215000D01*
X118062000Y-98215000D02*
X119618000Y-98215000D01*
X119618000Y-98215000D02*
X120856000Y-96977000D01*
X120856000Y-96977000D02*
X120856000Y-96052000D01*
X112000000Y-137800000D02*
X114300000Y-137800000D01*
X114300000Y-137800000D02*
X118920000Y-142420000D01*
X118920000Y-142420000D02*
X118920000Y-155797919D01*
X118920000Y-155797919D02*
X118920000Y-157000000D01*
X75126000Y-78022000D02*
X75126000Y-78947000D01*
X75126000Y-78947000D02*
X75126000Y-81197000D01*
X55695000Y-93827685D02*
X55695000Y-89516580D01*
X55695000Y-89516580D02*
X55695000Y-88817000D01*
X56780315Y-94913000D02*
X55695000Y-93827685D01*
X57346000Y-94913000D02*
X56780315Y-94913000D01*
X121460000Y-128500000D02*
X121460000Y-113793000D01*
X121460000Y-113793000D02*
X116423999Y-108756999D01*
X116423999Y-108756999D02*
X116024000Y-108357000D01*
X96530000Y-108030000D02*
X93970000Y-108030000D01*
X97000000Y-108500000D02*
X96530000Y-108030000D01*
X93045000Y-108030000D02*
X93970000Y-108030000D01*
X92094000Y-108030000D02*
X93045000Y-108030000D01*
X91695000Y-108429000D02*
X92094000Y-108030000D01*
X91695000Y-108500000D02*
X91695000Y-108429000D01*
X104346000Y-94913000D02*
X103780315Y-94913000D01*
X103780315Y-94913000D02*
X102695000Y-93827685D01*
X102695000Y-89516580D02*
X102695000Y-88817000D01*
X102695000Y-93827685D02*
X102695000Y-89516580D01*
X122126000Y-78947000D02*
X122126000Y-81197000D01*
X122126000Y-78022000D02*
X122126000Y-78947000D01*
X91695000Y-137000000D02*
X91695000Y-136929000D01*
X91695000Y-136929000D02*
X92094000Y-136530000D01*
X92094000Y-136530000D02*
X93045000Y-136530000D01*
X93045000Y-136530000D02*
X93970000Y-136530000D01*
X97000000Y-137000000D02*
X96530000Y-136530000D01*
X96530000Y-136530000D02*
X93970000Y-136530000D01*
X116423999Y-137256999D02*
X116024000Y-136857000D01*
X121460000Y-142293000D02*
X116423999Y-137256999D01*
X121460000Y-157000000D02*
X121460000Y-142293000D01*
X54806000Y-83102000D02*
X54794380Y-83102000D01*
X55060000Y-83102000D02*
X54806000Y-83102000D01*
X57854000Y-80308000D02*
X55060000Y-83102000D01*
X64875000Y-80308000D02*
X57854000Y-80308000D01*
X66236000Y-78947000D02*
X64875000Y-80308000D01*
X66236000Y-78022000D02*
X66236000Y-78947000D01*
X87524140Y-116920000D02*
X87056640Y-116452500D01*
X93970000Y-116920000D02*
X87524140Y-116920000D01*
X113236000Y-78022000D02*
X113236000Y-78947000D01*
X113236000Y-78947000D02*
X111875000Y-80308000D01*
X111875000Y-80308000D02*
X104854000Y-80308000D01*
X104854000Y-80308000D02*
X102060000Y-83102000D01*
X102060000Y-83102000D02*
X101806000Y-83102000D01*
X101806000Y-83102000D02*
X101794380Y-83102000D01*
X93970000Y-145420000D02*
X87524140Y-145420000D01*
X87524140Y-145420000D02*
X87056640Y-144952500D01*
X77666000Y-96977000D02*
X77666000Y-96052000D01*
X77666000Y-97791000D02*
X77666000Y-96977000D01*
X75337000Y-100120000D02*
X77666000Y-97791000D01*
X74237000Y-100120000D02*
X75337000Y-100120000D01*
X49853000Y-78657000D02*
X55314000Y-78657000D01*
X44061800Y-90722000D02*
X44188800Y-90849000D01*
X44011000Y-90722000D02*
X44061800Y-90722000D01*
X44188800Y-90849000D02*
X50361000Y-90849000D01*
X40328000Y-90722000D02*
X44011000Y-90722000D01*
X56674000Y-80398000D02*
X56706347Y-80430347D01*
X56330000Y-80398000D02*
X56674000Y-80398000D01*
X55510315Y-78657000D02*
X55314000Y-78657000D01*
X56140662Y-78026653D02*
X55510315Y-78657000D01*
X56706347Y-78026653D02*
X56140662Y-78026653D01*
X56140662Y-80430347D02*
X56018315Y-80308000D01*
X56706347Y-80430347D02*
X56140662Y-80430347D01*
X56018315Y-80308000D02*
X53282000Y-80308000D01*
X52733360Y-80856640D02*
X52733360Y-82149500D01*
X53282000Y-80308000D02*
X52733360Y-80856640D01*
X52733360Y-82699220D02*
X52647000Y-82785580D01*
X52733360Y-82149500D02*
X52733360Y-82699220D01*
X52647000Y-88563000D02*
X50361000Y-90849000D01*
X52647000Y-82785580D02*
X52647000Y-88563000D01*
X77666000Y-93643000D02*
X77666000Y-78022000D01*
X77666000Y-96052000D02*
X77666000Y-93643000D01*
X124666000Y-96052000D02*
X124666000Y-93643000D01*
X124666000Y-93643000D02*
X124666000Y-78022000D01*
X99647000Y-82785580D02*
X99647000Y-88563000D01*
X99647000Y-88563000D02*
X97361000Y-90849000D01*
X99733360Y-82149500D02*
X99733360Y-82699220D01*
X99733360Y-82699220D02*
X99647000Y-82785580D01*
X100282000Y-80308000D02*
X99733360Y-80856640D01*
X99733360Y-80856640D02*
X99733360Y-82149500D01*
X103018315Y-80308000D02*
X100282000Y-80308000D01*
X103706347Y-80430347D02*
X103140662Y-80430347D01*
X103140662Y-80430347D02*
X103018315Y-80308000D01*
X103706347Y-78026653D02*
X103140662Y-78026653D01*
X103140662Y-78026653D02*
X102510315Y-78657000D01*
X102510315Y-78657000D02*
X102314000Y-78657000D01*
X103330000Y-80398000D02*
X103674000Y-80398000D01*
X103674000Y-80398000D02*
X103706347Y-80430347D01*
X87328000Y-90722000D02*
X91011000Y-90722000D01*
X91188800Y-90849000D02*
X97361000Y-90849000D01*
X91011000Y-90722000D02*
X91061800Y-90722000D01*
X91061800Y-90722000D02*
X91188800Y-90849000D01*
X96853000Y-78657000D02*
X102314000Y-78657000D01*
X121237000Y-100120000D02*
X122337000Y-100120000D01*
X122337000Y-100120000D02*
X124666000Y-97791000D01*
X124666000Y-97791000D02*
X124666000Y-96977000D01*
X124666000Y-96977000D02*
X124666000Y-96052000D01*
D28*
G36*
X124344046Y-76271705D02*
X124497954Y-76502046D01*
X124728295Y-76655954D01*
X125000000Y-76710000D01*
X125482470Y-76710000D01*
X125508321Y-76735851D01*
X125827346Y-76867995D01*
X126037373Y-76909772D01*
X126069058Y-76930943D01*
X126090228Y-76962627D01*
X126132005Y-77172654D01*
X126264149Y-77491679D01*
X126290000Y-77517530D01*
X126290000Y-100930070D01*
X126255074Y-101105655D01*
X126195225Y-101195226D01*
X126105655Y-101255074D01*
X125861487Y-101303642D01*
X125605546Y-101409657D01*
X125409657Y-101605544D01*
X125339236Y-101775556D01*
X83867994Y-101892706D01*
X83867994Y-101827344D01*
X83735851Y-101508319D01*
X83491679Y-101264149D01*
X83172654Y-101132005D01*
X82962627Y-101090228D01*
X82930943Y-101069058D01*
X82909772Y-101037373D01*
X82885000Y-100912836D01*
X82885000Y-91007750D01*
X86192620Y-91007750D01*
X86192620Y-91297889D01*
X86289293Y-91531278D01*
X86467921Y-91709907D01*
X86701310Y-91806580D01*
X87042250Y-91806580D01*
X87201000Y-91647830D01*
X87201000Y-90849000D01*
X87455000Y-90849000D01*
X87455000Y-91647830D01*
X87613750Y-91806580D01*
X87954690Y-91806580D01*
X88188079Y-91709907D01*
X88366707Y-91531278D01*
X88463380Y-91297889D01*
X88463380Y-91007750D01*
X89875620Y-91007750D01*
X89875620Y-91297889D01*
X89972293Y-91531278D01*
X90150921Y-91709907D01*
X90384310Y-91806580D01*
X90725250Y-91806580D01*
X90884000Y-91647830D01*
X90884000Y-90849000D01*
X91138000Y-90849000D01*
X91138000Y-91647830D01*
X91296750Y-91806580D01*
X91637690Y-91806580D01*
X91871079Y-91709907D01*
X92049707Y-91531278D01*
X92146380Y-91297889D01*
X92146380Y-91007750D01*
X91987630Y-90849000D01*
X91138000Y-90849000D01*
X90884000Y-90849000D01*
X90034370Y-90849000D01*
X89875620Y-91007750D01*
X88463380Y-91007750D01*
X88304630Y-90849000D01*
X87455000Y-90849000D01*
X87201000Y-90849000D01*
X86351370Y-90849000D01*
X86192620Y-91007750D01*
X82885000Y-91007750D01*
X82885000Y-88768740D01*
X86180180Y-88768740D01*
X86180180Y-89667900D01*
X86229463Y-89915665D01*
X86265645Y-89969814D01*
X86192620Y-90146111D01*
X86192620Y-90436250D01*
X86351370Y-90595000D01*
X87201000Y-90595000D01*
X87201000Y-90575000D01*
X87455000Y-90575000D01*
X87455000Y-90595000D01*
X88304630Y-90595000D01*
X88463380Y-90436250D01*
X88463380Y-90146111D01*
X88390355Y-89969814D01*
X88426537Y-89915665D01*
X88475820Y-89667900D01*
X88475820Y-88768740D01*
X88426537Y-88520975D01*
X88286189Y-88310931D01*
X88215000Y-88263364D01*
X88215000Y-86768163D01*
X88312809Y-86702809D01*
X88453157Y-86492765D01*
X88502440Y-86245000D01*
X88502440Y-85445000D01*
X88453157Y-85197235D01*
X88351436Y-85045000D01*
X88453157Y-84892765D01*
X88502440Y-84645000D01*
X88502440Y-83845000D01*
X88465502Y-83659300D01*
X90675802Y-81449000D01*
X92133198Y-81449000D01*
X90473599Y-83108599D01*
X90334177Y-83317259D01*
X90153191Y-83438191D01*
X90012843Y-83648235D01*
X89963560Y-83896000D01*
X89963560Y-84696000D01*
X90012843Y-84943765D01*
X90114564Y-85096000D01*
X90012843Y-85248235D01*
X89963560Y-85496000D01*
X89963560Y-86296000D01*
X90012843Y-86543765D01*
X90153191Y-86753809D01*
X90251000Y-86819163D01*
X90251000Y-88178504D01*
X90052811Y-88310931D01*
X89912463Y-88520975D01*
X89863180Y-88768740D01*
X89863180Y-89667900D01*
X89912463Y-89915665D01*
X89948645Y-89969814D01*
X89875620Y-90146111D01*
X89875620Y-90436250D01*
X90034370Y-90595000D01*
X90884000Y-90595000D01*
X90884000Y-90575000D01*
X91138000Y-90575000D01*
X91138000Y-90595000D01*
X91987630Y-90595000D01*
X92146380Y-90436250D01*
X92146380Y-90146111D01*
X92073355Y-89969814D01*
X92109537Y-89915665D01*
X92158820Y-89667900D01*
X92158820Y-88768740D01*
X92109537Y-88520975D01*
X91969189Y-88310931D01*
X91771000Y-88178504D01*
X91771000Y-86819163D01*
X91868809Y-86753809D01*
X92009157Y-86543765D01*
X92058440Y-86296000D01*
X92058440Y-85496000D01*
X92009157Y-85248235D01*
X91907436Y-85096000D01*
X92009157Y-84943765D01*
X92058440Y-84696000D01*
X92058440Y-83896000D01*
X92021502Y-83710300D01*
X93296552Y-82435250D01*
X98597980Y-82435250D01*
X98597980Y-82575529D01*
X98694653Y-82808918D01*
X98873281Y-82987547D01*
X99106670Y-83084220D01*
X99447610Y-83084220D01*
X99606360Y-82925470D01*
X99606360Y-82276500D01*
X98756730Y-82276500D01*
X98597980Y-82435250D01*
X93296552Y-82435250D01*
X93774802Y-81957000D01*
X97869000Y-81957000D01*
X98159839Y-81899148D01*
X98406401Y-81734401D01*
X98417331Y-81723471D01*
X98597980Y-81723471D01*
X98597980Y-81863750D01*
X98756730Y-82022500D01*
X99606360Y-82022500D01*
X99606360Y-81373530D01*
X99447610Y-81214780D01*
X99106670Y-81214780D01*
X98873281Y-81311453D01*
X98694653Y-81490082D01*
X98597980Y-81723471D01*
X98417331Y-81723471D01*
X99707802Y-80433000D01*
X100898135Y-80433000D01*
X100888451Y-80439471D01*
X100858501Y-80484293D01*
X100805420Y-80494852D01*
X100558859Y-80659599D01*
X100125599Y-81092859D01*
X100044134Y-81214780D01*
X100019110Y-81214780D01*
X99860360Y-81373530D01*
X99860360Y-82022500D01*
X99880360Y-82022500D01*
X99880360Y-82276500D01*
X99860360Y-82276500D01*
X99860360Y-82925470D01*
X99903000Y-82968110D01*
X99903000Y-95233198D01*
X99099233Y-96036965D01*
X98934029Y-96036821D01*
X98553485Y-96194058D01*
X98510468Y-96237000D01*
X98150440Y-96237000D01*
X98150440Y-95827000D01*
X98101157Y-95579235D01*
X97960809Y-95369191D01*
X97750765Y-95228843D01*
X97503000Y-95179560D01*
X96203000Y-95179560D01*
X95955235Y-95228843D01*
X95745191Y-95369191D01*
X95604843Y-95579235D01*
X95555560Y-95827000D01*
X95555560Y-98167000D01*
X95604843Y-98414765D01*
X95745191Y-98624809D01*
X95955235Y-98765157D01*
X96203000Y-98814440D01*
X97503000Y-98814440D01*
X97750765Y-98765157D01*
X97960809Y-98624809D01*
X98101157Y-98414765D01*
X98150440Y-98167000D01*
X98150440Y-97757000D01*
X98360370Y-97757000D01*
X98551954Y-97948919D01*
X98932223Y-98106820D01*
X99343971Y-98107179D01*
X99724515Y-97949942D01*
X100015919Y-97659046D01*
X100173820Y-97278777D01*
X100173966Y-97111836D01*
X100856300Y-96429502D01*
X100856300Y-97191380D01*
X100877506Y-97297992D01*
X100506599Y-97668899D01*
X100413080Y-97808860D01*
X100243900Y-97808860D01*
X99996135Y-97858143D01*
X99786091Y-97998491D01*
X99645743Y-98208535D01*
X99596460Y-98456300D01*
X99596460Y-100259700D01*
X99645743Y-100507465D01*
X99786091Y-100717509D01*
X99996135Y-100857857D01*
X100243900Y-100907140D01*
X101844100Y-100907140D01*
X102091865Y-100857857D01*
X102301909Y-100717509D01*
X102442257Y-100507465D01*
X102445810Y-100489603D01*
X102499573Y-100619399D01*
X102678202Y-100798027D01*
X102911591Y-100894700D01*
X103552250Y-100894700D01*
X103711000Y-100735950D01*
X103711000Y-99485000D01*
X103965000Y-99485000D01*
X103965000Y-100735950D01*
X104123750Y-100894700D01*
X104764409Y-100894700D01*
X104997798Y-100798027D01*
X105176427Y-100619399D01*
X105273100Y-100386010D01*
X105273100Y-99643750D01*
X105114350Y-99485000D01*
X103965000Y-99485000D01*
X103711000Y-99485000D01*
X103691000Y-99485000D01*
X103691000Y-99231000D01*
X103711000Y-99231000D01*
X103711000Y-99211000D01*
X103965000Y-99211000D01*
X103965000Y-99231000D01*
X105114350Y-99231000D01*
X105273100Y-99072250D01*
X105273100Y-98329990D01*
X105176427Y-98096601D01*
X104997798Y-97917973D01*
X104764409Y-97821300D01*
X104123750Y-97821300D01*
X103965002Y-97980048D01*
X103965002Y-97826380D01*
X104032889Y-97826380D01*
X104266278Y-97729707D01*
X104444907Y-97551079D01*
X104541580Y-97317690D01*
X104541580Y-96976750D01*
X104382830Y-96818000D01*
X103584000Y-96818000D01*
X103584000Y-96838000D01*
X103330000Y-96838000D01*
X103330000Y-96818000D01*
X103310000Y-96818000D01*
X103310000Y-96564000D01*
X103330000Y-96564000D01*
X103330000Y-96544000D01*
X103584000Y-96544000D01*
X103584000Y-96564000D01*
X104382830Y-96564000D01*
X104541580Y-96405250D01*
X104541580Y-96064310D01*
X104493456Y-95948129D01*
X104550971Y-95948179D01*
X104931515Y-95790942D01*
X105222919Y-95500046D01*
X105274012Y-95377000D01*
X107058560Y-95377000D01*
X107058560Y-96727000D01*
X107107843Y-96974765D01*
X107248191Y-97184809D01*
X107396000Y-97283573D01*
X107396000Y-98596000D01*
X107453852Y-98886839D01*
X107618599Y-99133401D01*
X109142599Y-100657401D01*
X109389160Y-100822148D01*
X109437414Y-100831746D01*
X109680000Y-100880000D01*
X109813699Y-100880000D01*
X110026946Y-101199147D01*
X110508715Y-101521054D01*
X111077000Y-101634093D01*
X111645285Y-101521054D01*
X112127054Y-101199147D01*
X112347000Y-100869974D01*
X112566946Y-101199147D01*
X113048715Y-101521054D01*
X113617000Y-101634093D01*
X114185285Y-101521054D01*
X114667054Y-101199147D01*
X114887000Y-100869974D01*
X115106946Y-101199147D01*
X115588715Y-101521054D01*
X116157000Y-101634093D01*
X116725285Y-101521054D01*
X117207054Y-101199147D01*
X117427000Y-100869974D01*
X117646946Y-101199147D01*
X118128715Y-101521054D01*
X118697000Y-101634093D01*
X119265285Y-101521054D01*
X119747054Y-101199147D01*
X119776403Y-101155223D01*
X119848673Y-101329698D01*
X120027301Y-101508327D01*
X120260690Y-101605000D01*
X120951250Y-101605000D01*
X121110000Y-101446250D01*
X121110000Y-100247000D01*
X121364000Y-100247000D01*
X121364000Y-101446250D01*
X121522750Y-101605000D01*
X122213310Y-101605000D01*
X122446699Y-101508327D01*
X122625327Y-101329698D01*
X122722000Y-101096309D01*
X122722000Y-100405750D01*
X122563250Y-100247000D01*
X121364000Y-100247000D01*
X121110000Y-100247000D01*
X121090000Y-100247000D01*
X121090000Y-99993000D01*
X121110000Y-99993000D01*
X121110000Y-98793750D01*
X121364000Y-98793750D01*
X121364000Y-99993000D01*
X122563250Y-99993000D01*
X122722000Y-99834250D01*
X122722000Y-99143691D01*
X122625327Y-98910302D01*
X122446699Y-98731673D01*
X122213310Y-98635000D01*
X121522750Y-98635000D01*
X121364000Y-98793750D01*
X121110000Y-98793750D01*
X120951250Y-98635000D01*
X120272802Y-98635000D01*
X121393401Y-97514401D01*
X121509102Y-97341242D01*
X121676000Y-97374440D01*
X122576000Y-97374440D01*
X122761000Y-97337642D01*
X122946000Y-97374440D01*
X123846000Y-97374440D01*
X124030921Y-97337657D01*
X124089690Y-97362000D01*
X124380250Y-97362000D01*
X124539000Y-97203250D01*
X124539000Y-96179000D01*
X124793000Y-96179000D01*
X124793000Y-97203250D01*
X124951750Y-97362000D01*
X125242310Y-97362000D01*
X125475699Y-97265327D01*
X125654327Y-97086698D01*
X125751000Y-96853309D01*
X125751000Y-96337750D01*
X125592250Y-96179000D01*
X124793000Y-96179000D01*
X124539000Y-96179000D01*
X124519000Y-96179000D01*
X124519000Y-95925000D01*
X124539000Y-95925000D01*
X124539000Y-94900750D01*
X124793000Y-94900750D01*
X124793000Y-95925000D01*
X125592250Y-95925000D01*
X125751000Y-95766250D01*
X125751000Y-95250691D01*
X125654327Y-95017302D01*
X125475699Y-94838673D01*
X125242310Y-94742000D01*
X124951750Y-94742000D01*
X124793000Y-94900750D01*
X124539000Y-94900750D01*
X124380250Y-94742000D01*
X124089690Y-94742000D01*
X124030921Y-94766343D01*
X123846000Y-94729560D01*
X122946000Y-94729560D01*
X122761000Y-94766358D01*
X122576000Y-94729560D01*
X121676000Y-94729560D01*
X121491000Y-94766358D01*
X121306000Y-94729560D01*
X120406000Y-94729560D01*
X120221000Y-94766358D01*
X120036000Y-94729560D01*
X119136000Y-94729560D01*
X118951000Y-94766358D01*
X118766000Y-94729560D01*
X117866000Y-94729560D01*
X117681000Y-94766358D01*
X117496000Y-94729560D01*
X116596000Y-94729560D01*
X116411000Y-94766358D01*
X116226000Y-94729560D01*
X115326000Y-94729560D01*
X115141000Y-94766358D01*
X114956000Y-94729560D01*
X114056000Y-94729560D01*
X113871000Y-94766358D01*
X113686000Y-94729560D01*
X112786000Y-94729560D01*
X112601000Y-94766358D01*
X112416000Y-94729560D01*
X111516000Y-94729560D01*
X111331000Y-94766358D01*
X111146000Y-94729560D01*
X110246000Y-94729560D01*
X110061000Y-94766358D01*
X109876000Y-94729560D01*
X108976000Y-94729560D01*
X108791000Y-94766358D01*
X108606000Y-94729560D01*
X107706000Y-94729560D01*
X107458235Y-94778843D01*
X107248191Y-94919191D01*
X107107843Y-95129235D01*
X107058560Y-95377000D01*
X105274012Y-95377000D01*
X105380820Y-95119777D01*
X105381179Y-94708029D01*
X105223942Y-94327485D01*
X104933046Y-94036081D01*
X104552777Y-93878180D01*
X104141029Y-93877821D01*
X103913819Y-93971702D01*
X103455000Y-93512883D01*
X103455000Y-89856816D01*
X103653189Y-89724389D01*
X103793537Y-89514345D01*
X103842820Y-89266580D01*
X103842820Y-88367420D01*
X103793537Y-88119655D01*
X103757124Y-88065160D01*
X103793537Y-88010665D01*
X103842820Y-87762900D01*
X103842820Y-86863740D01*
X103793537Y-86615975D01*
X103653189Y-86405931D01*
X103455000Y-86273504D01*
X103455000Y-84305802D01*
X105020767Y-82740035D01*
X105185971Y-82740179D01*
X105333560Y-82679197D01*
X105333560Y-83042000D01*
X105370358Y-83227000D01*
X105333560Y-83412000D01*
X105333560Y-84312000D01*
X105370358Y-84497000D01*
X105333560Y-84682000D01*
X105333560Y-85582000D01*
X105370358Y-85767000D01*
X105333560Y-85952000D01*
X105333560Y-86852000D01*
X105370358Y-87037000D01*
X105333560Y-87222000D01*
X105333560Y-88122000D01*
X105370358Y-88307000D01*
X105333560Y-88492000D01*
X105333560Y-89392000D01*
X105370358Y-89577000D01*
X105333560Y-89762000D01*
X105333560Y-90662000D01*
X105370358Y-90847000D01*
X105333560Y-91032000D01*
X105333560Y-91932000D01*
X105370358Y-92117000D01*
X105333560Y-92302000D01*
X105333560Y-93202000D01*
X105382843Y-93449765D01*
X105523191Y-93659809D01*
X105733235Y-93800157D01*
X105981000Y-93849440D01*
X107331000Y-93849440D01*
X107578765Y-93800157D01*
X107788809Y-93659809D01*
X107929157Y-93449765D01*
X107978440Y-93202000D01*
X107978440Y-92302000D01*
X107941642Y-92117000D01*
X107978440Y-91932000D01*
X107978440Y-91032000D01*
X107941642Y-90847000D01*
X107978440Y-90662000D01*
X107978440Y-89762000D01*
X107941642Y-89577000D01*
X107978440Y-89392000D01*
X107978440Y-88492000D01*
X107941642Y-88307000D01*
X107978440Y-88122000D01*
X107978440Y-87222000D01*
X107941642Y-87037000D01*
X107978440Y-86852000D01*
X107978440Y-85952000D01*
X107941642Y-85767000D01*
X107978440Y-85582000D01*
X107978440Y-84682000D01*
X107941642Y-84497000D01*
X107976450Y-84322000D01*
X113308560Y-84322000D01*
X113308560Y-90322000D01*
X113357843Y-90569765D01*
X113498191Y-90779809D01*
X113708235Y-90920157D01*
X113956000Y-90969440D01*
X119956000Y-90969440D01*
X120203765Y-90920157D01*
X120413809Y-90779809D01*
X120554157Y-90569765D01*
X120603440Y-90322000D01*
X120603440Y-84322000D01*
X120554157Y-84074235D01*
X120413809Y-83864191D01*
X120203765Y-83723843D01*
X119956000Y-83674560D01*
X113956000Y-83674560D01*
X113708235Y-83723843D01*
X113498191Y-83864191D01*
X113357843Y-84074235D01*
X113308560Y-84322000D01*
X107976450Y-84322000D01*
X107978440Y-84312000D01*
X107978440Y-83412000D01*
X107941642Y-83227000D01*
X107978440Y-83042000D01*
X107978440Y-82142000D01*
X107941642Y-81957000D01*
X107978440Y-81772000D01*
X107978440Y-81068000D01*
X111875000Y-81068000D01*
X112165839Y-81010148D01*
X112412401Y-80845401D01*
X113773401Y-79484401D01*
X113889102Y-79311242D01*
X114056000Y-79344440D01*
X114956000Y-79344440D01*
X115141000Y-79307642D01*
X115326000Y-79344440D01*
X116226000Y-79344440D01*
X116411000Y-79307642D01*
X116596000Y-79344440D01*
X117496000Y-79344440D01*
X117681000Y-79307642D01*
X117866000Y-79344440D01*
X118766000Y-79344440D01*
X118951000Y-79307642D01*
X119136000Y-79344440D01*
X120036000Y-79344440D01*
X120221000Y-79307642D01*
X120406000Y-79344440D01*
X121306000Y-79344440D01*
X121366000Y-79332505D01*
X121366000Y-80493239D01*
X121249081Y-80609954D01*
X121091180Y-80990223D01*
X121090821Y-81401971D01*
X121248058Y-81782515D01*
X121538954Y-82073919D01*
X121919223Y-82231820D01*
X122330971Y-82232179D01*
X122711515Y-82074942D01*
X123002919Y-81784046D01*
X123160820Y-81403777D01*
X123161179Y-80992029D01*
X123013618Y-80634903D01*
X123189223Y-80707820D01*
X123600971Y-80708179D01*
X123981515Y-80550942D01*
X124272919Y-80260046D01*
X124430820Y-79879777D01*
X124431179Y-79468029D01*
X124374973Y-79332000D01*
X124380250Y-79332000D01*
X124539000Y-79173250D01*
X124539000Y-78149000D01*
X124793000Y-78149000D01*
X124793000Y-79173250D01*
X124951750Y-79332000D01*
X125242310Y-79332000D01*
X125475699Y-79235327D01*
X125654327Y-79056698D01*
X125751000Y-78823309D01*
X125751000Y-78307750D01*
X125592250Y-78149000D01*
X124793000Y-78149000D01*
X124539000Y-78149000D01*
X124519000Y-78149000D01*
X124519000Y-77895000D01*
X124539000Y-77895000D01*
X124539000Y-76870750D01*
X124793000Y-76870750D01*
X124793000Y-77895000D01*
X125592250Y-77895000D01*
X125751000Y-77736250D01*
X125751000Y-77220691D01*
X125654327Y-76987302D01*
X125475699Y-76808673D01*
X125242310Y-76712000D01*
X124951750Y-76712000D01*
X124793000Y-76870750D01*
X124539000Y-76870750D01*
X124380250Y-76712000D01*
X124089690Y-76712000D01*
X124030921Y-76736343D01*
X123846000Y-76699560D01*
X122946000Y-76699560D01*
X122761000Y-76736358D01*
X122576000Y-76699560D01*
X121676000Y-76699560D01*
X121491000Y-76736358D01*
X121306000Y-76699560D01*
X120406000Y-76699560D01*
X120221000Y-76736358D01*
X120036000Y-76699560D01*
X119136000Y-76699560D01*
X118951000Y-76736358D01*
X118766000Y-76699560D01*
X117866000Y-76699560D01*
X117681000Y-76736358D01*
X117496000Y-76699560D01*
X116596000Y-76699560D01*
X116411000Y-76736358D01*
X116226000Y-76699560D01*
X115326000Y-76699560D01*
X115141000Y-76736358D01*
X114956000Y-76699560D01*
X114056000Y-76699560D01*
X113871000Y-76736358D01*
X113686000Y-76699560D01*
X112786000Y-76699560D01*
X112601000Y-76736358D01*
X112416000Y-76699560D01*
X111516000Y-76699560D01*
X111331000Y-76736358D01*
X111146000Y-76699560D01*
X110246000Y-76699560D01*
X110061000Y-76736358D01*
X109876000Y-76699560D01*
X108976000Y-76699560D01*
X108791000Y-76736358D01*
X108606000Y-76699560D01*
X107706000Y-76699560D01*
X107458235Y-76748843D01*
X107248191Y-76889191D01*
X107107843Y-77099235D01*
X107058560Y-77347000D01*
X107058560Y-78405000D01*
X99264590Y-78405000D01*
X99022004Y-78453254D01*
X98973750Y-78462852D01*
X98727189Y-78627599D01*
X98138000Y-79216788D01*
X98138000Y-78942750D01*
X97979250Y-78784000D01*
X96980000Y-78784000D01*
X96980000Y-78804000D01*
X96726000Y-78804000D01*
X96726000Y-78784000D01*
X95726750Y-78784000D01*
X95568000Y-78942750D01*
X95568000Y-79929000D01*
X90361000Y-79929000D01*
X90070161Y-79986852D01*
X89823599Y-80151599D01*
X86917599Y-83057599D01*
X86778177Y-83266259D01*
X86597191Y-83387191D01*
X86456843Y-83597235D01*
X86407560Y-83845000D01*
X86407560Y-84645000D01*
X86456843Y-84892765D01*
X86558564Y-85045000D01*
X86456843Y-85197235D01*
X86407560Y-85445000D01*
X86407560Y-86245000D01*
X86456843Y-86492765D01*
X86597191Y-86702809D01*
X86695000Y-86768163D01*
X86695000Y-88147679D01*
X86579855Y-88170583D01*
X86369811Y-88310931D01*
X86229463Y-88520975D01*
X86180180Y-88768740D01*
X82885000Y-88768740D01*
X82885000Y-77360691D01*
X95568000Y-77360691D01*
X95568000Y-78371250D01*
X95726750Y-78530000D01*
X96726000Y-78530000D01*
X96726000Y-77010750D01*
X96980000Y-77010750D01*
X96980000Y-78530000D01*
X97979250Y-78530000D01*
X98138000Y-78371250D01*
X98138000Y-77360691D01*
X98041327Y-77127302D01*
X97862699Y-76948673D01*
X97629310Y-76852000D01*
X97138750Y-76852000D01*
X96980000Y-77010750D01*
X96726000Y-77010750D01*
X96567250Y-76852000D01*
X96076690Y-76852000D01*
X95843301Y-76948673D01*
X95664673Y-77127302D01*
X95568000Y-77360691D01*
X82885000Y-77360691D01*
X82885000Y-77087164D01*
X82909772Y-76962627D01*
X82930943Y-76930942D01*
X82962627Y-76909772D01*
X83172654Y-76867995D01*
X83491679Y-76735851D01*
X83735851Y-76491681D01*
X83867994Y-76172656D01*
X83867994Y-76117000D01*
X124313273Y-76117000D01*
X124344046Y-76271705D01*
X124344046Y-76271705D01*
G37*
X124344046Y-76271705D02*
X124497954Y-76502046D01*
X124728295Y-76655954D01*
X125000000Y-76710000D01*
X125482470Y-76710000D01*
X125508321Y-76735851D01*
X125827346Y-76867995D01*
X126037373Y-76909772D01*
X126069058Y-76930943D01*
X126090228Y-76962627D01*
X126132005Y-77172654D01*
X126264149Y-77491679D01*
X126290000Y-77517530D01*
X126290000Y-100930070D01*
X126255074Y-101105655D01*
X126195225Y-101195226D01*
X126105655Y-101255074D01*
X125861487Y-101303642D01*
X125605546Y-101409657D01*
X125409657Y-101605544D01*
X125339236Y-101775556D01*
X83867994Y-101892706D01*
X83867994Y-101827344D01*
X83735851Y-101508319D01*
X83491679Y-101264149D01*
X83172654Y-101132005D01*
X82962627Y-101090228D01*
X82930943Y-101069058D01*
X82909772Y-101037373D01*
X82885000Y-100912836D01*
X82885000Y-91007750D01*
X86192620Y-91007750D01*
X86192620Y-91297889D01*
X86289293Y-91531278D01*
X86467921Y-91709907D01*
X86701310Y-91806580D01*
X87042250Y-91806580D01*
X87201000Y-91647830D01*
X87201000Y-90849000D01*
X87455000Y-90849000D01*
X87455000Y-91647830D01*
X87613750Y-91806580D01*
X87954690Y-91806580D01*
X88188079Y-91709907D01*
X88366707Y-91531278D01*
X88463380Y-91297889D01*
X88463380Y-91007750D01*
X89875620Y-91007750D01*
X89875620Y-91297889D01*
X89972293Y-91531278D01*
X90150921Y-91709907D01*
X90384310Y-91806580D01*
X90725250Y-91806580D01*
X90884000Y-91647830D01*
X90884000Y-90849000D01*
X91138000Y-90849000D01*
X91138000Y-91647830D01*
X91296750Y-91806580D01*
X91637690Y-91806580D01*
X91871079Y-91709907D01*
X92049707Y-91531278D01*
X92146380Y-91297889D01*
X92146380Y-91007750D01*
X91987630Y-90849000D01*
X91138000Y-90849000D01*
X90884000Y-90849000D01*
X90034370Y-90849000D01*
X89875620Y-91007750D01*
X88463380Y-91007750D01*
X88304630Y-90849000D01*
X87455000Y-90849000D01*
X87201000Y-90849000D01*
X86351370Y-90849000D01*
X86192620Y-91007750D01*
X82885000Y-91007750D01*
X82885000Y-88768740D01*
X86180180Y-88768740D01*
X86180180Y-89667900D01*
X86229463Y-89915665D01*
X86265645Y-89969814D01*
X86192620Y-90146111D01*
X86192620Y-90436250D01*
X86351370Y-90595000D01*
X87201000Y-90595000D01*
X87201000Y-90575000D01*
X87455000Y-90575000D01*
X87455000Y-90595000D01*
X88304630Y-90595000D01*
X88463380Y-90436250D01*
X88463380Y-90146111D01*
X88390355Y-89969814D01*
X88426537Y-89915665D01*
X88475820Y-89667900D01*
X88475820Y-88768740D01*
X88426537Y-88520975D01*
X88286189Y-88310931D01*
X88215000Y-88263364D01*
X88215000Y-86768163D01*
X88312809Y-86702809D01*
X88453157Y-86492765D01*
X88502440Y-86245000D01*
X88502440Y-85445000D01*
X88453157Y-85197235D01*
X88351436Y-85045000D01*
X88453157Y-84892765D01*
X88502440Y-84645000D01*
X88502440Y-83845000D01*
X88465502Y-83659300D01*
X90675802Y-81449000D01*
X92133198Y-81449000D01*
X90473599Y-83108599D01*
X90334177Y-83317259D01*
X90153191Y-83438191D01*
X90012843Y-83648235D01*
X89963560Y-83896000D01*
X89963560Y-84696000D01*
X90012843Y-84943765D01*
X90114564Y-85096000D01*
X90012843Y-85248235D01*
X89963560Y-85496000D01*
X89963560Y-86296000D01*
X90012843Y-86543765D01*
X90153191Y-86753809D01*
X90251000Y-86819163D01*
X90251000Y-88178504D01*
X90052811Y-88310931D01*
X89912463Y-88520975D01*
X89863180Y-88768740D01*
X89863180Y-89667900D01*
X89912463Y-89915665D01*
X89948645Y-89969814D01*
X89875620Y-90146111D01*
X89875620Y-90436250D01*
X90034370Y-90595000D01*
X90884000Y-90595000D01*
X90884000Y-90575000D01*
X91138000Y-90575000D01*
X91138000Y-90595000D01*
X91987630Y-90595000D01*
X92146380Y-90436250D01*
X92146380Y-90146111D01*
X92073355Y-89969814D01*
X92109537Y-89915665D01*
X92158820Y-89667900D01*
X92158820Y-88768740D01*
X92109537Y-88520975D01*
X91969189Y-88310931D01*
X91771000Y-88178504D01*
X91771000Y-86819163D01*
X91868809Y-86753809D01*
X92009157Y-86543765D01*
X92058440Y-86296000D01*
X92058440Y-85496000D01*
X92009157Y-85248235D01*
X91907436Y-85096000D01*
X92009157Y-84943765D01*
X92058440Y-84696000D01*
X92058440Y-83896000D01*
X92021502Y-83710300D01*
X93296552Y-82435250D01*
X98597980Y-82435250D01*
X98597980Y-82575529D01*
X98694653Y-82808918D01*
X98873281Y-82987547D01*
X99106670Y-83084220D01*
X99447610Y-83084220D01*
X99606360Y-82925470D01*
X99606360Y-82276500D01*
X98756730Y-82276500D01*
X98597980Y-82435250D01*
X93296552Y-82435250D01*
X93774802Y-81957000D01*
X97869000Y-81957000D01*
X98159839Y-81899148D01*
X98406401Y-81734401D01*
X98417331Y-81723471D01*
X98597980Y-81723471D01*
X98597980Y-81863750D01*
X98756730Y-82022500D01*
X99606360Y-82022500D01*
X99606360Y-81373530D01*
X99447610Y-81214780D01*
X99106670Y-81214780D01*
X98873281Y-81311453D01*
X98694653Y-81490082D01*
X98597980Y-81723471D01*
X98417331Y-81723471D01*
X99707802Y-80433000D01*
X100898135Y-80433000D01*
X100888451Y-80439471D01*
X100858501Y-80484293D01*
X100805420Y-80494852D01*
X100558859Y-80659599D01*
X100125599Y-81092859D01*
X100044134Y-81214780D01*
X100019110Y-81214780D01*
X99860360Y-81373530D01*
X99860360Y-82022500D01*
X99880360Y-82022500D01*
X99880360Y-82276500D01*
X99860360Y-82276500D01*
X99860360Y-82925470D01*
X99903000Y-82968110D01*
X99903000Y-95233198D01*
X99099233Y-96036965D01*
X98934029Y-96036821D01*
X98553485Y-96194058D01*
X98510468Y-96237000D01*
X98150440Y-96237000D01*
X98150440Y-95827000D01*
X98101157Y-95579235D01*
X97960809Y-95369191D01*
X97750765Y-95228843D01*
X97503000Y-95179560D01*
X96203000Y-95179560D01*
X95955235Y-95228843D01*
X95745191Y-95369191D01*
X95604843Y-95579235D01*
X95555560Y-95827000D01*
X95555560Y-98167000D01*
X95604843Y-98414765D01*
X95745191Y-98624809D01*
X95955235Y-98765157D01*
X96203000Y-98814440D01*
X97503000Y-98814440D01*
X97750765Y-98765157D01*
X97960809Y-98624809D01*
X98101157Y-98414765D01*
X98150440Y-98167000D01*
X98150440Y-97757000D01*
X98360370Y-97757000D01*
X98551954Y-97948919D01*
X98932223Y-98106820D01*
X99343971Y-98107179D01*
X99724515Y-97949942D01*
X100015919Y-97659046D01*
X100173820Y-97278777D01*
X100173966Y-97111836D01*
X100856300Y-96429502D01*
X100856300Y-97191380D01*
X100877506Y-97297992D01*
X100506599Y-97668899D01*
X100413080Y-97808860D01*
X100243900Y-97808860D01*
X99996135Y-97858143D01*
X99786091Y-97998491D01*
X99645743Y-98208535D01*
X99596460Y-98456300D01*
X99596460Y-100259700D01*
X99645743Y-100507465D01*
X99786091Y-100717509D01*
X99996135Y-100857857D01*
X100243900Y-100907140D01*
X101844100Y-100907140D01*
X102091865Y-100857857D01*
X102301909Y-100717509D01*
X102442257Y-100507465D01*
X102445810Y-100489603D01*
X102499573Y-100619399D01*
X102678202Y-100798027D01*
X102911591Y-100894700D01*
X103552250Y-100894700D01*
X103711000Y-100735950D01*
X103711000Y-99485000D01*
X103965000Y-99485000D01*
X103965000Y-100735950D01*
X104123750Y-100894700D01*
X104764409Y-100894700D01*
X104997798Y-100798027D01*
X105176427Y-100619399D01*
X105273100Y-100386010D01*
X105273100Y-99643750D01*
X105114350Y-99485000D01*
X103965000Y-99485000D01*
X103711000Y-99485000D01*
X103691000Y-99485000D01*
X103691000Y-99231000D01*
X103711000Y-99231000D01*
X103711000Y-99211000D01*
X103965000Y-99211000D01*
X103965000Y-99231000D01*
X105114350Y-99231000D01*
X105273100Y-99072250D01*
X105273100Y-98329990D01*
X105176427Y-98096601D01*
X104997798Y-97917973D01*
X104764409Y-97821300D01*
X104123750Y-97821300D01*
X103965002Y-97980048D01*
X103965002Y-97826380D01*
X104032889Y-97826380D01*
X104266278Y-97729707D01*
X104444907Y-97551079D01*
X104541580Y-97317690D01*
X104541580Y-96976750D01*
X104382830Y-96818000D01*
X103584000Y-96818000D01*
X103584000Y-96838000D01*
X103330000Y-96838000D01*
X103330000Y-96818000D01*
X103310000Y-96818000D01*
X103310000Y-96564000D01*
X103330000Y-96564000D01*
X103330000Y-96544000D01*
X103584000Y-96544000D01*
X103584000Y-96564000D01*
X104382830Y-96564000D01*
X104541580Y-96405250D01*
X104541580Y-96064310D01*
X104493456Y-95948129D01*
X104550971Y-95948179D01*
X104931515Y-95790942D01*
X105222919Y-95500046D01*
X105274012Y-95377000D01*
X107058560Y-95377000D01*
X107058560Y-96727000D01*
X107107843Y-96974765D01*
X107248191Y-97184809D01*
X107396000Y-97283573D01*
X107396000Y-98596000D01*
X107453852Y-98886839D01*
X107618599Y-99133401D01*
X109142599Y-100657401D01*
X109389160Y-100822148D01*
X109437414Y-100831746D01*
X109680000Y-100880000D01*
X109813699Y-100880000D01*
X110026946Y-101199147D01*
X110508715Y-101521054D01*
X111077000Y-101634093D01*
X111645285Y-101521054D01*
X112127054Y-101199147D01*
X112347000Y-100869974D01*
X112566946Y-101199147D01*
X113048715Y-101521054D01*
X113617000Y-101634093D01*
X114185285Y-101521054D01*
X114667054Y-101199147D01*
X114887000Y-100869974D01*
X115106946Y-101199147D01*
X115588715Y-101521054D01*
X116157000Y-101634093D01*
X116725285Y-101521054D01*
X117207054Y-101199147D01*
X117427000Y-100869974D01*
X117646946Y-101199147D01*
X118128715Y-101521054D01*
X118697000Y-101634093D01*
X119265285Y-101521054D01*
X119747054Y-101199147D01*
X119776403Y-101155223D01*
X119848673Y-101329698D01*
X120027301Y-101508327D01*
X120260690Y-101605000D01*
X120951250Y-101605000D01*
X121110000Y-101446250D01*
X121110000Y-100247000D01*
X121364000Y-100247000D01*
X121364000Y-101446250D01*
X121522750Y-101605000D01*
X122213310Y-101605000D01*
X122446699Y-101508327D01*
X122625327Y-101329698D01*
X122722000Y-101096309D01*
X122722000Y-100405750D01*
X122563250Y-100247000D01*
X121364000Y-100247000D01*
X121110000Y-100247000D01*
X121090000Y-100247000D01*
X121090000Y-99993000D01*
X121110000Y-99993000D01*
X121110000Y-98793750D01*
X121364000Y-98793750D01*
X121364000Y-99993000D01*
X122563250Y-99993000D01*
X122722000Y-99834250D01*
X122722000Y-99143691D01*
X122625327Y-98910302D01*
X122446699Y-98731673D01*
X122213310Y-98635000D01*
X121522750Y-98635000D01*
X121364000Y-98793750D01*
X121110000Y-98793750D01*
X120951250Y-98635000D01*
X120272802Y-98635000D01*
X121393401Y-97514401D01*
X121509102Y-97341242D01*
X121676000Y-97374440D01*
X122576000Y-97374440D01*
X122761000Y-97337642D01*
X122946000Y-97374440D01*
X123846000Y-97374440D01*
X124030921Y-97337657D01*
X124089690Y-97362000D01*
X124380250Y-97362000D01*
X124539000Y-97203250D01*
X124539000Y-96179000D01*
X124793000Y-96179000D01*
X124793000Y-97203250D01*
X124951750Y-97362000D01*
X125242310Y-97362000D01*
X125475699Y-97265327D01*
X125654327Y-97086698D01*
X125751000Y-96853309D01*
X125751000Y-96337750D01*
X125592250Y-96179000D01*
X124793000Y-96179000D01*
X124539000Y-96179000D01*
X124519000Y-96179000D01*
X124519000Y-95925000D01*
X124539000Y-95925000D01*
X124539000Y-94900750D01*
X124793000Y-94900750D01*
X124793000Y-95925000D01*
X125592250Y-95925000D01*
X125751000Y-95766250D01*
X125751000Y-95250691D01*
X125654327Y-95017302D01*
X125475699Y-94838673D01*
X125242310Y-94742000D01*
X124951750Y-94742000D01*
X124793000Y-94900750D01*
X124539000Y-94900750D01*
X124380250Y-94742000D01*
X124089690Y-94742000D01*
X124030921Y-94766343D01*
X123846000Y-94729560D01*
X122946000Y-94729560D01*
X122761000Y-94766358D01*
X122576000Y-94729560D01*
X121676000Y-94729560D01*
X121491000Y-94766358D01*
X121306000Y-94729560D01*
X120406000Y-94729560D01*
X120221000Y-94766358D01*
X120036000Y-94729560D01*
X119136000Y-94729560D01*
X118951000Y-94766358D01*
X118766000Y-94729560D01*
X117866000Y-94729560D01*
X117681000Y-94766358D01*
X117496000Y-94729560D01*
X116596000Y-94729560D01*
X116411000Y-94766358D01*
X116226000Y-94729560D01*
X115326000Y-94729560D01*
X115141000Y-94766358D01*
X114956000Y-94729560D01*
X114056000Y-94729560D01*
X113871000Y-94766358D01*
X113686000Y-94729560D01*
X112786000Y-94729560D01*
X112601000Y-94766358D01*
X112416000Y-94729560D01*
X111516000Y-94729560D01*
X111331000Y-94766358D01*
X111146000Y-94729560D01*
X110246000Y-94729560D01*
X110061000Y-94766358D01*
X109876000Y-94729560D01*
X108976000Y-94729560D01*
X108791000Y-94766358D01*
X108606000Y-94729560D01*
X107706000Y-94729560D01*
X107458235Y-94778843D01*
X107248191Y-94919191D01*
X107107843Y-95129235D01*
X107058560Y-95377000D01*
X105274012Y-95377000D01*
X105380820Y-95119777D01*
X105381179Y-94708029D01*
X105223942Y-94327485D01*
X104933046Y-94036081D01*
X104552777Y-93878180D01*
X104141029Y-93877821D01*
X103913819Y-93971702D01*
X103455000Y-93512883D01*
X103455000Y-89856816D01*
X103653189Y-89724389D01*
X103793537Y-89514345D01*
X103842820Y-89266580D01*
X103842820Y-88367420D01*
X103793537Y-88119655D01*
X103757124Y-88065160D01*
X103793537Y-88010665D01*
X103842820Y-87762900D01*
X103842820Y-86863740D01*
X103793537Y-86615975D01*
X103653189Y-86405931D01*
X103455000Y-86273504D01*
X103455000Y-84305802D01*
X105020767Y-82740035D01*
X105185971Y-82740179D01*
X105333560Y-82679197D01*
X105333560Y-83042000D01*
X105370358Y-83227000D01*
X105333560Y-83412000D01*
X105333560Y-84312000D01*
X105370358Y-84497000D01*
X105333560Y-84682000D01*
X105333560Y-85582000D01*
X105370358Y-85767000D01*
X105333560Y-85952000D01*
X105333560Y-86852000D01*
X105370358Y-87037000D01*
X105333560Y-87222000D01*
X105333560Y-88122000D01*
X105370358Y-88307000D01*
X105333560Y-88492000D01*
X105333560Y-89392000D01*
X105370358Y-89577000D01*
X105333560Y-89762000D01*
X105333560Y-90662000D01*
X105370358Y-90847000D01*
X105333560Y-91032000D01*
X105333560Y-91932000D01*
X105370358Y-92117000D01*
X105333560Y-92302000D01*
X105333560Y-93202000D01*
X105382843Y-93449765D01*
X105523191Y-93659809D01*
X105733235Y-93800157D01*
X105981000Y-93849440D01*
X107331000Y-93849440D01*
X107578765Y-93800157D01*
X107788809Y-93659809D01*
X107929157Y-93449765D01*
X107978440Y-93202000D01*
X107978440Y-92302000D01*
X107941642Y-92117000D01*
X107978440Y-91932000D01*
X107978440Y-91032000D01*
X107941642Y-90847000D01*
X107978440Y-90662000D01*
X107978440Y-89762000D01*
X107941642Y-89577000D01*
X107978440Y-89392000D01*
X107978440Y-88492000D01*
X107941642Y-88307000D01*
X107978440Y-88122000D01*
X107978440Y-87222000D01*
X107941642Y-87037000D01*
X107978440Y-86852000D01*
X107978440Y-85952000D01*
X107941642Y-85767000D01*
X107978440Y-85582000D01*
X107978440Y-84682000D01*
X107941642Y-84497000D01*
X107976450Y-84322000D01*
X113308560Y-84322000D01*
X113308560Y-90322000D01*
X113357843Y-90569765D01*
X113498191Y-90779809D01*
X113708235Y-90920157D01*
X113956000Y-90969440D01*
X119956000Y-90969440D01*
X120203765Y-90920157D01*
X120413809Y-90779809D01*
X120554157Y-90569765D01*
X120603440Y-90322000D01*
X120603440Y-84322000D01*
X120554157Y-84074235D01*
X120413809Y-83864191D01*
X120203765Y-83723843D01*
X119956000Y-83674560D01*
X113956000Y-83674560D01*
X113708235Y-83723843D01*
X113498191Y-83864191D01*
X113357843Y-84074235D01*
X113308560Y-84322000D01*
X107976450Y-84322000D01*
X107978440Y-84312000D01*
X107978440Y-83412000D01*
X107941642Y-83227000D01*
X107978440Y-83042000D01*
X107978440Y-82142000D01*
X107941642Y-81957000D01*
X107978440Y-81772000D01*
X107978440Y-81068000D01*
X111875000Y-81068000D01*
X112165839Y-81010148D01*
X112412401Y-80845401D01*
X113773401Y-79484401D01*
X113889102Y-79311242D01*
X114056000Y-79344440D01*
X114956000Y-79344440D01*
X115141000Y-79307642D01*
X115326000Y-79344440D01*
X116226000Y-79344440D01*
X116411000Y-79307642D01*
X116596000Y-79344440D01*
X117496000Y-79344440D01*
X117681000Y-79307642D01*
X117866000Y-79344440D01*
X118766000Y-79344440D01*
X118951000Y-79307642D01*
X119136000Y-79344440D01*
X120036000Y-79344440D01*
X120221000Y-79307642D01*
X120406000Y-79344440D01*
X121306000Y-79344440D01*
X121366000Y-79332505D01*
X121366000Y-80493239D01*
X121249081Y-80609954D01*
X121091180Y-80990223D01*
X121090821Y-81401971D01*
X121248058Y-81782515D01*
X121538954Y-82073919D01*
X121919223Y-82231820D01*
X122330971Y-82232179D01*
X122711515Y-82074942D01*
X123002919Y-81784046D01*
X123160820Y-81403777D01*
X123161179Y-80992029D01*
X123013618Y-80634903D01*
X123189223Y-80707820D01*
X123600971Y-80708179D01*
X123981515Y-80550942D01*
X124272919Y-80260046D01*
X124430820Y-79879777D01*
X124431179Y-79468029D01*
X124374973Y-79332000D01*
X124380250Y-79332000D01*
X124539000Y-79173250D01*
X124539000Y-78149000D01*
X124793000Y-78149000D01*
X124793000Y-79173250D01*
X124951750Y-79332000D01*
X125242310Y-79332000D01*
X125475699Y-79235327D01*
X125654327Y-79056698D01*
X125751000Y-78823309D01*
X125751000Y-78307750D01*
X125592250Y-78149000D01*
X124793000Y-78149000D01*
X124539000Y-78149000D01*
X124519000Y-78149000D01*
X124519000Y-77895000D01*
X124539000Y-77895000D01*
X124539000Y-76870750D01*
X124793000Y-76870750D01*
X124793000Y-77895000D01*
X125592250Y-77895000D01*
X125751000Y-77736250D01*
X125751000Y-77220691D01*
X125654327Y-76987302D01*
X125475699Y-76808673D01*
X125242310Y-76712000D01*
X124951750Y-76712000D01*
X124793000Y-76870750D01*
X124539000Y-76870750D01*
X124380250Y-76712000D01*
X124089690Y-76712000D01*
X124030921Y-76736343D01*
X123846000Y-76699560D01*
X122946000Y-76699560D01*
X122761000Y-76736358D01*
X122576000Y-76699560D01*
X121676000Y-76699560D01*
X121491000Y-76736358D01*
X121306000Y-76699560D01*
X120406000Y-76699560D01*
X120221000Y-76736358D01*
X120036000Y-76699560D01*
X119136000Y-76699560D01*
X118951000Y-76736358D01*
X118766000Y-76699560D01*
X117866000Y-76699560D01*
X117681000Y-76736358D01*
X117496000Y-76699560D01*
X116596000Y-76699560D01*
X116411000Y-76736358D01*
X116226000Y-76699560D01*
X115326000Y-76699560D01*
X115141000Y-76736358D01*
X114956000Y-76699560D01*
X114056000Y-76699560D01*
X113871000Y-76736358D01*
X113686000Y-76699560D01*
X112786000Y-76699560D01*
X112601000Y-76736358D01*
X112416000Y-76699560D01*
X111516000Y-76699560D01*
X111331000Y-76736358D01*
X111146000Y-76699560D01*
X110246000Y-76699560D01*
X110061000Y-76736358D01*
X109876000Y-76699560D01*
X108976000Y-76699560D01*
X108791000Y-76736358D01*
X108606000Y-76699560D01*
X107706000Y-76699560D01*
X107458235Y-76748843D01*
X107248191Y-76889191D01*
X107107843Y-77099235D01*
X107058560Y-77347000D01*
X107058560Y-78405000D01*
X99264590Y-78405000D01*
X99022004Y-78453254D01*
X98973750Y-78462852D01*
X98727189Y-78627599D01*
X98138000Y-79216788D01*
X98138000Y-78942750D01*
X97979250Y-78784000D01*
X96980000Y-78784000D01*
X96980000Y-78804000D01*
X96726000Y-78804000D01*
X96726000Y-78784000D01*
X95726750Y-78784000D01*
X95568000Y-78942750D01*
X95568000Y-79929000D01*
X90361000Y-79929000D01*
X90070161Y-79986852D01*
X89823599Y-80151599D01*
X86917599Y-83057599D01*
X86778177Y-83266259D01*
X86597191Y-83387191D01*
X86456843Y-83597235D01*
X86407560Y-83845000D01*
X86407560Y-84645000D01*
X86456843Y-84892765D01*
X86558564Y-85045000D01*
X86456843Y-85197235D01*
X86407560Y-85445000D01*
X86407560Y-86245000D01*
X86456843Y-86492765D01*
X86597191Y-86702809D01*
X86695000Y-86768163D01*
X86695000Y-88147679D01*
X86579855Y-88170583D01*
X86369811Y-88310931D01*
X86229463Y-88520975D01*
X86180180Y-88768740D01*
X82885000Y-88768740D01*
X82885000Y-77360691D01*
X95568000Y-77360691D01*
X95568000Y-78371250D01*
X95726750Y-78530000D01*
X96726000Y-78530000D01*
X96726000Y-77010750D01*
X96980000Y-77010750D01*
X96980000Y-78530000D01*
X97979250Y-78530000D01*
X98138000Y-78371250D01*
X98138000Y-77360691D01*
X98041327Y-77127302D01*
X97862699Y-76948673D01*
X97629310Y-76852000D01*
X97138750Y-76852000D01*
X96980000Y-77010750D01*
X96726000Y-77010750D01*
X96567250Y-76852000D01*
X96076690Y-76852000D01*
X95843301Y-76948673D01*
X95664673Y-77127302D01*
X95568000Y-77360691D01*
X82885000Y-77360691D01*
X82885000Y-77087164D01*
X82909772Y-76962627D01*
X82930943Y-76930942D01*
X82962627Y-76909772D01*
X83172654Y-76867995D01*
X83491679Y-76735851D01*
X83735851Y-76491681D01*
X83867994Y-76172656D01*
X83867994Y-76117000D01*
X124313273Y-76117000D01*
X124344046Y-76271705D01*
G36*
X115294103Y-97368095D02*
X113983408Y-98678790D01*
X113617000Y-98605907D01*
X113048715Y-98718946D01*
X112566946Y-99040853D01*
X112347000Y-99370026D01*
X112127054Y-99040853D01*
X111645285Y-98718946D01*
X111077000Y-98605907D01*
X110508715Y-98718946D01*
X110026946Y-99040853D01*
X109886239Y-99251437D01*
X108916000Y-98281198D01*
X108916000Y-97362505D01*
X108976000Y-97374440D01*
X109876000Y-97374440D01*
X110061000Y-97337642D01*
X110246000Y-97374440D01*
X111146000Y-97374440D01*
X111331000Y-97337642D01*
X111516000Y-97374440D01*
X112416000Y-97374440D01*
X112601000Y-97337642D01*
X112786000Y-97374440D01*
X113686000Y-97374440D01*
X113871000Y-97337642D01*
X114056000Y-97374440D01*
X114956000Y-97374440D01*
X115141000Y-97337642D01*
X115294103Y-97368095D01*
X115294103Y-97368095D01*
G37*
X115294103Y-97368095D02*
X113983408Y-98678790D01*
X113617000Y-98605907D01*
X113048715Y-98718946D01*
X112566946Y-99040853D01*
X112347000Y-99370026D01*
X112127054Y-99040853D01*
X111645285Y-98718946D01*
X111077000Y-98605907D01*
X110508715Y-98718946D01*
X110026946Y-99040853D01*
X109886239Y-99251437D01*
X108916000Y-98281198D01*
X108916000Y-97362505D01*
X108976000Y-97374440D01*
X109876000Y-97374440D01*
X110061000Y-97337642D01*
X110246000Y-97374440D01*
X111146000Y-97374440D01*
X111331000Y-97337642D01*
X111516000Y-97374440D01*
X112416000Y-97374440D01*
X112601000Y-97337642D01*
X112786000Y-97374440D01*
X113686000Y-97374440D01*
X113871000Y-97337642D01*
X114056000Y-97374440D01*
X114956000Y-97374440D01*
X115141000Y-97337642D01*
X115294103Y-97368095D01*
G36*
X103242914Y-95450401D02*
X103400385Y-95555620D01*
X103329998Y-95555620D01*
X103329998Y-95714368D01*
X103171250Y-95555620D01*
X102881111Y-95555620D01*
X102704814Y-95628645D01*
X102650665Y-95592463D01*
X102612036Y-95584779D01*
X102490721Y-95403219D01*
X102185000Y-95097498D01*
X102185000Y-94392487D01*
X103242914Y-95450401D01*
X103242914Y-95450401D01*
G37*
X103242914Y-95450401D02*
X103400385Y-95555620D01*
X103329998Y-95555620D01*
X103329998Y-95714368D01*
X103171250Y-95555620D01*
X102881111Y-95555620D01*
X102704814Y-95628645D01*
X102650665Y-95592463D01*
X102612036Y-95584779D01*
X102490721Y-95403219D01*
X102185000Y-95097498D01*
X102185000Y-94392487D01*
X103242914Y-95450401D01*
G36*
X39554753Y-133665103D02*
X39843169Y-133784863D01*
X40155461Y-133785136D01*
X40249876Y-133746125D01*
X40343169Y-133784863D01*
X40655461Y-133785136D01*
X40749876Y-133746125D01*
X40843169Y-133784863D01*
X41155461Y-133785136D01*
X41249876Y-133746125D01*
X41343169Y-133784863D01*
X41655461Y-133785136D01*
X41749876Y-133746125D01*
X41843169Y-133784863D01*
X42155461Y-133785136D01*
X42437982Y-133668401D01*
X42661325Y-133817633D01*
X43000000Y-133885000D01*
X121000000Y-133885000D01*
X121338675Y-133817633D01*
X121562278Y-133668227D01*
X121843169Y-133784863D01*
X122155461Y-133785136D01*
X122249876Y-133746125D01*
X122343169Y-133784863D01*
X122655461Y-133785136D01*
X122749876Y-133746125D01*
X122843169Y-133784863D01*
X123155461Y-133785136D01*
X123249876Y-133746125D01*
X123343169Y-133784863D01*
X123655461Y-133785136D01*
X123749876Y-133746125D01*
X123843169Y-133784863D01*
X124155461Y-133785136D01*
X124437982Y-133668401D01*
X124661325Y-133817633D01*
X125000000Y-133885000D01*
X125912836Y-133885000D01*
X126037373Y-133909772D01*
X126069058Y-133930943D01*
X126090228Y-133962627D01*
X126115000Y-134087164D01*
X126115000Y-157912836D01*
X126090228Y-158037373D01*
X126069058Y-158069057D01*
X126037373Y-158090228D01*
X125912836Y-158115000D01*
X125427552Y-158115000D01*
X125485000Y-157976309D01*
X125485000Y-157285750D01*
X125326250Y-157127000D01*
X124127000Y-157127000D01*
X124127000Y-157147000D01*
X123873000Y-157147000D01*
X123873000Y-157127000D01*
X123853000Y-157127000D01*
X123853000Y-156873000D01*
X123873000Y-156873000D01*
X123873000Y-155673750D01*
X124127000Y-155673750D01*
X124127000Y-156873000D01*
X125326250Y-156873000D01*
X125485000Y-156714250D01*
X125485000Y-156023691D01*
X125388327Y-155790302D01*
X125209699Y-155611673D01*
X124976310Y-155515000D01*
X124285750Y-155515000D01*
X124127000Y-155673750D01*
X123873000Y-155673750D01*
X123714250Y-155515000D01*
X123023690Y-155515000D01*
X122790301Y-155611673D01*
X122611673Y-155790302D01*
X122539403Y-155964777D01*
X122510054Y-155920853D01*
X122220000Y-155727046D01*
X122220000Y-142293000D01*
X122162148Y-142002161D01*
X121997401Y-141755599D01*
X117059035Y-136817233D01*
X117059179Y-136652029D01*
X116901942Y-136271485D01*
X116611046Y-135980081D01*
X116230777Y-135822180D01*
X115819029Y-135821821D01*
X115438485Y-135979058D01*
X115147081Y-136269954D01*
X114989180Y-136650223D01*
X114988821Y-137061971D01*
X115146058Y-137442515D01*
X115436954Y-137733919D01*
X115817223Y-137891820D01*
X115984164Y-137891966D01*
X120700000Y-142607802D01*
X120700000Y-155727046D01*
X120409946Y-155920853D01*
X120190000Y-156250026D01*
X119970054Y-155920853D01*
X119680000Y-155727046D01*
X119680000Y-142420000D01*
X119622148Y-142129161D01*
X119457401Y-141882599D01*
X114837401Y-137262599D01*
X114590839Y-137097852D01*
X114300000Y-137040000D01*
X113310505Y-137040000D01*
X113322440Y-136980000D01*
X113322440Y-136080000D01*
X113285642Y-135895000D01*
X113322440Y-135710000D01*
X113322440Y-134810000D01*
X113285657Y-134625079D01*
X113310000Y-134566310D01*
X113310000Y-134275750D01*
X113151250Y-134117000D01*
X112127000Y-134117000D01*
X112127000Y-134137000D01*
X111873000Y-134137000D01*
X111873000Y-134117000D01*
X110848750Y-134117000D01*
X110690000Y-134275750D01*
X110690000Y-134566310D01*
X110714343Y-134625079D01*
X110677560Y-134810000D01*
X110677560Y-135710000D01*
X110714358Y-135895000D01*
X110677560Y-136080000D01*
X110677560Y-136980000D01*
X110714358Y-137165000D01*
X110677560Y-137350000D01*
X110677560Y-138250000D01*
X110714358Y-138435000D01*
X110677560Y-138620000D01*
X110677560Y-139520000D01*
X110714358Y-139705000D01*
X110677560Y-139890000D01*
X110677560Y-140790000D01*
X110714358Y-140975000D01*
X110677560Y-141160000D01*
X110677560Y-142060000D01*
X110714358Y-142245000D01*
X110677560Y-142430000D01*
X110677560Y-143330000D01*
X110714358Y-143515000D01*
X110677560Y-143700000D01*
X110677560Y-144600000D01*
X110714358Y-144785000D01*
X110677560Y-144970000D01*
X110677560Y-145870000D01*
X110714358Y-146055000D01*
X110677560Y-146240000D01*
X110677560Y-147140000D01*
X110714358Y-147325000D01*
X110677560Y-147510000D01*
X110677560Y-148410000D01*
X110714358Y-148595000D01*
X110677560Y-148780000D01*
X110677560Y-149680000D01*
X110714358Y-149865000D01*
X110677560Y-150050000D01*
X110677560Y-150950000D01*
X110726843Y-151197765D01*
X110867191Y-151407809D01*
X111077235Y-151548157D01*
X111325000Y-151597440D01*
X112675000Y-151597440D01*
X112902405Y-151552207D01*
X113080000Y-151729802D01*
X113080000Y-155727046D01*
X112789946Y-155920853D01*
X112468039Y-156402622D01*
X112355000Y-156970907D01*
X112355000Y-157029093D01*
X112468039Y-157597378D01*
X112789946Y-158079147D01*
X112843604Y-158115000D01*
X43000000Y-158115000D01*
X42661325Y-158182367D01*
X42437722Y-158331773D01*
X42156831Y-158215137D01*
X41844539Y-158214864D01*
X41750124Y-158253875D01*
X41656831Y-158215137D01*
X41344539Y-158214864D01*
X41250124Y-158253875D01*
X41156831Y-158215137D01*
X40844539Y-158214864D01*
X40750124Y-158253875D01*
X40656831Y-158215137D01*
X40344539Y-158214864D01*
X40250124Y-158253875D01*
X40156831Y-158215137D01*
X39844539Y-158214864D01*
X39562018Y-158331599D01*
X39338675Y-158182367D01*
X39000000Y-158115000D01*
X38087164Y-158115000D01*
X37962627Y-158090228D01*
X37930943Y-158069058D01*
X37909772Y-158037373D01*
X37867995Y-157827346D01*
X37735851Y-157508321D01*
X37710000Y-157482470D01*
X37710000Y-155355750D01*
X77655000Y-155355750D01*
X77655000Y-156366309D01*
X77751673Y-156599698D01*
X77930301Y-156778327D01*
X78163690Y-156875000D01*
X78654250Y-156875000D01*
X78813000Y-156716250D01*
X78813000Y-155197000D01*
X79067000Y-155197000D01*
X79067000Y-156716250D01*
X79225750Y-156875000D01*
X79716310Y-156875000D01*
X79949699Y-156778327D01*
X80128327Y-156599698D01*
X80225000Y-156366309D01*
X80225000Y-155355750D01*
X80066250Y-155197000D01*
X79067000Y-155197000D01*
X78813000Y-155197000D01*
X77813750Y-155197000D01*
X77655000Y-155355750D01*
X37710000Y-155355750D01*
X37710000Y-153773691D01*
X77655000Y-153773691D01*
X77655000Y-154784250D01*
X77813750Y-154943000D01*
X78813000Y-154943000D01*
X78813000Y-153423750D01*
X79067000Y-153423750D01*
X79067000Y-154943000D01*
X80066250Y-154943000D01*
X80225000Y-154784250D01*
X80225000Y-153773691D01*
X80128327Y-153540302D01*
X79949699Y-153361673D01*
X79716310Y-153265000D01*
X79225750Y-153265000D01*
X79067000Y-153423750D01*
X78813000Y-153423750D01*
X78654250Y-153265000D01*
X78163690Y-153265000D01*
X77930301Y-153361673D01*
X77751673Y-153540302D01*
X77655000Y-153773691D01*
X37710000Y-153773691D01*
X37710000Y-151007750D01*
X65875620Y-151007750D01*
X65875620Y-151297889D01*
X65972293Y-151531278D01*
X66150921Y-151709907D01*
X66384310Y-151806580D01*
X66725250Y-151806580D01*
X66884000Y-151647830D01*
X66884000Y-150849000D01*
X67138000Y-150849000D01*
X67138000Y-151647830D01*
X67296750Y-151806580D01*
X67637690Y-151806580D01*
X67871079Y-151709907D01*
X68049707Y-151531278D01*
X68146380Y-151297889D01*
X68146380Y-151007750D01*
X68542620Y-151007750D01*
X68542620Y-151297889D01*
X68639293Y-151531278D01*
X68817921Y-151709907D01*
X69051310Y-151806580D01*
X69392250Y-151806580D01*
X69551000Y-151647830D01*
X69551000Y-150849000D01*
X69805000Y-150849000D01*
X69805000Y-151647830D01*
X69963750Y-151806580D01*
X70304690Y-151806580D01*
X70538079Y-151709907D01*
X70716707Y-151531278D01*
X70813380Y-151297889D01*
X70813380Y-151007750D01*
X70654630Y-150849000D01*
X69805000Y-150849000D01*
X69551000Y-150849000D01*
X68701370Y-150849000D01*
X68542620Y-151007750D01*
X68146380Y-151007750D01*
X67987630Y-150849000D01*
X67138000Y-150849000D01*
X66884000Y-150849000D01*
X66034370Y-150849000D01*
X65875620Y-151007750D01*
X37710000Y-151007750D01*
X37710000Y-148768740D01*
X65863180Y-148768740D01*
X65863180Y-149667900D01*
X65912463Y-149915665D01*
X65948645Y-149969814D01*
X65875620Y-150146111D01*
X65875620Y-150436250D01*
X66034370Y-150595000D01*
X66884000Y-150595000D01*
X66884000Y-150575000D01*
X67138000Y-150575000D01*
X67138000Y-150595000D01*
X67987630Y-150595000D01*
X68146380Y-150436250D01*
X68146380Y-150146111D01*
X68073355Y-149969814D01*
X68109537Y-149915665D01*
X68158820Y-149667900D01*
X68158820Y-148768740D01*
X68109537Y-148520975D01*
X67969189Y-148310931D01*
X67771000Y-148178504D01*
X67771000Y-146819163D01*
X67868809Y-146753809D01*
X68009157Y-146543765D01*
X68058440Y-146296000D01*
X68058440Y-145496000D01*
X68009157Y-145248235D01*
X67907436Y-145096000D01*
X68009157Y-144943765D01*
X68058440Y-144696000D01*
X68058440Y-143896000D01*
X68009157Y-143648235D01*
X67910386Y-143500416D01*
X67951802Y-143459000D01*
X68899209Y-143459000D01*
X68806843Y-143597235D01*
X68757560Y-143845000D01*
X68757560Y-144645000D01*
X68806843Y-144892765D01*
X68908564Y-145045000D01*
X68806843Y-145197235D01*
X68757560Y-145445000D01*
X68757560Y-146245000D01*
X68806843Y-146492765D01*
X68947191Y-146702809D01*
X69045000Y-146768163D01*
X69045000Y-148147679D01*
X68929855Y-148170583D01*
X68719811Y-148310931D01*
X68579463Y-148520975D01*
X68530180Y-148768740D01*
X68530180Y-149667900D01*
X68579463Y-149915665D01*
X68615645Y-149969814D01*
X68542620Y-150146111D01*
X68542620Y-150436250D01*
X68701370Y-150595000D01*
X69551000Y-150595000D01*
X69551000Y-150575000D01*
X69805000Y-150575000D01*
X69805000Y-150595000D01*
X70654630Y-150595000D01*
X70813380Y-150436250D01*
X70813380Y-150146111D01*
X70740355Y-149969814D01*
X70776537Y-149915665D01*
X70825820Y-149667900D01*
X70825820Y-148768740D01*
X70776537Y-148520975D01*
X70636189Y-148310931D01*
X70565000Y-148263364D01*
X70565000Y-146768163D01*
X70662809Y-146702809D01*
X70803157Y-146492765D01*
X70832159Y-146346961D01*
X72982599Y-148497401D01*
X73229160Y-148662148D01*
X73520000Y-148720000D01*
X92659495Y-148720000D01*
X92647560Y-148780000D01*
X92647560Y-149680000D01*
X92684358Y-149865000D01*
X92647560Y-150050000D01*
X92647560Y-150950000D01*
X92696843Y-151197765D01*
X92837191Y-151407809D01*
X93047235Y-151548157D01*
X93295000Y-151597440D01*
X94645000Y-151597440D01*
X94892765Y-151548157D01*
X95102809Y-151407809D01*
X95158140Y-151325000D01*
X96172560Y-151325000D01*
X96172560Y-152675000D01*
X96221843Y-152922765D01*
X96362191Y-153132809D01*
X96572235Y-153273157D01*
X96820000Y-153322440D01*
X97720000Y-153322440D01*
X97905000Y-153285642D01*
X98090000Y-153322440D01*
X98990000Y-153322440D01*
X99175000Y-153285642D01*
X99360000Y-153322440D01*
X100260000Y-153322440D01*
X100445000Y-153285642D01*
X100630000Y-153322440D01*
X101530000Y-153322440D01*
X101715000Y-153285642D01*
X101900000Y-153322440D01*
X102800000Y-153322440D01*
X102985000Y-153285642D01*
X103170000Y-153322440D01*
X104070000Y-153322440D01*
X104255000Y-153285642D01*
X104440000Y-153322440D01*
X105340000Y-153322440D01*
X105525000Y-153285642D01*
X105710000Y-153322440D01*
X106610000Y-153322440D01*
X106795000Y-153285642D01*
X106980000Y-153322440D01*
X107880000Y-153322440D01*
X108065000Y-153285642D01*
X108250000Y-153322440D01*
X109150000Y-153322440D01*
X109397765Y-153273157D01*
X109607809Y-153132809D01*
X109748157Y-152922765D01*
X109797440Y-152675000D01*
X109797440Y-151325000D01*
X109748157Y-151077235D01*
X109607809Y-150867191D01*
X109397765Y-150726843D01*
X109150000Y-150677560D01*
X108250000Y-150677560D01*
X108065000Y-150714358D01*
X107880000Y-150677560D01*
X106980000Y-150677560D01*
X106795000Y-150714358D01*
X106610000Y-150677560D01*
X105710000Y-150677560D01*
X105525000Y-150714358D01*
X105340000Y-150677560D01*
X104440000Y-150677560D01*
X104255000Y-150714358D01*
X104070000Y-150677560D01*
X103170000Y-150677560D01*
X102985000Y-150714358D01*
X102800000Y-150677560D01*
X101900000Y-150677560D01*
X101715000Y-150714358D01*
X101530000Y-150677560D01*
X100630000Y-150677560D01*
X100445000Y-150714358D01*
X100260000Y-150677560D01*
X99360000Y-150677560D01*
X99175000Y-150714358D01*
X98990000Y-150677560D01*
X98090000Y-150677560D01*
X97905000Y-150714358D01*
X97720000Y-150677560D01*
X96820000Y-150677560D01*
X96572235Y-150726843D01*
X96362191Y-150867191D01*
X96221843Y-151077235D01*
X96172560Y-151325000D01*
X95158140Y-151325000D01*
X95243157Y-151197765D01*
X95292440Y-150950000D01*
X95292440Y-150050000D01*
X95255642Y-149865000D01*
X95292440Y-149680000D01*
X95292440Y-148780000D01*
X95255642Y-148595000D01*
X95292440Y-148410000D01*
X95292440Y-147510000D01*
X95255642Y-147325000D01*
X95292440Y-147140000D01*
X95292440Y-146240000D01*
X95255642Y-146055000D01*
X95292440Y-145870000D01*
X95292440Y-144970000D01*
X95255642Y-144785000D01*
X95292440Y-144600000D01*
X95292440Y-143700000D01*
X95255642Y-143515000D01*
X95292440Y-143330000D01*
X95292440Y-142430000D01*
X95255642Y-142245000D01*
X95292440Y-142060000D01*
X95292440Y-141160000D01*
X95255642Y-140975000D01*
X95292440Y-140790000D01*
X95292440Y-139890000D01*
X95255642Y-139705000D01*
X95292440Y-139520000D01*
X95292440Y-138700000D01*
X99622560Y-138700000D01*
X99622560Y-144700000D01*
X99671843Y-144947765D01*
X99812191Y-145157809D01*
X100022235Y-145298157D01*
X100270000Y-145347440D01*
X106270000Y-145347440D01*
X106517765Y-145298157D01*
X106727809Y-145157809D01*
X106868157Y-144947765D01*
X106917440Y-144700000D01*
X106917440Y-138700000D01*
X106868157Y-138452235D01*
X106727809Y-138242191D01*
X106517765Y-138101843D01*
X106270000Y-138052560D01*
X100270000Y-138052560D01*
X100022235Y-138101843D01*
X99812191Y-138242191D01*
X99671843Y-138452235D01*
X99622560Y-138700000D01*
X95292440Y-138700000D01*
X95292440Y-138620000D01*
X95255642Y-138435000D01*
X95292440Y-138250000D01*
X95292440Y-137350000D01*
X95280505Y-137290000D01*
X95999954Y-137290000D01*
X96122058Y-137585515D01*
X96412954Y-137876919D01*
X96793223Y-138034820D01*
X97204971Y-138035179D01*
X97585515Y-137877942D01*
X97876919Y-137587046D01*
X98034820Y-137206777D01*
X98035179Y-136795029D01*
X97877942Y-136414485D01*
X97587046Y-136123081D01*
X97206777Y-135965180D01*
X97026130Y-135965022D01*
X96820839Y-135827852D01*
X96530000Y-135770000D01*
X95280505Y-135770000D01*
X95292440Y-135710000D01*
X95292440Y-134810000D01*
X95255657Y-134625079D01*
X95280000Y-134566310D01*
X95280000Y-134275750D01*
X95121250Y-134117000D01*
X94097000Y-134117000D01*
X94097000Y-134137000D01*
X93843000Y-134137000D01*
X93843000Y-134117000D01*
X92818750Y-134117000D01*
X92660000Y-134275750D01*
X92660000Y-134375000D01*
X91931325Y-134375000D01*
X91931320Y-134374999D01*
X91809153Y-134399300D01*
X91194620Y-134399300D01*
X90946855Y-134448583D01*
X90736811Y-134588931D01*
X90721851Y-134611320D01*
X90694625Y-134611320D01*
X90694620Y-134611319D01*
X90355945Y-134678687D01*
X90068830Y-134870530D01*
X90068828Y-134870533D01*
X89824361Y-135115000D01*
X89532253Y-135115000D01*
X89499857Y-134952135D01*
X89359509Y-134742091D01*
X89149465Y-134601743D01*
X88901700Y-134552460D01*
X87098300Y-134552460D01*
X86850535Y-134601743D01*
X86640491Y-134742091D01*
X86500143Y-134952135D01*
X86467747Y-135115000D01*
X85973149Y-135115000D01*
X85958189Y-135092611D01*
X85748145Y-134952263D01*
X85500380Y-134902980D01*
X84499620Y-134902980D01*
X84251855Y-134952263D01*
X84041811Y-135092611D01*
X83901463Y-135302655D01*
X83852180Y-135550420D01*
X83852180Y-136449580D01*
X83901463Y-136697345D01*
X83937645Y-136751494D01*
X83864620Y-136927791D01*
X83864620Y-137217930D01*
X84023370Y-137376680D01*
X84873000Y-137376680D01*
X84873000Y-137356680D01*
X85127000Y-137356680D01*
X85127000Y-137376680D01*
X85976630Y-137376680D01*
X86135380Y-137217930D01*
X86135380Y-136927791D01*
X86117655Y-136885000D01*
X86467747Y-136885000D01*
X86500143Y-137047865D01*
X86640491Y-137257909D01*
X86850535Y-137398257D01*
X86868397Y-137401810D01*
X86738601Y-137455573D01*
X86559973Y-137634202D01*
X86463300Y-137867591D01*
X86463300Y-138508250D01*
X86622050Y-138667000D01*
X87873000Y-138667000D01*
X87873000Y-138647000D01*
X88127000Y-138647000D01*
X88127000Y-138667000D01*
X88147000Y-138667000D01*
X88147000Y-138921000D01*
X88127000Y-138921000D01*
X88127000Y-140070350D01*
X88285750Y-140229100D01*
X89028010Y-140229100D01*
X89231000Y-140145019D01*
X89231000Y-140734415D01*
X89081180Y-141095223D01*
X89080821Y-141506971D01*
X89238058Y-141887515D01*
X89528954Y-142178919D01*
X89909223Y-142336820D01*
X90320971Y-142337179D01*
X90701515Y-142179942D01*
X90992919Y-141889046D01*
X91150820Y-141508777D01*
X91151179Y-141097029D01*
X91001000Y-140733567D01*
X91001000Y-138058507D01*
X91194620Y-138097020D01*
X92195380Y-138097020D01*
X92443145Y-138047737D01*
X92647560Y-137911150D01*
X92647560Y-138250000D01*
X92684358Y-138435000D01*
X92647560Y-138620000D01*
X92647560Y-139520000D01*
X92684358Y-139705000D01*
X92647560Y-139890000D01*
X92647560Y-140790000D01*
X92684358Y-140975000D01*
X92647560Y-141160000D01*
X92647560Y-142060000D01*
X92684358Y-142245000D01*
X92647560Y-142430000D01*
X92647560Y-143330000D01*
X92684358Y-143515000D01*
X92647560Y-143700000D01*
X92647560Y-144600000D01*
X92659495Y-144660000D01*
X88204460Y-144660000D01*
X88204460Y-144652780D01*
X88155177Y-144405015D01*
X88014829Y-144194971D01*
X87804785Y-144054623D01*
X87557020Y-144005340D01*
X86556260Y-144005340D01*
X86308495Y-144054623D01*
X86098451Y-144194971D01*
X86054195Y-144261205D01*
X85919990Y-144127000D01*
X85070360Y-144127000D01*
X85070360Y-144775970D01*
X85229110Y-144934720D01*
X85570050Y-144934720D01*
X85803439Y-144838047D01*
X85908820Y-144732665D01*
X85908820Y-145252220D01*
X85958103Y-145499985D01*
X86098451Y-145710029D01*
X86308495Y-145850377D01*
X86556260Y-145899660D01*
X86928998Y-145899660D01*
X86959338Y-145930000D01*
X74990802Y-145930000D01*
X73346552Y-144285750D01*
X83807980Y-144285750D01*
X83807980Y-144426029D01*
X83904653Y-144659418D01*
X84083281Y-144838047D01*
X84316670Y-144934720D01*
X84657610Y-144934720D01*
X84816360Y-144775970D01*
X84816360Y-144127000D01*
X83966730Y-144127000D01*
X83807980Y-144285750D01*
X73346552Y-144285750D01*
X72634773Y-143573971D01*
X83807980Y-143573971D01*
X83807980Y-143714250D01*
X83966730Y-143873000D01*
X84816360Y-143873000D01*
X84816360Y-143224030D01*
X84657610Y-143065280D01*
X84316670Y-143065280D01*
X84083281Y-143161953D01*
X83904653Y-143340582D01*
X83807980Y-143573971D01*
X72634773Y-143573971D01*
X71222401Y-142161599D01*
X70975839Y-141996852D01*
X70685000Y-141939000D01*
X67637000Y-141939000D01*
X67346161Y-141996852D01*
X67099599Y-142161599D01*
X66473599Y-142787599D01*
X66308852Y-143034161D01*
X66251000Y-143325000D01*
X66251000Y-143372837D01*
X66153191Y-143438191D01*
X66012843Y-143648235D01*
X65963560Y-143896000D01*
X65963560Y-144696000D01*
X66012843Y-144943765D01*
X66114564Y-145096000D01*
X66012843Y-145248235D01*
X65963560Y-145496000D01*
X65963560Y-146296000D01*
X66012843Y-146543765D01*
X66153191Y-146753809D01*
X66251000Y-146819163D01*
X66251000Y-148178504D01*
X66052811Y-148310931D01*
X65912463Y-148520975D01*
X65863180Y-148768740D01*
X37710000Y-148768740D01*
X37710000Y-136934971D01*
X73967821Y-136934971D01*
X74125058Y-137315515D01*
X74415954Y-137606919D01*
X74796223Y-137764820D01*
X75207971Y-137765179D01*
X75571433Y-137615000D01*
X77642560Y-137615000D01*
X77642560Y-137900000D01*
X77691843Y-138147765D01*
X77832191Y-138357809D01*
X78042235Y-138498157D01*
X78055000Y-138500696D01*
X78055000Y-139269995D01*
X78054999Y-139270000D01*
X78087262Y-139432191D01*
X78122367Y-139608675D01*
X78228667Y-139767765D01*
X78314210Y-139895790D01*
X79584208Y-141165787D01*
X79584210Y-141165790D01*
X79788064Y-141302000D01*
X79871325Y-141357633D01*
X80210000Y-141425001D01*
X80210005Y-141425000D01*
X84982280Y-141425000D01*
X85997834Y-142440553D01*
X85958103Y-142500015D01*
X85908820Y-142747780D01*
X85908820Y-143267335D01*
X85803439Y-143161953D01*
X85570050Y-143065280D01*
X85229110Y-143065280D01*
X85070360Y-143224030D01*
X85070360Y-143873000D01*
X85919990Y-143873000D01*
X86054195Y-143738795D01*
X86098451Y-143805029D01*
X86308495Y-143945377D01*
X86556260Y-143994660D01*
X87557020Y-143994660D01*
X87804785Y-143945377D01*
X88014829Y-143805029D01*
X88155177Y-143594985D01*
X88204460Y-143347220D01*
X88204460Y-142747780D01*
X88155177Y-142500015D01*
X88014829Y-142289971D01*
X87940101Y-142240039D01*
X87885450Y-141965296D01*
X87874273Y-141909105D01*
X87682430Y-141621990D01*
X87682427Y-141621988D01*
X85974650Y-139914210D01*
X85836734Y-139822058D01*
X85687535Y-139722367D01*
X85631344Y-139711190D01*
X85348860Y-139654999D01*
X85348855Y-139655000D01*
X80576579Y-139655000D01*
X80001330Y-139079750D01*
X86463300Y-139079750D01*
X86463300Y-139720409D01*
X86559973Y-139953798D01*
X86738601Y-140132427D01*
X86971990Y-140229100D01*
X87714250Y-140229100D01*
X87873000Y-140070350D01*
X87873000Y-138921000D01*
X86622050Y-138921000D01*
X86463300Y-139079750D01*
X80001330Y-139079750D01*
X79825000Y-138903420D01*
X79825000Y-138500696D01*
X79837765Y-138498157D01*
X80047809Y-138357809D01*
X80188157Y-138147765D01*
X80237440Y-137900000D01*
X80237440Y-137789430D01*
X83864620Y-137789430D01*
X83864620Y-138079569D01*
X83961293Y-138312958D01*
X84139921Y-138491587D01*
X84373310Y-138588260D01*
X84714250Y-138588260D01*
X84873000Y-138429510D01*
X84873000Y-137630680D01*
X85127000Y-137630680D01*
X85127000Y-138429510D01*
X85285750Y-138588260D01*
X85626690Y-138588260D01*
X85860079Y-138491587D01*
X86038707Y-138312958D01*
X86135380Y-138079569D01*
X86135380Y-137789430D01*
X85976630Y-137630680D01*
X85127000Y-137630680D01*
X84873000Y-137630680D01*
X84023370Y-137630680D01*
X83864620Y-137789430D01*
X80237440Y-137789430D01*
X80237440Y-135560000D01*
X80188157Y-135312235D01*
X80047809Y-135102191D01*
X79837765Y-134961843D01*
X79590000Y-134912560D01*
X78290000Y-134912560D01*
X78042235Y-134961843D01*
X77832191Y-135102191D01*
X77691843Y-135312235D01*
X77642560Y-135560000D01*
X77642560Y-135845000D01*
X75570585Y-135845000D01*
X75209777Y-135695180D01*
X74798029Y-135694821D01*
X74417485Y-135852058D01*
X74126081Y-136142954D01*
X73968180Y-136523223D01*
X73967821Y-136934971D01*
X37710000Y-136934971D01*
X37710000Y-134069930D01*
X37744926Y-133894345D01*
X37804774Y-133804775D01*
X37894345Y-133744926D01*
X38069930Y-133710000D01*
X39000000Y-133710000D01*
X39271705Y-133655954D01*
X39295582Y-133640000D01*
X39529694Y-133640000D01*
X39554753Y-133665103D01*
X39554753Y-133665103D01*
G37*
X39554753Y-133665103D02*
X39843169Y-133784863D01*
X40155461Y-133785136D01*
X40249876Y-133746125D01*
X40343169Y-133784863D01*
X40655461Y-133785136D01*
X40749876Y-133746125D01*
X40843169Y-133784863D01*
X41155461Y-133785136D01*
X41249876Y-133746125D01*
X41343169Y-133784863D01*
X41655461Y-133785136D01*
X41749876Y-133746125D01*
X41843169Y-133784863D01*
X42155461Y-133785136D01*
X42437982Y-133668401D01*
X42661325Y-133817633D01*
X43000000Y-133885000D01*
X121000000Y-133885000D01*
X121338675Y-133817633D01*
X121562278Y-133668227D01*
X121843169Y-133784863D01*
X122155461Y-133785136D01*
X122249876Y-133746125D01*
X122343169Y-133784863D01*
X122655461Y-133785136D01*
X122749876Y-133746125D01*
X122843169Y-133784863D01*
X123155461Y-133785136D01*
X123249876Y-133746125D01*
X123343169Y-133784863D01*
X123655461Y-133785136D01*
X123749876Y-133746125D01*
X123843169Y-133784863D01*
X124155461Y-133785136D01*
X124437982Y-133668401D01*
X124661325Y-133817633D01*
X125000000Y-133885000D01*
X125912836Y-133885000D01*
X126037373Y-133909772D01*
X126069058Y-133930943D01*
X126090228Y-133962627D01*
X126115000Y-134087164D01*
X126115000Y-157912836D01*
X126090228Y-158037373D01*
X126069058Y-158069057D01*
X126037373Y-158090228D01*
X125912836Y-158115000D01*
X125427552Y-158115000D01*
X125485000Y-157976309D01*
X125485000Y-157285750D01*
X125326250Y-157127000D01*
X124127000Y-157127000D01*
X124127000Y-157147000D01*
X123873000Y-157147000D01*
X123873000Y-157127000D01*
X123853000Y-157127000D01*
X123853000Y-156873000D01*
X123873000Y-156873000D01*
X123873000Y-155673750D01*
X124127000Y-155673750D01*
X124127000Y-156873000D01*
X125326250Y-156873000D01*
X125485000Y-156714250D01*
X125485000Y-156023691D01*
X125388327Y-155790302D01*
X125209699Y-155611673D01*
X124976310Y-155515000D01*
X124285750Y-155515000D01*
X124127000Y-155673750D01*
X123873000Y-155673750D01*
X123714250Y-155515000D01*
X123023690Y-155515000D01*
X122790301Y-155611673D01*
X122611673Y-155790302D01*
X122539403Y-155964777D01*
X122510054Y-155920853D01*
X122220000Y-155727046D01*
X122220000Y-142293000D01*
X122162148Y-142002161D01*
X121997401Y-141755599D01*
X117059035Y-136817233D01*
X117059179Y-136652029D01*
X116901942Y-136271485D01*
X116611046Y-135980081D01*
X116230777Y-135822180D01*
X115819029Y-135821821D01*
X115438485Y-135979058D01*
X115147081Y-136269954D01*
X114989180Y-136650223D01*
X114988821Y-137061971D01*
X115146058Y-137442515D01*
X115436954Y-137733919D01*
X115817223Y-137891820D01*
X115984164Y-137891966D01*
X120700000Y-142607802D01*
X120700000Y-155727046D01*
X120409946Y-155920853D01*
X120190000Y-156250026D01*
X119970054Y-155920853D01*
X119680000Y-155727046D01*
X119680000Y-142420000D01*
X119622148Y-142129161D01*
X119457401Y-141882599D01*
X114837401Y-137262599D01*
X114590839Y-137097852D01*
X114300000Y-137040000D01*
X113310505Y-137040000D01*
X113322440Y-136980000D01*
X113322440Y-136080000D01*
X113285642Y-135895000D01*
X113322440Y-135710000D01*
X113322440Y-134810000D01*
X113285657Y-134625079D01*
X113310000Y-134566310D01*
X113310000Y-134275750D01*
X113151250Y-134117000D01*
X112127000Y-134117000D01*
X112127000Y-134137000D01*
X111873000Y-134137000D01*
X111873000Y-134117000D01*
X110848750Y-134117000D01*
X110690000Y-134275750D01*
X110690000Y-134566310D01*
X110714343Y-134625079D01*
X110677560Y-134810000D01*
X110677560Y-135710000D01*
X110714358Y-135895000D01*
X110677560Y-136080000D01*
X110677560Y-136980000D01*
X110714358Y-137165000D01*
X110677560Y-137350000D01*
X110677560Y-138250000D01*
X110714358Y-138435000D01*
X110677560Y-138620000D01*
X110677560Y-139520000D01*
X110714358Y-139705000D01*
X110677560Y-139890000D01*
X110677560Y-140790000D01*
X110714358Y-140975000D01*
X110677560Y-141160000D01*
X110677560Y-142060000D01*
X110714358Y-142245000D01*
X110677560Y-142430000D01*
X110677560Y-143330000D01*
X110714358Y-143515000D01*
X110677560Y-143700000D01*
X110677560Y-144600000D01*
X110714358Y-144785000D01*
X110677560Y-144970000D01*
X110677560Y-145870000D01*
X110714358Y-146055000D01*
X110677560Y-146240000D01*
X110677560Y-147140000D01*
X110714358Y-147325000D01*
X110677560Y-147510000D01*
X110677560Y-148410000D01*
X110714358Y-148595000D01*
X110677560Y-148780000D01*
X110677560Y-149680000D01*
X110714358Y-149865000D01*
X110677560Y-150050000D01*
X110677560Y-150950000D01*
X110726843Y-151197765D01*
X110867191Y-151407809D01*
X111077235Y-151548157D01*
X111325000Y-151597440D01*
X112675000Y-151597440D01*
X112902405Y-151552207D01*
X113080000Y-151729802D01*
X113080000Y-155727046D01*
X112789946Y-155920853D01*
X112468039Y-156402622D01*
X112355000Y-156970907D01*
X112355000Y-157029093D01*
X112468039Y-157597378D01*
X112789946Y-158079147D01*
X112843604Y-158115000D01*
X43000000Y-158115000D01*
X42661325Y-158182367D01*
X42437722Y-158331773D01*
X42156831Y-158215137D01*
X41844539Y-158214864D01*
X41750124Y-158253875D01*
X41656831Y-158215137D01*
X41344539Y-158214864D01*
X41250124Y-158253875D01*
X41156831Y-158215137D01*
X40844539Y-158214864D01*
X40750124Y-158253875D01*
X40656831Y-158215137D01*
X40344539Y-158214864D01*
X40250124Y-158253875D01*
X40156831Y-158215137D01*
X39844539Y-158214864D01*
X39562018Y-158331599D01*
X39338675Y-158182367D01*
X39000000Y-158115000D01*
X38087164Y-158115000D01*
X37962627Y-158090228D01*
X37930943Y-158069058D01*
X37909772Y-158037373D01*
X37867995Y-157827346D01*
X37735851Y-157508321D01*
X37710000Y-157482470D01*
X37710000Y-155355750D01*
X77655000Y-155355750D01*
X77655000Y-156366309D01*
X77751673Y-156599698D01*
X77930301Y-156778327D01*
X78163690Y-156875000D01*
X78654250Y-156875000D01*
X78813000Y-156716250D01*
X78813000Y-155197000D01*
X79067000Y-155197000D01*
X79067000Y-156716250D01*
X79225750Y-156875000D01*
X79716310Y-156875000D01*
X79949699Y-156778327D01*
X80128327Y-156599698D01*
X80225000Y-156366309D01*
X80225000Y-155355750D01*
X80066250Y-155197000D01*
X79067000Y-155197000D01*
X78813000Y-155197000D01*
X77813750Y-155197000D01*
X77655000Y-155355750D01*
X37710000Y-155355750D01*
X37710000Y-153773691D01*
X77655000Y-153773691D01*
X77655000Y-154784250D01*
X77813750Y-154943000D01*
X78813000Y-154943000D01*
X78813000Y-153423750D01*
X79067000Y-153423750D01*
X79067000Y-154943000D01*
X80066250Y-154943000D01*
X80225000Y-154784250D01*
X80225000Y-153773691D01*
X80128327Y-153540302D01*
X79949699Y-153361673D01*
X79716310Y-153265000D01*
X79225750Y-153265000D01*
X79067000Y-153423750D01*
X78813000Y-153423750D01*
X78654250Y-153265000D01*
X78163690Y-153265000D01*
X77930301Y-153361673D01*
X77751673Y-153540302D01*
X77655000Y-153773691D01*
X37710000Y-153773691D01*
X37710000Y-151007750D01*
X65875620Y-151007750D01*
X65875620Y-151297889D01*
X65972293Y-151531278D01*
X66150921Y-151709907D01*
X66384310Y-151806580D01*
X66725250Y-151806580D01*
X66884000Y-151647830D01*
X66884000Y-150849000D01*
X67138000Y-150849000D01*
X67138000Y-151647830D01*
X67296750Y-151806580D01*
X67637690Y-151806580D01*
X67871079Y-151709907D01*
X68049707Y-151531278D01*
X68146380Y-151297889D01*
X68146380Y-151007750D01*
X68542620Y-151007750D01*
X68542620Y-151297889D01*
X68639293Y-151531278D01*
X68817921Y-151709907D01*
X69051310Y-151806580D01*
X69392250Y-151806580D01*
X69551000Y-151647830D01*
X69551000Y-150849000D01*
X69805000Y-150849000D01*
X69805000Y-151647830D01*
X69963750Y-151806580D01*
X70304690Y-151806580D01*
X70538079Y-151709907D01*
X70716707Y-151531278D01*
X70813380Y-151297889D01*
X70813380Y-151007750D01*
X70654630Y-150849000D01*
X69805000Y-150849000D01*
X69551000Y-150849000D01*
X68701370Y-150849000D01*
X68542620Y-151007750D01*
X68146380Y-151007750D01*
X67987630Y-150849000D01*
X67138000Y-150849000D01*
X66884000Y-150849000D01*
X66034370Y-150849000D01*
X65875620Y-151007750D01*
X37710000Y-151007750D01*
X37710000Y-148768740D01*
X65863180Y-148768740D01*
X65863180Y-149667900D01*
X65912463Y-149915665D01*
X65948645Y-149969814D01*
X65875620Y-150146111D01*
X65875620Y-150436250D01*
X66034370Y-150595000D01*
X66884000Y-150595000D01*
X66884000Y-150575000D01*
X67138000Y-150575000D01*
X67138000Y-150595000D01*
X67987630Y-150595000D01*
X68146380Y-150436250D01*
X68146380Y-150146111D01*
X68073355Y-149969814D01*
X68109537Y-149915665D01*
X68158820Y-149667900D01*
X68158820Y-148768740D01*
X68109537Y-148520975D01*
X67969189Y-148310931D01*
X67771000Y-148178504D01*
X67771000Y-146819163D01*
X67868809Y-146753809D01*
X68009157Y-146543765D01*
X68058440Y-146296000D01*
X68058440Y-145496000D01*
X68009157Y-145248235D01*
X67907436Y-145096000D01*
X68009157Y-144943765D01*
X68058440Y-144696000D01*
X68058440Y-143896000D01*
X68009157Y-143648235D01*
X67910386Y-143500416D01*
X67951802Y-143459000D01*
X68899209Y-143459000D01*
X68806843Y-143597235D01*
X68757560Y-143845000D01*
X68757560Y-144645000D01*
X68806843Y-144892765D01*
X68908564Y-145045000D01*
X68806843Y-145197235D01*
X68757560Y-145445000D01*
X68757560Y-146245000D01*
X68806843Y-146492765D01*
X68947191Y-146702809D01*
X69045000Y-146768163D01*
X69045000Y-148147679D01*
X68929855Y-148170583D01*
X68719811Y-148310931D01*
X68579463Y-148520975D01*
X68530180Y-148768740D01*
X68530180Y-149667900D01*
X68579463Y-149915665D01*
X68615645Y-149969814D01*
X68542620Y-150146111D01*
X68542620Y-150436250D01*
X68701370Y-150595000D01*
X69551000Y-150595000D01*
X69551000Y-150575000D01*
X69805000Y-150575000D01*
X69805000Y-150595000D01*
X70654630Y-150595000D01*
X70813380Y-150436250D01*
X70813380Y-150146111D01*
X70740355Y-149969814D01*
X70776537Y-149915665D01*
X70825820Y-149667900D01*
X70825820Y-148768740D01*
X70776537Y-148520975D01*
X70636189Y-148310931D01*
X70565000Y-148263364D01*
X70565000Y-146768163D01*
X70662809Y-146702809D01*
X70803157Y-146492765D01*
X70832159Y-146346961D01*
X72982599Y-148497401D01*
X73229160Y-148662148D01*
X73520000Y-148720000D01*
X92659495Y-148720000D01*
X92647560Y-148780000D01*
X92647560Y-149680000D01*
X92684358Y-149865000D01*
X92647560Y-150050000D01*
X92647560Y-150950000D01*
X92696843Y-151197765D01*
X92837191Y-151407809D01*
X93047235Y-151548157D01*
X93295000Y-151597440D01*
X94645000Y-151597440D01*
X94892765Y-151548157D01*
X95102809Y-151407809D01*
X95158140Y-151325000D01*
X96172560Y-151325000D01*
X96172560Y-152675000D01*
X96221843Y-152922765D01*
X96362191Y-153132809D01*
X96572235Y-153273157D01*
X96820000Y-153322440D01*
X97720000Y-153322440D01*
X97905000Y-153285642D01*
X98090000Y-153322440D01*
X98990000Y-153322440D01*
X99175000Y-153285642D01*
X99360000Y-153322440D01*
X100260000Y-153322440D01*
X100445000Y-153285642D01*
X100630000Y-153322440D01*
X101530000Y-153322440D01*
X101715000Y-153285642D01*
X101900000Y-153322440D01*
X102800000Y-153322440D01*
X102985000Y-153285642D01*
X103170000Y-153322440D01*
X104070000Y-153322440D01*
X104255000Y-153285642D01*
X104440000Y-153322440D01*
X105340000Y-153322440D01*
X105525000Y-153285642D01*
X105710000Y-153322440D01*
X106610000Y-153322440D01*
X106795000Y-153285642D01*
X106980000Y-153322440D01*
X107880000Y-153322440D01*
X108065000Y-153285642D01*
X108250000Y-153322440D01*
X109150000Y-153322440D01*
X109397765Y-153273157D01*
X109607809Y-153132809D01*
X109748157Y-152922765D01*
X109797440Y-152675000D01*
X109797440Y-151325000D01*
X109748157Y-151077235D01*
X109607809Y-150867191D01*
X109397765Y-150726843D01*
X109150000Y-150677560D01*
X108250000Y-150677560D01*
X108065000Y-150714358D01*
X107880000Y-150677560D01*
X106980000Y-150677560D01*
X106795000Y-150714358D01*
X106610000Y-150677560D01*
X105710000Y-150677560D01*
X105525000Y-150714358D01*
X105340000Y-150677560D01*
X104440000Y-150677560D01*
X104255000Y-150714358D01*
X104070000Y-150677560D01*
X103170000Y-150677560D01*
X102985000Y-150714358D01*
X102800000Y-150677560D01*
X101900000Y-150677560D01*
X101715000Y-150714358D01*
X101530000Y-150677560D01*
X100630000Y-150677560D01*
X100445000Y-150714358D01*
X100260000Y-150677560D01*
X99360000Y-150677560D01*
X99175000Y-150714358D01*
X98990000Y-150677560D01*
X98090000Y-150677560D01*
X97905000Y-150714358D01*
X97720000Y-150677560D01*
X96820000Y-150677560D01*
X96572235Y-150726843D01*
X96362191Y-150867191D01*
X96221843Y-151077235D01*
X96172560Y-151325000D01*
X95158140Y-151325000D01*
X95243157Y-151197765D01*
X95292440Y-150950000D01*
X95292440Y-150050000D01*
X95255642Y-149865000D01*
X95292440Y-149680000D01*
X95292440Y-148780000D01*
X95255642Y-148595000D01*
X95292440Y-148410000D01*
X95292440Y-147510000D01*
X95255642Y-147325000D01*
X95292440Y-147140000D01*
X95292440Y-146240000D01*
X95255642Y-146055000D01*
X95292440Y-145870000D01*
X95292440Y-144970000D01*
X95255642Y-144785000D01*
X95292440Y-144600000D01*
X95292440Y-143700000D01*
X95255642Y-143515000D01*
X95292440Y-143330000D01*
X95292440Y-142430000D01*
X95255642Y-142245000D01*
X95292440Y-142060000D01*
X95292440Y-141160000D01*
X95255642Y-140975000D01*
X95292440Y-140790000D01*
X95292440Y-139890000D01*
X95255642Y-139705000D01*
X95292440Y-139520000D01*
X95292440Y-138700000D01*
X99622560Y-138700000D01*
X99622560Y-144700000D01*
X99671843Y-144947765D01*
X99812191Y-145157809D01*
X100022235Y-145298157D01*
X100270000Y-145347440D01*
X106270000Y-145347440D01*
X106517765Y-145298157D01*
X106727809Y-145157809D01*
X106868157Y-144947765D01*
X106917440Y-144700000D01*
X106917440Y-138700000D01*
X106868157Y-138452235D01*
X106727809Y-138242191D01*
X106517765Y-138101843D01*
X106270000Y-138052560D01*
X100270000Y-138052560D01*
X100022235Y-138101843D01*
X99812191Y-138242191D01*
X99671843Y-138452235D01*
X99622560Y-138700000D01*
X95292440Y-138700000D01*
X95292440Y-138620000D01*
X95255642Y-138435000D01*
X95292440Y-138250000D01*
X95292440Y-137350000D01*
X95280505Y-137290000D01*
X95999954Y-137290000D01*
X96122058Y-137585515D01*
X96412954Y-137876919D01*
X96793223Y-138034820D01*
X97204971Y-138035179D01*
X97585515Y-137877942D01*
X97876919Y-137587046D01*
X98034820Y-137206777D01*
X98035179Y-136795029D01*
X97877942Y-136414485D01*
X97587046Y-136123081D01*
X97206777Y-135965180D01*
X97026130Y-135965022D01*
X96820839Y-135827852D01*
X96530000Y-135770000D01*
X95280505Y-135770000D01*
X95292440Y-135710000D01*
X95292440Y-134810000D01*
X95255657Y-134625079D01*
X95280000Y-134566310D01*
X95280000Y-134275750D01*
X95121250Y-134117000D01*
X94097000Y-134117000D01*
X94097000Y-134137000D01*
X93843000Y-134137000D01*
X93843000Y-134117000D01*
X92818750Y-134117000D01*
X92660000Y-134275750D01*
X92660000Y-134375000D01*
X91931325Y-134375000D01*
X91931320Y-134374999D01*
X91809153Y-134399300D01*
X91194620Y-134399300D01*
X90946855Y-134448583D01*
X90736811Y-134588931D01*
X90721851Y-134611320D01*
X90694625Y-134611320D01*
X90694620Y-134611319D01*
X90355945Y-134678687D01*
X90068830Y-134870530D01*
X90068828Y-134870533D01*
X89824361Y-135115000D01*
X89532253Y-135115000D01*
X89499857Y-134952135D01*
X89359509Y-134742091D01*
X89149465Y-134601743D01*
X88901700Y-134552460D01*
X87098300Y-134552460D01*
X86850535Y-134601743D01*
X86640491Y-134742091D01*
X86500143Y-134952135D01*
X86467747Y-135115000D01*
X85973149Y-135115000D01*
X85958189Y-135092611D01*
X85748145Y-134952263D01*
X85500380Y-134902980D01*
X84499620Y-134902980D01*
X84251855Y-134952263D01*
X84041811Y-135092611D01*
X83901463Y-135302655D01*
X83852180Y-135550420D01*
X83852180Y-136449580D01*
X83901463Y-136697345D01*
X83937645Y-136751494D01*
X83864620Y-136927791D01*
X83864620Y-137217930D01*
X84023370Y-137376680D01*
X84873000Y-137376680D01*
X84873000Y-137356680D01*
X85127000Y-137356680D01*
X85127000Y-137376680D01*
X85976630Y-137376680D01*
X86135380Y-137217930D01*
X86135380Y-136927791D01*
X86117655Y-136885000D01*
X86467747Y-136885000D01*
X86500143Y-137047865D01*
X86640491Y-137257909D01*
X86850535Y-137398257D01*
X86868397Y-137401810D01*
X86738601Y-137455573D01*
X86559973Y-137634202D01*
X86463300Y-137867591D01*
X86463300Y-138508250D01*
X86622050Y-138667000D01*
X87873000Y-138667000D01*
X87873000Y-138647000D01*
X88127000Y-138647000D01*
X88127000Y-138667000D01*
X88147000Y-138667000D01*
X88147000Y-138921000D01*
X88127000Y-138921000D01*
X88127000Y-140070350D01*
X88285750Y-140229100D01*
X89028010Y-140229100D01*
X89231000Y-140145019D01*
X89231000Y-140734415D01*
X89081180Y-141095223D01*
X89080821Y-141506971D01*
X89238058Y-141887515D01*
X89528954Y-142178919D01*
X89909223Y-142336820D01*
X90320971Y-142337179D01*
X90701515Y-142179942D01*
X90992919Y-141889046D01*
X91150820Y-141508777D01*
X91151179Y-141097029D01*
X91001000Y-140733567D01*
X91001000Y-138058507D01*
X91194620Y-138097020D01*
X92195380Y-138097020D01*
X92443145Y-138047737D01*
X92647560Y-137911150D01*
X92647560Y-138250000D01*
X92684358Y-138435000D01*
X92647560Y-138620000D01*
X92647560Y-139520000D01*
X92684358Y-139705000D01*
X92647560Y-139890000D01*
X92647560Y-140790000D01*
X92684358Y-140975000D01*
X92647560Y-141160000D01*
X92647560Y-142060000D01*
X92684358Y-142245000D01*
X92647560Y-142430000D01*
X92647560Y-143330000D01*
X92684358Y-143515000D01*
X92647560Y-143700000D01*
X92647560Y-144600000D01*
X92659495Y-144660000D01*
X88204460Y-144660000D01*
X88204460Y-144652780D01*
X88155177Y-144405015D01*
X88014829Y-144194971D01*
X87804785Y-144054623D01*
X87557020Y-144005340D01*
X86556260Y-144005340D01*
X86308495Y-144054623D01*
X86098451Y-144194971D01*
X86054195Y-144261205D01*
X85919990Y-144127000D01*
X85070360Y-144127000D01*
X85070360Y-144775970D01*
X85229110Y-144934720D01*
X85570050Y-144934720D01*
X85803439Y-144838047D01*
X85908820Y-144732665D01*
X85908820Y-145252220D01*
X85958103Y-145499985D01*
X86098451Y-145710029D01*
X86308495Y-145850377D01*
X86556260Y-145899660D01*
X86928998Y-145899660D01*
X86959338Y-145930000D01*
X74990802Y-145930000D01*
X73346552Y-144285750D01*
X83807980Y-144285750D01*
X83807980Y-144426029D01*
X83904653Y-144659418D01*
X84083281Y-144838047D01*
X84316670Y-144934720D01*
X84657610Y-144934720D01*
X84816360Y-144775970D01*
X84816360Y-144127000D01*
X83966730Y-144127000D01*
X83807980Y-144285750D01*
X73346552Y-144285750D01*
X72634773Y-143573971D01*
X83807980Y-143573971D01*
X83807980Y-143714250D01*
X83966730Y-143873000D01*
X84816360Y-143873000D01*
X84816360Y-143224030D01*
X84657610Y-143065280D01*
X84316670Y-143065280D01*
X84083281Y-143161953D01*
X83904653Y-143340582D01*
X83807980Y-143573971D01*
X72634773Y-143573971D01*
X71222401Y-142161599D01*
X70975839Y-141996852D01*
X70685000Y-141939000D01*
X67637000Y-141939000D01*
X67346161Y-141996852D01*
X67099599Y-142161599D01*
X66473599Y-142787599D01*
X66308852Y-143034161D01*
X66251000Y-143325000D01*
X66251000Y-143372837D01*
X66153191Y-143438191D01*
X66012843Y-143648235D01*
X65963560Y-143896000D01*
X65963560Y-144696000D01*
X66012843Y-144943765D01*
X66114564Y-145096000D01*
X66012843Y-145248235D01*
X65963560Y-145496000D01*
X65963560Y-146296000D01*
X66012843Y-146543765D01*
X66153191Y-146753809D01*
X66251000Y-146819163D01*
X66251000Y-148178504D01*
X66052811Y-148310931D01*
X65912463Y-148520975D01*
X65863180Y-148768740D01*
X37710000Y-148768740D01*
X37710000Y-136934971D01*
X73967821Y-136934971D01*
X74125058Y-137315515D01*
X74415954Y-137606919D01*
X74796223Y-137764820D01*
X75207971Y-137765179D01*
X75571433Y-137615000D01*
X77642560Y-137615000D01*
X77642560Y-137900000D01*
X77691843Y-138147765D01*
X77832191Y-138357809D01*
X78042235Y-138498157D01*
X78055000Y-138500696D01*
X78055000Y-139269995D01*
X78054999Y-139270000D01*
X78087262Y-139432191D01*
X78122367Y-139608675D01*
X78228667Y-139767765D01*
X78314210Y-139895790D01*
X79584208Y-141165787D01*
X79584210Y-141165790D01*
X79788064Y-141302000D01*
X79871325Y-141357633D01*
X80210000Y-141425001D01*
X80210005Y-141425000D01*
X84982280Y-141425000D01*
X85997834Y-142440553D01*
X85958103Y-142500015D01*
X85908820Y-142747780D01*
X85908820Y-143267335D01*
X85803439Y-143161953D01*
X85570050Y-143065280D01*
X85229110Y-143065280D01*
X85070360Y-143224030D01*
X85070360Y-143873000D01*
X85919990Y-143873000D01*
X86054195Y-143738795D01*
X86098451Y-143805029D01*
X86308495Y-143945377D01*
X86556260Y-143994660D01*
X87557020Y-143994660D01*
X87804785Y-143945377D01*
X88014829Y-143805029D01*
X88155177Y-143594985D01*
X88204460Y-143347220D01*
X88204460Y-142747780D01*
X88155177Y-142500015D01*
X88014829Y-142289971D01*
X87940101Y-142240039D01*
X87885450Y-141965296D01*
X87874273Y-141909105D01*
X87682430Y-141621990D01*
X87682427Y-141621988D01*
X85974650Y-139914210D01*
X85836734Y-139822058D01*
X85687535Y-139722367D01*
X85631344Y-139711190D01*
X85348860Y-139654999D01*
X85348855Y-139655000D01*
X80576579Y-139655000D01*
X80001330Y-139079750D01*
X86463300Y-139079750D01*
X86463300Y-139720409D01*
X86559973Y-139953798D01*
X86738601Y-140132427D01*
X86971990Y-140229100D01*
X87714250Y-140229100D01*
X87873000Y-140070350D01*
X87873000Y-138921000D01*
X86622050Y-138921000D01*
X86463300Y-139079750D01*
X80001330Y-139079750D01*
X79825000Y-138903420D01*
X79825000Y-138500696D01*
X79837765Y-138498157D01*
X80047809Y-138357809D01*
X80188157Y-138147765D01*
X80237440Y-137900000D01*
X80237440Y-137789430D01*
X83864620Y-137789430D01*
X83864620Y-138079569D01*
X83961293Y-138312958D01*
X84139921Y-138491587D01*
X84373310Y-138588260D01*
X84714250Y-138588260D01*
X84873000Y-138429510D01*
X84873000Y-137630680D01*
X85127000Y-137630680D01*
X85127000Y-138429510D01*
X85285750Y-138588260D01*
X85626690Y-138588260D01*
X85860079Y-138491587D01*
X86038707Y-138312958D01*
X86135380Y-138079569D01*
X86135380Y-137789430D01*
X85976630Y-137630680D01*
X85127000Y-137630680D01*
X84873000Y-137630680D01*
X84023370Y-137630680D01*
X83864620Y-137789430D01*
X80237440Y-137789430D01*
X80237440Y-135560000D01*
X80188157Y-135312235D01*
X80047809Y-135102191D01*
X79837765Y-134961843D01*
X79590000Y-134912560D01*
X78290000Y-134912560D01*
X78042235Y-134961843D01*
X77832191Y-135102191D01*
X77691843Y-135312235D01*
X77642560Y-135560000D01*
X77642560Y-135845000D01*
X75570585Y-135845000D01*
X75209777Y-135695180D01*
X74798029Y-135694821D01*
X74417485Y-135852058D01*
X74126081Y-136142954D01*
X73968180Y-136523223D01*
X73967821Y-136934971D01*
X37710000Y-136934971D01*
X37710000Y-134069930D01*
X37744926Y-133894345D01*
X37804774Y-133804775D01*
X37894345Y-133744926D01*
X38069930Y-133710000D01*
X39000000Y-133710000D01*
X39271705Y-133655954D01*
X39295582Y-133640000D01*
X39529694Y-133640000D01*
X39554753Y-133665103D01*
G36*
X115620000Y-142099802D02*
X115620000Y-155727046D01*
X115329946Y-155920853D01*
X115110000Y-156250026D01*
X114890054Y-155920853D01*
X114600000Y-155727046D01*
X114600000Y-151415000D01*
X114542148Y-151124161D01*
X114542148Y-151124160D01*
X114377401Y-150877599D01*
X113462401Y-149962599D01*
X113289242Y-149846898D01*
X113322440Y-149680000D01*
X113322440Y-148780000D01*
X113285642Y-148595000D01*
X113322440Y-148410000D01*
X113322440Y-147510000D01*
X113285642Y-147325000D01*
X113322440Y-147140000D01*
X113322440Y-146240000D01*
X113285642Y-146055000D01*
X113322440Y-145870000D01*
X113322440Y-144970000D01*
X113285642Y-144785000D01*
X113322440Y-144600000D01*
X113322440Y-143700000D01*
X113285642Y-143515000D01*
X113322440Y-143330000D01*
X113322440Y-142430000D01*
X113285642Y-142245000D01*
X113322440Y-142060000D01*
X113322440Y-141160000D01*
X113285642Y-140975000D01*
X113322440Y-140790000D01*
X113322440Y-139890000D01*
X113310505Y-139830000D01*
X113350198Y-139830000D01*
X115620000Y-142099802D01*
X115620000Y-142099802D01*
G37*
X115620000Y-142099802D02*
X115620000Y-155727046D01*
X115329946Y-155920853D01*
X115110000Y-156250026D01*
X114890054Y-155920853D01*
X114600000Y-155727046D01*
X114600000Y-151415000D01*
X114542148Y-151124161D01*
X114542148Y-151124160D01*
X114377401Y-150877599D01*
X113462401Y-149962599D01*
X113289242Y-149846898D01*
X113322440Y-149680000D01*
X113322440Y-148780000D01*
X113285642Y-148595000D01*
X113322440Y-148410000D01*
X113322440Y-147510000D01*
X113285642Y-147325000D01*
X113322440Y-147140000D01*
X113322440Y-146240000D01*
X113285642Y-146055000D01*
X113322440Y-145870000D01*
X113322440Y-144970000D01*
X113285642Y-144785000D01*
X113322440Y-144600000D01*
X113322440Y-143700000D01*
X113285642Y-143515000D01*
X113322440Y-143330000D01*
X113322440Y-142430000D01*
X113285642Y-142245000D01*
X113322440Y-142060000D01*
X113322440Y-141160000D01*
X113285642Y-140975000D01*
X113322440Y-140790000D01*
X113322440Y-139890000D01*
X113310505Y-139830000D01*
X113350198Y-139830000D01*
X115620000Y-142099802D01*
G36*
X118160000Y-142734802D02*
X118160000Y-155727046D01*
X117869946Y-155920853D01*
X117650000Y-156250026D01*
X117430054Y-155920853D01*
X117140000Y-155727046D01*
X117140000Y-141785000D01*
X117122569Y-141697371D01*
X118160000Y-142734802D01*
X118160000Y-142734802D01*
G37*
X118160000Y-142734802D02*
X118160000Y-155727046D01*
X117869946Y-155920853D01*
X117650000Y-156250026D01*
X117430054Y-155920853D01*
X117140000Y-155727046D01*
X117140000Y-141785000D01*
X117122569Y-141697371D01*
X118160000Y-142734802D01*
G36*
X39554753Y-105165103D02*
X39843169Y-105284863D01*
X40155461Y-105285136D01*
X40249876Y-105246125D01*
X40343169Y-105284863D01*
X40655461Y-105285136D01*
X40749876Y-105246125D01*
X40843169Y-105284863D01*
X41155461Y-105285136D01*
X41249876Y-105246125D01*
X41343169Y-105284863D01*
X41655461Y-105285136D01*
X41749876Y-105246125D01*
X41843169Y-105284863D01*
X42155461Y-105285136D01*
X42437982Y-105168401D01*
X42661325Y-105317633D01*
X43000000Y-105385000D01*
X121000000Y-105385000D01*
X121338675Y-105317633D01*
X121562278Y-105168227D01*
X121843169Y-105284863D01*
X122155461Y-105285136D01*
X122249876Y-105246125D01*
X122343169Y-105284863D01*
X122655461Y-105285136D01*
X122749876Y-105246125D01*
X122843169Y-105284863D01*
X123155461Y-105285136D01*
X123249876Y-105246125D01*
X123343169Y-105284863D01*
X123655461Y-105285136D01*
X123749876Y-105246125D01*
X123843169Y-105284863D01*
X124155461Y-105285136D01*
X124437982Y-105168401D01*
X124661325Y-105317633D01*
X125000000Y-105385000D01*
X125912836Y-105385000D01*
X126037373Y-105409772D01*
X126069058Y-105430943D01*
X126090228Y-105462627D01*
X126115000Y-105587164D01*
X126115000Y-129412836D01*
X126090228Y-129537373D01*
X126069058Y-129569057D01*
X126037373Y-129590228D01*
X125912836Y-129615000D01*
X125427552Y-129615000D01*
X125485000Y-129476309D01*
X125485000Y-128785750D01*
X125326250Y-128627000D01*
X124127000Y-128627000D01*
X124127000Y-128647000D01*
X123873000Y-128647000D01*
X123873000Y-128627000D01*
X123853000Y-128627000D01*
X123853000Y-128373000D01*
X123873000Y-128373000D01*
X123873000Y-127173750D01*
X124127000Y-127173750D01*
X124127000Y-128373000D01*
X125326250Y-128373000D01*
X125485000Y-128214250D01*
X125485000Y-127523691D01*
X125388327Y-127290302D01*
X125209699Y-127111673D01*
X124976310Y-127015000D01*
X124285750Y-127015000D01*
X124127000Y-127173750D01*
X123873000Y-127173750D01*
X123714250Y-127015000D01*
X123023690Y-127015000D01*
X122790301Y-127111673D01*
X122611673Y-127290302D01*
X122539403Y-127464777D01*
X122510054Y-127420853D01*
X122220000Y-127227046D01*
X122220000Y-113793000D01*
X122162148Y-113502161D01*
X121997401Y-113255599D01*
X117059035Y-108317233D01*
X117059179Y-108152029D01*
X116901942Y-107771485D01*
X116611046Y-107480081D01*
X116230777Y-107322180D01*
X115819029Y-107321821D01*
X115438485Y-107479058D01*
X115147081Y-107769954D01*
X114989180Y-108150223D01*
X114988821Y-108561971D01*
X115146058Y-108942515D01*
X115436954Y-109233919D01*
X115817223Y-109391820D01*
X115984164Y-109391966D01*
X120700000Y-114107802D01*
X120700000Y-127227046D01*
X120409946Y-127420853D01*
X120190000Y-127750026D01*
X119970054Y-127420853D01*
X119680000Y-127227046D01*
X119680000Y-113920000D01*
X119622148Y-113629161D01*
X119457401Y-113382599D01*
X114837401Y-108762599D01*
X114590839Y-108597852D01*
X114300000Y-108540000D01*
X113310505Y-108540000D01*
X113322440Y-108480000D01*
X113322440Y-107580000D01*
X113285642Y-107395000D01*
X113322440Y-107210000D01*
X113322440Y-106310000D01*
X113285657Y-106125079D01*
X113310000Y-106066310D01*
X113310000Y-105775750D01*
X113151250Y-105617000D01*
X112127000Y-105617000D01*
X112127000Y-105637000D01*
X111873000Y-105637000D01*
X111873000Y-105617000D01*
X110848750Y-105617000D01*
X110690000Y-105775750D01*
X110690000Y-106066310D01*
X110714343Y-106125079D01*
X110677560Y-106310000D01*
X110677560Y-107210000D01*
X110714358Y-107395000D01*
X110677560Y-107580000D01*
X110677560Y-108480000D01*
X110714358Y-108665000D01*
X110677560Y-108850000D01*
X110677560Y-109750000D01*
X110714358Y-109935000D01*
X110677560Y-110120000D01*
X110677560Y-111020000D01*
X110714358Y-111205000D01*
X110677560Y-111390000D01*
X110677560Y-112290000D01*
X110714358Y-112475000D01*
X110677560Y-112660000D01*
X110677560Y-113560000D01*
X110714358Y-113745000D01*
X110677560Y-113930000D01*
X110677560Y-114830000D01*
X110714358Y-115015000D01*
X110677560Y-115200000D01*
X110677560Y-116100000D01*
X110714358Y-116285000D01*
X110677560Y-116470000D01*
X110677560Y-117370000D01*
X110714358Y-117555000D01*
X110677560Y-117740000D01*
X110677560Y-118640000D01*
X110714358Y-118825000D01*
X110677560Y-119010000D01*
X110677560Y-119910000D01*
X110714358Y-120095000D01*
X110677560Y-120280000D01*
X110677560Y-121180000D01*
X110714358Y-121365000D01*
X110677560Y-121550000D01*
X110677560Y-122450000D01*
X110726843Y-122697765D01*
X110867191Y-122907809D01*
X111077235Y-123048157D01*
X111325000Y-123097440D01*
X112675000Y-123097440D01*
X112902405Y-123052207D01*
X113080000Y-123229802D01*
X113080000Y-127227046D01*
X112789946Y-127420853D01*
X112468039Y-127902622D01*
X112355000Y-128470907D01*
X112355000Y-128529093D01*
X112468039Y-129097378D01*
X112789946Y-129579147D01*
X112843604Y-129615000D01*
X43000000Y-129615000D01*
X42661325Y-129682367D01*
X42437722Y-129831773D01*
X42156831Y-129715137D01*
X41844539Y-129714864D01*
X41750124Y-129753875D01*
X41656831Y-129715137D01*
X41344539Y-129714864D01*
X41250124Y-129753875D01*
X41156831Y-129715137D01*
X40844539Y-129714864D01*
X40750124Y-129753875D01*
X40656831Y-129715137D01*
X40344539Y-129714864D01*
X40250124Y-129753875D01*
X40156831Y-129715137D01*
X39844539Y-129714864D01*
X39562018Y-129831599D01*
X39338675Y-129682367D01*
X39000000Y-129615000D01*
X38087164Y-129615000D01*
X37962627Y-129590228D01*
X37930943Y-129569058D01*
X37909772Y-129537373D01*
X37867995Y-129327346D01*
X37735851Y-129008321D01*
X37710000Y-128982470D01*
X37710000Y-126855750D01*
X77655000Y-126855750D01*
X77655000Y-127866309D01*
X77751673Y-128099698D01*
X77930301Y-128278327D01*
X78163690Y-128375000D01*
X78654250Y-128375000D01*
X78813000Y-128216250D01*
X78813000Y-126697000D01*
X79067000Y-126697000D01*
X79067000Y-128216250D01*
X79225750Y-128375000D01*
X79716310Y-128375000D01*
X79949699Y-128278327D01*
X80128327Y-128099698D01*
X80225000Y-127866309D01*
X80225000Y-126855750D01*
X80066250Y-126697000D01*
X79067000Y-126697000D01*
X78813000Y-126697000D01*
X77813750Y-126697000D01*
X77655000Y-126855750D01*
X37710000Y-126855750D01*
X37710000Y-125273691D01*
X77655000Y-125273691D01*
X77655000Y-126284250D01*
X77813750Y-126443000D01*
X78813000Y-126443000D01*
X78813000Y-124923750D01*
X79067000Y-124923750D01*
X79067000Y-126443000D01*
X80066250Y-126443000D01*
X80225000Y-126284250D01*
X80225000Y-125273691D01*
X80128327Y-125040302D01*
X79949699Y-124861673D01*
X79716310Y-124765000D01*
X79225750Y-124765000D01*
X79067000Y-124923750D01*
X78813000Y-124923750D01*
X78654250Y-124765000D01*
X78163690Y-124765000D01*
X77930301Y-124861673D01*
X77751673Y-125040302D01*
X77655000Y-125273691D01*
X37710000Y-125273691D01*
X37710000Y-122507750D01*
X65875620Y-122507750D01*
X65875620Y-122797889D01*
X65972293Y-123031278D01*
X66150921Y-123209907D01*
X66384310Y-123306580D01*
X66725250Y-123306580D01*
X66884000Y-123147830D01*
X66884000Y-122349000D01*
X67138000Y-122349000D01*
X67138000Y-123147830D01*
X67296750Y-123306580D01*
X67637690Y-123306580D01*
X67871079Y-123209907D01*
X68049707Y-123031278D01*
X68146380Y-122797889D01*
X68146380Y-122507750D01*
X68542620Y-122507750D01*
X68542620Y-122797889D01*
X68639293Y-123031278D01*
X68817921Y-123209907D01*
X69051310Y-123306580D01*
X69392250Y-123306580D01*
X69551000Y-123147830D01*
X69551000Y-122349000D01*
X69805000Y-122349000D01*
X69805000Y-123147830D01*
X69963750Y-123306580D01*
X70304690Y-123306580D01*
X70538079Y-123209907D01*
X70716707Y-123031278D01*
X70813380Y-122797889D01*
X70813380Y-122507750D01*
X70654630Y-122349000D01*
X69805000Y-122349000D01*
X69551000Y-122349000D01*
X68701370Y-122349000D01*
X68542620Y-122507750D01*
X68146380Y-122507750D01*
X67987630Y-122349000D01*
X67138000Y-122349000D01*
X66884000Y-122349000D01*
X66034370Y-122349000D01*
X65875620Y-122507750D01*
X37710000Y-122507750D01*
X37710000Y-120268740D01*
X65863180Y-120268740D01*
X65863180Y-121167900D01*
X65912463Y-121415665D01*
X65948645Y-121469814D01*
X65875620Y-121646111D01*
X65875620Y-121936250D01*
X66034370Y-122095000D01*
X66884000Y-122095000D01*
X66884000Y-122075000D01*
X67138000Y-122075000D01*
X67138000Y-122095000D01*
X67987630Y-122095000D01*
X68146380Y-121936250D01*
X68146380Y-121646111D01*
X68073355Y-121469814D01*
X68109537Y-121415665D01*
X68158820Y-121167900D01*
X68158820Y-120268740D01*
X68109537Y-120020975D01*
X67969189Y-119810931D01*
X67771000Y-119678504D01*
X67771000Y-118319163D01*
X67868809Y-118253809D01*
X68009157Y-118043765D01*
X68058440Y-117796000D01*
X68058440Y-116996000D01*
X68009157Y-116748235D01*
X67907436Y-116596000D01*
X68009157Y-116443765D01*
X68058440Y-116196000D01*
X68058440Y-115396000D01*
X68009157Y-115148235D01*
X67910386Y-115000416D01*
X67951802Y-114959000D01*
X68899209Y-114959000D01*
X68806843Y-115097235D01*
X68757560Y-115345000D01*
X68757560Y-116145000D01*
X68806843Y-116392765D01*
X68908564Y-116545000D01*
X68806843Y-116697235D01*
X68757560Y-116945000D01*
X68757560Y-117745000D01*
X68806843Y-117992765D01*
X68947191Y-118202809D01*
X69045000Y-118268163D01*
X69045000Y-119647679D01*
X68929855Y-119670583D01*
X68719811Y-119810931D01*
X68579463Y-120020975D01*
X68530180Y-120268740D01*
X68530180Y-121167900D01*
X68579463Y-121415665D01*
X68615645Y-121469814D01*
X68542620Y-121646111D01*
X68542620Y-121936250D01*
X68701370Y-122095000D01*
X69551000Y-122095000D01*
X69551000Y-122075000D01*
X69805000Y-122075000D01*
X69805000Y-122095000D01*
X70654630Y-122095000D01*
X70813380Y-121936250D01*
X70813380Y-121646111D01*
X70740355Y-121469814D01*
X70776537Y-121415665D01*
X70825820Y-121167900D01*
X70825820Y-120268740D01*
X70776537Y-120020975D01*
X70636189Y-119810931D01*
X70565000Y-119763364D01*
X70565000Y-118268163D01*
X70662809Y-118202809D01*
X70803157Y-117992765D01*
X70832159Y-117846961D01*
X72982599Y-119997401D01*
X73229160Y-120162148D01*
X73520000Y-120220000D01*
X92659495Y-120220000D01*
X92647560Y-120280000D01*
X92647560Y-121180000D01*
X92684358Y-121365000D01*
X92647560Y-121550000D01*
X92647560Y-122450000D01*
X92696843Y-122697765D01*
X92837191Y-122907809D01*
X93047235Y-123048157D01*
X93295000Y-123097440D01*
X94645000Y-123097440D01*
X94892765Y-123048157D01*
X95102809Y-122907809D01*
X95158140Y-122825000D01*
X96172560Y-122825000D01*
X96172560Y-124175000D01*
X96221843Y-124422765D01*
X96362191Y-124632809D01*
X96572235Y-124773157D01*
X96820000Y-124822440D01*
X97720000Y-124822440D01*
X97905000Y-124785642D01*
X98090000Y-124822440D01*
X98990000Y-124822440D01*
X99175000Y-124785642D01*
X99360000Y-124822440D01*
X100260000Y-124822440D01*
X100445000Y-124785642D01*
X100630000Y-124822440D01*
X101530000Y-124822440D01*
X101715000Y-124785642D01*
X101900000Y-124822440D01*
X102800000Y-124822440D01*
X102985000Y-124785642D01*
X103170000Y-124822440D01*
X104070000Y-124822440D01*
X104255000Y-124785642D01*
X104440000Y-124822440D01*
X105340000Y-124822440D01*
X105525000Y-124785642D01*
X105710000Y-124822440D01*
X106610000Y-124822440D01*
X106795000Y-124785642D01*
X106980000Y-124822440D01*
X107880000Y-124822440D01*
X108065000Y-124785642D01*
X108250000Y-124822440D01*
X109150000Y-124822440D01*
X109397765Y-124773157D01*
X109607809Y-124632809D01*
X109748157Y-124422765D01*
X109797440Y-124175000D01*
X109797440Y-122825000D01*
X109748157Y-122577235D01*
X109607809Y-122367191D01*
X109397765Y-122226843D01*
X109150000Y-122177560D01*
X108250000Y-122177560D01*
X108065000Y-122214358D01*
X107880000Y-122177560D01*
X106980000Y-122177560D01*
X106795000Y-122214358D01*
X106610000Y-122177560D01*
X105710000Y-122177560D01*
X105525000Y-122214358D01*
X105340000Y-122177560D01*
X104440000Y-122177560D01*
X104255000Y-122214358D01*
X104070000Y-122177560D01*
X103170000Y-122177560D01*
X102985000Y-122214358D01*
X102800000Y-122177560D01*
X101900000Y-122177560D01*
X101715000Y-122214358D01*
X101530000Y-122177560D01*
X100630000Y-122177560D01*
X100445000Y-122214358D01*
X100260000Y-122177560D01*
X99360000Y-122177560D01*
X99175000Y-122214358D01*
X98990000Y-122177560D01*
X98090000Y-122177560D01*
X97905000Y-122214358D01*
X97720000Y-122177560D01*
X96820000Y-122177560D01*
X96572235Y-122226843D01*
X96362191Y-122367191D01*
X96221843Y-122577235D01*
X96172560Y-122825000D01*
X95158140Y-122825000D01*
X95243157Y-122697765D01*
X95292440Y-122450000D01*
X95292440Y-121550000D01*
X95255642Y-121365000D01*
X95292440Y-121180000D01*
X95292440Y-120280000D01*
X95255642Y-120095000D01*
X95292440Y-119910000D01*
X95292440Y-119010000D01*
X95255642Y-118825000D01*
X95292440Y-118640000D01*
X95292440Y-117740000D01*
X95255642Y-117555000D01*
X95292440Y-117370000D01*
X95292440Y-116470000D01*
X95255642Y-116285000D01*
X95292440Y-116100000D01*
X95292440Y-115200000D01*
X95255642Y-115015000D01*
X95292440Y-114830000D01*
X95292440Y-113930000D01*
X95255642Y-113745000D01*
X95292440Y-113560000D01*
X95292440Y-112660000D01*
X95255642Y-112475000D01*
X95292440Y-112290000D01*
X95292440Y-111390000D01*
X95255642Y-111205000D01*
X95292440Y-111020000D01*
X95292440Y-110200000D01*
X99622560Y-110200000D01*
X99622560Y-116200000D01*
X99671843Y-116447765D01*
X99812191Y-116657809D01*
X100022235Y-116798157D01*
X100270000Y-116847440D01*
X106270000Y-116847440D01*
X106517765Y-116798157D01*
X106727809Y-116657809D01*
X106868157Y-116447765D01*
X106917440Y-116200000D01*
X106917440Y-110200000D01*
X106868157Y-109952235D01*
X106727809Y-109742191D01*
X106517765Y-109601843D01*
X106270000Y-109552560D01*
X100270000Y-109552560D01*
X100022235Y-109601843D01*
X99812191Y-109742191D01*
X99671843Y-109952235D01*
X99622560Y-110200000D01*
X95292440Y-110200000D01*
X95292440Y-110120000D01*
X95255642Y-109935000D01*
X95292440Y-109750000D01*
X95292440Y-108850000D01*
X95280505Y-108790000D01*
X95999954Y-108790000D01*
X96122058Y-109085515D01*
X96412954Y-109376919D01*
X96793223Y-109534820D01*
X97204971Y-109535179D01*
X97585515Y-109377942D01*
X97876919Y-109087046D01*
X98034820Y-108706777D01*
X98035179Y-108295029D01*
X97877942Y-107914485D01*
X97587046Y-107623081D01*
X97206777Y-107465180D01*
X97026130Y-107465022D01*
X96820839Y-107327852D01*
X96530000Y-107270000D01*
X95280505Y-107270000D01*
X95292440Y-107210000D01*
X95292440Y-106310000D01*
X95255657Y-106125079D01*
X95280000Y-106066310D01*
X95280000Y-105775750D01*
X95121250Y-105617000D01*
X94097000Y-105617000D01*
X94097000Y-105637000D01*
X93843000Y-105637000D01*
X93843000Y-105617000D01*
X92818750Y-105617000D01*
X92660000Y-105775750D01*
X92660000Y-105875000D01*
X91931325Y-105875000D01*
X91931320Y-105874999D01*
X91809153Y-105899300D01*
X91194620Y-105899300D01*
X90946855Y-105948583D01*
X90736811Y-106088931D01*
X90721851Y-106111320D01*
X90694625Y-106111320D01*
X90694620Y-106111319D01*
X90355945Y-106178687D01*
X90068830Y-106370530D01*
X90068828Y-106370533D01*
X89824361Y-106615000D01*
X89532253Y-106615000D01*
X89499857Y-106452135D01*
X89359509Y-106242091D01*
X89149465Y-106101743D01*
X88901700Y-106052460D01*
X87098300Y-106052460D01*
X86850535Y-106101743D01*
X86640491Y-106242091D01*
X86500143Y-106452135D01*
X86467747Y-106615000D01*
X85973149Y-106615000D01*
X85958189Y-106592611D01*
X85748145Y-106452263D01*
X85500380Y-106402980D01*
X84499620Y-106402980D01*
X84251855Y-106452263D01*
X84041811Y-106592611D01*
X83901463Y-106802655D01*
X83852180Y-107050420D01*
X83852180Y-107949580D01*
X83901463Y-108197345D01*
X83937645Y-108251494D01*
X83864620Y-108427791D01*
X83864620Y-108717930D01*
X84023370Y-108876680D01*
X84873000Y-108876680D01*
X84873000Y-108856680D01*
X85127000Y-108856680D01*
X85127000Y-108876680D01*
X85976630Y-108876680D01*
X86135380Y-108717930D01*
X86135380Y-108427791D01*
X86117655Y-108385000D01*
X86467747Y-108385000D01*
X86500143Y-108547865D01*
X86640491Y-108757909D01*
X86850535Y-108898257D01*
X86868397Y-108901810D01*
X86738601Y-108955573D01*
X86559973Y-109134202D01*
X86463300Y-109367591D01*
X86463300Y-110008250D01*
X86622050Y-110167000D01*
X87873000Y-110167000D01*
X87873000Y-110147000D01*
X88127000Y-110147000D01*
X88127000Y-110167000D01*
X88147000Y-110167000D01*
X88147000Y-110421000D01*
X88127000Y-110421000D01*
X88127000Y-111570350D01*
X88285750Y-111729100D01*
X89028010Y-111729100D01*
X89231000Y-111645019D01*
X89231000Y-112234415D01*
X89081180Y-112595223D01*
X89080821Y-113006971D01*
X89238058Y-113387515D01*
X89528954Y-113678919D01*
X89909223Y-113836820D01*
X90320971Y-113837179D01*
X90701515Y-113679942D01*
X90992919Y-113389046D01*
X91150820Y-113008777D01*
X91151179Y-112597029D01*
X91001000Y-112233567D01*
X91001000Y-109558507D01*
X91194620Y-109597020D01*
X92195380Y-109597020D01*
X92443145Y-109547737D01*
X92647560Y-109411150D01*
X92647560Y-109750000D01*
X92684358Y-109935000D01*
X92647560Y-110120000D01*
X92647560Y-111020000D01*
X92684358Y-111205000D01*
X92647560Y-111390000D01*
X92647560Y-112290000D01*
X92684358Y-112475000D01*
X92647560Y-112660000D01*
X92647560Y-113560000D01*
X92684358Y-113745000D01*
X92647560Y-113930000D01*
X92647560Y-114830000D01*
X92684358Y-115015000D01*
X92647560Y-115200000D01*
X92647560Y-116100000D01*
X92659495Y-116160000D01*
X88204460Y-116160000D01*
X88204460Y-116152780D01*
X88155177Y-115905015D01*
X88014829Y-115694971D01*
X87804785Y-115554623D01*
X87557020Y-115505340D01*
X86556260Y-115505340D01*
X86308495Y-115554623D01*
X86098451Y-115694971D01*
X86054195Y-115761205D01*
X85919990Y-115627000D01*
X85070360Y-115627000D01*
X85070360Y-116275970D01*
X85229110Y-116434720D01*
X85570050Y-116434720D01*
X85803439Y-116338047D01*
X85908820Y-116232665D01*
X85908820Y-116752220D01*
X85958103Y-116999985D01*
X86098451Y-117210029D01*
X86308495Y-117350377D01*
X86556260Y-117399660D01*
X86928998Y-117399660D01*
X86959338Y-117430000D01*
X74990802Y-117430000D01*
X73346552Y-115785750D01*
X83807980Y-115785750D01*
X83807980Y-115926029D01*
X83904653Y-116159418D01*
X84083281Y-116338047D01*
X84316670Y-116434720D01*
X84657610Y-116434720D01*
X84816360Y-116275970D01*
X84816360Y-115627000D01*
X83966730Y-115627000D01*
X83807980Y-115785750D01*
X73346552Y-115785750D01*
X72634773Y-115073971D01*
X83807980Y-115073971D01*
X83807980Y-115214250D01*
X83966730Y-115373000D01*
X84816360Y-115373000D01*
X84816360Y-114724030D01*
X84657610Y-114565280D01*
X84316670Y-114565280D01*
X84083281Y-114661953D01*
X83904653Y-114840582D01*
X83807980Y-115073971D01*
X72634773Y-115073971D01*
X71222401Y-113661599D01*
X70975839Y-113496852D01*
X70685000Y-113439000D01*
X67637000Y-113439000D01*
X67346161Y-113496852D01*
X67099599Y-113661599D01*
X66473599Y-114287599D01*
X66308852Y-114534161D01*
X66251000Y-114825000D01*
X66251000Y-114872837D01*
X66153191Y-114938191D01*
X66012843Y-115148235D01*
X65963560Y-115396000D01*
X65963560Y-116196000D01*
X66012843Y-116443765D01*
X66114564Y-116596000D01*
X66012843Y-116748235D01*
X65963560Y-116996000D01*
X65963560Y-117796000D01*
X66012843Y-118043765D01*
X66153191Y-118253809D01*
X66251000Y-118319163D01*
X66251000Y-119678504D01*
X66052811Y-119810931D01*
X65912463Y-120020975D01*
X65863180Y-120268740D01*
X37710000Y-120268740D01*
X37710000Y-108434971D01*
X73967821Y-108434971D01*
X74125058Y-108815515D01*
X74415954Y-109106919D01*
X74796223Y-109264820D01*
X75207971Y-109265179D01*
X75571433Y-109115000D01*
X77642560Y-109115000D01*
X77642560Y-109400000D01*
X77691843Y-109647765D01*
X77832191Y-109857809D01*
X78042235Y-109998157D01*
X78055000Y-110000696D01*
X78055000Y-110769995D01*
X78054999Y-110770000D01*
X78087262Y-110932191D01*
X78122367Y-111108675D01*
X78228667Y-111267765D01*
X78314210Y-111395790D01*
X79584208Y-112665787D01*
X79584210Y-112665790D01*
X79788064Y-112802000D01*
X79871325Y-112857633D01*
X80210000Y-112925001D01*
X80210005Y-112925000D01*
X84982280Y-112925000D01*
X85997834Y-113940553D01*
X85958103Y-114000015D01*
X85908820Y-114247780D01*
X85908820Y-114767335D01*
X85803439Y-114661953D01*
X85570050Y-114565280D01*
X85229110Y-114565280D01*
X85070360Y-114724030D01*
X85070360Y-115373000D01*
X85919990Y-115373000D01*
X86054195Y-115238795D01*
X86098451Y-115305029D01*
X86308495Y-115445377D01*
X86556260Y-115494660D01*
X87557020Y-115494660D01*
X87804785Y-115445377D01*
X88014829Y-115305029D01*
X88155177Y-115094985D01*
X88204460Y-114847220D01*
X88204460Y-114247780D01*
X88155177Y-114000015D01*
X88014829Y-113789971D01*
X87940101Y-113740039D01*
X87885450Y-113465296D01*
X87874273Y-113409105D01*
X87682430Y-113121990D01*
X87682427Y-113121988D01*
X85974650Y-111414210D01*
X85836734Y-111322058D01*
X85687535Y-111222367D01*
X85631344Y-111211190D01*
X85348860Y-111154999D01*
X85348855Y-111155000D01*
X80576579Y-111155000D01*
X80001330Y-110579750D01*
X86463300Y-110579750D01*
X86463300Y-111220409D01*
X86559973Y-111453798D01*
X86738601Y-111632427D01*
X86971990Y-111729100D01*
X87714250Y-111729100D01*
X87873000Y-111570350D01*
X87873000Y-110421000D01*
X86622050Y-110421000D01*
X86463300Y-110579750D01*
X80001330Y-110579750D01*
X79825000Y-110403420D01*
X79825000Y-110000696D01*
X79837765Y-109998157D01*
X80047809Y-109857809D01*
X80188157Y-109647765D01*
X80237440Y-109400000D01*
X80237440Y-109289430D01*
X83864620Y-109289430D01*
X83864620Y-109579569D01*
X83961293Y-109812958D01*
X84139921Y-109991587D01*
X84373310Y-110088260D01*
X84714250Y-110088260D01*
X84873000Y-109929510D01*
X84873000Y-109130680D01*
X85127000Y-109130680D01*
X85127000Y-109929510D01*
X85285750Y-110088260D01*
X85626690Y-110088260D01*
X85860079Y-109991587D01*
X86038707Y-109812958D01*
X86135380Y-109579569D01*
X86135380Y-109289430D01*
X85976630Y-109130680D01*
X85127000Y-109130680D01*
X84873000Y-109130680D01*
X84023370Y-109130680D01*
X83864620Y-109289430D01*
X80237440Y-109289430D01*
X80237440Y-107060000D01*
X80188157Y-106812235D01*
X80047809Y-106602191D01*
X79837765Y-106461843D01*
X79590000Y-106412560D01*
X78290000Y-106412560D01*
X78042235Y-106461843D01*
X77832191Y-106602191D01*
X77691843Y-106812235D01*
X77642560Y-107060000D01*
X77642560Y-107345000D01*
X75570585Y-107345000D01*
X75209777Y-107195180D01*
X74798029Y-107194821D01*
X74417485Y-107352058D01*
X74126081Y-107642954D01*
X73968180Y-108023223D01*
X73967821Y-108434971D01*
X37710000Y-108434971D01*
X37710000Y-105569930D01*
X37744926Y-105394345D01*
X37804774Y-105304775D01*
X37894345Y-105244926D01*
X38069930Y-105210000D01*
X39000000Y-105210000D01*
X39271705Y-105155954D01*
X39295582Y-105140000D01*
X39529694Y-105140000D01*
X39554753Y-105165103D01*
X39554753Y-105165103D01*
G37*
X39554753Y-105165103D02*
X39843169Y-105284863D01*
X40155461Y-105285136D01*
X40249876Y-105246125D01*
X40343169Y-105284863D01*
X40655461Y-105285136D01*
X40749876Y-105246125D01*
X40843169Y-105284863D01*
X41155461Y-105285136D01*
X41249876Y-105246125D01*
X41343169Y-105284863D01*
X41655461Y-105285136D01*
X41749876Y-105246125D01*
X41843169Y-105284863D01*
X42155461Y-105285136D01*
X42437982Y-105168401D01*
X42661325Y-105317633D01*
X43000000Y-105385000D01*
X121000000Y-105385000D01*
X121338675Y-105317633D01*
X121562278Y-105168227D01*
X121843169Y-105284863D01*
X122155461Y-105285136D01*
X122249876Y-105246125D01*
X122343169Y-105284863D01*
X122655461Y-105285136D01*
X122749876Y-105246125D01*
X122843169Y-105284863D01*
X123155461Y-105285136D01*
X123249876Y-105246125D01*
X123343169Y-105284863D01*
X123655461Y-105285136D01*
X123749876Y-105246125D01*
X123843169Y-105284863D01*
X124155461Y-105285136D01*
X124437982Y-105168401D01*
X124661325Y-105317633D01*
X125000000Y-105385000D01*
X125912836Y-105385000D01*
X126037373Y-105409772D01*
X126069058Y-105430943D01*
X126090228Y-105462627D01*
X126115000Y-105587164D01*
X126115000Y-129412836D01*
X126090228Y-129537373D01*
X126069058Y-129569057D01*
X126037373Y-129590228D01*
X125912836Y-129615000D01*
X125427552Y-129615000D01*
X125485000Y-129476309D01*
X125485000Y-128785750D01*
X125326250Y-128627000D01*
X124127000Y-128627000D01*
X124127000Y-128647000D01*
X123873000Y-128647000D01*
X123873000Y-128627000D01*
X123853000Y-128627000D01*
X123853000Y-128373000D01*
X123873000Y-128373000D01*
X123873000Y-127173750D01*
X124127000Y-127173750D01*
X124127000Y-128373000D01*
X125326250Y-128373000D01*
X125485000Y-128214250D01*
X125485000Y-127523691D01*
X125388327Y-127290302D01*
X125209699Y-127111673D01*
X124976310Y-127015000D01*
X124285750Y-127015000D01*
X124127000Y-127173750D01*
X123873000Y-127173750D01*
X123714250Y-127015000D01*
X123023690Y-127015000D01*
X122790301Y-127111673D01*
X122611673Y-127290302D01*
X122539403Y-127464777D01*
X122510054Y-127420853D01*
X122220000Y-127227046D01*
X122220000Y-113793000D01*
X122162148Y-113502161D01*
X121997401Y-113255599D01*
X117059035Y-108317233D01*
X117059179Y-108152029D01*
X116901942Y-107771485D01*
X116611046Y-107480081D01*
X116230777Y-107322180D01*
X115819029Y-107321821D01*
X115438485Y-107479058D01*
X115147081Y-107769954D01*
X114989180Y-108150223D01*
X114988821Y-108561971D01*
X115146058Y-108942515D01*
X115436954Y-109233919D01*
X115817223Y-109391820D01*
X115984164Y-109391966D01*
X120700000Y-114107802D01*
X120700000Y-127227046D01*
X120409946Y-127420853D01*
X120190000Y-127750026D01*
X119970054Y-127420853D01*
X119680000Y-127227046D01*
X119680000Y-113920000D01*
X119622148Y-113629161D01*
X119457401Y-113382599D01*
X114837401Y-108762599D01*
X114590839Y-108597852D01*
X114300000Y-108540000D01*
X113310505Y-108540000D01*
X113322440Y-108480000D01*
X113322440Y-107580000D01*
X113285642Y-107395000D01*
X113322440Y-107210000D01*
X113322440Y-106310000D01*
X113285657Y-106125079D01*
X113310000Y-106066310D01*
X113310000Y-105775750D01*
X113151250Y-105617000D01*
X112127000Y-105617000D01*
X112127000Y-105637000D01*
X111873000Y-105637000D01*
X111873000Y-105617000D01*
X110848750Y-105617000D01*
X110690000Y-105775750D01*
X110690000Y-106066310D01*
X110714343Y-106125079D01*
X110677560Y-106310000D01*
X110677560Y-107210000D01*
X110714358Y-107395000D01*
X110677560Y-107580000D01*
X110677560Y-108480000D01*
X110714358Y-108665000D01*
X110677560Y-108850000D01*
X110677560Y-109750000D01*
X110714358Y-109935000D01*
X110677560Y-110120000D01*
X110677560Y-111020000D01*
X110714358Y-111205000D01*
X110677560Y-111390000D01*
X110677560Y-112290000D01*
X110714358Y-112475000D01*
X110677560Y-112660000D01*
X110677560Y-113560000D01*
X110714358Y-113745000D01*
X110677560Y-113930000D01*
X110677560Y-114830000D01*
X110714358Y-115015000D01*
X110677560Y-115200000D01*
X110677560Y-116100000D01*
X110714358Y-116285000D01*
X110677560Y-116470000D01*
X110677560Y-117370000D01*
X110714358Y-117555000D01*
X110677560Y-117740000D01*
X110677560Y-118640000D01*
X110714358Y-118825000D01*
X110677560Y-119010000D01*
X110677560Y-119910000D01*
X110714358Y-120095000D01*
X110677560Y-120280000D01*
X110677560Y-121180000D01*
X110714358Y-121365000D01*
X110677560Y-121550000D01*
X110677560Y-122450000D01*
X110726843Y-122697765D01*
X110867191Y-122907809D01*
X111077235Y-123048157D01*
X111325000Y-123097440D01*
X112675000Y-123097440D01*
X112902405Y-123052207D01*
X113080000Y-123229802D01*
X113080000Y-127227046D01*
X112789946Y-127420853D01*
X112468039Y-127902622D01*
X112355000Y-128470907D01*
X112355000Y-128529093D01*
X112468039Y-129097378D01*
X112789946Y-129579147D01*
X112843604Y-129615000D01*
X43000000Y-129615000D01*
X42661325Y-129682367D01*
X42437722Y-129831773D01*
X42156831Y-129715137D01*
X41844539Y-129714864D01*
X41750124Y-129753875D01*
X41656831Y-129715137D01*
X41344539Y-129714864D01*
X41250124Y-129753875D01*
X41156831Y-129715137D01*
X40844539Y-129714864D01*
X40750124Y-129753875D01*
X40656831Y-129715137D01*
X40344539Y-129714864D01*
X40250124Y-129753875D01*
X40156831Y-129715137D01*
X39844539Y-129714864D01*
X39562018Y-129831599D01*
X39338675Y-129682367D01*
X39000000Y-129615000D01*
X38087164Y-129615000D01*
X37962627Y-129590228D01*
X37930943Y-129569058D01*
X37909772Y-129537373D01*
X37867995Y-129327346D01*
X37735851Y-129008321D01*
X37710000Y-128982470D01*
X37710000Y-126855750D01*
X77655000Y-126855750D01*
X77655000Y-127866309D01*
X77751673Y-128099698D01*
X77930301Y-128278327D01*
X78163690Y-128375000D01*
X78654250Y-128375000D01*
X78813000Y-128216250D01*
X78813000Y-126697000D01*
X79067000Y-126697000D01*
X79067000Y-128216250D01*
X79225750Y-128375000D01*
X79716310Y-128375000D01*
X79949699Y-128278327D01*
X80128327Y-128099698D01*
X80225000Y-127866309D01*
X80225000Y-126855750D01*
X80066250Y-126697000D01*
X79067000Y-126697000D01*
X78813000Y-126697000D01*
X77813750Y-126697000D01*
X77655000Y-126855750D01*
X37710000Y-126855750D01*
X37710000Y-125273691D01*
X77655000Y-125273691D01*
X77655000Y-126284250D01*
X77813750Y-126443000D01*
X78813000Y-126443000D01*
X78813000Y-124923750D01*
X79067000Y-124923750D01*
X79067000Y-126443000D01*
X80066250Y-126443000D01*
X80225000Y-126284250D01*
X80225000Y-125273691D01*
X80128327Y-125040302D01*
X79949699Y-124861673D01*
X79716310Y-124765000D01*
X79225750Y-124765000D01*
X79067000Y-124923750D01*
X78813000Y-124923750D01*
X78654250Y-124765000D01*
X78163690Y-124765000D01*
X77930301Y-124861673D01*
X77751673Y-125040302D01*
X77655000Y-125273691D01*
X37710000Y-125273691D01*
X37710000Y-122507750D01*
X65875620Y-122507750D01*
X65875620Y-122797889D01*
X65972293Y-123031278D01*
X66150921Y-123209907D01*
X66384310Y-123306580D01*
X66725250Y-123306580D01*
X66884000Y-123147830D01*
X66884000Y-122349000D01*
X67138000Y-122349000D01*
X67138000Y-123147830D01*
X67296750Y-123306580D01*
X67637690Y-123306580D01*
X67871079Y-123209907D01*
X68049707Y-123031278D01*
X68146380Y-122797889D01*
X68146380Y-122507750D01*
X68542620Y-122507750D01*
X68542620Y-122797889D01*
X68639293Y-123031278D01*
X68817921Y-123209907D01*
X69051310Y-123306580D01*
X69392250Y-123306580D01*
X69551000Y-123147830D01*
X69551000Y-122349000D01*
X69805000Y-122349000D01*
X69805000Y-123147830D01*
X69963750Y-123306580D01*
X70304690Y-123306580D01*
X70538079Y-123209907D01*
X70716707Y-123031278D01*
X70813380Y-122797889D01*
X70813380Y-122507750D01*
X70654630Y-122349000D01*
X69805000Y-122349000D01*
X69551000Y-122349000D01*
X68701370Y-122349000D01*
X68542620Y-122507750D01*
X68146380Y-122507750D01*
X67987630Y-122349000D01*
X67138000Y-122349000D01*
X66884000Y-122349000D01*
X66034370Y-122349000D01*
X65875620Y-122507750D01*
X37710000Y-122507750D01*
X37710000Y-120268740D01*
X65863180Y-120268740D01*
X65863180Y-121167900D01*
X65912463Y-121415665D01*
X65948645Y-121469814D01*
X65875620Y-121646111D01*
X65875620Y-121936250D01*
X66034370Y-122095000D01*
X66884000Y-122095000D01*
X66884000Y-122075000D01*
X67138000Y-122075000D01*
X67138000Y-122095000D01*
X67987630Y-122095000D01*
X68146380Y-121936250D01*
X68146380Y-121646111D01*
X68073355Y-121469814D01*
X68109537Y-121415665D01*
X68158820Y-121167900D01*
X68158820Y-120268740D01*
X68109537Y-120020975D01*
X67969189Y-119810931D01*
X67771000Y-119678504D01*
X67771000Y-118319163D01*
X67868809Y-118253809D01*
X68009157Y-118043765D01*
X68058440Y-117796000D01*
X68058440Y-116996000D01*
X68009157Y-116748235D01*
X67907436Y-116596000D01*
X68009157Y-116443765D01*
X68058440Y-116196000D01*
X68058440Y-115396000D01*
X68009157Y-115148235D01*
X67910386Y-115000416D01*
X67951802Y-114959000D01*
X68899209Y-114959000D01*
X68806843Y-115097235D01*
X68757560Y-115345000D01*
X68757560Y-116145000D01*
X68806843Y-116392765D01*
X68908564Y-116545000D01*
X68806843Y-116697235D01*
X68757560Y-116945000D01*
X68757560Y-117745000D01*
X68806843Y-117992765D01*
X68947191Y-118202809D01*
X69045000Y-118268163D01*
X69045000Y-119647679D01*
X68929855Y-119670583D01*
X68719811Y-119810931D01*
X68579463Y-120020975D01*
X68530180Y-120268740D01*
X68530180Y-121167900D01*
X68579463Y-121415665D01*
X68615645Y-121469814D01*
X68542620Y-121646111D01*
X68542620Y-121936250D01*
X68701370Y-122095000D01*
X69551000Y-122095000D01*
X69551000Y-122075000D01*
X69805000Y-122075000D01*
X69805000Y-122095000D01*
X70654630Y-122095000D01*
X70813380Y-121936250D01*
X70813380Y-121646111D01*
X70740355Y-121469814D01*
X70776537Y-121415665D01*
X70825820Y-121167900D01*
X70825820Y-120268740D01*
X70776537Y-120020975D01*
X70636189Y-119810931D01*
X70565000Y-119763364D01*
X70565000Y-118268163D01*
X70662809Y-118202809D01*
X70803157Y-117992765D01*
X70832159Y-117846961D01*
X72982599Y-119997401D01*
X73229160Y-120162148D01*
X73520000Y-120220000D01*
X92659495Y-120220000D01*
X92647560Y-120280000D01*
X92647560Y-121180000D01*
X92684358Y-121365000D01*
X92647560Y-121550000D01*
X92647560Y-122450000D01*
X92696843Y-122697765D01*
X92837191Y-122907809D01*
X93047235Y-123048157D01*
X93295000Y-123097440D01*
X94645000Y-123097440D01*
X94892765Y-123048157D01*
X95102809Y-122907809D01*
X95158140Y-122825000D01*
X96172560Y-122825000D01*
X96172560Y-124175000D01*
X96221843Y-124422765D01*
X96362191Y-124632809D01*
X96572235Y-124773157D01*
X96820000Y-124822440D01*
X97720000Y-124822440D01*
X97905000Y-124785642D01*
X98090000Y-124822440D01*
X98990000Y-124822440D01*
X99175000Y-124785642D01*
X99360000Y-124822440D01*
X100260000Y-124822440D01*
X100445000Y-124785642D01*
X100630000Y-124822440D01*
X101530000Y-124822440D01*
X101715000Y-124785642D01*
X101900000Y-124822440D01*
X102800000Y-124822440D01*
X102985000Y-124785642D01*
X103170000Y-124822440D01*
X104070000Y-124822440D01*
X104255000Y-124785642D01*
X104440000Y-124822440D01*
X105340000Y-124822440D01*
X105525000Y-124785642D01*
X105710000Y-124822440D01*
X106610000Y-124822440D01*
X106795000Y-124785642D01*
X106980000Y-124822440D01*
X107880000Y-124822440D01*
X108065000Y-124785642D01*
X108250000Y-124822440D01*
X109150000Y-124822440D01*
X109397765Y-124773157D01*
X109607809Y-124632809D01*
X109748157Y-124422765D01*
X109797440Y-124175000D01*
X109797440Y-122825000D01*
X109748157Y-122577235D01*
X109607809Y-122367191D01*
X109397765Y-122226843D01*
X109150000Y-122177560D01*
X108250000Y-122177560D01*
X108065000Y-122214358D01*
X107880000Y-122177560D01*
X106980000Y-122177560D01*
X106795000Y-122214358D01*
X106610000Y-122177560D01*
X105710000Y-122177560D01*
X105525000Y-122214358D01*
X105340000Y-122177560D01*
X104440000Y-122177560D01*
X104255000Y-122214358D01*
X104070000Y-122177560D01*
X103170000Y-122177560D01*
X102985000Y-122214358D01*
X102800000Y-122177560D01*
X101900000Y-122177560D01*
X101715000Y-122214358D01*
X101530000Y-122177560D01*
X100630000Y-122177560D01*
X100445000Y-122214358D01*
X100260000Y-122177560D01*
X99360000Y-122177560D01*
X99175000Y-122214358D01*
X98990000Y-122177560D01*
X98090000Y-122177560D01*
X97905000Y-122214358D01*
X97720000Y-122177560D01*
X96820000Y-122177560D01*
X96572235Y-122226843D01*
X96362191Y-122367191D01*
X96221843Y-122577235D01*
X96172560Y-122825000D01*
X95158140Y-122825000D01*
X95243157Y-122697765D01*
X95292440Y-122450000D01*
X95292440Y-121550000D01*
X95255642Y-121365000D01*
X95292440Y-121180000D01*
X95292440Y-120280000D01*
X95255642Y-120095000D01*
X95292440Y-119910000D01*
X95292440Y-119010000D01*
X95255642Y-118825000D01*
X95292440Y-118640000D01*
X95292440Y-117740000D01*
X95255642Y-117555000D01*
X95292440Y-117370000D01*
X95292440Y-116470000D01*
X95255642Y-116285000D01*
X95292440Y-116100000D01*
X95292440Y-115200000D01*
X95255642Y-115015000D01*
X95292440Y-114830000D01*
X95292440Y-113930000D01*
X95255642Y-113745000D01*
X95292440Y-113560000D01*
X95292440Y-112660000D01*
X95255642Y-112475000D01*
X95292440Y-112290000D01*
X95292440Y-111390000D01*
X95255642Y-111205000D01*
X95292440Y-111020000D01*
X95292440Y-110200000D01*
X99622560Y-110200000D01*
X99622560Y-116200000D01*
X99671843Y-116447765D01*
X99812191Y-116657809D01*
X100022235Y-116798157D01*
X100270000Y-116847440D01*
X106270000Y-116847440D01*
X106517765Y-116798157D01*
X106727809Y-116657809D01*
X106868157Y-116447765D01*
X106917440Y-116200000D01*
X106917440Y-110200000D01*
X106868157Y-109952235D01*
X106727809Y-109742191D01*
X106517765Y-109601843D01*
X106270000Y-109552560D01*
X100270000Y-109552560D01*
X100022235Y-109601843D01*
X99812191Y-109742191D01*
X99671843Y-109952235D01*
X99622560Y-110200000D01*
X95292440Y-110200000D01*
X95292440Y-110120000D01*
X95255642Y-109935000D01*
X95292440Y-109750000D01*
X95292440Y-108850000D01*
X95280505Y-108790000D01*
X95999954Y-108790000D01*
X96122058Y-109085515D01*
X96412954Y-109376919D01*
X96793223Y-109534820D01*
X97204971Y-109535179D01*
X97585515Y-109377942D01*
X97876919Y-109087046D01*
X98034820Y-108706777D01*
X98035179Y-108295029D01*
X97877942Y-107914485D01*
X97587046Y-107623081D01*
X97206777Y-107465180D01*
X97026130Y-107465022D01*
X96820839Y-107327852D01*
X96530000Y-107270000D01*
X95280505Y-107270000D01*
X95292440Y-107210000D01*
X95292440Y-106310000D01*
X95255657Y-106125079D01*
X95280000Y-106066310D01*
X95280000Y-105775750D01*
X95121250Y-105617000D01*
X94097000Y-105617000D01*
X94097000Y-105637000D01*
X93843000Y-105637000D01*
X93843000Y-105617000D01*
X92818750Y-105617000D01*
X92660000Y-105775750D01*
X92660000Y-105875000D01*
X91931325Y-105875000D01*
X91931320Y-105874999D01*
X91809153Y-105899300D01*
X91194620Y-105899300D01*
X90946855Y-105948583D01*
X90736811Y-106088931D01*
X90721851Y-106111320D01*
X90694625Y-106111320D01*
X90694620Y-106111319D01*
X90355945Y-106178687D01*
X90068830Y-106370530D01*
X90068828Y-106370533D01*
X89824361Y-106615000D01*
X89532253Y-106615000D01*
X89499857Y-106452135D01*
X89359509Y-106242091D01*
X89149465Y-106101743D01*
X88901700Y-106052460D01*
X87098300Y-106052460D01*
X86850535Y-106101743D01*
X86640491Y-106242091D01*
X86500143Y-106452135D01*
X86467747Y-106615000D01*
X85973149Y-106615000D01*
X85958189Y-106592611D01*
X85748145Y-106452263D01*
X85500380Y-106402980D01*
X84499620Y-106402980D01*
X84251855Y-106452263D01*
X84041811Y-106592611D01*
X83901463Y-106802655D01*
X83852180Y-107050420D01*
X83852180Y-107949580D01*
X83901463Y-108197345D01*
X83937645Y-108251494D01*
X83864620Y-108427791D01*
X83864620Y-108717930D01*
X84023370Y-108876680D01*
X84873000Y-108876680D01*
X84873000Y-108856680D01*
X85127000Y-108856680D01*
X85127000Y-108876680D01*
X85976630Y-108876680D01*
X86135380Y-108717930D01*
X86135380Y-108427791D01*
X86117655Y-108385000D01*
X86467747Y-108385000D01*
X86500143Y-108547865D01*
X86640491Y-108757909D01*
X86850535Y-108898257D01*
X86868397Y-108901810D01*
X86738601Y-108955573D01*
X86559973Y-109134202D01*
X86463300Y-109367591D01*
X86463300Y-110008250D01*
X86622050Y-110167000D01*
X87873000Y-110167000D01*
X87873000Y-110147000D01*
X88127000Y-110147000D01*
X88127000Y-110167000D01*
X88147000Y-110167000D01*
X88147000Y-110421000D01*
X88127000Y-110421000D01*
X88127000Y-111570350D01*
X88285750Y-111729100D01*
X89028010Y-111729100D01*
X89231000Y-111645019D01*
X89231000Y-112234415D01*
X89081180Y-112595223D01*
X89080821Y-113006971D01*
X89238058Y-113387515D01*
X89528954Y-113678919D01*
X89909223Y-113836820D01*
X90320971Y-113837179D01*
X90701515Y-113679942D01*
X90992919Y-113389046D01*
X91150820Y-113008777D01*
X91151179Y-112597029D01*
X91001000Y-112233567D01*
X91001000Y-109558507D01*
X91194620Y-109597020D01*
X92195380Y-109597020D01*
X92443145Y-109547737D01*
X92647560Y-109411150D01*
X92647560Y-109750000D01*
X92684358Y-109935000D01*
X92647560Y-110120000D01*
X92647560Y-111020000D01*
X92684358Y-111205000D01*
X92647560Y-111390000D01*
X92647560Y-112290000D01*
X92684358Y-112475000D01*
X92647560Y-112660000D01*
X92647560Y-113560000D01*
X92684358Y-113745000D01*
X92647560Y-113930000D01*
X92647560Y-114830000D01*
X92684358Y-115015000D01*
X92647560Y-115200000D01*
X92647560Y-116100000D01*
X92659495Y-116160000D01*
X88204460Y-116160000D01*
X88204460Y-116152780D01*
X88155177Y-115905015D01*
X88014829Y-115694971D01*
X87804785Y-115554623D01*
X87557020Y-115505340D01*
X86556260Y-115505340D01*
X86308495Y-115554623D01*
X86098451Y-115694971D01*
X86054195Y-115761205D01*
X85919990Y-115627000D01*
X85070360Y-115627000D01*
X85070360Y-116275970D01*
X85229110Y-116434720D01*
X85570050Y-116434720D01*
X85803439Y-116338047D01*
X85908820Y-116232665D01*
X85908820Y-116752220D01*
X85958103Y-116999985D01*
X86098451Y-117210029D01*
X86308495Y-117350377D01*
X86556260Y-117399660D01*
X86928998Y-117399660D01*
X86959338Y-117430000D01*
X74990802Y-117430000D01*
X73346552Y-115785750D01*
X83807980Y-115785750D01*
X83807980Y-115926029D01*
X83904653Y-116159418D01*
X84083281Y-116338047D01*
X84316670Y-116434720D01*
X84657610Y-116434720D01*
X84816360Y-116275970D01*
X84816360Y-115627000D01*
X83966730Y-115627000D01*
X83807980Y-115785750D01*
X73346552Y-115785750D01*
X72634773Y-115073971D01*
X83807980Y-115073971D01*
X83807980Y-115214250D01*
X83966730Y-115373000D01*
X84816360Y-115373000D01*
X84816360Y-114724030D01*
X84657610Y-114565280D01*
X84316670Y-114565280D01*
X84083281Y-114661953D01*
X83904653Y-114840582D01*
X83807980Y-115073971D01*
X72634773Y-115073971D01*
X71222401Y-113661599D01*
X70975839Y-113496852D01*
X70685000Y-113439000D01*
X67637000Y-113439000D01*
X67346161Y-113496852D01*
X67099599Y-113661599D01*
X66473599Y-114287599D01*
X66308852Y-114534161D01*
X66251000Y-114825000D01*
X66251000Y-114872837D01*
X66153191Y-114938191D01*
X66012843Y-115148235D01*
X65963560Y-115396000D01*
X65963560Y-116196000D01*
X66012843Y-116443765D01*
X66114564Y-116596000D01*
X66012843Y-116748235D01*
X65963560Y-116996000D01*
X65963560Y-117796000D01*
X66012843Y-118043765D01*
X66153191Y-118253809D01*
X66251000Y-118319163D01*
X66251000Y-119678504D01*
X66052811Y-119810931D01*
X65912463Y-120020975D01*
X65863180Y-120268740D01*
X37710000Y-120268740D01*
X37710000Y-108434971D01*
X73967821Y-108434971D01*
X74125058Y-108815515D01*
X74415954Y-109106919D01*
X74796223Y-109264820D01*
X75207971Y-109265179D01*
X75571433Y-109115000D01*
X77642560Y-109115000D01*
X77642560Y-109400000D01*
X77691843Y-109647765D01*
X77832191Y-109857809D01*
X78042235Y-109998157D01*
X78055000Y-110000696D01*
X78055000Y-110769995D01*
X78054999Y-110770000D01*
X78087262Y-110932191D01*
X78122367Y-111108675D01*
X78228667Y-111267765D01*
X78314210Y-111395790D01*
X79584208Y-112665787D01*
X79584210Y-112665790D01*
X79788064Y-112802000D01*
X79871325Y-112857633D01*
X80210000Y-112925001D01*
X80210005Y-112925000D01*
X84982280Y-112925000D01*
X85997834Y-113940553D01*
X85958103Y-114000015D01*
X85908820Y-114247780D01*
X85908820Y-114767335D01*
X85803439Y-114661953D01*
X85570050Y-114565280D01*
X85229110Y-114565280D01*
X85070360Y-114724030D01*
X85070360Y-115373000D01*
X85919990Y-115373000D01*
X86054195Y-115238795D01*
X86098451Y-115305029D01*
X86308495Y-115445377D01*
X86556260Y-115494660D01*
X87557020Y-115494660D01*
X87804785Y-115445377D01*
X88014829Y-115305029D01*
X88155177Y-115094985D01*
X88204460Y-114847220D01*
X88204460Y-114247780D01*
X88155177Y-114000015D01*
X88014829Y-113789971D01*
X87940101Y-113740039D01*
X87885450Y-113465296D01*
X87874273Y-113409105D01*
X87682430Y-113121990D01*
X87682427Y-113121988D01*
X85974650Y-111414210D01*
X85836734Y-111322058D01*
X85687535Y-111222367D01*
X85631344Y-111211190D01*
X85348860Y-111154999D01*
X85348855Y-111155000D01*
X80576579Y-111155000D01*
X80001330Y-110579750D01*
X86463300Y-110579750D01*
X86463300Y-111220409D01*
X86559973Y-111453798D01*
X86738601Y-111632427D01*
X86971990Y-111729100D01*
X87714250Y-111729100D01*
X87873000Y-111570350D01*
X87873000Y-110421000D01*
X86622050Y-110421000D01*
X86463300Y-110579750D01*
X80001330Y-110579750D01*
X79825000Y-110403420D01*
X79825000Y-110000696D01*
X79837765Y-109998157D01*
X80047809Y-109857809D01*
X80188157Y-109647765D01*
X80237440Y-109400000D01*
X80237440Y-109289430D01*
X83864620Y-109289430D01*
X83864620Y-109579569D01*
X83961293Y-109812958D01*
X84139921Y-109991587D01*
X84373310Y-110088260D01*
X84714250Y-110088260D01*
X84873000Y-109929510D01*
X84873000Y-109130680D01*
X85127000Y-109130680D01*
X85127000Y-109929510D01*
X85285750Y-110088260D01*
X85626690Y-110088260D01*
X85860079Y-109991587D01*
X86038707Y-109812958D01*
X86135380Y-109579569D01*
X86135380Y-109289430D01*
X85976630Y-109130680D01*
X85127000Y-109130680D01*
X84873000Y-109130680D01*
X84023370Y-109130680D01*
X83864620Y-109289430D01*
X80237440Y-109289430D01*
X80237440Y-107060000D01*
X80188157Y-106812235D01*
X80047809Y-106602191D01*
X79837765Y-106461843D01*
X79590000Y-106412560D01*
X78290000Y-106412560D01*
X78042235Y-106461843D01*
X77832191Y-106602191D01*
X77691843Y-106812235D01*
X77642560Y-107060000D01*
X77642560Y-107345000D01*
X75570585Y-107345000D01*
X75209777Y-107195180D01*
X74798029Y-107194821D01*
X74417485Y-107352058D01*
X74126081Y-107642954D01*
X73968180Y-108023223D01*
X73967821Y-108434971D01*
X37710000Y-108434971D01*
X37710000Y-105569930D01*
X37744926Y-105394345D01*
X37804774Y-105304775D01*
X37894345Y-105244926D01*
X38069930Y-105210000D01*
X39000000Y-105210000D01*
X39271705Y-105155954D01*
X39295582Y-105140000D01*
X39529694Y-105140000D01*
X39554753Y-105165103D01*
G36*
X115620000Y-113599802D02*
X115620000Y-127227046D01*
X115329946Y-127420853D01*
X115110000Y-127750026D01*
X114890054Y-127420853D01*
X114600000Y-127227046D01*
X114600000Y-122915000D01*
X114542148Y-122624161D01*
X114542148Y-122624160D01*
X114377401Y-122377599D01*
X113462401Y-121462599D01*
X113289242Y-121346898D01*
X113322440Y-121180000D01*
X113322440Y-120280000D01*
X113285642Y-120095000D01*
X113322440Y-119910000D01*
X113322440Y-119010000D01*
X113285642Y-118825000D01*
X113322440Y-118640000D01*
X113322440Y-117740000D01*
X113285642Y-117555000D01*
X113322440Y-117370000D01*
X113322440Y-116470000D01*
X113285642Y-116285000D01*
X113322440Y-116100000D01*
X113322440Y-115200000D01*
X113285642Y-115015000D01*
X113322440Y-114830000D01*
X113322440Y-113930000D01*
X113285642Y-113745000D01*
X113322440Y-113560000D01*
X113322440Y-112660000D01*
X113285642Y-112475000D01*
X113322440Y-112290000D01*
X113322440Y-111390000D01*
X113310505Y-111330000D01*
X113350198Y-111330000D01*
X115620000Y-113599802D01*
X115620000Y-113599802D01*
G37*
X115620000Y-113599802D02*
X115620000Y-127227046D01*
X115329946Y-127420853D01*
X115110000Y-127750026D01*
X114890054Y-127420853D01*
X114600000Y-127227046D01*
X114600000Y-122915000D01*
X114542148Y-122624161D01*
X114542148Y-122624160D01*
X114377401Y-122377599D01*
X113462401Y-121462599D01*
X113289242Y-121346898D01*
X113322440Y-121180000D01*
X113322440Y-120280000D01*
X113285642Y-120095000D01*
X113322440Y-119910000D01*
X113322440Y-119010000D01*
X113285642Y-118825000D01*
X113322440Y-118640000D01*
X113322440Y-117740000D01*
X113285642Y-117555000D01*
X113322440Y-117370000D01*
X113322440Y-116470000D01*
X113285642Y-116285000D01*
X113322440Y-116100000D01*
X113322440Y-115200000D01*
X113285642Y-115015000D01*
X113322440Y-114830000D01*
X113322440Y-113930000D01*
X113285642Y-113745000D01*
X113322440Y-113560000D01*
X113322440Y-112660000D01*
X113285642Y-112475000D01*
X113322440Y-112290000D01*
X113322440Y-111390000D01*
X113310505Y-111330000D01*
X113350198Y-111330000D01*
X115620000Y-113599802D01*
G36*
X118160000Y-114234802D02*
X118160000Y-127227046D01*
X117869946Y-127420853D01*
X117650000Y-127750026D01*
X117430054Y-127420853D01*
X117140000Y-127227046D01*
X117140000Y-113285000D01*
X117122569Y-113197371D01*
X118160000Y-114234802D01*
X118160000Y-114234802D01*
G37*
X118160000Y-114234802D02*
X118160000Y-127227046D01*
X117869946Y-127420853D01*
X117650000Y-127750026D01*
X117430054Y-127420853D01*
X117140000Y-127227046D01*
X117140000Y-113285000D01*
X117122569Y-113197371D01*
X118160000Y-114234802D01*
G36*
X77344046Y-76271705D02*
X77497954Y-76502046D01*
X77728295Y-76655954D01*
X78000000Y-76710000D01*
X78482470Y-76710000D01*
X78508321Y-76735851D01*
X78827346Y-76867995D01*
X79037373Y-76909772D01*
X79069058Y-76930943D01*
X79090228Y-76962627D01*
X79132005Y-77172654D01*
X79264149Y-77491679D01*
X79290000Y-77517530D01*
X79290000Y-100930070D01*
X79255074Y-101105655D01*
X79195225Y-101195226D01*
X79105655Y-101255074D01*
X78861487Y-101303642D01*
X78605546Y-101409657D01*
X78409657Y-101605544D01*
X78339236Y-101775556D01*
X36867994Y-101892706D01*
X36867994Y-101827344D01*
X36735851Y-101508319D01*
X36491679Y-101264149D01*
X36172654Y-101132005D01*
X35962627Y-101090228D01*
X35930943Y-101069058D01*
X35909772Y-101037373D01*
X35885000Y-100912836D01*
X35885000Y-91007750D01*
X39192620Y-91007750D01*
X39192620Y-91297889D01*
X39289293Y-91531278D01*
X39467921Y-91709907D01*
X39701310Y-91806580D01*
X40042250Y-91806580D01*
X40201000Y-91647830D01*
X40201000Y-90849000D01*
X40455000Y-90849000D01*
X40455000Y-91647830D01*
X40613750Y-91806580D01*
X40954690Y-91806580D01*
X41188079Y-91709907D01*
X41366707Y-91531278D01*
X41463380Y-91297889D01*
X41463380Y-91007750D01*
X42875620Y-91007750D01*
X42875620Y-91297889D01*
X42972293Y-91531278D01*
X43150921Y-91709907D01*
X43384310Y-91806580D01*
X43725250Y-91806580D01*
X43884000Y-91647830D01*
X43884000Y-90849000D01*
X44138000Y-90849000D01*
X44138000Y-91647830D01*
X44296750Y-91806580D01*
X44637690Y-91806580D01*
X44871079Y-91709907D01*
X45049707Y-91531278D01*
X45146380Y-91297889D01*
X45146380Y-91007750D01*
X44987630Y-90849000D01*
X44138000Y-90849000D01*
X43884000Y-90849000D01*
X43034370Y-90849000D01*
X42875620Y-91007750D01*
X41463380Y-91007750D01*
X41304630Y-90849000D01*
X40455000Y-90849000D01*
X40201000Y-90849000D01*
X39351370Y-90849000D01*
X39192620Y-91007750D01*
X35885000Y-91007750D01*
X35885000Y-88768740D01*
X39180180Y-88768740D01*
X39180180Y-89667900D01*
X39229463Y-89915665D01*
X39265645Y-89969814D01*
X39192620Y-90146111D01*
X39192620Y-90436250D01*
X39351370Y-90595000D01*
X40201000Y-90595000D01*
X40201000Y-90575000D01*
X40455000Y-90575000D01*
X40455000Y-90595000D01*
X41304630Y-90595000D01*
X41463380Y-90436250D01*
X41463380Y-90146111D01*
X41390355Y-89969814D01*
X41426537Y-89915665D01*
X41475820Y-89667900D01*
X41475820Y-88768740D01*
X41426537Y-88520975D01*
X41286189Y-88310931D01*
X41215000Y-88263364D01*
X41215000Y-86768163D01*
X41312809Y-86702809D01*
X41453157Y-86492765D01*
X41502440Y-86245000D01*
X41502440Y-85445000D01*
X41453157Y-85197235D01*
X41351436Y-85045000D01*
X41453157Y-84892765D01*
X41502440Y-84645000D01*
X41502440Y-83845000D01*
X41465502Y-83659300D01*
X43675802Y-81449000D01*
X45133198Y-81449000D01*
X43473599Y-83108599D01*
X43334177Y-83317259D01*
X43153191Y-83438191D01*
X43012843Y-83648235D01*
X42963560Y-83896000D01*
X42963560Y-84696000D01*
X43012843Y-84943765D01*
X43114564Y-85096000D01*
X43012843Y-85248235D01*
X42963560Y-85496000D01*
X42963560Y-86296000D01*
X43012843Y-86543765D01*
X43153191Y-86753809D01*
X43251000Y-86819163D01*
X43251000Y-88178504D01*
X43052811Y-88310931D01*
X42912463Y-88520975D01*
X42863180Y-88768740D01*
X42863180Y-89667900D01*
X42912463Y-89915665D01*
X42948645Y-89969814D01*
X42875620Y-90146111D01*
X42875620Y-90436250D01*
X43034370Y-90595000D01*
X43884000Y-90595000D01*
X43884000Y-90575000D01*
X44138000Y-90575000D01*
X44138000Y-90595000D01*
X44987630Y-90595000D01*
X45146380Y-90436250D01*
X45146380Y-90146111D01*
X45073355Y-89969814D01*
X45109537Y-89915665D01*
X45158820Y-89667900D01*
X45158820Y-88768740D01*
X45109537Y-88520975D01*
X44969189Y-88310931D01*
X44771000Y-88178504D01*
X44771000Y-86819163D01*
X44868809Y-86753809D01*
X45009157Y-86543765D01*
X45058440Y-86296000D01*
X45058440Y-85496000D01*
X45009157Y-85248235D01*
X44907436Y-85096000D01*
X45009157Y-84943765D01*
X45058440Y-84696000D01*
X45058440Y-83896000D01*
X45021502Y-83710300D01*
X46296552Y-82435250D01*
X51597980Y-82435250D01*
X51597980Y-82575529D01*
X51694653Y-82808918D01*
X51873281Y-82987547D01*
X52106670Y-83084220D01*
X52447610Y-83084220D01*
X52606360Y-82925470D01*
X52606360Y-82276500D01*
X51756730Y-82276500D01*
X51597980Y-82435250D01*
X46296552Y-82435250D01*
X46774802Y-81957000D01*
X50869000Y-81957000D01*
X51159839Y-81899148D01*
X51406401Y-81734401D01*
X51417331Y-81723471D01*
X51597980Y-81723471D01*
X51597980Y-81863750D01*
X51756730Y-82022500D01*
X52606360Y-82022500D01*
X52606360Y-81373530D01*
X52447610Y-81214780D01*
X52106670Y-81214780D01*
X51873281Y-81311453D01*
X51694653Y-81490082D01*
X51597980Y-81723471D01*
X51417331Y-81723471D01*
X52707802Y-80433000D01*
X53898135Y-80433000D01*
X53888451Y-80439471D01*
X53858501Y-80484293D01*
X53805420Y-80494852D01*
X53558859Y-80659599D01*
X53125599Y-81092859D01*
X53044134Y-81214780D01*
X53019110Y-81214780D01*
X52860360Y-81373530D01*
X52860360Y-82022500D01*
X52880360Y-82022500D01*
X52880360Y-82276500D01*
X52860360Y-82276500D01*
X52860360Y-82925470D01*
X52903000Y-82968110D01*
X52903000Y-95233198D01*
X52099233Y-96036965D01*
X51934029Y-96036821D01*
X51553485Y-96194058D01*
X51510468Y-96237000D01*
X51150440Y-96237000D01*
X51150440Y-95827000D01*
X51101157Y-95579235D01*
X50960809Y-95369191D01*
X50750765Y-95228843D01*
X50503000Y-95179560D01*
X49203000Y-95179560D01*
X48955235Y-95228843D01*
X48745191Y-95369191D01*
X48604843Y-95579235D01*
X48555560Y-95827000D01*
X48555560Y-98167000D01*
X48604843Y-98414765D01*
X48745191Y-98624809D01*
X48955235Y-98765157D01*
X49203000Y-98814440D01*
X50503000Y-98814440D01*
X50750765Y-98765157D01*
X50960809Y-98624809D01*
X51101157Y-98414765D01*
X51150440Y-98167000D01*
X51150440Y-97757000D01*
X51360370Y-97757000D01*
X51551954Y-97948919D01*
X51932223Y-98106820D01*
X52343971Y-98107179D01*
X52724515Y-97949942D01*
X53015919Y-97659046D01*
X53173820Y-97278777D01*
X53173966Y-97111836D01*
X53856300Y-96429502D01*
X53856300Y-97191380D01*
X53877506Y-97297992D01*
X53506599Y-97668899D01*
X53413080Y-97808860D01*
X53243900Y-97808860D01*
X52996135Y-97858143D01*
X52786091Y-97998491D01*
X52645743Y-98208535D01*
X52596460Y-98456300D01*
X52596460Y-100259700D01*
X52645743Y-100507465D01*
X52786091Y-100717509D01*
X52996135Y-100857857D01*
X53243900Y-100907140D01*
X54844100Y-100907140D01*
X55091865Y-100857857D01*
X55301909Y-100717509D01*
X55442257Y-100507465D01*
X55445810Y-100489603D01*
X55499573Y-100619399D01*
X55678202Y-100798027D01*
X55911591Y-100894700D01*
X56552250Y-100894700D01*
X56711000Y-100735950D01*
X56711000Y-99485000D01*
X56965000Y-99485000D01*
X56965000Y-100735950D01*
X57123750Y-100894700D01*
X57764409Y-100894700D01*
X57997798Y-100798027D01*
X58176427Y-100619399D01*
X58273100Y-100386010D01*
X58273100Y-99643750D01*
X58114350Y-99485000D01*
X56965000Y-99485000D01*
X56711000Y-99485000D01*
X56691000Y-99485000D01*
X56691000Y-99231000D01*
X56711000Y-99231000D01*
X56711000Y-99211000D01*
X56965000Y-99211000D01*
X56965000Y-99231000D01*
X58114350Y-99231000D01*
X58273100Y-99072250D01*
X58273100Y-98329990D01*
X58176427Y-98096601D01*
X57997798Y-97917973D01*
X57764409Y-97821300D01*
X57123750Y-97821300D01*
X56965002Y-97980048D01*
X56965002Y-97826380D01*
X57032889Y-97826380D01*
X57266278Y-97729707D01*
X57444907Y-97551079D01*
X57541580Y-97317690D01*
X57541580Y-96976750D01*
X57382830Y-96818000D01*
X56584000Y-96818000D01*
X56584000Y-96838000D01*
X56330000Y-96838000D01*
X56330000Y-96818000D01*
X56310000Y-96818000D01*
X56310000Y-96564000D01*
X56330000Y-96564000D01*
X56330000Y-96544000D01*
X56584000Y-96544000D01*
X56584000Y-96564000D01*
X57382830Y-96564000D01*
X57541580Y-96405250D01*
X57541580Y-96064310D01*
X57493456Y-95948129D01*
X57550971Y-95948179D01*
X57931515Y-95790942D01*
X58222919Y-95500046D01*
X58274012Y-95377000D01*
X60058560Y-95377000D01*
X60058560Y-96727000D01*
X60107843Y-96974765D01*
X60248191Y-97184809D01*
X60396000Y-97283573D01*
X60396000Y-98596000D01*
X60453852Y-98886839D01*
X60618599Y-99133401D01*
X62142599Y-100657401D01*
X62389160Y-100822148D01*
X62437414Y-100831746D01*
X62680000Y-100880000D01*
X62813699Y-100880000D01*
X63026946Y-101199147D01*
X63508715Y-101521054D01*
X64077000Y-101634093D01*
X64645285Y-101521054D01*
X65127054Y-101199147D01*
X65347000Y-100869974D01*
X65566946Y-101199147D01*
X66048715Y-101521054D01*
X66617000Y-101634093D01*
X67185285Y-101521054D01*
X67667054Y-101199147D01*
X67887000Y-100869974D01*
X68106946Y-101199147D01*
X68588715Y-101521054D01*
X69157000Y-101634093D01*
X69725285Y-101521054D01*
X70207054Y-101199147D01*
X70427000Y-100869974D01*
X70646946Y-101199147D01*
X71128715Y-101521054D01*
X71697000Y-101634093D01*
X72265285Y-101521054D01*
X72747054Y-101199147D01*
X72776403Y-101155223D01*
X72848673Y-101329698D01*
X73027301Y-101508327D01*
X73260690Y-101605000D01*
X73951250Y-101605000D01*
X74110000Y-101446250D01*
X74110000Y-100247000D01*
X74364000Y-100247000D01*
X74364000Y-101446250D01*
X74522750Y-101605000D01*
X75213310Y-101605000D01*
X75446699Y-101508327D01*
X75625327Y-101329698D01*
X75722000Y-101096309D01*
X75722000Y-100405750D01*
X75563250Y-100247000D01*
X74364000Y-100247000D01*
X74110000Y-100247000D01*
X74090000Y-100247000D01*
X74090000Y-99993000D01*
X74110000Y-99993000D01*
X74110000Y-98793750D01*
X74364000Y-98793750D01*
X74364000Y-99993000D01*
X75563250Y-99993000D01*
X75722000Y-99834250D01*
X75722000Y-99143691D01*
X75625327Y-98910302D01*
X75446699Y-98731673D01*
X75213310Y-98635000D01*
X74522750Y-98635000D01*
X74364000Y-98793750D01*
X74110000Y-98793750D01*
X73951250Y-98635000D01*
X73272802Y-98635000D01*
X74393401Y-97514401D01*
X74509102Y-97341242D01*
X74676000Y-97374440D01*
X75576000Y-97374440D01*
X75761000Y-97337642D01*
X75946000Y-97374440D01*
X76846000Y-97374440D01*
X77030921Y-97337657D01*
X77089690Y-97362000D01*
X77380250Y-97362000D01*
X77539000Y-97203250D01*
X77539000Y-96179000D01*
X77793000Y-96179000D01*
X77793000Y-97203250D01*
X77951750Y-97362000D01*
X78242310Y-97362000D01*
X78475699Y-97265327D01*
X78654327Y-97086698D01*
X78751000Y-96853309D01*
X78751000Y-96337750D01*
X78592250Y-96179000D01*
X77793000Y-96179000D01*
X77539000Y-96179000D01*
X77519000Y-96179000D01*
X77519000Y-95925000D01*
X77539000Y-95925000D01*
X77539000Y-94900750D01*
X77793000Y-94900750D01*
X77793000Y-95925000D01*
X78592250Y-95925000D01*
X78751000Y-95766250D01*
X78751000Y-95250691D01*
X78654327Y-95017302D01*
X78475699Y-94838673D01*
X78242310Y-94742000D01*
X77951750Y-94742000D01*
X77793000Y-94900750D01*
X77539000Y-94900750D01*
X77380250Y-94742000D01*
X77089690Y-94742000D01*
X77030921Y-94766343D01*
X76846000Y-94729560D01*
X75946000Y-94729560D01*
X75761000Y-94766358D01*
X75576000Y-94729560D01*
X74676000Y-94729560D01*
X74491000Y-94766358D01*
X74306000Y-94729560D01*
X73406000Y-94729560D01*
X73221000Y-94766358D01*
X73036000Y-94729560D01*
X72136000Y-94729560D01*
X71951000Y-94766358D01*
X71766000Y-94729560D01*
X70866000Y-94729560D01*
X70681000Y-94766358D01*
X70496000Y-94729560D01*
X69596000Y-94729560D01*
X69411000Y-94766358D01*
X69226000Y-94729560D01*
X68326000Y-94729560D01*
X68141000Y-94766358D01*
X67956000Y-94729560D01*
X67056000Y-94729560D01*
X66871000Y-94766358D01*
X66686000Y-94729560D01*
X65786000Y-94729560D01*
X65601000Y-94766358D01*
X65416000Y-94729560D01*
X64516000Y-94729560D01*
X64331000Y-94766358D01*
X64146000Y-94729560D01*
X63246000Y-94729560D01*
X63061000Y-94766358D01*
X62876000Y-94729560D01*
X61976000Y-94729560D01*
X61791000Y-94766358D01*
X61606000Y-94729560D01*
X60706000Y-94729560D01*
X60458235Y-94778843D01*
X60248191Y-94919191D01*
X60107843Y-95129235D01*
X60058560Y-95377000D01*
X58274012Y-95377000D01*
X58380820Y-95119777D01*
X58381179Y-94708029D01*
X58223942Y-94327485D01*
X57933046Y-94036081D01*
X57552777Y-93878180D01*
X57141029Y-93877821D01*
X56913819Y-93971702D01*
X56455000Y-93512883D01*
X56455000Y-89856816D01*
X56653189Y-89724389D01*
X56793537Y-89514345D01*
X56842820Y-89266580D01*
X56842820Y-88367420D01*
X56793537Y-88119655D01*
X56757124Y-88065160D01*
X56793537Y-88010665D01*
X56842820Y-87762900D01*
X56842820Y-86863740D01*
X56793537Y-86615975D01*
X56653189Y-86405931D01*
X56455000Y-86273504D01*
X56455000Y-84305802D01*
X58020767Y-82740035D01*
X58185971Y-82740179D01*
X58333560Y-82679197D01*
X58333560Y-83042000D01*
X58370358Y-83227000D01*
X58333560Y-83412000D01*
X58333560Y-84312000D01*
X58370358Y-84497000D01*
X58333560Y-84682000D01*
X58333560Y-85582000D01*
X58370358Y-85767000D01*
X58333560Y-85952000D01*
X58333560Y-86852000D01*
X58370358Y-87037000D01*
X58333560Y-87222000D01*
X58333560Y-88122000D01*
X58370358Y-88307000D01*
X58333560Y-88492000D01*
X58333560Y-89392000D01*
X58370358Y-89577000D01*
X58333560Y-89762000D01*
X58333560Y-90662000D01*
X58370358Y-90847000D01*
X58333560Y-91032000D01*
X58333560Y-91932000D01*
X58370358Y-92117000D01*
X58333560Y-92302000D01*
X58333560Y-93202000D01*
X58382843Y-93449765D01*
X58523191Y-93659809D01*
X58733235Y-93800157D01*
X58981000Y-93849440D01*
X60331000Y-93849440D01*
X60578765Y-93800157D01*
X60788809Y-93659809D01*
X60929157Y-93449765D01*
X60978440Y-93202000D01*
X60978440Y-92302000D01*
X60941642Y-92117000D01*
X60978440Y-91932000D01*
X60978440Y-91032000D01*
X60941642Y-90847000D01*
X60978440Y-90662000D01*
X60978440Y-89762000D01*
X60941642Y-89577000D01*
X60978440Y-89392000D01*
X60978440Y-88492000D01*
X60941642Y-88307000D01*
X60978440Y-88122000D01*
X60978440Y-87222000D01*
X60941642Y-87037000D01*
X60978440Y-86852000D01*
X60978440Y-85952000D01*
X60941642Y-85767000D01*
X60978440Y-85582000D01*
X60978440Y-84682000D01*
X60941642Y-84497000D01*
X60976450Y-84322000D01*
X66308560Y-84322000D01*
X66308560Y-90322000D01*
X66357843Y-90569765D01*
X66498191Y-90779809D01*
X66708235Y-90920157D01*
X66956000Y-90969440D01*
X72956000Y-90969440D01*
X73203765Y-90920157D01*
X73413809Y-90779809D01*
X73554157Y-90569765D01*
X73603440Y-90322000D01*
X73603440Y-84322000D01*
X73554157Y-84074235D01*
X73413809Y-83864191D01*
X73203765Y-83723843D01*
X72956000Y-83674560D01*
X66956000Y-83674560D01*
X66708235Y-83723843D01*
X66498191Y-83864191D01*
X66357843Y-84074235D01*
X66308560Y-84322000D01*
X60976450Y-84322000D01*
X60978440Y-84312000D01*
X60978440Y-83412000D01*
X60941642Y-83227000D01*
X60978440Y-83042000D01*
X60978440Y-82142000D01*
X60941642Y-81957000D01*
X60978440Y-81772000D01*
X60978440Y-81068000D01*
X64875000Y-81068000D01*
X65165839Y-81010148D01*
X65412401Y-80845401D01*
X66773401Y-79484401D01*
X66889102Y-79311242D01*
X67056000Y-79344440D01*
X67956000Y-79344440D01*
X68141000Y-79307642D01*
X68326000Y-79344440D01*
X69226000Y-79344440D01*
X69411000Y-79307642D01*
X69596000Y-79344440D01*
X70496000Y-79344440D01*
X70681000Y-79307642D01*
X70866000Y-79344440D01*
X71766000Y-79344440D01*
X71951000Y-79307642D01*
X72136000Y-79344440D01*
X73036000Y-79344440D01*
X73221000Y-79307642D01*
X73406000Y-79344440D01*
X74306000Y-79344440D01*
X74366000Y-79332505D01*
X74366000Y-80493239D01*
X74249081Y-80609954D01*
X74091180Y-80990223D01*
X74090821Y-81401971D01*
X74248058Y-81782515D01*
X74538954Y-82073919D01*
X74919223Y-82231820D01*
X75330971Y-82232179D01*
X75711515Y-82074942D01*
X76002919Y-81784046D01*
X76160820Y-81403777D01*
X76161179Y-80992029D01*
X76013618Y-80634903D01*
X76189223Y-80707820D01*
X76600971Y-80708179D01*
X76981515Y-80550942D01*
X77272919Y-80260046D01*
X77430820Y-79879777D01*
X77431179Y-79468029D01*
X77374973Y-79332000D01*
X77380250Y-79332000D01*
X77539000Y-79173250D01*
X77539000Y-78149000D01*
X77793000Y-78149000D01*
X77793000Y-79173250D01*
X77951750Y-79332000D01*
X78242310Y-79332000D01*
X78475699Y-79235327D01*
X78654327Y-79056698D01*
X78751000Y-78823309D01*
X78751000Y-78307750D01*
X78592250Y-78149000D01*
X77793000Y-78149000D01*
X77539000Y-78149000D01*
X77519000Y-78149000D01*
X77519000Y-77895000D01*
X77539000Y-77895000D01*
X77539000Y-76870750D01*
X77793000Y-76870750D01*
X77793000Y-77895000D01*
X78592250Y-77895000D01*
X78751000Y-77736250D01*
X78751000Y-77220691D01*
X78654327Y-76987302D01*
X78475699Y-76808673D01*
X78242310Y-76712000D01*
X77951750Y-76712000D01*
X77793000Y-76870750D01*
X77539000Y-76870750D01*
X77380250Y-76712000D01*
X77089690Y-76712000D01*
X77030921Y-76736343D01*
X76846000Y-76699560D01*
X75946000Y-76699560D01*
X75761000Y-76736358D01*
X75576000Y-76699560D01*
X74676000Y-76699560D01*
X74491000Y-76736358D01*
X74306000Y-76699560D01*
X73406000Y-76699560D01*
X73221000Y-76736358D01*
X73036000Y-76699560D01*
X72136000Y-76699560D01*
X71951000Y-76736358D01*
X71766000Y-76699560D01*
X70866000Y-76699560D01*
X70681000Y-76736358D01*
X70496000Y-76699560D01*
X69596000Y-76699560D01*
X69411000Y-76736358D01*
X69226000Y-76699560D01*
X68326000Y-76699560D01*
X68141000Y-76736358D01*
X67956000Y-76699560D01*
X67056000Y-76699560D01*
X66871000Y-76736358D01*
X66686000Y-76699560D01*
X65786000Y-76699560D01*
X65601000Y-76736358D01*
X65416000Y-76699560D01*
X64516000Y-76699560D01*
X64331000Y-76736358D01*
X64146000Y-76699560D01*
X63246000Y-76699560D01*
X63061000Y-76736358D01*
X62876000Y-76699560D01*
X61976000Y-76699560D01*
X61791000Y-76736358D01*
X61606000Y-76699560D01*
X60706000Y-76699560D01*
X60458235Y-76748843D01*
X60248191Y-76889191D01*
X60107843Y-77099235D01*
X60058560Y-77347000D01*
X60058560Y-78405000D01*
X52264590Y-78405000D01*
X52022004Y-78453254D01*
X51973750Y-78462852D01*
X51727189Y-78627599D01*
X51138000Y-79216788D01*
X51138000Y-78942750D01*
X50979250Y-78784000D01*
X49980000Y-78784000D01*
X49980000Y-78804000D01*
X49726000Y-78804000D01*
X49726000Y-78784000D01*
X48726750Y-78784000D01*
X48568000Y-78942750D01*
X48568000Y-79929000D01*
X43361000Y-79929000D01*
X43070161Y-79986852D01*
X42823599Y-80151599D01*
X39917599Y-83057599D01*
X39778177Y-83266259D01*
X39597191Y-83387191D01*
X39456843Y-83597235D01*
X39407560Y-83845000D01*
X39407560Y-84645000D01*
X39456843Y-84892765D01*
X39558564Y-85045000D01*
X39456843Y-85197235D01*
X39407560Y-85445000D01*
X39407560Y-86245000D01*
X39456843Y-86492765D01*
X39597191Y-86702809D01*
X39695000Y-86768163D01*
X39695000Y-88147679D01*
X39579855Y-88170583D01*
X39369811Y-88310931D01*
X39229463Y-88520975D01*
X39180180Y-88768740D01*
X35885000Y-88768740D01*
X35885000Y-77360691D01*
X48568000Y-77360691D01*
X48568000Y-78371250D01*
X48726750Y-78530000D01*
X49726000Y-78530000D01*
X49726000Y-77010750D01*
X49980000Y-77010750D01*
X49980000Y-78530000D01*
X50979250Y-78530000D01*
X51138000Y-78371250D01*
X51138000Y-77360691D01*
X51041327Y-77127302D01*
X50862699Y-76948673D01*
X50629310Y-76852000D01*
X50138750Y-76852000D01*
X49980000Y-77010750D01*
X49726000Y-77010750D01*
X49567250Y-76852000D01*
X49076690Y-76852000D01*
X48843301Y-76948673D01*
X48664673Y-77127302D01*
X48568000Y-77360691D01*
X35885000Y-77360691D01*
X35885000Y-77087164D01*
X35909772Y-76962627D01*
X35930943Y-76930942D01*
X35962627Y-76909772D01*
X36172654Y-76867995D01*
X36491679Y-76735851D01*
X36735851Y-76491681D01*
X36867994Y-76172656D01*
X36867994Y-76117000D01*
X77313273Y-76117000D01*
X77344046Y-76271705D01*
X77344046Y-76271705D01*
G37*
X77344046Y-76271705D02*
X77497954Y-76502046D01*
X77728295Y-76655954D01*
X78000000Y-76710000D01*
X78482470Y-76710000D01*
X78508321Y-76735851D01*
X78827346Y-76867995D01*
X79037373Y-76909772D01*
X79069058Y-76930943D01*
X79090228Y-76962627D01*
X79132005Y-77172654D01*
X79264149Y-77491679D01*
X79290000Y-77517530D01*
X79290000Y-100930070D01*
X79255074Y-101105655D01*
X79195225Y-101195226D01*
X79105655Y-101255074D01*
X78861487Y-101303642D01*
X78605546Y-101409657D01*
X78409657Y-101605544D01*
X78339236Y-101775556D01*
X36867994Y-101892706D01*
X36867994Y-101827344D01*
X36735851Y-101508319D01*
X36491679Y-101264149D01*
X36172654Y-101132005D01*
X35962627Y-101090228D01*
X35930943Y-101069058D01*
X35909772Y-101037373D01*
X35885000Y-100912836D01*
X35885000Y-91007750D01*
X39192620Y-91007750D01*
X39192620Y-91297889D01*
X39289293Y-91531278D01*
X39467921Y-91709907D01*
X39701310Y-91806580D01*
X40042250Y-91806580D01*
X40201000Y-91647830D01*
X40201000Y-90849000D01*
X40455000Y-90849000D01*
X40455000Y-91647830D01*
X40613750Y-91806580D01*
X40954690Y-91806580D01*
X41188079Y-91709907D01*
X41366707Y-91531278D01*
X41463380Y-91297889D01*
X41463380Y-91007750D01*
X42875620Y-91007750D01*
X42875620Y-91297889D01*
X42972293Y-91531278D01*
X43150921Y-91709907D01*
X43384310Y-91806580D01*
X43725250Y-91806580D01*
X43884000Y-91647830D01*
X43884000Y-90849000D01*
X44138000Y-90849000D01*
X44138000Y-91647830D01*
X44296750Y-91806580D01*
X44637690Y-91806580D01*
X44871079Y-91709907D01*
X45049707Y-91531278D01*
X45146380Y-91297889D01*
X45146380Y-91007750D01*
X44987630Y-90849000D01*
X44138000Y-90849000D01*
X43884000Y-90849000D01*
X43034370Y-90849000D01*
X42875620Y-91007750D01*
X41463380Y-91007750D01*
X41304630Y-90849000D01*
X40455000Y-90849000D01*
X40201000Y-90849000D01*
X39351370Y-90849000D01*
X39192620Y-91007750D01*
X35885000Y-91007750D01*
X35885000Y-88768740D01*
X39180180Y-88768740D01*
X39180180Y-89667900D01*
X39229463Y-89915665D01*
X39265645Y-89969814D01*
X39192620Y-90146111D01*
X39192620Y-90436250D01*
X39351370Y-90595000D01*
X40201000Y-90595000D01*
X40201000Y-90575000D01*
X40455000Y-90575000D01*
X40455000Y-90595000D01*
X41304630Y-90595000D01*
X41463380Y-90436250D01*
X41463380Y-90146111D01*
X41390355Y-89969814D01*
X41426537Y-89915665D01*
X41475820Y-89667900D01*
X41475820Y-88768740D01*
X41426537Y-88520975D01*
X41286189Y-88310931D01*
X41215000Y-88263364D01*
X41215000Y-86768163D01*
X41312809Y-86702809D01*
X41453157Y-86492765D01*
X41502440Y-86245000D01*
X41502440Y-85445000D01*
X41453157Y-85197235D01*
X41351436Y-85045000D01*
X41453157Y-84892765D01*
X41502440Y-84645000D01*
X41502440Y-83845000D01*
X41465502Y-83659300D01*
X43675802Y-81449000D01*
X45133198Y-81449000D01*
X43473599Y-83108599D01*
X43334177Y-83317259D01*
X43153191Y-83438191D01*
X43012843Y-83648235D01*
X42963560Y-83896000D01*
X42963560Y-84696000D01*
X43012843Y-84943765D01*
X43114564Y-85096000D01*
X43012843Y-85248235D01*
X42963560Y-85496000D01*
X42963560Y-86296000D01*
X43012843Y-86543765D01*
X43153191Y-86753809D01*
X43251000Y-86819163D01*
X43251000Y-88178504D01*
X43052811Y-88310931D01*
X42912463Y-88520975D01*
X42863180Y-88768740D01*
X42863180Y-89667900D01*
X42912463Y-89915665D01*
X42948645Y-89969814D01*
X42875620Y-90146111D01*
X42875620Y-90436250D01*
X43034370Y-90595000D01*
X43884000Y-90595000D01*
X43884000Y-90575000D01*
X44138000Y-90575000D01*
X44138000Y-90595000D01*
X44987630Y-90595000D01*
X45146380Y-90436250D01*
X45146380Y-90146111D01*
X45073355Y-89969814D01*
X45109537Y-89915665D01*
X45158820Y-89667900D01*
X45158820Y-88768740D01*
X45109537Y-88520975D01*
X44969189Y-88310931D01*
X44771000Y-88178504D01*
X44771000Y-86819163D01*
X44868809Y-86753809D01*
X45009157Y-86543765D01*
X45058440Y-86296000D01*
X45058440Y-85496000D01*
X45009157Y-85248235D01*
X44907436Y-85096000D01*
X45009157Y-84943765D01*
X45058440Y-84696000D01*
X45058440Y-83896000D01*
X45021502Y-83710300D01*
X46296552Y-82435250D01*
X51597980Y-82435250D01*
X51597980Y-82575529D01*
X51694653Y-82808918D01*
X51873281Y-82987547D01*
X52106670Y-83084220D01*
X52447610Y-83084220D01*
X52606360Y-82925470D01*
X52606360Y-82276500D01*
X51756730Y-82276500D01*
X51597980Y-82435250D01*
X46296552Y-82435250D01*
X46774802Y-81957000D01*
X50869000Y-81957000D01*
X51159839Y-81899148D01*
X51406401Y-81734401D01*
X51417331Y-81723471D01*
X51597980Y-81723471D01*
X51597980Y-81863750D01*
X51756730Y-82022500D01*
X52606360Y-82022500D01*
X52606360Y-81373530D01*
X52447610Y-81214780D01*
X52106670Y-81214780D01*
X51873281Y-81311453D01*
X51694653Y-81490082D01*
X51597980Y-81723471D01*
X51417331Y-81723471D01*
X52707802Y-80433000D01*
X53898135Y-80433000D01*
X53888451Y-80439471D01*
X53858501Y-80484293D01*
X53805420Y-80494852D01*
X53558859Y-80659599D01*
X53125599Y-81092859D01*
X53044134Y-81214780D01*
X53019110Y-81214780D01*
X52860360Y-81373530D01*
X52860360Y-82022500D01*
X52880360Y-82022500D01*
X52880360Y-82276500D01*
X52860360Y-82276500D01*
X52860360Y-82925470D01*
X52903000Y-82968110D01*
X52903000Y-95233198D01*
X52099233Y-96036965D01*
X51934029Y-96036821D01*
X51553485Y-96194058D01*
X51510468Y-96237000D01*
X51150440Y-96237000D01*
X51150440Y-95827000D01*
X51101157Y-95579235D01*
X50960809Y-95369191D01*
X50750765Y-95228843D01*
X50503000Y-95179560D01*
X49203000Y-95179560D01*
X48955235Y-95228843D01*
X48745191Y-95369191D01*
X48604843Y-95579235D01*
X48555560Y-95827000D01*
X48555560Y-98167000D01*
X48604843Y-98414765D01*
X48745191Y-98624809D01*
X48955235Y-98765157D01*
X49203000Y-98814440D01*
X50503000Y-98814440D01*
X50750765Y-98765157D01*
X50960809Y-98624809D01*
X51101157Y-98414765D01*
X51150440Y-98167000D01*
X51150440Y-97757000D01*
X51360370Y-97757000D01*
X51551954Y-97948919D01*
X51932223Y-98106820D01*
X52343971Y-98107179D01*
X52724515Y-97949942D01*
X53015919Y-97659046D01*
X53173820Y-97278777D01*
X53173966Y-97111836D01*
X53856300Y-96429502D01*
X53856300Y-97191380D01*
X53877506Y-97297992D01*
X53506599Y-97668899D01*
X53413080Y-97808860D01*
X53243900Y-97808860D01*
X52996135Y-97858143D01*
X52786091Y-97998491D01*
X52645743Y-98208535D01*
X52596460Y-98456300D01*
X52596460Y-100259700D01*
X52645743Y-100507465D01*
X52786091Y-100717509D01*
X52996135Y-100857857D01*
X53243900Y-100907140D01*
X54844100Y-100907140D01*
X55091865Y-100857857D01*
X55301909Y-100717509D01*
X55442257Y-100507465D01*
X55445810Y-100489603D01*
X55499573Y-100619399D01*
X55678202Y-100798027D01*
X55911591Y-100894700D01*
X56552250Y-100894700D01*
X56711000Y-100735950D01*
X56711000Y-99485000D01*
X56965000Y-99485000D01*
X56965000Y-100735950D01*
X57123750Y-100894700D01*
X57764409Y-100894700D01*
X57997798Y-100798027D01*
X58176427Y-100619399D01*
X58273100Y-100386010D01*
X58273100Y-99643750D01*
X58114350Y-99485000D01*
X56965000Y-99485000D01*
X56711000Y-99485000D01*
X56691000Y-99485000D01*
X56691000Y-99231000D01*
X56711000Y-99231000D01*
X56711000Y-99211000D01*
X56965000Y-99211000D01*
X56965000Y-99231000D01*
X58114350Y-99231000D01*
X58273100Y-99072250D01*
X58273100Y-98329990D01*
X58176427Y-98096601D01*
X57997798Y-97917973D01*
X57764409Y-97821300D01*
X57123750Y-97821300D01*
X56965002Y-97980048D01*
X56965002Y-97826380D01*
X57032889Y-97826380D01*
X57266278Y-97729707D01*
X57444907Y-97551079D01*
X57541580Y-97317690D01*
X57541580Y-96976750D01*
X57382830Y-96818000D01*
X56584000Y-96818000D01*
X56584000Y-96838000D01*
X56330000Y-96838000D01*
X56330000Y-96818000D01*
X56310000Y-96818000D01*
X56310000Y-96564000D01*
X56330000Y-96564000D01*
X56330000Y-96544000D01*
X56584000Y-96544000D01*
X56584000Y-96564000D01*
X57382830Y-96564000D01*
X57541580Y-96405250D01*
X57541580Y-96064310D01*
X57493456Y-95948129D01*
X57550971Y-95948179D01*
X57931515Y-95790942D01*
X58222919Y-95500046D01*
X58274012Y-95377000D01*
X60058560Y-95377000D01*
X60058560Y-96727000D01*
X60107843Y-96974765D01*
X60248191Y-97184809D01*
X60396000Y-97283573D01*
X60396000Y-98596000D01*
X60453852Y-98886839D01*
X60618599Y-99133401D01*
X62142599Y-100657401D01*
X62389160Y-100822148D01*
X62437414Y-100831746D01*
X62680000Y-100880000D01*
X62813699Y-100880000D01*
X63026946Y-101199147D01*
X63508715Y-101521054D01*
X64077000Y-101634093D01*
X64645285Y-101521054D01*
X65127054Y-101199147D01*
X65347000Y-100869974D01*
X65566946Y-101199147D01*
X66048715Y-101521054D01*
X66617000Y-101634093D01*
X67185285Y-101521054D01*
X67667054Y-101199147D01*
X67887000Y-100869974D01*
X68106946Y-101199147D01*
X68588715Y-101521054D01*
X69157000Y-101634093D01*
X69725285Y-101521054D01*
X70207054Y-101199147D01*
X70427000Y-100869974D01*
X70646946Y-101199147D01*
X71128715Y-101521054D01*
X71697000Y-101634093D01*
X72265285Y-101521054D01*
X72747054Y-101199147D01*
X72776403Y-101155223D01*
X72848673Y-101329698D01*
X73027301Y-101508327D01*
X73260690Y-101605000D01*
X73951250Y-101605000D01*
X74110000Y-101446250D01*
X74110000Y-100247000D01*
X74364000Y-100247000D01*
X74364000Y-101446250D01*
X74522750Y-101605000D01*
X75213310Y-101605000D01*
X75446699Y-101508327D01*
X75625327Y-101329698D01*
X75722000Y-101096309D01*
X75722000Y-100405750D01*
X75563250Y-100247000D01*
X74364000Y-100247000D01*
X74110000Y-100247000D01*
X74090000Y-100247000D01*
X74090000Y-99993000D01*
X74110000Y-99993000D01*
X74110000Y-98793750D01*
X74364000Y-98793750D01*
X74364000Y-99993000D01*
X75563250Y-99993000D01*
X75722000Y-99834250D01*
X75722000Y-99143691D01*
X75625327Y-98910302D01*
X75446699Y-98731673D01*
X75213310Y-98635000D01*
X74522750Y-98635000D01*
X74364000Y-98793750D01*
X74110000Y-98793750D01*
X73951250Y-98635000D01*
X73272802Y-98635000D01*
X74393401Y-97514401D01*
X74509102Y-97341242D01*
X74676000Y-97374440D01*
X75576000Y-97374440D01*
X75761000Y-97337642D01*
X75946000Y-97374440D01*
X76846000Y-97374440D01*
X77030921Y-97337657D01*
X77089690Y-97362000D01*
X77380250Y-97362000D01*
X77539000Y-97203250D01*
X77539000Y-96179000D01*
X77793000Y-96179000D01*
X77793000Y-97203250D01*
X77951750Y-97362000D01*
X78242310Y-97362000D01*
X78475699Y-97265327D01*
X78654327Y-97086698D01*
X78751000Y-96853309D01*
X78751000Y-96337750D01*
X78592250Y-96179000D01*
X77793000Y-96179000D01*
X77539000Y-96179000D01*
X77519000Y-96179000D01*
X77519000Y-95925000D01*
X77539000Y-95925000D01*
X77539000Y-94900750D01*
X77793000Y-94900750D01*
X77793000Y-95925000D01*
X78592250Y-95925000D01*
X78751000Y-95766250D01*
X78751000Y-95250691D01*
X78654327Y-95017302D01*
X78475699Y-94838673D01*
X78242310Y-94742000D01*
X77951750Y-94742000D01*
X77793000Y-94900750D01*
X77539000Y-94900750D01*
X77380250Y-94742000D01*
X77089690Y-94742000D01*
X77030921Y-94766343D01*
X76846000Y-94729560D01*
X75946000Y-94729560D01*
X75761000Y-94766358D01*
X75576000Y-94729560D01*
X74676000Y-94729560D01*
X74491000Y-94766358D01*
X74306000Y-94729560D01*
X73406000Y-94729560D01*
X73221000Y-94766358D01*
X73036000Y-94729560D01*
X72136000Y-94729560D01*
X71951000Y-94766358D01*
X71766000Y-94729560D01*
X70866000Y-94729560D01*
X70681000Y-94766358D01*
X70496000Y-94729560D01*
X69596000Y-94729560D01*
X69411000Y-94766358D01*
X69226000Y-94729560D01*
X68326000Y-94729560D01*
X68141000Y-94766358D01*
X67956000Y-94729560D01*
X67056000Y-94729560D01*
X66871000Y-94766358D01*
X66686000Y-94729560D01*
X65786000Y-94729560D01*
X65601000Y-94766358D01*
X65416000Y-94729560D01*
X64516000Y-94729560D01*
X64331000Y-94766358D01*
X64146000Y-94729560D01*
X63246000Y-94729560D01*
X63061000Y-94766358D01*
X62876000Y-94729560D01*
X61976000Y-94729560D01*
X61791000Y-94766358D01*
X61606000Y-94729560D01*
X60706000Y-94729560D01*
X60458235Y-94778843D01*
X60248191Y-94919191D01*
X60107843Y-95129235D01*
X60058560Y-95377000D01*
X58274012Y-95377000D01*
X58380820Y-95119777D01*
X58381179Y-94708029D01*
X58223942Y-94327485D01*
X57933046Y-94036081D01*
X57552777Y-93878180D01*
X57141029Y-93877821D01*
X56913819Y-93971702D01*
X56455000Y-93512883D01*
X56455000Y-89856816D01*
X56653189Y-89724389D01*
X56793537Y-89514345D01*
X56842820Y-89266580D01*
X56842820Y-88367420D01*
X56793537Y-88119655D01*
X56757124Y-88065160D01*
X56793537Y-88010665D01*
X56842820Y-87762900D01*
X56842820Y-86863740D01*
X56793537Y-86615975D01*
X56653189Y-86405931D01*
X56455000Y-86273504D01*
X56455000Y-84305802D01*
X58020767Y-82740035D01*
X58185971Y-82740179D01*
X58333560Y-82679197D01*
X58333560Y-83042000D01*
X58370358Y-83227000D01*
X58333560Y-83412000D01*
X58333560Y-84312000D01*
X58370358Y-84497000D01*
X58333560Y-84682000D01*
X58333560Y-85582000D01*
X58370358Y-85767000D01*
X58333560Y-85952000D01*
X58333560Y-86852000D01*
X58370358Y-87037000D01*
X58333560Y-87222000D01*
X58333560Y-88122000D01*
X58370358Y-88307000D01*
X58333560Y-88492000D01*
X58333560Y-89392000D01*
X58370358Y-89577000D01*
X58333560Y-89762000D01*
X58333560Y-90662000D01*
X58370358Y-90847000D01*
X58333560Y-91032000D01*
X58333560Y-91932000D01*
X58370358Y-92117000D01*
X58333560Y-92302000D01*
X58333560Y-93202000D01*
X58382843Y-93449765D01*
X58523191Y-93659809D01*
X58733235Y-93800157D01*
X58981000Y-93849440D01*
X60331000Y-93849440D01*
X60578765Y-93800157D01*
X60788809Y-93659809D01*
X60929157Y-93449765D01*
X60978440Y-93202000D01*
X60978440Y-92302000D01*
X60941642Y-92117000D01*
X60978440Y-91932000D01*
X60978440Y-91032000D01*
X60941642Y-90847000D01*
X60978440Y-90662000D01*
X60978440Y-89762000D01*
X60941642Y-89577000D01*
X60978440Y-89392000D01*
X60978440Y-88492000D01*
X60941642Y-88307000D01*
X60978440Y-88122000D01*
X60978440Y-87222000D01*
X60941642Y-87037000D01*
X60978440Y-86852000D01*
X60978440Y-85952000D01*
X60941642Y-85767000D01*
X60978440Y-85582000D01*
X60978440Y-84682000D01*
X60941642Y-84497000D01*
X60976450Y-84322000D01*
X66308560Y-84322000D01*
X66308560Y-90322000D01*
X66357843Y-90569765D01*
X66498191Y-90779809D01*
X66708235Y-90920157D01*
X66956000Y-90969440D01*
X72956000Y-90969440D01*
X73203765Y-90920157D01*
X73413809Y-90779809D01*
X73554157Y-90569765D01*
X73603440Y-90322000D01*
X73603440Y-84322000D01*
X73554157Y-84074235D01*
X73413809Y-83864191D01*
X73203765Y-83723843D01*
X72956000Y-83674560D01*
X66956000Y-83674560D01*
X66708235Y-83723843D01*
X66498191Y-83864191D01*
X66357843Y-84074235D01*
X66308560Y-84322000D01*
X60976450Y-84322000D01*
X60978440Y-84312000D01*
X60978440Y-83412000D01*
X60941642Y-83227000D01*
X60978440Y-83042000D01*
X60978440Y-82142000D01*
X60941642Y-81957000D01*
X60978440Y-81772000D01*
X60978440Y-81068000D01*
X64875000Y-81068000D01*
X65165839Y-81010148D01*
X65412401Y-80845401D01*
X66773401Y-79484401D01*
X66889102Y-79311242D01*
X67056000Y-79344440D01*
X67956000Y-79344440D01*
X68141000Y-79307642D01*
X68326000Y-79344440D01*
X69226000Y-79344440D01*
X69411000Y-79307642D01*
X69596000Y-79344440D01*
X70496000Y-79344440D01*
X70681000Y-79307642D01*
X70866000Y-79344440D01*
X71766000Y-79344440D01*
X71951000Y-79307642D01*
X72136000Y-79344440D01*
X73036000Y-79344440D01*
X73221000Y-79307642D01*
X73406000Y-79344440D01*
X74306000Y-79344440D01*
X74366000Y-79332505D01*
X74366000Y-80493239D01*
X74249081Y-80609954D01*
X74091180Y-80990223D01*
X74090821Y-81401971D01*
X74248058Y-81782515D01*
X74538954Y-82073919D01*
X74919223Y-82231820D01*
X75330971Y-82232179D01*
X75711515Y-82074942D01*
X76002919Y-81784046D01*
X76160820Y-81403777D01*
X76161179Y-80992029D01*
X76013618Y-80634903D01*
X76189223Y-80707820D01*
X76600971Y-80708179D01*
X76981515Y-80550942D01*
X77272919Y-80260046D01*
X77430820Y-79879777D01*
X77431179Y-79468029D01*
X77374973Y-79332000D01*
X77380250Y-79332000D01*
X77539000Y-79173250D01*
X77539000Y-78149000D01*
X77793000Y-78149000D01*
X77793000Y-79173250D01*
X77951750Y-79332000D01*
X78242310Y-79332000D01*
X78475699Y-79235327D01*
X78654327Y-79056698D01*
X78751000Y-78823309D01*
X78751000Y-78307750D01*
X78592250Y-78149000D01*
X77793000Y-78149000D01*
X77539000Y-78149000D01*
X77519000Y-78149000D01*
X77519000Y-77895000D01*
X77539000Y-77895000D01*
X77539000Y-76870750D01*
X77793000Y-76870750D01*
X77793000Y-77895000D01*
X78592250Y-77895000D01*
X78751000Y-77736250D01*
X78751000Y-77220691D01*
X78654327Y-76987302D01*
X78475699Y-76808673D01*
X78242310Y-76712000D01*
X77951750Y-76712000D01*
X77793000Y-76870750D01*
X77539000Y-76870750D01*
X77380250Y-76712000D01*
X77089690Y-76712000D01*
X77030921Y-76736343D01*
X76846000Y-76699560D01*
X75946000Y-76699560D01*
X75761000Y-76736358D01*
X75576000Y-76699560D01*
X74676000Y-76699560D01*
X74491000Y-76736358D01*
X74306000Y-76699560D01*
X73406000Y-76699560D01*
X73221000Y-76736358D01*
X73036000Y-76699560D01*
X72136000Y-76699560D01*
X71951000Y-76736358D01*
X71766000Y-76699560D01*
X70866000Y-76699560D01*
X70681000Y-76736358D01*
X70496000Y-76699560D01*
X69596000Y-76699560D01*
X69411000Y-76736358D01*
X69226000Y-76699560D01*
X68326000Y-76699560D01*
X68141000Y-76736358D01*
X67956000Y-76699560D01*
X67056000Y-76699560D01*
X66871000Y-76736358D01*
X66686000Y-76699560D01*
X65786000Y-76699560D01*
X65601000Y-76736358D01*
X65416000Y-76699560D01*
X64516000Y-76699560D01*
X64331000Y-76736358D01*
X64146000Y-76699560D01*
X63246000Y-76699560D01*
X63061000Y-76736358D01*
X62876000Y-76699560D01*
X61976000Y-76699560D01*
X61791000Y-76736358D01*
X61606000Y-76699560D01*
X60706000Y-76699560D01*
X60458235Y-76748843D01*
X60248191Y-76889191D01*
X60107843Y-77099235D01*
X60058560Y-77347000D01*
X60058560Y-78405000D01*
X52264590Y-78405000D01*
X52022004Y-78453254D01*
X51973750Y-78462852D01*
X51727189Y-78627599D01*
X51138000Y-79216788D01*
X51138000Y-78942750D01*
X50979250Y-78784000D01*
X49980000Y-78784000D01*
X49980000Y-78804000D01*
X49726000Y-78804000D01*
X49726000Y-78784000D01*
X48726750Y-78784000D01*
X48568000Y-78942750D01*
X48568000Y-79929000D01*
X43361000Y-79929000D01*
X43070161Y-79986852D01*
X42823599Y-80151599D01*
X39917599Y-83057599D01*
X39778177Y-83266259D01*
X39597191Y-83387191D01*
X39456843Y-83597235D01*
X39407560Y-83845000D01*
X39407560Y-84645000D01*
X39456843Y-84892765D01*
X39558564Y-85045000D01*
X39456843Y-85197235D01*
X39407560Y-85445000D01*
X39407560Y-86245000D01*
X39456843Y-86492765D01*
X39597191Y-86702809D01*
X39695000Y-86768163D01*
X39695000Y-88147679D01*
X39579855Y-88170583D01*
X39369811Y-88310931D01*
X39229463Y-88520975D01*
X39180180Y-88768740D01*
X35885000Y-88768740D01*
X35885000Y-77360691D01*
X48568000Y-77360691D01*
X48568000Y-78371250D01*
X48726750Y-78530000D01*
X49726000Y-78530000D01*
X49726000Y-77010750D01*
X49980000Y-77010750D01*
X49980000Y-78530000D01*
X50979250Y-78530000D01*
X51138000Y-78371250D01*
X51138000Y-77360691D01*
X51041327Y-77127302D01*
X50862699Y-76948673D01*
X50629310Y-76852000D01*
X50138750Y-76852000D01*
X49980000Y-77010750D01*
X49726000Y-77010750D01*
X49567250Y-76852000D01*
X49076690Y-76852000D01*
X48843301Y-76948673D01*
X48664673Y-77127302D01*
X48568000Y-77360691D01*
X35885000Y-77360691D01*
X35885000Y-77087164D01*
X35909772Y-76962627D01*
X35930943Y-76930942D01*
X35962627Y-76909772D01*
X36172654Y-76867995D01*
X36491679Y-76735851D01*
X36735851Y-76491681D01*
X36867994Y-76172656D01*
X36867994Y-76117000D01*
X77313273Y-76117000D01*
X77344046Y-76271705D01*
G36*
X68294103Y-97368095D02*
X66983408Y-98678790D01*
X66617000Y-98605907D01*
X66048715Y-98718946D01*
X65566946Y-99040853D01*
X65347000Y-99370026D01*
X65127054Y-99040853D01*
X64645285Y-98718946D01*
X64077000Y-98605907D01*
X63508715Y-98718946D01*
X63026946Y-99040853D01*
X62886239Y-99251437D01*
X61916000Y-98281198D01*
X61916000Y-97362505D01*
X61976000Y-97374440D01*
X62876000Y-97374440D01*
X63061000Y-97337642D01*
X63246000Y-97374440D01*
X64146000Y-97374440D01*
X64331000Y-97337642D01*
X64516000Y-97374440D01*
X65416000Y-97374440D01*
X65601000Y-97337642D01*
X65786000Y-97374440D01*
X66686000Y-97374440D01*
X66871000Y-97337642D01*
X67056000Y-97374440D01*
X67956000Y-97374440D01*
X68141000Y-97337642D01*
X68294103Y-97368095D01*
X68294103Y-97368095D01*
G37*
X68294103Y-97368095D02*
X66983408Y-98678790D01*
X66617000Y-98605907D01*
X66048715Y-98718946D01*
X65566946Y-99040853D01*
X65347000Y-99370026D01*
X65127054Y-99040853D01*
X64645285Y-98718946D01*
X64077000Y-98605907D01*
X63508715Y-98718946D01*
X63026946Y-99040853D01*
X62886239Y-99251437D01*
X61916000Y-98281198D01*
X61916000Y-97362505D01*
X61976000Y-97374440D01*
X62876000Y-97374440D01*
X63061000Y-97337642D01*
X63246000Y-97374440D01*
X64146000Y-97374440D01*
X64331000Y-97337642D01*
X64516000Y-97374440D01*
X65416000Y-97374440D01*
X65601000Y-97337642D01*
X65786000Y-97374440D01*
X66686000Y-97374440D01*
X66871000Y-97337642D01*
X67056000Y-97374440D01*
X67956000Y-97374440D01*
X68141000Y-97337642D01*
X68294103Y-97368095D01*
G36*
X56242914Y-95450401D02*
X56400385Y-95555620D01*
X56329998Y-95555620D01*
X56329998Y-95714368D01*
X56171250Y-95555620D01*
X55881111Y-95555620D01*
X55704814Y-95628645D01*
X55650665Y-95592463D01*
X55612036Y-95584779D01*
X55490721Y-95403219D01*
X55185000Y-95097498D01*
X55185000Y-94392487D01*
X56242914Y-95450401D01*
X56242914Y-95450401D01*
G37*
X56242914Y-95450401D02*
X56400385Y-95555620D01*
X56329998Y-95555620D01*
X56329998Y-95714368D01*
X56171250Y-95555620D01*
X55881111Y-95555620D01*
X55704814Y-95628645D01*
X55650665Y-95592463D01*
X55612036Y-95584779D01*
X55490721Y-95403219D01*
X55185000Y-95097498D01*
X55185000Y-94392487D01*
X56242914Y-95450401D01*
M02*
