G04 #@! TF.GenerationSoftware,KiCad,Pcbnew,no-vcs-found*
G04 #@! TF.CreationDate,2017-01-06T12:50:59+01:00*
G04 #@! TF.ProjectId,ESP32-HELP-Button-pan,45535033322D48454C502D427574746F,rev?*
G04 #@! TF.FileFunction,Profile,NP*
%FSLAX46Y46*%
G04 Gerber Fmt 4.6, Leading zero omitted, Abs format (unit mm)*
G04 Created by KiCad (PCBNEW no-vcs-found) date Fri Jan  6 12:50:59 2017*
%MOMM*%
%LPD*%
G01*
G04 APERTURE LIST*
%ADD10C,0.100000*%
%ADD11C,0.500000*%
%ADD12C,0.010000*%
G04 APERTURE END LIST*
D10*
D11*
X79000000Y-102000000D02*
G75*
G03X80000000Y-101000000I0J1000000D01*
G01*
X80000000Y-77000000D02*
G75*
G03X79000000Y-76000000I-1000000J0D01*
G01*
X36000000Y-76000000D02*
G75*
G03X35000000Y-77000000I0J-1000000D01*
G01*
X35000000Y-101000000D02*
G75*
G03X36000000Y-102000000I1000000J0D01*
G01*
X35000000Y-101000000D02*
X35000000Y-77000000D01*
X80000000Y-101000000D02*
X80000000Y-77000000D01*
X36000000Y-76000000D02*
X40000000Y-76000000D01*
D12*
X40000000Y-76000000D02*
X44000000Y-76000000D01*
D11*
X44000000Y-76000000D02*
X71000000Y-76000000D01*
D12*
X71000000Y-76000000D02*
X75000000Y-76000000D01*
D11*
X75000000Y-76000000D02*
X79000000Y-76000000D01*
X79000000Y-102000000D02*
X75000000Y-102000000D01*
D12*
X75000000Y-102000000D02*
X71000000Y-102000000D01*
D11*
X71000000Y-102000000D02*
X44000000Y-102000000D01*
D12*
X44000000Y-102000000D02*
X40000000Y-102000000D01*
D11*
X40000000Y-102000000D02*
X36000000Y-102000000D01*
X126000000Y-130500000D02*
G75*
G03X127000000Y-129500000I0J1000000D01*
G01*
X127000000Y-105500000D02*
G75*
G03X126000000Y-104500000I-1000000J0D01*
G01*
X38000000Y-104500000D02*
G75*
G03X37000000Y-105500000I0J-1000000D01*
G01*
X37000000Y-129500000D02*
G75*
G03X38000000Y-130500000I1000000J0D01*
G01*
X37000000Y-129500000D02*
X37000000Y-105500000D01*
X127000000Y-129500000D02*
X127000000Y-105500000D01*
X39000000Y-104500000D02*
X38000000Y-104500000D01*
X39000000Y-130500000D02*
X38000000Y-130500000D01*
X43000000Y-104500000D02*
X121000000Y-104500000D01*
X125000000Y-104500000D02*
X126000000Y-104500000D01*
X126000000Y-130500000D02*
X125000000Y-130500000D01*
X121000000Y-130500000D02*
X43000000Y-130500000D01*
D12*
X39000000Y-130500000D02*
X43000000Y-130500000D01*
X121000000Y-130500000D02*
X125000000Y-130500000D01*
X125000000Y-104500000D02*
X121000000Y-104500000D01*
X39000000Y-104500000D02*
X43000000Y-104500000D01*
D11*
X87000000Y-102000000D02*
X83000000Y-102000000D01*
D12*
X91000000Y-102000000D02*
X87000000Y-102000000D01*
D11*
X118000000Y-102000000D02*
X91000000Y-102000000D01*
D12*
X122000000Y-102000000D02*
X118000000Y-102000000D01*
D11*
X126000000Y-102000000D02*
X122000000Y-102000000D01*
X122000000Y-76000000D02*
X126000000Y-76000000D01*
D12*
X118000000Y-76000000D02*
X122000000Y-76000000D01*
D11*
X91000000Y-76000000D02*
X118000000Y-76000000D01*
D12*
X87000000Y-76000000D02*
X91000000Y-76000000D01*
D11*
X83000000Y-76000000D02*
X87000000Y-76000000D01*
X127000000Y-101000000D02*
X127000000Y-77000000D01*
X82000000Y-101000000D02*
X82000000Y-77000000D01*
X82000000Y-101000000D02*
G75*
G03X83000000Y-102000000I1000000J0D01*
G01*
X83000000Y-76000000D02*
G75*
G03X82000000Y-77000000I0J-1000000D01*
G01*
X127000000Y-77000000D02*
G75*
G03X126000000Y-76000000I-1000000J0D01*
G01*
X126000000Y-102000000D02*
G75*
G03X127000000Y-101000000I0J1000000D01*
G01*
D12*
X39000000Y-133000000D02*
X43000000Y-133000000D01*
X125000000Y-133000000D02*
X121000000Y-133000000D01*
X121000000Y-159000000D02*
X125000000Y-159000000D01*
X39000000Y-159000000D02*
X43000000Y-159000000D01*
D11*
X121000000Y-159000000D02*
X43000000Y-159000000D01*
X126000000Y-159000000D02*
X125000000Y-159000000D01*
X125000000Y-133000000D02*
X126000000Y-133000000D01*
X43000000Y-133000000D02*
X121000000Y-133000000D01*
X39000000Y-159000000D02*
X38000000Y-159000000D01*
X39000000Y-133000000D02*
X38000000Y-133000000D01*
X127000000Y-158000000D02*
X127000000Y-134000000D01*
X37000000Y-158000000D02*
X37000000Y-134000000D01*
X37000000Y-158000000D02*
G75*
G03X38000000Y-159000000I1000000J0D01*
G01*
X38000000Y-133000000D02*
G75*
G03X37000000Y-134000000I0J-1000000D01*
G01*
X127000000Y-134000000D02*
G75*
G03X126000000Y-133000000I-1000000J0D01*
G01*
X126000000Y-159000000D02*
G75*
G03X127000000Y-158000000I0J1000000D01*
G01*
M02*
