G04 #@! TF.GenerationSoftware,KiCad,Pcbnew,no-vcs-found*
G04 #@! TF.CreationDate,2017-01-05T13:18:46+01:00*
G04 #@! TF.ProjectId,ESP32-HELP-Button-pan,45535033322D48454C502D427574746F,rev?*
G04 #@! TF.FileFunction,Copper,L2,Bot,Signal*
G04 #@! TF.FilePolarity,Positive*
%FSLAX46Y46*%
G04 Gerber Fmt 4.6, Leading zero omitted, Abs format (unit mm)*
G04 Created by KiCad (PCBNEW no-vcs-found) date Thu Jan  5 13:18:46 2017*
%MOMM*%
%LPD*%
G01*
G04 APERTURE LIST*
%ADD10C,0.100000*%
%ADD11C,0.381000*%
%ADD12C,0.800000*%
%ADD13R,1.700000X1.700000*%
%ADD14O,1.700000X1.700000*%
%ADD15R,6.000000X3.000000*%
%ADD16C,16.000000*%
%ADD17C,0.600000*%
%ADD18R,10.000000X8.000000*%
%ADD19C,0.250000*%
%ADD20C,0.500000*%
%ADD21C,0.254000*%
G04 APERTURE END LIST*
D10*
D11*
X34790700Y-73000000D02*
G75*
G03X34790700Y-73000000I-1790700J0D01*
G01*
X34529080Y-73000000D02*
G75*
G03X34529080Y-73000000I-1529080J0D01*
G01*
X34529080Y-166000000D02*
G75*
G03X34529080Y-166000000I-1529080J0D01*
G01*
X34790700Y-166000000D02*
G75*
G03X34790700Y-166000000I-1790700J0D01*
G01*
D12*
X114822000Y-78544000D03*
X114822000Y-79544000D03*
X114822000Y-80544000D03*
X114822000Y-81544000D03*
X114822000Y-82544000D03*
X112822000Y-78544000D03*
X112822000Y-79544000D03*
X112822000Y-80544000D03*
X112822000Y-81544000D03*
X112822000Y-82544000D03*
X113822000Y-82544000D03*
X113822000Y-81544000D03*
X113822000Y-80544000D03*
X113822000Y-79544000D03*
X113822000Y-78544000D03*
X111822000Y-78544000D03*
X111822000Y-79544000D03*
X111822000Y-80544000D03*
X111822000Y-81544000D03*
X111822000Y-82544000D03*
X110822000Y-82544000D03*
X110822000Y-81544000D03*
X110822000Y-80544000D03*
X110822000Y-79544000D03*
X110822000Y-78544000D03*
D13*
X125620000Y-76263000D03*
D14*
X125620000Y-78803000D03*
X125620000Y-81343000D03*
X125620000Y-83883000D03*
X125620000Y-86423000D03*
D15*
X112773131Y-86432039D03*
X112973131Y-112432039D03*
D16*
X112973131Y-99432039D03*
D17*
X118127000Y-81597000D03*
X123334000Y-88201000D03*
X120794000Y-94805000D03*
X106951000Y-71945000D03*
X107967000Y-71945000D03*
X108983000Y-71945000D03*
X110126000Y-71945000D03*
X111142000Y-71945000D03*
X112158000Y-71945000D03*
X113174000Y-71945000D03*
X114190000Y-71945000D03*
X115206000Y-71945000D03*
X116222000Y-71945000D03*
X117238000Y-71945000D03*
X118254000Y-71945000D03*
X119270000Y-71945000D03*
X105808000Y-71945000D03*
D12*
X87822000Y-78544000D03*
X87822000Y-79544000D03*
X87822000Y-80544000D03*
X87822000Y-81544000D03*
X87822000Y-82544000D03*
X85822000Y-78544000D03*
X85822000Y-79544000D03*
X85822000Y-80544000D03*
X85822000Y-81544000D03*
X85822000Y-82544000D03*
X86822000Y-82544000D03*
X86822000Y-81544000D03*
X86822000Y-80544000D03*
X86822000Y-79544000D03*
X86822000Y-78544000D03*
X84822000Y-78544000D03*
X84822000Y-79544000D03*
X84822000Y-80544000D03*
X84822000Y-81544000D03*
X84822000Y-82544000D03*
X83822000Y-82544000D03*
X83822000Y-81544000D03*
X83822000Y-80544000D03*
X83822000Y-79544000D03*
X83822000Y-78544000D03*
D13*
X98620000Y-76263000D03*
D14*
X98620000Y-78803000D03*
X98620000Y-81343000D03*
X98620000Y-83883000D03*
X98620000Y-86423000D03*
D15*
X85773131Y-86432039D03*
X85973131Y-112432039D03*
D16*
X85973131Y-99432039D03*
D17*
X91127000Y-81597000D03*
X96334000Y-88201000D03*
X93794000Y-94805000D03*
X79951000Y-71945000D03*
X80967000Y-71945000D03*
X81983000Y-71945000D03*
X83126000Y-71945000D03*
X84142000Y-71945000D03*
X85158000Y-71945000D03*
X86174000Y-71945000D03*
X87190000Y-71945000D03*
X88206000Y-71945000D03*
X89222000Y-71945000D03*
X90238000Y-71945000D03*
X91254000Y-71945000D03*
X92270000Y-71945000D03*
X78808000Y-71945000D03*
D18*
X44075000Y-127674000D03*
X122175000Y-127674000D03*
D12*
X108956000Y-129322000D03*
X107956000Y-129322000D03*
X106956000Y-129322000D03*
X105956000Y-129322000D03*
X104956000Y-129322000D03*
X108956000Y-127322000D03*
X107956000Y-127322000D03*
X106956000Y-127322000D03*
X105956000Y-127322000D03*
X104956000Y-127322000D03*
X104956000Y-128322000D03*
X105956000Y-128322000D03*
X106956000Y-128322000D03*
X107956000Y-128322000D03*
X108956000Y-128322000D03*
X108956000Y-126322000D03*
X107956000Y-126322000D03*
X106956000Y-126322000D03*
X105956000Y-126322000D03*
X104956000Y-126322000D03*
X104956000Y-125322000D03*
X105956000Y-125322000D03*
X106956000Y-125322000D03*
X107956000Y-125322000D03*
X108956000Y-125322000D03*
D13*
X111237000Y-140120000D03*
D14*
X108697000Y-140120000D03*
X106157000Y-140120000D03*
X103617000Y-140120000D03*
X101077000Y-140120000D03*
D17*
X105903000Y-132627000D03*
X99299000Y-137834000D03*
X92695000Y-135294000D03*
X115555000Y-121451000D03*
X115555000Y-122467000D03*
X115555000Y-123483000D03*
X115555000Y-124626000D03*
X115555000Y-125642000D03*
X115555000Y-126658000D03*
X115555000Y-127674000D03*
X115555000Y-128690000D03*
X115555000Y-129706000D03*
X115555000Y-130722000D03*
X115555000Y-131738000D03*
X115555000Y-132754000D03*
X115555000Y-133770000D03*
X115555000Y-120435000D03*
X126620000Y-117387000D03*
X51808000Y-71945000D03*
X65270000Y-71945000D03*
X64254000Y-71945000D03*
X63238000Y-71945000D03*
X62222000Y-71945000D03*
X61206000Y-71945000D03*
X60190000Y-71945000D03*
X59174000Y-71945000D03*
X58158000Y-71945000D03*
X57142000Y-71945000D03*
X56126000Y-71945000D03*
X54983000Y-71945000D03*
X53967000Y-71945000D03*
X52951000Y-71945000D03*
X66794000Y-94805000D03*
X69334000Y-88201000D03*
X64127000Y-81597000D03*
D16*
X58973131Y-99432039D03*
D15*
X58973131Y-112432039D03*
X58773131Y-86432039D03*
D14*
X71620000Y-86423000D03*
X71620000Y-83883000D03*
X71620000Y-81343000D03*
X71620000Y-78803000D03*
D13*
X71620000Y-76263000D03*
D12*
X56822000Y-78544000D03*
X56822000Y-79544000D03*
X56822000Y-80544000D03*
X56822000Y-81544000D03*
X56822000Y-82544000D03*
X57822000Y-82544000D03*
X57822000Y-81544000D03*
X57822000Y-80544000D03*
X57822000Y-79544000D03*
X57822000Y-78544000D03*
X59822000Y-78544000D03*
X59822000Y-79544000D03*
X59822000Y-80544000D03*
X59822000Y-81544000D03*
X59822000Y-82544000D03*
X58822000Y-82544000D03*
X58822000Y-81544000D03*
X58822000Y-80544000D03*
X58822000Y-79544000D03*
X58822000Y-78544000D03*
X60822000Y-82544000D03*
X60822000Y-81544000D03*
X60822000Y-80544000D03*
X60822000Y-79544000D03*
X60822000Y-78544000D03*
D17*
X126620000Y-144387000D03*
X115555000Y-147435000D03*
X115555000Y-160770000D03*
X115555000Y-159754000D03*
X115555000Y-158738000D03*
X115555000Y-157722000D03*
X115555000Y-156706000D03*
X115555000Y-155690000D03*
X115555000Y-154674000D03*
X115555000Y-153658000D03*
X115555000Y-152642000D03*
X115555000Y-151626000D03*
X115555000Y-150483000D03*
X115555000Y-149467000D03*
X115555000Y-148451000D03*
X92695000Y-162294000D03*
X99299000Y-164834000D03*
X105903000Y-159627000D03*
D14*
X101077000Y-167120000D03*
X103617000Y-167120000D03*
X106157000Y-167120000D03*
X108697000Y-167120000D03*
D13*
X111237000Y-167120000D03*
D12*
X108956000Y-152322000D03*
X107956000Y-152322000D03*
X106956000Y-152322000D03*
X105956000Y-152322000D03*
X104956000Y-152322000D03*
X104956000Y-153322000D03*
X105956000Y-153322000D03*
X106956000Y-153322000D03*
X107956000Y-153322000D03*
X108956000Y-153322000D03*
X108956000Y-155322000D03*
X107956000Y-155322000D03*
X106956000Y-155322000D03*
X105956000Y-155322000D03*
X104956000Y-155322000D03*
X104956000Y-154322000D03*
X105956000Y-154322000D03*
X106956000Y-154322000D03*
X107956000Y-154322000D03*
X108956000Y-154322000D03*
X104956000Y-156322000D03*
X105956000Y-156322000D03*
X106956000Y-156322000D03*
X107956000Y-156322000D03*
X108956000Y-156322000D03*
D18*
X122175000Y-154674000D03*
X44075000Y-154674000D03*
D12*
X122572000Y-98361000D03*
X95572000Y-98361000D03*
X89139000Y-137072000D03*
X68572000Y-98361000D03*
X89139000Y-164072000D03*
X105173000Y-74104000D03*
X107205000Y-92519000D03*
X78173000Y-74104000D03*
X80205000Y-92519000D03*
X113396000Y-119673000D03*
X94981000Y-121705000D03*
X53205000Y-92519000D03*
X51173000Y-74104000D03*
X94981000Y-148705000D03*
X113396000Y-146673000D03*
X106697000Y-75374000D03*
X120413000Y-93154000D03*
X79697000Y-75374000D03*
X93413000Y-93154000D03*
X112126000Y-121197000D03*
X94346000Y-134913000D03*
X66413000Y-93154000D03*
X52697000Y-75374000D03*
X94346000Y-161913000D03*
X112126000Y-148197000D03*
X103526653Y-93793653D03*
X105930347Y-93793653D03*
X76526653Y-93793653D03*
X78930347Y-93793653D03*
X93706347Y-118026653D03*
X93706347Y-120430347D03*
X51930347Y-93793653D03*
X49526653Y-93793653D03*
X93706347Y-147430347D03*
X93706347Y-145026653D03*
D19*
X114444169Y-97961001D02*
X112973131Y-99432039D01*
X122172001Y-97961001D02*
X114444169Y-97961001D01*
X122572000Y-98361000D02*
X122172001Y-97961001D01*
X87444169Y-97961001D02*
X85973131Y-99432039D01*
X95172001Y-97961001D02*
X87444169Y-97961001D01*
X95572000Y-98361000D02*
X95172001Y-97961001D01*
X44075000Y-127674000D02*
X44075000Y-131075000D01*
D20*
X89028000Y-137183000D02*
X89139000Y-137072000D01*
X89028000Y-138469000D02*
X89028000Y-137183000D01*
X88497000Y-139000000D02*
X89028000Y-138469000D01*
X52000000Y-139000000D02*
X88497000Y-139000000D01*
X44075000Y-131075000D02*
X52000000Y-139000000D01*
D19*
X68572000Y-98361000D02*
X68172001Y-97961001D01*
X68172001Y-97961001D02*
X60444169Y-97961001D01*
X60444169Y-97961001D02*
X58973131Y-99432039D01*
D20*
X44075000Y-158075000D02*
X52000000Y-166000000D01*
X52000000Y-166000000D02*
X88497000Y-166000000D01*
X88497000Y-166000000D02*
X89028000Y-165469000D01*
X89028000Y-165469000D02*
X89028000Y-164183000D01*
X89028000Y-164183000D02*
X89139000Y-164072000D01*
D19*
X44075000Y-154674000D02*
X44075000Y-158075000D01*
X112773131Y-86432039D02*
X107341039Y-86432039D01*
X107341039Y-86432039D02*
X105681000Y-84772000D01*
X105681000Y-74612000D02*
X105173000Y-74104000D01*
X105681000Y-84772000D02*
X105681000Y-74612000D01*
X105681000Y-84772000D02*
X107205000Y-86296000D01*
X107205000Y-91953315D02*
X107205000Y-92519000D01*
X107205000Y-86296000D02*
X107205000Y-91953315D01*
X85773131Y-86432039D02*
X80341039Y-86432039D01*
X80341039Y-86432039D02*
X78681000Y-84772000D01*
X78681000Y-74612000D02*
X78173000Y-74104000D01*
X78681000Y-84772000D02*
X78681000Y-74612000D01*
X78681000Y-84772000D02*
X80205000Y-86296000D01*
X80205000Y-91953315D02*
X80205000Y-92519000D01*
X80205000Y-86296000D02*
X80205000Y-91953315D01*
D20*
X103236000Y-119673000D02*
X113396000Y-119673000D01*
X101204000Y-121705000D02*
X102728000Y-120181000D01*
X101204000Y-121705000D02*
X95546685Y-121705000D01*
X95546685Y-121705000D02*
X94981000Y-121705000D01*
X102728000Y-120181000D02*
X103236000Y-119673000D01*
X116317000Y-116752000D02*
X113396000Y-119673000D01*
X122175000Y-116752000D02*
X116317000Y-116752000D01*
X122175000Y-127674000D02*
X122175000Y-116752000D01*
D19*
X53205000Y-86296000D02*
X53205000Y-91953315D01*
X53205000Y-91953315D02*
X53205000Y-92519000D01*
X51681000Y-84772000D02*
X53205000Y-86296000D01*
X51681000Y-84772000D02*
X51681000Y-74612000D01*
X51681000Y-74612000D02*
X51173000Y-74104000D01*
X53341039Y-86432039D02*
X51681000Y-84772000D01*
X58773131Y-86432039D02*
X53341039Y-86432039D01*
D20*
X122175000Y-154674000D02*
X122175000Y-143752000D01*
X122175000Y-143752000D02*
X116317000Y-143752000D01*
X116317000Y-143752000D02*
X113396000Y-146673000D01*
X102728000Y-147181000D02*
X103236000Y-146673000D01*
X95546685Y-148705000D02*
X94981000Y-148705000D01*
X101204000Y-148705000D02*
X95546685Y-148705000D01*
X101204000Y-148705000D02*
X102728000Y-147181000D01*
X103236000Y-146673000D02*
X113396000Y-146673000D01*
D19*
X106697000Y-75374000D02*
X116857000Y-75374000D01*
X120286000Y-78803000D02*
X125620000Y-78803000D01*
X116857000Y-75374000D02*
X120286000Y-78803000D01*
X120286000Y-93027000D02*
X120413000Y-93154000D01*
X120286000Y-78803000D02*
X120286000Y-93027000D01*
X79697000Y-75374000D02*
X89857000Y-75374000D01*
X93286000Y-78803000D02*
X98620000Y-78803000D01*
X89857000Y-75374000D02*
X93286000Y-78803000D01*
X93286000Y-93027000D02*
X93413000Y-93154000D01*
X93286000Y-78803000D02*
X93286000Y-93027000D01*
X112126000Y-121197000D02*
X112126000Y-131357000D01*
X108697000Y-134786000D02*
X108697000Y-140120000D01*
X112126000Y-131357000D02*
X108697000Y-134786000D01*
X94473000Y-134786000D02*
X94346000Y-134913000D01*
X108697000Y-134786000D02*
X94473000Y-134786000D01*
X66286000Y-78803000D02*
X66286000Y-93027000D01*
X66286000Y-93027000D02*
X66413000Y-93154000D01*
X62857000Y-75374000D02*
X66286000Y-78803000D01*
X66286000Y-78803000D02*
X71620000Y-78803000D01*
X52697000Y-75374000D02*
X62857000Y-75374000D01*
X108697000Y-161786000D02*
X94473000Y-161786000D01*
X94473000Y-161786000D02*
X94346000Y-161913000D01*
X112126000Y-158357000D02*
X108697000Y-161786000D01*
X108697000Y-161786000D02*
X108697000Y-167120000D01*
X112126000Y-148197000D02*
X112126000Y-158357000D01*
X105930347Y-93793653D02*
X103526653Y-93793653D01*
X78930347Y-93793653D02*
X76526653Y-93793653D01*
X93706347Y-120430347D02*
X93706347Y-118026653D01*
X51930347Y-93793653D02*
X49526653Y-93793653D01*
X93706347Y-147430347D02*
X93706347Y-145026653D01*
D21*
G36*
X72506549Y-71484188D02*
X72512102Y-71487899D01*
X72515812Y-71493451D01*
X72536000Y-71594944D01*
X72536000Y-74778000D01*
X71905750Y-74778000D01*
X71747000Y-74936750D01*
X71747000Y-76136000D01*
X71767000Y-76136000D01*
X71767000Y-76390000D01*
X71747000Y-76390000D01*
X71747000Y-76410000D01*
X71493000Y-76410000D01*
X71493000Y-76390000D01*
X70293750Y-76390000D01*
X70135000Y-76548750D01*
X70135000Y-77239310D01*
X70231673Y-77472699D01*
X70346676Y-77587702D01*
X70212173Y-77789000D01*
X66706012Y-77789000D01*
X64203702Y-75286690D01*
X70135000Y-75286690D01*
X70135000Y-75977250D01*
X70293750Y-76136000D01*
X71493000Y-76136000D01*
X71493000Y-74936750D01*
X71334250Y-74778000D01*
X70643691Y-74778000D01*
X70410302Y-74874673D01*
X70231673Y-75053301D01*
X70135000Y-75286690D01*
X64203702Y-75286690D01*
X63574006Y-74656994D01*
X63245041Y-74437186D01*
X62857000Y-74360000D01*
X53506101Y-74360000D01*
X53428113Y-74281876D01*
X52954523Y-74085224D01*
X52524864Y-74084849D01*
X52462099Y-73990915D01*
X52462223Y-73848727D01*
X52266398Y-73374794D01*
X51904113Y-73011876D01*
X51430523Y-72815224D01*
X50917727Y-72814777D01*
X50443794Y-73010602D01*
X50080876Y-73372887D01*
X49884224Y-73846477D01*
X49883777Y-74359273D01*
X50079602Y-74833206D01*
X50441887Y-75196124D01*
X50667000Y-75289599D01*
X50667000Y-84772000D01*
X50744186Y-85160041D01*
X50963994Y-85489006D01*
X51770988Y-86296000D01*
X52191000Y-86716013D01*
X52191000Y-91709899D01*
X52112876Y-91787887D01*
X51916224Y-92261477D01*
X51915777Y-92774273D01*
X52111602Y-93248206D01*
X52348306Y-93485323D01*
X51441797Y-94390251D01*
X50085677Y-97656150D01*
X50082591Y-101192413D01*
X51433009Y-104460675D01*
X53931343Y-106963373D01*
X57197242Y-108319493D01*
X60733505Y-108322579D01*
X64001767Y-106972161D01*
X66504465Y-104473827D01*
X67860585Y-101207928D01*
X67862109Y-99461936D01*
X68314477Y-99649776D01*
X68827273Y-99650223D01*
X69301206Y-99454398D01*
X69664124Y-99092113D01*
X69860776Y-98618523D01*
X69861223Y-98105727D01*
X69665398Y-97631794D01*
X69303113Y-97268876D01*
X68829523Y-97072224D01*
X68631676Y-97072052D01*
X68560042Y-97024187D01*
X68172001Y-96947001D01*
X67564246Y-96947001D01*
X66529656Y-94443102D01*
X66668273Y-94443223D01*
X67142206Y-94247398D01*
X67505124Y-93885113D01*
X67701776Y-93411523D01*
X67702223Y-92898727D01*
X67506398Y-92424794D01*
X67300000Y-92218035D01*
X67300000Y-79817000D01*
X70212173Y-79817000D01*
X70356272Y-80032659D01*
X70416647Y-80073000D01*
X70356272Y-80113341D01*
X69979304Y-80677514D01*
X69846931Y-81343000D01*
X69979304Y-82008486D01*
X70356272Y-82572659D01*
X70416647Y-82613000D01*
X70356272Y-82653341D01*
X69979304Y-83217514D01*
X69846931Y-83883000D01*
X69979304Y-84548486D01*
X70356272Y-85112659D01*
X70416647Y-85153000D01*
X70356272Y-85193341D01*
X69979304Y-85757514D01*
X69846931Y-86423000D01*
X69979304Y-87088486D01*
X70356272Y-87652659D01*
X70920445Y-88029627D01*
X71585931Y-88162000D01*
X71654069Y-88162000D01*
X72319555Y-88029627D01*
X72536000Y-87885003D01*
X72536000Y-114405056D01*
X72515812Y-114506549D01*
X72512102Y-114512101D01*
X72506549Y-114515812D01*
X72405056Y-114536000D01*
X62925009Y-114536000D01*
X63034742Y-114371772D01*
X63122210Y-113932039D01*
X63122210Y-110932039D01*
X63034742Y-110492306D01*
X62785653Y-110119517D01*
X62412864Y-109870428D01*
X61973131Y-109782960D01*
X55973131Y-109782960D01*
X55533398Y-109870428D01*
X55160609Y-110119517D01*
X54911520Y-110492306D01*
X54824052Y-110932039D01*
X54824052Y-113932039D01*
X54911520Y-114371772D01*
X55021253Y-114536000D01*
X48594944Y-114536000D01*
X48493451Y-114515812D01*
X48487899Y-114512102D01*
X48484188Y-114506549D01*
X48464000Y-114405056D01*
X48464000Y-71594944D01*
X48484188Y-71493451D01*
X48487899Y-71487898D01*
X48493451Y-71484188D01*
X48594944Y-71464000D01*
X72405056Y-71464000D01*
X72506549Y-71484188D01*
X72506549Y-71484188D01*
G37*
X72506549Y-71484188D02*
X72512102Y-71487899D01*
X72515812Y-71493451D01*
X72536000Y-71594944D01*
X72536000Y-74778000D01*
X71905750Y-74778000D01*
X71747000Y-74936750D01*
X71747000Y-76136000D01*
X71767000Y-76136000D01*
X71767000Y-76390000D01*
X71747000Y-76390000D01*
X71747000Y-76410000D01*
X71493000Y-76410000D01*
X71493000Y-76390000D01*
X70293750Y-76390000D01*
X70135000Y-76548750D01*
X70135000Y-77239310D01*
X70231673Y-77472699D01*
X70346676Y-77587702D01*
X70212173Y-77789000D01*
X66706012Y-77789000D01*
X64203702Y-75286690D01*
X70135000Y-75286690D01*
X70135000Y-75977250D01*
X70293750Y-76136000D01*
X71493000Y-76136000D01*
X71493000Y-74936750D01*
X71334250Y-74778000D01*
X70643691Y-74778000D01*
X70410302Y-74874673D01*
X70231673Y-75053301D01*
X70135000Y-75286690D01*
X64203702Y-75286690D01*
X63574006Y-74656994D01*
X63245041Y-74437186D01*
X62857000Y-74360000D01*
X53506101Y-74360000D01*
X53428113Y-74281876D01*
X52954523Y-74085224D01*
X52524864Y-74084849D01*
X52462099Y-73990915D01*
X52462223Y-73848727D01*
X52266398Y-73374794D01*
X51904113Y-73011876D01*
X51430523Y-72815224D01*
X50917727Y-72814777D01*
X50443794Y-73010602D01*
X50080876Y-73372887D01*
X49884224Y-73846477D01*
X49883777Y-74359273D01*
X50079602Y-74833206D01*
X50441887Y-75196124D01*
X50667000Y-75289599D01*
X50667000Y-84772000D01*
X50744186Y-85160041D01*
X50963994Y-85489006D01*
X51770988Y-86296000D01*
X52191000Y-86716013D01*
X52191000Y-91709899D01*
X52112876Y-91787887D01*
X51916224Y-92261477D01*
X51915777Y-92774273D01*
X52111602Y-93248206D01*
X52348306Y-93485323D01*
X51441797Y-94390251D01*
X50085677Y-97656150D01*
X50082591Y-101192413D01*
X51433009Y-104460675D01*
X53931343Y-106963373D01*
X57197242Y-108319493D01*
X60733505Y-108322579D01*
X64001767Y-106972161D01*
X66504465Y-104473827D01*
X67860585Y-101207928D01*
X67862109Y-99461936D01*
X68314477Y-99649776D01*
X68827273Y-99650223D01*
X69301206Y-99454398D01*
X69664124Y-99092113D01*
X69860776Y-98618523D01*
X69861223Y-98105727D01*
X69665398Y-97631794D01*
X69303113Y-97268876D01*
X68829523Y-97072224D01*
X68631676Y-97072052D01*
X68560042Y-97024187D01*
X68172001Y-96947001D01*
X67564246Y-96947001D01*
X66529656Y-94443102D01*
X66668273Y-94443223D01*
X67142206Y-94247398D01*
X67505124Y-93885113D01*
X67701776Y-93411523D01*
X67702223Y-92898727D01*
X67506398Y-92424794D01*
X67300000Y-92218035D01*
X67300000Y-79817000D01*
X70212173Y-79817000D01*
X70356272Y-80032659D01*
X70416647Y-80073000D01*
X70356272Y-80113341D01*
X69979304Y-80677514D01*
X69846931Y-81343000D01*
X69979304Y-82008486D01*
X70356272Y-82572659D01*
X70416647Y-82613000D01*
X70356272Y-82653341D01*
X69979304Y-83217514D01*
X69846931Y-83883000D01*
X69979304Y-84548486D01*
X70356272Y-85112659D01*
X70416647Y-85153000D01*
X70356272Y-85193341D01*
X69979304Y-85757514D01*
X69846931Y-86423000D01*
X69979304Y-87088486D01*
X70356272Y-87652659D01*
X70920445Y-88029627D01*
X71585931Y-88162000D01*
X71654069Y-88162000D01*
X72319555Y-88029627D01*
X72536000Y-87885003D01*
X72536000Y-114405056D01*
X72515812Y-114506549D01*
X72512102Y-114512101D01*
X72506549Y-114515812D01*
X72405056Y-114536000D01*
X62925009Y-114536000D01*
X63034742Y-114371772D01*
X63122210Y-113932039D01*
X63122210Y-110932039D01*
X63034742Y-110492306D01*
X62785653Y-110119517D01*
X62412864Y-109870428D01*
X61973131Y-109782960D01*
X55973131Y-109782960D01*
X55533398Y-109870428D01*
X55160609Y-110119517D01*
X54911520Y-110492306D01*
X54824052Y-110932039D01*
X54824052Y-113932039D01*
X54911520Y-114371772D01*
X55021253Y-114536000D01*
X48594944Y-114536000D01*
X48493451Y-114515812D01*
X48487899Y-114512102D01*
X48484188Y-114506549D01*
X48464000Y-114405056D01*
X48464000Y-71594944D01*
X48484188Y-71493451D01*
X48487899Y-71487898D01*
X48493451Y-71484188D01*
X48594944Y-71464000D01*
X72405056Y-71464000D01*
X72506549Y-71484188D01*
G36*
X65272000Y-79223012D02*
X65272000Y-92540593D01*
X65124224Y-92896477D01*
X65124123Y-93011847D01*
X64014919Y-91900705D01*
X60749020Y-90544585D01*
X57212757Y-90541499D01*
X54267226Y-91758567D01*
X54219000Y-91710257D01*
X54219000Y-87446039D01*
X54624052Y-87446039D01*
X54624052Y-87932039D01*
X54711520Y-88371772D01*
X54960609Y-88744561D01*
X55333398Y-88993650D01*
X55773131Y-89081118D01*
X61773131Y-89081118D01*
X62212864Y-88993650D01*
X62585653Y-88744561D01*
X62834742Y-88371772D01*
X62922210Y-87932039D01*
X62922210Y-84932039D01*
X62834742Y-84492306D01*
X62585653Y-84119517D01*
X62212864Y-83870428D01*
X61773131Y-83782960D01*
X61198919Y-83782960D01*
X61551206Y-83637398D01*
X61914124Y-83275113D01*
X62110776Y-82801523D01*
X62111223Y-82288727D01*
X62010097Y-82043984D01*
X62110776Y-81801523D01*
X62111223Y-81288727D01*
X62010097Y-81043984D01*
X62110776Y-80801523D01*
X62111223Y-80288727D01*
X62010097Y-80043984D01*
X62110776Y-79801523D01*
X62111223Y-79288727D01*
X62010097Y-79043984D01*
X62110776Y-78801523D01*
X62111223Y-78288727D01*
X61915398Y-77814794D01*
X61553113Y-77451876D01*
X61079523Y-77255224D01*
X60566727Y-77254777D01*
X60321984Y-77355903D01*
X60079523Y-77255224D01*
X59566727Y-77254777D01*
X59321984Y-77355903D01*
X59079523Y-77255224D01*
X58566727Y-77254777D01*
X58321984Y-77355903D01*
X58079523Y-77255224D01*
X57566727Y-77254777D01*
X57321984Y-77355903D01*
X57079523Y-77255224D01*
X56566727Y-77254777D01*
X56092794Y-77450602D01*
X55729876Y-77812887D01*
X55533224Y-78286477D01*
X55532777Y-78799273D01*
X55633903Y-79044016D01*
X55533224Y-79286477D01*
X55532777Y-79799273D01*
X55633903Y-80044016D01*
X55533224Y-80286477D01*
X55532777Y-80799273D01*
X55633903Y-81044016D01*
X55533224Y-81286477D01*
X55532777Y-81799273D01*
X55633903Y-82044016D01*
X55533224Y-82286477D01*
X55532777Y-82799273D01*
X55728602Y-83273206D01*
X56090887Y-83636124D01*
X56444507Y-83782960D01*
X55773131Y-83782960D01*
X55333398Y-83870428D01*
X54960609Y-84119517D01*
X54711520Y-84492306D01*
X54624052Y-84932039D01*
X54624052Y-85418039D01*
X53761052Y-85418039D01*
X52695000Y-84351988D01*
X52695000Y-76662999D01*
X52952273Y-76663223D01*
X53426206Y-76467398D01*
X53505743Y-76388000D01*
X62436988Y-76388000D01*
X65272000Y-79223012D01*
X65272000Y-79223012D01*
G37*
X65272000Y-79223012D02*
X65272000Y-92540593D01*
X65124224Y-92896477D01*
X65124123Y-93011847D01*
X64014919Y-91900705D01*
X60749020Y-90544585D01*
X57212757Y-90541499D01*
X54267226Y-91758567D01*
X54219000Y-91710257D01*
X54219000Y-87446039D01*
X54624052Y-87446039D01*
X54624052Y-87932039D01*
X54711520Y-88371772D01*
X54960609Y-88744561D01*
X55333398Y-88993650D01*
X55773131Y-89081118D01*
X61773131Y-89081118D01*
X62212864Y-88993650D01*
X62585653Y-88744561D01*
X62834742Y-88371772D01*
X62922210Y-87932039D01*
X62922210Y-84932039D01*
X62834742Y-84492306D01*
X62585653Y-84119517D01*
X62212864Y-83870428D01*
X61773131Y-83782960D01*
X61198919Y-83782960D01*
X61551206Y-83637398D01*
X61914124Y-83275113D01*
X62110776Y-82801523D01*
X62111223Y-82288727D01*
X62010097Y-82043984D01*
X62110776Y-81801523D01*
X62111223Y-81288727D01*
X62010097Y-81043984D01*
X62110776Y-80801523D01*
X62111223Y-80288727D01*
X62010097Y-80043984D01*
X62110776Y-79801523D01*
X62111223Y-79288727D01*
X62010097Y-79043984D01*
X62110776Y-78801523D01*
X62111223Y-78288727D01*
X61915398Y-77814794D01*
X61553113Y-77451876D01*
X61079523Y-77255224D01*
X60566727Y-77254777D01*
X60321984Y-77355903D01*
X60079523Y-77255224D01*
X59566727Y-77254777D01*
X59321984Y-77355903D01*
X59079523Y-77255224D01*
X58566727Y-77254777D01*
X58321984Y-77355903D01*
X58079523Y-77255224D01*
X57566727Y-77254777D01*
X57321984Y-77355903D01*
X57079523Y-77255224D01*
X56566727Y-77254777D01*
X56092794Y-77450602D01*
X55729876Y-77812887D01*
X55533224Y-78286477D01*
X55532777Y-78799273D01*
X55633903Y-79044016D01*
X55533224Y-79286477D01*
X55532777Y-79799273D01*
X55633903Y-80044016D01*
X55533224Y-80286477D01*
X55532777Y-80799273D01*
X55633903Y-81044016D01*
X55533224Y-81286477D01*
X55532777Y-81799273D01*
X55633903Y-82044016D01*
X55533224Y-82286477D01*
X55532777Y-82799273D01*
X55728602Y-83273206D01*
X56090887Y-83636124D01*
X56444507Y-83782960D01*
X55773131Y-83782960D01*
X55333398Y-83870428D01*
X54960609Y-84119517D01*
X54711520Y-84492306D01*
X54624052Y-84932039D01*
X54624052Y-85418039D01*
X53761052Y-85418039D01*
X52695000Y-84351988D01*
X52695000Y-76662999D01*
X52952273Y-76663223D01*
X53426206Y-76467398D01*
X53505743Y-76388000D01*
X62436988Y-76388000D01*
X65272000Y-79223012D01*
G36*
X121036000Y-149767584D02*
X117175000Y-149767584D01*
X116828130Y-149836581D01*
X116534067Y-150033067D01*
X116337581Y-150327130D01*
X116268584Y-150674000D01*
X116268584Y-158674000D01*
X116337581Y-159020870D01*
X116534067Y-159314933D01*
X116828130Y-159511419D01*
X117175000Y-159580416D01*
X127036000Y-159580416D01*
X127036000Y-167905056D01*
X127015812Y-168006549D01*
X127012102Y-168012101D01*
X127006549Y-168015812D01*
X126905056Y-168036000D01*
X112722000Y-168036000D01*
X112722000Y-167405750D01*
X112563250Y-167247000D01*
X111364000Y-167247000D01*
X111364000Y-167267000D01*
X111110000Y-167267000D01*
X111110000Y-167247000D01*
X111090000Y-167247000D01*
X111090000Y-166993000D01*
X111110000Y-166993000D01*
X111110000Y-165793750D01*
X111364000Y-165793750D01*
X111364000Y-166993000D01*
X112563250Y-166993000D01*
X112722000Y-166834250D01*
X112722000Y-166143691D01*
X112625327Y-165910302D01*
X112446699Y-165731673D01*
X112213310Y-165635000D01*
X111522750Y-165635000D01*
X111364000Y-165793750D01*
X111110000Y-165793750D01*
X110951250Y-165635000D01*
X110260690Y-165635000D01*
X110027301Y-165731673D01*
X109912298Y-165846676D01*
X109711000Y-165712173D01*
X109711000Y-162206012D01*
X112843006Y-159074006D01*
X113062814Y-158745041D01*
X113076945Y-158674000D01*
X113140000Y-158357000D01*
X113140000Y-149006101D01*
X113218124Y-148928113D01*
X113414776Y-148454523D01*
X113415205Y-147962017D01*
X113651273Y-147962223D01*
X114125206Y-147766398D01*
X114488124Y-147404113D01*
X114638981Y-147040808D01*
X116788789Y-144891000D01*
X121036000Y-144891000D01*
X121036000Y-149767584D01*
X121036000Y-149767584D01*
G37*
X121036000Y-149767584D02*
X117175000Y-149767584D01*
X116828130Y-149836581D01*
X116534067Y-150033067D01*
X116337581Y-150327130D01*
X116268584Y-150674000D01*
X116268584Y-158674000D01*
X116337581Y-159020870D01*
X116534067Y-159314933D01*
X116828130Y-159511419D01*
X117175000Y-159580416D01*
X127036000Y-159580416D01*
X127036000Y-167905056D01*
X127015812Y-168006549D01*
X127012102Y-168012101D01*
X127006549Y-168015812D01*
X126905056Y-168036000D01*
X112722000Y-168036000D01*
X112722000Y-167405750D01*
X112563250Y-167247000D01*
X111364000Y-167247000D01*
X111364000Y-167267000D01*
X111110000Y-167267000D01*
X111110000Y-167247000D01*
X111090000Y-167247000D01*
X111090000Y-166993000D01*
X111110000Y-166993000D01*
X111110000Y-165793750D01*
X111364000Y-165793750D01*
X111364000Y-166993000D01*
X112563250Y-166993000D01*
X112722000Y-166834250D01*
X112722000Y-166143691D01*
X112625327Y-165910302D01*
X112446699Y-165731673D01*
X112213310Y-165635000D01*
X111522750Y-165635000D01*
X111364000Y-165793750D01*
X111110000Y-165793750D01*
X110951250Y-165635000D01*
X110260690Y-165635000D01*
X110027301Y-165731673D01*
X109912298Y-165846676D01*
X109711000Y-165712173D01*
X109711000Y-162206012D01*
X112843006Y-159074006D01*
X113062814Y-158745041D01*
X113076945Y-158674000D01*
X113140000Y-158357000D01*
X113140000Y-149006101D01*
X113218124Y-148928113D01*
X113414776Y-148454523D01*
X113415205Y-147962017D01*
X113651273Y-147962223D01*
X114125206Y-147766398D01*
X114488124Y-147404113D01*
X114638981Y-147040808D01*
X116788789Y-144891000D01*
X121036000Y-144891000D01*
X121036000Y-149767584D01*
G36*
X113027753Y-145430457D02*
X112777159Y-145534000D01*
X103236000Y-145534000D01*
X102800124Y-145620701D01*
X102430605Y-145867605D01*
X102430603Y-145867608D01*
X101922605Y-146375605D01*
X101922603Y-146375608D01*
X100732210Y-147566000D01*
X95599223Y-147566000D01*
X95238523Y-147416224D01*
X94725727Y-147415777D01*
X94251794Y-147611602D01*
X93888876Y-147973887D01*
X93692224Y-148447477D01*
X93691777Y-148960273D01*
X93887602Y-149434206D01*
X94249887Y-149797124D01*
X94723477Y-149993776D01*
X95236273Y-149994223D01*
X95599841Y-149844000D01*
X101203995Y-149844000D01*
X101204000Y-149844001D01*
X101639877Y-149757299D01*
X102009395Y-149510395D01*
X103533392Y-147986397D01*
X103533395Y-147986395D01*
X103707790Y-147812000D01*
X110890157Y-147812000D01*
X110837224Y-147939477D01*
X110836777Y-148452273D01*
X111032602Y-148926206D01*
X111112000Y-149005743D01*
X111112000Y-157936988D01*
X108276988Y-160772000D01*
X94959407Y-160772000D01*
X94603523Y-160624224D01*
X94090727Y-160623777D01*
X93616794Y-160819602D01*
X93253876Y-161181887D01*
X93057224Y-161655477D01*
X93056777Y-162168273D01*
X93252602Y-162642206D01*
X93614887Y-163005124D01*
X94088477Y-163201776D01*
X94601273Y-163202223D01*
X95075206Y-163006398D01*
X95281965Y-162800000D01*
X107683000Y-162800000D01*
X107683000Y-165712173D01*
X107467341Y-165856272D01*
X107427000Y-165916647D01*
X107386659Y-165856272D01*
X106822486Y-165479304D01*
X106157000Y-165346931D01*
X105491514Y-165479304D01*
X104927341Y-165856272D01*
X104887000Y-165916647D01*
X104846659Y-165856272D01*
X104282486Y-165479304D01*
X103617000Y-165346931D01*
X102951514Y-165479304D01*
X102387341Y-165856272D01*
X102347000Y-165916647D01*
X102306659Y-165856272D01*
X101742486Y-165479304D01*
X101077000Y-165346931D01*
X100411514Y-165479304D01*
X99847341Y-165856272D01*
X99470373Y-166420445D01*
X99338000Y-167085931D01*
X99338000Y-167154069D01*
X99470373Y-167819555D01*
X99614997Y-168036000D01*
X39094944Y-168036000D01*
X38993451Y-168015812D01*
X38987899Y-168012102D01*
X38984188Y-168006549D01*
X38964000Y-167905056D01*
X38964000Y-159558337D01*
X39075000Y-159580416D01*
X43969626Y-159580416D01*
X51194603Y-166805392D01*
X51194605Y-166805395D01*
X51564124Y-167052299D01*
X52000000Y-167139000D01*
X88496995Y-167139000D01*
X88497000Y-167139001D01*
X88932877Y-167052299D01*
X89302395Y-166805395D01*
X89833392Y-166274397D01*
X89833395Y-166274395D01*
X90080299Y-165904876D01*
X90167000Y-165469000D01*
X90167000Y-164867125D01*
X90231124Y-164803113D01*
X90427776Y-164329523D01*
X90428223Y-163816727D01*
X90232398Y-163342794D01*
X89870113Y-162979876D01*
X89396523Y-162783224D01*
X88883727Y-162782777D01*
X88409794Y-162978602D01*
X88046876Y-163340887D01*
X87850224Y-163814477D01*
X87849777Y-164327273D01*
X87889000Y-164422200D01*
X87889000Y-164861000D01*
X52471789Y-164861000D01*
X47191206Y-159580416D01*
X49075000Y-159580416D01*
X49421870Y-159511419D01*
X49715933Y-159314933D01*
X49912419Y-159020870D01*
X49981416Y-158674000D01*
X49981416Y-152577273D01*
X103666777Y-152577273D01*
X103767903Y-152822016D01*
X103667224Y-153064477D01*
X103666777Y-153577273D01*
X103767903Y-153822016D01*
X103667224Y-154064477D01*
X103666777Y-154577273D01*
X103767903Y-154822016D01*
X103667224Y-155064477D01*
X103666777Y-155577273D01*
X103767903Y-155822016D01*
X103667224Y-156064477D01*
X103666777Y-156577273D01*
X103862602Y-157051206D01*
X104224887Y-157414124D01*
X104698477Y-157610776D01*
X105211273Y-157611223D01*
X105456016Y-157510097D01*
X105698477Y-157610776D01*
X106211273Y-157611223D01*
X106456016Y-157510097D01*
X106698477Y-157610776D01*
X107211273Y-157611223D01*
X107456016Y-157510097D01*
X107698477Y-157610776D01*
X108211273Y-157611223D01*
X108456016Y-157510097D01*
X108698477Y-157610776D01*
X109211273Y-157611223D01*
X109685206Y-157415398D01*
X110048124Y-157053113D01*
X110244776Y-156579523D01*
X110245223Y-156066727D01*
X110144097Y-155821984D01*
X110244776Y-155579523D01*
X110245223Y-155066727D01*
X110144097Y-154821984D01*
X110244776Y-154579523D01*
X110245223Y-154066727D01*
X110144097Y-153821984D01*
X110244776Y-153579523D01*
X110245223Y-153066727D01*
X110144097Y-152821984D01*
X110244776Y-152579523D01*
X110245223Y-152066727D01*
X110049398Y-151592794D01*
X109687113Y-151229876D01*
X109213523Y-151033224D01*
X108700727Y-151032777D01*
X108455984Y-151133903D01*
X108213523Y-151033224D01*
X107700727Y-151032777D01*
X107455984Y-151133903D01*
X107213523Y-151033224D01*
X106700727Y-151032777D01*
X106455984Y-151133903D01*
X106213523Y-151033224D01*
X105700727Y-151032777D01*
X105455984Y-151133903D01*
X105213523Y-151033224D01*
X104700727Y-151032777D01*
X104226794Y-151228602D01*
X103863876Y-151590887D01*
X103667224Y-152064477D01*
X103666777Y-152577273D01*
X49981416Y-152577273D01*
X49981416Y-150674000D01*
X49912419Y-150327130D01*
X49715933Y-150033067D01*
X49421870Y-149836581D01*
X49075000Y-149767584D01*
X39075000Y-149767584D01*
X38964000Y-149789663D01*
X38964000Y-144094944D01*
X38984188Y-143993451D01*
X38987899Y-143987898D01*
X38993451Y-143984188D01*
X39094944Y-143964000D01*
X114494211Y-143964000D01*
X113027753Y-145430457D01*
X113027753Y-145430457D01*
G37*
X113027753Y-145430457D02*
X112777159Y-145534000D01*
X103236000Y-145534000D01*
X102800124Y-145620701D01*
X102430605Y-145867605D01*
X102430603Y-145867608D01*
X101922605Y-146375605D01*
X101922603Y-146375608D01*
X100732210Y-147566000D01*
X95599223Y-147566000D01*
X95238523Y-147416224D01*
X94725727Y-147415777D01*
X94251794Y-147611602D01*
X93888876Y-147973887D01*
X93692224Y-148447477D01*
X93691777Y-148960273D01*
X93887602Y-149434206D01*
X94249887Y-149797124D01*
X94723477Y-149993776D01*
X95236273Y-149994223D01*
X95599841Y-149844000D01*
X101203995Y-149844000D01*
X101204000Y-149844001D01*
X101639877Y-149757299D01*
X102009395Y-149510395D01*
X103533392Y-147986397D01*
X103533395Y-147986395D01*
X103707790Y-147812000D01*
X110890157Y-147812000D01*
X110837224Y-147939477D01*
X110836777Y-148452273D01*
X111032602Y-148926206D01*
X111112000Y-149005743D01*
X111112000Y-157936988D01*
X108276988Y-160772000D01*
X94959407Y-160772000D01*
X94603523Y-160624224D01*
X94090727Y-160623777D01*
X93616794Y-160819602D01*
X93253876Y-161181887D01*
X93057224Y-161655477D01*
X93056777Y-162168273D01*
X93252602Y-162642206D01*
X93614887Y-163005124D01*
X94088477Y-163201776D01*
X94601273Y-163202223D01*
X95075206Y-163006398D01*
X95281965Y-162800000D01*
X107683000Y-162800000D01*
X107683000Y-165712173D01*
X107467341Y-165856272D01*
X107427000Y-165916647D01*
X107386659Y-165856272D01*
X106822486Y-165479304D01*
X106157000Y-165346931D01*
X105491514Y-165479304D01*
X104927341Y-165856272D01*
X104887000Y-165916647D01*
X104846659Y-165856272D01*
X104282486Y-165479304D01*
X103617000Y-165346931D01*
X102951514Y-165479304D01*
X102387341Y-165856272D01*
X102347000Y-165916647D01*
X102306659Y-165856272D01*
X101742486Y-165479304D01*
X101077000Y-165346931D01*
X100411514Y-165479304D01*
X99847341Y-165856272D01*
X99470373Y-166420445D01*
X99338000Y-167085931D01*
X99338000Y-167154069D01*
X99470373Y-167819555D01*
X99614997Y-168036000D01*
X39094944Y-168036000D01*
X38993451Y-168015812D01*
X38987899Y-168012102D01*
X38984188Y-168006549D01*
X38964000Y-167905056D01*
X38964000Y-159558337D01*
X39075000Y-159580416D01*
X43969626Y-159580416D01*
X51194603Y-166805392D01*
X51194605Y-166805395D01*
X51564124Y-167052299D01*
X52000000Y-167139000D01*
X88496995Y-167139000D01*
X88497000Y-167139001D01*
X88932877Y-167052299D01*
X89302395Y-166805395D01*
X89833392Y-166274397D01*
X89833395Y-166274395D01*
X90080299Y-165904876D01*
X90167000Y-165469000D01*
X90167000Y-164867125D01*
X90231124Y-164803113D01*
X90427776Y-164329523D01*
X90428223Y-163816727D01*
X90232398Y-163342794D01*
X89870113Y-162979876D01*
X89396523Y-162783224D01*
X88883727Y-162782777D01*
X88409794Y-162978602D01*
X88046876Y-163340887D01*
X87850224Y-163814477D01*
X87849777Y-164327273D01*
X87889000Y-164422200D01*
X87889000Y-164861000D01*
X52471789Y-164861000D01*
X47191206Y-159580416D01*
X49075000Y-159580416D01*
X49421870Y-159511419D01*
X49715933Y-159314933D01*
X49912419Y-159020870D01*
X49981416Y-158674000D01*
X49981416Y-152577273D01*
X103666777Y-152577273D01*
X103767903Y-152822016D01*
X103667224Y-153064477D01*
X103666777Y-153577273D01*
X103767903Y-153822016D01*
X103667224Y-154064477D01*
X103666777Y-154577273D01*
X103767903Y-154822016D01*
X103667224Y-155064477D01*
X103666777Y-155577273D01*
X103767903Y-155822016D01*
X103667224Y-156064477D01*
X103666777Y-156577273D01*
X103862602Y-157051206D01*
X104224887Y-157414124D01*
X104698477Y-157610776D01*
X105211273Y-157611223D01*
X105456016Y-157510097D01*
X105698477Y-157610776D01*
X106211273Y-157611223D01*
X106456016Y-157510097D01*
X106698477Y-157610776D01*
X107211273Y-157611223D01*
X107456016Y-157510097D01*
X107698477Y-157610776D01*
X108211273Y-157611223D01*
X108456016Y-157510097D01*
X108698477Y-157610776D01*
X109211273Y-157611223D01*
X109685206Y-157415398D01*
X110048124Y-157053113D01*
X110244776Y-156579523D01*
X110245223Y-156066727D01*
X110144097Y-155821984D01*
X110244776Y-155579523D01*
X110245223Y-155066727D01*
X110144097Y-154821984D01*
X110244776Y-154579523D01*
X110245223Y-154066727D01*
X110144097Y-153821984D01*
X110244776Y-153579523D01*
X110245223Y-153066727D01*
X110144097Y-152821984D01*
X110244776Y-152579523D01*
X110245223Y-152066727D01*
X110049398Y-151592794D01*
X109687113Y-151229876D01*
X109213523Y-151033224D01*
X108700727Y-151032777D01*
X108455984Y-151133903D01*
X108213523Y-151033224D01*
X107700727Y-151032777D01*
X107455984Y-151133903D01*
X107213523Y-151033224D01*
X106700727Y-151032777D01*
X106455984Y-151133903D01*
X106213523Y-151033224D01*
X105700727Y-151032777D01*
X105455984Y-151133903D01*
X105213523Y-151033224D01*
X104700727Y-151032777D01*
X104226794Y-151228602D01*
X103863876Y-151590887D01*
X103667224Y-152064477D01*
X103666777Y-152577273D01*
X49981416Y-152577273D01*
X49981416Y-150674000D01*
X49912419Y-150327130D01*
X49715933Y-150033067D01*
X49421870Y-149836581D01*
X49075000Y-149767584D01*
X39075000Y-149767584D01*
X38964000Y-149789663D01*
X38964000Y-144094944D01*
X38984188Y-143993451D01*
X38987899Y-143987898D01*
X38993451Y-143984188D01*
X39094944Y-143964000D01*
X114494211Y-143964000D01*
X113027753Y-145430457D01*
G36*
X127006549Y-143984188D02*
X127012102Y-143987899D01*
X127015812Y-143993451D01*
X127036000Y-144094944D01*
X127036000Y-149767584D01*
X123314000Y-149767584D01*
X123314000Y-143964000D01*
X126905056Y-143964000D01*
X127006549Y-143984188D01*
X127006549Y-143984188D01*
G37*
X127006549Y-143984188D02*
X127012102Y-143987899D01*
X127015812Y-143993451D01*
X127036000Y-144094944D01*
X127036000Y-149767584D01*
X123314000Y-149767584D01*
X123314000Y-143964000D01*
X126905056Y-143964000D01*
X127006549Y-143984188D01*
G36*
X121036000Y-122767584D02*
X117175000Y-122767584D01*
X116828130Y-122836581D01*
X116534067Y-123033067D01*
X116337581Y-123327130D01*
X116268584Y-123674000D01*
X116268584Y-131674000D01*
X116337581Y-132020870D01*
X116534067Y-132314933D01*
X116828130Y-132511419D01*
X117175000Y-132580416D01*
X127036000Y-132580416D01*
X127036000Y-140905056D01*
X127015812Y-141006549D01*
X127012102Y-141012101D01*
X127006549Y-141015812D01*
X126905056Y-141036000D01*
X112722000Y-141036000D01*
X112722000Y-140405750D01*
X112563250Y-140247000D01*
X111364000Y-140247000D01*
X111364000Y-140267000D01*
X111110000Y-140267000D01*
X111110000Y-140247000D01*
X111090000Y-140247000D01*
X111090000Y-139993000D01*
X111110000Y-139993000D01*
X111110000Y-138793750D01*
X111364000Y-138793750D01*
X111364000Y-139993000D01*
X112563250Y-139993000D01*
X112722000Y-139834250D01*
X112722000Y-139143691D01*
X112625327Y-138910302D01*
X112446699Y-138731673D01*
X112213310Y-138635000D01*
X111522750Y-138635000D01*
X111364000Y-138793750D01*
X111110000Y-138793750D01*
X110951250Y-138635000D01*
X110260690Y-138635000D01*
X110027301Y-138731673D01*
X109912298Y-138846676D01*
X109711000Y-138712173D01*
X109711000Y-135206012D01*
X112843006Y-132074006D01*
X113062814Y-131745041D01*
X113076945Y-131674000D01*
X113140000Y-131357000D01*
X113140000Y-122006101D01*
X113218124Y-121928113D01*
X113414776Y-121454523D01*
X113415205Y-120962017D01*
X113651273Y-120962223D01*
X114125206Y-120766398D01*
X114488124Y-120404113D01*
X114638981Y-120040808D01*
X116788789Y-117891000D01*
X121036000Y-117891000D01*
X121036000Y-122767584D01*
X121036000Y-122767584D01*
G37*
X121036000Y-122767584D02*
X117175000Y-122767584D01*
X116828130Y-122836581D01*
X116534067Y-123033067D01*
X116337581Y-123327130D01*
X116268584Y-123674000D01*
X116268584Y-131674000D01*
X116337581Y-132020870D01*
X116534067Y-132314933D01*
X116828130Y-132511419D01*
X117175000Y-132580416D01*
X127036000Y-132580416D01*
X127036000Y-140905056D01*
X127015812Y-141006549D01*
X127012102Y-141012101D01*
X127006549Y-141015812D01*
X126905056Y-141036000D01*
X112722000Y-141036000D01*
X112722000Y-140405750D01*
X112563250Y-140247000D01*
X111364000Y-140247000D01*
X111364000Y-140267000D01*
X111110000Y-140267000D01*
X111110000Y-140247000D01*
X111090000Y-140247000D01*
X111090000Y-139993000D01*
X111110000Y-139993000D01*
X111110000Y-138793750D01*
X111364000Y-138793750D01*
X111364000Y-139993000D01*
X112563250Y-139993000D01*
X112722000Y-139834250D01*
X112722000Y-139143691D01*
X112625327Y-138910302D01*
X112446699Y-138731673D01*
X112213310Y-138635000D01*
X111522750Y-138635000D01*
X111364000Y-138793750D01*
X111110000Y-138793750D01*
X110951250Y-138635000D01*
X110260690Y-138635000D01*
X110027301Y-138731673D01*
X109912298Y-138846676D01*
X109711000Y-138712173D01*
X109711000Y-135206012D01*
X112843006Y-132074006D01*
X113062814Y-131745041D01*
X113076945Y-131674000D01*
X113140000Y-131357000D01*
X113140000Y-122006101D01*
X113218124Y-121928113D01*
X113414776Y-121454523D01*
X113415205Y-120962017D01*
X113651273Y-120962223D01*
X114125206Y-120766398D01*
X114488124Y-120404113D01*
X114638981Y-120040808D01*
X116788789Y-117891000D01*
X121036000Y-117891000D01*
X121036000Y-122767584D01*
G36*
X113027753Y-118430457D02*
X112777159Y-118534000D01*
X103236000Y-118534000D01*
X102800124Y-118620701D01*
X102430605Y-118867605D01*
X102430603Y-118867608D01*
X101922605Y-119375605D01*
X101922603Y-119375608D01*
X100732210Y-120566000D01*
X95599223Y-120566000D01*
X95238523Y-120416224D01*
X94725727Y-120415777D01*
X94251794Y-120611602D01*
X93888876Y-120973887D01*
X93692224Y-121447477D01*
X93691777Y-121960273D01*
X93887602Y-122434206D01*
X94249887Y-122797124D01*
X94723477Y-122993776D01*
X95236273Y-122994223D01*
X95599841Y-122844000D01*
X101203995Y-122844000D01*
X101204000Y-122844001D01*
X101639877Y-122757299D01*
X102009395Y-122510395D01*
X103533392Y-120986397D01*
X103533395Y-120986395D01*
X103707790Y-120812000D01*
X110890157Y-120812000D01*
X110837224Y-120939477D01*
X110836777Y-121452273D01*
X111032602Y-121926206D01*
X111112000Y-122005743D01*
X111112000Y-130936988D01*
X108276988Y-133772000D01*
X94959407Y-133772000D01*
X94603523Y-133624224D01*
X94090727Y-133623777D01*
X93616794Y-133819602D01*
X93253876Y-134181887D01*
X93057224Y-134655477D01*
X93056777Y-135168273D01*
X93252602Y-135642206D01*
X93614887Y-136005124D01*
X94088477Y-136201776D01*
X94601273Y-136202223D01*
X95075206Y-136006398D01*
X95281965Y-135800000D01*
X107683000Y-135800000D01*
X107683000Y-138712173D01*
X107467341Y-138856272D01*
X107427000Y-138916647D01*
X107386659Y-138856272D01*
X106822486Y-138479304D01*
X106157000Y-138346931D01*
X105491514Y-138479304D01*
X104927341Y-138856272D01*
X104887000Y-138916647D01*
X104846659Y-138856272D01*
X104282486Y-138479304D01*
X103617000Y-138346931D01*
X102951514Y-138479304D01*
X102387341Y-138856272D01*
X102347000Y-138916647D01*
X102306659Y-138856272D01*
X101742486Y-138479304D01*
X101077000Y-138346931D01*
X100411514Y-138479304D01*
X99847341Y-138856272D01*
X99470373Y-139420445D01*
X99338000Y-140085931D01*
X99338000Y-140154069D01*
X99470373Y-140819555D01*
X99614997Y-141036000D01*
X39094944Y-141036000D01*
X38993451Y-141015812D01*
X38987899Y-141012102D01*
X38984188Y-141006549D01*
X38964000Y-140905056D01*
X38964000Y-132558337D01*
X39075000Y-132580416D01*
X43969626Y-132580416D01*
X51194603Y-139805392D01*
X51194605Y-139805395D01*
X51564124Y-140052299D01*
X52000000Y-140139000D01*
X88496995Y-140139000D01*
X88497000Y-140139001D01*
X88932877Y-140052299D01*
X89302395Y-139805395D01*
X89833392Y-139274397D01*
X89833395Y-139274395D01*
X90080299Y-138904876D01*
X90167000Y-138469000D01*
X90167000Y-137867125D01*
X90231124Y-137803113D01*
X90427776Y-137329523D01*
X90428223Y-136816727D01*
X90232398Y-136342794D01*
X89870113Y-135979876D01*
X89396523Y-135783224D01*
X88883727Y-135782777D01*
X88409794Y-135978602D01*
X88046876Y-136340887D01*
X87850224Y-136814477D01*
X87849777Y-137327273D01*
X87889000Y-137422200D01*
X87889000Y-137861000D01*
X52471789Y-137861000D01*
X47191206Y-132580416D01*
X49075000Y-132580416D01*
X49421870Y-132511419D01*
X49715933Y-132314933D01*
X49912419Y-132020870D01*
X49981416Y-131674000D01*
X49981416Y-125577273D01*
X103666777Y-125577273D01*
X103767903Y-125822016D01*
X103667224Y-126064477D01*
X103666777Y-126577273D01*
X103767903Y-126822016D01*
X103667224Y-127064477D01*
X103666777Y-127577273D01*
X103767903Y-127822016D01*
X103667224Y-128064477D01*
X103666777Y-128577273D01*
X103767903Y-128822016D01*
X103667224Y-129064477D01*
X103666777Y-129577273D01*
X103862602Y-130051206D01*
X104224887Y-130414124D01*
X104698477Y-130610776D01*
X105211273Y-130611223D01*
X105456016Y-130510097D01*
X105698477Y-130610776D01*
X106211273Y-130611223D01*
X106456016Y-130510097D01*
X106698477Y-130610776D01*
X107211273Y-130611223D01*
X107456016Y-130510097D01*
X107698477Y-130610776D01*
X108211273Y-130611223D01*
X108456016Y-130510097D01*
X108698477Y-130610776D01*
X109211273Y-130611223D01*
X109685206Y-130415398D01*
X110048124Y-130053113D01*
X110244776Y-129579523D01*
X110245223Y-129066727D01*
X110144097Y-128821984D01*
X110244776Y-128579523D01*
X110245223Y-128066727D01*
X110144097Y-127821984D01*
X110244776Y-127579523D01*
X110245223Y-127066727D01*
X110144097Y-126821984D01*
X110244776Y-126579523D01*
X110245223Y-126066727D01*
X110144097Y-125821984D01*
X110244776Y-125579523D01*
X110245223Y-125066727D01*
X110049398Y-124592794D01*
X109687113Y-124229876D01*
X109213523Y-124033224D01*
X108700727Y-124032777D01*
X108455984Y-124133903D01*
X108213523Y-124033224D01*
X107700727Y-124032777D01*
X107455984Y-124133903D01*
X107213523Y-124033224D01*
X106700727Y-124032777D01*
X106455984Y-124133903D01*
X106213523Y-124033224D01*
X105700727Y-124032777D01*
X105455984Y-124133903D01*
X105213523Y-124033224D01*
X104700727Y-124032777D01*
X104226794Y-124228602D01*
X103863876Y-124590887D01*
X103667224Y-125064477D01*
X103666777Y-125577273D01*
X49981416Y-125577273D01*
X49981416Y-123674000D01*
X49912419Y-123327130D01*
X49715933Y-123033067D01*
X49421870Y-122836581D01*
X49075000Y-122767584D01*
X39075000Y-122767584D01*
X38964000Y-122789663D01*
X38964000Y-117094944D01*
X38984188Y-116993451D01*
X38987899Y-116987898D01*
X38993451Y-116984188D01*
X39094944Y-116964000D01*
X114494211Y-116964000D01*
X113027753Y-118430457D01*
X113027753Y-118430457D01*
G37*
X113027753Y-118430457D02*
X112777159Y-118534000D01*
X103236000Y-118534000D01*
X102800124Y-118620701D01*
X102430605Y-118867605D01*
X102430603Y-118867608D01*
X101922605Y-119375605D01*
X101922603Y-119375608D01*
X100732210Y-120566000D01*
X95599223Y-120566000D01*
X95238523Y-120416224D01*
X94725727Y-120415777D01*
X94251794Y-120611602D01*
X93888876Y-120973887D01*
X93692224Y-121447477D01*
X93691777Y-121960273D01*
X93887602Y-122434206D01*
X94249887Y-122797124D01*
X94723477Y-122993776D01*
X95236273Y-122994223D01*
X95599841Y-122844000D01*
X101203995Y-122844000D01*
X101204000Y-122844001D01*
X101639877Y-122757299D01*
X102009395Y-122510395D01*
X103533392Y-120986397D01*
X103533395Y-120986395D01*
X103707790Y-120812000D01*
X110890157Y-120812000D01*
X110837224Y-120939477D01*
X110836777Y-121452273D01*
X111032602Y-121926206D01*
X111112000Y-122005743D01*
X111112000Y-130936988D01*
X108276988Y-133772000D01*
X94959407Y-133772000D01*
X94603523Y-133624224D01*
X94090727Y-133623777D01*
X93616794Y-133819602D01*
X93253876Y-134181887D01*
X93057224Y-134655477D01*
X93056777Y-135168273D01*
X93252602Y-135642206D01*
X93614887Y-136005124D01*
X94088477Y-136201776D01*
X94601273Y-136202223D01*
X95075206Y-136006398D01*
X95281965Y-135800000D01*
X107683000Y-135800000D01*
X107683000Y-138712173D01*
X107467341Y-138856272D01*
X107427000Y-138916647D01*
X107386659Y-138856272D01*
X106822486Y-138479304D01*
X106157000Y-138346931D01*
X105491514Y-138479304D01*
X104927341Y-138856272D01*
X104887000Y-138916647D01*
X104846659Y-138856272D01*
X104282486Y-138479304D01*
X103617000Y-138346931D01*
X102951514Y-138479304D01*
X102387341Y-138856272D01*
X102347000Y-138916647D01*
X102306659Y-138856272D01*
X101742486Y-138479304D01*
X101077000Y-138346931D01*
X100411514Y-138479304D01*
X99847341Y-138856272D01*
X99470373Y-139420445D01*
X99338000Y-140085931D01*
X99338000Y-140154069D01*
X99470373Y-140819555D01*
X99614997Y-141036000D01*
X39094944Y-141036000D01*
X38993451Y-141015812D01*
X38987899Y-141012102D01*
X38984188Y-141006549D01*
X38964000Y-140905056D01*
X38964000Y-132558337D01*
X39075000Y-132580416D01*
X43969626Y-132580416D01*
X51194603Y-139805392D01*
X51194605Y-139805395D01*
X51564124Y-140052299D01*
X52000000Y-140139000D01*
X88496995Y-140139000D01*
X88497000Y-140139001D01*
X88932877Y-140052299D01*
X89302395Y-139805395D01*
X89833392Y-139274397D01*
X89833395Y-139274395D01*
X90080299Y-138904876D01*
X90167000Y-138469000D01*
X90167000Y-137867125D01*
X90231124Y-137803113D01*
X90427776Y-137329523D01*
X90428223Y-136816727D01*
X90232398Y-136342794D01*
X89870113Y-135979876D01*
X89396523Y-135783224D01*
X88883727Y-135782777D01*
X88409794Y-135978602D01*
X88046876Y-136340887D01*
X87850224Y-136814477D01*
X87849777Y-137327273D01*
X87889000Y-137422200D01*
X87889000Y-137861000D01*
X52471789Y-137861000D01*
X47191206Y-132580416D01*
X49075000Y-132580416D01*
X49421870Y-132511419D01*
X49715933Y-132314933D01*
X49912419Y-132020870D01*
X49981416Y-131674000D01*
X49981416Y-125577273D01*
X103666777Y-125577273D01*
X103767903Y-125822016D01*
X103667224Y-126064477D01*
X103666777Y-126577273D01*
X103767903Y-126822016D01*
X103667224Y-127064477D01*
X103666777Y-127577273D01*
X103767903Y-127822016D01*
X103667224Y-128064477D01*
X103666777Y-128577273D01*
X103767903Y-128822016D01*
X103667224Y-129064477D01*
X103666777Y-129577273D01*
X103862602Y-130051206D01*
X104224887Y-130414124D01*
X104698477Y-130610776D01*
X105211273Y-130611223D01*
X105456016Y-130510097D01*
X105698477Y-130610776D01*
X106211273Y-130611223D01*
X106456016Y-130510097D01*
X106698477Y-130610776D01*
X107211273Y-130611223D01*
X107456016Y-130510097D01*
X107698477Y-130610776D01*
X108211273Y-130611223D01*
X108456016Y-130510097D01*
X108698477Y-130610776D01*
X109211273Y-130611223D01*
X109685206Y-130415398D01*
X110048124Y-130053113D01*
X110244776Y-129579523D01*
X110245223Y-129066727D01*
X110144097Y-128821984D01*
X110244776Y-128579523D01*
X110245223Y-128066727D01*
X110144097Y-127821984D01*
X110244776Y-127579523D01*
X110245223Y-127066727D01*
X110144097Y-126821984D01*
X110244776Y-126579523D01*
X110245223Y-126066727D01*
X110144097Y-125821984D01*
X110244776Y-125579523D01*
X110245223Y-125066727D01*
X110049398Y-124592794D01*
X109687113Y-124229876D01*
X109213523Y-124033224D01*
X108700727Y-124032777D01*
X108455984Y-124133903D01*
X108213523Y-124033224D01*
X107700727Y-124032777D01*
X107455984Y-124133903D01*
X107213523Y-124033224D01*
X106700727Y-124032777D01*
X106455984Y-124133903D01*
X106213523Y-124033224D01*
X105700727Y-124032777D01*
X105455984Y-124133903D01*
X105213523Y-124033224D01*
X104700727Y-124032777D01*
X104226794Y-124228602D01*
X103863876Y-124590887D01*
X103667224Y-125064477D01*
X103666777Y-125577273D01*
X49981416Y-125577273D01*
X49981416Y-123674000D01*
X49912419Y-123327130D01*
X49715933Y-123033067D01*
X49421870Y-122836581D01*
X49075000Y-122767584D01*
X39075000Y-122767584D01*
X38964000Y-122789663D01*
X38964000Y-117094944D01*
X38984188Y-116993451D01*
X38987899Y-116987898D01*
X38993451Y-116984188D01*
X39094944Y-116964000D01*
X114494211Y-116964000D01*
X113027753Y-118430457D01*
G36*
X127006549Y-116984188D02*
X127012102Y-116987899D01*
X127015812Y-116993451D01*
X127036000Y-117094944D01*
X127036000Y-122767584D01*
X123314000Y-122767584D01*
X123314000Y-116964000D01*
X126905056Y-116964000D01*
X127006549Y-116984188D01*
X127006549Y-116984188D01*
G37*
X127006549Y-116984188D02*
X127012102Y-116987899D01*
X127015812Y-116993451D01*
X127036000Y-117094944D01*
X127036000Y-122767584D01*
X123314000Y-122767584D01*
X123314000Y-116964000D01*
X126905056Y-116964000D01*
X127006549Y-116984188D01*
G36*
X99506549Y-71484188D02*
X99512102Y-71487899D01*
X99515812Y-71493451D01*
X99536000Y-71594944D01*
X99536000Y-74778000D01*
X98905750Y-74778000D01*
X98747000Y-74936750D01*
X98747000Y-76136000D01*
X98767000Y-76136000D01*
X98767000Y-76390000D01*
X98747000Y-76390000D01*
X98747000Y-76410000D01*
X98493000Y-76410000D01*
X98493000Y-76390000D01*
X97293750Y-76390000D01*
X97135000Y-76548750D01*
X97135000Y-77239310D01*
X97231673Y-77472699D01*
X97346676Y-77587702D01*
X97212173Y-77789000D01*
X93706012Y-77789000D01*
X91203702Y-75286690D01*
X97135000Y-75286690D01*
X97135000Y-75977250D01*
X97293750Y-76136000D01*
X98493000Y-76136000D01*
X98493000Y-74936750D01*
X98334250Y-74778000D01*
X97643691Y-74778000D01*
X97410302Y-74874673D01*
X97231673Y-75053301D01*
X97135000Y-75286690D01*
X91203702Y-75286690D01*
X90574006Y-74656994D01*
X90245041Y-74437186D01*
X89857000Y-74360000D01*
X80506101Y-74360000D01*
X80428113Y-74281876D01*
X79954523Y-74085224D01*
X79524864Y-74084849D01*
X79462099Y-73990915D01*
X79462223Y-73848727D01*
X79266398Y-73374794D01*
X78904113Y-73011876D01*
X78430523Y-72815224D01*
X77917727Y-72814777D01*
X77443794Y-73010602D01*
X77080876Y-73372887D01*
X76884224Y-73846477D01*
X76883777Y-74359273D01*
X77079602Y-74833206D01*
X77441887Y-75196124D01*
X77667000Y-75289599D01*
X77667000Y-84772000D01*
X77744186Y-85160041D01*
X77963994Y-85489006D01*
X78770988Y-86296000D01*
X79191000Y-86716013D01*
X79191000Y-91709899D01*
X79112876Y-91787887D01*
X78916224Y-92261477D01*
X78915777Y-92774273D01*
X79111602Y-93248206D01*
X79348306Y-93485323D01*
X78441797Y-94390251D01*
X77085677Y-97656150D01*
X77082591Y-101192413D01*
X78433009Y-104460675D01*
X80931343Y-106963373D01*
X84197242Y-108319493D01*
X87733505Y-108322579D01*
X91001767Y-106972161D01*
X93504465Y-104473827D01*
X94860585Y-101207928D01*
X94862109Y-99461936D01*
X95314477Y-99649776D01*
X95827273Y-99650223D01*
X96301206Y-99454398D01*
X96664124Y-99092113D01*
X96860776Y-98618523D01*
X96861223Y-98105727D01*
X96665398Y-97631794D01*
X96303113Y-97268876D01*
X95829523Y-97072224D01*
X95631676Y-97072052D01*
X95560042Y-97024187D01*
X95172001Y-96947001D01*
X94564246Y-96947001D01*
X93529656Y-94443102D01*
X93668273Y-94443223D01*
X94142206Y-94247398D01*
X94505124Y-93885113D01*
X94701776Y-93411523D01*
X94702223Y-92898727D01*
X94506398Y-92424794D01*
X94300000Y-92218035D01*
X94300000Y-79817000D01*
X97212173Y-79817000D01*
X97356272Y-80032659D01*
X97416647Y-80073000D01*
X97356272Y-80113341D01*
X96979304Y-80677514D01*
X96846931Y-81343000D01*
X96979304Y-82008486D01*
X97356272Y-82572659D01*
X97416647Y-82613000D01*
X97356272Y-82653341D01*
X96979304Y-83217514D01*
X96846931Y-83883000D01*
X96979304Y-84548486D01*
X97356272Y-85112659D01*
X97416647Y-85153000D01*
X97356272Y-85193341D01*
X96979304Y-85757514D01*
X96846931Y-86423000D01*
X96979304Y-87088486D01*
X97356272Y-87652659D01*
X97920445Y-88029627D01*
X98585931Y-88162000D01*
X98654069Y-88162000D01*
X99319555Y-88029627D01*
X99536000Y-87885003D01*
X99536000Y-114405056D01*
X99515812Y-114506549D01*
X99512102Y-114512101D01*
X99506549Y-114515812D01*
X99405056Y-114536000D01*
X89925009Y-114536000D01*
X90034742Y-114371772D01*
X90122210Y-113932039D01*
X90122210Y-110932039D01*
X90034742Y-110492306D01*
X89785653Y-110119517D01*
X89412864Y-109870428D01*
X88973131Y-109782960D01*
X82973131Y-109782960D01*
X82533398Y-109870428D01*
X82160609Y-110119517D01*
X81911520Y-110492306D01*
X81824052Y-110932039D01*
X81824052Y-113932039D01*
X81911520Y-114371772D01*
X82021253Y-114536000D01*
X75594944Y-114536000D01*
X75493451Y-114515812D01*
X75487899Y-114512102D01*
X75484188Y-114506549D01*
X75464000Y-114405056D01*
X75464000Y-71594944D01*
X75484188Y-71493451D01*
X75487899Y-71487898D01*
X75493451Y-71484188D01*
X75594944Y-71464000D01*
X99405056Y-71464000D01*
X99506549Y-71484188D01*
X99506549Y-71484188D01*
G37*
X99506549Y-71484188D02*
X99512102Y-71487899D01*
X99515812Y-71493451D01*
X99536000Y-71594944D01*
X99536000Y-74778000D01*
X98905750Y-74778000D01*
X98747000Y-74936750D01*
X98747000Y-76136000D01*
X98767000Y-76136000D01*
X98767000Y-76390000D01*
X98747000Y-76390000D01*
X98747000Y-76410000D01*
X98493000Y-76410000D01*
X98493000Y-76390000D01*
X97293750Y-76390000D01*
X97135000Y-76548750D01*
X97135000Y-77239310D01*
X97231673Y-77472699D01*
X97346676Y-77587702D01*
X97212173Y-77789000D01*
X93706012Y-77789000D01*
X91203702Y-75286690D01*
X97135000Y-75286690D01*
X97135000Y-75977250D01*
X97293750Y-76136000D01*
X98493000Y-76136000D01*
X98493000Y-74936750D01*
X98334250Y-74778000D01*
X97643691Y-74778000D01*
X97410302Y-74874673D01*
X97231673Y-75053301D01*
X97135000Y-75286690D01*
X91203702Y-75286690D01*
X90574006Y-74656994D01*
X90245041Y-74437186D01*
X89857000Y-74360000D01*
X80506101Y-74360000D01*
X80428113Y-74281876D01*
X79954523Y-74085224D01*
X79524864Y-74084849D01*
X79462099Y-73990915D01*
X79462223Y-73848727D01*
X79266398Y-73374794D01*
X78904113Y-73011876D01*
X78430523Y-72815224D01*
X77917727Y-72814777D01*
X77443794Y-73010602D01*
X77080876Y-73372887D01*
X76884224Y-73846477D01*
X76883777Y-74359273D01*
X77079602Y-74833206D01*
X77441887Y-75196124D01*
X77667000Y-75289599D01*
X77667000Y-84772000D01*
X77744186Y-85160041D01*
X77963994Y-85489006D01*
X78770988Y-86296000D01*
X79191000Y-86716013D01*
X79191000Y-91709899D01*
X79112876Y-91787887D01*
X78916224Y-92261477D01*
X78915777Y-92774273D01*
X79111602Y-93248206D01*
X79348306Y-93485323D01*
X78441797Y-94390251D01*
X77085677Y-97656150D01*
X77082591Y-101192413D01*
X78433009Y-104460675D01*
X80931343Y-106963373D01*
X84197242Y-108319493D01*
X87733505Y-108322579D01*
X91001767Y-106972161D01*
X93504465Y-104473827D01*
X94860585Y-101207928D01*
X94862109Y-99461936D01*
X95314477Y-99649776D01*
X95827273Y-99650223D01*
X96301206Y-99454398D01*
X96664124Y-99092113D01*
X96860776Y-98618523D01*
X96861223Y-98105727D01*
X96665398Y-97631794D01*
X96303113Y-97268876D01*
X95829523Y-97072224D01*
X95631676Y-97072052D01*
X95560042Y-97024187D01*
X95172001Y-96947001D01*
X94564246Y-96947001D01*
X93529656Y-94443102D01*
X93668273Y-94443223D01*
X94142206Y-94247398D01*
X94505124Y-93885113D01*
X94701776Y-93411523D01*
X94702223Y-92898727D01*
X94506398Y-92424794D01*
X94300000Y-92218035D01*
X94300000Y-79817000D01*
X97212173Y-79817000D01*
X97356272Y-80032659D01*
X97416647Y-80073000D01*
X97356272Y-80113341D01*
X96979304Y-80677514D01*
X96846931Y-81343000D01*
X96979304Y-82008486D01*
X97356272Y-82572659D01*
X97416647Y-82613000D01*
X97356272Y-82653341D01*
X96979304Y-83217514D01*
X96846931Y-83883000D01*
X96979304Y-84548486D01*
X97356272Y-85112659D01*
X97416647Y-85153000D01*
X97356272Y-85193341D01*
X96979304Y-85757514D01*
X96846931Y-86423000D01*
X96979304Y-87088486D01*
X97356272Y-87652659D01*
X97920445Y-88029627D01*
X98585931Y-88162000D01*
X98654069Y-88162000D01*
X99319555Y-88029627D01*
X99536000Y-87885003D01*
X99536000Y-114405056D01*
X99515812Y-114506549D01*
X99512102Y-114512101D01*
X99506549Y-114515812D01*
X99405056Y-114536000D01*
X89925009Y-114536000D01*
X90034742Y-114371772D01*
X90122210Y-113932039D01*
X90122210Y-110932039D01*
X90034742Y-110492306D01*
X89785653Y-110119517D01*
X89412864Y-109870428D01*
X88973131Y-109782960D01*
X82973131Y-109782960D01*
X82533398Y-109870428D01*
X82160609Y-110119517D01*
X81911520Y-110492306D01*
X81824052Y-110932039D01*
X81824052Y-113932039D01*
X81911520Y-114371772D01*
X82021253Y-114536000D01*
X75594944Y-114536000D01*
X75493451Y-114515812D01*
X75487899Y-114512102D01*
X75484188Y-114506549D01*
X75464000Y-114405056D01*
X75464000Y-71594944D01*
X75484188Y-71493451D01*
X75487899Y-71487898D01*
X75493451Y-71484188D01*
X75594944Y-71464000D01*
X99405056Y-71464000D01*
X99506549Y-71484188D01*
G36*
X92272000Y-79223012D02*
X92272000Y-92540593D01*
X92124224Y-92896477D01*
X92124123Y-93011847D01*
X91014919Y-91900705D01*
X87749020Y-90544585D01*
X84212757Y-90541499D01*
X81267226Y-91758567D01*
X81219000Y-91710257D01*
X81219000Y-87446039D01*
X81624052Y-87446039D01*
X81624052Y-87932039D01*
X81711520Y-88371772D01*
X81960609Y-88744561D01*
X82333398Y-88993650D01*
X82773131Y-89081118D01*
X88773131Y-89081118D01*
X89212864Y-88993650D01*
X89585653Y-88744561D01*
X89834742Y-88371772D01*
X89922210Y-87932039D01*
X89922210Y-84932039D01*
X89834742Y-84492306D01*
X89585653Y-84119517D01*
X89212864Y-83870428D01*
X88773131Y-83782960D01*
X88198919Y-83782960D01*
X88551206Y-83637398D01*
X88914124Y-83275113D01*
X89110776Y-82801523D01*
X89111223Y-82288727D01*
X89010097Y-82043984D01*
X89110776Y-81801523D01*
X89111223Y-81288727D01*
X89010097Y-81043984D01*
X89110776Y-80801523D01*
X89111223Y-80288727D01*
X89010097Y-80043984D01*
X89110776Y-79801523D01*
X89111223Y-79288727D01*
X89010097Y-79043984D01*
X89110776Y-78801523D01*
X89111223Y-78288727D01*
X88915398Y-77814794D01*
X88553113Y-77451876D01*
X88079523Y-77255224D01*
X87566727Y-77254777D01*
X87321984Y-77355903D01*
X87079523Y-77255224D01*
X86566727Y-77254777D01*
X86321984Y-77355903D01*
X86079523Y-77255224D01*
X85566727Y-77254777D01*
X85321984Y-77355903D01*
X85079523Y-77255224D01*
X84566727Y-77254777D01*
X84321984Y-77355903D01*
X84079523Y-77255224D01*
X83566727Y-77254777D01*
X83092794Y-77450602D01*
X82729876Y-77812887D01*
X82533224Y-78286477D01*
X82532777Y-78799273D01*
X82633903Y-79044016D01*
X82533224Y-79286477D01*
X82532777Y-79799273D01*
X82633903Y-80044016D01*
X82533224Y-80286477D01*
X82532777Y-80799273D01*
X82633903Y-81044016D01*
X82533224Y-81286477D01*
X82532777Y-81799273D01*
X82633903Y-82044016D01*
X82533224Y-82286477D01*
X82532777Y-82799273D01*
X82728602Y-83273206D01*
X83090887Y-83636124D01*
X83444507Y-83782960D01*
X82773131Y-83782960D01*
X82333398Y-83870428D01*
X81960609Y-84119517D01*
X81711520Y-84492306D01*
X81624052Y-84932039D01*
X81624052Y-85418039D01*
X80761052Y-85418039D01*
X79695000Y-84351988D01*
X79695000Y-76662999D01*
X79952273Y-76663223D01*
X80426206Y-76467398D01*
X80505743Y-76388000D01*
X89436988Y-76388000D01*
X92272000Y-79223012D01*
X92272000Y-79223012D01*
G37*
X92272000Y-79223012D02*
X92272000Y-92540593D01*
X92124224Y-92896477D01*
X92124123Y-93011847D01*
X91014919Y-91900705D01*
X87749020Y-90544585D01*
X84212757Y-90541499D01*
X81267226Y-91758567D01*
X81219000Y-91710257D01*
X81219000Y-87446039D01*
X81624052Y-87446039D01*
X81624052Y-87932039D01*
X81711520Y-88371772D01*
X81960609Y-88744561D01*
X82333398Y-88993650D01*
X82773131Y-89081118D01*
X88773131Y-89081118D01*
X89212864Y-88993650D01*
X89585653Y-88744561D01*
X89834742Y-88371772D01*
X89922210Y-87932039D01*
X89922210Y-84932039D01*
X89834742Y-84492306D01*
X89585653Y-84119517D01*
X89212864Y-83870428D01*
X88773131Y-83782960D01*
X88198919Y-83782960D01*
X88551206Y-83637398D01*
X88914124Y-83275113D01*
X89110776Y-82801523D01*
X89111223Y-82288727D01*
X89010097Y-82043984D01*
X89110776Y-81801523D01*
X89111223Y-81288727D01*
X89010097Y-81043984D01*
X89110776Y-80801523D01*
X89111223Y-80288727D01*
X89010097Y-80043984D01*
X89110776Y-79801523D01*
X89111223Y-79288727D01*
X89010097Y-79043984D01*
X89110776Y-78801523D01*
X89111223Y-78288727D01*
X88915398Y-77814794D01*
X88553113Y-77451876D01*
X88079523Y-77255224D01*
X87566727Y-77254777D01*
X87321984Y-77355903D01*
X87079523Y-77255224D01*
X86566727Y-77254777D01*
X86321984Y-77355903D01*
X86079523Y-77255224D01*
X85566727Y-77254777D01*
X85321984Y-77355903D01*
X85079523Y-77255224D01*
X84566727Y-77254777D01*
X84321984Y-77355903D01*
X84079523Y-77255224D01*
X83566727Y-77254777D01*
X83092794Y-77450602D01*
X82729876Y-77812887D01*
X82533224Y-78286477D01*
X82532777Y-78799273D01*
X82633903Y-79044016D01*
X82533224Y-79286477D01*
X82532777Y-79799273D01*
X82633903Y-80044016D01*
X82533224Y-80286477D01*
X82532777Y-80799273D01*
X82633903Y-81044016D01*
X82533224Y-81286477D01*
X82532777Y-81799273D01*
X82633903Y-82044016D01*
X82533224Y-82286477D01*
X82532777Y-82799273D01*
X82728602Y-83273206D01*
X83090887Y-83636124D01*
X83444507Y-83782960D01*
X82773131Y-83782960D01*
X82333398Y-83870428D01*
X81960609Y-84119517D01*
X81711520Y-84492306D01*
X81624052Y-84932039D01*
X81624052Y-85418039D01*
X80761052Y-85418039D01*
X79695000Y-84351988D01*
X79695000Y-76662999D01*
X79952273Y-76663223D01*
X80426206Y-76467398D01*
X80505743Y-76388000D01*
X89436988Y-76388000D01*
X92272000Y-79223012D01*
G36*
X126506549Y-71484188D02*
X126512102Y-71487899D01*
X126515812Y-71493451D01*
X126536000Y-71594944D01*
X126536000Y-74778000D01*
X125905750Y-74778000D01*
X125747000Y-74936750D01*
X125747000Y-76136000D01*
X125767000Y-76136000D01*
X125767000Y-76390000D01*
X125747000Y-76390000D01*
X125747000Y-76410000D01*
X125493000Y-76410000D01*
X125493000Y-76390000D01*
X124293750Y-76390000D01*
X124135000Y-76548750D01*
X124135000Y-77239310D01*
X124231673Y-77472699D01*
X124346676Y-77587702D01*
X124212173Y-77789000D01*
X120706012Y-77789000D01*
X118203702Y-75286690D01*
X124135000Y-75286690D01*
X124135000Y-75977250D01*
X124293750Y-76136000D01*
X125493000Y-76136000D01*
X125493000Y-74936750D01*
X125334250Y-74778000D01*
X124643691Y-74778000D01*
X124410302Y-74874673D01*
X124231673Y-75053301D01*
X124135000Y-75286690D01*
X118203702Y-75286690D01*
X117574006Y-74656994D01*
X117245041Y-74437186D01*
X116857000Y-74360000D01*
X107506101Y-74360000D01*
X107428113Y-74281876D01*
X106954523Y-74085224D01*
X106524864Y-74084849D01*
X106462099Y-73990915D01*
X106462223Y-73848727D01*
X106266398Y-73374794D01*
X105904113Y-73011876D01*
X105430523Y-72815224D01*
X104917727Y-72814777D01*
X104443794Y-73010602D01*
X104080876Y-73372887D01*
X103884224Y-73846477D01*
X103883777Y-74359273D01*
X104079602Y-74833206D01*
X104441887Y-75196124D01*
X104667000Y-75289599D01*
X104667000Y-84772000D01*
X104744186Y-85160041D01*
X104963994Y-85489006D01*
X105770988Y-86296000D01*
X106191000Y-86716013D01*
X106191000Y-91709899D01*
X106112876Y-91787887D01*
X105916224Y-92261477D01*
X105915777Y-92774273D01*
X106111602Y-93248206D01*
X106348306Y-93485323D01*
X105441797Y-94390251D01*
X104085677Y-97656150D01*
X104082591Y-101192413D01*
X105433009Y-104460675D01*
X107931343Y-106963373D01*
X111197242Y-108319493D01*
X114733505Y-108322579D01*
X118001767Y-106972161D01*
X120504465Y-104473827D01*
X121860585Y-101207928D01*
X121862109Y-99461936D01*
X122314477Y-99649776D01*
X122827273Y-99650223D01*
X123301206Y-99454398D01*
X123664124Y-99092113D01*
X123860776Y-98618523D01*
X123861223Y-98105727D01*
X123665398Y-97631794D01*
X123303113Y-97268876D01*
X122829523Y-97072224D01*
X122631676Y-97072052D01*
X122560042Y-97024187D01*
X122172001Y-96947001D01*
X121564246Y-96947001D01*
X120529656Y-94443102D01*
X120668273Y-94443223D01*
X121142206Y-94247398D01*
X121505124Y-93885113D01*
X121701776Y-93411523D01*
X121702223Y-92898727D01*
X121506398Y-92424794D01*
X121300000Y-92218035D01*
X121300000Y-79817000D01*
X124212173Y-79817000D01*
X124356272Y-80032659D01*
X124416647Y-80073000D01*
X124356272Y-80113341D01*
X123979304Y-80677514D01*
X123846931Y-81343000D01*
X123979304Y-82008486D01*
X124356272Y-82572659D01*
X124416647Y-82613000D01*
X124356272Y-82653341D01*
X123979304Y-83217514D01*
X123846931Y-83883000D01*
X123979304Y-84548486D01*
X124356272Y-85112659D01*
X124416647Y-85153000D01*
X124356272Y-85193341D01*
X123979304Y-85757514D01*
X123846931Y-86423000D01*
X123979304Y-87088486D01*
X124356272Y-87652659D01*
X124920445Y-88029627D01*
X125585931Y-88162000D01*
X125654069Y-88162000D01*
X126319555Y-88029627D01*
X126536000Y-87885003D01*
X126536000Y-114405056D01*
X126515812Y-114506549D01*
X126512102Y-114512101D01*
X126506549Y-114515812D01*
X126405056Y-114536000D01*
X116925009Y-114536000D01*
X117034742Y-114371772D01*
X117122210Y-113932039D01*
X117122210Y-110932039D01*
X117034742Y-110492306D01*
X116785653Y-110119517D01*
X116412864Y-109870428D01*
X115973131Y-109782960D01*
X109973131Y-109782960D01*
X109533398Y-109870428D01*
X109160609Y-110119517D01*
X108911520Y-110492306D01*
X108824052Y-110932039D01*
X108824052Y-113932039D01*
X108911520Y-114371772D01*
X109021253Y-114536000D01*
X102594944Y-114536000D01*
X102493451Y-114515812D01*
X102487899Y-114512102D01*
X102484188Y-114506549D01*
X102464000Y-114405056D01*
X102464000Y-71594944D01*
X102484188Y-71493451D01*
X102487899Y-71487898D01*
X102493451Y-71484188D01*
X102594944Y-71464000D01*
X126405056Y-71464000D01*
X126506549Y-71484188D01*
X126506549Y-71484188D01*
G37*
X126506549Y-71484188D02*
X126512102Y-71487899D01*
X126515812Y-71493451D01*
X126536000Y-71594944D01*
X126536000Y-74778000D01*
X125905750Y-74778000D01*
X125747000Y-74936750D01*
X125747000Y-76136000D01*
X125767000Y-76136000D01*
X125767000Y-76390000D01*
X125747000Y-76390000D01*
X125747000Y-76410000D01*
X125493000Y-76410000D01*
X125493000Y-76390000D01*
X124293750Y-76390000D01*
X124135000Y-76548750D01*
X124135000Y-77239310D01*
X124231673Y-77472699D01*
X124346676Y-77587702D01*
X124212173Y-77789000D01*
X120706012Y-77789000D01*
X118203702Y-75286690D01*
X124135000Y-75286690D01*
X124135000Y-75977250D01*
X124293750Y-76136000D01*
X125493000Y-76136000D01*
X125493000Y-74936750D01*
X125334250Y-74778000D01*
X124643691Y-74778000D01*
X124410302Y-74874673D01*
X124231673Y-75053301D01*
X124135000Y-75286690D01*
X118203702Y-75286690D01*
X117574006Y-74656994D01*
X117245041Y-74437186D01*
X116857000Y-74360000D01*
X107506101Y-74360000D01*
X107428113Y-74281876D01*
X106954523Y-74085224D01*
X106524864Y-74084849D01*
X106462099Y-73990915D01*
X106462223Y-73848727D01*
X106266398Y-73374794D01*
X105904113Y-73011876D01*
X105430523Y-72815224D01*
X104917727Y-72814777D01*
X104443794Y-73010602D01*
X104080876Y-73372887D01*
X103884224Y-73846477D01*
X103883777Y-74359273D01*
X104079602Y-74833206D01*
X104441887Y-75196124D01*
X104667000Y-75289599D01*
X104667000Y-84772000D01*
X104744186Y-85160041D01*
X104963994Y-85489006D01*
X105770988Y-86296000D01*
X106191000Y-86716013D01*
X106191000Y-91709899D01*
X106112876Y-91787887D01*
X105916224Y-92261477D01*
X105915777Y-92774273D01*
X106111602Y-93248206D01*
X106348306Y-93485323D01*
X105441797Y-94390251D01*
X104085677Y-97656150D01*
X104082591Y-101192413D01*
X105433009Y-104460675D01*
X107931343Y-106963373D01*
X111197242Y-108319493D01*
X114733505Y-108322579D01*
X118001767Y-106972161D01*
X120504465Y-104473827D01*
X121860585Y-101207928D01*
X121862109Y-99461936D01*
X122314477Y-99649776D01*
X122827273Y-99650223D01*
X123301206Y-99454398D01*
X123664124Y-99092113D01*
X123860776Y-98618523D01*
X123861223Y-98105727D01*
X123665398Y-97631794D01*
X123303113Y-97268876D01*
X122829523Y-97072224D01*
X122631676Y-97072052D01*
X122560042Y-97024187D01*
X122172001Y-96947001D01*
X121564246Y-96947001D01*
X120529656Y-94443102D01*
X120668273Y-94443223D01*
X121142206Y-94247398D01*
X121505124Y-93885113D01*
X121701776Y-93411523D01*
X121702223Y-92898727D01*
X121506398Y-92424794D01*
X121300000Y-92218035D01*
X121300000Y-79817000D01*
X124212173Y-79817000D01*
X124356272Y-80032659D01*
X124416647Y-80073000D01*
X124356272Y-80113341D01*
X123979304Y-80677514D01*
X123846931Y-81343000D01*
X123979304Y-82008486D01*
X124356272Y-82572659D01*
X124416647Y-82613000D01*
X124356272Y-82653341D01*
X123979304Y-83217514D01*
X123846931Y-83883000D01*
X123979304Y-84548486D01*
X124356272Y-85112659D01*
X124416647Y-85153000D01*
X124356272Y-85193341D01*
X123979304Y-85757514D01*
X123846931Y-86423000D01*
X123979304Y-87088486D01*
X124356272Y-87652659D01*
X124920445Y-88029627D01*
X125585931Y-88162000D01*
X125654069Y-88162000D01*
X126319555Y-88029627D01*
X126536000Y-87885003D01*
X126536000Y-114405056D01*
X126515812Y-114506549D01*
X126512102Y-114512101D01*
X126506549Y-114515812D01*
X126405056Y-114536000D01*
X116925009Y-114536000D01*
X117034742Y-114371772D01*
X117122210Y-113932039D01*
X117122210Y-110932039D01*
X117034742Y-110492306D01*
X116785653Y-110119517D01*
X116412864Y-109870428D01*
X115973131Y-109782960D01*
X109973131Y-109782960D01*
X109533398Y-109870428D01*
X109160609Y-110119517D01*
X108911520Y-110492306D01*
X108824052Y-110932039D01*
X108824052Y-113932039D01*
X108911520Y-114371772D01*
X109021253Y-114536000D01*
X102594944Y-114536000D01*
X102493451Y-114515812D01*
X102487899Y-114512102D01*
X102484188Y-114506549D01*
X102464000Y-114405056D01*
X102464000Y-71594944D01*
X102484188Y-71493451D01*
X102487899Y-71487898D01*
X102493451Y-71484188D01*
X102594944Y-71464000D01*
X126405056Y-71464000D01*
X126506549Y-71484188D01*
G36*
X119272000Y-79223012D02*
X119272000Y-92540593D01*
X119124224Y-92896477D01*
X119124123Y-93011847D01*
X118014919Y-91900705D01*
X114749020Y-90544585D01*
X111212757Y-90541499D01*
X108267226Y-91758567D01*
X108219000Y-91710257D01*
X108219000Y-87446039D01*
X108624052Y-87446039D01*
X108624052Y-87932039D01*
X108711520Y-88371772D01*
X108960609Y-88744561D01*
X109333398Y-88993650D01*
X109773131Y-89081118D01*
X115773131Y-89081118D01*
X116212864Y-88993650D01*
X116585653Y-88744561D01*
X116834742Y-88371772D01*
X116922210Y-87932039D01*
X116922210Y-84932039D01*
X116834742Y-84492306D01*
X116585653Y-84119517D01*
X116212864Y-83870428D01*
X115773131Y-83782960D01*
X115198919Y-83782960D01*
X115551206Y-83637398D01*
X115914124Y-83275113D01*
X116110776Y-82801523D01*
X116111223Y-82288727D01*
X116010097Y-82043984D01*
X116110776Y-81801523D01*
X116111223Y-81288727D01*
X116010097Y-81043984D01*
X116110776Y-80801523D01*
X116111223Y-80288727D01*
X116010097Y-80043984D01*
X116110776Y-79801523D01*
X116111223Y-79288727D01*
X116010097Y-79043984D01*
X116110776Y-78801523D01*
X116111223Y-78288727D01*
X115915398Y-77814794D01*
X115553113Y-77451876D01*
X115079523Y-77255224D01*
X114566727Y-77254777D01*
X114321984Y-77355903D01*
X114079523Y-77255224D01*
X113566727Y-77254777D01*
X113321984Y-77355903D01*
X113079523Y-77255224D01*
X112566727Y-77254777D01*
X112321984Y-77355903D01*
X112079523Y-77255224D01*
X111566727Y-77254777D01*
X111321984Y-77355903D01*
X111079523Y-77255224D01*
X110566727Y-77254777D01*
X110092794Y-77450602D01*
X109729876Y-77812887D01*
X109533224Y-78286477D01*
X109532777Y-78799273D01*
X109633903Y-79044016D01*
X109533224Y-79286477D01*
X109532777Y-79799273D01*
X109633903Y-80044016D01*
X109533224Y-80286477D01*
X109532777Y-80799273D01*
X109633903Y-81044016D01*
X109533224Y-81286477D01*
X109532777Y-81799273D01*
X109633903Y-82044016D01*
X109533224Y-82286477D01*
X109532777Y-82799273D01*
X109728602Y-83273206D01*
X110090887Y-83636124D01*
X110444507Y-83782960D01*
X109773131Y-83782960D01*
X109333398Y-83870428D01*
X108960609Y-84119517D01*
X108711520Y-84492306D01*
X108624052Y-84932039D01*
X108624052Y-85418039D01*
X107761052Y-85418039D01*
X106695000Y-84351988D01*
X106695000Y-76662999D01*
X106952273Y-76663223D01*
X107426206Y-76467398D01*
X107505743Y-76388000D01*
X116436988Y-76388000D01*
X119272000Y-79223012D01*
X119272000Y-79223012D01*
G37*
X119272000Y-79223012D02*
X119272000Y-92540593D01*
X119124224Y-92896477D01*
X119124123Y-93011847D01*
X118014919Y-91900705D01*
X114749020Y-90544585D01*
X111212757Y-90541499D01*
X108267226Y-91758567D01*
X108219000Y-91710257D01*
X108219000Y-87446039D01*
X108624052Y-87446039D01*
X108624052Y-87932039D01*
X108711520Y-88371772D01*
X108960609Y-88744561D01*
X109333398Y-88993650D01*
X109773131Y-89081118D01*
X115773131Y-89081118D01*
X116212864Y-88993650D01*
X116585653Y-88744561D01*
X116834742Y-88371772D01*
X116922210Y-87932039D01*
X116922210Y-84932039D01*
X116834742Y-84492306D01*
X116585653Y-84119517D01*
X116212864Y-83870428D01*
X115773131Y-83782960D01*
X115198919Y-83782960D01*
X115551206Y-83637398D01*
X115914124Y-83275113D01*
X116110776Y-82801523D01*
X116111223Y-82288727D01*
X116010097Y-82043984D01*
X116110776Y-81801523D01*
X116111223Y-81288727D01*
X116010097Y-81043984D01*
X116110776Y-80801523D01*
X116111223Y-80288727D01*
X116010097Y-80043984D01*
X116110776Y-79801523D01*
X116111223Y-79288727D01*
X116010097Y-79043984D01*
X116110776Y-78801523D01*
X116111223Y-78288727D01*
X115915398Y-77814794D01*
X115553113Y-77451876D01*
X115079523Y-77255224D01*
X114566727Y-77254777D01*
X114321984Y-77355903D01*
X114079523Y-77255224D01*
X113566727Y-77254777D01*
X113321984Y-77355903D01*
X113079523Y-77255224D01*
X112566727Y-77254777D01*
X112321984Y-77355903D01*
X112079523Y-77255224D01*
X111566727Y-77254777D01*
X111321984Y-77355903D01*
X111079523Y-77255224D01*
X110566727Y-77254777D01*
X110092794Y-77450602D01*
X109729876Y-77812887D01*
X109533224Y-78286477D01*
X109532777Y-78799273D01*
X109633903Y-79044016D01*
X109533224Y-79286477D01*
X109532777Y-79799273D01*
X109633903Y-80044016D01*
X109533224Y-80286477D01*
X109532777Y-80799273D01*
X109633903Y-81044016D01*
X109533224Y-81286477D01*
X109532777Y-81799273D01*
X109633903Y-82044016D01*
X109533224Y-82286477D01*
X109532777Y-82799273D01*
X109728602Y-83273206D01*
X110090887Y-83636124D01*
X110444507Y-83782960D01*
X109773131Y-83782960D01*
X109333398Y-83870428D01*
X108960609Y-84119517D01*
X108711520Y-84492306D01*
X108624052Y-84932039D01*
X108624052Y-85418039D01*
X107761052Y-85418039D01*
X106695000Y-84351988D01*
X106695000Y-76662999D01*
X106952273Y-76663223D01*
X107426206Y-76467398D01*
X107505743Y-76388000D01*
X116436988Y-76388000D01*
X119272000Y-79223012D01*
M02*
