M48
;DRILL file {KiCad no-vcs-found} date Fri Jan  6 12:51:04 2017
;FORMAT={-:-/ absolute / metric / decimal}
FMAT,2
METRIC,TZ
T1C0.300
T2C0.400
T3C1.000
T4C0.300
%
G90
G05
M71
T1
X55.695Y-95.294
X62.299Y-97.834
X67.956Y-85.322
X67.956Y-86.322
X67.956Y-87.322
X67.956Y-88.322
X67.956Y-89.322
X68.903Y-92.627
X68.956Y-85.322
X68.956Y-86.322
X68.956Y-87.322
X68.956Y-88.322
X68.956Y-89.322
X69.956Y-85.322
X69.956Y-86.322
X69.956Y-87.322
X69.956Y-88.322
X69.956Y-89.322
X70.956Y-85.322
X70.956Y-86.322
X70.956Y-87.322
X70.956Y-88.322
X70.956Y-89.322
X71.956Y-85.322
X71.956Y-86.322
X71.956Y-87.322
X71.956Y-88.322
X71.956Y-89.322
X78.555Y-80.308
X78.555Y-81.451
X78.555Y-82.467
X78.555Y-83.483
X78.555Y-84.626
X78.555Y-85.642
X78.555Y-86.658
X78.555Y-87.674
X78.555Y-88.69
X78.555Y-89.706
X78.555Y-90.722
X78.555Y-91.738
X78.555Y-92.754
X78.555Y-93.77
X95.902Y-105.503
X95.902Y-134.003
X96.918Y-105.503
X96.918Y-134.003
X97.934Y-105.503
X97.934Y-134.003
X98.95Y-105.503
X98.95Y-134.003
X100.093Y-105.503
X100.093Y-134.003
X101.109Y-105.503
X101.109Y-134.003
X101.27Y-111.2
X101.27Y-112.2
X101.27Y-113.2
X101.27Y-114.2
X101.27Y-115.2
X101.27Y-139.7
X101.27Y-140.7
X101.27Y-141.7
X101.27Y-142.7
X101.27Y-143.7
X102.125Y-105.503
X102.125Y-134.003
X102.27Y-111.2
X102.27Y-112.2
X102.27Y-113.2
X102.27Y-114.2
X102.27Y-115.2
X102.27Y-139.7
X102.27Y-140.7
X102.27Y-141.7
X102.27Y-142.7
X102.27Y-143.7
X102.695Y-95.294
X103.141Y-105.503
X103.141Y-134.003
X103.27Y-111.2
X103.27Y-112.2
X103.27Y-113.2
X103.27Y-114.2
X103.27Y-115.2
X103.27Y-139.7
X103.27Y-140.7
X103.27Y-141.7
X103.27Y-142.7
X103.27Y-143.7
X104.157Y-105.503
X104.157Y-134.003
X104.27Y-111.2
X104.27Y-112.2
X104.27Y-113.2
X104.27Y-114.2
X104.27Y-115.2
X104.27Y-139.7
X104.27Y-140.7
X104.27Y-141.7
X104.27Y-142.7
X104.27Y-143.7
X105.173Y-105.503
X105.173Y-134.003
X105.27Y-111.2
X105.27Y-112.2
X105.27Y-113.2
X105.27Y-114.2
X105.27Y-115.2
X105.27Y-139.7
X105.27Y-140.7
X105.27Y-141.7
X105.27Y-142.7
X105.27Y-143.7
X106.189Y-105.503
X106.189Y-134.003
X107.205Y-105.503
X107.205Y-134.003
X108.221Y-105.503
X108.221Y-134.003
X109.237Y-105.503
X109.237Y-134.003
X109.299Y-97.834
X114.119Y-115.088
X114.119Y-143.588
X114.956Y-85.322
X114.956Y-86.322
X114.956Y-87.322
X114.956Y-88.322
X114.956Y-89.322
X115.135Y-123.47
X115.135Y-151.97
X115.903Y-92.627
X115.956Y-85.322
X115.956Y-86.322
X115.956Y-87.322
X115.956Y-88.322
X115.956Y-89.322
X116.956Y-85.322
X116.956Y-86.322
X116.956Y-87.322
X116.956Y-88.322
X116.956Y-89.322
X117.548Y-123.47
X117.548Y-151.97
X117.956Y-85.322
X117.956Y-86.322
X117.956Y-87.322
X117.956Y-88.322
X117.956Y-89.322
X118.956Y-85.322
X118.956Y-86.322
X118.956Y-87.322
X118.956Y-88.322
X118.956Y-89.322
X120.469Y-123.47
X120.469Y-124.867
X120.469Y-151.97
X120.469Y-153.367
X125.555Y-80.308
X125.555Y-81.451
X125.555Y-82.467
X125.555Y-83.483
X125.555Y-84.626
X125.555Y-85.642
X125.555Y-86.658
X125.555Y-87.674
X125.555Y-88.69
X125.555Y-89.706
X125.555Y-90.722
X125.555Y-91.738
X125.555Y-92.754
X125.555Y-93.77
T2
X52.139Y-97.072
X56.706Y-78.027
X56.706Y-80.43
X57.346Y-94.913
X57.981Y-81.705
X75.003Y-108.23
X75.003Y-136.73
X75.126Y-81.197
X76.396Y-79.673
X90.116Y-112.802
X90.116Y-141.302
X97.Y-108.5
X97.Y-137.
X99.139Y-97.072
X103.706Y-78.027
X103.706Y-80.43
X104.346Y-94.913
X104.981Y-81.705
X116.024Y-108.357
X116.024Y-136.857
X122.126Y-81.197
X123.396Y-79.673
T3
X64.077Y-100.12
X66.617Y-100.12
X69.157Y-100.12
X71.697Y-100.12
X74.237Y-100.12
X111.077Y-100.12
X113.617Y-100.12
X113.84Y-128.5
X113.84Y-157.
X116.157Y-100.12
X116.38Y-128.5
X116.38Y-157.
X118.697Y-100.12
X118.92Y-128.5
X118.92Y-157.
X121.237Y-100.12
X121.46Y-128.5
X121.46Y-157.
X124.Y-128.5
X124.Y-157.
T4
X40.Y-104.5
X40.Y-130.5
X40.Y-133.
X40.Y-159.
X40.5Y-104.5
X40.5Y-130.5
X40.5Y-133.
X40.5Y-159.
X41.Y-76.
X41.Y-102.
X41.Y-104.5
X41.Y-130.5
X41.Y-133.
X41.Y-159.
X41.5Y-76.
X41.5Y-102.
X41.5Y-104.5
X41.5Y-130.5
X41.5Y-133.
X41.5Y-159.
X42.Y-76.
X42.Y-102.
X42.Y-104.5
X42.Y-130.5
X42.Y-133.
X42.Y-159.
X42.5Y-76.
X42.5Y-102.
X43.Y-76.
X43.Y-102.
X72.Y-76.
X72.Y-102.
X72.5Y-76.
X72.5Y-102.
X73.Y-76.
X73.Y-102.
X73.5Y-76.
X73.5Y-102.
X74.Y-76.
X74.Y-102.
X88.Y-76.
X88.Y-102.
X88.5Y-76.
X88.5Y-102.
X89.Y-76.
X89.Y-102.
X89.5Y-76.
X89.5Y-102.
X90.Y-76.
X90.Y-102.
X119.Y-76.
X119.Y-102.
X119.5Y-76.
X119.5Y-102.
X120.Y-76.
X120.Y-102.
X120.5Y-76.
X120.5Y-102.
X121.Y-76.
X121.Y-102.
X122.Y-104.5
X122.Y-130.5
X122.Y-133.
X122.Y-159.
X122.5Y-104.5
X122.5Y-130.5
X122.5Y-133.
X122.5Y-159.
X123.Y-104.5
X123.Y-130.5
X123.Y-133.
X123.Y-159.
X123.5Y-104.5
X123.5Y-130.5
X123.5Y-133.
X123.5Y-159.
X124.Y-104.5
X124.Y-130.5
X124.Y-133.
X124.Y-159.
T0
M30
