G04 #@! TF.GenerationSoftware,KiCad,Pcbnew,5.0.0-fee4fd1~66~ubuntu18.04.1*
G04 #@! TF.CreationDate,2018-08-20T14:29:34+02:00*
G04 #@! TF.ProjectId,ESP32-li-ion-cell-monitor,45535033322D6C692D696F6E2D63656C,1.3*
G04 #@! TF.SameCoordinates,Original*
G04 #@! TF.FileFunction,Soldermask,Bot*
G04 #@! TF.FilePolarity,Negative*
%FSLAX46Y46*%
G04 Gerber Fmt 4.6, Leading zero omitted, Abs format (unit mm)*
G04 Created by KiCad (PCBNEW 5.0.0-fee4fd1~66~ubuntu18.04.1) date Mon Aug 20 14:29:34 2018*
%MOMM*%
%LPD*%
G01*
G04 APERTURE LIST*
%ADD10O,1.760000X1.760000*%
%ADD11R,1.760000X1.760000*%
%ADD12C,0.860000*%
%ADD13C,0.100000*%
%ADD14C,0.935000*%
%ADD15R,1.120000X0.710000*%
%ADD16C,1.060000*%
%ADD17C,6.059480*%
G04 APERTURE END LIST*
D10*
G04 #@! TO.C,J3*
X173482000Y-74930000D03*
X176022000Y-74930000D03*
X178562000Y-74930000D03*
X181102000Y-74930000D03*
D11*
X183642000Y-74930000D03*
G04 #@! TD*
D12*
G04 #@! TO.C,U2*
X176856000Y-58990000D03*
X176856000Y-59990000D03*
X176856000Y-60990000D03*
X176856000Y-61990000D03*
X176856000Y-62990000D03*
X177856000Y-62990000D03*
X177856000Y-61990000D03*
X177856000Y-60990000D03*
X177856000Y-59990000D03*
X177856000Y-58990000D03*
X179856000Y-58990000D03*
X179856000Y-59990000D03*
X179856000Y-60990000D03*
X179856000Y-61990000D03*
X179856000Y-62990000D03*
X178856000Y-62990000D03*
X178856000Y-61990000D03*
X178856000Y-60990000D03*
X178856000Y-59990000D03*
X178856000Y-58990000D03*
X180856000Y-62990000D03*
X180856000Y-61990000D03*
X180856000Y-60990000D03*
X180856000Y-59990000D03*
X180856000Y-58990000D03*
G04 #@! TD*
D13*
G04 #@! TO.C,R10*
G36*
X241342162Y-73410126D02*
X241364852Y-73413491D01*
X241387104Y-73419065D01*
X241408702Y-73426793D01*
X241429439Y-73436601D01*
X241449115Y-73448394D01*
X241467539Y-73462059D01*
X241484536Y-73477464D01*
X241499941Y-73494461D01*
X241513606Y-73512885D01*
X241525399Y-73532561D01*
X241535207Y-73553298D01*
X241542935Y-73574896D01*
X241548509Y-73597148D01*
X241551874Y-73619838D01*
X241553000Y-73642750D01*
X241553000Y-74185250D01*
X241551874Y-74208162D01*
X241548509Y-74230852D01*
X241542935Y-74253104D01*
X241535207Y-74274702D01*
X241525399Y-74295439D01*
X241513606Y-74315115D01*
X241499941Y-74333539D01*
X241484536Y-74350536D01*
X241467539Y-74365941D01*
X241449115Y-74379606D01*
X241429439Y-74391399D01*
X241408702Y-74401207D01*
X241387104Y-74408935D01*
X241364852Y-74414509D01*
X241342162Y-74417874D01*
X241319250Y-74419000D01*
X240851750Y-74419000D01*
X240828838Y-74417874D01*
X240806148Y-74414509D01*
X240783896Y-74408935D01*
X240762298Y-74401207D01*
X240741561Y-74391399D01*
X240721885Y-74379606D01*
X240703461Y-74365941D01*
X240686464Y-74350536D01*
X240671059Y-74333539D01*
X240657394Y-74315115D01*
X240645601Y-74295439D01*
X240635793Y-74274702D01*
X240628065Y-74253104D01*
X240622491Y-74230852D01*
X240619126Y-74208162D01*
X240618000Y-74185250D01*
X240618000Y-73642750D01*
X240619126Y-73619838D01*
X240622491Y-73597148D01*
X240628065Y-73574896D01*
X240635793Y-73553298D01*
X240645601Y-73532561D01*
X240657394Y-73512885D01*
X240671059Y-73494461D01*
X240686464Y-73477464D01*
X240703461Y-73462059D01*
X240721885Y-73448394D01*
X240741561Y-73436601D01*
X240762298Y-73426793D01*
X240783896Y-73419065D01*
X240806148Y-73413491D01*
X240828838Y-73410126D01*
X240851750Y-73409000D01*
X241319250Y-73409000D01*
X241342162Y-73410126D01*
X241342162Y-73410126D01*
G37*
D14*
X241085500Y-73914000D03*
D13*
G36*
X239767162Y-73410126D02*
X239789852Y-73413491D01*
X239812104Y-73419065D01*
X239833702Y-73426793D01*
X239854439Y-73436601D01*
X239874115Y-73448394D01*
X239892539Y-73462059D01*
X239909536Y-73477464D01*
X239924941Y-73494461D01*
X239938606Y-73512885D01*
X239950399Y-73532561D01*
X239960207Y-73553298D01*
X239967935Y-73574896D01*
X239973509Y-73597148D01*
X239976874Y-73619838D01*
X239978000Y-73642750D01*
X239978000Y-74185250D01*
X239976874Y-74208162D01*
X239973509Y-74230852D01*
X239967935Y-74253104D01*
X239960207Y-74274702D01*
X239950399Y-74295439D01*
X239938606Y-74315115D01*
X239924941Y-74333539D01*
X239909536Y-74350536D01*
X239892539Y-74365941D01*
X239874115Y-74379606D01*
X239854439Y-74391399D01*
X239833702Y-74401207D01*
X239812104Y-74408935D01*
X239789852Y-74414509D01*
X239767162Y-74417874D01*
X239744250Y-74419000D01*
X239276750Y-74419000D01*
X239253838Y-74417874D01*
X239231148Y-74414509D01*
X239208896Y-74408935D01*
X239187298Y-74401207D01*
X239166561Y-74391399D01*
X239146885Y-74379606D01*
X239128461Y-74365941D01*
X239111464Y-74350536D01*
X239096059Y-74333539D01*
X239082394Y-74315115D01*
X239070601Y-74295439D01*
X239060793Y-74274702D01*
X239053065Y-74253104D01*
X239047491Y-74230852D01*
X239044126Y-74208162D01*
X239043000Y-74185250D01*
X239043000Y-73642750D01*
X239044126Y-73619838D01*
X239047491Y-73597148D01*
X239053065Y-73574896D01*
X239060793Y-73553298D01*
X239070601Y-73532561D01*
X239082394Y-73512885D01*
X239096059Y-73494461D01*
X239111464Y-73477464D01*
X239128461Y-73462059D01*
X239146885Y-73448394D01*
X239166561Y-73436601D01*
X239187298Y-73426793D01*
X239208896Y-73419065D01*
X239231148Y-73413491D01*
X239253838Y-73410126D01*
X239276750Y-73409000D01*
X239744250Y-73409000D01*
X239767162Y-73410126D01*
X239767162Y-73410126D01*
G37*
D14*
X239510500Y-73914000D03*
G04 #@! TD*
D15*
G04 #@! TO.C,U5*
X242756000Y-73848000D03*
X242756000Y-72898000D03*
X242756000Y-71948000D03*
X244956000Y-71948000D03*
X244956000Y-73848000D03*
G04 #@! TD*
D13*
G04 #@! TO.C,C9*
G36*
X246944162Y-73219126D02*
X246966852Y-73222491D01*
X246989104Y-73228065D01*
X247010702Y-73235793D01*
X247031439Y-73245601D01*
X247051115Y-73257394D01*
X247069539Y-73271059D01*
X247086536Y-73286464D01*
X247101941Y-73303461D01*
X247115606Y-73321885D01*
X247127399Y-73341561D01*
X247137207Y-73362298D01*
X247144935Y-73383896D01*
X247150509Y-73406148D01*
X247153874Y-73428838D01*
X247155000Y-73451750D01*
X247155000Y-73919250D01*
X247153874Y-73942162D01*
X247150509Y-73964852D01*
X247144935Y-73987104D01*
X247137207Y-74008702D01*
X247127399Y-74029439D01*
X247115606Y-74049115D01*
X247101941Y-74067539D01*
X247086536Y-74084536D01*
X247069539Y-74099941D01*
X247051115Y-74113606D01*
X247031439Y-74125399D01*
X247010702Y-74135207D01*
X246989104Y-74142935D01*
X246966852Y-74148509D01*
X246944162Y-74151874D01*
X246921250Y-74153000D01*
X246378750Y-74153000D01*
X246355838Y-74151874D01*
X246333148Y-74148509D01*
X246310896Y-74142935D01*
X246289298Y-74135207D01*
X246268561Y-74125399D01*
X246248885Y-74113606D01*
X246230461Y-74099941D01*
X246213464Y-74084536D01*
X246198059Y-74067539D01*
X246184394Y-74049115D01*
X246172601Y-74029439D01*
X246162793Y-74008702D01*
X246155065Y-73987104D01*
X246149491Y-73964852D01*
X246146126Y-73942162D01*
X246145000Y-73919250D01*
X246145000Y-73451750D01*
X246146126Y-73428838D01*
X246149491Y-73406148D01*
X246155065Y-73383896D01*
X246162793Y-73362298D01*
X246172601Y-73341561D01*
X246184394Y-73321885D01*
X246198059Y-73303461D01*
X246213464Y-73286464D01*
X246230461Y-73271059D01*
X246248885Y-73257394D01*
X246268561Y-73245601D01*
X246289298Y-73235793D01*
X246310896Y-73228065D01*
X246333148Y-73222491D01*
X246355838Y-73219126D01*
X246378750Y-73218000D01*
X246921250Y-73218000D01*
X246944162Y-73219126D01*
X246944162Y-73219126D01*
G37*
D14*
X246650000Y-73685500D03*
D13*
G36*
X246944162Y-71644126D02*
X246966852Y-71647491D01*
X246989104Y-71653065D01*
X247010702Y-71660793D01*
X247031439Y-71670601D01*
X247051115Y-71682394D01*
X247069539Y-71696059D01*
X247086536Y-71711464D01*
X247101941Y-71728461D01*
X247115606Y-71746885D01*
X247127399Y-71766561D01*
X247137207Y-71787298D01*
X247144935Y-71808896D01*
X247150509Y-71831148D01*
X247153874Y-71853838D01*
X247155000Y-71876750D01*
X247155000Y-72344250D01*
X247153874Y-72367162D01*
X247150509Y-72389852D01*
X247144935Y-72412104D01*
X247137207Y-72433702D01*
X247127399Y-72454439D01*
X247115606Y-72474115D01*
X247101941Y-72492539D01*
X247086536Y-72509536D01*
X247069539Y-72524941D01*
X247051115Y-72538606D01*
X247031439Y-72550399D01*
X247010702Y-72560207D01*
X246989104Y-72567935D01*
X246966852Y-72573509D01*
X246944162Y-72576874D01*
X246921250Y-72578000D01*
X246378750Y-72578000D01*
X246355838Y-72576874D01*
X246333148Y-72573509D01*
X246310896Y-72567935D01*
X246289298Y-72560207D01*
X246268561Y-72550399D01*
X246248885Y-72538606D01*
X246230461Y-72524941D01*
X246213464Y-72509536D01*
X246198059Y-72492539D01*
X246184394Y-72474115D01*
X246172601Y-72454439D01*
X246162793Y-72433702D01*
X246155065Y-72412104D01*
X246149491Y-72389852D01*
X246146126Y-72367162D01*
X246145000Y-72344250D01*
X246145000Y-71876750D01*
X246146126Y-71853838D01*
X246149491Y-71831148D01*
X246155065Y-71808896D01*
X246162793Y-71787298D01*
X246172601Y-71766561D01*
X246184394Y-71746885D01*
X246198059Y-71728461D01*
X246213464Y-71711464D01*
X246230461Y-71696059D01*
X246248885Y-71682394D01*
X246268561Y-71670601D01*
X246289298Y-71660793D01*
X246310896Y-71653065D01*
X246333148Y-71647491D01*
X246355838Y-71644126D01*
X246378750Y-71643000D01*
X246921250Y-71643000D01*
X246944162Y-71644126D01*
X246944162Y-71644126D01*
G37*
D14*
X246650000Y-72110500D03*
G04 #@! TD*
D13*
G04 #@! TO.C,R12*
G36*
X241342162Y-71378126D02*
X241364852Y-71381491D01*
X241387104Y-71387065D01*
X241408702Y-71394793D01*
X241429439Y-71404601D01*
X241449115Y-71416394D01*
X241467539Y-71430059D01*
X241484536Y-71445464D01*
X241499941Y-71462461D01*
X241513606Y-71480885D01*
X241525399Y-71500561D01*
X241535207Y-71521298D01*
X241542935Y-71542896D01*
X241548509Y-71565148D01*
X241551874Y-71587838D01*
X241553000Y-71610750D01*
X241553000Y-72153250D01*
X241551874Y-72176162D01*
X241548509Y-72198852D01*
X241542935Y-72221104D01*
X241535207Y-72242702D01*
X241525399Y-72263439D01*
X241513606Y-72283115D01*
X241499941Y-72301539D01*
X241484536Y-72318536D01*
X241467539Y-72333941D01*
X241449115Y-72347606D01*
X241429439Y-72359399D01*
X241408702Y-72369207D01*
X241387104Y-72376935D01*
X241364852Y-72382509D01*
X241342162Y-72385874D01*
X241319250Y-72387000D01*
X240851750Y-72387000D01*
X240828838Y-72385874D01*
X240806148Y-72382509D01*
X240783896Y-72376935D01*
X240762298Y-72369207D01*
X240741561Y-72359399D01*
X240721885Y-72347606D01*
X240703461Y-72333941D01*
X240686464Y-72318536D01*
X240671059Y-72301539D01*
X240657394Y-72283115D01*
X240645601Y-72263439D01*
X240635793Y-72242702D01*
X240628065Y-72221104D01*
X240622491Y-72198852D01*
X240619126Y-72176162D01*
X240618000Y-72153250D01*
X240618000Y-71610750D01*
X240619126Y-71587838D01*
X240622491Y-71565148D01*
X240628065Y-71542896D01*
X240635793Y-71521298D01*
X240645601Y-71500561D01*
X240657394Y-71480885D01*
X240671059Y-71462461D01*
X240686464Y-71445464D01*
X240703461Y-71430059D01*
X240721885Y-71416394D01*
X240741561Y-71404601D01*
X240762298Y-71394793D01*
X240783896Y-71387065D01*
X240806148Y-71381491D01*
X240828838Y-71378126D01*
X240851750Y-71377000D01*
X241319250Y-71377000D01*
X241342162Y-71378126D01*
X241342162Y-71378126D01*
G37*
D14*
X241085500Y-71882000D03*
D13*
G36*
X239767162Y-71378126D02*
X239789852Y-71381491D01*
X239812104Y-71387065D01*
X239833702Y-71394793D01*
X239854439Y-71404601D01*
X239874115Y-71416394D01*
X239892539Y-71430059D01*
X239909536Y-71445464D01*
X239924941Y-71462461D01*
X239938606Y-71480885D01*
X239950399Y-71500561D01*
X239960207Y-71521298D01*
X239967935Y-71542896D01*
X239973509Y-71565148D01*
X239976874Y-71587838D01*
X239978000Y-71610750D01*
X239978000Y-72153250D01*
X239976874Y-72176162D01*
X239973509Y-72198852D01*
X239967935Y-72221104D01*
X239960207Y-72242702D01*
X239950399Y-72263439D01*
X239938606Y-72283115D01*
X239924941Y-72301539D01*
X239909536Y-72318536D01*
X239892539Y-72333941D01*
X239874115Y-72347606D01*
X239854439Y-72359399D01*
X239833702Y-72369207D01*
X239812104Y-72376935D01*
X239789852Y-72382509D01*
X239767162Y-72385874D01*
X239744250Y-72387000D01*
X239276750Y-72387000D01*
X239253838Y-72385874D01*
X239231148Y-72382509D01*
X239208896Y-72376935D01*
X239187298Y-72369207D01*
X239166561Y-72359399D01*
X239146885Y-72347606D01*
X239128461Y-72333941D01*
X239111464Y-72318536D01*
X239096059Y-72301539D01*
X239082394Y-72283115D01*
X239070601Y-72263439D01*
X239060793Y-72242702D01*
X239053065Y-72221104D01*
X239047491Y-72198852D01*
X239044126Y-72176162D01*
X239043000Y-72153250D01*
X239043000Y-71610750D01*
X239044126Y-71587838D01*
X239047491Y-71565148D01*
X239053065Y-71542896D01*
X239060793Y-71521298D01*
X239070601Y-71500561D01*
X239082394Y-71480885D01*
X239096059Y-71462461D01*
X239111464Y-71445464D01*
X239128461Y-71430059D01*
X239146885Y-71416394D01*
X239166561Y-71404601D01*
X239187298Y-71394793D01*
X239208896Y-71387065D01*
X239231148Y-71381491D01*
X239253838Y-71378126D01*
X239276750Y-71377000D01*
X239744250Y-71377000D01*
X239767162Y-71378126D01*
X239767162Y-71378126D01*
G37*
D14*
X239510500Y-71882000D03*
G04 #@! TD*
D16*
G04 #@! TO.C,TP8*
X244872000Y-75438000D03*
G04 #@! TD*
D17*
G04 #@! TO.C,J1*
X243000000Y-64000000D03*
G04 #@! TD*
G04 #@! TO.C,J2*
X163000000Y-64000000D03*
G04 #@! TD*
M02*
