M48
;DRILL file {KiCad 5.0.0-fee4fd1~66~ubuntu18.04.1} date Mon Aug 20 14:29:31 2018
;FORMAT={-:-/ absolute / metric / decimal}
FMAT,2
METRIC,TZ
T1C0.300
T2C0.400
T3C0.500
T4C1.000
T5C2.499
%
G90
G05
M71
T1
X161.544Y-70.866
X193.802Y-75.946
X201.422Y-64.516
X224.282Y-70.993
X197.612Y-59.182
X207.898Y-72.898
X162.902Y-56.
X230.376Y-63.5
X216.662Y-68.072
X159.258Y-56.134
X243.84Y-57.912
X226.695Y-73.152
X201.295Y-59.182
X224.409Y-56.007
X179.832Y-73.152
X208.914Y-55.626
X189.992Y-58.928
X216.598Y-62.23
X207.898Y-71.882
X185.674Y-74.93
X220.472Y-56.007
X197.612Y-70.993
X159.Y-54.
X209.93Y-72.898
X176.856Y-58.99
X176.856Y-59.99
X176.856Y-60.99
X176.856Y-61.99
X176.856Y-62.99
X177.856Y-58.99
X177.856Y-59.99
X177.856Y-60.99
X177.856Y-61.99
X177.856Y-62.99
X178.856Y-58.99
X178.856Y-59.99
X178.856Y-60.99
X178.856Y-61.99
X178.856Y-62.99
X179.856Y-58.99
X179.856Y-59.99
X179.856Y-60.99
X179.856Y-61.99
X179.856Y-62.99
X180.856Y-58.99
X180.856Y-59.99
X180.856Y-60.99
X180.856Y-61.99
X180.856Y-62.99
X161.544Y-57.912
X197.612Y-68.072
X220.472Y-62.23
X228.346Y-57.912
X205.232Y-70.993
X194.056Y-59.182
X212.852Y-70.993
X209.93Y-71.882
X226.568Y-55.372
X162.052Y-75.184
X205.232Y-53.34
X246.886Y-54.864
X223.266Y-75.946
X236.474Y-75.946
X205.232Y-73.66
X165.608Y-75.184
X176.53Y-68.326
X208.914Y-54.61
X220.472Y-64.516
X216.408Y-56.007
X193.802Y-53.34
X179.832Y-68.326
X220.345Y-68.072
X228.6Y-53.594
X177.292Y-73.152
X178.816Y-65.532
X209.93Y-54.61
X228.6Y-55.372
X212.725Y-53.213
X236.982Y-59.436
X205.232Y-55.88
X214.312Y-64.516
X180.34Y-56.388
X226.695Y-71.628
X236.982Y-56.896
X209.93Y-55.626
X216.662Y-70.993
X239.014Y-52.07
X220.345Y-53.213
X216.662Y-73.66
X224.282Y-73.66
X224.282Y-64.516
X201.422Y-73.66
X197.612Y-55.88
X220.472Y-73.66
X205.232Y-68.072
X205.232Y-64.516
X216.535Y-53.213
X229.87Y-59.69
X160.Y-52.
X201.422Y-53.34
X193.802Y-73.66
X201.295Y-68.072
X220.472Y-70.993
X246.65Y-75.184
X227.584Y-52.07
X246.886Y-59.436
X205.232Y-59.182
X160.Y-75.438
X233.426Y-59.69
X238.506Y-73.152
X214.756Y-59.182
X195.226Y-64.45
X235.966Y-70.358
X197.612Y-73.66
X213.106Y-59.182
X201.422Y-55.88
X175.26Y-65.532
X228.725Y-73.152
X224.155Y-53.213
X197.612Y-64.516
X205.232Y-75.946
X197.612Y-62.23
X164.338Y-57.912
X208.914Y-71.882
X185.928Y-58.166
X228.725Y-71.628
X220.472Y-58.928
X216.662Y-75.946
X193.802Y-70.993
X212.852Y-73.66
X174.498Y-56.388
X160.Y-73.
X230.376Y-67.818
X231.648Y-65.786
X189.738Y-72.644
X246.634Y-52.578
X201.422Y-70.993
X216.535Y-58.928
X233.172Y-75.946
X247.142Y-70.866
X207.898Y-55.626
X194.056Y-68.072
X224.409Y-58.928
X197.612Y-53.34
X216.916Y-64.516
X208.914Y-72.898
X165.354Y-70.866
X240.792Y-57.404
X184.912Y-69.596
X193.802Y-55.88
X243.856Y-72.898
X226.568Y-53.594
X246.632Y-68.326
X201.422Y-62.23
X191.262Y-58.166
X214.63Y-52.07
X212.852Y-68.072
X233.172Y-65.024
X207.898Y-54.61
X212.725Y-56.007
X211.708Y-59.182
X224.282Y-68.072
X243.84Y-52.324
T2
X175.006Y-67.818
X182.626Y-69.088
X183.642Y-58.42
X184.912Y-57.785
X185.674Y-72.39
X187.452Y-71.12
X188.976Y-61.976
X188.976Y-63.246
X188.976Y-64.77
X188.976Y-66.04
X188.976Y-67.31
X188.976Y-68.58
X189.992Y-68.834
X190.5Y-67.818
X195.326Y-62.367
X205.232Y-62.484
X206.502Y-58.42
X207.962Y-66.548
X209.74Y-65.786
X209.804Y-67.31
X214.081Y-62.926
X224.028Y-62.992
X229.219Y-61.214
X232.41Y-62.484
X233.426Y-62.23
X237.777Y-72.005
X238.5Y-69.941
T3
X171.45Y-54.61
X210.058Y-58.928
X227.709Y-54.61
X227.709Y-72.39
X228.675Y-60.094
X234.851Y-63.274
T4
X173.482Y-74.93
X176.022Y-74.93
X178.562Y-74.93
X181.102Y-74.93
X183.642Y-74.93
T5
X243.Y-64.
X163.Y-64.
T0
M30
