G04 #@! TF.GenerationSoftware,KiCad,Pcbnew,5.0.0-fee4fd1~66~ubuntu18.04.1*
G04 #@! TF.CreationDate,2018-08-20T14:29:34+02:00*
G04 #@! TF.ProjectId,ESP32-li-ion-cell-monitor,45535033322D6C692D696F6E2D63656C,1.3*
G04 #@! TF.SameCoordinates,Original*
G04 #@! TF.FileFunction,Legend,Top*
G04 #@! TF.FilePolarity,Positive*
%FSLAX46Y46*%
G04 Gerber Fmt 4.6, Leading zero omitted, Abs format (unit mm)*
G04 Created by KiCad (PCBNEW 5.0.0-fee4fd1~66~ubuntu18.04.1) date Mon Aug 20 14:29:34 2018*
%MOMM*%
%LPD*%
G01*
G04 APERTURE LIST*
%ADD10C,0.500000*%
%ADD11C,0.120000*%
%ADD12C,0.050000*%
%ADD13C,0.100000*%
%ADD14C,0.150000*%
G04 APERTURE END LIST*
D10*
X163214285Y-59142857D02*
X163214285Y-56857142D01*
X241857142Y-58214285D02*
X244142857Y-58214285D01*
X243000000Y-59357142D02*
X243000000Y-57071428D01*
X163214285Y-71142857D02*
X163214285Y-68857142D01*
X241857142Y-69214285D02*
X244142857Y-69214285D01*
X243000000Y-70357142D02*
X243000000Y-68071428D01*
D11*
G04 #@! TO.C,TP9*
X230189000Y-62484000D02*
G75*
G03X230189000Y-62484000I-700000J0D01*
G01*
G04 #@! TO.C,J3*
X184912000Y-73660000D02*
X184912000Y-74930000D01*
X183642000Y-73660000D02*
X184912000Y-73660000D01*
X173102000Y-75972929D02*
X173102000Y-76370000D01*
X173862000Y-75972929D02*
X173862000Y-76370000D01*
X173102000Y-85030000D02*
X173102000Y-79030000D01*
X173862000Y-85030000D02*
X173102000Y-85030000D01*
X173862000Y-79030000D02*
X173862000Y-85030000D01*
X174752000Y-76370000D02*
X174752000Y-79030000D01*
X175642000Y-75972929D02*
X175642000Y-76370000D01*
X176402000Y-75972929D02*
X176402000Y-76370000D01*
X175642000Y-85030000D02*
X175642000Y-79030000D01*
X176402000Y-85030000D02*
X175642000Y-85030000D01*
X176402000Y-79030000D02*
X176402000Y-85030000D01*
X177292000Y-76370000D02*
X177292000Y-79030000D01*
X178182000Y-75972929D02*
X178182000Y-76370000D01*
X178942000Y-75972929D02*
X178942000Y-76370000D01*
X178182000Y-85030000D02*
X178182000Y-79030000D01*
X178942000Y-85030000D02*
X178182000Y-85030000D01*
X178942000Y-79030000D02*
X178942000Y-85030000D01*
X179832000Y-76370000D02*
X179832000Y-79030000D01*
X180722000Y-75972929D02*
X180722000Y-76370000D01*
X181482000Y-75972929D02*
X181482000Y-76370000D01*
X180722000Y-85030000D02*
X180722000Y-79030000D01*
X181482000Y-85030000D02*
X180722000Y-85030000D01*
X181482000Y-79030000D02*
X181482000Y-85030000D01*
X182372000Y-76370000D02*
X182372000Y-79030000D01*
X183262000Y-76040000D02*
X183262000Y-76370000D01*
X184022000Y-76040000D02*
X184022000Y-76370000D01*
X183362000Y-79030000D02*
X183362000Y-85030000D01*
X183482000Y-79030000D02*
X183482000Y-85030000D01*
X183602000Y-79030000D02*
X183602000Y-85030000D01*
X183722000Y-79030000D02*
X183722000Y-85030000D01*
X183842000Y-79030000D02*
X183842000Y-85030000D01*
X183962000Y-79030000D02*
X183962000Y-85030000D01*
X183262000Y-85030000D02*
X183262000Y-79030000D01*
X184022000Y-85030000D02*
X183262000Y-85030000D01*
X184022000Y-79030000D02*
X184022000Y-85030000D01*
X184972000Y-79030000D02*
X184972000Y-76370000D01*
X172152000Y-79030000D02*
X184972000Y-79030000D01*
X172152000Y-76370000D02*
X172152000Y-79030000D01*
X184972000Y-76370000D02*
X172152000Y-76370000D01*
D12*
G04 #@! TO.C,U2*
X187556000Y-71290000D02*
X169556000Y-71290000D01*
X187556000Y-51790000D02*
X187556000Y-71290000D01*
X169556000Y-51790000D02*
X187556000Y-51790000D01*
X169556000Y-71290000D02*
X169556000Y-51790000D01*
X171259605Y-53256000D02*
G75*
G03X171259605Y-53256000I-179605J0D01*
G01*
D11*
G04 #@! TO.C,U4*
X210652000Y-64400000D02*
X210652000Y-62600000D01*
X207432000Y-62600000D02*
X207432000Y-65050000D01*
G04 #@! TO.C,C1*
X166064000Y-53132017D02*
X166064000Y-53547983D01*
X164644000Y-53132017D02*
X164644000Y-53547983D01*
G04 #@! TO.C,C4*
X233009221Y-68836000D02*
X233334779Y-68836000D01*
X233009221Y-67816000D02*
X233334779Y-67816000D01*
G04 #@! TO.C,C5*
X231088000Y-65324017D02*
X231088000Y-65739983D01*
X229668000Y-65324017D02*
X229668000Y-65739983D01*
G04 #@! TO.C,C6*
X229110000Y-65369221D02*
X229110000Y-65694779D01*
X228090000Y-65369221D02*
X228090000Y-65694779D01*
G04 #@! TO.C,Q1*
X196086000Y-65080000D02*
X194626000Y-65080000D01*
X196086000Y-61920000D02*
X193926000Y-61920000D01*
X196086000Y-61920000D02*
X196086000Y-62850000D01*
X196086000Y-65080000D02*
X196086000Y-64150000D01*
G04 #@! TO.C,Q2*
X205992000Y-65080000D02*
X205992000Y-64150000D01*
X205992000Y-61920000D02*
X205992000Y-62850000D01*
X205992000Y-61920000D02*
X203832000Y-61920000D01*
X205992000Y-65080000D02*
X204532000Y-65080000D01*
G04 #@! TO.C,Q3*
X215072000Y-65080000D02*
X215072000Y-64150000D01*
X215072000Y-61920000D02*
X215072000Y-62850000D01*
X215072000Y-61920000D02*
X212912000Y-61920000D01*
X215072000Y-65080000D02*
X213612000Y-65080000D01*
G04 #@! TO.C,Q4*
X225042000Y-65080000D02*
X223582000Y-65080000D01*
X225042000Y-61920000D02*
X222882000Y-61920000D01*
X225042000Y-61920000D02*
X225042000Y-62850000D01*
X225042000Y-65080000D02*
X225042000Y-64150000D01*
G04 #@! TO.C,C2*
X232876017Y-69394000D02*
X233291983Y-69394000D01*
X232876017Y-70814000D02*
X233291983Y-70814000D01*
G04 #@! TO.C,C3*
X167642000Y-53177221D02*
X167642000Y-53502779D01*
X166622000Y-53177221D02*
X166622000Y-53502779D01*
G04 #@! TO.C,R1*
X166622000Y-56550779D02*
X166622000Y-56225221D01*
X167642000Y-56550779D02*
X167642000Y-56225221D01*
G04 #@! TO.C,C7*
X234698000Y-57241221D02*
X234698000Y-57566779D01*
X233678000Y-57241221D02*
X233678000Y-57566779D01*
G04 #@! TO.C,C8*
X209133221Y-61216000D02*
X209458779Y-61216000D01*
X209133221Y-60196000D02*
X209458779Y-60196000D01*
G04 #@! TO.C,D1*
X230972000Y-71136000D02*
X230972000Y-73136000D01*
X230972000Y-73136000D02*
X234822000Y-73136000D01*
X230972000Y-71136000D02*
X234822000Y-71136000D01*
G04 #@! TO.C,D2*
X231018000Y-73064000D02*
X231018000Y-74764000D01*
X231018000Y-74764000D02*
X234168000Y-74764000D01*
X231018000Y-73064000D02*
X234168000Y-73064000D01*
G04 #@! TO.C,R2*
X192092000Y-71394064D02*
X192092000Y-67289936D01*
X195512000Y-71394064D02*
X195512000Y-67289936D01*
G04 #@! TO.C,R3*
X199322000Y-71394064D02*
X199322000Y-67289936D01*
X195902000Y-71394064D02*
X195902000Y-67289936D01*
G04 #@! TO.C,R4*
X195512000Y-55605936D02*
X195512000Y-59710064D01*
X192092000Y-55605936D02*
X192092000Y-59710064D01*
G04 #@! TO.C,R5*
X231246936Y-55177000D02*
X235351064Y-55177000D01*
X231246936Y-51757000D02*
X235351064Y-51757000D01*
G04 #@! TO.C,R6*
X195902000Y-55605936D02*
X195902000Y-59710064D01*
X199322000Y-55605936D02*
X199322000Y-59710064D01*
G04 #@! TO.C,R7*
X214434000Y-71394064D02*
X214434000Y-67289936D01*
X211014000Y-71394064D02*
X211014000Y-67289936D01*
G04 #@! TO.C,R8*
X218244000Y-71394064D02*
X218244000Y-67289936D01*
X214824000Y-71394064D02*
X214824000Y-67289936D01*
G04 #@! TO.C,R9*
X214434000Y-55605936D02*
X214434000Y-59710064D01*
X211014000Y-55605936D02*
X211014000Y-59710064D01*
G04 #@! TO.C,R11*
X218244000Y-55605936D02*
X218244000Y-59710064D01*
X214824000Y-55605936D02*
X214824000Y-59710064D01*
G04 #@! TO.C,U1*
X234782000Y-66686000D02*
X234782000Y-64886000D01*
X231562000Y-64886000D02*
X231562000Y-67336000D01*
G04 #@! TO.C,U3*
X233298000Y-60228000D02*
X233098000Y-60228000D01*
X230548000Y-60228000D02*
X230548000Y-60628000D01*
X230448000Y-60228000D02*
X230548000Y-60228000D01*
X230448000Y-57628000D02*
X230448000Y-60228000D01*
X230648000Y-57628000D02*
X230448000Y-57628000D01*
X233298000Y-57628000D02*
X233098000Y-57628000D01*
X233298000Y-60228000D02*
X233298000Y-57628000D01*
G04 #@! TO.C,TP1*
X163514000Y-54102000D02*
G75*
G03X163514000Y-54102000I-700000J0D01*
G01*
G04 #@! TO.C,TP2*
X160974000Y-74422000D02*
G75*
G03X160974000Y-74422000I-700000J0D01*
G01*
G04 #@! TO.C,TP3*
X171388000Y-74930000D02*
G75*
G03X171388000Y-74930000I-700000J0D01*
G01*
G04 #@! TO.C,TP4*
X188406000Y-73914000D02*
G75*
G03X188406000Y-73914000I-700000J0D01*
G01*
G04 #@! TO.C,TP5*
X219267000Y-52197000D02*
G75*
G03X219267000Y-52197000I-700000J0D01*
G01*
G04 #@! TO.C,TP6*
X241746000Y-53594000D02*
G75*
G03X241746000Y-53594000I-700000J0D01*
G01*
G04 #@! TO.C,TP7*
X208218000Y-59182000D02*
G75*
G03X208218000Y-59182000I-700000J0D01*
G01*
G04 #@! TO.C,R13*
X193296000Y-63916779D02*
X193296000Y-63591221D01*
X192276000Y-63916779D02*
X192276000Y-63591221D01*
G04 #@! TO.C,R14*
X202182000Y-63916779D02*
X202182000Y-63591221D01*
X203202000Y-63916779D02*
X203202000Y-63591221D01*
G04 #@! TO.C,R15*
X212282000Y-63942279D02*
X212282000Y-63616721D01*
X211262000Y-63942279D02*
X211262000Y-63616721D01*
G04 #@! TO.C,R16*
X221232000Y-63916779D02*
X221232000Y-63591221D01*
X222252000Y-63916779D02*
X222252000Y-63591221D01*
G04 #@! TO.C,R17*
X199712000Y-71394064D02*
X199712000Y-67289936D01*
X203132000Y-71394064D02*
X203132000Y-67289936D01*
G04 #@! TO.C,R18*
X199712000Y-55605936D02*
X199712000Y-59710064D01*
X203132000Y-55605936D02*
X203132000Y-59710064D01*
G04 #@! TO.C,R19*
X218698000Y-71394064D02*
X218698000Y-67289936D01*
X222118000Y-71394064D02*
X222118000Y-67289936D01*
G04 #@! TO.C,R20*
X218698000Y-55605936D02*
X218698000Y-59710064D01*
X222118000Y-55605936D02*
X222118000Y-59710064D01*
G04 #@! TO.C,R21*
X206942000Y-71394064D02*
X206942000Y-67289936D01*
X203522000Y-71394064D02*
X203522000Y-67289936D01*
G04 #@! TO.C,R22*
X206942000Y-55605936D02*
X206942000Y-59710064D01*
X203522000Y-55605936D02*
X203522000Y-59710064D01*
G04 #@! TO.C,R23*
X225992000Y-71394064D02*
X225992000Y-67289936D01*
X222572000Y-71394064D02*
X222572000Y-67289936D01*
G04 #@! TO.C,R24*
X225992000Y-55605936D02*
X225992000Y-59710064D01*
X222572000Y-55605936D02*
X222572000Y-59710064D01*
G04 #@! TO.C,TP9*
D13*
X228605666Y-61084666D02*
X229005666Y-61084666D01*
X228805666Y-61784666D02*
X228805666Y-61084666D01*
X229239000Y-61784666D02*
X229239000Y-61084666D01*
X229505666Y-61084666D01*
X229572333Y-61118000D01*
X229605666Y-61151333D01*
X229639000Y-61218000D01*
X229639000Y-61318000D01*
X229605666Y-61384666D01*
X229572333Y-61418000D01*
X229505666Y-61451333D01*
X229239000Y-61451333D01*
X229972333Y-61784666D02*
X230105666Y-61784666D01*
X230172333Y-61751333D01*
X230205666Y-61718000D01*
X230272333Y-61618000D01*
X230305666Y-61484666D01*
X230305666Y-61218000D01*
X230272333Y-61151333D01*
X230239000Y-61118000D01*
X230172333Y-61084666D01*
X230039000Y-61084666D01*
X229972333Y-61118000D01*
X229939000Y-61151333D01*
X229905666Y-61218000D01*
X229905666Y-61384666D01*
X229939000Y-61451333D01*
X229972333Y-61484666D01*
X230039000Y-61518000D01*
X230172333Y-61518000D01*
X230239000Y-61484666D01*
X230272333Y-61451333D01*
X230305666Y-61384666D01*
G04 #@! TO.C,J3*
D14*
X184952380Y-75333333D02*
X185666666Y-75333333D01*
X185809523Y-75380952D01*
X185904761Y-75476190D01*
X185952380Y-75619047D01*
X185952380Y-75714285D01*
X184952380Y-74952380D02*
X184952380Y-74333333D01*
X185333333Y-74666666D01*
X185333333Y-74523809D01*
X185380952Y-74428571D01*
X185428571Y-74380952D01*
X185523809Y-74333333D01*
X185761904Y-74333333D01*
X185857142Y-74380952D01*
X185904761Y-74428571D01*
X185952380Y-74523809D01*
X185952380Y-74809523D01*
X185904761Y-74904761D01*
X185857142Y-74952380D01*
G04 #@! TO.C,U2*
D13*
X186023971Y-71563685D02*
X186023971Y-72170828D01*
X186059685Y-72242257D01*
X186095400Y-72277971D01*
X186166828Y-72313685D01*
X186309685Y-72313685D01*
X186381114Y-72277971D01*
X186416828Y-72242257D01*
X186452542Y-72170828D01*
X186452542Y-71563685D01*
X186773971Y-71635114D02*
X186809685Y-71599400D01*
X186881114Y-71563685D01*
X187059685Y-71563685D01*
X187131114Y-71599400D01*
X187166828Y-71635114D01*
X187202542Y-71706542D01*
X187202542Y-71777971D01*
X187166828Y-71885114D01*
X186738257Y-72313685D01*
X187202542Y-72313685D01*
G04 #@! TO.C,U4*
D14*
X208153095Y-65619380D02*
X208153095Y-66428904D01*
X208200714Y-66524142D01*
X208248333Y-66571761D01*
X208343571Y-66619380D01*
X208534047Y-66619380D01*
X208629285Y-66571761D01*
X208676904Y-66524142D01*
X208724523Y-66428904D01*
X208724523Y-65619380D01*
X209629285Y-65952714D02*
X209629285Y-66619380D01*
X209391190Y-65571761D02*
X209153095Y-66286047D01*
X209772142Y-66286047D01*
G04 #@! TO.C,C1*
X165711142Y-56166666D02*
X165758761Y-56214285D01*
X165806380Y-56357142D01*
X165806380Y-56452380D01*
X165758761Y-56595238D01*
X165663523Y-56690476D01*
X165568285Y-56738095D01*
X165377809Y-56785714D01*
X165234952Y-56785714D01*
X165044476Y-56738095D01*
X164949238Y-56690476D01*
X164854000Y-56595238D01*
X164806380Y-56452380D01*
X164806380Y-56357142D01*
X164854000Y-56214285D01*
X164901619Y-56166666D01*
X165806380Y-55214285D02*
X165806380Y-55785714D01*
X165806380Y-55500000D02*
X164806380Y-55500000D01*
X164949238Y-55595238D01*
X165044476Y-55690476D01*
X165092095Y-55785714D01*
G04 #@! TO.C,C4*
X235545333Y-68683142D02*
X235497714Y-68730761D01*
X235354857Y-68778380D01*
X235259619Y-68778380D01*
X235116761Y-68730761D01*
X235021523Y-68635523D01*
X234973904Y-68540285D01*
X234926285Y-68349809D01*
X234926285Y-68206952D01*
X234973904Y-68016476D01*
X235021523Y-67921238D01*
X235116761Y-67826000D01*
X235259619Y-67778380D01*
X235354857Y-67778380D01*
X235497714Y-67826000D01*
X235545333Y-67873619D01*
X236402476Y-68111714D02*
X236402476Y-68778380D01*
X236164380Y-67730761D02*
X235926285Y-68445047D01*
X236545333Y-68445047D01*
G04 #@! TO.C,C5*
X230735142Y-68238666D02*
X230782761Y-68286285D01*
X230830380Y-68429142D01*
X230830380Y-68524380D01*
X230782761Y-68667238D01*
X230687523Y-68762476D01*
X230592285Y-68810095D01*
X230401809Y-68857714D01*
X230258952Y-68857714D01*
X230068476Y-68810095D01*
X229973238Y-68762476D01*
X229878000Y-68667238D01*
X229830380Y-68524380D01*
X229830380Y-68429142D01*
X229878000Y-68286285D01*
X229925619Y-68238666D01*
X229830380Y-67333904D02*
X229830380Y-67810095D01*
X230306571Y-67857714D01*
X230258952Y-67810095D01*
X230211333Y-67714857D01*
X230211333Y-67476761D01*
X230258952Y-67381523D01*
X230306571Y-67333904D01*
X230401809Y-67286285D01*
X230639904Y-67286285D01*
X230735142Y-67333904D01*
X230782761Y-67381523D01*
X230830380Y-67476761D01*
X230830380Y-67714857D01*
X230782761Y-67810095D01*
X230735142Y-67857714D01*
G04 #@! TO.C,C6*
X229084142Y-68238666D02*
X229131761Y-68286285D01*
X229179380Y-68429142D01*
X229179380Y-68524380D01*
X229131761Y-68667238D01*
X229036523Y-68762476D01*
X228941285Y-68810095D01*
X228750809Y-68857714D01*
X228607952Y-68857714D01*
X228417476Y-68810095D01*
X228322238Y-68762476D01*
X228227000Y-68667238D01*
X228179380Y-68524380D01*
X228179380Y-68429142D01*
X228227000Y-68286285D01*
X228274619Y-68238666D01*
X228179380Y-67381523D02*
X228179380Y-67572000D01*
X228227000Y-67667238D01*
X228274619Y-67714857D01*
X228417476Y-67810095D01*
X228607952Y-67857714D01*
X228988904Y-67857714D01*
X229084142Y-67810095D01*
X229131761Y-67762476D01*
X229179380Y-67667238D01*
X229179380Y-67476761D01*
X229131761Y-67381523D01*
X229084142Y-67333904D01*
X228988904Y-67286285D01*
X228750809Y-67286285D01*
X228655571Y-67333904D01*
X228607952Y-67381523D01*
X228560333Y-67476761D01*
X228560333Y-67667238D01*
X228607952Y-67762476D01*
X228655571Y-67810095D01*
X228750809Y-67857714D01*
G04 #@! TO.C,Q1*
X195992761Y-63031619D02*
X195897523Y-62984000D01*
X195802285Y-62888761D01*
X195659428Y-62745904D01*
X195564190Y-62698285D01*
X195468952Y-62698285D01*
X195516571Y-62936380D02*
X195421333Y-62888761D01*
X195326095Y-62793523D01*
X195278476Y-62603047D01*
X195278476Y-62269714D01*
X195326095Y-62079238D01*
X195421333Y-61984000D01*
X195516571Y-61936380D01*
X195707047Y-61936380D01*
X195802285Y-61984000D01*
X195897523Y-62079238D01*
X195945142Y-62269714D01*
X195945142Y-62603047D01*
X195897523Y-62793523D01*
X195802285Y-62888761D01*
X195707047Y-62936380D01*
X195516571Y-62936380D01*
X196897523Y-62936380D02*
X196326095Y-62936380D01*
X196611809Y-62936380D02*
X196611809Y-61936380D01*
X196516571Y-62079238D01*
X196421333Y-62174476D01*
X196326095Y-62222095D01*
G04 #@! TO.C,Q2*
X205898761Y-63031619D02*
X205803523Y-62984000D01*
X205708285Y-62888761D01*
X205565428Y-62745904D01*
X205470190Y-62698285D01*
X205374952Y-62698285D01*
X205422571Y-62936380D02*
X205327333Y-62888761D01*
X205232095Y-62793523D01*
X205184476Y-62603047D01*
X205184476Y-62269714D01*
X205232095Y-62079238D01*
X205327333Y-61984000D01*
X205422571Y-61936380D01*
X205613047Y-61936380D01*
X205708285Y-61984000D01*
X205803523Y-62079238D01*
X205851142Y-62269714D01*
X205851142Y-62603047D01*
X205803523Y-62793523D01*
X205708285Y-62888761D01*
X205613047Y-62936380D01*
X205422571Y-62936380D01*
X206232095Y-62031619D02*
X206279714Y-61984000D01*
X206374952Y-61936380D01*
X206613047Y-61936380D01*
X206708285Y-61984000D01*
X206755904Y-62031619D01*
X206803523Y-62126857D01*
X206803523Y-62222095D01*
X206755904Y-62364952D01*
X206184476Y-62936380D01*
X206803523Y-62936380D01*
G04 #@! TO.C,Q3*
X214978761Y-63031619D02*
X214883523Y-62984000D01*
X214788285Y-62888761D01*
X214645428Y-62745904D01*
X214550190Y-62698285D01*
X214454952Y-62698285D01*
X214502571Y-62936380D02*
X214407333Y-62888761D01*
X214312095Y-62793523D01*
X214264476Y-62603047D01*
X214264476Y-62269714D01*
X214312095Y-62079238D01*
X214407333Y-61984000D01*
X214502571Y-61936380D01*
X214693047Y-61936380D01*
X214788285Y-61984000D01*
X214883523Y-62079238D01*
X214931142Y-62269714D01*
X214931142Y-62603047D01*
X214883523Y-62793523D01*
X214788285Y-62888761D01*
X214693047Y-62936380D01*
X214502571Y-62936380D01*
X215264476Y-61936380D02*
X215883523Y-61936380D01*
X215550190Y-62317333D01*
X215693047Y-62317333D01*
X215788285Y-62364952D01*
X215835904Y-62412571D01*
X215883523Y-62507809D01*
X215883523Y-62745904D01*
X215835904Y-62841142D01*
X215788285Y-62888761D01*
X215693047Y-62936380D01*
X215407333Y-62936380D01*
X215312095Y-62888761D01*
X215264476Y-62841142D01*
G04 #@! TO.C,Q4*
X224948761Y-63031619D02*
X224853523Y-62984000D01*
X224758285Y-62888761D01*
X224615428Y-62745904D01*
X224520190Y-62698285D01*
X224424952Y-62698285D01*
X224472571Y-62936380D02*
X224377333Y-62888761D01*
X224282095Y-62793523D01*
X224234476Y-62603047D01*
X224234476Y-62269714D01*
X224282095Y-62079238D01*
X224377333Y-61984000D01*
X224472571Y-61936380D01*
X224663047Y-61936380D01*
X224758285Y-61984000D01*
X224853523Y-62079238D01*
X224901142Y-62269714D01*
X224901142Y-62603047D01*
X224853523Y-62793523D01*
X224758285Y-62888761D01*
X224663047Y-62936380D01*
X224472571Y-62936380D01*
X225758285Y-62269714D02*
X225758285Y-62936380D01*
X225520190Y-61888761D02*
X225282095Y-62603047D01*
X225901142Y-62603047D01*
G04 #@! TO.C,C2*
X235711333Y-70461142D02*
X235663714Y-70508761D01*
X235520857Y-70556380D01*
X235425619Y-70556380D01*
X235282761Y-70508761D01*
X235187523Y-70413523D01*
X235139904Y-70318285D01*
X235092285Y-70127809D01*
X235092285Y-69984952D01*
X235139904Y-69794476D01*
X235187523Y-69699238D01*
X235282761Y-69604000D01*
X235425619Y-69556380D01*
X235520857Y-69556380D01*
X235663714Y-69604000D01*
X235711333Y-69651619D01*
X236092285Y-69651619D02*
X236139904Y-69604000D01*
X236235142Y-69556380D01*
X236473238Y-69556380D01*
X236568476Y-69604000D01*
X236616095Y-69651619D01*
X236663714Y-69746857D01*
X236663714Y-69842095D01*
X236616095Y-69984952D01*
X236044666Y-70556380D01*
X236663714Y-70556380D01*
G04 #@! TO.C,C3*
X168833333Y-52357142D02*
X168785714Y-52404761D01*
X168642857Y-52452380D01*
X168547619Y-52452380D01*
X168404761Y-52404761D01*
X168309523Y-52309523D01*
X168261904Y-52214285D01*
X168214285Y-52023809D01*
X168214285Y-51880952D01*
X168261904Y-51690476D01*
X168309523Y-51595238D01*
X168404761Y-51500000D01*
X168547619Y-51452380D01*
X168642857Y-51452380D01*
X168785714Y-51500000D01*
X168833333Y-51547619D01*
X169166666Y-51452380D02*
X169785714Y-51452380D01*
X169452380Y-51833333D01*
X169595238Y-51833333D01*
X169690476Y-51880952D01*
X169738095Y-51928571D01*
X169785714Y-52023809D01*
X169785714Y-52261904D01*
X169738095Y-52357142D01*
X169690476Y-52404761D01*
X169595238Y-52452380D01*
X169309523Y-52452380D01*
X169214285Y-52404761D01*
X169166666Y-52357142D01*
G04 #@! TO.C,R1*
X167584380Y-58993166D02*
X167108190Y-59326500D01*
X167584380Y-59564595D02*
X166584380Y-59564595D01*
X166584380Y-59183642D01*
X166632000Y-59088404D01*
X166679619Y-59040785D01*
X166774857Y-58993166D01*
X166917714Y-58993166D01*
X167012952Y-59040785D01*
X167060571Y-59088404D01*
X167108190Y-59183642D01*
X167108190Y-59564595D01*
X167584380Y-58040785D02*
X167584380Y-58612214D01*
X167584380Y-58326500D02*
X166584380Y-58326500D01*
X166727238Y-58421738D01*
X166822476Y-58516976D01*
X166870095Y-58612214D01*
G04 #@! TO.C,C7*
X235975142Y-57570666D02*
X236022761Y-57618285D01*
X236070380Y-57761142D01*
X236070380Y-57856380D01*
X236022761Y-57999238D01*
X235927523Y-58094476D01*
X235832285Y-58142095D01*
X235641809Y-58189714D01*
X235498952Y-58189714D01*
X235308476Y-58142095D01*
X235213238Y-58094476D01*
X235118000Y-57999238D01*
X235070380Y-57856380D01*
X235070380Y-57761142D01*
X235118000Y-57618285D01*
X235165619Y-57570666D01*
X235070380Y-57237333D02*
X235070380Y-56570666D01*
X236070380Y-56999238D01*
G04 #@! TO.C,C8*
X209383333Y-59633142D02*
X209335714Y-59680761D01*
X209192857Y-59728380D01*
X209097619Y-59728380D01*
X208954761Y-59680761D01*
X208859523Y-59585523D01*
X208811904Y-59490285D01*
X208764285Y-59299809D01*
X208764285Y-59156952D01*
X208811904Y-58966476D01*
X208859523Y-58871238D01*
X208954761Y-58776000D01*
X209097619Y-58728380D01*
X209192857Y-58728380D01*
X209335714Y-58776000D01*
X209383333Y-58823619D01*
X209954761Y-59156952D02*
X209859523Y-59109333D01*
X209811904Y-59061714D01*
X209764285Y-58966476D01*
X209764285Y-58918857D01*
X209811904Y-58823619D01*
X209859523Y-58776000D01*
X209954761Y-58728380D01*
X210145238Y-58728380D01*
X210240476Y-58776000D01*
X210288095Y-58823619D01*
X210335714Y-58918857D01*
X210335714Y-58966476D01*
X210288095Y-59061714D01*
X210240476Y-59109333D01*
X210145238Y-59156952D01*
X209954761Y-59156952D01*
X209859523Y-59204571D01*
X209811904Y-59252190D01*
X209764285Y-59347428D01*
X209764285Y-59537904D01*
X209811904Y-59633142D01*
X209859523Y-59680761D01*
X209954761Y-59728380D01*
X210145238Y-59728380D01*
X210240476Y-59680761D01*
X210288095Y-59633142D01*
X210335714Y-59537904D01*
X210335714Y-59347428D01*
X210288095Y-59252190D01*
X210240476Y-59204571D01*
X210145238Y-59156952D01*
G04 #@! TO.C,D1*
X235735904Y-72588380D02*
X235735904Y-71588380D01*
X235974000Y-71588380D01*
X236116857Y-71636000D01*
X236212095Y-71731238D01*
X236259714Y-71826476D01*
X236307333Y-72016952D01*
X236307333Y-72159809D01*
X236259714Y-72350285D01*
X236212095Y-72445523D01*
X236116857Y-72540761D01*
X235974000Y-72588380D01*
X235735904Y-72588380D01*
X237259714Y-72588380D02*
X236688285Y-72588380D01*
X236974000Y-72588380D02*
X236974000Y-71588380D01*
X236878761Y-71731238D01*
X236783523Y-71826476D01*
X236688285Y-71874095D01*
G04 #@! TO.C,D2*
X235481904Y-74366380D02*
X235481904Y-73366380D01*
X235720000Y-73366380D01*
X235862857Y-73414000D01*
X235958095Y-73509238D01*
X236005714Y-73604476D01*
X236053333Y-73794952D01*
X236053333Y-73937809D01*
X236005714Y-74128285D01*
X235958095Y-74223523D01*
X235862857Y-74318761D01*
X235720000Y-74366380D01*
X235481904Y-74366380D01*
X236434285Y-73461619D02*
X236481904Y-73414000D01*
X236577142Y-73366380D01*
X236815238Y-73366380D01*
X236910476Y-73414000D01*
X236958095Y-73461619D01*
X237005714Y-73556857D01*
X237005714Y-73652095D01*
X236958095Y-73794952D01*
X236386666Y-74366380D01*
X237005714Y-74366380D01*
G04 #@! TO.C,R2*
X194232380Y-69342666D02*
X193756190Y-69676000D01*
X194232380Y-69914095D02*
X193232380Y-69914095D01*
X193232380Y-69533142D01*
X193280000Y-69437904D01*
X193327619Y-69390285D01*
X193422857Y-69342666D01*
X193565714Y-69342666D01*
X193660952Y-69390285D01*
X193708571Y-69437904D01*
X193756190Y-69533142D01*
X193756190Y-69914095D01*
X193327619Y-68961714D02*
X193280000Y-68914095D01*
X193232380Y-68818857D01*
X193232380Y-68580761D01*
X193280000Y-68485523D01*
X193327619Y-68437904D01*
X193422857Y-68390285D01*
X193518095Y-68390285D01*
X193660952Y-68437904D01*
X194232380Y-69009333D01*
X194232380Y-68390285D01*
G04 #@! TO.C,R3*
X197978380Y-69508666D02*
X197502190Y-69842000D01*
X197978380Y-70080095D02*
X196978380Y-70080095D01*
X196978380Y-69699142D01*
X197026000Y-69603904D01*
X197073619Y-69556285D01*
X197168857Y-69508666D01*
X197311714Y-69508666D01*
X197406952Y-69556285D01*
X197454571Y-69603904D01*
X197502190Y-69699142D01*
X197502190Y-70080095D01*
X196978380Y-69175333D02*
X196978380Y-68556285D01*
X197359333Y-68889619D01*
X197359333Y-68746761D01*
X197406952Y-68651523D01*
X197454571Y-68603904D01*
X197549809Y-68556285D01*
X197787904Y-68556285D01*
X197883142Y-68603904D01*
X197930761Y-68651523D01*
X197978380Y-68746761D01*
X197978380Y-69032476D01*
X197930761Y-69127714D01*
X197883142Y-69175333D01*
G04 #@! TO.C,R4*
X194150380Y-57990666D02*
X193674190Y-58324000D01*
X194150380Y-58562095D02*
X193150380Y-58562095D01*
X193150380Y-58181142D01*
X193198000Y-58085904D01*
X193245619Y-58038285D01*
X193340857Y-57990666D01*
X193483714Y-57990666D01*
X193578952Y-58038285D01*
X193626571Y-58085904D01*
X193674190Y-58181142D01*
X193674190Y-58562095D01*
X193483714Y-57133523D02*
X194150380Y-57133523D01*
X193102761Y-57371619D02*
X193817047Y-57609714D01*
X193817047Y-56990666D01*
G04 #@! TO.C,R5*
X233132333Y-54046380D02*
X232799000Y-53570190D01*
X232560904Y-54046380D02*
X232560904Y-53046380D01*
X232941857Y-53046380D01*
X233037095Y-53094000D01*
X233084714Y-53141619D01*
X233132333Y-53236857D01*
X233132333Y-53379714D01*
X233084714Y-53474952D01*
X233037095Y-53522571D01*
X232941857Y-53570190D01*
X232560904Y-53570190D01*
X234037095Y-53046380D02*
X233560904Y-53046380D01*
X233513285Y-53522571D01*
X233560904Y-53474952D01*
X233656142Y-53427333D01*
X233894238Y-53427333D01*
X233989476Y-53474952D01*
X234037095Y-53522571D01*
X234084714Y-53617809D01*
X234084714Y-53855904D01*
X234037095Y-53951142D01*
X233989476Y-53998761D01*
X233894238Y-54046380D01*
X233656142Y-54046380D01*
X233560904Y-53998761D01*
X233513285Y-53951142D01*
G04 #@! TO.C,R6*
X198024380Y-57736666D02*
X197548190Y-58070000D01*
X198024380Y-58308095D02*
X197024380Y-58308095D01*
X197024380Y-57927142D01*
X197072000Y-57831904D01*
X197119619Y-57784285D01*
X197214857Y-57736666D01*
X197357714Y-57736666D01*
X197452952Y-57784285D01*
X197500571Y-57831904D01*
X197548190Y-57927142D01*
X197548190Y-58308095D01*
X197024380Y-56879523D02*
X197024380Y-57070000D01*
X197072000Y-57165238D01*
X197119619Y-57212857D01*
X197262476Y-57308095D01*
X197452952Y-57355714D01*
X197833904Y-57355714D01*
X197929142Y-57308095D01*
X197976761Y-57260476D01*
X198024380Y-57165238D01*
X198024380Y-56974761D01*
X197976761Y-56879523D01*
X197929142Y-56831904D01*
X197833904Y-56784285D01*
X197595809Y-56784285D01*
X197500571Y-56831904D01*
X197452952Y-56879523D01*
X197405333Y-56974761D01*
X197405333Y-57165238D01*
X197452952Y-57260476D01*
X197500571Y-57308095D01*
X197595809Y-57355714D01*
G04 #@! TO.C,R7*
X213176380Y-69508666D02*
X212700190Y-69842000D01*
X213176380Y-70080095D02*
X212176380Y-70080095D01*
X212176380Y-69699142D01*
X212224000Y-69603904D01*
X212271619Y-69556285D01*
X212366857Y-69508666D01*
X212509714Y-69508666D01*
X212604952Y-69556285D01*
X212652571Y-69603904D01*
X212700190Y-69699142D01*
X212700190Y-70080095D01*
X212176380Y-69175333D02*
X212176380Y-68508666D01*
X213176380Y-68937238D01*
G04 #@! TO.C,R8*
X216986380Y-69508666D02*
X216510190Y-69842000D01*
X216986380Y-70080095D02*
X215986380Y-70080095D01*
X215986380Y-69699142D01*
X216034000Y-69603904D01*
X216081619Y-69556285D01*
X216176857Y-69508666D01*
X216319714Y-69508666D01*
X216414952Y-69556285D01*
X216462571Y-69603904D01*
X216510190Y-69699142D01*
X216510190Y-70080095D01*
X216414952Y-68937238D02*
X216367333Y-69032476D01*
X216319714Y-69080095D01*
X216224476Y-69127714D01*
X216176857Y-69127714D01*
X216081619Y-69080095D01*
X216034000Y-69032476D01*
X215986380Y-68937238D01*
X215986380Y-68746761D01*
X216034000Y-68651523D01*
X216081619Y-68603904D01*
X216176857Y-68556285D01*
X216224476Y-68556285D01*
X216319714Y-68603904D01*
X216367333Y-68651523D01*
X216414952Y-68746761D01*
X216414952Y-68937238D01*
X216462571Y-69032476D01*
X216510190Y-69080095D01*
X216605428Y-69127714D01*
X216795904Y-69127714D01*
X216891142Y-69080095D01*
X216938761Y-69032476D01*
X216986380Y-68937238D01*
X216986380Y-68746761D01*
X216938761Y-68651523D01*
X216891142Y-68603904D01*
X216795904Y-68556285D01*
X216605428Y-68556285D01*
X216510190Y-68603904D01*
X216462571Y-68651523D01*
X216414952Y-68746761D01*
G04 #@! TO.C,R9*
X213176380Y-57824666D02*
X212700190Y-58158000D01*
X213176380Y-58396095D02*
X212176380Y-58396095D01*
X212176380Y-58015142D01*
X212224000Y-57919904D01*
X212271619Y-57872285D01*
X212366857Y-57824666D01*
X212509714Y-57824666D01*
X212604952Y-57872285D01*
X212652571Y-57919904D01*
X212700190Y-58015142D01*
X212700190Y-58396095D01*
X213176380Y-57348476D02*
X213176380Y-57158000D01*
X213128761Y-57062761D01*
X213081142Y-57015142D01*
X212938285Y-56919904D01*
X212747809Y-56872285D01*
X212366857Y-56872285D01*
X212271619Y-56919904D01*
X212224000Y-56967523D01*
X212176380Y-57062761D01*
X212176380Y-57253238D01*
X212224000Y-57348476D01*
X212271619Y-57396095D01*
X212366857Y-57443714D01*
X212604952Y-57443714D01*
X212700190Y-57396095D01*
X212747809Y-57348476D01*
X212795428Y-57253238D01*
X212795428Y-57062761D01*
X212747809Y-56967523D01*
X212700190Y-56919904D01*
X212604952Y-56872285D01*
G04 #@! TO.C,R11*
X216986380Y-58300857D02*
X216510190Y-58634190D01*
X216986380Y-58872285D02*
X215986380Y-58872285D01*
X215986380Y-58491333D01*
X216034000Y-58396095D01*
X216081619Y-58348476D01*
X216176857Y-58300857D01*
X216319714Y-58300857D01*
X216414952Y-58348476D01*
X216462571Y-58396095D01*
X216510190Y-58491333D01*
X216510190Y-58872285D01*
X216986380Y-57348476D02*
X216986380Y-57919904D01*
X216986380Y-57634190D02*
X215986380Y-57634190D01*
X216129238Y-57729428D01*
X216224476Y-57824666D01*
X216272095Y-57919904D01*
X216986380Y-56396095D02*
X216986380Y-56967523D01*
X216986380Y-56681809D02*
X215986380Y-56681809D01*
X216129238Y-56777047D01*
X216224476Y-56872285D01*
X216272095Y-56967523D01*
G04 #@! TO.C,U1*
X234148380Y-63499904D02*
X234957904Y-63499904D01*
X235053142Y-63452285D01*
X235100761Y-63404666D01*
X235148380Y-63309428D01*
X235148380Y-63118952D01*
X235100761Y-63023714D01*
X235053142Y-62976095D01*
X234957904Y-62928476D01*
X234148380Y-62928476D01*
X235148380Y-61928476D02*
X235148380Y-62499904D01*
X235148380Y-62214190D02*
X234148380Y-62214190D01*
X234291238Y-62309428D01*
X234386476Y-62404666D01*
X234434095Y-62499904D01*
G04 #@! TO.C,U3*
X233428095Y-55713380D02*
X233428095Y-56522904D01*
X233475714Y-56618142D01*
X233523333Y-56665761D01*
X233618571Y-56713380D01*
X233809047Y-56713380D01*
X233904285Y-56665761D01*
X233951904Y-56618142D01*
X233999523Y-56522904D01*
X233999523Y-55713380D01*
X234380476Y-55713380D02*
X234999523Y-55713380D01*
X234666190Y-56094333D01*
X234809047Y-56094333D01*
X234904285Y-56141952D01*
X234951904Y-56189571D01*
X234999523Y-56284809D01*
X234999523Y-56522904D01*
X234951904Y-56618142D01*
X234904285Y-56665761D01*
X234809047Y-56713380D01*
X234523333Y-56713380D01*
X234428095Y-56665761D01*
X234380476Y-56618142D01*
G04 #@! TO.C,TP1*
X161552095Y-52106380D02*
X162123523Y-52106380D01*
X161837809Y-53106380D02*
X161837809Y-52106380D01*
X162456857Y-53106380D02*
X162456857Y-52106380D01*
X162837809Y-52106380D01*
X162933047Y-52154000D01*
X162980666Y-52201619D01*
X163028285Y-52296857D01*
X163028285Y-52439714D01*
X162980666Y-52534952D01*
X162933047Y-52582571D01*
X162837809Y-52630190D01*
X162456857Y-52630190D01*
X163980666Y-53106380D02*
X163409238Y-53106380D01*
X163694952Y-53106380D02*
X163694952Y-52106380D01*
X163599714Y-52249238D01*
X163504476Y-52344476D01*
X163409238Y-52392095D01*
G04 #@! TO.C,TP2*
X161174380Y-75683904D02*
X161174380Y-75112476D01*
X162174380Y-75398190D02*
X161174380Y-75398190D01*
X162174380Y-74779142D02*
X161174380Y-74779142D01*
X161174380Y-74398190D01*
X161222000Y-74302952D01*
X161269619Y-74255333D01*
X161364857Y-74207714D01*
X161507714Y-74207714D01*
X161602952Y-74255333D01*
X161650571Y-74302952D01*
X161698190Y-74398190D01*
X161698190Y-74779142D01*
X161269619Y-73826761D02*
X161222000Y-73779142D01*
X161174380Y-73683904D01*
X161174380Y-73445809D01*
X161222000Y-73350571D01*
X161269619Y-73302952D01*
X161364857Y-73255333D01*
X161460095Y-73255333D01*
X161602952Y-73302952D01*
X162174380Y-73874380D01*
X162174380Y-73255333D01*
G04 #@! TO.C,TP3*
X169426095Y-72934380D02*
X169997523Y-72934380D01*
X169711809Y-73934380D02*
X169711809Y-72934380D01*
X170330857Y-73934380D02*
X170330857Y-72934380D01*
X170711809Y-72934380D01*
X170807047Y-72982000D01*
X170854666Y-73029619D01*
X170902285Y-73124857D01*
X170902285Y-73267714D01*
X170854666Y-73362952D01*
X170807047Y-73410571D01*
X170711809Y-73458190D01*
X170330857Y-73458190D01*
X171235619Y-72934380D02*
X171854666Y-72934380D01*
X171521333Y-73315333D01*
X171664190Y-73315333D01*
X171759428Y-73362952D01*
X171807047Y-73410571D01*
X171854666Y-73505809D01*
X171854666Y-73743904D01*
X171807047Y-73839142D01*
X171759428Y-73886761D01*
X171664190Y-73934380D01*
X171378476Y-73934380D01*
X171283238Y-73886761D01*
X171235619Y-73839142D01*
G04 #@! TO.C,TP4*
X185710380Y-75175904D02*
X185710380Y-74604476D01*
X186710380Y-74890190D02*
X185710380Y-74890190D01*
X186710380Y-74271142D02*
X185710380Y-74271142D01*
X185710380Y-73890190D01*
X185758000Y-73794952D01*
X185805619Y-73747333D01*
X185900857Y-73699714D01*
X186043714Y-73699714D01*
X186138952Y-73747333D01*
X186186571Y-73794952D01*
X186234190Y-73890190D01*
X186234190Y-74271142D01*
X186043714Y-72842571D02*
X186710380Y-72842571D01*
X185662761Y-73080666D02*
X186377047Y-73318761D01*
X186377047Y-72699714D01*
G04 #@! TO.C,TP5*
X214892095Y-51649380D02*
X215463523Y-51649380D01*
X215177809Y-52649380D02*
X215177809Y-51649380D01*
X215796857Y-52649380D02*
X215796857Y-51649380D01*
X216177809Y-51649380D01*
X216273047Y-51697000D01*
X216320666Y-51744619D01*
X216368285Y-51839857D01*
X216368285Y-51982714D01*
X216320666Y-52077952D01*
X216273047Y-52125571D01*
X216177809Y-52173190D01*
X215796857Y-52173190D01*
X217273047Y-51649380D02*
X216796857Y-51649380D01*
X216749238Y-52125571D01*
X216796857Y-52077952D01*
X216892095Y-52030333D01*
X217130190Y-52030333D01*
X217225428Y-52077952D01*
X217273047Y-52125571D01*
X217320666Y-52220809D01*
X217320666Y-52458904D01*
X217273047Y-52554142D01*
X217225428Y-52601761D01*
X217130190Y-52649380D01*
X216892095Y-52649380D01*
X216796857Y-52601761D01*
X216749238Y-52554142D01*
G04 #@! TO.C,TP6*
X239784095Y-51598380D02*
X240355523Y-51598380D01*
X240069809Y-52598380D02*
X240069809Y-51598380D01*
X240688857Y-52598380D02*
X240688857Y-51598380D01*
X241069809Y-51598380D01*
X241165047Y-51646000D01*
X241212666Y-51693619D01*
X241260285Y-51788857D01*
X241260285Y-51931714D01*
X241212666Y-52026952D01*
X241165047Y-52074571D01*
X241069809Y-52122190D01*
X240688857Y-52122190D01*
X242117428Y-51598380D02*
X241926952Y-51598380D01*
X241831714Y-51646000D01*
X241784095Y-51693619D01*
X241688857Y-51836476D01*
X241641238Y-52026952D01*
X241641238Y-52407904D01*
X241688857Y-52503142D01*
X241736476Y-52550761D01*
X241831714Y-52598380D01*
X242022190Y-52598380D01*
X242117428Y-52550761D01*
X242165047Y-52503142D01*
X242212666Y-52407904D01*
X242212666Y-52169809D01*
X242165047Y-52074571D01*
X242117428Y-52026952D01*
X242022190Y-51979333D01*
X241831714Y-51979333D01*
X241736476Y-52026952D01*
X241688857Y-52074571D01*
X241641238Y-52169809D01*
G04 #@! TO.C,TP7*
D13*
X207904666Y-57782666D02*
X208304666Y-57782666D01*
X208104666Y-58482666D02*
X208104666Y-57782666D01*
X208538000Y-58482666D02*
X208538000Y-57782666D01*
X208804666Y-57782666D01*
X208871333Y-57816000D01*
X208904666Y-57849333D01*
X208938000Y-57916000D01*
X208938000Y-58016000D01*
X208904666Y-58082666D01*
X208871333Y-58116000D01*
X208804666Y-58149333D01*
X208538000Y-58149333D01*
X209171333Y-57782666D02*
X209638000Y-57782666D01*
X209338000Y-58482666D01*
G04 #@! TO.C,R13*
D12*
X192464571Y-62202190D02*
X192297904Y-61964095D01*
X192178857Y-62202190D02*
X192178857Y-61702190D01*
X192369333Y-61702190D01*
X192416952Y-61726000D01*
X192440761Y-61749809D01*
X192464571Y-61797428D01*
X192464571Y-61868857D01*
X192440761Y-61916476D01*
X192416952Y-61940285D01*
X192369333Y-61964095D01*
X192178857Y-61964095D01*
X192940761Y-62202190D02*
X192655047Y-62202190D01*
X192797904Y-62202190D02*
X192797904Y-61702190D01*
X192750285Y-61773619D01*
X192702666Y-61821238D01*
X192655047Y-61845047D01*
X193107428Y-61702190D02*
X193416952Y-61702190D01*
X193250285Y-61892666D01*
X193321714Y-61892666D01*
X193369333Y-61916476D01*
X193393142Y-61940285D01*
X193416952Y-61987904D01*
X193416952Y-62106952D01*
X193393142Y-62154571D01*
X193369333Y-62178380D01*
X193321714Y-62202190D01*
X193178857Y-62202190D01*
X193131238Y-62178380D01*
X193107428Y-62154571D01*
G04 #@! TO.C,R14*
X202370571Y-62202190D02*
X202203904Y-61964095D01*
X202084857Y-62202190D02*
X202084857Y-61702190D01*
X202275333Y-61702190D01*
X202322952Y-61726000D01*
X202346761Y-61749809D01*
X202370571Y-61797428D01*
X202370571Y-61868857D01*
X202346761Y-61916476D01*
X202322952Y-61940285D01*
X202275333Y-61964095D01*
X202084857Y-61964095D01*
X202846761Y-62202190D02*
X202561047Y-62202190D01*
X202703904Y-62202190D02*
X202703904Y-61702190D01*
X202656285Y-61773619D01*
X202608666Y-61821238D01*
X202561047Y-61845047D01*
X203275333Y-61868857D02*
X203275333Y-62202190D01*
X203156285Y-61678380D02*
X203037238Y-62035523D01*
X203346761Y-62035523D01*
G04 #@! TO.C,R15*
X211450571Y-62202190D02*
X211283904Y-61964095D01*
X211164857Y-62202190D02*
X211164857Y-61702190D01*
X211355333Y-61702190D01*
X211402952Y-61726000D01*
X211426761Y-61749809D01*
X211450571Y-61797428D01*
X211450571Y-61868857D01*
X211426761Y-61916476D01*
X211402952Y-61940285D01*
X211355333Y-61964095D01*
X211164857Y-61964095D01*
X211926761Y-62202190D02*
X211641047Y-62202190D01*
X211783904Y-62202190D02*
X211783904Y-61702190D01*
X211736285Y-61773619D01*
X211688666Y-61821238D01*
X211641047Y-61845047D01*
X212379142Y-61702190D02*
X212141047Y-61702190D01*
X212117238Y-61940285D01*
X212141047Y-61916476D01*
X212188666Y-61892666D01*
X212307714Y-61892666D01*
X212355333Y-61916476D01*
X212379142Y-61940285D01*
X212402952Y-61987904D01*
X212402952Y-62106952D01*
X212379142Y-62154571D01*
X212355333Y-62178380D01*
X212307714Y-62202190D01*
X212188666Y-62202190D01*
X212141047Y-62178380D01*
X212117238Y-62154571D01*
G04 #@! TO.C,R16*
X221420571Y-62202190D02*
X221253904Y-61964095D01*
X221134857Y-62202190D02*
X221134857Y-61702190D01*
X221325333Y-61702190D01*
X221372952Y-61726000D01*
X221396761Y-61749809D01*
X221420571Y-61797428D01*
X221420571Y-61868857D01*
X221396761Y-61916476D01*
X221372952Y-61940285D01*
X221325333Y-61964095D01*
X221134857Y-61964095D01*
X221896761Y-62202190D02*
X221611047Y-62202190D01*
X221753904Y-62202190D02*
X221753904Y-61702190D01*
X221706285Y-61773619D01*
X221658666Y-61821238D01*
X221611047Y-61845047D01*
X222325333Y-61702190D02*
X222230095Y-61702190D01*
X222182476Y-61726000D01*
X222158666Y-61749809D01*
X222111047Y-61821238D01*
X222087238Y-61916476D01*
X222087238Y-62106952D01*
X222111047Y-62154571D01*
X222134857Y-62178380D01*
X222182476Y-62202190D01*
X222277714Y-62202190D01*
X222325333Y-62178380D01*
X222349142Y-62154571D01*
X222372952Y-62106952D01*
X222372952Y-61987904D01*
X222349142Y-61940285D01*
X222325333Y-61916476D01*
X222277714Y-61892666D01*
X222182476Y-61892666D01*
X222134857Y-61916476D01*
X222111047Y-61940285D01*
X222087238Y-61987904D01*
G04 #@! TO.C,R17*
D14*
X201620380Y-69984857D02*
X201144190Y-70318190D01*
X201620380Y-70556285D02*
X200620380Y-70556285D01*
X200620380Y-70175333D01*
X200668000Y-70080095D01*
X200715619Y-70032476D01*
X200810857Y-69984857D01*
X200953714Y-69984857D01*
X201048952Y-70032476D01*
X201096571Y-70080095D01*
X201144190Y-70175333D01*
X201144190Y-70556285D01*
X201620380Y-69032476D02*
X201620380Y-69603904D01*
X201620380Y-69318190D02*
X200620380Y-69318190D01*
X200763238Y-69413428D01*
X200858476Y-69508666D01*
X200906095Y-69603904D01*
X200620380Y-68699142D02*
X200620380Y-68032476D01*
X201620380Y-68461047D01*
G04 #@! TO.C,R18*
X201747380Y-58300857D02*
X201271190Y-58634190D01*
X201747380Y-58872285D02*
X200747380Y-58872285D01*
X200747380Y-58491333D01*
X200795000Y-58396095D01*
X200842619Y-58348476D01*
X200937857Y-58300857D01*
X201080714Y-58300857D01*
X201175952Y-58348476D01*
X201223571Y-58396095D01*
X201271190Y-58491333D01*
X201271190Y-58872285D01*
X201747380Y-57348476D02*
X201747380Y-57919904D01*
X201747380Y-57634190D02*
X200747380Y-57634190D01*
X200890238Y-57729428D01*
X200985476Y-57824666D01*
X201033095Y-57919904D01*
X201175952Y-56777047D02*
X201128333Y-56872285D01*
X201080714Y-56919904D01*
X200985476Y-56967523D01*
X200937857Y-56967523D01*
X200842619Y-56919904D01*
X200795000Y-56872285D01*
X200747380Y-56777047D01*
X200747380Y-56586571D01*
X200795000Y-56491333D01*
X200842619Y-56443714D01*
X200937857Y-56396095D01*
X200985476Y-56396095D01*
X201080714Y-56443714D01*
X201128333Y-56491333D01*
X201175952Y-56586571D01*
X201175952Y-56777047D01*
X201223571Y-56872285D01*
X201271190Y-56919904D01*
X201366428Y-56967523D01*
X201556904Y-56967523D01*
X201652142Y-56919904D01*
X201699761Y-56872285D01*
X201747380Y-56777047D01*
X201747380Y-56586571D01*
X201699761Y-56491333D01*
X201652142Y-56443714D01*
X201556904Y-56396095D01*
X201366428Y-56396095D01*
X201271190Y-56443714D01*
X201223571Y-56491333D01*
X201175952Y-56586571D01*
G04 #@! TO.C,R19*
X220860380Y-69984857D02*
X220384190Y-70318190D01*
X220860380Y-70556285D02*
X219860380Y-70556285D01*
X219860380Y-70175333D01*
X219908000Y-70080095D01*
X219955619Y-70032476D01*
X220050857Y-69984857D01*
X220193714Y-69984857D01*
X220288952Y-70032476D01*
X220336571Y-70080095D01*
X220384190Y-70175333D01*
X220384190Y-70556285D01*
X220860380Y-69032476D02*
X220860380Y-69603904D01*
X220860380Y-69318190D02*
X219860380Y-69318190D01*
X220003238Y-69413428D01*
X220098476Y-69508666D01*
X220146095Y-69603904D01*
X220860380Y-68556285D02*
X220860380Y-68365809D01*
X220812761Y-68270571D01*
X220765142Y-68222952D01*
X220622285Y-68127714D01*
X220431809Y-68080095D01*
X220050857Y-68080095D01*
X219955619Y-68127714D01*
X219908000Y-68175333D01*
X219860380Y-68270571D01*
X219860380Y-68461047D01*
X219908000Y-68556285D01*
X219955619Y-68603904D01*
X220050857Y-68651523D01*
X220288952Y-68651523D01*
X220384190Y-68603904D01*
X220431809Y-68556285D01*
X220479428Y-68461047D01*
X220479428Y-68270571D01*
X220431809Y-68175333D01*
X220384190Y-68127714D01*
X220288952Y-68080095D01*
G04 #@! TO.C,R20*
X220860380Y-58300857D02*
X220384190Y-58634190D01*
X220860380Y-58872285D02*
X219860380Y-58872285D01*
X219860380Y-58491333D01*
X219908000Y-58396095D01*
X219955619Y-58348476D01*
X220050857Y-58300857D01*
X220193714Y-58300857D01*
X220288952Y-58348476D01*
X220336571Y-58396095D01*
X220384190Y-58491333D01*
X220384190Y-58872285D01*
X219955619Y-57919904D02*
X219908000Y-57872285D01*
X219860380Y-57777047D01*
X219860380Y-57538952D01*
X219908000Y-57443714D01*
X219955619Y-57396095D01*
X220050857Y-57348476D01*
X220146095Y-57348476D01*
X220288952Y-57396095D01*
X220860380Y-57967523D01*
X220860380Y-57348476D01*
X219860380Y-56729428D02*
X219860380Y-56634190D01*
X219908000Y-56538952D01*
X219955619Y-56491333D01*
X220050857Y-56443714D01*
X220241333Y-56396095D01*
X220479428Y-56396095D01*
X220669904Y-56443714D01*
X220765142Y-56491333D01*
X220812761Y-56538952D01*
X220860380Y-56634190D01*
X220860380Y-56729428D01*
X220812761Y-56824666D01*
X220765142Y-56872285D01*
X220669904Y-56919904D01*
X220479428Y-56967523D01*
X220241333Y-56967523D01*
X220050857Y-56919904D01*
X219955619Y-56872285D01*
X219908000Y-56824666D01*
X219860380Y-56729428D01*
G04 #@! TO.C,R21*
X205684380Y-69984857D02*
X205208190Y-70318190D01*
X205684380Y-70556285D02*
X204684380Y-70556285D01*
X204684380Y-70175333D01*
X204732000Y-70080095D01*
X204779619Y-70032476D01*
X204874857Y-69984857D01*
X205017714Y-69984857D01*
X205112952Y-70032476D01*
X205160571Y-70080095D01*
X205208190Y-70175333D01*
X205208190Y-70556285D01*
X204779619Y-69603904D02*
X204732000Y-69556285D01*
X204684380Y-69461047D01*
X204684380Y-69222952D01*
X204732000Y-69127714D01*
X204779619Y-69080095D01*
X204874857Y-69032476D01*
X204970095Y-69032476D01*
X205112952Y-69080095D01*
X205684380Y-69651523D01*
X205684380Y-69032476D01*
X205684380Y-68080095D02*
X205684380Y-68651523D01*
X205684380Y-68365809D02*
X204684380Y-68365809D01*
X204827238Y-68461047D01*
X204922476Y-68556285D01*
X204970095Y-68651523D01*
G04 #@! TO.C,R22*
X205684380Y-58300857D02*
X205208190Y-58634190D01*
X205684380Y-58872285D02*
X204684380Y-58872285D01*
X204684380Y-58491333D01*
X204732000Y-58396095D01*
X204779619Y-58348476D01*
X204874857Y-58300857D01*
X205017714Y-58300857D01*
X205112952Y-58348476D01*
X205160571Y-58396095D01*
X205208190Y-58491333D01*
X205208190Y-58872285D01*
X204779619Y-57919904D02*
X204732000Y-57872285D01*
X204684380Y-57777047D01*
X204684380Y-57538952D01*
X204732000Y-57443714D01*
X204779619Y-57396095D01*
X204874857Y-57348476D01*
X204970095Y-57348476D01*
X205112952Y-57396095D01*
X205684380Y-57967523D01*
X205684380Y-57348476D01*
X204779619Y-56967523D02*
X204732000Y-56919904D01*
X204684380Y-56824666D01*
X204684380Y-56586571D01*
X204732000Y-56491333D01*
X204779619Y-56443714D01*
X204874857Y-56396095D01*
X204970095Y-56396095D01*
X205112952Y-56443714D01*
X205684380Y-57015142D01*
X205684380Y-56396095D01*
G04 #@! TO.C,R23*
X224734380Y-69984857D02*
X224258190Y-70318190D01*
X224734380Y-70556285D02*
X223734380Y-70556285D01*
X223734380Y-70175333D01*
X223782000Y-70080095D01*
X223829619Y-70032476D01*
X223924857Y-69984857D01*
X224067714Y-69984857D01*
X224162952Y-70032476D01*
X224210571Y-70080095D01*
X224258190Y-70175333D01*
X224258190Y-70556285D01*
X223829619Y-69603904D02*
X223782000Y-69556285D01*
X223734380Y-69461047D01*
X223734380Y-69222952D01*
X223782000Y-69127714D01*
X223829619Y-69080095D01*
X223924857Y-69032476D01*
X224020095Y-69032476D01*
X224162952Y-69080095D01*
X224734380Y-69651523D01*
X224734380Y-69032476D01*
X223734380Y-68699142D02*
X223734380Y-68080095D01*
X224115333Y-68413428D01*
X224115333Y-68270571D01*
X224162952Y-68175333D01*
X224210571Y-68127714D01*
X224305809Y-68080095D01*
X224543904Y-68080095D01*
X224639142Y-68127714D01*
X224686761Y-68175333D01*
X224734380Y-68270571D01*
X224734380Y-68556285D01*
X224686761Y-68651523D01*
X224639142Y-68699142D01*
G04 #@! TO.C,R24*
X224607380Y-58300857D02*
X224131190Y-58634190D01*
X224607380Y-58872285D02*
X223607380Y-58872285D01*
X223607380Y-58491333D01*
X223655000Y-58396095D01*
X223702619Y-58348476D01*
X223797857Y-58300857D01*
X223940714Y-58300857D01*
X224035952Y-58348476D01*
X224083571Y-58396095D01*
X224131190Y-58491333D01*
X224131190Y-58872285D01*
X223702619Y-57919904D02*
X223655000Y-57872285D01*
X223607380Y-57777047D01*
X223607380Y-57538952D01*
X223655000Y-57443714D01*
X223702619Y-57396095D01*
X223797857Y-57348476D01*
X223893095Y-57348476D01*
X224035952Y-57396095D01*
X224607380Y-57967523D01*
X224607380Y-57348476D01*
X223940714Y-56491333D02*
X224607380Y-56491333D01*
X223559761Y-56729428D02*
X224274047Y-56967523D01*
X224274047Y-56348476D01*
G04 #@! TO.C,J1*
X237666666Y-63452380D02*
X237666666Y-64166666D01*
X237619047Y-64309523D01*
X237523809Y-64404761D01*
X237380952Y-64452380D01*
X237285714Y-64452380D01*
X238666666Y-64452380D02*
X238095238Y-64452380D01*
X238380952Y-64452380D02*
X238380952Y-63452380D01*
X238285714Y-63595238D01*
X238190476Y-63690476D01*
X238095238Y-63738095D01*
G04 #@! TO.C,J2*
X165666666Y-67452380D02*
X165666666Y-68166666D01*
X165619047Y-68309523D01*
X165523809Y-68404761D01*
X165380952Y-68452380D01*
X165285714Y-68452380D01*
X166095238Y-67547619D02*
X166142857Y-67500000D01*
X166238095Y-67452380D01*
X166476190Y-67452380D01*
X166571428Y-67500000D01*
X166619047Y-67547619D01*
X166666666Y-67642857D01*
X166666666Y-67738095D01*
X166619047Y-67880952D01*
X166047619Y-68452380D01*
X166666666Y-68452380D01*
G04 #@! TD*
M02*
