G04 #@! TF.GenerationSoftware,KiCad,Pcbnew,5.0.0-fee4fd1~66~ubuntu18.04.1*
G04 #@! TF.CreationDate,2018-08-20T14:29:34+02:00*
G04 #@! TF.ProjectId,ESP32-li-ion-cell-monitor,45535033322D6C692D696F6E2D63656C,1.3*
G04 #@! TF.SameCoordinates,Original*
G04 #@! TF.FileFunction,Soldermask,Top*
G04 #@! TF.FilePolarity,Negative*
%FSLAX46Y46*%
G04 Gerber Fmt 4.6, Leading zero omitted, Abs format (unit mm)*
G04 Created by KiCad (PCBNEW 5.0.0-fee4fd1~66~ubuntu18.04.1) date Mon Aug 20 14:29:34 2018*
%MOMM*%
%LPD*%
G01*
G04 APERTURE LIST*
%ADD10C,1.060000*%
%ADD11O,1.760000X1.760000*%
%ADD12R,1.760000X1.760000*%
%ADD13C,0.860000*%
%ADD14R,6.060000X6.060000*%
%ADD15R,1.410000X0.960000*%
%ADD16R,0.960000X1.410000*%
%ADD17R,0.710000X1.120000*%
%ADD18C,0.100000*%
%ADD19C,1.210000*%
%ADD20C,0.935000*%
%ADD21R,0.960000X0.860000*%
%ADD22R,1.160000X1.160000*%
%ADD23R,1.060000X1.060000*%
%ADD24C,1.585000*%
%ADD25R,0.360000X1.510000*%
%ADD26C,6.059480*%
G04 APERTURE END LIST*
D10*
G04 #@! TO.C,TP9*
X229489000Y-62484000D03*
G04 #@! TD*
D11*
G04 #@! TO.C,J3*
X173482000Y-74930000D03*
X176022000Y-74930000D03*
X178562000Y-74930000D03*
X181102000Y-74930000D03*
D12*
X183642000Y-74930000D03*
G04 #@! TD*
D13*
G04 #@! TO.C,U2*
X176856000Y-58990000D03*
D14*
X178856000Y-60990000D03*
D15*
X169556000Y-53280000D03*
X169556000Y-54550000D03*
X169556000Y-55820000D03*
X169556000Y-57090000D03*
X169556000Y-58360000D03*
X169556000Y-59630000D03*
X169556000Y-60900000D03*
X169556000Y-62170000D03*
X169556000Y-63440000D03*
X169556000Y-64710000D03*
X169556000Y-65980000D03*
X169556000Y-67250000D03*
X169556000Y-68520000D03*
X169556000Y-69790000D03*
D16*
X172856000Y-71290000D03*
X174126000Y-71290000D03*
X175396000Y-71290000D03*
X176666000Y-71290000D03*
X177936000Y-71290000D03*
X179206000Y-71290000D03*
X180476000Y-71290000D03*
X181746000Y-71290000D03*
X183016000Y-71290000D03*
X184286000Y-71290000D03*
D15*
X187586000Y-69790000D03*
X187586000Y-68520000D03*
X187586000Y-67250000D03*
X187586000Y-65980000D03*
X187586000Y-64710000D03*
X187586000Y-63440000D03*
X187586000Y-62170000D03*
X187586000Y-60900000D03*
X187586000Y-59630000D03*
X187586000Y-58360000D03*
X187586000Y-57090000D03*
X187586000Y-55820000D03*
X187586000Y-54550000D03*
X187586000Y-53280000D03*
D13*
X176856000Y-59990000D03*
X176856000Y-60990000D03*
X176856000Y-61990000D03*
X176856000Y-62990000D03*
X177856000Y-62990000D03*
X177856000Y-61990000D03*
X177856000Y-60990000D03*
X177856000Y-59990000D03*
X177856000Y-58990000D03*
X179856000Y-58990000D03*
X179856000Y-59990000D03*
X179856000Y-60990000D03*
X179856000Y-61990000D03*
X179856000Y-62990000D03*
X178856000Y-62990000D03*
X178856000Y-61990000D03*
X178856000Y-60990000D03*
X178856000Y-59990000D03*
X178856000Y-58990000D03*
X180856000Y-62990000D03*
X180856000Y-61990000D03*
X180856000Y-60990000D03*
X180856000Y-59990000D03*
X180856000Y-58990000D03*
G04 #@! TD*
D17*
G04 #@! TO.C,U4*
X208092000Y-64600000D03*
X209042000Y-64600000D03*
X209992000Y-64600000D03*
X209992000Y-62400000D03*
X208092000Y-62400000D03*
G04 #@! TD*
D18*
G04 #@! TO.C,C1*
G36*
X165846740Y-51886267D02*
X165872274Y-51890054D01*
X165897314Y-51896327D01*
X165921619Y-51905023D01*
X165944955Y-51916060D01*
X165967096Y-51929331D01*
X165987830Y-51944708D01*
X166006956Y-51962044D01*
X166024292Y-51981170D01*
X166039669Y-52001904D01*
X166052940Y-52024045D01*
X166063977Y-52047381D01*
X166072673Y-52071686D01*
X166078946Y-52096726D01*
X166082733Y-52122260D01*
X166084000Y-52148043D01*
X166084000Y-52831957D01*
X166082733Y-52857740D01*
X166078946Y-52883274D01*
X166072673Y-52908314D01*
X166063977Y-52932619D01*
X166052940Y-52955955D01*
X166039669Y-52978096D01*
X166024292Y-52998830D01*
X166006956Y-53017956D01*
X165987830Y-53035292D01*
X165967096Y-53050669D01*
X165944955Y-53063940D01*
X165921619Y-53074977D01*
X165897314Y-53083673D01*
X165872274Y-53089946D01*
X165846740Y-53093733D01*
X165820957Y-53095000D01*
X164887043Y-53095000D01*
X164861260Y-53093733D01*
X164835726Y-53089946D01*
X164810686Y-53083673D01*
X164786381Y-53074977D01*
X164763045Y-53063940D01*
X164740904Y-53050669D01*
X164720170Y-53035292D01*
X164701044Y-53017956D01*
X164683708Y-52998830D01*
X164668331Y-52978096D01*
X164655060Y-52955955D01*
X164644023Y-52932619D01*
X164635327Y-52908314D01*
X164629054Y-52883274D01*
X164625267Y-52857740D01*
X164624000Y-52831957D01*
X164624000Y-52148043D01*
X164625267Y-52122260D01*
X164629054Y-52096726D01*
X164635327Y-52071686D01*
X164644023Y-52047381D01*
X164655060Y-52024045D01*
X164668331Y-52001904D01*
X164683708Y-51981170D01*
X164701044Y-51962044D01*
X164720170Y-51944708D01*
X164740904Y-51929331D01*
X164763045Y-51916060D01*
X164786381Y-51905023D01*
X164810686Y-51896327D01*
X164835726Y-51890054D01*
X164861260Y-51886267D01*
X164887043Y-51885000D01*
X165820957Y-51885000D01*
X165846740Y-51886267D01*
X165846740Y-51886267D01*
G37*
D19*
X165354000Y-52490000D03*
D18*
G36*
X165846740Y-53586267D02*
X165872274Y-53590054D01*
X165897314Y-53596327D01*
X165921619Y-53605023D01*
X165944955Y-53616060D01*
X165967096Y-53629331D01*
X165987830Y-53644708D01*
X166006956Y-53662044D01*
X166024292Y-53681170D01*
X166039669Y-53701904D01*
X166052940Y-53724045D01*
X166063977Y-53747381D01*
X166072673Y-53771686D01*
X166078946Y-53796726D01*
X166082733Y-53822260D01*
X166084000Y-53848043D01*
X166084000Y-54531957D01*
X166082733Y-54557740D01*
X166078946Y-54583274D01*
X166072673Y-54608314D01*
X166063977Y-54632619D01*
X166052940Y-54655955D01*
X166039669Y-54678096D01*
X166024292Y-54698830D01*
X166006956Y-54717956D01*
X165987830Y-54735292D01*
X165967096Y-54750669D01*
X165944955Y-54763940D01*
X165921619Y-54774977D01*
X165897314Y-54783673D01*
X165872274Y-54789946D01*
X165846740Y-54793733D01*
X165820957Y-54795000D01*
X164887043Y-54795000D01*
X164861260Y-54793733D01*
X164835726Y-54789946D01*
X164810686Y-54783673D01*
X164786381Y-54774977D01*
X164763045Y-54763940D01*
X164740904Y-54750669D01*
X164720170Y-54735292D01*
X164701044Y-54717956D01*
X164683708Y-54698830D01*
X164668331Y-54678096D01*
X164655060Y-54655955D01*
X164644023Y-54632619D01*
X164635327Y-54608314D01*
X164629054Y-54583274D01*
X164625267Y-54557740D01*
X164624000Y-54531957D01*
X164624000Y-53848043D01*
X164625267Y-53822260D01*
X164629054Y-53796726D01*
X164635327Y-53771686D01*
X164644023Y-53747381D01*
X164655060Y-53724045D01*
X164668331Y-53701904D01*
X164683708Y-53681170D01*
X164701044Y-53662044D01*
X164720170Y-53644708D01*
X164740904Y-53629331D01*
X164763045Y-53616060D01*
X164786381Y-53605023D01*
X164810686Y-53596327D01*
X164835726Y-53590054D01*
X164861260Y-53586267D01*
X164887043Y-53585000D01*
X165820957Y-53585000D01*
X165846740Y-53586267D01*
X165846740Y-53586267D01*
G37*
D19*
X165354000Y-54190000D03*
G04 #@! TD*
D18*
G04 #@! TO.C,C4*
G36*
X234216162Y-67822126D02*
X234238852Y-67825491D01*
X234261104Y-67831065D01*
X234282702Y-67838793D01*
X234303439Y-67848601D01*
X234323115Y-67860394D01*
X234341539Y-67874059D01*
X234358536Y-67889464D01*
X234373941Y-67906461D01*
X234387606Y-67924885D01*
X234399399Y-67944561D01*
X234409207Y-67965298D01*
X234416935Y-67986896D01*
X234422509Y-68009148D01*
X234425874Y-68031838D01*
X234427000Y-68054750D01*
X234427000Y-68597250D01*
X234425874Y-68620162D01*
X234422509Y-68642852D01*
X234416935Y-68665104D01*
X234409207Y-68686702D01*
X234399399Y-68707439D01*
X234387606Y-68727115D01*
X234373941Y-68745539D01*
X234358536Y-68762536D01*
X234341539Y-68777941D01*
X234323115Y-68791606D01*
X234303439Y-68803399D01*
X234282702Y-68813207D01*
X234261104Y-68820935D01*
X234238852Y-68826509D01*
X234216162Y-68829874D01*
X234193250Y-68831000D01*
X233725750Y-68831000D01*
X233702838Y-68829874D01*
X233680148Y-68826509D01*
X233657896Y-68820935D01*
X233636298Y-68813207D01*
X233615561Y-68803399D01*
X233595885Y-68791606D01*
X233577461Y-68777941D01*
X233560464Y-68762536D01*
X233545059Y-68745539D01*
X233531394Y-68727115D01*
X233519601Y-68707439D01*
X233509793Y-68686702D01*
X233502065Y-68665104D01*
X233496491Y-68642852D01*
X233493126Y-68620162D01*
X233492000Y-68597250D01*
X233492000Y-68054750D01*
X233493126Y-68031838D01*
X233496491Y-68009148D01*
X233502065Y-67986896D01*
X233509793Y-67965298D01*
X233519601Y-67944561D01*
X233531394Y-67924885D01*
X233545059Y-67906461D01*
X233560464Y-67889464D01*
X233577461Y-67874059D01*
X233595885Y-67860394D01*
X233615561Y-67848601D01*
X233636298Y-67838793D01*
X233657896Y-67831065D01*
X233680148Y-67825491D01*
X233702838Y-67822126D01*
X233725750Y-67821000D01*
X234193250Y-67821000D01*
X234216162Y-67822126D01*
X234216162Y-67822126D01*
G37*
D20*
X233959500Y-68326000D03*
D18*
G36*
X232641162Y-67822126D02*
X232663852Y-67825491D01*
X232686104Y-67831065D01*
X232707702Y-67838793D01*
X232728439Y-67848601D01*
X232748115Y-67860394D01*
X232766539Y-67874059D01*
X232783536Y-67889464D01*
X232798941Y-67906461D01*
X232812606Y-67924885D01*
X232824399Y-67944561D01*
X232834207Y-67965298D01*
X232841935Y-67986896D01*
X232847509Y-68009148D01*
X232850874Y-68031838D01*
X232852000Y-68054750D01*
X232852000Y-68597250D01*
X232850874Y-68620162D01*
X232847509Y-68642852D01*
X232841935Y-68665104D01*
X232834207Y-68686702D01*
X232824399Y-68707439D01*
X232812606Y-68727115D01*
X232798941Y-68745539D01*
X232783536Y-68762536D01*
X232766539Y-68777941D01*
X232748115Y-68791606D01*
X232728439Y-68803399D01*
X232707702Y-68813207D01*
X232686104Y-68820935D01*
X232663852Y-68826509D01*
X232641162Y-68829874D01*
X232618250Y-68831000D01*
X232150750Y-68831000D01*
X232127838Y-68829874D01*
X232105148Y-68826509D01*
X232082896Y-68820935D01*
X232061298Y-68813207D01*
X232040561Y-68803399D01*
X232020885Y-68791606D01*
X232002461Y-68777941D01*
X231985464Y-68762536D01*
X231970059Y-68745539D01*
X231956394Y-68727115D01*
X231944601Y-68707439D01*
X231934793Y-68686702D01*
X231927065Y-68665104D01*
X231921491Y-68642852D01*
X231918126Y-68620162D01*
X231917000Y-68597250D01*
X231917000Y-68054750D01*
X231918126Y-68031838D01*
X231921491Y-68009148D01*
X231927065Y-67986896D01*
X231934793Y-67965298D01*
X231944601Y-67944561D01*
X231956394Y-67924885D01*
X231970059Y-67906461D01*
X231985464Y-67889464D01*
X232002461Y-67874059D01*
X232020885Y-67860394D01*
X232040561Y-67848601D01*
X232061298Y-67838793D01*
X232082896Y-67831065D01*
X232105148Y-67825491D01*
X232127838Y-67822126D01*
X232150750Y-67821000D01*
X232618250Y-67821000D01*
X232641162Y-67822126D01*
X232641162Y-67822126D01*
G37*
D20*
X232384500Y-68326000D03*
G04 #@! TD*
D18*
G04 #@! TO.C,C5*
G36*
X230870740Y-64078267D02*
X230896274Y-64082054D01*
X230921314Y-64088327D01*
X230945619Y-64097023D01*
X230968955Y-64108060D01*
X230991096Y-64121331D01*
X231011830Y-64136708D01*
X231030956Y-64154044D01*
X231048292Y-64173170D01*
X231063669Y-64193904D01*
X231076940Y-64216045D01*
X231087977Y-64239381D01*
X231096673Y-64263686D01*
X231102946Y-64288726D01*
X231106733Y-64314260D01*
X231108000Y-64340043D01*
X231108000Y-65023957D01*
X231106733Y-65049740D01*
X231102946Y-65075274D01*
X231096673Y-65100314D01*
X231087977Y-65124619D01*
X231076940Y-65147955D01*
X231063669Y-65170096D01*
X231048292Y-65190830D01*
X231030956Y-65209956D01*
X231011830Y-65227292D01*
X230991096Y-65242669D01*
X230968955Y-65255940D01*
X230945619Y-65266977D01*
X230921314Y-65275673D01*
X230896274Y-65281946D01*
X230870740Y-65285733D01*
X230844957Y-65287000D01*
X229911043Y-65287000D01*
X229885260Y-65285733D01*
X229859726Y-65281946D01*
X229834686Y-65275673D01*
X229810381Y-65266977D01*
X229787045Y-65255940D01*
X229764904Y-65242669D01*
X229744170Y-65227292D01*
X229725044Y-65209956D01*
X229707708Y-65190830D01*
X229692331Y-65170096D01*
X229679060Y-65147955D01*
X229668023Y-65124619D01*
X229659327Y-65100314D01*
X229653054Y-65075274D01*
X229649267Y-65049740D01*
X229648000Y-65023957D01*
X229648000Y-64340043D01*
X229649267Y-64314260D01*
X229653054Y-64288726D01*
X229659327Y-64263686D01*
X229668023Y-64239381D01*
X229679060Y-64216045D01*
X229692331Y-64193904D01*
X229707708Y-64173170D01*
X229725044Y-64154044D01*
X229744170Y-64136708D01*
X229764904Y-64121331D01*
X229787045Y-64108060D01*
X229810381Y-64097023D01*
X229834686Y-64088327D01*
X229859726Y-64082054D01*
X229885260Y-64078267D01*
X229911043Y-64077000D01*
X230844957Y-64077000D01*
X230870740Y-64078267D01*
X230870740Y-64078267D01*
G37*
D19*
X230378000Y-64682000D03*
D18*
G36*
X230870740Y-65778267D02*
X230896274Y-65782054D01*
X230921314Y-65788327D01*
X230945619Y-65797023D01*
X230968955Y-65808060D01*
X230991096Y-65821331D01*
X231011830Y-65836708D01*
X231030956Y-65854044D01*
X231048292Y-65873170D01*
X231063669Y-65893904D01*
X231076940Y-65916045D01*
X231087977Y-65939381D01*
X231096673Y-65963686D01*
X231102946Y-65988726D01*
X231106733Y-66014260D01*
X231108000Y-66040043D01*
X231108000Y-66723957D01*
X231106733Y-66749740D01*
X231102946Y-66775274D01*
X231096673Y-66800314D01*
X231087977Y-66824619D01*
X231076940Y-66847955D01*
X231063669Y-66870096D01*
X231048292Y-66890830D01*
X231030956Y-66909956D01*
X231011830Y-66927292D01*
X230991096Y-66942669D01*
X230968955Y-66955940D01*
X230945619Y-66966977D01*
X230921314Y-66975673D01*
X230896274Y-66981946D01*
X230870740Y-66985733D01*
X230844957Y-66987000D01*
X229911043Y-66987000D01*
X229885260Y-66985733D01*
X229859726Y-66981946D01*
X229834686Y-66975673D01*
X229810381Y-66966977D01*
X229787045Y-66955940D01*
X229764904Y-66942669D01*
X229744170Y-66927292D01*
X229725044Y-66909956D01*
X229707708Y-66890830D01*
X229692331Y-66870096D01*
X229679060Y-66847955D01*
X229668023Y-66824619D01*
X229659327Y-66800314D01*
X229653054Y-66775274D01*
X229649267Y-66749740D01*
X229648000Y-66723957D01*
X229648000Y-66040043D01*
X229649267Y-66014260D01*
X229653054Y-65988726D01*
X229659327Y-65963686D01*
X229668023Y-65939381D01*
X229679060Y-65916045D01*
X229692331Y-65893904D01*
X229707708Y-65873170D01*
X229725044Y-65854044D01*
X229744170Y-65836708D01*
X229764904Y-65821331D01*
X229787045Y-65808060D01*
X229810381Y-65797023D01*
X229834686Y-65788327D01*
X229859726Y-65782054D01*
X229885260Y-65778267D01*
X229911043Y-65777000D01*
X230844957Y-65777000D01*
X230870740Y-65778267D01*
X230870740Y-65778267D01*
G37*
D19*
X230378000Y-66382000D03*
G04 #@! TD*
D18*
G04 #@! TO.C,C6*
G36*
X228894162Y-64278126D02*
X228916852Y-64281491D01*
X228939104Y-64287065D01*
X228960702Y-64294793D01*
X228981439Y-64304601D01*
X229001115Y-64316394D01*
X229019539Y-64330059D01*
X229036536Y-64345464D01*
X229051941Y-64362461D01*
X229065606Y-64380885D01*
X229077399Y-64400561D01*
X229087207Y-64421298D01*
X229094935Y-64442896D01*
X229100509Y-64465148D01*
X229103874Y-64487838D01*
X229105000Y-64510750D01*
X229105000Y-64978250D01*
X229103874Y-65001162D01*
X229100509Y-65023852D01*
X229094935Y-65046104D01*
X229087207Y-65067702D01*
X229077399Y-65088439D01*
X229065606Y-65108115D01*
X229051941Y-65126539D01*
X229036536Y-65143536D01*
X229019539Y-65158941D01*
X229001115Y-65172606D01*
X228981439Y-65184399D01*
X228960702Y-65194207D01*
X228939104Y-65201935D01*
X228916852Y-65207509D01*
X228894162Y-65210874D01*
X228871250Y-65212000D01*
X228328750Y-65212000D01*
X228305838Y-65210874D01*
X228283148Y-65207509D01*
X228260896Y-65201935D01*
X228239298Y-65194207D01*
X228218561Y-65184399D01*
X228198885Y-65172606D01*
X228180461Y-65158941D01*
X228163464Y-65143536D01*
X228148059Y-65126539D01*
X228134394Y-65108115D01*
X228122601Y-65088439D01*
X228112793Y-65067702D01*
X228105065Y-65046104D01*
X228099491Y-65023852D01*
X228096126Y-65001162D01*
X228095000Y-64978250D01*
X228095000Y-64510750D01*
X228096126Y-64487838D01*
X228099491Y-64465148D01*
X228105065Y-64442896D01*
X228112793Y-64421298D01*
X228122601Y-64400561D01*
X228134394Y-64380885D01*
X228148059Y-64362461D01*
X228163464Y-64345464D01*
X228180461Y-64330059D01*
X228198885Y-64316394D01*
X228218561Y-64304601D01*
X228239298Y-64294793D01*
X228260896Y-64287065D01*
X228283148Y-64281491D01*
X228305838Y-64278126D01*
X228328750Y-64277000D01*
X228871250Y-64277000D01*
X228894162Y-64278126D01*
X228894162Y-64278126D01*
G37*
D20*
X228600000Y-64744500D03*
D18*
G36*
X228894162Y-65853126D02*
X228916852Y-65856491D01*
X228939104Y-65862065D01*
X228960702Y-65869793D01*
X228981439Y-65879601D01*
X229001115Y-65891394D01*
X229019539Y-65905059D01*
X229036536Y-65920464D01*
X229051941Y-65937461D01*
X229065606Y-65955885D01*
X229077399Y-65975561D01*
X229087207Y-65996298D01*
X229094935Y-66017896D01*
X229100509Y-66040148D01*
X229103874Y-66062838D01*
X229105000Y-66085750D01*
X229105000Y-66553250D01*
X229103874Y-66576162D01*
X229100509Y-66598852D01*
X229094935Y-66621104D01*
X229087207Y-66642702D01*
X229077399Y-66663439D01*
X229065606Y-66683115D01*
X229051941Y-66701539D01*
X229036536Y-66718536D01*
X229019539Y-66733941D01*
X229001115Y-66747606D01*
X228981439Y-66759399D01*
X228960702Y-66769207D01*
X228939104Y-66776935D01*
X228916852Y-66782509D01*
X228894162Y-66785874D01*
X228871250Y-66787000D01*
X228328750Y-66787000D01*
X228305838Y-66785874D01*
X228283148Y-66782509D01*
X228260896Y-66776935D01*
X228239298Y-66769207D01*
X228218561Y-66759399D01*
X228198885Y-66747606D01*
X228180461Y-66733941D01*
X228163464Y-66718536D01*
X228148059Y-66701539D01*
X228134394Y-66683115D01*
X228122601Y-66663439D01*
X228112793Y-66642702D01*
X228105065Y-66621104D01*
X228099491Y-66598852D01*
X228096126Y-66576162D01*
X228095000Y-66553250D01*
X228095000Y-66085750D01*
X228096126Y-66062838D01*
X228099491Y-66040148D01*
X228105065Y-66017896D01*
X228112793Y-65996298D01*
X228122601Y-65975561D01*
X228134394Y-65955885D01*
X228148059Y-65937461D01*
X228163464Y-65920464D01*
X228180461Y-65905059D01*
X228198885Y-65891394D01*
X228218561Y-65879601D01*
X228239298Y-65869793D01*
X228260896Y-65862065D01*
X228283148Y-65856491D01*
X228305838Y-65853126D01*
X228328750Y-65852000D01*
X228871250Y-65852000D01*
X228894162Y-65853126D01*
X228894162Y-65853126D01*
G37*
D20*
X228600000Y-66319500D03*
G04 #@! TD*
D21*
G04 #@! TO.C,Q1*
X196326000Y-63500000D03*
X194326000Y-64450000D03*
X194326000Y-62550000D03*
G04 #@! TD*
G04 #@! TO.C,Q2*
X204232000Y-62550000D03*
X204232000Y-64450000D03*
X206232000Y-63500000D03*
G04 #@! TD*
G04 #@! TO.C,Q3*
X213312000Y-62550000D03*
X213312000Y-64450000D03*
X215312000Y-63500000D03*
G04 #@! TD*
G04 #@! TO.C,Q4*
X225282000Y-63500000D03*
X223282000Y-64450000D03*
X223282000Y-62550000D03*
G04 #@! TD*
D18*
G04 #@! TO.C,C2*
G36*
X232601740Y-69375267D02*
X232627274Y-69379054D01*
X232652314Y-69385327D01*
X232676619Y-69394023D01*
X232699955Y-69405060D01*
X232722096Y-69418331D01*
X232742830Y-69433708D01*
X232761956Y-69451044D01*
X232779292Y-69470170D01*
X232794669Y-69490904D01*
X232807940Y-69513045D01*
X232818977Y-69536381D01*
X232827673Y-69560686D01*
X232833946Y-69585726D01*
X232837733Y-69611260D01*
X232839000Y-69637043D01*
X232839000Y-70570957D01*
X232837733Y-70596740D01*
X232833946Y-70622274D01*
X232827673Y-70647314D01*
X232818977Y-70671619D01*
X232807940Y-70694955D01*
X232794669Y-70717096D01*
X232779292Y-70737830D01*
X232761956Y-70756956D01*
X232742830Y-70774292D01*
X232722096Y-70789669D01*
X232699955Y-70802940D01*
X232676619Y-70813977D01*
X232652314Y-70822673D01*
X232627274Y-70828946D01*
X232601740Y-70832733D01*
X232575957Y-70834000D01*
X231892043Y-70834000D01*
X231866260Y-70832733D01*
X231840726Y-70828946D01*
X231815686Y-70822673D01*
X231791381Y-70813977D01*
X231768045Y-70802940D01*
X231745904Y-70789669D01*
X231725170Y-70774292D01*
X231706044Y-70756956D01*
X231688708Y-70737830D01*
X231673331Y-70717096D01*
X231660060Y-70694955D01*
X231649023Y-70671619D01*
X231640327Y-70647314D01*
X231634054Y-70622274D01*
X231630267Y-70596740D01*
X231629000Y-70570957D01*
X231629000Y-69637043D01*
X231630267Y-69611260D01*
X231634054Y-69585726D01*
X231640327Y-69560686D01*
X231649023Y-69536381D01*
X231660060Y-69513045D01*
X231673331Y-69490904D01*
X231688708Y-69470170D01*
X231706044Y-69451044D01*
X231725170Y-69433708D01*
X231745904Y-69418331D01*
X231768045Y-69405060D01*
X231791381Y-69394023D01*
X231815686Y-69385327D01*
X231840726Y-69379054D01*
X231866260Y-69375267D01*
X231892043Y-69374000D01*
X232575957Y-69374000D01*
X232601740Y-69375267D01*
X232601740Y-69375267D01*
G37*
D19*
X232234000Y-70104000D03*
D18*
G36*
X234301740Y-69375267D02*
X234327274Y-69379054D01*
X234352314Y-69385327D01*
X234376619Y-69394023D01*
X234399955Y-69405060D01*
X234422096Y-69418331D01*
X234442830Y-69433708D01*
X234461956Y-69451044D01*
X234479292Y-69470170D01*
X234494669Y-69490904D01*
X234507940Y-69513045D01*
X234518977Y-69536381D01*
X234527673Y-69560686D01*
X234533946Y-69585726D01*
X234537733Y-69611260D01*
X234539000Y-69637043D01*
X234539000Y-70570957D01*
X234537733Y-70596740D01*
X234533946Y-70622274D01*
X234527673Y-70647314D01*
X234518977Y-70671619D01*
X234507940Y-70694955D01*
X234494669Y-70717096D01*
X234479292Y-70737830D01*
X234461956Y-70756956D01*
X234442830Y-70774292D01*
X234422096Y-70789669D01*
X234399955Y-70802940D01*
X234376619Y-70813977D01*
X234352314Y-70822673D01*
X234327274Y-70828946D01*
X234301740Y-70832733D01*
X234275957Y-70834000D01*
X233592043Y-70834000D01*
X233566260Y-70832733D01*
X233540726Y-70828946D01*
X233515686Y-70822673D01*
X233491381Y-70813977D01*
X233468045Y-70802940D01*
X233445904Y-70789669D01*
X233425170Y-70774292D01*
X233406044Y-70756956D01*
X233388708Y-70737830D01*
X233373331Y-70717096D01*
X233360060Y-70694955D01*
X233349023Y-70671619D01*
X233340327Y-70647314D01*
X233334054Y-70622274D01*
X233330267Y-70596740D01*
X233329000Y-70570957D01*
X233329000Y-69637043D01*
X233330267Y-69611260D01*
X233334054Y-69585726D01*
X233340327Y-69560686D01*
X233349023Y-69536381D01*
X233360060Y-69513045D01*
X233373331Y-69490904D01*
X233388708Y-69470170D01*
X233406044Y-69451044D01*
X233425170Y-69433708D01*
X233445904Y-69418331D01*
X233468045Y-69405060D01*
X233491381Y-69394023D01*
X233515686Y-69385327D01*
X233540726Y-69379054D01*
X233566260Y-69375267D01*
X233592043Y-69374000D01*
X234275957Y-69374000D01*
X234301740Y-69375267D01*
X234301740Y-69375267D01*
G37*
D19*
X233934000Y-70104000D03*
G04 #@! TD*
D18*
G04 #@! TO.C,C3*
G36*
X167426162Y-52086126D02*
X167448852Y-52089491D01*
X167471104Y-52095065D01*
X167492702Y-52102793D01*
X167513439Y-52112601D01*
X167533115Y-52124394D01*
X167551539Y-52138059D01*
X167568536Y-52153464D01*
X167583941Y-52170461D01*
X167597606Y-52188885D01*
X167609399Y-52208561D01*
X167619207Y-52229298D01*
X167626935Y-52250896D01*
X167632509Y-52273148D01*
X167635874Y-52295838D01*
X167637000Y-52318750D01*
X167637000Y-52786250D01*
X167635874Y-52809162D01*
X167632509Y-52831852D01*
X167626935Y-52854104D01*
X167619207Y-52875702D01*
X167609399Y-52896439D01*
X167597606Y-52916115D01*
X167583941Y-52934539D01*
X167568536Y-52951536D01*
X167551539Y-52966941D01*
X167533115Y-52980606D01*
X167513439Y-52992399D01*
X167492702Y-53002207D01*
X167471104Y-53009935D01*
X167448852Y-53015509D01*
X167426162Y-53018874D01*
X167403250Y-53020000D01*
X166860750Y-53020000D01*
X166837838Y-53018874D01*
X166815148Y-53015509D01*
X166792896Y-53009935D01*
X166771298Y-53002207D01*
X166750561Y-52992399D01*
X166730885Y-52980606D01*
X166712461Y-52966941D01*
X166695464Y-52951536D01*
X166680059Y-52934539D01*
X166666394Y-52916115D01*
X166654601Y-52896439D01*
X166644793Y-52875702D01*
X166637065Y-52854104D01*
X166631491Y-52831852D01*
X166628126Y-52809162D01*
X166627000Y-52786250D01*
X166627000Y-52318750D01*
X166628126Y-52295838D01*
X166631491Y-52273148D01*
X166637065Y-52250896D01*
X166644793Y-52229298D01*
X166654601Y-52208561D01*
X166666394Y-52188885D01*
X166680059Y-52170461D01*
X166695464Y-52153464D01*
X166712461Y-52138059D01*
X166730885Y-52124394D01*
X166750561Y-52112601D01*
X166771298Y-52102793D01*
X166792896Y-52095065D01*
X166815148Y-52089491D01*
X166837838Y-52086126D01*
X166860750Y-52085000D01*
X167403250Y-52085000D01*
X167426162Y-52086126D01*
X167426162Y-52086126D01*
G37*
D20*
X167132000Y-52552500D03*
D18*
G36*
X167426162Y-53661126D02*
X167448852Y-53664491D01*
X167471104Y-53670065D01*
X167492702Y-53677793D01*
X167513439Y-53687601D01*
X167533115Y-53699394D01*
X167551539Y-53713059D01*
X167568536Y-53728464D01*
X167583941Y-53745461D01*
X167597606Y-53763885D01*
X167609399Y-53783561D01*
X167619207Y-53804298D01*
X167626935Y-53825896D01*
X167632509Y-53848148D01*
X167635874Y-53870838D01*
X167637000Y-53893750D01*
X167637000Y-54361250D01*
X167635874Y-54384162D01*
X167632509Y-54406852D01*
X167626935Y-54429104D01*
X167619207Y-54450702D01*
X167609399Y-54471439D01*
X167597606Y-54491115D01*
X167583941Y-54509539D01*
X167568536Y-54526536D01*
X167551539Y-54541941D01*
X167533115Y-54555606D01*
X167513439Y-54567399D01*
X167492702Y-54577207D01*
X167471104Y-54584935D01*
X167448852Y-54590509D01*
X167426162Y-54593874D01*
X167403250Y-54595000D01*
X166860750Y-54595000D01*
X166837838Y-54593874D01*
X166815148Y-54590509D01*
X166792896Y-54584935D01*
X166771298Y-54577207D01*
X166750561Y-54567399D01*
X166730885Y-54555606D01*
X166712461Y-54541941D01*
X166695464Y-54526536D01*
X166680059Y-54509539D01*
X166666394Y-54491115D01*
X166654601Y-54471439D01*
X166644793Y-54450702D01*
X166637065Y-54429104D01*
X166631491Y-54406852D01*
X166628126Y-54384162D01*
X166627000Y-54361250D01*
X166627000Y-53893750D01*
X166628126Y-53870838D01*
X166631491Y-53848148D01*
X166637065Y-53825896D01*
X166644793Y-53804298D01*
X166654601Y-53783561D01*
X166666394Y-53763885D01*
X166680059Y-53745461D01*
X166695464Y-53728464D01*
X166712461Y-53713059D01*
X166730885Y-53699394D01*
X166750561Y-53687601D01*
X166771298Y-53677793D01*
X166792896Y-53670065D01*
X166815148Y-53664491D01*
X166837838Y-53661126D01*
X166860750Y-53660000D01*
X167403250Y-53660000D01*
X167426162Y-53661126D01*
X167426162Y-53661126D01*
G37*
D20*
X167132000Y-54127500D03*
G04 #@! TD*
D18*
G04 #@! TO.C,R1*
G36*
X167426162Y-56709126D02*
X167448852Y-56712491D01*
X167471104Y-56718065D01*
X167492702Y-56725793D01*
X167513439Y-56735601D01*
X167533115Y-56747394D01*
X167551539Y-56761059D01*
X167568536Y-56776464D01*
X167583941Y-56793461D01*
X167597606Y-56811885D01*
X167609399Y-56831561D01*
X167619207Y-56852298D01*
X167626935Y-56873896D01*
X167632509Y-56896148D01*
X167635874Y-56918838D01*
X167637000Y-56941750D01*
X167637000Y-57409250D01*
X167635874Y-57432162D01*
X167632509Y-57454852D01*
X167626935Y-57477104D01*
X167619207Y-57498702D01*
X167609399Y-57519439D01*
X167597606Y-57539115D01*
X167583941Y-57557539D01*
X167568536Y-57574536D01*
X167551539Y-57589941D01*
X167533115Y-57603606D01*
X167513439Y-57615399D01*
X167492702Y-57625207D01*
X167471104Y-57632935D01*
X167448852Y-57638509D01*
X167426162Y-57641874D01*
X167403250Y-57643000D01*
X166860750Y-57643000D01*
X166837838Y-57641874D01*
X166815148Y-57638509D01*
X166792896Y-57632935D01*
X166771298Y-57625207D01*
X166750561Y-57615399D01*
X166730885Y-57603606D01*
X166712461Y-57589941D01*
X166695464Y-57574536D01*
X166680059Y-57557539D01*
X166666394Y-57539115D01*
X166654601Y-57519439D01*
X166644793Y-57498702D01*
X166637065Y-57477104D01*
X166631491Y-57454852D01*
X166628126Y-57432162D01*
X166627000Y-57409250D01*
X166627000Y-56941750D01*
X166628126Y-56918838D01*
X166631491Y-56896148D01*
X166637065Y-56873896D01*
X166644793Y-56852298D01*
X166654601Y-56831561D01*
X166666394Y-56811885D01*
X166680059Y-56793461D01*
X166695464Y-56776464D01*
X166712461Y-56761059D01*
X166730885Y-56747394D01*
X166750561Y-56735601D01*
X166771298Y-56725793D01*
X166792896Y-56718065D01*
X166815148Y-56712491D01*
X166837838Y-56709126D01*
X166860750Y-56708000D01*
X167403250Y-56708000D01*
X167426162Y-56709126D01*
X167426162Y-56709126D01*
G37*
D20*
X167132000Y-57175500D03*
D18*
G36*
X167426162Y-55134126D02*
X167448852Y-55137491D01*
X167471104Y-55143065D01*
X167492702Y-55150793D01*
X167513439Y-55160601D01*
X167533115Y-55172394D01*
X167551539Y-55186059D01*
X167568536Y-55201464D01*
X167583941Y-55218461D01*
X167597606Y-55236885D01*
X167609399Y-55256561D01*
X167619207Y-55277298D01*
X167626935Y-55298896D01*
X167632509Y-55321148D01*
X167635874Y-55343838D01*
X167637000Y-55366750D01*
X167637000Y-55834250D01*
X167635874Y-55857162D01*
X167632509Y-55879852D01*
X167626935Y-55902104D01*
X167619207Y-55923702D01*
X167609399Y-55944439D01*
X167597606Y-55964115D01*
X167583941Y-55982539D01*
X167568536Y-55999536D01*
X167551539Y-56014941D01*
X167533115Y-56028606D01*
X167513439Y-56040399D01*
X167492702Y-56050207D01*
X167471104Y-56057935D01*
X167448852Y-56063509D01*
X167426162Y-56066874D01*
X167403250Y-56068000D01*
X166860750Y-56068000D01*
X166837838Y-56066874D01*
X166815148Y-56063509D01*
X166792896Y-56057935D01*
X166771298Y-56050207D01*
X166750561Y-56040399D01*
X166730885Y-56028606D01*
X166712461Y-56014941D01*
X166695464Y-55999536D01*
X166680059Y-55982539D01*
X166666394Y-55964115D01*
X166654601Y-55944439D01*
X166644793Y-55923702D01*
X166637065Y-55902104D01*
X166631491Y-55879852D01*
X166628126Y-55857162D01*
X166627000Y-55834250D01*
X166627000Y-55366750D01*
X166628126Y-55343838D01*
X166631491Y-55321148D01*
X166637065Y-55298896D01*
X166644793Y-55277298D01*
X166654601Y-55256561D01*
X166666394Y-55236885D01*
X166680059Y-55218461D01*
X166695464Y-55201464D01*
X166712461Y-55186059D01*
X166730885Y-55172394D01*
X166750561Y-55160601D01*
X166771298Y-55150793D01*
X166792896Y-55143065D01*
X166815148Y-55137491D01*
X166837838Y-55134126D01*
X166860750Y-55133000D01*
X167403250Y-55133000D01*
X167426162Y-55134126D01*
X167426162Y-55134126D01*
G37*
D20*
X167132000Y-55600500D03*
G04 #@! TD*
D18*
G04 #@! TO.C,C7*
G36*
X234482162Y-56150126D02*
X234504852Y-56153491D01*
X234527104Y-56159065D01*
X234548702Y-56166793D01*
X234569439Y-56176601D01*
X234589115Y-56188394D01*
X234607539Y-56202059D01*
X234624536Y-56217464D01*
X234639941Y-56234461D01*
X234653606Y-56252885D01*
X234665399Y-56272561D01*
X234675207Y-56293298D01*
X234682935Y-56314896D01*
X234688509Y-56337148D01*
X234691874Y-56359838D01*
X234693000Y-56382750D01*
X234693000Y-56850250D01*
X234691874Y-56873162D01*
X234688509Y-56895852D01*
X234682935Y-56918104D01*
X234675207Y-56939702D01*
X234665399Y-56960439D01*
X234653606Y-56980115D01*
X234639941Y-56998539D01*
X234624536Y-57015536D01*
X234607539Y-57030941D01*
X234589115Y-57044606D01*
X234569439Y-57056399D01*
X234548702Y-57066207D01*
X234527104Y-57073935D01*
X234504852Y-57079509D01*
X234482162Y-57082874D01*
X234459250Y-57084000D01*
X233916750Y-57084000D01*
X233893838Y-57082874D01*
X233871148Y-57079509D01*
X233848896Y-57073935D01*
X233827298Y-57066207D01*
X233806561Y-57056399D01*
X233786885Y-57044606D01*
X233768461Y-57030941D01*
X233751464Y-57015536D01*
X233736059Y-56998539D01*
X233722394Y-56980115D01*
X233710601Y-56960439D01*
X233700793Y-56939702D01*
X233693065Y-56918104D01*
X233687491Y-56895852D01*
X233684126Y-56873162D01*
X233683000Y-56850250D01*
X233683000Y-56382750D01*
X233684126Y-56359838D01*
X233687491Y-56337148D01*
X233693065Y-56314896D01*
X233700793Y-56293298D01*
X233710601Y-56272561D01*
X233722394Y-56252885D01*
X233736059Y-56234461D01*
X233751464Y-56217464D01*
X233768461Y-56202059D01*
X233786885Y-56188394D01*
X233806561Y-56176601D01*
X233827298Y-56166793D01*
X233848896Y-56159065D01*
X233871148Y-56153491D01*
X233893838Y-56150126D01*
X233916750Y-56149000D01*
X234459250Y-56149000D01*
X234482162Y-56150126D01*
X234482162Y-56150126D01*
G37*
D20*
X234188000Y-56616500D03*
D18*
G36*
X234482162Y-57725126D02*
X234504852Y-57728491D01*
X234527104Y-57734065D01*
X234548702Y-57741793D01*
X234569439Y-57751601D01*
X234589115Y-57763394D01*
X234607539Y-57777059D01*
X234624536Y-57792464D01*
X234639941Y-57809461D01*
X234653606Y-57827885D01*
X234665399Y-57847561D01*
X234675207Y-57868298D01*
X234682935Y-57889896D01*
X234688509Y-57912148D01*
X234691874Y-57934838D01*
X234693000Y-57957750D01*
X234693000Y-58425250D01*
X234691874Y-58448162D01*
X234688509Y-58470852D01*
X234682935Y-58493104D01*
X234675207Y-58514702D01*
X234665399Y-58535439D01*
X234653606Y-58555115D01*
X234639941Y-58573539D01*
X234624536Y-58590536D01*
X234607539Y-58605941D01*
X234589115Y-58619606D01*
X234569439Y-58631399D01*
X234548702Y-58641207D01*
X234527104Y-58648935D01*
X234504852Y-58654509D01*
X234482162Y-58657874D01*
X234459250Y-58659000D01*
X233916750Y-58659000D01*
X233893838Y-58657874D01*
X233871148Y-58654509D01*
X233848896Y-58648935D01*
X233827298Y-58641207D01*
X233806561Y-58631399D01*
X233786885Y-58619606D01*
X233768461Y-58605941D01*
X233751464Y-58590536D01*
X233736059Y-58573539D01*
X233722394Y-58555115D01*
X233710601Y-58535439D01*
X233700793Y-58514702D01*
X233693065Y-58493104D01*
X233687491Y-58470852D01*
X233684126Y-58448162D01*
X233683000Y-58425250D01*
X233683000Y-57957750D01*
X233684126Y-57934838D01*
X233687491Y-57912148D01*
X233693065Y-57889896D01*
X233700793Y-57868298D01*
X233710601Y-57847561D01*
X233722394Y-57827885D01*
X233736059Y-57809461D01*
X233751464Y-57792464D01*
X233768461Y-57777059D01*
X233786885Y-57763394D01*
X233806561Y-57751601D01*
X233827298Y-57741793D01*
X233848896Y-57734065D01*
X233871148Y-57728491D01*
X233893838Y-57725126D01*
X233916750Y-57724000D01*
X234459250Y-57724000D01*
X234482162Y-57725126D01*
X234482162Y-57725126D01*
G37*
D20*
X234188000Y-58191500D03*
G04 #@! TD*
D18*
G04 #@! TO.C,C8*
G36*
X210340162Y-60202126D02*
X210362852Y-60205491D01*
X210385104Y-60211065D01*
X210406702Y-60218793D01*
X210427439Y-60228601D01*
X210447115Y-60240394D01*
X210465539Y-60254059D01*
X210482536Y-60269464D01*
X210497941Y-60286461D01*
X210511606Y-60304885D01*
X210523399Y-60324561D01*
X210533207Y-60345298D01*
X210540935Y-60366896D01*
X210546509Y-60389148D01*
X210549874Y-60411838D01*
X210551000Y-60434750D01*
X210551000Y-60977250D01*
X210549874Y-61000162D01*
X210546509Y-61022852D01*
X210540935Y-61045104D01*
X210533207Y-61066702D01*
X210523399Y-61087439D01*
X210511606Y-61107115D01*
X210497941Y-61125539D01*
X210482536Y-61142536D01*
X210465539Y-61157941D01*
X210447115Y-61171606D01*
X210427439Y-61183399D01*
X210406702Y-61193207D01*
X210385104Y-61200935D01*
X210362852Y-61206509D01*
X210340162Y-61209874D01*
X210317250Y-61211000D01*
X209849750Y-61211000D01*
X209826838Y-61209874D01*
X209804148Y-61206509D01*
X209781896Y-61200935D01*
X209760298Y-61193207D01*
X209739561Y-61183399D01*
X209719885Y-61171606D01*
X209701461Y-61157941D01*
X209684464Y-61142536D01*
X209669059Y-61125539D01*
X209655394Y-61107115D01*
X209643601Y-61087439D01*
X209633793Y-61066702D01*
X209626065Y-61045104D01*
X209620491Y-61022852D01*
X209617126Y-61000162D01*
X209616000Y-60977250D01*
X209616000Y-60434750D01*
X209617126Y-60411838D01*
X209620491Y-60389148D01*
X209626065Y-60366896D01*
X209633793Y-60345298D01*
X209643601Y-60324561D01*
X209655394Y-60304885D01*
X209669059Y-60286461D01*
X209684464Y-60269464D01*
X209701461Y-60254059D01*
X209719885Y-60240394D01*
X209739561Y-60228601D01*
X209760298Y-60218793D01*
X209781896Y-60211065D01*
X209804148Y-60205491D01*
X209826838Y-60202126D01*
X209849750Y-60201000D01*
X210317250Y-60201000D01*
X210340162Y-60202126D01*
X210340162Y-60202126D01*
G37*
D20*
X210083500Y-60706000D03*
D18*
G36*
X208765162Y-60202126D02*
X208787852Y-60205491D01*
X208810104Y-60211065D01*
X208831702Y-60218793D01*
X208852439Y-60228601D01*
X208872115Y-60240394D01*
X208890539Y-60254059D01*
X208907536Y-60269464D01*
X208922941Y-60286461D01*
X208936606Y-60304885D01*
X208948399Y-60324561D01*
X208958207Y-60345298D01*
X208965935Y-60366896D01*
X208971509Y-60389148D01*
X208974874Y-60411838D01*
X208976000Y-60434750D01*
X208976000Y-60977250D01*
X208974874Y-61000162D01*
X208971509Y-61022852D01*
X208965935Y-61045104D01*
X208958207Y-61066702D01*
X208948399Y-61087439D01*
X208936606Y-61107115D01*
X208922941Y-61125539D01*
X208907536Y-61142536D01*
X208890539Y-61157941D01*
X208872115Y-61171606D01*
X208852439Y-61183399D01*
X208831702Y-61193207D01*
X208810104Y-61200935D01*
X208787852Y-61206509D01*
X208765162Y-61209874D01*
X208742250Y-61211000D01*
X208274750Y-61211000D01*
X208251838Y-61209874D01*
X208229148Y-61206509D01*
X208206896Y-61200935D01*
X208185298Y-61193207D01*
X208164561Y-61183399D01*
X208144885Y-61171606D01*
X208126461Y-61157941D01*
X208109464Y-61142536D01*
X208094059Y-61125539D01*
X208080394Y-61107115D01*
X208068601Y-61087439D01*
X208058793Y-61066702D01*
X208051065Y-61045104D01*
X208045491Y-61022852D01*
X208042126Y-61000162D01*
X208041000Y-60977250D01*
X208041000Y-60434750D01*
X208042126Y-60411838D01*
X208045491Y-60389148D01*
X208051065Y-60366896D01*
X208058793Y-60345298D01*
X208068601Y-60324561D01*
X208080394Y-60304885D01*
X208094059Y-60286461D01*
X208109464Y-60269464D01*
X208126461Y-60254059D01*
X208144885Y-60240394D01*
X208164561Y-60228601D01*
X208185298Y-60218793D01*
X208206896Y-60211065D01*
X208229148Y-60205491D01*
X208251838Y-60202126D01*
X208274750Y-60201000D01*
X208742250Y-60201000D01*
X208765162Y-60202126D01*
X208765162Y-60202126D01*
G37*
D20*
X208508500Y-60706000D03*
G04 #@! TD*
D22*
G04 #@! TO.C,D1*
X231772000Y-72136000D03*
X234572000Y-72136000D03*
G04 #@! TD*
D23*
G04 #@! TO.C,D2*
X231668000Y-73914000D03*
X234168000Y-73914000D03*
G04 #@! TD*
D18*
G04 #@! TO.C,R2*
G36*
X195272633Y-71538251D02*
X195297856Y-71541993D01*
X195322591Y-71548188D01*
X195346600Y-71556779D01*
X195369650Y-71567681D01*
X195391522Y-71580790D01*
X195412003Y-71595980D01*
X195430896Y-71613104D01*
X195448020Y-71631997D01*
X195463210Y-71652478D01*
X195476319Y-71674350D01*
X195487221Y-71697400D01*
X195495812Y-71721409D01*
X195502007Y-71746144D01*
X195505749Y-71771367D01*
X195507000Y-71796835D01*
X195507000Y-72862165D01*
X195505749Y-72887633D01*
X195502007Y-72912856D01*
X195495812Y-72937591D01*
X195487221Y-72961600D01*
X195476319Y-72984650D01*
X195463210Y-73006522D01*
X195448020Y-73027003D01*
X195430896Y-73045896D01*
X195412003Y-73063020D01*
X195391522Y-73078210D01*
X195369650Y-73091319D01*
X195346600Y-73102221D01*
X195322591Y-73110812D01*
X195297856Y-73117007D01*
X195272633Y-73120749D01*
X195247165Y-73122000D01*
X192356835Y-73122000D01*
X192331367Y-73120749D01*
X192306144Y-73117007D01*
X192281409Y-73110812D01*
X192257400Y-73102221D01*
X192234350Y-73091319D01*
X192212478Y-73078210D01*
X192191997Y-73063020D01*
X192173104Y-73045896D01*
X192155980Y-73027003D01*
X192140790Y-73006522D01*
X192127681Y-72984650D01*
X192116779Y-72961600D01*
X192108188Y-72937591D01*
X192101993Y-72912856D01*
X192098251Y-72887633D01*
X192097000Y-72862165D01*
X192097000Y-71796835D01*
X192098251Y-71771367D01*
X192101993Y-71746144D01*
X192108188Y-71721409D01*
X192116779Y-71697400D01*
X192127681Y-71674350D01*
X192140790Y-71652478D01*
X192155980Y-71631997D01*
X192173104Y-71613104D01*
X192191997Y-71595980D01*
X192212478Y-71580790D01*
X192234350Y-71567681D01*
X192257400Y-71556779D01*
X192281409Y-71548188D01*
X192306144Y-71541993D01*
X192331367Y-71538251D01*
X192356835Y-71537000D01*
X195247165Y-71537000D01*
X195272633Y-71538251D01*
X195272633Y-71538251D01*
G37*
D24*
X193802000Y-72329500D03*
D18*
G36*
X195272633Y-65563251D02*
X195297856Y-65566993D01*
X195322591Y-65573188D01*
X195346600Y-65581779D01*
X195369650Y-65592681D01*
X195391522Y-65605790D01*
X195412003Y-65620980D01*
X195430896Y-65638104D01*
X195448020Y-65656997D01*
X195463210Y-65677478D01*
X195476319Y-65699350D01*
X195487221Y-65722400D01*
X195495812Y-65746409D01*
X195502007Y-65771144D01*
X195505749Y-65796367D01*
X195507000Y-65821835D01*
X195507000Y-66887165D01*
X195505749Y-66912633D01*
X195502007Y-66937856D01*
X195495812Y-66962591D01*
X195487221Y-66986600D01*
X195476319Y-67009650D01*
X195463210Y-67031522D01*
X195448020Y-67052003D01*
X195430896Y-67070896D01*
X195412003Y-67088020D01*
X195391522Y-67103210D01*
X195369650Y-67116319D01*
X195346600Y-67127221D01*
X195322591Y-67135812D01*
X195297856Y-67142007D01*
X195272633Y-67145749D01*
X195247165Y-67147000D01*
X192356835Y-67147000D01*
X192331367Y-67145749D01*
X192306144Y-67142007D01*
X192281409Y-67135812D01*
X192257400Y-67127221D01*
X192234350Y-67116319D01*
X192212478Y-67103210D01*
X192191997Y-67088020D01*
X192173104Y-67070896D01*
X192155980Y-67052003D01*
X192140790Y-67031522D01*
X192127681Y-67009650D01*
X192116779Y-66986600D01*
X192108188Y-66962591D01*
X192101993Y-66937856D01*
X192098251Y-66912633D01*
X192097000Y-66887165D01*
X192097000Y-65821835D01*
X192098251Y-65796367D01*
X192101993Y-65771144D01*
X192108188Y-65746409D01*
X192116779Y-65722400D01*
X192127681Y-65699350D01*
X192140790Y-65677478D01*
X192155980Y-65656997D01*
X192173104Y-65638104D01*
X192191997Y-65620980D01*
X192212478Y-65605790D01*
X192234350Y-65592681D01*
X192257400Y-65581779D01*
X192281409Y-65573188D01*
X192306144Y-65566993D01*
X192331367Y-65563251D01*
X192356835Y-65562000D01*
X195247165Y-65562000D01*
X195272633Y-65563251D01*
X195272633Y-65563251D01*
G37*
D24*
X193802000Y-66354500D03*
G04 #@! TD*
D18*
G04 #@! TO.C,R3*
G36*
X199082633Y-65563251D02*
X199107856Y-65566993D01*
X199132591Y-65573188D01*
X199156600Y-65581779D01*
X199179650Y-65592681D01*
X199201522Y-65605790D01*
X199222003Y-65620980D01*
X199240896Y-65638104D01*
X199258020Y-65656997D01*
X199273210Y-65677478D01*
X199286319Y-65699350D01*
X199297221Y-65722400D01*
X199305812Y-65746409D01*
X199312007Y-65771144D01*
X199315749Y-65796367D01*
X199317000Y-65821835D01*
X199317000Y-66887165D01*
X199315749Y-66912633D01*
X199312007Y-66937856D01*
X199305812Y-66962591D01*
X199297221Y-66986600D01*
X199286319Y-67009650D01*
X199273210Y-67031522D01*
X199258020Y-67052003D01*
X199240896Y-67070896D01*
X199222003Y-67088020D01*
X199201522Y-67103210D01*
X199179650Y-67116319D01*
X199156600Y-67127221D01*
X199132591Y-67135812D01*
X199107856Y-67142007D01*
X199082633Y-67145749D01*
X199057165Y-67147000D01*
X196166835Y-67147000D01*
X196141367Y-67145749D01*
X196116144Y-67142007D01*
X196091409Y-67135812D01*
X196067400Y-67127221D01*
X196044350Y-67116319D01*
X196022478Y-67103210D01*
X196001997Y-67088020D01*
X195983104Y-67070896D01*
X195965980Y-67052003D01*
X195950790Y-67031522D01*
X195937681Y-67009650D01*
X195926779Y-66986600D01*
X195918188Y-66962591D01*
X195911993Y-66937856D01*
X195908251Y-66912633D01*
X195907000Y-66887165D01*
X195907000Y-65821835D01*
X195908251Y-65796367D01*
X195911993Y-65771144D01*
X195918188Y-65746409D01*
X195926779Y-65722400D01*
X195937681Y-65699350D01*
X195950790Y-65677478D01*
X195965980Y-65656997D01*
X195983104Y-65638104D01*
X196001997Y-65620980D01*
X196022478Y-65605790D01*
X196044350Y-65592681D01*
X196067400Y-65581779D01*
X196091409Y-65573188D01*
X196116144Y-65566993D01*
X196141367Y-65563251D01*
X196166835Y-65562000D01*
X199057165Y-65562000D01*
X199082633Y-65563251D01*
X199082633Y-65563251D01*
G37*
D24*
X197612000Y-66354500D03*
D18*
G36*
X199082633Y-71538251D02*
X199107856Y-71541993D01*
X199132591Y-71548188D01*
X199156600Y-71556779D01*
X199179650Y-71567681D01*
X199201522Y-71580790D01*
X199222003Y-71595980D01*
X199240896Y-71613104D01*
X199258020Y-71631997D01*
X199273210Y-71652478D01*
X199286319Y-71674350D01*
X199297221Y-71697400D01*
X199305812Y-71721409D01*
X199312007Y-71746144D01*
X199315749Y-71771367D01*
X199317000Y-71796835D01*
X199317000Y-72862165D01*
X199315749Y-72887633D01*
X199312007Y-72912856D01*
X199305812Y-72937591D01*
X199297221Y-72961600D01*
X199286319Y-72984650D01*
X199273210Y-73006522D01*
X199258020Y-73027003D01*
X199240896Y-73045896D01*
X199222003Y-73063020D01*
X199201522Y-73078210D01*
X199179650Y-73091319D01*
X199156600Y-73102221D01*
X199132591Y-73110812D01*
X199107856Y-73117007D01*
X199082633Y-73120749D01*
X199057165Y-73122000D01*
X196166835Y-73122000D01*
X196141367Y-73120749D01*
X196116144Y-73117007D01*
X196091409Y-73110812D01*
X196067400Y-73102221D01*
X196044350Y-73091319D01*
X196022478Y-73078210D01*
X196001997Y-73063020D01*
X195983104Y-73045896D01*
X195965980Y-73027003D01*
X195950790Y-73006522D01*
X195937681Y-72984650D01*
X195926779Y-72961600D01*
X195918188Y-72937591D01*
X195911993Y-72912856D01*
X195908251Y-72887633D01*
X195907000Y-72862165D01*
X195907000Y-71796835D01*
X195908251Y-71771367D01*
X195911993Y-71746144D01*
X195918188Y-71721409D01*
X195926779Y-71697400D01*
X195937681Y-71674350D01*
X195950790Y-71652478D01*
X195965980Y-71631997D01*
X195983104Y-71613104D01*
X196001997Y-71595980D01*
X196022478Y-71580790D01*
X196044350Y-71567681D01*
X196067400Y-71556779D01*
X196091409Y-71548188D01*
X196116144Y-71541993D01*
X196141367Y-71538251D01*
X196166835Y-71537000D01*
X199057165Y-71537000D01*
X199082633Y-71538251D01*
X199082633Y-71538251D01*
G37*
D24*
X197612000Y-72329500D03*
G04 #@! TD*
D18*
G04 #@! TO.C,R4*
G36*
X195272633Y-53879251D02*
X195297856Y-53882993D01*
X195322591Y-53889188D01*
X195346600Y-53897779D01*
X195369650Y-53908681D01*
X195391522Y-53921790D01*
X195412003Y-53936980D01*
X195430896Y-53954104D01*
X195448020Y-53972997D01*
X195463210Y-53993478D01*
X195476319Y-54015350D01*
X195487221Y-54038400D01*
X195495812Y-54062409D01*
X195502007Y-54087144D01*
X195505749Y-54112367D01*
X195507000Y-54137835D01*
X195507000Y-55203165D01*
X195505749Y-55228633D01*
X195502007Y-55253856D01*
X195495812Y-55278591D01*
X195487221Y-55302600D01*
X195476319Y-55325650D01*
X195463210Y-55347522D01*
X195448020Y-55368003D01*
X195430896Y-55386896D01*
X195412003Y-55404020D01*
X195391522Y-55419210D01*
X195369650Y-55432319D01*
X195346600Y-55443221D01*
X195322591Y-55451812D01*
X195297856Y-55458007D01*
X195272633Y-55461749D01*
X195247165Y-55463000D01*
X192356835Y-55463000D01*
X192331367Y-55461749D01*
X192306144Y-55458007D01*
X192281409Y-55451812D01*
X192257400Y-55443221D01*
X192234350Y-55432319D01*
X192212478Y-55419210D01*
X192191997Y-55404020D01*
X192173104Y-55386896D01*
X192155980Y-55368003D01*
X192140790Y-55347522D01*
X192127681Y-55325650D01*
X192116779Y-55302600D01*
X192108188Y-55278591D01*
X192101993Y-55253856D01*
X192098251Y-55228633D01*
X192097000Y-55203165D01*
X192097000Y-54137835D01*
X192098251Y-54112367D01*
X192101993Y-54087144D01*
X192108188Y-54062409D01*
X192116779Y-54038400D01*
X192127681Y-54015350D01*
X192140790Y-53993478D01*
X192155980Y-53972997D01*
X192173104Y-53954104D01*
X192191997Y-53936980D01*
X192212478Y-53921790D01*
X192234350Y-53908681D01*
X192257400Y-53897779D01*
X192281409Y-53889188D01*
X192306144Y-53882993D01*
X192331367Y-53879251D01*
X192356835Y-53878000D01*
X195247165Y-53878000D01*
X195272633Y-53879251D01*
X195272633Y-53879251D01*
G37*
D24*
X193802000Y-54670500D03*
D18*
G36*
X195272633Y-59854251D02*
X195297856Y-59857993D01*
X195322591Y-59864188D01*
X195346600Y-59872779D01*
X195369650Y-59883681D01*
X195391522Y-59896790D01*
X195412003Y-59911980D01*
X195430896Y-59929104D01*
X195448020Y-59947997D01*
X195463210Y-59968478D01*
X195476319Y-59990350D01*
X195487221Y-60013400D01*
X195495812Y-60037409D01*
X195502007Y-60062144D01*
X195505749Y-60087367D01*
X195507000Y-60112835D01*
X195507000Y-61178165D01*
X195505749Y-61203633D01*
X195502007Y-61228856D01*
X195495812Y-61253591D01*
X195487221Y-61277600D01*
X195476319Y-61300650D01*
X195463210Y-61322522D01*
X195448020Y-61343003D01*
X195430896Y-61361896D01*
X195412003Y-61379020D01*
X195391522Y-61394210D01*
X195369650Y-61407319D01*
X195346600Y-61418221D01*
X195322591Y-61426812D01*
X195297856Y-61433007D01*
X195272633Y-61436749D01*
X195247165Y-61438000D01*
X192356835Y-61438000D01*
X192331367Y-61436749D01*
X192306144Y-61433007D01*
X192281409Y-61426812D01*
X192257400Y-61418221D01*
X192234350Y-61407319D01*
X192212478Y-61394210D01*
X192191997Y-61379020D01*
X192173104Y-61361896D01*
X192155980Y-61343003D01*
X192140790Y-61322522D01*
X192127681Y-61300650D01*
X192116779Y-61277600D01*
X192108188Y-61253591D01*
X192101993Y-61228856D01*
X192098251Y-61203633D01*
X192097000Y-61178165D01*
X192097000Y-60112835D01*
X192098251Y-60087367D01*
X192101993Y-60062144D01*
X192108188Y-60037409D01*
X192116779Y-60013400D01*
X192127681Y-59990350D01*
X192140790Y-59968478D01*
X192155980Y-59947997D01*
X192173104Y-59929104D01*
X192191997Y-59911980D01*
X192212478Y-59896790D01*
X192234350Y-59883681D01*
X192257400Y-59872779D01*
X192281409Y-59864188D01*
X192306144Y-59857993D01*
X192331367Y-59854251D01*
X192356835Y-59853000D01*
X195247165Y-59853000D01*
X195272633Y-59854251D01*
X195272633Y-59854251D01*
G37*
D24*
X193802000Y-60645500D03*
G04 #@! TD*
D18*
G04 #@! TO.C,R5*
G36*
X236844633Y-51763251D02*
X236869856Y-51766993D01*
X236894591Y-51773188D01*
X236918600Y-51781779D01*
X236941650Y-51792681D01*
X236963522Y-51805790D01*
X236984003Y-51820980D01*
X237002896Y-51838104D01*
X237020020Y-51856997D01*
X237035210Y-51877478D01*
X237048319Y-51899350D01*
X237059221Y-51922400D01*
X237067812Y-51946409D01*
X237074007Y-51971144D01*
X237077749Y-51996367D01*
X237079000Y-52021835D01*
X237079000Y-54912165D01*
X237077749Y-54937633D01*
X237074007Y-54962856D01*
X237067812Y-54987591D01*
X237059221Y-55011600D01*
X237048319Y-55034650D01*
X237035210Y-55056522D01*
X237020020Y-55077003D01*
X237002896Y-55095896D01*
X236984003Y-55113020D01*
X236963522Y-55128210D01*
X236941650Y-55141319D01*
X236918600Y-55152221D01*
X236894591Y-55160812D01*
X236869856Y-55167007D01*
X236844633Y-55170749D01*
X236819165Y-55172000D01*
X235753835Y-55172000D01*
X235728367Y-55170749D01*
X235703144Y-55167007D01*
X235678409Y-55160812D01*
X235654400Y-55152221D01*
X235631350Y-55141319D01*
X235609478Y-55128210D01*
X235588997Y-55113020D01*
X235570104Y-55095896D01*
X235552980Y-55077003D01*
X235537790Y-55056522D01*
X235524681Y-55034650D01*
X235513779Y-55011600D01*
X235505188Y-54987591D01*
X235498993Y-54962856D01*
X235495251Y-54937633D01*
X235494000Y-54912165D01*
X235494000Y-52021835D01*
X235495251Y-51996367D01*
X235498993Y-51971144D01*
X235505188Y-51946409D01*
X235513779Y-51922400D01*
X235524681Y-51899350D01*
X235537790Y-51877478D01*
X235552980Y-51856997D01*
X235570104Y-51838104D01*
X235588997Y-51820980D01*
X235609478Y-51805790D01*
X235631350Y-51792681D01*
X235654400Y-51781779D01*
X235678409Y-51773188D01*
X235703144Y-51766993D01*
X235728367Y-51763251D01*
X235753835Y-51762000D01*
X236819165Y-51762000D01*
X236844633Y-51763251D01*
X236844633Y-51763251D01*
G37*
D24*
X236286500Y-53467000D03*
D18*
G36*
X230869633Y-51763251D02*
X230894856Y-51766993D01*
X230919591Y-51773188D01*
X230943600Y-51781779D01*
X230966650Y-51792681D01*
X230988522Y-51805790D01*
X231009003Y-51820980D01*
X231027896Y-51838104D01*
X231045020Y-51856997D01*
X231060210Y-51877478D01*
X231073319Y-51899350D01*
X231084221Y-51922400D01*
X231092812Y-51946409D01*
X231099007Y-51971144D01*
X231102749Y-51996367D01*
X231104000Y-52021835D01*
X231104000Y-54912165D01*
X231102749Y-54937633D01*
X231099007Y-54962856D01*
X231092812Y-54987591D01*
X231084221Y-55011600D01*
X231073319Y-55034650D01*
X231060210Y-55056522D01*
X231045020Y-55077003D01*
X231027896Y-55095896D01*
X231009003Y-55113020D01*
X230988522Y-55128210D01*
X230966650Y-55141319D01*
X230943600Y-55152221D01*
X230919591Y-55160812D01*
X230894856Y-55167007D01*
X230869633Y-55170749D01*
X230844165Y-55172000D01*
X229778835Y-55172000D01*
X229753367Y-55170749D01*
X229728144Y-55167007D01*
X229703409Y-55160812D01*
X229679400Y-55152221D01*
X229656350Y-55141319D01*
X229634478Y-55128210D01*
X229613997Y-55113020D01*
X229595104Y-55095896D01*
X229577980Y-55077003D01*
X229562790Y-55056522D01*
X229549681Y-55034650D01*
X229538779Y-55011600D01*
X229530188Y-54987591D01*
X229523993Y-54962856D01*
X229520251Y-54937633D01*
X229519000Y-54912165D01*
X229519000Y-52021835D01*
X229520251Y-51996367D01*
X229523993Y-51971144D01*
X229530188Y-51946409D01*
X229538779Y-51922400D01*
X229549681Y-51899350D01*
X229562790Y-51877478D01*
X229577980Y-51856997D01*
X229595104Y-51838104D01*
X229613997Y-51820980D01*
X229634478Y-51805790D01*
X229656350Y-51792681D01*
X229679400Y-51781779D01*
X229703409Y-51773188D01*
X229728144Y-51766993D01*
X229753367Y-51763251D01*
X229778835Y-51762000D01*
X230844165Y-51762000D01*
X230869633Y-51763251D01*
X230869633Y-51763251D01*
G37*
D24*
X230311500Y-53467000D03*
G04 #@! TD*
D18*
G04 #@! TO.C,R6*
G36*
X199082633Y-59854251D02*
X199107856Y-59857993D01*
X199132591Y-59864188D01*
X199156600Y-59872779D01*
X199179650Y-59883681D01*
X199201522Y-59896790D01*
X199222003Y-59911980D01*
X199240896Y-59929104D01*
X199258020Y-59947997D01*
X199273210Y-59968478D01*
X199286319Y-59990350D01*
X199297221Y-60013400D01*
X199305812Y-60037409D01*
X199312007Y-60062144D01*
X199315749Y-60087367D01*
X199317000Y-60112835D01*
X199317000Y-61178165D01*
X199315749Y-61203633D01*
X199312007Y-61228856D01*
X199305812Y-61253591D01*
X199297221Y-61277600D01*
X199286319Y-61300650D01*
X199273210Y-61322522D01*
X199258020Y-61343003D01*
X199240896Y-61361896D01*
X199222003Y-61379020D01*
X199201522Y-61394210D01*
X199179650Y-61407319D01*
X199156600Y-61418221D01*
X199132591Y-61426812D01*
X199107856Y-61433007D01*
X199082633Y-61436749D01*
X199057165Y-61438000D01*
X196166835Y-61438000D01*
X196141367Y-61436749D01*
X196116144Y-61433007D01*
X196091409Y-61426812D01*
X196067400Y-61418221D01*
X196044350Y-61407319D01*
X196022478Y-61394210D01*
X196001997Y-61379020D01*
X195983104Y-61361896D01*
X195965980Y-61343003D01*
X195950790Y-61322522D01*
X195937681Y-61300650D01*
X195926779Y-61277600D01*
X195918188Y-61253591D01*
X195911993Y-61228856D01*
X195908251Y-61203633D01*
X195907000Y-61178165D01*
X195907000Y-60112835D01*
X195908251Y-60087367D01*
X195911993Y-60062144D01*
X195918188Y-60037409D01*
X195926779Y-60013400D01*
X195937681Y-59990350D01*
X195950790Y-59968478D01*
X195965980Y-59947997D01*
X195983104Y-59929104D01*
X196001997Y-59911980D01*
X196022478Y-59896790D01*
X196044350Y-59883681D01*
X196067400Y-59872779D01*
X196091409Y-59864188D01*
X196116144Y-59857993D01*
X196141367Y-59854251D01*
X196166835Y-59853000D01*
X199057165Y-59853000D01*
X199082633Y-59854251D01*
X199082633Y-59854251D01*
G37*
D24*
X197612000Y-60645500D03*
D18*
G36*
X199082633Y-53879251D02*
X199107856Y-53882993D01*
X199132591Y-53889188D01*
X199156600Y-53897779D01*
X199179650Y-53908681D01*
X199201522Y-53921790D01*
X199222003Y-53936980D01*
X199240896Y-53954104D01*
X199258020Y-53972997D01*
X199273210Y-53993478D01*
X199286319Y-54015350D01*
X199297221Y-54038400D01*
X199305812Y-54062409D01*
X199312007Y-54087144D01*
X199315749Y-54112367D01*
X199317000Y-54137835D01*
X199317000Y-55203165D01*
X199315749Y-55228633D01*
X199312007Y-55253856D01*
X199305812Y-55278591D01*
X199297221Y-55302600D01*
X199286319Y-55325650D01*
X199273210Y-55347522D01*
X199258020Y-55368003D01*
X199240896Y-55386896D01*
X199222003Y-55404020D01*
X199201522Y-55419210D01*
X199179650Y-55432319D01*
X199156600Y-55443221D01*
X199132591Y-55451812D01*
X199107856Y-55458007D01*
X199082633Y-55461749D01*
X199057165Y-55463000D01*
X196166835Y-55463000D01*
X196141367Y-55461749D01*
X196116144Y-55458007D01*
X196091409Y-55451812D01*
X196067400Y-55443221D01*
X196044350Y-55432319D01*
X196022478Y-55419210D01*
X196001997Y-55404020D01*
X195983104Y-55386896D01*
X195965980Y-55368003D01*
X195950790Y-55347522D01*
X195937681Y-55325650D01*
X195926779Y-55302600D01*
X195918188Y-55278591D01*
X195911993Y-55253856D01*
X195908251Y-55228633D01*
X195907000Y-55203165D01*
X195907000Y-54137835D01*
X195908251Y-54112367D01*
X195911993Y-54087144D01*
X195918188Y-54062409D01*
X195926779Y-54038400D01*
X195937681Y-54015350D01*
X195950790Y-53993478D01*
X195965980Y-53972997D01*
X195983104Y-53954104D01*
X196001997Y-53936980D01*
X196022478Y-53921790D01*
X196044350Y-53908681D01*
X196067400Y-53897779D01*
X196091409Y-53889188D01*
X196116144Y-53882993D01*
X196141367Y-53879251D01*
X196166835Y-53878000D01*
X199057165Y-53878000D01*
X199082633Y-53879251D01*
X199082633Y-53879251D01*
G37*
D24*
X197612000Y-54670500D03*
G04 #@! TD*
D18*
G04 #@! TO.C,R7*
G36*
X214194633Y-65563251D02*
X214219856Y-65566993D01*
X214244591Y-65573188D01*
X214268600Y-65581779D01*
X214291650Y-65592681D01*
X214313522Y-65605790D01*
X214334003Y-65620980D01*
X214352896Y-65638104D01*
X214370020Y-65656997D01*
X214385210Y-65677478D01*
X214398319Y-65699350D01*
X214409221Y-65722400D01*
X214417812Y-65746409D01*
X214424007Y-65771144D01*
X214427749Y-65796367D01*
X214429000Y-65821835D01*
X214429000Y-66887165D01*
X214427749Y-66912633D01*
X214424007Y-66937856D01*
X214417812Y-66962591D01*
X214409221Y-66986600D01*
X214398319Y-67009650D01*
X214385210Y-67031522D01*
X214370020Y-67052003D01*
X214352896Y-67070896D01*
X214334003Y-67088020D01*
X214313522Y-67103210D01*
X214291650Y-67116319D01*
X214268600Y-67127221D01*
X214244591Y-67135812D01*
X214219856Y-67142007D01*
X214194633Y-67145749D01*
X214169165Y-67147000D01*
X211278835Y-67147000D01*
X211253367Y-67145749D01*
X211228144Y-67142007D01*
X211203409Y-67135812D01*
X211179400Y-67127221D01*
X211156350Y-67116319D01*
X211134478Y-67103210D01*
X211113997Y-67088020D01*
X211095104Y-67070896D01*
X211077980Y-67052003D01*
X211062790Y-67031522D01*
X211049681Y-67009650D01*
X211038779Y-66986600D01*
X211030188Y-66962591D01*
X211023993Y-66937856D01*
X211020251Y-66912633D01*
X211019000Y-66887165D01*
X211019000Y-65821835D01*
X211020251Y-65796367D01*
X211023993Y-65771144D01*
X211030188Y-65746409D01*
X211038779Y-65722400D01*
X211049681Y-65699350D01*
X211062790Y-65677478D01*
X211077980Y-65656997D01*
X211095104Y-65638104D01*
X211113997Y-65620980D01*
X211134478Y-65605790D01*
X211156350Y-65592681D01*
X211179400Y-65581779D01*
X211203409Y-65573188D01*
X211228144Y-65566993D01*
X211253367Y-65563251D01*
X211278835Y-65562000D01*
X214169165Y-65562000D01*
X214194633Y-65563251D01*
X214194633Y-65563251D01*
G37*
D24*
X212724000Y-66354500D03*
D18*
G36*
X214194633Y-71538251D02*
X214219856Y-71541993D01*
X214244591Y-71548188D01*
X214268600Y-71556779D01*
X214291650Y-71567681D01*
X214313522Y-71580790D01*
X214334003Y-71595980D01*
X214352896Y-71613104D01*
X214370020Y-71631997D01*
X214385210Y-71652478D01*
X214398319Y-71674350D01*
X214409221Y-71697400D01*
X214417812Y-71721409D01*
X214424007Y-71746144D01*
X214427749Y-71771367D01*
X214429000Y-71796835D01*
X214429000Y-72862165D01*
X214427749Y-72887633D01*
X214424007Y-72912856D01*
X214417812Y-72937591D01*
X214409221Y-72961600D01*
X214398319Y-72984650D01*
X214385210Y-73006522D01*
X214370020Y-73027003D01*
X214352896Y-73045896D01*
X214334003Y-73063020D01*
X214313522Y-73078210D01*
X214291650Y-73091319D01*
X214268600Y-73102221D01*
X214244591Y-73110812D01*
X214219856Y-73117007D01*
X214194633Y-73120749D01*
X214169165Y-73122000D01*
X211278835Y-73122000D01*
X211253367Y-73120749D01*
X211228144Y-73117007D01*
X211203409Y-73110812D01*
X211179400Y-73102221D01*
X211156350Y-73091319D01*
X211134478Y-73078210D01*
X211113997Y-73063020D01*
X211095104Y-73045896D01*
X211077980Y-73027003D01*
X211062790Y-73006522D01*
X211049681Y-72984650D01*
X211038779Y-72961600D01*
X211030188Y-72937591D01*
X211023993Y-72912856D01*
X211020251Y-72887633D01*
X211019000Y-72862165D01*
X211019000Y-71796835D01*
X211020251Y-71771367D01*
X211023993Y-71746144D01*
X211030188Y-71721409D01*
X211038779Y-71697400D01*
X211049681Y-71674350D01*
X211062790Y-71652478D01*
X211077980Y-71631997D01*
X211095104Y-71613104D01*
X211113997Y-71595980D01*
X211134478Y-71580790D01*
X211156350Y-71567681D01*
X211179400Y-71556779D01*
X211203409Y-71548188D01*
X211228144Y-71541993D01*
X211253367Y-71538251D01*
X211278835Y-71537000D01*
X214169165Y-71537000D01*
X214194633Y-71538251D01*
X214194633Y-71538251D01*
G37*
D24*
X212724000Y-72329500D03*
G04 #@! TD*
D18*
G04 #@! TO.C,R8*
G36*
X218004633Y-65563251D02*
X218029856Y-65566993D01*
X218054591Y-65573188D01*
X218078600Y-65581779D01*
X218101650Y-65592681D01*
X218123522Y-65605790D01*
X218144003Y-65620980D01*
X218162896Y-65638104D01*
X218180020Y-65656997D01*
X218195210Y-65677478D01*
X218208319Y-65699350D01*
X218219221Y-65722400D01*
X218227812Y-65746409D01*
X218234007Y-65771144D01*
X218237749Y-65796367D01*
X218239000Y-65821835D01*
X218239000Y-66887165D01*
X218237749Y-66912633D01*
X218234007Y-66937856D01*
X218227812Y-66962591D01*
X218219221Y-66986600D01*
X218208319Y-67009650D01*
X218195210Y-67031522D01*
X218180020Y-67052003D01*
X218162896Y-67070896D01*
X218144003Y-67088020D01*
X218123522Y-67103210D01*
X218101650Y-67116319D01*
X218078600Y-67127221D01*
X218054591Y-67135812D01*
X218029856Y-67142007D01*
X218004633Y-67145749D01*
X217979165Y-67147000D01*
X215088835Y-67147000D01*
X215063367Y-67145749D01*
X215038144Y-67142007D01*
X215013409Y-67135812D01*
X214989400Y-67127221D01*
X214966350Y-67116319D01*
X214944478Y-67103210D01*
X214923997Y-67088020D01*
X214905104Y-67070896D01*
X214887980Y-67052003D01*
X214872790Y-67031522D01*
X214859681Y-67009650D01*
X214848779Y-66986600D01*
X214840188Y-66962591D01*
X214833993Y-66937856D01*
X214830251Y-66912633D01*
X214829000Y-66887165D01*
X214829000Y-65821835D01*
X214830251Y-65796367D01*
X214833993Y-65771144D01*
X214840188Y-65746409D01*
X214848779Y-65722400D01*
X214859681Y-65699350D01*
X214872790Y-65677478D01*
X214887980Y-65656997D01*
X214905104Y-65638104D01*
X214923997Y-65620980D01*
X214944478Y-65605790D01*
X214966350Y-65592681D01*
X214989400Y-65581779D01*
X215013409Y-65573188D01*
X215038144Y-65566993D01*
X215063367Y-65563251D01*
X215088835Y-65562000D01*
X217979165Y-65562000D01*
X218004633Y-65563251D01*
X218004633Y-65563251D01*
G37*
D24*
X216534000Y-66354500D03*
D18*
G36*
X218004633Y-71538251D02*
X218029856Y-71541993D01*
X218054591Y-71548188D01*
X218078600Y-71556779D01*
X218101650Y-71567681D01*
X218123522Y-71580790D01*
X218144003Y-71595980D01*
X218162896Y-71613104D01*
X218180020Y-71631997D01*
X218195210Y-71652478D01*
X218208319Y-71674350D01*
X218219221Y-71697400D01*
X218227812Y-71721409D01*
X218234007Y-71746144D01*
X218237749Y-71771367D01*
X218239000Y-71796835D01*
X218239000Y-72862165D01*
X218237749Y-72887633D01*
X218234007Y-72912856D01*
X218227812Y-72937591D01*
X218219221Y-72961600D01*
X218208319Y-72984650D01*
X218195210Y-73006522D01*
X218180020Y-73027003D01*
X218162896Y-73045896D01*
X218144003Y-73063020D01*
X218123522Y-73078210D01*
X218101650Y-73091319D01*
X218078600Y-73102221D01*
X218054591Y-73110812D01*
X218029856Y-73117007D01*
X218004633Y-73120749D01*
X217979165Y-73122000D01*
X215088835Y-73122000D01*
X215063367Y-73120749D01*
X215038144Y-73117007D01*
X215013409Y-73110812D01*
X214989400Y-73102221D01*
X214966350Y-73091319D01*
X214944478Y-73078210D01*
X214923997Y-73063020D01*
X214905104Y-73045896D01*
X214887980Y-73027003D01*
X214872790Y-73006522D01*
X214859681Y-72984650D01*
X214848779Y-72961600D01*
X214840188Y-72937591D01*
X214833993Y-72912856D01*
X214830251Y-72887633D01*
X214829000Y-72862165D01*
X214829000Y-71796835D01*
X214830251Y-71771367D01*
X214833993Y-71746144D01*
X214840188Y-71721409D01*
X214848779Y-71697400D01*
X214859681Y-71674350D01*
X214872790Y-71652478D01*
X214887980Y-71631997D01*
X214905104Y-71613104D01*
X214923997Y-71595980D01*
X214944478Y-71580790D01*
X214966350Y-71567681D01*
X214989400Y-71556779D01*
X215013409Y-71548188D01*
X215038144Y-71541993D01*
X215063367Y-71538251D01*
X215088835Y-71537000D01*
X217979165Y-71537000D01*
X218004633Y-71538251D01*
X218004633Y-71538251D01*
G37*
D24*
X216534000Y-72329500D03*
G04 #@! TD*
D18*
G04 #@! TO.C,R9*
G36*
X214194633Y-53879251D02*
X214219856Y-53882993D01*
X214244591Y-53889188D01*
X214268600Y-53897779D01*
X214291650Y-53908681D01*
X214313522Y-53921790D01*
X214334003Y-53936980D01*
X214352896Y-53954104D01*
X214370020Y-53972997D01*
X214385210Y-53993478D01*
X214398319Y-54015350D01*
X214409221Y-54038400D01*
X214417812Y-54062409D01*
X214424007Y-54087144D01*
X214427749Y-54112367D01*
X214429000Y-54137835D01*
X214429000Y-55203165D01*
X214427749Y-55228633D01*
X214424007Y-55253856D01*
X214417812Y-55278591D01*
X214409221Y-55302600D01*
X214398319Y-55325650D01*
X214385210Y-55347522D01*
X214370020Y-55368003D01*
X214352896Y-55386896D01*
X214334003Y-55404020D01*
X214313522Y-55419210D01*
X214291650Y-55432319D01*
X214268600Y-55443221D01*
X214244591Y-55451812D01*
X214219856Y-55458007D01*
X214194633Y-55461749D01*
X214169165Y-55463000D01*
X211278835Y-55463000D01*
X211253367Y-55461749D01*
X211228144Y-55458007D01*
X211203409Y-55451812D01*
X211179400Y-55443221D01*
X211156350Y-55432319D01*
X211134478Y-55419210D01*
X211113997Y-55404020D01*
X211095104Y-55386896D01*
X211077980Y-55368003D01*
X211062790Y-55347522D01*
X211049681Y-55325650D01*
X211038779Y-55302600D01*
X211030188Y-55278591D01*
X211023993Y-55253856D01*
X211020251Y-55228633D01*
X211019000Y-55203165D01*
X211019000Y-54137835D01*
X211020251Y-54112367D01*
X211023993Y-54087144D01*
X211030188Y-54062409D01*
X211038779Y-54038400D01*
X211049681Y-54015350D01*
X211062790Y-53993478D01*
X211077980Y-53972997D01*
X211095104Y-53954104D01*
X211113997Y-53936980D01*
X211134478Y-53921790D01*
X211156350Y-53908681D01*
X211179400Y-53897779D01*
X211203409Y-53889188D01*
X211228144Y-53882993D01*
X211253367Y-53879251D01*
X211278835Y-53878000D01*
X214169165Y-53878000D01*
X214194633Y-53879251D01*
X214194633Y-53879251D01*
G37*
D24*
X212724000Y-54670500D03*
D18*
G36*
X214194633Y-59854251D02*
X214219856Y-59857993D01*
X214244591Y-59864188D01*
X214268600Y-59872779D01*
X214291650Y-59883681D01*
X214313522Y-59896790D01*
X214334003Y-59911980D01*
X214352896Y-59929104D01*
X214370020Y-59947997D01*
X214385210Y-59968478D01*
X214398319Y-59990350D01*
X214409221Y-60013400D01*
X214417812Y-60037409D01*
X214424007Y-60062144D01*
X214427749Y-60087367D01*
X214429000Y-60112835D01*
X214429000Y-61178165D01*
X214427749Y-61203633D01*
X214424007Y-61228856D01*
X214417812Y-61253591D01*
X214409221Y-61277600D01*
X214398319Y-61300650D01*
X214385210Y-61322522D01*
X214370020Y-61343003D01*
X214352896Y-61361896D01*
X214334003Y-61379020D01*
X214313522Y-61394210D01*
X214291650Y-61407319D01*
X214268600Y-61418221D01*
X214244591Y-61426812D01*
X214219856Y-61433007D01*
X214194633Y-61436749D01*
X214169165Y-61438000D01*
X211278835Y-61438000D01*
X211253367Y-61436749D01*
X211228144Y-61433007D01*
X211203409Y-61426812D01*
X211179400Y-61418221D01*
X211156350Y-61407319D01*
X211134478Y-61394210D01*
X211113997Y-61379020D01*
X211095104Y-61361896D01*
X211077980Y-61343003D01*
X211062790Y-61322522D01*
X211049681Y-61300650D01*
X211038779Y-61277600D01*
X211030188Y-61253591D01*
X211023993Y-61228856D01*
X211020251Y-61203633D01*
X211019000Y-61178165D01*
X211019000Y-60112835D01*
X211020251Y-60087367D01*
X211023993Y-60062144D01*
X211030188Y-60037409D01*
X211038779Y-60013400D01*
X211049681Y-59990350D01*
X211062790Y-59968478D01*
X211077980Y-59947997D01*
X211095104Y-59929104D01*
X211113997Y-59911980D01*
X211134478Y-59896790D01*
X211156350Y-59883681D01*
X211179400Y-59872779D01*
X211203409Y-59864188D01*
X211228144Y-59857993D01*
X211253367Y-59854251D01*
X211278835Y-59853000D01*
X214169165Y-59853000D01*
X214194633Y-59854251D01*
X214194633Y-59854251D01*
G37*
D24*
X212724000Y-60645500D03*
G04 #@! TD*
D18*
G04 #@! TO.C,R11*
G36*
X218004633Y-53879251D02*
X218029856Y-53882993D01*
X218054591Y-53889188D01*
X218078600Y-53897779D01*
X218101650Y-53908681D01*
X218123522Y-53921790D01*
X218144003Y-53936980D01*
X218162896Y-53954104D01*
X218180020Y-53972997D01*
X218195210Y-53993478D01*
X218208319Y-54015350D01*
X218219221Y-54038400D01*
X218227812Y-54062409D01*
X218234007Y-54087144D01*
X218237749Y-54112367D01*
X218239000Y-54137835D01*
X218239000Y-55203165D01*
X218237749Y-55228633D01*
X218234007Y-55253856D01*
X218227812Y-55278591D01*
X218219221Y-55302600D01*
X218208319Y-55325650D01*
X218195210Y-55347522D01*
X218180020Y-55368003D01*
X218162896Y-55386896D01*
X218144003Y-55404020D01*
X218123522Y-55419210D01*
X218101650Y-55432319D01*
X218078600Y-55443221D01*
X218054591Y-55451812D01*
X218029856Y-55458007D01*
X218004633Y-55461749D01*
X217979165Y-55463000D01*
X215088835Y-55463000D01*
X215063367Y-55461749D01*
X215038144Y-55458007D01*
X215013409Y-55451812D01*
X214989400Y-55443221D01*
X214966350Y-55432319D01*
X214944478Y-55419210D01*
X214923997Y-55404020D01*
X214905104Y-55386896D01*
X214887980Y-55368003D01*
X214872790Y-55347522D01*
X214859681Y-55325650D01*
X214848779Y-55302600D01*
X214840188Y-55278591D01*
X214833993Y-55253856D01*
X214830251Y-55228633D01*
X214829000Y-55203165D01*
X214829000Y-54137835D01*
X214830251Y-54112367D01*
X214833993Y-54087144D01*
X214840188Y-54062409D01*
X214848779Y-54038400D01*
X214859681Y-54015350D01*
X214872790Y-53993478D01*
X214887980Y-53972997D01*
X214905104Y-53954104D01*
X214923997Y-53936980D01*
X214944478Y-53921790D01*
X214966350Y-53908681D01*
X214989400Y-53897779D01*
X215013409Y-53889188D01*
X215038144Y-53882993D01*
X215063367Y-53879251D01*
X215088835Y-53878000D01*
X217979165Y-53878000D01*
X218004633Y-53879251D01*
X218004633Y-53879251D01*
G37*
D24*
X216534000Y-54670500D03*
D18*
G36*
X218004633Y-59854251D02*
X218029856Y-59857993D01*
X218054591Y-59864188D01*
X218078600Y-59872779D01*
X218101650Y-59883681D01*
X218123522Y-59896790D01*
X218144003Y-59911980D01*
X218162896Y-59929104D01*
X218180020Y-59947997D01*
X218195210Y-59968478D01*
X218208319Y-59990350D01*
X218219221Y-60013400D01*
X218227812Y-60037409D01*
X218234007Y-60062144D01*
X218237749Y-60087367D01*
X218239000Y-60112835D01*
X218239000Y-61178165D01*
X218237749Y-61203633D01*
X218234007Y-61228856D01*
X218227812Y-61253591D01*
X218219221Y-61277600D01*
X218208319Y-61300650D01*
X218195210Y-61322522D01*
X218180020Y-61343003D01*
X218162896Y-61361896D01*
X218144003Y-61379020D01*
X218123522Y-61394210D01*
X218101650Y-61407319D01*
X218078600Y-61418221D01*
X218054591Y-61426812D01*
X218029856Y-61433007D01*
X218004633Y-61436749D01*
X217979165Y-61438000D01*
X215088835Y-61438000D01*
X215063367Y-61436749D01*
X215038144Y-61433007D01*
X215013409Y-61426812D01*
X214989400Y-61418221D01*
X214966350Y-61407319D01*
X214944478Y-61394210D01*
X214923997Y-61379020D01*
X214905104Y-61361896D01*
X214887980Y-61343003D01*
X214872790Y-61322522D01*
X214859681Y-61300650D01*
X214848779Y-61277600D01*
X214840188Y-61253591D01*
X214833993Y-61228856D01*
X214830251Y-61203633D01*
X214829000Y-61178165D01*
X214829000Y-60112835D01*
X214830251Y-60087367D01*
X214833993Y-60062144D01*
X214840188Y-60037409D01*
X214848779Y-60013400D01*
X214859681Y-59990350D01*
X214872790Y-59968478D01*
X214887980Y-59947997D01*
X214905104Y-59929104D01*
X214923997Y-59911980D01*
X214944478Y-59896790D01*
X214966350Y-59883681D01*
X214989400Y-59872779D01*
X215013409Y-59864188D01*
X215038144Y-59857993D01*
X215063367Y-59854251D01*
X215088835Y-59853000D01*
X217979165Y-59853000D01*
X218004633Y-59854251D01*
X218004633Y-59854251D01*
G37*
D24*
X216534000Y-60645500D03*
G04 #@! TD*
D17*
G04 #@! TO.C,U1*
X232222000Y-66886000D03*
X233172000Y-66886000D03*
X234122000Y-66886000D03*
X234122000Y-64686000D03*
X232222000Y-64686000D03*
G04 #@! TD*
D25*
G04 #@! TO.C,U3*
X230898000Y-61128000D03*
X232898000Y-56728000D03*
X231398000Y-61128000D03*
X231898000Y-61128000D03*
X232398000Y-61128000D03*
X232898000Y-61128000D03*
X232398000Y-56728000D03*
X231898000Y-56728000D03*
X231398000Y-56728000D03*
X230898000Y-56728000D03*
G04 #@! TD*
D10*
G04 #@! TO.C,TP1*
X162814000Y-54102000D03*
G04 #@! TD*
G04 #@! TO.C,TP2*
X160274000Y-74422000D03*
G04 #@! TD*
G04 #@! TO.C,TP3*
X170688000Y-74930000D03*
G04 #@! TD*
G04 #@! TO.C,TP4*
X187706000Y-73914000D03*
G04 #@! TD*
G04 #@! TO.C,TP5*
X218567000Y-52197000D03*
G04 #@! TD*
G04 #@! TO.C,TP6*
X241046000Y-53594000D03*
G04 #@! TD*
G04 #@! TO.C,TP7*
X207518000Y-59182000D03*
G04 #@! TD*
D18*
G04 #@! TO.C,R13*
G36*
X193080162Y-62500126D02*
X193102852Y-62503491D01*
X193125104Y-62509065D01*
X193146702Y-62516793D01*
X193167439Y-62526601D01*
X193187115Y-62538394D01*
X193205539Y-62552059D01*
X193222536Y-62567464D01*
X193237941Y-62584461D01*
X193251606Y-62602885D01*
X193263399Y-62622561D01*
X193273207Y-62643298D01*
X193280935Y-62664896D01*
X193286509Y-62687148D01*
X193289874Y-62709838D01*
X193291000Y-62732750D01*
X193291000Y-63200250D01*
X193289874Y-63223162D01*
X193286509Y-63245852D01*
X193280935Y-63268104D01*
X193273207Y-63289702D01*
X193263399Y-63310439D01*
X193251606Y-63330115D01*
X193237941Y-63348539D01*
X193222536Y-63365536D01*
X193205539Y-63380941D01*
X193187115Y-63394606D01*
X193167439Y-63406399D01*
X193146702Y-63416207D01*
X193125104Y-63423935D01*
X193102852Y-63429509D01*
X193080162Y-63432874D01*
X193057250Y-63434000D01*
X192514750Y-63434000D01*
X192491838Y-63432874D01*
X192469148Y-63429509D01*
X192446896Y-63423935D01*
X192425298Y-63416207D01*
X192404561Y-63406399D01*
X192384885Y-63394606D01*
X192366461Y-63380941D01*
X192349464Y-63365536D01*
X192334059Y-63348539D01*
X192320394Y-63330115D01*
X192308601Y-63310439D01*
X192298793Y-63289702D01*
X192291065Y-63268104D01*
X192285491Y-63245852D01*
X192282126Y-63223162D01*
X192281000Y-63200250D01*
X192281000Y-62732750D01*
X192282126Y-62709838D01*
X192285491Y-62687148D01*
X192291065Y-62664896D01*
X192298793Y-62643298D01*
X192308601Y-62622561D01*
X192320394Y-62602885D01*
X192334059Y-62584461D01*
X192349464Y-62567464D01*
X192366461Y-62552059D01*
X192384885Y-62538394D01*
X192404561Y-62526601D01*
X192425298Y-62516793D01*
X192446896Y-62509065D01*
X192469148Y-62503491D01*
X192491838Y-62500126D01*
X192514750Y-62499000D01*
X193057250Y-62499000D01*
X193080162Y-62500126D01*
X193080162Y-62500126D01*
G37*
D20*
X192786000Y-62966500D03*
D18*
G36*
X193080162Y-64075126D02*
X193102852Y-64078491D01*
X193125104Y-64084065D01*
X193146702Y-64091793D01*
X193167439Y-64101601D01*
X193187115Y-64113394D01*
X193205539Y-64127059D01*
X193222536Y-64142464D01*
X193237941Y-64159461D01*
X193251606Y-64177885D01*
X193263399Y-64197561D01*
X193273207Y-64218298D01*
X193280935Y-64239896D01*
X193286509Y-64262148D01*
X193289874Y-64284838D01*
X193291000Y-64307750D01*
X193291000Y-64775250D01*
X193289874Y-64798162D01*
X193286509Y-64820852D01*
X193280935Y-64843104D01*
X193273207Y-64864702D01*
X193263399Y-64885439D01*
X193251606Y-64905115D01*
X193237941Y-64923539D01*
X193222536Y-64940536D01*
X193205539Y-64955941D01*
X193187115Y-64969606D01*
X193167439Y-64981399D01*
X193146702Y-64991207D01*
X193125104Y-64998935D01*
X193102852Y-65004509D01*
X193080162Y-65007874D01*
X193057250Y-65009000D01*
X192514750Y-65009000D01*
X192491838Y-65007874D01*
X192469148Y-65004509D01*
X192446896Y-64998935D01*
X192425298Y-64991207D01*
X192404561Y-64981399D01*
X192384885Y-64969606D01*
X192366461Y-64955941D01*
X192349464Y-64940536D01*
X192334059Y-64923539D01*
X192320394Y-64905115D01*
X192308601Y-64885439D01*
X192298793Y-64864702D01*
X192291065Y-64843104D01*
X192285491Y-64820852D01*
X192282126Y-64798162D01*
X192281000Y-64775250D01*
X192281000Y-64307750D01*
X192282126Y-64284838D01*
X192285491Y-64262148D01*
X192291065Y-64239896D01*
X192298793Y-64218298D01*
X192308601Y-64197561D01*
X192320394Y-64177885D01*
X192334059Y-64159461D01*
X192349464Y-64142464D01*
X192366461Y-64127059D01*
X192384885Y-64113394D01*
X192404561Y-64101601D01*
X192425298Y-64091793D01*
X192446896Y-64084065D01*
X192469148Y-64078491D01*
X192491838Y-64075126D01*
X192514750Y-64074000D01*
X193057250Y-64074000D01*
X193080162Y-64075126D01*
X193080162Y-64075126D01*
G37*
D20*
X192786000Y-64541500D03*
G04 #@! TD*
D18*
G04 #@! TO.C,R14*
G36*
X202986162Y-64075126D02*
X203008852Y-64078491D01*
X203031104Y-64084065D01*
X203052702Y-64091793D01*
X203073439Y-64101601D01*
X203093115Y-64113394D01*
X203111539Y-64127059D01*
X203128536Y-64142464D01*
X203143941Y-64159461D01*
X203157606Y-64177885D01*
X203169399Y-64197561D01*
X203179207Y-64218298D01*
X203186935Y-64239896D01*
X203192509Y-64262148D01*
X203195874Y-64284838D01*
X203197000Y-64307750D01*
X203197000Y-64775250D01*
X203195874Y-64798162D01*
X203192509Y-64820852D01*
X203186935Y-64843104D01*
X203179207Y-64864702D01*
X203169399Y-64885439D01*
X203157606Y-64905115D01*
X203143941Y-64923539D01*
X203128536Y-64940536D01*
X203111539Y-64955941D01*
X203093115Y-64969606D01*
X203073439Y-64981399D01*
X203052702Y-64991207D01*
X203031104Y-64998935D01*
X203008852Y-65004509D01*
X202986162Y-65007874D01*
X202963250Y-65009000D01*
X202420750Y-65009000D01*
X202397838Y-65007874D01*
X202375148Y-65004509D01*
X202352896Y-64998935D01*
X202331298Y-64991207D01*
X202310561Y-64981399D01*
X202290885Y-64969606D01*
X202272461Y-64955941D01*
X202255464Y-64940536D01*
X202240059Y-64923539D01*
X202226394Y-64905115D01*
X202214601Y-64885439D01*
X202204793Y-64864702D01*
X202197065Y-64843104D01*
X202191491Y-64820852D01*
X202188126Y-64798162D01*
X202187000Y-64775250D01*
X202187000Y-64307750D01*
X202188126Y-64284838D01*
X202191491Y-64262148D01*
X202197065Y-64239896D01*
X202204793Y-64218298D01*
X202214601Y-64197561D01*
X202226394Y-64177885D01*
X202240059Y-64159461D01*
X202255464Y-64142464D01*
X202272461Y-64127059D01*
X202290885Y-64113394D01*
X202310561Y-64101601D01*
X202331298Y-64091793D01*
X202352896Y-64084065D01*
X202375148Y-64078491D01*
X202397838Y-64075126D01*
X202420750Y-64074000D01*
X202963250Y-64074000D01*
X202986162Y-64075126D01*
X202986162Y-64075126D01*
G37*
D20*
X202692000Y-64541500D03*
D18*
G36*
X202986162Y-62500126D02*
X203008852Y-62503491D01*
X203031104Y-62509065D01*
X203052702Y-62516793D01*
X203073439Y-62526601D01*
X203093115Y-62538394D01*
X203111539Y-62552059D01*
X203128536Y-62567464D01*
X203143941Y-62584461D01*
X203157606Y-62602885D01*
X203169399Y-62622561D01*
X203179207Y-62643298D01*
X203186935Y-62664896D01*
X203192509Y-62687148D01*
X203195874Y-62709838D01*
X203197000Y-62732750D01*
X203197000Y-63200250D01*
X203195874Y-63223162D01*
X203192509Y-63245852D01*
X203186935Y-63268104D01*
X203179207Y-63289702D01*
X203169399Y-63310439D01*
X203157606Y-63330115D01*
X203143941Y-63348539D01*
X203128536Y-63365536D01*
X203111539Y-63380941D01*
X203093115Y-63394606D01*
X203073439Y-63406399D01*
X203052702Y-63416207D01*
X203031104Y-63423935D01*
X203008852Y-63429509D01*
X202986162Y-63432874D01*
X202963250Y-63434000D01*
X202420750Y-63434000D01*
X202397838Y-63432874D01*
X202375148Y-63429509D01*
X202352896Y-63423935D01*
X202331298Y-63416207D01*
X202310561Y-63406399D01*
X202290885Y-63394606D01*
X202272461Y-63380941D01*
X202255464Y-63365536D01*
X202240059Y-63348539D01*
X202226394Y-63330115D01*
X202214601Y-63310439D01*
X202204793Y-63289702D01*
X202197065Y-63268104D01*
X202191491Y-63245852D01*
X202188126Y-63223162D01*
X202187000Y-63200250D01*
X202187000Y-62732750D01*
X202188126Y-62709838D01*
X202191491Y-62687148D01*
X202197065Y-62664896D01*
X202204793Y-62643298D01*
X202214601Y-62622561D01*
X202226394Y-62602885D01*
X202240059Y-62584461D01*
X202255464Y-62567464D01*
X202272461Y-62552059D01*
X202290885Y-62538394D01*
X202310561Y-62526601D01*
X202331298Y-62516793D01*
X202352896Y-62509065D01*
X202375148Y-62503491D01*
X202397838Y-62500126D01*
X202420750Y-62499000D01*
X202963250Y-62499000D01*
X202986162Y-62500126D01*
X202986162Y-62500126D01*
G37*
D20*
X202692000Y-62966500D03*
G04 #@! TD*
D18*
G04 #@! TO.C,R15*
G36*
X212066162Y-62525626D02*
X212088852Y-62528991D01*
X212111104Y-62534565D01*
X212132702Y-62542293D01*
X212153439Y-62552101D01*
X212173115Y-62563894D01*
X212191539Y-62577559D01*
X212208536Y-62592964D01*
X212223941Y-62609961D01*
X212237606Y-62628385D01*
X212249399Y-62648061D01*
X212259207Y-62668798D01*
X212266935Y-62690396D01*
X212272509Y-62712648D01*
X212275874Y-62735338D01*
X212277000Y-62758250D01*
X212277000Y-63225750D01*
X212275874Y-63248662D01*
X212272509Y-63271352D01*
X212266935Y-63293604D01*
X212259207Y-63315202D01*
X212249399Y-63335939D01*
X212237606Y-63355615D01*
X212223941Y-63374039D01*
X212208536Y-63391036D01*
X212191539Y-63406441D01*
X212173115Y-63420106D01*
X212153439Y-63431899D01*
X212132702Y-63441707D01*
X212111104Y-63449435D01*
X212088852Y-63455009D01*
X212066162Y-63458374D01*
X212043250Y-63459500D01*
X211500750Y-63459500D01*
X211477838Y-63458374D01*
X211455148Y-63455009D01*
X211432896Y-63449435D01*
X211411298Y-63441707D01*
X211390561Y-63431899D01*
X211370885Y-63420106D01*
X211352461Y-63406441D01*
X211335464Y-63391036D01*
X211320059Y-63374039D01*
X211306394Y-63355615D01*
X211294601Y-63335939D01*
X211284793Y-63315202D01*
X211277065Y-63293604D01*
X211271491Y-63271352D01*
X211268126Y-63248662D01*
X211267000Y-63225750D01*
X211267000Y-62758250D01*
X211268126Y-62735338D01*
X211271491Y-62712648D01*
X211277065Y-62690396D01*
X211284793Y-62668798D01*
X211294601Y-62648061D01*
X211306394Y-62628385D01*
X211320059Y-62609961D01*
X211335464Y-62592964D01*
X211352461Y-62577559D01*
X211370885Y-62563894D01*
X211390561Y-62552101D01*
X211411298Y-62542293D01*
X211432896Y-62534565D01*
X211455148Y-62528991D01*
X211477838Y-62525626D01*
X211500750Y-62524500D01*
X212043250Y-62524500D01*
X212066162Y-62525626D01*
X212066162Y-62525626D01*
G37*
D20*
X211772000Y-62992000D03*
D18*
G36*
X212066162Y-64100626D02*
X212088852Y-64103991D01*
X212111104Y-64109565D01*
X212132702Y-64117293D01*
X212153439Y-64127101D01*
X212173115Y-64138894D01*
X212191539Y-64152559D01*
X212208536Y-64167964D01*
X212223941Y-64184961D01*
X212237606Y-64203385D01*
X212249399Y-64223061D01*
X212259207Y-64243798D01*
X212266935Y-64265396D01*
X212272509Y-64287648D01*
X212275874Y-64310338D01*
X212277000Y-64333250D01*
X212277000Y-64800750D01*
X212275874Y-64823662D01*
X212272509Y-64846352D01*
X212266935Y-64868604D01*
X212259207Y-64890202D01*
X212249399Y-64910939D01*
X212237606Y-64930615D01*
X212223941Y-64949039D01*
X212208536Y-64966036D01*
X212191539Y-64981441D01*
X212173115Y-64995106D01*
X212153439Y-65006899D01*
X212132702Y-65016707D01*
X212111104Y-65024435D01*
X212088852Y-65030009D01*
X212066162Y-65033374D01*
X212043250Y-65034500D01*
X211500750Y-65034500D01*
X211477838Y-65033374D01*
X211455148Y-65030009D01*
X211432896Y-65024435D01*
X211411298Y-65016707D01*
X211390561Y-65006899D01*
X211370885Y-64995106D01*
X211352461Y-64981441D01*
X211335464Y-64966036D01*
X211320059Y-64949039D01*
X211306394Y-64930615D01*
X211294601Y-64910939D01*
X211284793Y-64890202D01*
X211277065Y-64868604D01*
X211271491Y-64846352D01*
X211268126Y-64823662D01*
X211267000Y-64800750D01*
X211267000Y-64333250D01*
X211268126Y-64310338D01*
X211271491Y-64287648D01*
X211277065Y-64265396D01*
X211284793Y-64243798D01*
X211294601Y-64223061D01*
X211306394Y-64203385D01*
X211320059Y-64184961D01*
X211335464Y-64167964D01*
X211352461Y-64152559D01*
X211370885Y-64138894D01*
X211390561Y-64127101D01*
X211411298Y-64117293D01*
X211432896Y-64109565D01*
X211455148Y-64103991D01*
X211477838Y-64100626D01*
X211500750Y-64099500D01*
X212043250Y-64099500D01*
X212066162Y-64100626D01*
X212066162Y-64100626D01*
G37*
D20*
X211772000Y-64567000D03*
G04 #@! TD*
D18*
G04 #@! TO.C,R16*
G36*
X222036162Y-64075126D02*
X222058852Y-64078491D01*
X222081104Y-64084065D01*
X222102702Y-64091793D01*
X222123439Y-64101601D01*
X222143115Y-64113394D01*
X222161539Y-64127059D01*
X222178536Y-64142464D01*
X222193941Y-64159461D01*
X222207606Y-64177885D01*
X222219399Y-64197561D01*
X222229207Y-64218298D01*
X222236935Y-64239896D01*
X222242509Y-64262148D01*
X222245874Y-64284838D01*
X222247000Y-64307750D01*
X222247000Y-64775250D01*
X222245874Y-64798162D01*
X222242509Y-64820852D01*
X222236935Y-64843104D01*
X222229207Y-64864702D01*
X222219399Y-64885439D01*
X222207606Y-64905115D01*
X222193941Y-64923539D01*
X222178536Y-64940536D01*
X222161539Y-64955941D01*
X222143115Y-64969606D01*
X222123439Y-64981399D01*
X222102702Y-64991207D01*
X222081104Y-64998935D01*
X222058852Y-65004509D01*
X222036162Y-65007874D01*
X222013250Y-65009000D01*
X221470750Y-65009000D01*
X221447838Y-65007874D01*
X221425148Y-65004509D01*
X221402896Y-64998935D01*
X221381298Y-64991207D01*
X221360561Y-64981399D01*
X221340885Y-64969606D01*
X221322461Y-64955941D01*
X221305464Y-64940536D01*
X221290059Y-64923539D01*
X221276394Y-64905115D01*
X221264601Y-64885439D01*
X221254793Y-64864702D01*
X221247065Y-64843104D01*
X221241491Y-64820852D01*
X221238126Y-64798162D01*
X221237000Y-64775250D01*
X221237000Y-64307750D01*
X221238126Y-64284838D01*
X221241491Y-64262148D01*
X221247065Y-64239896D01*
X221254793Y-64218298D01*
X221264601Y-64197561D01*
X221276394Y-64177885D01*
X221290059Y-64159461D01*
X221305464Y-64142464D01*
X221322461Y-64127059D01*
X221340885Y-64113394D01*
X221360561Y-64101601D01*
X221381298Y-64091793D01*
X221402896Y-64084065D01*
X221425148Y-64078491D01*
X221447838Y-64075126D01*
X221470750Y-64074000D01*
X222013250Y-64074000D01*
X222036162Y-64075126D01*
X222036162Y-64075126D01*
G37*
D20*
X221742000Y-64541500D03*
D18*
G36*
X222036162Y-62500126D02*
X222058852Y-62503491D01*
X222081104Y-62509065D01*
X222102702Y-62516793D01*
X222123439Y-62526601D01*
X222143115Y-62538394D01*
X222161539Y-62552059D01*
X222178536Y-62567464D01*
X222193941Y-62584461D01*
X222207606Y-62602885D01*
X222219399Y-62622561D01*
X222229207Y-62643298D01*
X222236935Y-62664896D01*
X222242509Y-62687148D01*
X222245874Y-62709838D01*
X222247000Y-62732750D01*
X222247000Y-63200250D01*
X222245874Y-63223162D01*
X222242509Y-63245852D01*
X222236935Y-63268104D01*
X222229207Y-63289702D01*
X222219399Y-63310439D01*
X222207606Y-63330115D01*
X222193941Y-63348539D01*
X222178536Y-63365536D01*
X222161539Y-63380941D01*
X222143115Y-63394606D01*
X222123439Y-63406399D01*
X222102702Y-63416207D01*
X222081104Y-63423935D01*
X222058852Y-63429509D01*
X222036162Y-63432874D01*
X222013250Y-63434000D01*
X221470750Y-63434000D01*
X221447838Y-63432874D01*
X221425148Y-63429509D01*
X221402896Y-63423935D01*
X221381298Y-63416207D01*
X221360561Y-63406399D01*
X221340885Y-63394606D01*
X221322461Y-63380941D01*
X221305464Y-63365536D01*
X221290059Y-63348539D01*
X221276394Y-63330115D01*
X221264601Y-63310439D01*
X221254793Y-63289702D01*
X221247065Y-63268104D01*
X221241491Y-63245852D01*
X221238126Y-63223162D01*
X221237000Y-63200250D01*
X221237000Y-62732750D01*
X221238126Y-62709838D01*
X221241491Y-62687148D01*
X221247065Y-62664896D01*
X221254793Y-62643298D01*
X221264601Y-62622561D01*
X221276394Y-62602885D01*
X221290059Y-62584461D01*
X221305464Y-62567464D01*
X221322461Y-62552059D01*
X221340885Y-62538394D01*
X221360561Y-62526601D01*
X221381298Y-62516793D01*
X221402896Y-62509065D01*
X221425148Y-62503491D01*
X221447838Y-62500126D01*
X221470750Y-62499000D01*
X222013250Y-62499000D01*
X222036162Y-62500126D01*
X222036162Y-62500126D01*
G37*
D20*
X221742000Y-62966500D03*
G04 #@! TD*
D18*
G04 #@! TO.C,R17*
G36*
X202892633Y-71538251D02*
X202917856Y-71541993D01*
X202942591Y-71548188D01*
X202966600Y-71556779D01*
X202989650Y-71567681D01*
X203011522Y-71580790D01*
X203032003Y-71595980D01*
X203050896Y-71613104D01*
X203068020Y-71631997D01*
X203083210Y-71652478D01*
X203096319Y-71674350D01*
X203107221Y-71697400D01*
X203115812Y-71721409D01*
X203122007Y-71746144D01*
X203125749Y-71771367D01*
X203127000Y-71796835D01*
X203127000Y-72862165D01*
X203125749Y-72887633D01*
X203122007Y-72912856D01*
X203115812Y-72937591D01*
X203107221Y-72961600D01*
X203096319Y-72984650D01*
X203083210Y-73006522D01*
X203068020Y-73027003D01*
X203050896Y-73045896D01*
X203032003Y-73063020D01*
X203011522Y-73078210D01*
X202989650Y-73091319D01*
X202966600Y-73102221D01*
X202942591Y-73110812D01*
X202917856Y-73117007D01*
X202892633Y-73120749D01*
X202867165Y-73122000D01*
X199976835Y-73122000D01*
X199951367Y-73120749D01*
X199926144Y-73117007D01*
X199901409Y-73110812D01*
X199877400Y-73102221D01*
X199854350Y-73091319D01*
X199832478Y-73078210D01*
X199811997Y-73063020D01*
X199793104Y-73045896D01*
X199775980Y-73027003D01*
X199760790Y-73006522D01*
X199747681Y-72984650D01*
X199736779Y-72961600D01*
X199728188Y-72937591D01*
X199721993Y-72912856D01*
X199718251Y-72887633D01*
X199717000Y-72862165D01*
X199717000Y-71796835D01*
X199718251Y-71771367D01*
X199721993Y-71746144D01*
X199728188Y-71721409D01*
X199736779Y-71697400D01*
X199747681Y-71674350D01*
X199760790Y-71652478D01*
X199775980Y-71631997D01*
X199793104Y-71613104D01*
X199811997Y-71595980D01*
X199832478Y-71580790D01*
X199854350Y-71567681D01*
X199877400Y-71556779D01*
X199901409Y-71548188D01*
X199926144Y-71541993D01*
X199951367Y-71538251D01*
X199976835Y-71537000D01*
X202867165Y-71537000D01*
X202892633Y-71538251D01*
X202892633Y-71538251D01*
G37*
D24*
X201422000Y-72329500D03*
D18*
G36*
X202892633Y-65563251D02*
X202917856Y-65566993D01*
X202942591Y-65573188D01*
X202966600Y-65581779D01*
X202989650Y-65592681D01*
X203011522Y-65605790D01*
X203032003Y-65620980D01*
X203050896Y-65638104D01*
X203068020Y-65656997D01*
X203083210Y-65677478D01*
X203096319Y-65699350D01*
X203107221Y-65722400D01*
X203115812Y-65746409D01*
X203122007Y-65771144D01*
X203125749Y-65796367D01*
X203127000Y-65821835D01*
X203127000Y-66887165D01*
X203125749Y-66912633D01*
X203122007Y-66937856D01*
X203115812Y-66962591D01*
X203107221Y-66986600D01*
X203096319Y-67009650D01*
X203083210Y-67031522D01*
X203068020Y-67052003D01*
X203050896Y-67070896D01*
X203032003Y-67088020D01*
X203011522Y-67103210D01*
X202989650Y-67116319D01*
X202966600Y-67127221D01*
X202942591Y-67135812D01*
X202917856Y-67142007D01*
X202892633Y-67145749D01*
X202867165Y-67147000D01*
X199976835Y-67147000D01*
X199951367Y-67145749D01*
X199926144Y-67142007D01*
X199901409Y-67135812D01*
X199877400Y-67127221D01*
X199854350Y-67116319D01*
X199832478Y-67103210D01*
X199811997Y-67088020D01*
X199793104Y-67070896D01*
X199775980Y-67052003D01*
X199760790Y-67031522D01*
X199747681Y-67009650D01*
X199736779Y-66986600D01*
X199728188Y-66962591D01*
X199721993Y-66937856D01*
X199718251Y-66912633D01*
X199717000Y-66887165D01*
X199717000Y-65821835D01*
X199718251Y-65796367D01*
X199721993Y-65771144D01*
X199728188Y-65746409D01*
X199736779Y-65722400D01*
X199747681Y-65699350D01*
X199760790Y-65677478D01*
X199775980Y-65656997D01*
X199793104Y-65638104D01*
X199811997Y-65620980D01*
X199832478Y-65605790D01*
X199854350Y-65592681D01*
X199877400Y-65581779D01*
X199901409Y-65573188D01*
X199926144Y-65566993D01*
X199951367Y-65563251D01*
X199976835Y-65562000D01*
X202867165Y-65562000D01*
X202892633Y-65563251D01*
X202892633Y-65563251D01*
G37*
D24*
X201422000Y-66354500D03*
G04 #@! TD*
D18*
G04 #@! TO.C,R18*
G36*
X202892633Y-59854251D02*
X202917856Y-59857993D01*
X202942591Y-59864188D01*
X202966600Y-59872779D01*
X202989650Y-59883681D01*
X203011522Y-59896790D01*
X203032003Y-59911980D01*
X203050896Y-59929104D01*
X203068020Y-59947997D01*
X203083210Y-59968478D01*
X203096319Y-59990350D01*
X203107221Y-60013400D01*
X203115812Y-60037409D01*
X203122007Y-60062144D01*
X203125749Y-60087367D01*
X203127000Y-60112835D01*
X203127000Y-61178165D01*
X203125749Y-61203633D01*
X203122007Y-61228856D01*
X203115812Y-61253591D01*
X203107221Y-61277600D01*
X203096319Y-61300650D01*
X203083210Y-61322522D01*
X203068020Y-61343003D01*
X203050896Y-61361896D01*
X203032003Y-61379020D01*
X203011522Y-61394210D01*
X202989650Y-61407319D01*
X202966600Y-61418221D01*
X202942591Y-61426812D01*
X202917856Y-61433007D01*
X202892633Y-61436749D01*
X202867165Y-61438000D01*
X199976835Y-61438000D01*
X199951367Y-61436749D01*
X199926144Y-61433007D01*
X199901409Y-61426812D01*
X199877400Y-61418221D01*
X199854350Y-61407319D01*
X199832478Y-61394210D01*
X199811997Y-61379020D01*
X199793104Y-61361896D01*
X199775980Y-61343003D01*
X199760790Y-61322522D01*
X199747681Y-61300650D01*
X199736779Y-61277600D01*
X199728188Y-61253591D01*
X199721993Y-61228856D01*
X199718251Y-61203633D01*
X199717000Y-61178165D01*
X199717000Y-60112835D01*
X199718251Y-60087367D01*
X199721993Y-60062144D01*
X199728188Y-60037409D01*
X199736779Y-60013400D01*
X199747681Y-59990350D01*
X199760790Y-59968478D01*
X199775980Y-59947997D01*
X199793104Y-59929104D01*
X199811997Y-59911980D01*
X199832478Y-59896790D01*
X199854350Y-59883681D01*
X199877400Y-59872779D01*
X199901409Y-59864188D01*
X199926144Y-59857993D01*
X199951367Y-59854251D01*
X199976835Y-59853000D01*
X202867165Y-59853000D01*
X202892633Y-59854251D01*
X202892633Y-59854251D01*
G37*
D24*
X201422000Y-60645500D03*
D18*
G36*
X202892633Y-53879251D02*
X202917856Y-53882993D01*
X202942591Y-53889188D01*
X202966600Y-53897779D01*
X202989650Y-53908681D01*
X203011522Y-53921790D01*
X203032003Y-53936980D01*
X203050896Y-53954104D01*
X203068020Y-53972997D01*
X203083210Y-53993478D01*
X203096319Y-54015350D01*
X203107221Y-54038400D01*
X203115812Y-54062409D01*
X203122007Y-54087144D01*
X203125749Y-54112367D01*
X203127000Y-54137835D01*
X203127000Y-55203165D01*
X203125749Y-55228633D01*
X203122007Y-55253856D01*
X203115812Y-55278591D01*
X203107221Y-55302600D01*
X203096319Y-55325650D01*
X203083210Y-55347522D01*
X203068020Y-55368003D01*
X203050896Y-55386896D01*
X203032003Y-55404020D01*
X203011522Y-55419210D01*
X202989650Y-55432319D01*
X202966600Y-55443221D01*
X202942591Y-55451812D01*
X202917856Y-55458007D01*
X202892633Y-55461749D01*
X202867165Y-55463000D01*
X199976835Y-55463000D01*
X199951367Y-55461749D01*
X199926144Y-55458007D01*
X199901409Y-55451812D01*
X199877400Y-55443221D01*
X199854350Y-55432319D01*
X199832478Y-55419210D01*
X199811997Y-55404020D01*
X199793104Y-55386896D01*
X199775980Y-55368003D01*
X199760790Y-55347522D01*
X199747681Y-55325650D01*
X199736779Y-55302600D01*
X199728188Y-55278591D01*
X199721993Y-55253856D01*
X199718251Y-55228633D01*
X199717000Y-55203165D01*
X199717000Y-54137835D01*
X199718251Y-54112367D01*
X199721993Y-54087144D01*
X199728188Y-54062409D01*
X199736779Y-54038400D01*
X199747681Y-54015350D01*
X199760790Y-53993478D01*
X199775980Y-53972997D01*
X199793104Y-53954104D01*
X199811997Y-53936980D01*
X199832478Y-53921790D01*
X199854350Y-53908681D01*
X199877400Y-53897779D01*
X199901409Y-53889188D01*
X199926144Y-53882993D01*
X199951367Y-53879251D01*
X199976835Y-53878000D01*
X202867165Y-53878000D01*
X202892633Y-53879251D01*
X202892633Y-53879251D01*
G37*
D24*
X201422000Y-54670500D03*
G04 #@! TD*
D18*
G04 #@! TO.C,R19*
G36*
X221878633Y-71538251D02*
X221903856Y-71541993D01*
X221928591Y-71548188D01*
X221952600Y-71556779D01*
X221975650Y-71567681D01*
X221997522Y-71580790D01*
X222018003Y-71595980D01*
X222036896Y-71613104D01*
X222054020Y-71631997D01*
X222069210Y-71652478D01*
X222082319Y-71674350D01*
X222093221Y-71697400D01*
X222101812Y-71721409D01*
X222108007Y-71746144D01*
X222111749Y-71771367D01*
X222113000Y-71796835D01*
X222113000Y-72862165D01*
X222111749Y-72887633D01*
X222108007Y-72912856D01*
X222101812Y-72937591D01*
X222093221Y-72961600D01*
X222082319Y-72984650D01*
X222069210Y-73006522D01*
X222054020Y-73027003D01*
X222036896Y-73045896D01*
X222018003Y-73063020D01*
X221997522Y-73078210D01*
X221975650Y-73091319D01*
X221952600Y-73102221D01*
X221928591Y-73110812D01*
X221903856Y-73117007D01*
X221878633Y-73120749D01*
X221853165Y-73122000D01*
X218962835Y-73122000D01*
X218937367Y-73120749D01*
X218912144Y-73117007D01*
X218887409Y-73110812D01*
X218863400Y-73102221D01*
X218840350Y-73091319D01*
X218818478Y-73078210D01*
X218797997Y-73063020D01*
X218779104Y-73045896D01*
X218761980Y-73027003D01*
X218746790Y-73006522D01*
X218733681Y-72984650D01*
X218722779Y-72961600D01*
X218714188Y-72937591D01*
X218707993Y-72912856D01*
X218704251Y-72887633D01*
X218703000Y-72862165D01*
X218703000Y-71796835D01*
X218704251Y-71771367D01*
X218707993Y-71746144D01*
X218714188Y-71721409D01*
X218722779Y-71697400D01*
X218733681Y-71674350D01*
X218746790Y-71652478D01*
X218761980Y-71631997D01*
X218779104Y-71613104D01*
X218797997Y-71595980D01*
X218818478Y-71580790D01*
X218840350Y-71567681D01*
X218863400Y-71556779D01*
X218887409Y-71548188D01*
X218912144Y-71541993D01*
X218937367Y-71538251D01*
X218962835Y-71537000D01*
X221853165Y-71537000D01*
X221878633Y-71538251D01*
X221878633Y-71538251D01*
G37*
D24*
X220408000Y-72329500D03*
D18*
G36*
X221878633Y-65563251D02*
X221903856Y-65566993D01*
X221928591Y-65573188D01*
X221952600Y-65581779D01*
X221975650Y-65592681D01*
X221997522Y-65605790D01*
X222018003Y-65620980D01*
X222036896Y-65638104D01*
X222054020Y-65656997D01*
X222069210Y-65677478D01*
X222082319Y-65699350D01*
X222093221Y-65722400D01*
X222101812Y-65746409D01*
X222108007Y-65771144D01*
X222111749Y-65796367D01*
X222113000Y-65821835D01*
X222113000Y-66887165D01*
X222111749Y-66912633D01*
X222108007Y-66937856D01*
X222101812Y-66962591D01*
X222093221Y-66986600D01*
X222082319Y-67009650D01*
X222069210Y-67031522D01*
X222054020Y-67052003D01*
X222036896Y-67070896D01*
X222018003Y-67088020D01*
X221997522Y-67103210D01*
X221975650Y-67116319D01*
X221952600Y-67127221D01*
X221928591Y-67135812D01*
X221903856Y-67142007D01*
X221878633Y-67145749D01*
X221853165Y-67147000D01*
X218962835Y-67147000D01*
X218937367Y-67145749D01*
X218912144Y-67142007D01*
X218887409Y-67135812D01*
X218863400Y-67127221D01*
X218840350Y-67116319D01*
X218818478Y-67103210D01*
X218797997Y-67088020D01*
X218779104Y-67070896D01*
X218761980Y-67052003D01*
X218746790Y-67031522D01*
X218733681Y-67009650D01*
X218722779Y-66986600D01*
X218714188Y-66962591D01*
X218707993Y-66937856D01*
X218704251Y-66912633D01*
X218703000Y-66887165D01*
X218703000Y-65821835D01*
X218704251Y-65796367D01*
X218707993Y-65771144D01*
X218714188Y-65746409D01*
X218722779Y-65722400D01*
X218733681Y-65699350D01*
X218746790Y-65677478D01*
X218761980Y-65656997D01*
X218779104Y-65638104D01*
X218797997Y-65620980D01*
X218818478Y-65605790D01*
X218840350Y-65592681D01*
X218863400Y-65581779D01*
X218887409Y-65573188D01*
X218912144Y-65566993D01*
X218937367Y-65563251D01*
X218962835Y-65562000D01*
X221853165Y-65562000D01*
X221878633Y-65563251D01*
X221878633Y-65563251D01*
G37*
D24*
X220408000Y-66354500D03*
G04 #@! TD*
D18*
G04 #@! TO.C,R20*
G36*
X221878633Y-59854251D02*
X221903856Y-59857993D01*
X221928591Y-59864188D01*
X221952600Y-59872779D01*
X221975650Y-59883681D01*
X221997522Y-59896790D01*
X222018003Y-59911980D01*
X222036896Y-59929104D01*
X222054020Y-59947997D01*
X222069210Y-59968478D01*
X222082319Y-59990350D01*
X222093221Y-60013400D01*
X222101812Y-60037409D01*
X222108007Y-60062144D01*
X222111749Y-60087367D01*
X222113000Y-60112835D01*
X222113000Y-61178165D01*
X222111749Y-61203633D01*
X222108007Y-61228856D01*
X222101812Y-61253591D01*
X222093221Y-61277600D01*
X222082319Y-61300650D01*
X222069210Y-61322522D01*
X222054020Y-61343003D01*
X222036896Y-61361896D01*
X222018003Y-61379020D01*
X221997522Y-61394210D01*
X221975650Y-61407319D01*
X221952600Y-61418221D01*
X221928591Y-61426812D01*
X221903856Y-61433007D01*
X221878633Y-61436749D01*
X221853165Y-61438000D01*
X218962835Y-61438000D01*
X218937367Y-61436749D01*
X218912144Y-61433007D01*
X218887409Y-61426812D01*
X218863400Y-61418221D01*
X218840350Y-61407319D01*
X218818478Y-61394210D01*
X218797997Y-61379020D01*
X218779104Y-61361896D01*
X218761980Y-61343003D01*
X218746790Y-61322522D01*
X218733681Y-61300650D01*
X218722779Y-61277600D01*
X218714188Y-61253591D01*
X218707993Y-61228856D01*
X218704251Y-61203633D01*
X218703000Y-61178165D01*
X218703000Y-60112835D01*
X218704251Y-60087367D01*
X218707993Y-60062144D01*
X218714188Y-60037409D01*
X218722779Y-60013400D01*
X218733681Y-59990350D01*
X218746790Y-59968478D01*
X218761980Y-59947997D01*
X218779104Y-59929104D01*
X218797997Y-59911980D01*
X218818478Y-59896790D01*
X218840350Y-59883681D01*
X218863400Y-59872779D01*
X218887409Y-59864188D01*
X218912144Y-59857993D01*
X218937367Y-59854251D01*
X218962835Y-59853000D01*
X221853165Y-59853000D01*
X221878633Y-59854251D01*
X221878633Y-59854251D01*
G37*
D24*
X220408000Y-60645500D03*
D18*
G36*
X221878633Y-53879251D02*
X221903856Y-53882993D01*
X221928591Y-53889188D01*
X221952600Y-53897779D01*
X221975650Y-53908681D01*
X221997522Y-53921790D01*
X222018003Y-53936980D01*
X222036896Y-53954104D01*
X222054020Y-53972997D01*
X222069210Y-53993478D01*
X222082319Y-54015350D01*
X222093221Y-54038400D01*
X222101812Y-54062409D01*
X222108007Y-54087144D01*
X222111749Y-54112367D01*
X222113000Y-54137835D01*
X222113000Y-55203165D01*
X222111749Y-55228633D01*
X222108007Y-55253856D01*
X222101812Y-55278591D01*
X222093221Y-55302600D01*
X222082319Y-55325650D01*
X222069210Y-55347522D01*
X222054020Y-55368003D01*
X222036896Y-55386896D01*
X222018003Y-55404020D01*
X221997522Y-55419210D01*
X221975650Y-55432319D01*
X221952600Y-55443221D01*
X221928591Y-55451812D01*
X221903856Y-55458007D01*
X221878633Y-55461749D01*
X221853165Y-55463000D01*
X218962835Y-55463000D01*
X218937367Y-55461749D01*
X218912144Y-55458007D01*
X218887409Y-55451812D01*
X218863400Y-55443221D01*
X218840350Y-55432319D01*
X218818478Y-55419210D01*
X218797997Y-55404020D01*
X218779104Y-55386896D01*
X218761980Y-55368003D01*
X218746790Y-55347522D01*
X218733681Y-55325650D01*
X218722779Y-55302600D01*
X218714188Y-55278591D01*
X218707993Y-55253856D01*
X218704251Y-55228633D01*
X218703000Y-55203165D01*
X218703000Y-54137835D01*
X218704251Y-54112367D01*
X218707993Y-54087144D01*
X218714188Y-54062409D01*
X218722779Y-54038400D01*
X218733681Y-54015350D01*
X218746790Y-53993478D01*
X218761980Y-53972997D01*
X218779104Y-53954104D01*
X218797997Y-53936980D01*
X218818478Y-53921790D01*
X218840350Y-53908681D01*
X218863400Y-53897779D01*
X218887409Y-53889188D01*
X218912144Y-53882993D01*
X218937367Y-53879251D01*
X218962835Y-53878000D01*
X221853165Y-53878000D01*
X221878633Y-53879251D01*
X221878633Y-53879251D01*
G37*
D24*
X220408000Y-54670500D03*
G04 #@! TD*
D18*
G04 #@! TO.C,R21*
G36*
X206702633Y-65563251D02*
X206727856Y-65566993D01*
X206752591Y-65573188D01*
X206776600Y-65581779D01*
X206799650Y-65592681D01*
X206821522Y-65605790D01*
X206842003Y-65620980D01*
X206860896Y-65638104D01*
X206878020Y-65656997D01*
X206893210Y-65677478D01*
X206906319Y-65699350D01*
X206917221Y-65722400D01*
X206925812Y-65746409D01*
X206932007Y-65771144D01*
X206935749Y-65796367D01*
X206937000Y-65821835D01*
X206937000Y-66887165D01*
X206935749Y-66912633D01*
X206932007Y-66937856D01*
X206925812Y-66962591D01*
X206917221Y-66986600D01*
X206906319Y-67009650D01*
X206893210Y-67031522D01*
X206878020Y-67052003D01*
X206860896Y-67070896D01*
X206842003Y-67088020D01*
X206821522Y-67103210D01*
X206799650Y-67116319D01*
X206776600Y-67127221D01*
X206752591Y-67135812D01*
X206727856Y-67142007D01*
X206702633Y-67145749D01*
X206677165Y-67147000D01*
X203786835Y-67147000D01*
X203761367Y-67145749D01*
X203736144Y-67142007D01*
X203711409Y-67135812D01*
X203687400Y-67127221D01*
X203664350Y-67116319D01*
X203642478Y-67103210D01*
X203621997Y-67088020D01*
X203603104Y-67070896D01*
X203585980Y-67052003D01*
X203570790Y-67031522D01*
X203557681Y-67009650D01*
X203546779Y-66986600D01*
X203538188Y-66962591D01*
X203531993Y-66937856D01*
X203528251Y-66912633D01*
X203527000Y-66887165D01*
X203527000Y-65821835D01*
X203528251Y-65796367D01*
X203531993Y-65771144D01*
X203538188Y-65746409D01*
X203546779Y-65722400D01*
X203557681Y-65699350D01*
X203570790Y-65677478D01*
X203585980Y-65656997D01*
X203603104Y-65638104D01*
X203621997Y-65620980D01*
X203642478Y-65605790D01*
X203664350Y-65592681D01*
X203687400Y-65581779D01*
X203711409Y-65573188D01*
X203736144Y-65566993D01*
X203761367Y-65563251D01*
X203786835Y-65562000D01*
X206677165Y-65562000D01*
X206702633Y-65563251D01*
X206702633Y-65563251D01*
G37*
D24*
X205232000Y-66354500D03*
D18*
G36*
X206702633Y-71538251D02*
X206727856Y-71541993D01*
X206752591Y-71548188D01*
X206776600Y-71556779D01*
X206799650Y-71567681D01*
X206821522Y-71580790D01*
X206842003Y-71595980D01*
X206860896Y-71613104D01*
X206878020Y-71631997D01*
X206893210Y-71652478D01*
X206906319Y-71674350D01*
X206917221Y-71697400D01*
X206925812Y-71721409D01*
X206932007Y-71746144D01*
X206935749Y-71771367D01*
X206937000Y-71796835D01*
X206937000Y-72862165D01*
X206935749Y-72887633D01*
X206932007Y-72912856D01*
X206925812Y-72937591D01*
X206917221Y-72961600D01*
X206906319Y-72984650D01*
X206893210Y-73006522D01*
X206878020Y-73027003D01*
X206860896Y-73045896D01*
X206842003Y-73063020D01*
X206821522Y-73078210D01*
X206799650Y-73091319D01*
X206776600Y-73102221D01*
X206752591Y-73110812D01*
X206727856Y-73117007D01*
X206702633Y-73120749D01*
X206677165Y-73122000D01*
X203786835Y-73122000D01*
X203761367Y-73120749D01*
X203736144Y-73117007D01*
X203711409Y-73110812D01*
X203687400Y-73102221D01*
X203664350Y-73091319D01*
X203642478Y-73078210D01*
X203621997Y-73063020D01*
X203603104Y-73045896D01*
X203585980Y-73027003D01*
X203570790Y-73006522D01*
X203557681Y-72984650D01*
X203546779Y-72961600D01*
X203538188Y-72937591D01*
X203531993Y-72912856D01*
X203528251Y-72887633D01*
X203527000Y-72862165D01*
X203527000Y-71796835D01*
X203528251Y-71771367D01*
X203531993Y-71746144D01*
X203538188Y-71721409D01*
X203546779Y-71697400D01*
X203557681Y-71674350D01*
X203570790Y-71652478D01*
X203585980Y-71631997D01*
X203603104Y-71613104D01*
X203621997Y-71595980D01*
X203642478Y-71580790D01*
X203664350Y-71567681D01*
X203687400Y-71556779D01*
X203711409Y-71548188D01*
X203736144Y-71541993D01*
X203761367Y-71538251D01*
X203786835Y-71537000D01*
X206677165Y-71537000D01*
X206702633Y-71538251D01*
X206702633Y-71538251D01*
G37*
D24*
X205232000Y-72329500D03*
G04 #@! TD*
D18*
G04 #@! TO.C,R22*
G36*
X206702633Y-53879251D02*
X206727856Y-53882993D01*
X206752591Y-53889188D01*
X206776600Y-53897779D01*
X206799650Y-53908681D01*
X206821522Y-53921790D01*
X206842003Y-53936980D01*
X206860896Y-53954104D01*
X206878020Y-53972997D01*
X206893210Y-53993478D01*
X206906319Y-54015350D01*
X206917221Y-54038400D01*
X206925812Y-54062409D01*
X206932007Y-54087144D01*
X206935749Y-54112367D01*
X206937000Y-54137835D01*
X206937000Y-55203165D01*
X206935749Y-55228633D01*
X206932007Y-55253856D01*
X206925812Y-55278591D01*
X206917221Y-55302600D01*
X206906319Y-55325650D01*
X206893210Y-55347522D01*
X206878020Y-55368003D01*
X206860896Y-55386896D01*
X206842003Y-55404020D01*
X206821522Y-55419210D01*
X206799650Y-55432319D01*
X206776600Y-55443221D01*
X206752591Y-55451812D01*
X206727856Y-55458007D01*
X206702633Y-55461749D01*
X206677165Y-55463000D01*
X203786835Y-55463000D01*
X203761367Y-55461749D01*
X203736144Y-55458007D01*
X203711409Y-55451812D01*
X203687400Y-55443221D01*
X203664350Y-55432319D01*
X203642478Y-55419210D01*
X203621997Y-55404020D01*
X203603104Y-55386896D01*
X203585980Y-55368003D01*
X203570790Y-55347522D01*
X203557681Y-55325650D01*
X203546779Y-55302600D01*
X203538188Y-55278591D01*
X203531993Y-55253856D01*
X203528251Y-55228633D01*
X203527000Y-55203165D01*
X203527000Y-54137835D01*
X203528251Y-54112367D01*
X203531993Y-54087144D01*
X203538188Y-54062409D01*
X203546779Y-54038400D01*
X203557681Y-54015350D01*
X203570790Y-53993478D01*
X203585980Y-53972997D01*
X203603104Y-53954104D01*
X203621997Y-53936980D01*
X203642478Y-53921790D01*
X203664350Y-53908681D01*
X203687400Y-53897779D01*
X203711409Y-53889188D01*
X203736144Y-53882993D01*
X203761367Y-53879251D01*
X203786835Y-53878000D01*
X206677165Y-53878000D01*
X206702633Y-53879251D01*
X206702633Y-53879251D01*
G37*
D24*
X205232000Y-54670500D03*
D18*
G36*
X206702633Y-59854251D02*
X206727856Y-59857993D01*
X206752591Y-59864188D01*
X206776600Y-59872779D01*
X206799650Y-59883681D01*
X206821522Y-59896790D01*
X206842003Y-59911980D01*
X206860896Y-59929104D01*
X206878020Y-59947997D01*
X206893210Y-59968478D01*
X206906319Y-59990350D01*
X206917221Y-60013400D01*
X206925812Y-60037409D01*
X206932007Y-60062144D01*
X206935749Y-60087367D01*
X206937000Y-60112835D01*
X206937000Y-61178165D01*
X206935749Y-61203633D01*
X206932007Y-61228856D01*
X206925812Y-61253591D01*
X206917221Y-61277600D01*
X206906319Y-61300650D01*
X206893210Y-61322522D01*
X206878020Y-61343003D01*
X206860896Y-61361896D01*
X206842003Y-61379020D01*
X206821522Y-61394210D01*
X206799650Y-61407319D01*
X206776600Y-61418221D01*
X206752591Y-61426812D01*
X206727856Y-61433007D01*
X206702633Y-61436749D01*
X206677165Y-61438000D01*
X203786835Y-61438000D01*
X203761367Y-61436749D01*
X203736144Y-61433007D01*
X203711409Y-61426812D01*
X203687400Y-61418221D01*
X203664350Y-61407319D01*
X203642478Y-61394210D01*
X203621997Y-61379020D01*
X203603104Y-61361896D01*
X203585980Y-61343003D01*
X203570790Y-61322522D01*
X203557681Y-61300650D01*
X203546779Y-61277600D01*
X203538188Y-61253591D01*
X203531993Y-61228856D01*
X203528251Y-61203633D01*
X203527000Y-61178165D01*
X203527000Y-60112835D01*
X203528251Y-60087367D01*
X203531993Y-60062144D01*
X203538188Y-60037409D01*
X203546779Y-60013400D01*
X203557681Y-59990350D01*
X203570790Y-59968478D01*
X203585980Y-59947997D01*
X203603104Y-59929104D01*
X203621997Y-59911980D01*
X203642478Y-59896790D01*
X203664350Y-59883681D01*
X203687400Y-59872779D01*
X203711409Y-59864188D01*
X203736144Y-59857993D01*
X203761367Y-59854251D01*
X203786835Y-59853000D01*
X206677165Y-59853000D01*
X206702633Y-59854251D01*
X206702633Y-59854251D01*
G37*
D24*
X205232000Y-60645500D03*
G04 #@! TD*
D18*
G04 #@! TO.C,R23*
G36*
X225752633Y-65563251D02*
X225777856Y-65566993D01*
X225802591Y-65573188D01*
X225826600Y-65581779D01*
X225849650Y-65592681D01*
X225871522Y-65605790D01*
X225892003Y-65620980D01*
X225910896Y-65638104D01*
X225928020Y-65656997D01*
X225943210Y-65677478D01*
X225956319Y-65699350D01*
X225967221Y-65722400D01*
X225975812Y-65746409D01*
X225982007Y-65771144D01*
X225985749Y-65796367D01*
X225987000Y-65821835D01*
X225987000Y-66887165D01*
X225985749Y-66912633D01*
X225982007Y-66937856D01*
X225975812Y-66962591D01*
X225967221Y-66986600D01*
X225956319Y-67009650D01*
X225943210Y-67031522D01*
X225928020Y-67052003D01*
X225910896Y-67070896D01*
X225892003Y-67088020D01*
X225871522Y-67103210D01*
X225849650Y-67116319D01*
X225826600Y-67127221D01*
X225802591Y-67135812D01*
X225777856Y-67142007D01*
X225752633Y-67145749D01*
X225727165Y-67147000D01*
X222836835Y-67147000D01*
X222811367Y-67145749D01*
X222786144Y-67142007D01*
X222761409Y-67135812D01*
X222737400Y-67127221D01*
X222714350Y-67116319D01*
X222692478Y-67103210D01*
X222671997Y-67088020D01*
X222653104Y-67070896D01*
X222635980Y-67052003D01*
X222620790Y-67031522D01*
X222607681Y-67009650D01*
X222596779Y-66986600D01*
X222588188Y-66962591D01*
X222581993Y-66937856D01*
X222578251Y-66912633D01*
X222577000Y-66887165D01*
X222577000Y-65821835D01*
X222578251Y-65796367D01*
X222581993Y-65771144D01*
X222588188Y-65746409D01*
X222596779Y-65722400D01*
X222607681Y-65699350D01*
X222620790Y-65677478D01*
X222635980Y-65656997D01*
X222653104Y-65638104D01*
X222671997Y-65620980D01*
X222692478Y-65605790D01*
X222714350Y-65592681D01*
X222737400Y-65581779D01*
X222761409Y-65573188D01*
X222786144Y-65566993D01*
X222811367Y-65563251D01*
X222836835Y-65562000D01*
X225727165Y-65562000D01*
X225752633Y-65563251D01*
X225752633Y-65563251D01*
G37*
D24*
X224282000Y-66354500D03*
D18*
G36*
X225752633Y-71538251D02*
X225777856Y-71541993D01*
X225802591Y-71548188D01*
X225826600Y-71556779D01*
X225849650Y-71567681D01*
X225871522Y-71580790D01*
X225892003Y-71595980D01*
X225910896Y-71613104D01*
X225928020Y-71631997D01*
X225943210Y-71652478D01*
X225956319Y-71674350D01*
X225967221Y-71697400D01*
X225975812Y-71721409D01*
X225982007Y-71746144D01*
X225985749Y-71771367D01*
X225987000Y-71796835D01*
X225987000Y-72862165D01*
X225985749Y-72887633D01*
X225982007Y-72912856D01*
X225975812Y-72937591D01*
X225967221Y-72961600D01*
X225956319Y-72984650D01*
X225943210Y-73006522D01*
X225928020Y-73027003D01*
X225910896Y-73045896D01*
X225892003Y-73063020D01*
X225871522Y-73078210D01*
X225849650Y-73091319D01*
X225826600Y-73102221D01*
X225802591Y-73110812D01*
X225777856Y-73117007D01*
X225752633Y-73120749D01*
X225727165Y-73122000D01*
X222836835Y-73122000D01*
X222811367Y-73120749D01*
X222786144Y-73117007D01*
X222761409Y-73110812D01*
X222737400Y-73102221D01*
X222714350Y-73091319D01*
X222692478Y-73078210D01*
X222671997Y-73063020D01*
X222653104Y-73045896D01*
X222635980Y-73027003D01*
X222620790Y-73006522D01*
X222607681Y-72984650D01*
X222596779Y-72961600D01*
X222588188Y-72937591D01*
X222581993Y-72912856D01*
X222578251Y-72887633D01*
X222577000Y-72862165D01*
X222577000Y-71796835D01*
X222578251Y-71771367D01*
X222581993Y-71746144D01*
X222588188Y-71721409D01*
X222596779Y-71697400D01*
X222607681Y-71674350D01*
X222620790Y-71652478D01*
X222635980Y-71631997D01*
X222653104Y-71613104D01*
X222671997Y-71595980D01*
X222692478Y-71580790D01*
X222714350Y-71567681D01*
X222737400Y-71556779D01*
X222761409Y-71548188D01*
X222786144Y-71541993D01*
X222811367Y-71538251D01*
X222836835Y-71537000D01*
X225727165Y-71537000D01*
X225752633Y-71538251D01*
X225752633Y-71538251D01*
G37*
D24*
X224282000Y-72329500D03*
G04 #@! TD*
D18*
G04 #@! TO.C,R24*
G36*
X225752633Y-53879251D02*
X225777856Y-53882993D01*
X225802591Y-53889188D01*
X225826600Y-53897779D01*
X225849650Y-53908681D01*
X225871522Y-53921790D01*
X225892003Y-53936980D01*
X225910896Y-53954104D01*
X225928020Y-53972997D01*
X225943210Y-53993478D01*
X225956319Y-54015350D01*
X225967221Y-54038400D01*
X225975812Y-54062409D01*
X225982007Y-54087144D01*
X225985749Y-54112367D01*
X225987000Y-54137835D01*
X225987000Y-55203165D01*
X225985749Y-55228633D01*
X225982007Y-55253856D01*
X225975812Y-55278591D01*
X225967221Y-55302600D01*
X225956319Y-55325650D01*
X225943210Y-55347522D01*
X225928020Y-55368003D01*
X225910896Y-55386896D01*
X225892003Y-55404020D01*
X225871522Y-55419210D01*
X225849650Y-55432319D01*
X225826600Y-55443221D01*
X225802591Y-55451812D01*
X225777856Y-55458007D01*
X225752633Y-55461749D01*
X225727165Y-55463000D01*
X222836835Y-55463000D01*
X222811367Y-55461749D01*
X222786144Y-55458007D01*
X222761409Y-55451812D01*
X222737400Y-55443221D01*
X222714350Y-55432319D01*
X222692478Y-55419210D01*
X222671997Y-55404020D01*
X222653104Y-55386896D01*
X222635980Y-55368003D01*
X222620790Y-55347522D01*
X222607681Y-55325650D01*
X222596779Y-55302600D01*
X222588188Y-55278591D01*
X222581993Y-55253856D01*
X222578251Y-55228633D01*
X222577000Y-55203165D01*
X222577000Y-54137835D01*
X222578251Y-54112367D01*
X222581993Y-54087144D01*
X222588188Y-54062409D01*
X222596779Y-54038400D01*
X222607681Y-54015350D01*
X222620790Y-53993478D01*
X222635980Y-53972997D01*
X222653104Y-53954104D01*
X222671997Y-53936980D01*
X222692478Y-53921790D01*
X222714350Y-53908681D01*
X222737400Y-53897779D01*
X222761409Y-53889188D01*
X222786144Y-53882993D01*
X222811367Y-53879251D01*
X222836835Y-53878000D01*
X225727165Y-53878000D01*
X225752633Y-53879251D01*
X225752633Y-53879251D01*
G37*
D24*
X224282000Y-54670500D03*
D18*
G36*
X225752633Y-59854251D02*
X225777856Y-59857993D01*
X225802591Y-59864188D01*
X225826600Y-59872779D01*
X225849650Y-59883681D01*
X225871522Y-59896790D01*
X225892003Y-59911980D01*
X225910896Y-59929104D01*
X225928020Y-59947997D01*
X225943210Y-59968478D01*
X225956319Y-59990350D01*
X225967221Y-60013400D01*
X225975812Y-60037409D01*
X225982007Y-60062144D01*
X225985749Y-60087367D01*
X225987000Y-60112835D01*
X225987000Y-61178165D01*
X225985749Y-61203633D01*
X225982007Y-61228856D01*
X225975812Y-61253591D01*
X225967221Y-61277600D01*
X225956319Y-61300650D01*
X225943210Y-61322522D01*
X225928020Y-61343003D01*
X225910896Y-61361896D01*
X225892003Y-61379020D01*
X225871522Y-61394210D01*
X225849650Y-61407319D01*
X225826600Y-61418221D01*
X225802591Y-61426812D01*
X225777856Y-61433007D01*
X225752633Y-61436749D01*
X225727165Y-61438000D01*
X222836835Y-61438000D01*
X222811367Y-61436749D01*
X222786144Y-61433007D01*
X222761409Y-61426812D01*
X222737400Y-61418221D01*
X222714350Y-61407319D01*
X222692478Y-61394210D01*
X222671997Y-61379020D01*
X222653104Y-61361896D01*
X222635980Y-61343003D01*
X222620790Y-61322522D01*
X222607681Y-61300650D01*
X222596779Y-61277600D01*
X222588188Y-61253591D01*
X222581993Y-61228856D01*
X222578251Y-61203633D01*
X222577000Y-61178165D01*
X222577000Y-60112835D01*
X222578251Y-60087367D01*
X222581993Y-60062144D01*
X222588188Y-60037409D01*
X222596779Y-60013400D01*
X222607681Y-59990350D01*
X222620790Y-59968478D01*
X222635980Y-59947997D01*
X222653104Y-59929104D01*
X222671997Y-59911980D01*
X222692478Y-59896790D01*
X222714350Y-59883681D01*
X222737400Y-59872779D01*
X222761409Y-59864188D01*
X222786144Y-59857993D01*
X222811367Y-59854251D01*
X222836835Y-59853000D01*
X225727165Y-59853000D01*
X225752633Y-59854251D01*
X225752633Y-59854251D01*
G37*
D24*
X224282000Y-60645500D03*
G04 #@! TD*
D26*
G04 #@! TO.C,J1*
X243000000Y-64000000D03*
G04 #@! TD*
G04 #@! TO.C,J2*
X163000000Y-64000000D03*
G04 #@! TD*
M02*
