G04 #@! TF.GenerationSoftware,KiCad,Pcbnew,5.0.0-fee4fd1~66~ubuntu18.04.1*
G04 #@! TF.CreationDate,2018-08-20T14:29:34+02:00*
G04 #@! TF.ProjectId,ESP32-li-ion-cell-monitor,45535033322D6C692D696F6E2D63656C,1.3*
G04 #@! TF.SameCoordinates,Original*
G04 #@! TF.FileFunction,Copper,L2,Bot,Signal*
G04 #@! TF.FilePolarity,Positive*
%FSLAX46Y46*%
G04 Gerber Fmt 4.6, Leading zero omitted, Abs format (unit mm)*
G04 Created by KiCad (PCBNEW 5.0.0-fee4fd1~66~ubuntu18.04.1) date Mon Aug 20 14:29:34 2018*
%MOMM*%
%LPD*%
G01*
G04 APERTURE LIST*
G04 #@! TA.AperFunction,ViaPad*
%ADD10C,0.600000*%
G04 #@! TD*
G04 #@! TA.AperFunction,ComponentPad*
%ADD11O,1.700000X1.700000*%
G04 #@! TD*
G04 #@! TA.AperFunction,ComponentPad*
%ADD12R,1.700000X1.700000*%
G04 #@! TD*
G04 #@! TA.AperFunction,ComponentPad*
%ADD13C,0.800000*%
G04 #@! TD*
G04 #@! TA.AperFunction,Conductor*
%ADD14C,0.100000*%
G04 #@! TD*
G04 #@! TA.AperFunction,SMDPad,CuDef*
%ADD15C,0.875000*%
G04 #@! TD*
G04 #@! TA.AperFunction,SMDPad,CuDef*
%ADD16R,1.060000X0.650000*%
G04 #@! TD*
G04 #@! TA.AperFunction,BGAPad,CuDef*
%ADD17C,1.000000*%
G04 #@! TD*
G04 #@! TA.AperFunction,ComponentPad*
%ADD18C,5.999480*%
G04 #@! TD*
G04 #@! TA.AperFunction,ViaPad*
%ADD19C,0.800000*%
G04 #@! TD*
G04 #@! TA.AperFunction,ViaPad*
%ADD20C,2.000000*%
G04 #@! TD*
G04 #@! TA.AperFunction,ViaPad*
%ADD21C,1.000000*%
G04 #@! TD*
G04 #@! TA.AperFunction,Conductor*
%ADD22C,0.250000*%
G04 #@! TD*
G04 #@! TA.AperFunction,Conductor*
%ADD23C,0.500000*%
G04 #@! TD*
G04 #@! TA.AperFunction,Conductor*
%ADD24C,0.254000*%
G04 #@! TD*
G04 APERTURE END LIST*
D10*
G04 #@! TO.N,GND*
G04 #@! TO.C,REF\002A\002A*
X247142000Y-70866000D03*
G04 #@! TD*
G04 #@! TO.N,GND*
G04 #@! TO.C,REF\002A\002A*
X238506000Y-73152000D03*
G04 #@! TD*
G04 #@! TO.N,GND*
G04 #@! TO.C,REF\002A\002A*
X233172000Y-65024000D03*
G04 #@! TD*
G04 #@! TO.N,GND*
G04 #@! TO.C,REF\002A\002A*
X185928000Y-58166000D03*
G04 #@! TD*
G04 #@! TO.N,GND*
G04 #@! TO.C,REF\002A\002A*
X179832000Y-68326000D03*
G04 #@! TD*
G04 #@! TO.N,GND*
G04 #@! TO.C,REF\002A\002A*
X176530000Y-68326000D03*
G04 #@! TD*
G04 #@! TO.N,GND*
G04 #@! TO.C,REF\002A\002A*
X179832000Y-73152000D03*
G04 #@! TD*
G04 #@! TO.N,GND*
G04 #@! TO.C,REF\002A\002A*
X177292000Y-73152000D03*
G04 #@! TD*
G04 #@! TO.N,GND*
G04 #@! TO.C,REF\002A\002A*
X231648000Y-65786000D03*
G04 #@! TD*
G04 #@! TO.N,GND*
G04 #@! TO.C,REF\002A\002A*
X184912000Y-69596000D03*
G04 #@! TD*
G04 #@! TO.N,GND*
G04 #@! TO.C,REF\002A\002A*
X185674000Y-74930000D03*
G04 #@! TD*
G04 #@! TO.N,GND*
G04 #@! TO.C,REF\002A\002A*
X189738000Y-72644000D03*
G04 #@! TD*
G04 #@! TO.N,GND*
G04 #@! TO.C,REF\002A\002A*
X175260000Y-65532000D03*
G04 #@! TD*
G04 #@! TO.N,GND*
G04 #@! TO.C,REF\002A\002A*
X178816000Y-65532000D03*
G04 #@! TD*
G04 #@! TO.N,GND*
G04 #@! TO.C,REF\002A\002A*
X180340000Y-56388000D03*
G04 #@! TD*
G04 #@! TO.N,GND*
G04 #@! TO.C,REF\002A\002A*
X174498000Y-56388000D03*
G04 #@! TD*
G04 #@! TO.N,GND*
G04 #@! TO.C,REF\002A\002A*
X159258000Y-56134000D03*
G04 #@! TD*
G04 #@! TO.N,GND*
G04 #@! TO.C,REF\002A\002A*
X159000000Y-54000000D03*
G04 #@! TD*
G04 #@! TO.N,GND*
G04 #@! TO.C,REF\002A\002A*
X164338000Y-57912000D03*
G04 #@! TD*
G04 #@! TO.N,GND*
G04 #@! TO.C,REF\002A\002A*
X165354000Y-70866000D03*
G04 #@! TD*
G04 #@! TO.N,GND*
G04 #@! TO.C,REF\002A\002A*
X165608000Y-75184000D03*
G04 #@! TD*
G04 #@! TO.N,GND*
G04 #@! TO.C,REF\002A\002A*
X160000000Y-73000000D03*
G04 #@! TD*
G04 #@! TO.N,GND*
G04 #@! TO.C,REF\002A\002A*
X161544000Y-70866000D03*
G04 #@! TD*
G04 #@! TO.N,GND*
G04 #@! TO.C,REF\002A\002A*
X161544000Y-57912000D03*
G04 #@! TD*
G04 #@! TO.N,GND*
G04 #@! TO.C,REF\002A\002A*
X162902000Y-56000000D03*
G04 #@! TD*
G04 #@! TO.N,GND*
G04 #@! TO.C,REF\002A\002A*
X162052000Y-75184000D03*
G04 #@! TD*
G04 #@! TO.N,GND*
G04 #@! TO.C,REF\002A\002A*
X160000000Y-75438000D03*
G04 #@! TD*
G04 #@! TO.N,GND*
G04 #@! TO.C,REF\002A\002A*
X160000000Y-52000000D03*
G04 #@! TD*
G04 #@! TO.N,+BATT*
G04 #@! TO.C,REF\002A\002A*
X239014000Y-52070000D03*
G04 #@! TD*
G04 #@! TO.N,+BATT*
G04 #@! TO.C,REF\002A\002A*
X243840000Y-52324000D03*
G04 #@! TD*
G04 #@! TO.N,+BATT*
G04 #@! TO.C,REF\002A\002A*
X246634000Y-52578000D03*
G04 #@! TD*
G04 #@! TO.N,+BATT*
G04 #@! TO.C,REF\002A\002A*
X243840000Y-57912000D03*
G04 #@! TD*
G04 #@! TO.N,GND*
G04 #@! TO.C,REF\002A\002A*
X243856000Y-72898000D03*
G04 #@! TD*
G04 #@! TO.N,GND*
G04 #@! TO.C,REF\002A\002A*
X230376000Y-67818000D03*
G04 #@! TD*
G04 #@! TO.N,VCC*
G04 #@! TO.C,REF\002A\002A*
X216662000Y-70993000D03*
G04 #@! TD*
G04 #@! TO.N,VCC*
G04 #@! TO.C,REF\002A\002A*
X224282000Y-70993000D03*
G04 #@! TD*
G04 #@! TO.N,VCC*
G04 #@! TO.C,REF\002A\002A*
X220472000Y-70993000D03*
G04 #@! TD*
G04 #@! TO.N,VCC*
G04 #@! TO.C,REF\002A\002A*
X212852000Y-70993000D03*
G04 #@! TD*
G04 #@! TO.N,VCC*
G04 #@! TO.C,REF\002A\002A*
X224282000Y-73660000D03*
G04 #@! TD*
G04 #@! TO.N,VCC*
G04 #@! TO.C,REF\002A\002A*
X220472000Y-73660000D03*
G04 #@! TD*
G04 #@! TO.N,VCC*
G04 #@! TO.C,REF\002A\002A*
X216662000Y-73660000D03*
G04 #@! TD*
G04 #@! TO.N,VCC*
G04 #@! TO.C,REF\002A\002A*
X212852000Y-73660000D03*
G04 #@! TD*
G04 #@! TO.N,VCC*
G04 #@! TO.C,REF\002A\002A*
X205232000Y-73660000D03*
G04 #@! TD*
G04 #@! TO.N,VCC*
G04 #@! TO.C,REF\002A\002A*
X193802000Y-73660000D03*
G04 #@! TD*
G04 #@! TO.N,VCC*
G04 #@! TO.C,REF\002A\002A*
X201422000Y-73660000D03*
G04 #@! TD*
G04 #@! TO.N,VCC*
G04 #@! TO.C,REF\002A\002A*
X197612000Y-73660000D03*
G04 #@! TD*
G04 #@! TO.N,VCC*
G04 #@! TO.C,REF\002A\002A*
X193802000Y-70993000D03*
G04 #@! TD*
G04 #@! TO.N,VCC*
G04 #@! TO.C,REF\002A\002A*
X201422000Y-70993000D03*
G04 #@! TD*
G04 #@! TO.N,VCC*
G04 #@! TO.C,REF\002A\002A*
X205232000Y-70993000D03*
G04 #@! TD*
G04 #@! TO.N,VCC*
G04 #@! TO.C,REF\002A\002A*
X197612000Y-70993000D03*
G04 #@! TD*
G04 #@! TO.N,VCC*
G04 #@! TO.C,REF\002A\002A*
X212725000Y-53213000D03*
G04 #@! TD*
G04 #@! TO.N,VCC*
G04 #@! TO.C,REF\002A\002A*
X220345000Y-53213000D03*
G04 #@! TD*
G04 #@! TO.N,VCC*
G04 #@! TO.C,REF\002A\002A*
X224155000Y-53213000D03*
G04 #@! TD*
G04 #@! TO.N,VCC*
G04 #@! TO.C,REF\002A\002A*
X216535000Y-53213000D03*
G04 #@! TD*
G04 #@! TO.N,VCC*
G04 #@! TO.C,REF\002A\002A*
X197612000Y-53340000D03*
G04 #@! TD*
G04 #@! TO.N,VCC*
G04 #@! TO.C,REF\002A\002A*
X205232000Y-53340000D03*
G04 #@! TD*
G04 #@! TO.N,VCC*
G04 #@! TO.C,REF\002A\002A*
X193802000Y-53340000D03*
G04 #@! TD*
G04 #@! TO.N,VCC*
G04 #@! TO.C,REF\002A\002A*
X201422000Y-53340000D03*
G04 #@! TD*
G04 #@! TO.N,VCC*
G04 #@! TO.C,REF\002A\002A*
X193802000Y-55880000D03*
G04 #@! TD*
G04 #@! TO.N,VCC*
G04 #@! TO.C,REF\002A\002A*
X197612000Y-55880000D03*
G04 #@! TD*
G04 #@! TO.N,VCC*
G04 #@! TO.C,REF\002A\002A*
X201422000Y-55880000D03*
G04 #@! TD*
G04 #@! TO.N,VCC*
G04 #@! TO.C,REF\002A\002A*
X205232000Y-55880000D03*
G04 #@! TD*
G04 #@! TO.N,VCC*
G04 #@! TO.C,REF\002A\002A*
X212725000Y-56007000D03*
G04 #@! TD*
G04 #@! TO.N,VCC*
G04 #@! TO.C,REF\002A\002A*
X216408000Y-56007000D03*
G04 #@! TD*
G04 #@! TO.N,VCC*
G04 #@! TO.C,REF\002A\002A*
X220472000Y-56007000D03*
G04 #@! TD*
G04 #@! TO.N,VCC*
G04 #@! TO.C,REF\002A\002A*
X224409000Y-56007000D03*
G04 #@! TD*
G04 #@! TO.N,GND*
G04 #@! TO.C,REF\002A\002A*
X205232000Y-68072000D03*
G04 #@! TD*
G04 #@! TO.N,GND*
G04 #@! TO.C,REF\002A\002A*
X201295000Y-68072000D03*
G04 #@! TD*
G04 #@! TO.N,GND*
G04 #@! TO.C,REF\002A\002A*
X197612000Y-68072000D03*
G04 #@! TD*
G04 #@! TO.N,GND*
G04 #@! TO.C,REF\002A\002A*
X194056000Y-68072000D03*
G04 #@! TD*
G04 #@! TO.N,GND*
G04 #@! TO.C,REF\002A\002A*
X205232000Y-59182000D03*
G04 #@! TD*
G04 #@! TO.N,GND*
G04 #@! TO.C,REF\002A\002A*
X201295000Y-59182000D03*
G04 #@! TD*
G04 #@! TO.N,GND*
G04 #@! TO.C,REF\002A\002A*
X220472000Y-62230000D03*
G04 #@! TD*
G04 #@! TO.N,GND*
G04 #@! TO.C,REF\002A\002A*
X220472000Y-64516000D03*
G04 #@! TD*
G04 #@! TO.N,GND*
G04 #@! TO.C,REF\002A\002A*
X201422000Y-64516000D03*
G04 #@! TD*
G04 #@! TO.N,GND*
G04 #@! TO.C,REF\002A\002A*
X201422000Y-62230000D03*
G04 #@! TD*
G04 #@! TO.N,GND*
G04 #@! TO.C,REF\002A\002A*
X220472000Y-58928000D03*
G04 #@! TD*
G04 #@! TO.N,GND*
G04 #@! TO.C,REF\002A\002A*
X228346000Y-57912000D03*
G04 #@! TD*
G04 #@! TO.N,GND*
G04 #@! TO.C,REF\002A\002A*
X224409000Y-58928000D03*
G04 #@! TD*
G04 #@! TO.N,GND*
G04 #@! TO.C,REF\002A\002A*
X230376000Y-63500000D03*
G04 #@! TD*
G04 #@! TO.N,GND*
G04 #@! TO.C,REF\002A\002A*
X216662000Y-75946000D03*
G04 #@! TD*
G04 #@! TO.N,GND*
G04 #@! TO.C,REF\002A\002A*
X233426000Y-59690000D03*
G04 #@! TD*
G04 #@! TO.N,VCC*
G04 #@! TO.C,REF\002A\002A*
X208914000Y-72898000D03*
G04 #@! TD*
G04 #@! TO.N,VCC*
G04 #@! TO.C,REF\002A\002A*
X209930000Y-72898000D03*
G04 #@! TD*
G04 #@! TO.N,VCC*
G04 #@! TO.C,REF\002A\002A*
X209930000Y-71882000D03*
G04 #@! TD*
G04 #@! TO.N,VCC*
G04 #@! TO.C,REF\002A\002A*
X207898000Y-72898000D03*
G04 #@! TD*
G04 #@! TO.N,VCC*
G04 #@! TO.C,REF\002A\002A*
X207898000Y-71882000D03*
G04 #@! TD*
G04 #@! TO.N,VCC*
G04 #@! TO.C,REF\002A\002A*
X209930000Y-55626000D03*
G04 #@! TD*
G04 #@! TO.N,VCC*
G04 #@! TO.C,REF\002A\002A*
X208914000Y-55626000D03*
G04 #@! TD*
G04 #@! TO.N,VCC*
G04 #@! TO.C,REF\002A\002A*
X207898000Y-55626000D03*
G04 #@! TD*
G04 #@! TO.N,VCC*
G04 #@! TO.C,REF\002A\002A*
X207898000Y-54610000D03*
G04 #@! TD*
G04 #@! TO.N,VCC*
G04 #@! TO.C,REF\002A\002A*
X209930000Y-54610000D03*
G04 #@! TD*
G04 #@! TO.N,VCC*
G04 #@! TO.C,REF\002A\002A*
X214630000Y-52070000D03*
G04 #@! TD*
G04 #@! TO.N,GND*
G04 #@! TO.C,REF\002A\002A*
X193802000Y-75946000D03*
G04 #@! TD*
G04 #@! TO.N,GND*
G04 #@! TO.C,REF\002A\002A*
X205232000Y-75946000D03*
G04 #@! TD*
G04 #@! TO.N,GND*
G04 #@! TO.C,REF\002A\002A*
X220345000Y-68072000D03*
G04 #@! TD*
G04 #@! TO.N,GND*
G04 #@! TO.C,REF\002A\002A*
X236474000Y-75946000D03*
G04 #@! TD*
G04 #@! TO.N,GND*
G04 #@! TO.C,REF\002A\002A*
X233172000Y-75946000D03*
G04 #@! TD*
G04 #@! TO.N,+BATT*
G04 #@! TO.C,REF\002A\002A*
X236982000Y-59436000D03*
G04 #@! TD*
G04 #@! TO.N,+BATT*
G04 #@! TO.C,REF\002A\002A*
X246886000Y-59436000D03*
G04 #@! TD*
G04 #@! TO.N,+BATT*
G04 #@! TO.C,REF\002A\002A*
X236982000Y-56896000D03*
G04 #@! TD*
G04 #@! TO.N,+BATT*
G04 #@! TO.C,REF\002A\002A*
X246632000Y-68326000D03*
G04 #@! TD*
G04 #@! TO.N,+BATT*
G04 #@! TO.C,REF\002A\002A*
X246886000Y-54864000D03*
G04 #@! TD*
G04 #@! TO.N,+BATT*
G04 #@! TO.C,REF\002A\002A*
X240792000Y-57404000D03*
G04 #@! TD*
G04 #@! TO.N,VCC*
G04 #@! TO.C,REF\002A\002A*
X227584000Y-52070000D03*
G04 #@! TD*
G04 #@! TO.N,VCC*
G04 #@! TO.C,REF\002A\002A*
X208914000Y-71882000D03*
G04 #@! TD*
G04 #@! TO.N,VCC*
G04 #@! TO.C,REF\002A\002A*
X208914000Y-54610000D03*
G04 #@! TD*
G04 #@! TO.N,GND*
G04 #@! TO.C,REF\002A\002A*
X213106000Y-59182000D03*
G04 #@! TD*
G04 #@! TO.N,GND*
G04 #@! TO.C,REF\002A\002A*
X211708000Y-59182000D03*
G04 #@! TD*
G04 #@! TO.N,GND*
G04 #@! TO.C,REF\002A\002A*
X197612000Y-59182000D03*
G04 #@! TD*
G04 #@! TO.N,GND*
G04 #@! TO.C,REF\002A\002A*
X194056000Y-59182000D03*
G04 #@! TD*
G04 #@! TO.N,GND*
G04 #@! TO.C,REF\002A\002A*
X214312000Y-64516000D03*
G04 #@! TD*
G04 #@! TO.N,GND*
G04 #@! TO.C,REF\002A\002A*
X195225990Y-64450000D03*
G04 #@! TD*
G04 #@! TO.N,GND*
G04 #@! TO.C,REF\002A\002A*
X205232000Y-64516000D03*
G04 #@! TD*
G04 #@! TO.N,GND*
G04 #@! TO.C,REF\002A\002A*
X197612000Y-64516000D03*
G04 #@! TD*
G04 #@! TO.N,GND*
G04 #@! TO.C,REF\002A\002A*
X224282000Y-64516000D03*
G04 #@! TD*
G04 #@! TO.N,VCC*
G04 #@! TO.C,REF\002A\002A*
X226568000Y-55372000D03*
G04 #@! TD*
G04 #@! TO.N,VCC*
G04 #@! TO.C,REF\002A\002A*
X228600000Y-55372000D03*
G04 #@! TD*
G04 #@! TO.N,VCC*
G04 #@! TO.C,REF\002A\002A*
X228600000Y-53594000D03*
G04 #@! TD*
G04 #@! TO.N,VCC*
G04 #@! TO.C,REF\002A\002A*
X226568000Y-53594000D03*
G04 #@! TD*
G04 #@! TO.N,VCC*
G04 #@! TO.C,REF\002A\002A*
X228725000Y-71628000D03*
G04 #@! TD*
G04 #@! TO.N,VCC*
G04 #@! TO.C,REF\002A\002A*
X228725000Y-73152000D03*
G04 #@! TD*
G04 #@! TO.N,VCC*
G04 #@! TO.C,REF\002A\002A*
X226695000Y-73152000D03*
G04 #@! TD*
G04 #@! TO.N,VCC*
G04 #@! TO.C,REF\002A\002A*
X226695000Y-71628000D03*
G04 #@! TD*
G04 #@! TO.N,GND*
G04 #@! TO.C,REF\002A\002A*
X223266000Y-75946000D03*
G04 #@! TD*
G04 #@! TO.N,GND*
G04 #@! TO.C,REF\002A\002A*
X246650000Y-75184000D03*
G04 #@! TD*
G04 #@! TO.N,GND*
G04 #@! TO.C,REF\002A\002A*
X216598000Y-62230000D03*
G04 #@! TD*
G04 #@! TO.N,GND*
G04 #@! TO.C,REF\002A\002A*
X197612000Y-62230000D03*
G04 #@! TD*
G04 #@! TO.N,GND*
G04 #@! TO.C,REF\002A\002A*
X235966000Y-70358000D03*
G04 #@! TD*
G04 #@! TO.N,GND*
G04 #@! TO.C,REF\002A\002A*
X212852000Y-68072000D03*
G04 #@! TD*
G04 #@! TO.N,GND*
G04 #@! TO.C,REF\002A\002A*
X224282000Y-68072000D03*
G04 #@! TD*
G04 #@! TO.N,GND*
G04 #@! TO.C,REF\002A\002A*
X216916000Y-64516000D03*
G04 #@! TD*
G04 #@! TO.N,GND*
G04 #@! TO.C,REF\002A\002A*
X214756000Y-59182000D03*
G04 #@! TD*
D11*
G04 #@! TO.P,J3,5*
G04 #@! TO.N,/BOOT*
X173482000Y-74930000D03*
G04 #@! TO.P,J3,4*
G04 #@! TO.N,/RX*
X176022000Y-74930000D03*
G04 #@! TO.P,J3,3*
G04 #@! TO.N,/TX*
X178562000Y-74930000D03*
G04 #@! TO.P,J3,2*
G04 #@! TO.N,/EN*
X181102000Y-74930000D03*
D12*
G04 #@! TO.P,J3,1*
G04 #@! TO.N,GND*
X183642000Y-74930000D03*
G04 #@! TD*
D10*
G04 #@! TO.N,GND*
G04 #@! TO.C,REF\002A\002A*
X216662000Y-68072000D03*
G04 #@! TD*
G04 #@! TO.N,GND*
G04 #@! TO.C,REF\002A\002A*
X189992000Y-58928000D03*
G04 #@! TD*
G04 #@! TO.N,GND*
G04 #@! TO.C,REF\002A\002A*
X216535000Y-58928000D03*
G04 #@! TD*
G04 #@! TO.N,GND*
G04 #@! TO.C,REF\002A\002A*
X191262000Y-58166000D03*
G04 #@! TD*
D13*
G04 #@! TO.P,U2,39*
G04 #@! TO.N,GND*
X176856000Y-58990000D03*
X176856000Y-59990000D03*
X176856000Y-60990000D03*
X176856000Y-61990000D03*
X176856000Y-62990000D03*
X177856000Y-62990000D03*
X177856000Y-61990000D03*
X177856000Y-60990000D03*
X177856000Y-59990000D03*
X177856000Y-58990000D03*
X179856000Y-58990000D03*
X179856000Y-59990000D03*
X179856000Y-60990000D03*
X179856000Y-61990000D03*
X179856000Y-62990000D03*
X178856000Y-62990000D03*
X178856000Y-61990000D03*
X178856000Y-60990000D03*
X178856000Y-59990000D03*
X178856000Y-58990000D03*
X180856000Y-62990000D03*
X180856000Y-61990000D03*
X180856000Y-60990000D03*
X180856000Y-59990000D03*
X180856000Y-58990000D03*
G04 #@! TD*
D14*
G04 #@! TO.N,/SDA*
G04 #@! TO.C,R10*
G36*
X241325691Y-73440053D02*
X241346926Y-73443203D01*
X241367750Y-73448419D01*
X241387962Y-73455651D01*
X241407368Y-73464830D01*
X241425781Y-73475866D01*
X241443024Y-73488654D01*
X241458930Y-73503070D01*
X241473346Y-73518976D01*
X241486134Y-73536219D01*
X241497170Y-73554632D01*
X241506349Y-73574038D01*
X241513581Y-73594250D01*
X241518797Y-73615074D01*
X241521947Y-73636309D01*
X241523000Y-73657750D01*
X241523000Y-74170250D01*
X241521947Y-74191691D01*
X241518797Y-74212926D01*
X241513581Y-74233750D01*
X241506349Y-74253962D01*
X241497170Y-74273368D01*
X241486134Y-74291781D01*
X241473346Y-74309024D01*
X241458930Y-74324930D01*
X241443024Y-74339346D01*
X241425781Y-74352134D01*
X241407368Y-74363170D01*
X241387962Y-74372349D01*
X241367750Y-74379581D01*
X241346926Y-74384797D01*
X241325691Y-74387947D01*
X241304250Y-74389000D01*
X240866750Y-74389000D01*
X240845309Y-74387947D01*
X240824074Y-74384797D01*
X240803250Y-74379581D01*
X240783038Y-74372349D01*
X240763632Y-74363170D01*
X240745219Y-74352134D01*
X240727976Y-74339346D01*
X240712070Y-74324930D01*
X240697654Y-74309024D01*
X240684866Y-74291781D01*
X240673830Y-74273368D01*
X240664651Y-74253962D01*
X240657419Y-74233750D01*
X240652203Y-74212926D01*
X240649053Y-74191691D01*
X240648000Y-74170250D01*
X240648000Y-73657750D01*
X240649053Y-73636309D01*
X240652203Y-73615074D01*
X240657419Y-73594250D01*
X240664651Y-73574038D01*
X240673830Y-73554632D01*
X240684866Y-73536219D01*
X240697654Y-73518976D01*
X240712070Y-73503070D01*
X240727976Y-73488654D01*
X240745219Y-73475866D01*
X240763632Y-73464830D01*
X240783038Y-73455651D01*
X240803250Y-73448419D01*
X240824074Y-73443203D01*
X240845309Y-73440053D01*
X240866750Y-73439000D01*
X241304250Y-73439000D01*
X241325691Y-73440053D01*
X241325691Y-73440053D01*
G37*
D15*
G04 #@! TD*
G04 #@! TO.P,R10,1*
G04 #@! TO.N,/SDA*
X241085500Y-73914000D03*
D14*
G04 #@! TO.N,+2V8*
G04 #@! TO.C,R10*
G36*
X239750691Y-73440053D02*
X239771926Y-73443203D01*
X239792750Y-73448419D01*
X239812962Y-73455651D01*
X239832368Y-73464830D01*
X239850781Y-73475866D01*
X239868024Y-73488654D01*
X239883930Y-73503070D01*
X239898346Y-73518976D01*
X239911134Y-73536219D01*
X239922170Y-73554632D01*
X239931349Y-73574038D01*
X239938581Y-73594250D01*
X239943797Y-73615074D01*
X239946947Y-73636309D01*
X239948000Y-73657750D01*
X239948000Y-74170250D01*
X239946947Y-74191691D01*
X239943797Y-74212926D01*
X239938581Y-74233750D01*
X239931349Y-74253962D01*
X239922170Y-74273368D01*
X239911134Y-74291781D01*
X239898346Y-74309024D01*
X239883930Y-74324930D01*
X239868024Y-74339346D01*
X239850781Y-74352134D01*
X239832368Y-74363170D01*
X239812962Y-74372349D01*
X239792750Y-74379581D01*
X239771926Y-74384797D01*
X239750691Y-74387947D01*
X239729250Y-74389000D01*
X239291750Y-74389000D01*
X239270309Y-74387947D01*
X239249074Y-74384797D01*
X239228250Y-74379581D01*
X239208038Y-74372349D01*
X239188632Y-74363170D01*
X239170219Y-74352134D01*
X239152976Y-74339346D01*
X239137070Y-74324930D01*
X239122654Y-74309024D01*
X239109866Y-74291781D01*
X239098830Y-74273368D01*
X239089651Y-74253962D01*
X239082419Y-74233750D01*
X239077203Y-74212926D01*
X239074053Y-74191691D01*
X239073000Y-74170250D01*
X239073000Y-73657750D01*
X239074053Y-73636309D01*
X239077203Y-73615074D01*
X239082419Y-73594250D01*
X239089651Y-73574038D01*
X239098830Y-73554632D01*
X239109866Y-73536219D01*
X239122654Y-73518976D01*
X239137070Y-73503070D01*
X239152976Y-73488654D01*
X239170219Y-73475866D01*
X239188632Y-73464830D01*
X239208038Y-73455651D01*
X239228250Y-73448419D01*
X239249074Y-73443203D01*
X239270309Y-73440053D01*
X239291750Y-73439000D01*
X239729250Y-73439000D01*
X239750691Y-73440053D01*
X239750691Y-73440053D01*
G37*
D15*
G04 #@! TD*
G04 #@! TO.P,R10,2*
G04 #@! TO.N,+2V8*
X239510500Y-73914000D03*
D16*
G04 #@! TO.P,U5,1*
G04 #@! TO.N,/SDA*
X242756000Y-73848000D03*
G04 #@! TO.P,U5,2*
G04 #@! TO.N,GND*
X242756000Y-72898000D03*
G04 #@! TO.P,U5,3*
G04 #@! TO.N,/SCL*
X242756000Y-71948000D03*
G04 #@! TO.P,U5,4*
G04 #@! TO.N,+2V8*
X244956000Y-71948000D03*
G04 #@! TO.P,U5,5*
G04 #@! TO.N,/Alert3*
X244956000Y-73848000D03*
G04 #@! TD*
D10*
G04 #@! TO.N,GND*
G04 #@! TO.C,REF\002A\002A*
X229870000Y-59690000D03*
G04 #@! TD*
D14*
G04 #@! TO.N,GND*
G04 #@! TO.C,C9*
G36*
X246927691Y-73249053D02*
X246948926Y-73252203D01*
X246969750Y-73257419D01*
X246989962Y-73264651D01*
X247009368Y-73273830D01*
X247027781Y-73284866D01*
X247045024Y-73297654D01*
X247060930Y-73312070D01*
X247075346Y-73327976D01*
X247088134Y-73345219D01*
X247099170Y-73363632D01*
X247108349Y-73383038D01*
X247115581Y-73403250D01*
X247120797Y-73424074D01*
X247123947Y-73445309D01*
X247125000Y-73466750D01*
X247125000Y-73904250D01*
X247123947Y-73925691D01*
X247120797Y-73946926D01*
X247115581Y-73967750D01*
X247108349Y-73987962D01*
X247099170Y-74007368D01*
X247088134Y-74025781D01*
X247075346Y-74043024D01*
X247060930Y-74058930D01*
X247045024Y-74073346D01*
X247027781Y-74086134D01*
X247009368Y-74097170D01*
X246989962Y-74106349D01*
X246969750Y-74113581D01*
X246948926Y-74118797D01*
X246927691Y-74121947D01*
X246906250Y-74123000D01*
X246393750Y-74123000D01*
X246372309Y-74121947D01*
X246351074Y-74118797D01*
X246330250Y-74113581D01*
X246310038Y-74106349D01*
X246290632Y-74097170D01*
X246272219Y-74086134D01*
X246254976Y-74073346D01*
X246239070Y-74058930D01*
X246224654Y-74043024D01*
X246211866Y-74025781D01*
X246200830Y-74007368D01*
X246191651Y-73987962D01*
X246184419Y-73967750D01*
X246179203Y-73946926D01*
X246176053Y-73925691D01*
X246175000Y-73904250D01*
X246175000Y-73466750D01*
X246176053Y-73445309D01*
X246179203Y-73424074D01*
X246184419Y-73403250D01*
X246191651Y-73383038D01*
X246200830Y-73363632D01*
X246211866Y-73345219D01*
X246224654Y-73327976D01*
X246239070Y-73312070D01*
X246254976Y-73297654D01*
X246272219Y-73284866D01*
X246290632Y-73273830D01*
X246310038Y-73264651D01*
X246330250Y-73257419D01*
X246351074Y-73252203D01*
X246372309Y-73249053D01*
X246393750Y-73248000D01*
X246906250Y-73248000D01*
X246927691Y-73249053D01*
X246927691Y-73249053D01*
G37*
D15*
G04 #@! TD*
G04 #@! TO.P,C9,1*
G04 #@! TO.N,GND*
X246650000Y-73685500D03*
D14*
G04 #@! TO.N,+2V8*
G04 #@! TO.C,C9*
G36*
X246927691Y-71674053D02*
X246948926Y-71677203D01*
X246969750Y-71682419D01*
X246989962Y-71689651D01*
X247009368Y-71698830D01*
X247027781Y-71709866D01*
X247045024Y-71722654D01*
X247060930Y-71737070D01*
X247075346Y-71752976D01*
X247088134Y-71770219D01*
X247099170Y-71788632D01*
X247108349Y-71808038D01*
X247115581Y-71828250D01*
X247120797Y-71849074D01*
X247123947Y-71870309D01*
X247125000Y-71891750D01*
X247125000Y-72329250D01*
X247123947Y-72350691D01*
X247120797Y-72371926D01*
X247115581Y-72392750D01*
X247108349Y-72412962D01*
X247099170Y-72432368D01*
X247088134Y-72450781D01*
X247075346Y-72468024D01*
X247060930Y-72483930D01*
X247045024Y-72498346D01*
X247027781Y-72511134D01*
X247009368Y-72522170D01*
X246989962Y-72531349D01*
X246969750Y-72538581D01*
X246948926Y-72543797D01*
X246927691Y-72546947D01*
X246906250Y-72548000D01*
X246393750Y-72548000D01*
X246372309Y-72546947D01*
X246351074Y-72543797D01*
X246330250Y-72538581D01*
X246310038Y-72531349D01*
X246290632Y-72522170D01*
X246272219Y-72511134D01*
X246254976Y-72498346D01*
X246239070Y-72483930D01*
X246224654Y-72468024D01*
X246211866Y-72450781D01*
X246200830Y-72432368D01*
X246191651Y-72412962D01*
X246184419Y-72392750D01*
X246179203Y-72371926D01*
X246176053Y-72350691D01*
X246175000Y-72329250D01*
X246175000Y-71891750D01*
X246176053Y-71870309D01*
X246179203Y-71849074D01*
X246184419Y-71828250D01*
X246191651Y-71808038D01*
X246200830Y-71788632D01*
X246211866Y-71770219D01*
X246224654Y-71752976D01*
X246239070Y-71737070D01*
X246254976Y-71722654D01*
X246272219Y-71709866D01*
X246290632Y-71698830D01*
X246310038Y-71689651D01*
X246330250Y-71682419D01*
X246351074Y-71677203D01*
X246372309Y-71674053D01*
X246393750Y-71673000D01*
X246906250Y-71673000D01*
X246927691Y-71674053D01*
X246927691Y-71674053D01*
G37*
D15*
G04 #@! TD*
G04 #@! TO.P,C9,2*
G04 #@! TO.N,+2V8*
X246650000Y-72110500D03*
D14*
G04 #@! TO.N,/SCL*
G04 #@! TO.C,R12*
G36*
X241325691Y-71408053D02*
X241346926Y-71411203D01*
X241367750Y-71416419D01*
X241387962Y-71423651D01*
X241407368Y-71432830D01*
X241425781Y-71443866D01*
X241443024Y-71456654D01*
X241458930Y-71471070D01*
X241473346Y-71486976D01*
X241486134Y-71504219D01*
X241497170Y-71522632D01*
X241506349Y-71542038D01*
X241513581Y-71562250D01*
X241518797Y-71583074D01*
X241521947Y-71604309D01*
X241523000Y-71625750D01*
X241523000Y-72138250D01*
X241521947Y-72159691D01*
X241518797Y-72180926D01*
X241513581Y-72201750D01*
X241506349Y-72221962D01*
X241497170Y-72241368D01*
X241486134Y-72259781D01*
X241473346Y-72277024D01*
X241458930Y-72292930D01*
X241443024Y-72307346D01*
X241425781Y-72320134D01*
X241407368Y-72331170D01*
X241387962Y-72340349D01*
X241367750Y-72347581D01*
X241346926Y-72352797D01*
X241325691Y-72355947D01*
X241304250Y-72357000D01*
X240866750Y-72357000D01*
X240845309Y-72355947D01*
X240824074Y-72352797D01*
X240803250Y-72347581D01*
X240783038Y-72340349D01*
X240763632Y-72331170D01*
X240745219Y-72320134D01*
X240727976Y-72307346D01*
X240712070Y-72292930D01*
X240697654Y-72277024D01*
X240684866Y-72259781D01*
X240673830Y-72241368D01*
X240664651Y-72221962D01*
X240657419Y-72201750D01*
X240652203Y-72180926D01*
X240649053Y-72159691D01*
X240648000Y-72138250D01*
X240648000Y-71625750D01*
X240649053Y-71604309D01*
X240652203Y-71583074D01*
X240657419Y-71562250D01*
X240664651Y-71542038D01*
X240673830Y-71522632D01*
X240684866Y-71504219D01*
X240697654Y-71486976D01*
X240712070Y-71471070D01*
X240727976Y-71456654D01*
X240745219Y-71443866D01*
X240763632Y-71432830D01*
X240783038Y-71423651D01*
X240803250Y-71416419D01*
X240824074Y-71411203D01*
X240845309Y-71408053D01*
X240866750Y-71407000D01*
X241304250Y-71407000D01*
X241325691Y-71408053D01*
X241325691Y-71408053D01*
G37*
D15*
G04 #@! TD*
G04 #@! TO.P,R12,1*
G04 #@! TO.N,/SCL*
X241085500Y-71882000D03*
D14*
G04 #@! TO.N,+2V8*
G04 #@! TO.C,R12*
G36*
X239750691Y-71408053D02*
X239771926Y-71411203D01*
X239792750Y-71416419D01*
X239812962Y-71423651D01*
X239832368Y-71432830D01*
X239850781Y-71443866D01*
X239868024Y-71456654D01*
X239883930Y-71471070D01*
X239898346Y-71486976D01*
X239911134Y-71504219D01*
X239922170Y-71522632D01*
X239931349Y-71542038D01*
X239938581Y-71562250D01*
X239943797Y-71583074D01*
X239946947Y-71604309D01*
X239948000Y-71625750D01*
X239948000Y-72138250D01*
X239946947Y-72159691D01*
X239943797Y-72180926D01*
X239938581Y-72201750D01*
X239931349Y-72221962D01*
X239922170Y-72241368D01*
X239911134Y-72259781D01*
X239898346Y-72277024D01*
X239883930Y-72292930D01*
X239868024Y-72307346D01*
X239850781Y-72320134D01*
X239832368Y-72331170D01*
X239812962Y-72340349D01*
X239792750Y-72347581D01*
X239771926Y-72352797D01*
X239750691Y-72355947D01*
X239729250Y-72357000D01*
X239291750Y-72357000D01*
X239270309Y-72355947D01*
X239249074Y-72352797D01*
X239228250Y-72347581D01*
X239208038Y-72340349D01*
X239188632Y-72331170D01*
X239170219Y-72320134D01*
X239152976Y-72307346D01*
X239137070Y-72292930D01*
X239122654Y-72277024D01*
X239109866Y-72259781D01*
X239098830Y-72241368D01*
X239089651Y-72221962D01*
X239082419Y-72201750D01*
X239077203Y-72180926D01*
X239074053Y-72159691D01*
X239073000Y-72138250D01*
X239073000Y-71625750D01*
X239074053Y-71604309D01*
X239077203Y-71583074D01*
X239082419Y-71562250D01*
X239089651Y-71542038D01*
X239098830Y-71522632D01*
X239109866Y-71504219D01*
X239122654Y-71486976D01*
X239137070Y-71471070D01*
X239152976Y-71456654D01*
X239170219Y-71443866D01*
X239188632Y-71432830D01*
X239208038Y-71423651D01*
X239228250Y-71416419D01*
X239249074Y-71411203D01*
X239270309Y-71408053D01*
X239291750Y-71407000D01*
X239729250Y-71407000D01*
X239750691Y-71408053D01*
X239750691Y-71408053D01*
G37*
D15*
G04 #@! TD*
G04 #@! TO.P,R12,2*
G04 #@! TO.N,+2V8*
X239510500Y-71882000D03*
D17*
G04 #@! TO.P,TP8,1*
G04 #@! TO.N,/Alert3*
X244872000Y-75438000D03*
G04 #@! TD*
D18*
G04 #@! TO.P,J1,1*
G04 #@! TO.N,+BATT*
X243000000Y-64000000D03*
G04 #@! TD*
G04 #@! TO.P,J2,1*
G04 #@! TO.N,GND*
X163000000Y-64000000D03*
G04 #@! TD*
D19*
G04 #@! TO.N,/EN*
X182626000Y-69088000D03*
X187452000Y-71120000D03*
G04 #@! TO.N,/BOOT*
X175006000Y-67818000D03*
G04 #@! TO.N,/TX*
X184912000Y-57785000D03*
G04 #@! TO.N,/RX*
X183642000Y-58420000D03*
G04 #@! TO.N,Net-(Q4-Pad1)*
X188976006Y-68580000D03*
X224028000Y-62992004D03*
G04 #@! TO.N,Net-(Q3-Pad1)*
X188976000Y-67310000D03*
X214081039Y-62926451D03*
G04 #@! TO.N,Net-(Q2-Pad1)*
X188976000Y-66040000D03*
X205232000Y-62484000D03*
G04 #@! TO.N,Net-(Q1-Pad1)*
X188976000Y-64770000D03*
X195326006Y-62366990D03*
D20*
G04 #@! TO.N,VCC*
X227709000Y-54610000D03*
X227709000Y-72390000D03*
D19*
G04 #@! TO.N,/SDA*
X189992000Y-68834000D03*
X207962000Y-66548000D03*
X232410000Y-62484000D03*
G04 #@! TO.N,/SCL*
X190500000Y-67818000D03*
X209740004Y-65786000D03*
X233426000Y-62230000D03*
X209804000Y-67310000D03*
G04 #@! TO.N,/Alert2*
X188976000Y-63246000D03*
X206502000Y-58420000D03*
G04 #@! TO.N,/Alert1*
X188976000Y-61976000D03*
X229218705Y-61214000D03*
D21*
G04 #@! TO.N,+2V8*
X171450000Y-54610000D03*
X210058000Y-58928000D03*
D19*
X238499868Y-69940990D03*
D21*
X228675477Y-60093892D03*
X234850999Y-63273536D03*
D19*
X237776803Y-72005090D03*
G04 #@! TO.N,/Alert3*
X185674000Y-72390000D03*
G04 #@! TD*
D22*
G04 #@! TO.N,GND*
X244856000Y-72898000D02*
X243756000Y-72898000D01*
X246650000Y-73685500D02*
X245862500Y-72898000D01*
X245862500Y-72898000D02*
X245618000Y-72898000D01*
G04 #@! TO.N,/EN*
X181102000Y-72644000D02*
X181102000Y-74930000D01*
X182372000Y-69342000D02*
X182626000Y-69088000D01*
X181102000Y-72644000D02*
X181102000Y-70612000D01*
X181102000Y-70612000D02*
X182372000Y-69342000D01*
X186886315Y-71120000D02*
X187452000Y-71120000D01*
X181102000Y-72644000D02*
X182626000Y-71120000D01*
X182626000Y-71120000D02*
X186886315Y-71120000D01*
G04 #@! TO.N,/BOOT*
X174606001Y-68217999D02*
X175006000Y-67818000D01*
X173482000Y-74930000D02*
X173482000Y-69342000D01*
X173482000Y-69342000D02*
X174606001Y-68217999D01*
G04 #@! TO.N,/TX*
X184912000Y-58350685D02*
X184912000Y-57785000D01*
X184912000Y-64770000D02*
X184912000Y-58350685D01*
X178562000Y-74930000D02*
X178562000Y-71120000D01*
X178562000Y-71120000D02*
X184912000Y-64770000D01*
G04 #@! TO.N,/RX*
X176022000Y-70612000D02*
X176022000Y-74930000D01*
X183242001Y-63391999D02*
X176022000Y-70612000D01*
X183642000Y-58420000D02*
X183242001Y-58819999D01*
X183242001Y-58819999D02*
X183242001Y-63391999D01*
G04 #@! TO.N,Net-(Q4-Pad1)*
X223329005Y-63690999D02*
X223628001Y-63392003D01*
X212867002Y-64246998D02*
X213423001Y-63690999D01*
X223628001Y-63392003D02*
X224028000Y-62992004D01*
X189738000Y-67400996D02*
X191797995Y-65341001D01*
X189738000Y-67818006D02*
X189738000Y-67400996D01*
X188976006Y-68580000D02*
X189738000Y-67818006D01*
X213423001Y-63690999D02*
X223329005Y-63690999D01*
X191797995Y-65341001D02*
X206438999Y-65341001D01*
X206438999Y-65341001D02*
X207533002Y-64246998D01*
X207533002Y-64246998D02*
X212867002Y-64246998D01*
G04 #@! TO.N,Net-(Q3-Pad1)*
X213106000Y-62992000D02*
X214015490Y-62992000D01*
X214015490Y-62992000D02*
X214081039Y-62926451D01*
X212511988Y-63586012D02*
X213106000Y-62992000D01*
X188976000Y-67310000D02*
X192699988Y-63586012D01*
X192699988Y-63586012D02*
X212511988Y-63586012D01*
G04 #@! TO.N,Net-(Q2-Pad1)*
X188976000Y-66040000D02*
X192024000Y-62992000D01*
X192024000Y-62992000D02*
X204724000Y-62992000D01*
X204724000Y-62992000D02*
X204832001Y-62883999D01*
X204832001Y-62883999D02*
X205232000Y-62484000D01*
G04 #@! TO.N,Net-(Q1-Pad1)*
X188976000Y-64770000D02*
X191379010Y-62366990D01*
X191379010Y-62366990D02*
X194760321Y-62366990D01*
X194760321Y-62366990D02*
X195326006Y-62366990D01*
G04 #@! TO.N,/SDA*
X190754000Y-68834000D02*
X189992000Y-68834000D01*
X207962000Y-66548000D02*
X193040000Y-66548000D01*
X193040000Y-66548000D02*
X190754000Y-68834000D01*
X228549002Y-66548000D02*
X208527685Y-66548000D01*
X231201001Y-63896001D02*
X228549002Y-66548000D01*
X208527685Y-66548000D02*
X207962000Y-66548000D01*
X231201001Y-63692999D02*
X231201001Y-63896001D01*
X232410000Y-62484000D02*
X231201001Y-63692999D01*
X241151500Y-73848000D02*
X241085500Y-73914000D01*
X242756000Y-73848000D02*
X241151500Y-73848000D01*
X208026000Y-66548000D02*
X207962000Y-66548000D01*
X241085500Y-73914000D02*
X241085500Y-74382500D01*
X210312000Y-68834000D02*
X208026000Y-66548000D01*
X239184000Y-75184000D02*
X232834000Y-68834000D01*
X232834000Y-68834000D02*
X210312000Y-68834000D01*
X239184000Y-75184000D02*
X240816000Y-75184000D01*
X241085500Y-74914500D02*
X241085500Y-73914000D01*
X240816000Y-75184000D02*
X241085500Y-74914500D01*
G04 #@! TO.N,/SCL*
X209740004Y-65786000D02*
X192532000Y-65786000D01*
X190500000Y-67818000D02*
X192532000Y-65786000D01*
X233426000Y-62484000D02*
X233426000Y-62230000D01*
X228999999Y-66910001D02*
X233426000Y-62484000D01*
X209804000Y-67310000D02*
X210203999Y-66910001D01*
X210203999Y-66910001D02*
X228999999Y-66910001D01*
X233825999Y-62629999D02*
X233825999Y-66996997D01*
X233426000Y-62230000D02*
X233825999Y-62629999D01*
X236728000Y-69850000D02*
X237744000Y-70866000D01*
X233825999Y-66996997D02*
X236679002Y-69850000D01*
X236679002Y-69850000D02*
X236728000Y-69850000D01*
X242690000Y-71882000D02*
X242756000Y-71948000D01*
X241085500Y-71882000D02*
X242690000Y-71882000D01*
X237744000Y-70866000D02*
X240866000Y-70866000D01*
X241085500Y-71085500D02*
X241085500Y-71882000D01*
X240866000Y-70866000D02*
X241085500Y-71085500D01*
G04 #@! TO.N,/Alert2*
X206248000Y-58166000D02*
X206502000Y-58420000D01*
X193850998Y-58166000D02*
X206248000Y-58166000D01*
X188976000Y-63246000D02*
X188976000Y-63040998D01*
X188976000Y-63040998D02*
X193850998Y-58166000D01*
G04 #@! TO.N,/Alert1*
X210058000Y-60706000D02*
X227838000Y-60706000D01*
X207010000Y-57658000D02*
X210058000Y-60706000D01*
X188976000Y-61976000D02*
X193294000Y-57658000D01*
X193294000Y-57658000D02*
X207010000Y-57658000D01*
X228346000Y-61214000D02*
X229218705Y-61214000D01*
X227838000Y-60706000D02*
X228346000Y-61214000D01*
D23*
G04 #@! TO.N,+2V8*
X210811999Y-57920001D02*
X210811999Y-57903999D01*
X210058000Y-58928000D02*
X210058000Y-58220894D01*
X208720096Y-56882990D02*
X210058000Y-58220894D01*
X185563992Y-56882990D02*
X208720096Y-56882990D01*
X171450000Y-54610000D02*
X183291002Y-54610000D01*
X183291002Y-54610000D02*
X185563992Y-56882990D01*
X210803998Y-57912000D02*
X210811999Y-57920001D01*
X210312000Y-57912000D02*
X210803998Y-57912000D01*
X210058000Y-58220894D02*
X210058000Y-58166000D01*
X210058000Y-58166000D02*
X210312000Y-57912000D01*
X228175478Y-59593893D02*
X228675477Y-60093892D01*
X210811999Y-57920001D02*
X226501586Y-57920001D01*
X226501586Y-57920001D02*
X228175478Y-59593893D01*
X237915018Y-69940990D02*
X238499868Y-69940990D01*
X234850999Y-63273536D02*
X234850999Y-66876971D01*
X234850999Y-66876971D02*
X237915018Y-69940990D01*
X237899893Y-71882000D02*
X237776803Y-72005090D01*
X239510500Y-71882000D02*
X239510500Y-73914000D01*
X244956000Y-71123000D02*
X244956000Y-71948000D01*
X243773990Y-69940990D02*
X244956000Y-71123000D01*
X238499868Y-69940990D02*
X243773990Y-69940990D01*
X246487500Y-71948000D02*
X246650000Y-72110500D01*
X244956000Y-71948000D02*
X246487500Y-71948000D01*
X239387410Y-72005090D02*
X239510500Y-71882000D01*
X237776803Y-72005090D02*
X239387410Y-72005090D01*
D22*
G04 #@! TO.N,/Alert3*
X244956000Y-75354000D02*
X244872000Y-75438000D01*
X244956000Y-73848000D02*
X244956000Y-75354000D01*
X244618000Y-75692000D02*
X244872000Y-75438000D01*
X186239685Y-72390000D02*
X185674000Y-72390000D01*
X187763685Y-72390000D02*
X186239685Y-72390000D01*
X190811685Y-69342000D02*
X187763685Y-72390000D01*
X232342000Y-69342000D02*
X190811685Y-69342000D01*
X238760000Y-75692000D02*
X238692000Y-75692000D01*
X238692000Y-75692000D02*
X232342000Y-69342000D01*
X244602000Y-75692000D02*
X238692000Y-75692000D01*
X244872000Y-75438000D02*
X244856000Y-75438000D01*
X244856000Y-75438000D02*
X244602000Y-75692000D01*
G04 #@! TD*
D24*
G04 #@! TO.N,VCC*
G36*
X231013000Y-55245000D02*
X230378000Y-55245000D01*
X230329399Y-55254667D01*
X230288197Y-55282197D01*
X230260667Y-55323399D01*
X230251000Y-55372000D01*
X230251000Y-56261000D01*
X209007790Y-56261000D01*
X208984248Y-56245270D01*
X208786774Y-56205990D01*
X208786772Y-56205990D01*
X208720096Y-56192727D01*
X208653420Y-56205990D01*
X190373000Y-56205990D01*
X190373000Y-51502000D01*
X231013000Y-51502000D01*
X231013000Y-55245000D01*
X231013000Y-55245000D01*
G37*
X231013000Y-55245000D02*
X230378000Y-55245000D01*
X230329399Y-55254667D01*
X230288197Y-55282197D01*
X230260667Y-55323399D01*
X230251000Y-55372000D01*
X230251000Y-56261000D01*
X209007790Y-56261000D01*
X208984248Y-56245270D01*
X208786774Y-56205990D01*
X208786772Y-56205990D01*
X208720096Y-56192727D01*
X208653420Y-56205990D01*
X190373000Y-56205990D01*
X190373000Y-51502000D01*
X231013000Y-51502000D01*
X231013000Y-55245000D01*
G36*
X230505000Y-74803000D02*
X192151000Y-74803000D01*
X192151000Y-70231000D01*
X230505000Y-70231000D01*
X230505000Y-74803000D01*
X230505000Y-74803000D01*
G37*
X230505000Y-74803000D02*
X192151000Y-74803000D01*
X192151000Y-70231000D01*
X230505000Y-70231000D01*
X230505000Y-74803000D01*
G04 #@! TO.N,+BATT*
G36*
X247290000Y-69882883D02*
X244999386Y-69914808D01*
X244461415Y-69376837D01*
X244412039Y-69302941D01*
X244119300Y-69107338D01*
X243861155Y-69055990D01*
X243861151Y-69055990D01*
X243773990Y-69038653D01*
X243686829Y-69055990D01*
X239067875Y-69055990D01*
X238705742Y-68905990D01*
X238293994Y-68905990D01*
X238268541Y-68916533D01*
X236180461Y-66596443D01*
X240583162Y-66596443D01*
X240925723Y-67071063D01*
X242258863Y-67631084D01*
X243704834Y-67638305D01*
X245043501Y-67091627D01*
X245074277Y-67071063D01*
X245416838Y-66596443D01*
X243000000Y-64179605D01*
X240583162Y-66596443D01*
X236180461Y-66596443D01*
X236093000Y-66499265D01*
X236093000Y-64704834D01*
X239361695Y-64704834D01*
X239908373Y-66043501D01*
X239928937Y-66074277D01*
X240403557Y-66416838D01*
X242820395Y-64000000D01*
X243179605Y-64000000D01*
X245596443Y-66416838D01*
X246071063Y-66074277D01*
X246631084Y-64741137D01*
X246638305Y-63295166D01*
X246091627Y-61956499D01*
X246071063Y-61925723D01*
X245596443Y-61583162D01*
X243179605Y-64000000D01*
X242820395Y-64000000D01*
X240403557Y-61583162D01*
X239928937Y-61925723D01*
X239368916Y-63258863D01*
X239361695Y-64704834D01*
X236093000Y-64704834D01*
X236093000Y-61403557D01*
X240583162Y-61403557D01*
X243000000Y-63820395D01*
X245416838Y-61403557D01*
X245074277Y-60928937D01*
X243741137Y-60368916D01*
X242295166Y-60361695D01*
X240956499Y-60908373D01*
X240925723Y-60928937D01*
X240583162Y-61403557D01*
X236093000Y-61403557D01*
X236093000Y-56642000D01*
X236079592Y-56585204D01*
X235585000Y-55596020D01*
X235585000Y-51710000D01*
X247290001Y-51710000D01*
X247290000Y-69882883D01*
X247290000Y-69882883D01*
G37*
X247290000Y-69882883D02*
X244999386Y-69914808D01*
X244461415Y-69376837D01*
X244412039Y-69302941D01*
X244119300Y-69107338D01*
X243861155Y-69055990D01*
X243861151Y-69055990D01*
X243773990Y-69038653D01*
X243686829Y-69055990D01*
X239067875Y-69055990D01*
X238705742Y-68905990D01*
X238293994Y-68905990D01*
X238268541Y-68916533D01*
X236180461Y-66596443D01*
X240583162Y-66596443D01*
X240925723Y-67071063D01*
X242258863Y-67631084D01*
X243704834Y-67638305D01*
X245043501Y-67091627D01*
X245074277Y-67071063D01*
X245416838Y-66596443D01*
X243000000Y-64179605D01*
X240583162Y-66596443D01*
X236180461Y-66596443D01*
X236093000Y-66499265D01*
X236093000Y-64704834D01*
X239361695Y-64704834D01*
X239908373Y-66043501D01*
X239928937Y-66074277D01*
X240403557Y-66416838D01*
X242820395Y-64000000D01*
X243179605Y-64000000D01*
X245596443Y-66416838D01*
X246071063Y-66074277D01*
X246631084Y-64741137D01*
X246638305Y-63295166D01*
X246091627Y-61956499D01*
X246071063Y-61925723D01*
X245596443Y-61583162D01*
X243179605Y-64000000D01*
X242820395Y-64000000D01*
X240403557Y-61583162D01*
X239928937Y-61925723D01*
X239368916Y-63258863D01*
X239361695Y-64704834D01*
X236093000Y-64704834D01*
X236093000Y-61403557D01*
X240583162Y-61403557D01*
X243000000Y-63820395D01*
X245416838Y-61403557D01*
X245074277Y-60928937D01*
X243741137Y-60368916D01*
X242295166Y-60361695D01*
X240956499Y-60908373D01*
X240925723Y-60928937D01*
X240583162Y-61403557D01*
X236093000Y-61403557D01*
X236093000Y-56642000D01*
X236079592Y-56585204D01*
X235585000Y-55596020D01*
X235585000Y-51710000D01*
X247290001Y-51710000D01*
X247290000Y-69882883D01*
G04 #@! TO.N,GND*
G36*
X169429000Y-52830000D02*
X169438667Y-52878601D01*
X169466197Y-52919803D01*
X169507399Y-52947333D01*
X169556000Y-52957000D01*
X187590000Y-52957000D01*
X187638601Y-52947333D01*
X187679803Y-52919803D01*
X187707333Y-52878601D01*
X187717000Y-52830000D01*
X187717000Y-51502000D01*
X189611000Y-51502000D01*
X189611000Y-56205990D01*
X185844415Y-56205990D01*
X183816866Y-54178443D01*
X183779092Y-54121910D01*
X183555154Y-53972280D01*
X183357680Y-53933000D01*
X183357678Y-53933000D01*
X183291002Y-53919737D01*
X183224326Y-53933000D01*
X172083976Y-53933000D01*
X171975103Y-53824127D01*
X171634392Y-53683000D01*
X171265608Y-53683000D01*
X170924897Y-53824127D01*
X170664127Y-54084897D01*
X170523000Y-54425608D01*
X170523000Y-54794392D01*
X170664127Y-55135103D01*
X170924897Y-55395873D01*
X171265608Y-55537000D01*
X171634392Y-55537000D01*
X171975103Y-55395873D01*
X172083976Y-55287000D01*
X183010581Y-55287000D01*
X184700887Y-56977307D01*
X184443542Y-57083903D01*
X184210903Y-57316542D01*
X184085000Y-57620499D01*
X184085000Y-57708358D01*
X183806501Y-57593000D01*
X183477499Y-57593000D01*
X183173542Y-57718903D01*
X182940903Y-57951542D01*
X182815000Y-58255499D01*
X182815000Y-58465477D01*
X182735472Y-58584501D01*
X182722029Y-58604620D01*
X182679187Y-58819999D01*
X182690001Y-58874364D01*
X182690002Y-63163352D01*
X175670123Y-70183232D01*
X175624030Y-70214030D01*
X175535833Y-70346028D01*
X175502028Y-70396621D01*
X175459186Y-70612000D01*
X175470000Y-70666365D01*
X175470001Y-73763000D01*
X175101335Y-74009335D01*
X174819093Y-74431740D01*
X174752000Y-74769040D01*
X174684907Y-74431740D01*
X174402665Y-74009335D01*
X174034000Y-73763001D01*
X174034000Y-69570645D01*
X174959646Y-68645000D01*
X175170501Y-68645000D01*
X175474458Y-68519097D01*
X175707097Y-68286458D01*
X175833000Y-67982501D01*
X175833000Y-67653499D01*
X175707097Y-67349542D01*
X175474458Y-67116903D01*
X175170501Y-66991000D01*
X174841499Y-66991000D01*
X174537542Y-67116903D01*
X174304903Y-67349542D01*
X174179000Y-67653499D01*
X174179000Y-67864354D01*
X173130121Y-68913234D01*
X173084031Y-68944030D01*
X173013639Y-69049380D01*
X172962028Y-69126621D01*
X172919186Y-69342000D01*
X172930001Y-69396370D01*
X172930000Y-73763001D01*
X172561335Y-74009335D01*
X172279093Y-74431740D01*
X172179983Y-74930000D01*
X172279093Y-75428260D01*
X172561335Y-75850665D01*
X172983740Y-76132907D01*
X173356231Y-76207000D01*
X173607769Y-76207000D01*
X173980260Y-76132907D01*
X174402665Y-75850665D01*
X174684907Y-75428260D01*
X174752000Y-75090960D01*
X174819093Y-75428260D01*
X175101335Y-75850665D01*
X175523740Y-76132907D01*
X175896231Y-76207000D01*
X176147769Y-76207000D01*
X176520260Y-76132907D01*
X176942665Y-75850665D01*
X177224907Y-75428260D01*
X177292000Y-75090960D01*
X177359093Y-75428260D01*
X177641335Y-75850665D01*
X178063740Y-76132907D01*
X178436231Y-76207000D01*
X178687769Y-76207000D01*
X179060260Y-76132907D01*
X179482665Y-75850665D01*
X179764907Y-75428260D01*
X179832000Y-75090960D01*
X179899093Y-75428260D01*
X180181335Y-75850665D01*
X180603740Y-76132907D01*
X180976231Y-76207000D01*
X181227769Y-76207000D01*
X181600260Y-76132907D01*
X182022665Y-75850665D01*
X182304907Y-75428260D01*
X182404017Y-74930000D01*
X182304907Y-74431740D01*
X182022665Y-74009335D01*
X181654000Y-73763001D01*
X181654000Y-72872645D01*
X182854646Y-71672000D01*
X185246349Y-71672000D01*
X185205542Y-71688903D01*
X184972903Y-71921542D01*
X184847000Y-72225499D01*
X184847000Y-72554501D01*
X184972903Y-72858458D01*
X185205542Y-73091097D01*
X185509499Y-73217000D01*
X185838501Y-73217000D01*
X186142458Y-73091097D01*
X186291555Y-72942000D01*
X187709320Y-72942000D01*
X187763685Y-72952814D01*
X187818050Y-72942000D01*
X187979065Y-72909972D01*
X188161655Y-72787970D01*
X188192453Y-72741877D01*
X191040331Y-69894000D01*
X191389000Y-69894000D01*
X191389000Y-75438000D01*
X191398667Y-75486601D01*
X191426197Y-75527803D01*
X191467399Y-75555333D01*
X191516000Y-75565000D01*
X231648000Y-75565000D01*
X231696601Y-75555333D01*
X231737803Y-75527803D01*
X231765333Y-75486601D01*
X231775000Y-75438000D01*
X231775000Y-69894000D01*
X232113355Y-69894000D01*
X238263233Y-76043879D01*
X238294030Y-76089970D01*
X238469179Y-76207000D01*
X238476620Y-76211972D01*
X238691999Y-76254814D01*
X238746364Y-76244000D01*
X244395488Y-76244000D01*
X244687608Y-76365000D01*
X245056392Y-76365000D01*
X245397103Y-76223873D01*
X245657873Y-75963103D01*
X245799000Y-75622392D01*
X245799000Y-75253608D01*
X245657873Y-74912897D01*
X245508000Y-74763024D01*
X245508000Y-74603989D01*
X245652607Y-74575225D01*
X245793850Y-74480850D01*
X245847976Y-74399845D01*
X245933124Y-74484993D01*
X246090064Y-74550000D01*
X246520250Y-74550000D01*
X246627000Y-74443250D01*
X246627000Y-73708500D01*
X246607000Y-73708500D01*
X246607000Y-73662500D01*
X246627000Y-73662500D01*
X246627000Y-73642500D01*
X246673000Y-73642500D01*
X246673000Y-73662500D01*
X246693000Y-73662500D01*
X246693000Y-73708500D01*
X246673000Y-73708500D01*
X246673000Y-74443250D01*
X246779750Y-74550000D01*
X247209936Y-74550000D01*
X247366876Y-74484993D01*
X247486993Y-74364876D01*
X247498000Y-74338302D01*
X247498000Y-76498000D01*
X158502000Y-76498000D01*
X158502000Y-66411267D01*
X160621260Y-66411267D01*
X160965004Y-66840061D01*
X162206753Y-67402634D01*
X163569266Y-67447187D01*
X164845115Y-66966937D01*
X165034996Y-66840061D01*
X165378740Y-66411267D01*
X163000000Y-64032527D01*
X160621260Y-66411267D01*
X158502000Y-66411267D01*
X158502000Y-64569266D01*
X159552813Y-64569266D01*
X160033063Y-65845115D01*
X160159939Y-66034996D01*
X160588733Y-66378740D01*
X162967473Y-64000000D01*
X163032527Y-64000000D01*
X165411267Y-66378740D01*
X165840061Y-66034996D01*
X166402634Y-64793247D01*
X166447187Y-63430734D01*
X165966937Y-62154885D01*
X165840061Y-61965004D01*
X165411267Y-61621260D01*
X163032527Y-64000000D01*
X162967473Y-64000000D01*
X160588733Y-61621260D01*
X160159939Y-61965004D01*
X159597366Y-63206753D01*
X159552813Y-64569266D01*
X158502000Y-64569266D01*
X158502000Y-61588733D01*
X160621260Y-61588733D01*
X163000000Y-63967473D01*
X165378740Y-61588733D01*
X165034996Y-61159939D01*
X163793247Y-60597366D01*
X162430734Y-60552813D01*
X161154885Y-61033063D01*
X160965004Y-61159939D01*
X160621260Y-61588733D01*
X158502000Y-61588733D01*
X158502000Y-51502000D01*
X169429000Y-51502000D01*
X169429000Y-52830000D01*
X169429000Y-52830000D01*
G37*
X169429000Y-52830000D02*
X169438667Y-52878601D01*
X169466197Y-52919803D01*
X169507399Y-52947333D01*
X169556000Y-52957000D01*
X187590000Y-52957000D01*
X187638601Y-52947333D01*
X187679803Y-52919803D01*
X187707333Y-52878601D01*
X187717000Y-52830000D01*
X187717000Y-51502000D01*
X189611000Y-51502000D01*
X189611000Y-56205990D01*
X185844415Y-56205990D01*
X183816866Y-54178443D01*
X183779092Y-54121910D01*
X183555154Y-53972280D01*
X183357680Y-53933000D01*
X183357678Y-53933000D01*
X183291002Y-53919737D01*
X183224326Y-53933000D01*
X172083976Y-53933000D01*
X171975103Y-53824127D01*
X171634392Y-53683000D01*
X171265608Y-53683000D01*
X170924897Y-53824127D01*
X170664127Y-54084897D01*
X170523000Y-54425608D01*
X170523000Y-54794392D01*
X170664127Y-55135103D01*
X170924897Y-55395873D01*
X171265608Y-55537000D01*
X171634392Y-55537000D01*
X171975103Y-55395873D01*
X172083976Y-55287000D01*
X183010581Y-55287000D01*
X184700887Y-56977307D01*
X184443542Y-57083903D01*
X184210903Y-57316542D01*
X184085000Y-57620499D01*
X184085000Y-57708358D01*
X183806501Y-57593000D01*
X183477499Y-57593000D01*
X183173542Y-57718903D01*
X182940903Y-57951542D01*
X182815000Y-58255499D01*
X182815000Y-58465477D01*
X182735472Y-58584501D01*
X182722029Y-58604620D01*
X182679187Y-58819999D01*
X182690001Y-58874364D01*
X182690002Y-63163352D01*
X175670123Y-70183232D01*
X175624030Y-70214030D01*
X175535833Y-70346028D01*
X175502028Y-70396621D01*
X175459186Y-70612000D01*
X175470000Y-70666365D01*
X175470001Y-73763000D01*
X175101335Y-74009335D01*
X174819093Y-74431740D01*
X174752000Y-74769040D01*
X174684907Y-74431740D01*
X174402665Y-74009335D01*
X174034000Y-73763001D01*
X174034000Y-69570645D01*
X174959646Y-68645000D01*
X175170501Y-68645000D01*
X175474458Y-68519097D01*
X175707097Y-68286458D01*
X175833000Y-67982501D01*
X175833000Y-67653499D01*
X175707097Y-67349542D01*
X175474458Y-67116903D01*
X175170501Y-66991000D01*
X174841499Y-66991000D01*
X174537542Y-67116903D01*
X174304903Y-67349542D01*
X174179000Y-67653499D01*
X174179000Y-67864354D01*
X173130121Y-68913234D01*
X173084031Y-68944030D01*
X173013639Y-69049380D01*
X172962028Y-69126621D01*
X172919186Y-69342000D01*
X172930001Y-69396370D01*
X172930000Y-73763001D01*
X172561335Y-74009335D01*
X172279093Y-74431740D01*
X172179983Y-74930000D01*
X172279093Y-75428260D01*
X172561335Y-75850665D01*
X172983740Y-76132907D01*
X173356231Y-76207000D01*
X173607769Y-76207000D01*
X173980260Y-76132907D01*
X174402665Y-75850665D01*
X174684907Y-75428260D01*
X174752000Y-75090960D01*
X174819093Y-75428260D01*
X175101335Y-75850665D01*
X175523740Y-76132907D01*
X175896231Y-76207000D01*
X176147769Y-76207000D01*
X176520260Y-76132907D01*
X176942665Y-75850665D01*
X177224907Y-75428260D01*
X177292000Y-75090960D01*
X177359093Y-75428260D01*
X177641335Y-75850665D01*
X178063740Y-76132907D01*
X178436231Y-76207000D01*
X178687769Y-76207000D01*
X179060260Y-76132907D01*
X179482665Y-75850665D01*
X179764907Y-75428260D01*
X179832000Y-75090960D01*
X179899093Y-75428260D01*
X180181335Y-75850665D01*
X180603740Y-76132907D01*
X180976231Y-76207000D01*
X181227769Y-76207000D01*
X181600260Y-76132907D01*
X182022665Y-75850665D01*
X182304907Y-75428260D01*
X182404017Y-74930000D01*
X182304907Y-74431740D01*
X182022665Y-74009335D01*
X181654000Y-73763001D01*
X181654000Y-72872645D01*
X182854646Y-71672000D01*
X185246349Y-71672000D01*
X185205542Y-71688903D01*
X184972903Y-71921542D01*
X184847000Y-72225499D01*
X184847000Y-72554501D01*
X184972903Y-72858458D01*
X185205542Y-73091097D01*
X185509499Y-73217000D01*
X185838501Y-73217000D01*
X186142458Y-73091097D01*
X186291555Y-72942000D01*
X187709320Y-72942000D01*
X187763685Y-72952814D01*
X187818050Y-72942000D01*
X187979065Y-72909972D01*
X188161655Y-72787970D01*
X188192453Y-72741877D01*
X191040331Y-69894000D01*
X191389000Y-69894000D01*
X191389000Y-75438000D01*
X191398667Y-75486601D01*
X191426197Y-75527803D01*
X191467399Y-75555333D01*
X191516000Y-75565000D01*
X231648000Y-75565000D01*
X231696601Y-75555333D01*
X231737803Y-75527803D01*
X231765333Y-75486601D01*
X231775000Y-75438000D01*
X231775000Y-69894000D01*
X232113355Y-69894000D01*
X238263233Y-76043879D01*
X238294030Y-76089970D01*
X238469179Y-76207000D01*
X238476620Y-76211972D01*
X238691999Y-76254814D01*
X238746364Y-76244000D01*
X244395488Y-76244000D01*
X244687608Y-76365000D01*
X245056392Y-76365000D01*
X245397103Y-76223873D01*
X245657873Y-75963103D01*
X245799000Y-75622392D01*
X245799000Y-75253608D01*
X245657873Y-74912897D01*
X245508000Y-74763024D01*
X245508000Y-74603989D01*
X245652607Y-74575225D01*
X245793850Y-74480850D01*
X245847976Y-74399845D01*
X245933124Y-74484993D01*
X246090064Y-74550000D01*
X246520250Y-74550000D01*
X246627000Y-74443250D01*
X246627000Y-73708500D01*
X246607000Y-73708500D01*
X246607000Y-73662500D01*
X246627000Y-73662500D01*
X246627000Y-73642500D01*
X246673000Y-73642500D01*
X246673000Y-73662500D01*
X246693000Y-73662500D01*
X246693000Y-73708500D01*
X246673000Y-73708500D01*
X246673000Y-74443250D01*
X246779750Y-74550000D01*
X247209936Y-74550000D01*
X247366876Y-74484993D01*
X247486993Y-74364876D01*
X247498000Y-74338302D01*
X247498000Y-76498000D01*
X158502000Y-76498000D01*
X158502000Y-66411267D01*
X160621260Y-66411267D01*
X160965004Y-66840061D01*
X162206753Y-67402634D01*
X163569266Y-67447187D01*
X164845115Y-66966937D01*
X165034996Y-66840061D01*
X165378740Y-66411267D01*
X163000000Y-64032527D01*
X160621260Y-66411267D01*
X158502000Y-66411267D01*
X158502000Y-64569266D01*
X159552813Y-64569266D01*
X160033063Y-65845115D01*
X160159939Y-66034996D01*
X160588733Y-66378740D01*
X162967473Y-64000000D01*
X163032527Y-64000000D01*
X165411267Y-66378740D01*
X165840061Y-66034996D01*
X166402634Y-64793247D01*
X166447187Y-63430734D01*
X165966937Y-62154885D01*
X165840061Y-61965004D01*
X165411267Y-61621260D01*
X163032527Y-64000000D01*
X162967473Y-64000000D01*
X160588733Y-61621260D01*
X160159939Y-61965004D01*
X159597366Y-63206753D01*
X159552813Y-64569266D01*
X158502000Y-64569266D01*
X158502000Y-61588733D01*
X160621260Y-61588733D01*
X163000000Y-63967473D01*
X165378740Y-61588733D01*
X165034996Y-61159939D01*
X163793247Y-60597366D01*
X162430734Y-60552813D01*
X161154885Y-61033063D01*
X160965004Y-61159939D01*
X160621260Y-61588733D01*
X158502000Y-61588733D01*
X158502000Y-51502000D01*
X169429000Y-51502000D01*
X169429000Y-52830000D01*
G36*
X244161657Y-71286080D02*
X244118150Y-71315150D01*
X244023775Y-71456393D01*
X243990635Y-71623000D01*
X243990635Y-72273000D01*
X244023775Y-72439607D01*
X244118150Y-72580850D01*
X244259393Y-72675225D01*
X244426000Y-72708365D01*
X245486000Y-72708365D01*
X245652607Y-72675225D01*
X245727774Y-72625000D01*
X245819783Y-72625000D01*
X245931221Y-72791779D01*
X246019004Y-72850434D01*
X245933124Y-72886007D01*
X245813007Y-73006124D01*
X245748000Y-73163065D01*
X245748000Y-73184514D01*
X245652607Y-73120775D01*
X245486000Y-73087635D01*
X244426000Y-73087635D01*
X244259393Y-73120775D01*
X244118150Y-73215150D01*
X244023775Y-73356393D01*
X243990635Y-73523000D01*
X243990635Y-74173000D01*
X244023775Y-74339607D01*
X244118150Y-74480850D01*
X244259393Y-74575225D01*
X244404001Y-74603989D01*
X244404001Y-74628474D01*
X244346897Y-74652127D01*
X244086127Y-74912897D01*
X243992058Y-75140000D01*
X241598710Y-75140000D01*
X241605472Y-75129880D01*
X241637500Y-74968865D01*
X241637500Y-74968864D01*
X241648314Y-74914500D01*
X241637500Y-74860135D01*
X241637500Y-74719160D01*
X241766779Y-74632779D01*
X241893222Y-74443543D01*
X241918150Y-74480850D01*
X242059393Y-74575225D01*
X242226000Y-74608365D01*
X243286000Y-74608365D01*
X243452607Y-74575225D01*
X243593850Y-74480850D01*
X243688225Y-74339607D01*
X243721365Y-74173000D01*
X243721365Y-73523000D01*
X243689751Y-73364064D01*
X243713000Y-73307936D01*
X243713000Y-73027750D01*
X243606250Y-72921000D01*
X242779000Y-72921000D01*
X242779000Y-72941000D01*
X242733000Y-72941000D01*
X242733000Y-72921000D01*
X241905750Y-72921000D01*
X241799000Y-73027750D01*
X241799000Y-73243443D01*
X241766779Y-73195221D01*
X241554569Y-73053427D01*
X241304250Y-73003635D01*
X240866750Y-73003635D01*
X240616431Y-73053427D01*
X240404221Y-73195221D01*
X240298000Y-73354192D01*
X240191779Y-73195221D01*
X240187500Y-73192362D01*
X240187500Y-72603638D01*
X240191779Y-72600779D01*
X240298000Y-72441808D01*
X240404221Y-72600779D01*
X240616431Y-72742573D01*
X240866750Y-72792365D01*
X241304250Y-72792365D01*
X241554569Y-72742573D01*
X241766779Y-72600779D01*
X241799000Y-72552557D01*
X241799000Y-72768250D01*
X241905750Y-72875000D01*
X242733000Y-72875000D01*
X242733000Y-72855000D01*
X242779000Y-72855000D01*
X242779000Y-72875000D01*
X243606250Y-72875000D01*
X243713000Y-72768250D01*
X243713000Y-72488064D01*
X243689751Y-72431936D01*
X243721365Y-72273000D01*
X243721365Y-71623000D01*
X243688225Y-71456393D01*
X243593850Y-71315150D01*
X243452607Y-71220775D01*
X243286000Y-71187635D01*
X242226000Y-71187635D01*
X242059393Y-71220775D01*
X241918150Y-71315150D01*
X241908228Y-71330000D01*
X241878217Y-71330000D01*
X241766779Y-71163221D01*
X241647985Y-71083845D01*
X241612335Y-70904621D01*
X241605472Y-70870120D01*
X241517861Y-70739000D01*
X243614579Y-70739000D01*
X244161657Y-71286080D01*
X244161657Y-71286080D01*
G37*
X244161657Y-71286080D02*
X244118150Y-71315150D01*
X244023775Y-71456393D01*
X243990635Y-71623000D01*
X243990635Y-72273000D01*
X244023775Y-72439607D01*
X244118150Y-72580850D01*
X244259393Y-72675225D01*
X244426000Y-72708365D01*
X245486000Y-72708365D01*
X245652607Y-72675225D01*
X245727774Y-72625000D01*
X245819783Y-72625000D01*
X245931221Y-72791779D01*
X246019004Y-72850434D01*
X245933124Y-72886007D01*
X245813007Y-73006124D01*
X245748000Y-73163065D01*
X245748000Y-73184514D01*
X245652607Y-73120775D01*
X245486000Y-73087635D01*
X244426000Y-73087635D01*
X244259393Y-73120775D01*
X244118150Y-73215150D01*
X244023775Y-73356393D01*
X243990635Y-73523000D01*
X243990635Y-74173000D01*
X244023775Y-74339607D01*
X244118150Y-74480850D01*
X244259393Y-74575225D01*
X244404001Y-74603989D01*
X244404001Y-74628474D01*
X244346897Y-74652127D01*
X244086127Y-74912897D01*
X243992058Y-75140000D01*
X241598710Y-75140000D01*
X241605472Y-75129880D01*
X241637500Y-74968865D01*
X241637500Y-74968864D01*
X241648314Y-74914500D01*
X241637500Y-74860135D01*
X241637500Y-74719160D01*
X241766779Y-74632779D01*
X241893222Y-74443543D01*
X241918150Y-74480850D01*
X242059393Y-74575225D01*
X242226000Y-74608365D01*
X243286000Y-74608365D01*
X243452607Y-74575225D01*
X243593850Y-74480850D01*
X243688225Y-74339607D01*
X243721365Y-74173000D01*
X243721365Y-73523000D01*
X243689751Y-73364064D01*
X243713000Y-73307936D01*
X243713000Y-73027750D01*
X243606250Y-72921000D01*
X242779000Y-72921000D01*
X242779000Y-72941000D01*
X242733000Y-72941000D01*
X242733000Y-72921000D01*
X241905750Y-72921000D01*
X241799000Y-73027750D01*
X241799000Y-73243443D01*
X241766779Y-73195221D01*
X241554569Y-73053427D01*
X241304250Y-73003635D01*
X240866750Y-73003635D01*
X240616431Y-73053427D01*
X240404221Y-73195221D01*
X240298000Y-73354192D01*
X240191779Y-73195221D01*
X240187500Y-73192362D01*
X240187500Y-72603638D01*
X240191779Y-72600779D01*
X240298000Y-72441808D01*
X240404221Y-72600779D01*
X240616431Y-72742573D01*
X240866750Y-72792365D01*
X241304250Y-72792365D01*
X241554569Y-72742573D01*
X241766779Y-72600779D01*
X241799000Y-72552557D01*
X241799000Y-72768250D01*
X241905750Y-72875000D01*
X242733000Y-72875000D01*
X242733000Y-72855000D01*
X242779000Y-72855000D01*
X242779000Y-72875000D01*
X243606250Y-72875000D01*
X243713000Y-72768250D01*
X243713000Y-72488064D01*
X243689751Y-72431936D01*
X243721365Y-72273000D01*
X243721365Y-71623000D01*
X243688225Y-71456393D01*
X243593850Y-71315150D01*
X243452607Y-71220775D01*
X243286000Y-71187635D01*
X242226000Y-71187635D01*
X242059393Y-71220775D01*
X241918150Y-71315150D01*
X241908228Y-71330000D01*
X241878217Y-71330000D01*
X241766779Y-71163221D01*
X241647985Y-71083845D01*
X241612335Y-70904621D01*
X241605472Y-70870120D01*
X241517861Y-70739000D01*
X243614579Y-70739000D01*
X244161657Y-71286080D01*
G36*
X189022355Y-61149000D02*
X188811499Y-61149000D01*
X188507542Y-61274903D01*
X188274903Y-61507542D01*
X188149000Y-61811499D01*
X188149000Y-62140501D01*
X188274903Y-62444458D01*
X188441445Y-62611000D01*
X188274903Y-62777542D01*
X188149000Y-63081499D01*
X188149000Y-63410501D01*
X188274903Y-63714458D01*
X188507542Y-63947097D01*
X188654575Y-64008000D01*
X188507542Y-64068903D01*
X188274903Y-64301542D01*
X188149000Y-64605499D01*
X188149000Y-64934501D01*
X188274903Y-65238458D01*
X188441445Y-65405000D01*
X188274903Y-65571542D01*
X188149000Y-65875499D01*
X188149000Y-66204501D01*
X188274903Y-66508458D01*
X188441445Y-66675000D01*
X188274903Y-66841542D01*
X188149000Y-67145499D01*
X188149000Y-67474501D01*
X188274903Y-67778458D01*
X188441448Y-67945003D01*
X188274909Y-68111542D01*
X188149006Y-68415499D01*
X188149006Y-68744501D01*
X188274909Y-69048458D01*
X188507548Y-69281097D01*
X188811505Y-69407000D01*
X189140507Y-69407000D01*
X189320775Y-69332330D01*
X189523542Y-69535097D01*
X189745857Y-69627183D01*
X188279000Y-71094040D01*
X188279000Y-70955499D01*
X188153097Y-70651542D01*
X187920458Y-70418903D01*
X187616501Y-70293000D01*
X187287499Y-70293000D01*
X186983542Y-70418903D01*
X186834445Y-70568000D01*
X182680364Y-70568000D01*
X182625999Y-70557186D01*
X182410620Y-70600028D01*
X182228030Y-70722030D01*
X182197235Y-70768119D01*
X181654000Y-71311354D01*
X181654000Y-70840645D01*
X182579646Y-69915000D01*
X182790501Y-69915000D01*
X183094458Y-69789097D01*
X183327097Y-69556458D01*
X183453000Y-69252501D01*
X183453000Y-68923499D01*
X183327097Y-68619542D01*
X183094458Y-68386903D01*
X182790501Y-68261000D01*
X182461499Y-68261000D01*
X182157542Y-68386903D01*
X181924903Y-68619542D01*
X181799000Y-68923499D01*
X181799000Y-69134354D01*
X180750121Y-70183234D01*
X180704031Y-70214030D01*
X180644459Y-70303186D01*
X180582028Y-70396621D01*
X180539186Y-70612000D01*
X180550001Y-70666370D01*
X180550000Y-72589635D01*
X180539186Y-72644000D01*
X180550000Y-72698364D01*
X180550000Y-73763001D01*
X180181335Y-74009335D01*
X179899093Y-74431740D01*
X179832000Y-74769040D01*
X179764907Y-74431740D01*
X179482665Y-74009335D01*
X179114000Y-73763001D01*
X179114000Y-71348645D01*
X185263880Y-65198766D01*
X185309970Y-65167970D01*
X185431972Y-64985380D01*
X185464000Y-64824365D01*
X185464000Y-64824364D01*
X185474814Y-64770001D01*
X185464000Y-64715636D01*
X185464000Y-58402555D01*
X185613097Y-58253458D01*
X185739000Y-57949501D01*
X185739000Y-57620499D01*
X185713936Y-57559990D01*
X192611364Y-57559990D01*
X189022355Y-61149000D01*
X189022355Y-61149000D01*
G37*
X189022355Y-61149000D02*
X188811499Y-61149000D01*
X188507542Y-61274903D01*
X188274903Y-61507542D01*
X188149000Y-61811499D01*
X188149000Y-62140501D01*
X188274903Y-62444458D01*
X188441445Y-62611000D01*
X188274903Y-62777542D01*
X188149000Y-63081499D01*
X188149000Y-63410501D01*
X188274903Y-63714458D01*
X188507542Y-63947097D01*
X188654575Y-64008000D01*
X188507542Y-64068903D01*
X188274903Y-64301542D01*
X188149000Y-64605499D01*
X188149000Y-64934501D01*
X188274903Y-65238458D01*
X188441445Y-65405000D01*
X188274903Y-65571542D01*
X188149000Y-65875499D01*
X188149000Y-66204501D01*
X188274903Y-66508458D01*
X188441445Y-66675000D01*
X188274903Y-66841542D01*
X188149000Y-67145499D01*
X188149000Y-67474501D01*
X188274903Y-67778458D01*
X188441448Y-67945003D01*
X188274909Y-68111542D01*
X188149006Y-68415499D01*
X188149006Y-68744501D01*
X188274909Y-69048458D01*
X188507548Y-69281097D01*
X188811505Y-69407000D01*
X189140507Y-69407000D01*
X189320775Y-69332330D01*
X189523542Y-69535097D01*
X189745857Y-69627183D01*
X188279000Y-71094040D01*
X188279000Y-70955499D01*
X188153097Y-70651542D01*
X187920458Y-70418903D01*
X187616501Y-70293000D01*
X187287499Y-70293000D01*
X186983542Y-70418903D01*
X186834445Y-70568000D01*
X182680364Y-70568000D01*
X182625999Y-70557186D01*
X182410620Y-70600028D01*
X182228030Y-70722030D01*
X182197235Y-70768119D01*
X181654000Y-71311354D01*
X181654000Y-70840645D01*
X182579646Y-69915000D01*
X182790501Y-69915000D01*
X183094458Y-69789097D01*
X183327097Y-69556458D01*
X183453000Y-69252501D01*
X183453000Y-68923499D01*
X183327097Y-68619542D01*
X183094458Y-68386903D01*
X182790501Y-68261000D01*
X182461499Y-68261000D01*
X182157542Y-68386903D01*
X181924903Y-68619542D01*
X181799000Y-68923499D01*
X181799000Y-69134354D01*
X180750121Y-70183234D01*
X180704031Y-70214030D01*
X180644459Y-70303186D01*
X180582028Y-70396621D01*
X180539186Y-70612000D01*
X180550001Y-70666370D01*
X180550000Y-72589635D01*
X180539186Y-72644000D01*
X180550000Y-72698364D01*
X180550000Y-73763001D01*
X180181335Y-74009335D01*
X179899093Y-74431740D01*
X179832000Y-74769040D01*
X179764907Y-74431740D01*
X179482665Y-74009335D01*
X179114000Y-73763001D01*
X179114000Y-71348645D01*
X185263880Y-65198766D01*
X185309970Y-65167970D01*
X185431972Y-64985380D01*
X185464000Y-64824365D01*
X185464000Y-64824364D01*
X185474814Y-64770001D01*
X185464000Y-64715636D01*
X185464000Y-58402555D01*
X185613097Y-58253458D01*
X185739000Y-57949501D01*
X185739000Y-57620499D01*
X185713936Y-57559990D01*
X192611364Y-57559990D01*
X189022355Y-61149000D01*
G36*
X184360000Y-64541354D02*
X178210121Y-70691234D01*
X178164031Y-70722030D01*
X178079600Y-70848391D01*
X178042028Y-70904621D01*
X177999186Y-71120000D01*
X178010001Y-71174370D01*
X178010000Y-73763001D01*
X177641335Y-74009335D01*
X177359093Y-74431740D01*
X177292000Y-74769040D01*
X177224907Y-74431740D01*
X176942665Y-74009335D01*
X176574000Y-73763001D01*
X176574000Y-70840645D01*
X183593880Y-63820766D01*
X183639971Y-63789969D01*
X183761973Y-63607379D01*
X183787784Y-63477619D01*
X183804815Y-63392000D01*
X183794001Y-63337635D01*
X183794001Y-59247000D01*
X183806501Y-59247000D01*
X184110458Y-59121097D01*
X184343097Y-58888458D01*
X184360001Y-58847648D01*
X184360000Y-64541354D01*
X184360000Y-64541354D01*
G37*
X184360000Y-64541354D02*
X178210121Y-70691234D01*
X178164031Y-70722030D01*
X178079600Y-70848391D01*
X178042028Y-70904621D01*
X177999186Y-71120000D01*
X178010001Y-71174370D01*
X178010000Y-73763001D01*
X177641335Y-74009335D01*
X177359093Y-74431740D01*
X177292000Y-74769040D01*
X177224907Y-74431740D01*
X176942665Y-74009335D01*
X176574000Y-73763001D01*
X176574000Y-70840645D01*
X183593880Y-63820766D01*
X183639971Y-63789969D01*
X183761973Y-63607379D01*
X183787784Y-63477619D01*
X183804815Y-63392000D01*
X183794001Y-63337635D01*
X183794001Y-59247000D01*
X183806501Y-59247000D01*
X184110458Y-59121097D01*
X184343097Y-58888458D01*
X184360001Y-58847648D01*
X184360000Y-64541354D01*
G36*
X238833501Y-73192361D02*
X238829221Y-73195221D01*
X238687427Y-73407431D01*
X238637635Y-73657750D01*
X238637635Y-73856989D01*
X237612736Y-72832090D01*
X237941304Y-72832090D01*
X238245261Y-72706187D01*
X238269358Y-72682090D01*
X238833500Y-72682090D01*
X238833501Y-73192361D01*
X238833501Y-73192361D01*
G37*
X238833501Y-73192361D02*
X238829221Y-73195221D01*
X238687427Y-73407431D01*
X238637635Y-73657750D01*
X238637635Y-73856989D01*
X237612736Y-72832090D01*
X237941304Y-72832090D01*
X238245261Y-72706187D01*
X238269358Y-72682090D01*
X238833500Y-72682090D01*
X238833501Y-73192361D01*
G36*
X233274000Y-66942627D02*
X233263185Y-66996997D01*
X233306027Y-67212376D01*
X233306028Y-67212377D01*
X233428030Y-67394967D01*
X233474120Y-67425763D01*
X236250235Y-70201879D01*
X236281032Y-70247970D01*
X236463622Y-70369972D01*
X236468247Y-70370892D01*
X237315233Y-71217879D01*
X237346030Y-71263970D01*
X237368585Y-71279041D01*
X237308345Y-71303993D01*
X237075706Y-71536632D01*
X236949803Y-71840589D01*
X236949803Y-72169157D01*
X233262768Y-68482123D01*
X233231970Y-68436030D01*
X233049380Y-68314028D01*
X232888365Y-68282000D01*
X232834000Y-68271186D01*
X232779635Y-68282000D01*
X210540646Y-68282000D01*
X210270538Y-68011892D01*
X210272458Y-68011097D01*
X210505097Y-67778458D01*
X210631000Y-67474501D01*
X210631000Y-67462001D01*
X228945634Y-67462001D01*
X228999999Y-67472815D01*
X229054364Y-67462001D01*
X229215379Y-67429973D01*
X229397969Y-67307971D01*
X229428767Y-67261878D01*
X233273999Y-63416647D01*
X233274000Y-66942627D01*
X233274000Y-66942627D01*
G37*
X233274000Y-66942627D02*
X233263185Y-66996997D01*
X233306027Y-67212376D01*
X233306028Y-67212377D01*
X233428030Y-67394967D01*
X233474120Y-67425763D01*
X236250235Y-70201879D01*
X236281032Y-70247970D01*
X236463622Y-70369972D01*
X236468247Y-70370892D01*
X237315233Y-71217879D01*
X237346030Y-71263970D01*
X237368585Y-71279041D01*
X237308345Y-71303993D01*
X237075706Y-71536632D01*
X236949803Y-71840589D01*
X236949803Y-72169157D01*
X233262768Y-68482123D01*
X233231970Y-68436030D01*
X233049380Y-68314028D01*
X232888365Y-68282000D01*
X232834000Y-68271186D01*
X232779635Y-68282000D01*
X210540646Y-68282000D01*
X210270538Y-68011892D01*
X210272458Y-68011097D01*
X210505097Y-67778458D01*
X210631000Y-67474501D01*
X210631000Y-67462001D01*
X228945634Y-67462001D01*
X228999999Y-67472815D01*
X229054364Y-67462001D01*
X229215379Y-67429973D01*
X229397969Y-67307971D01*
X229428767Y-67261878D01*
X233273999Y-63416647D01*
X233274000Y-66942627D01*
G36*
X247498000Y-71622614D02*
X247368779Y-71429221D01*
X247156569Y-71287427D01*
X246906250Y-71237635D01*
X246393750Y-71237635D01*
X246226014Y-71271000D01*
X245727774Y-71271000D01*
X245652607Y-71220775D01*
X245633000Y-71216875D01*
X245633000Y-71189678D01*
X245646263Y-71123000D01*
X245593720Y-70858847D01*
X245513641Y-70739000D01*
X247498000Y-70739000D01*
X247498000Y-71622614D01*
X247498000Y-71622614D01*
G37*
X247498000Y-71622614D02*
X247368779Y-71429221D01*
X247156569Y-71287427D01*
X246906250Y-71237635D01*
X246393750Y-71237635D01*
X246226014Y-71271000D01*
X245727774Y-71271000D01*
X245652607Y-71220775D01*
X245633000Y-71216875D01*
X245633000Y-71189678D01*
X245646263Y-71123000D01*
X245593720Y-70858847D01*
X245513641Y-70739000D01*
X247498000Y-70739000D01*
X247498000Y-71622614D01*
G36*
X207493542Y-67249097D02*
X207797499Y-67375000D01*
X208072355Y-67375000D01*
X209487354Y-68790000D01*
X191578645Y-68790000D01*
X193268646Y-67100000D01*
X207344445Y-67100000D01*
X207493542Y-67249097D01*
X207493542Y-67249097D01*
G37*
X207493542Y-67249097D02*
X207797499Y-67375000D01*
X208072355Y-67375000D01*
X209487354Y-68790000D01*
X191578645Y-68790000D01*
X193268646Y-67100000D01*
X207344445Y-67100000D01*
X207493542Y-67249097D01*
G36*
X234569000Y-62386966D02*
X234357866Y-62474420D01*
X234345971Y-62414619D01*
X234332529Y-62394501D01*
X234253000Y-62275477D01*
X234253000Y-62065499D01*
X234127097Y-61761542D01*
X233894458Y-61528903D01*
X233590501Y-61403000D01*
X233261499Y-61403000D01*
X232957542Y-61528903D01*
X232754774Y-61731671D01*
X232574501Y-61657000D01*
X232245499Y-61657000D01*
X231941542Y-61782903D01*
X231708903Y-62015542D01*
X231583000Y-62319499D01*
X231583000Y-62530355D01*
X230849125Y-63264230D01*
X230803031Y-63295029D01*
X230682366Y-63475619D01*
X230681029Y-63477620D01*
X230641869Y-63674487D01*
X228320357Y-65996000D01*
X210548158Y-65996000D01*
X210567004Y-65950501D01*
X210567004Y-65621499D01*
X210441101Y-65317542D01*
X210208462Y-65084903D01*
X209904505Y-64959000D01*
X209575503Y-64959000D01*
X209271546Y-65084903D01*
X209122449Y-65234000D01*
X207326645Y-65234000D01*
X207761647Y-64798998D01*
X212812637Y-64798998D01*
X212867002Y-64809812D01*
X212921367Y-64798998D01*
X213082382Y-64766970D01*
X213264972Y-64644968D01*
X213295770Y-64598875D01*
X213651647Y-64242999D01*
X223274640Y-64242999D01*
X223329005Y-64253813D01*
X223383370Y-64242999D01*
X223544385Y-64210971D01*
X223726975Y-64088969D01*
X223757774Y-64042875D01*
X223981645Y-63819004D01*
X224192501Y-63819004D01*
X224496458Y-63693101D01*
X224729097Y-63460462D01*
X224855000Y-63156505D01*
X224855000Y-62827503D01*
X224729097Y-62523546D01*
X224496458Y-62290907D01*
X224192501Y-62165004D01*
X223863499Y-62165004D01*
X223559542Y-62290907D01*
X223326903Y-62523546D01*
X223201000Y-62827503D01*
X223201000Y-63038359D01*
X223100360Y-63138999D01*
X214888137Y-63138999D01*
X214908039Y-63090952D01*
X214908039Y-62761950D01*
X214782136Y-62457993D01*
X214549497Y-62225354D01*
X214245540Y-62099451D01*
X213916538Y-62099451D01*
X213612581Y-62225354D01*
X213397935Y-62440000D01*
X213160365Y-62440000D01*
X213106000Y-62429186D01*
X213051635Y-62440000D01*
X212890620Y-62472028D01*
X212708030Y-62594030D01*
X212677231Y-62640124D01*
X212283343Y-63034012D01*
X205851543Y-63034012D01*
X205933097Y-62952458D01*
X206059000Y-62648501D01*
X206059000Y-62319499D01*
X205933097Y-62015542D01*
X205700458Y-61782903D01*
X205396501Y-61657000D01*
X205067499Y-61657000D01*
X204763542Y-61782903D01*
X204530903Y-62015542D01*
X204405000Y-62319499D01*
X204405000Y-62440000D01*
X196153006Y-62440000D01*
X196153006Y-62202489D01*
X196027103Y-61898532D01*
X195794464Y-61665893D01*
X195490507Y-61539990D01*
X195161505Y-61539990D01*
X194857548Y-61665893D01*
X194708451Y-61814990D01*
X191433374Y-61814990D01*
X191379009Y-61804176D01*
X191238979Y-61832030D01*
X191163630Y-61847018D01*
X190981040Y-61969020D01*
X190950243Y-62015111D01*
X189803000Y-63162354D01*
X189803000Y-63081499D01*
X189777561Y-63020083D01*
X194079644Y-58718000D01*
X205730297Y-58718000D01*
X205800903Y-58888458D01*
X206033542Y-59121097D01*
X206337499Y-59247000D01*
X206666501Y-59247000D01*
X206970458Y-59121097D01*
X207203097Y-58888458D01*
X207278287Y-58706932D01*
X209629233Y-61057879D01*
X209660030Y-61103970D01*
X209824701Y-61213999D01*
X209842620Y-61225972D01*
X210058000Y-61268814D01*
X210112365Y-61258000D01*
X227609355Y-61258000D01*
X227917233Y-61565879D01*
X227948030Y-61611970D01*
X228094785Y-61710028D01*
X228130620Y-61733972D01*
X228345999Y-61776814D01*
X228400364Y-61766000D01*
X228601150Y-61766000D01*
X228750247Y-61915097D01*
X229054204Y-62041000D01*
X229383206Y-62041000D01*
X229687163Y-61915097D01*
X229919802Y-61682458D01*
X230045705Y-61378501D01*
X230045705Y-61049499D01*
X229919802Y-60745542D01*
X229687163Y-60512903D01*
X229531929Y-60448603D01*
X229602477Y-60278284D01*
X229602477Y-59909500D01*
X229461350Y-59568789D01*
X229200580Y-59308019D01*
X228859869Y-59166892D01*
X228705898Y-59166892D01*
X228701338Y-59162332D01*
X228701337Y-59162330D01*
X227027450Y-57488444D01*
X226989676Y-57431911D01*
X226765738Y-57282281D01*
X226568264Y-57243001D01*
X226568262Y-57243001D01*
X226501586Y-57229738D01*
X226434910Y-57243001D01*
X210959124Y-57243001D01*
X210811999Y-57213736D01*
X210705098Y-57235000D01*
X210378676Y-57235000D01*
X210311999Y-57221737D01*
X210245323Y-57235000D01*
X210245322Y-57235000D01*
X210065330Y-57270803D01*
X209957296Y-57162769D01*
X234569000Y-57023720D01*
X234569000Y-62386966D01*
X234569000Y-62386966D01*
G37*
X234569000Y-62386966D02*
X234357866Y-62474420D01*
X234345971Y-62414619D01*
X234332529Y-62394501D01*
X234253000Y-62275477D01*
X234253000Y-62065499D01*
X234127097Y-61761542D01*
X233894458Y-61528903D01*
X233590501Y-61403000D01*
X233261499Y-61403000D01*
X232957542Y-61528903D01*
X232754774Y-61731671D01*
X232574501Y-61657000D01*
X232245499Y-61657000D01*
X231941542Y-61782903D01*
X231708903Y-62015542D01*
X231583000Y-62319499D01*
X231583000Y-62530355D01*
X230849125Y-63264230D01*
X230803031Y-63295029D01*
X230682366Y-63475619D01*
X230681029Y-63477620D01*
X230641869Y-63674487D01*
X228320357Y-65996000D01*
X210548158Y-65996000D01*
X210567004Y-65950501D01*
X210567004Y-65621499D01*
X210441101Y-65317542D01*
X210208462Y-65084903D01*
X209904505Y-64959000D01*
X209575503Y-64959000D01*
X209271546Y-65084903D01*
X209122449Y-65234000D01*
X207326645Y-65234000D01*
X207761647Y-64798998D01*
X212812637Y-64798998D01*
X212867002Y-64809812D01*
X212921367Y-64798998D01*
X213082382Y-64766970D01*
X213264972Y-64644968D01*
X213295770Y-64598875D01*
X213651647Y-64242999D01*
X223274640Y-64242999D01*
X223329005Y-64253813D01*
X223383370Y-64242999D01*
X223544385Y-64210971D01*
X223726975Y-64088969D01*
X223757774Y-64042875D01*
X223981645Y-63819004D01*
X224192501Y-63819004D01*
X224496458Y-63693101D01*
X224729097Y-63460462D01*
X224855000Y-63156505D01*
X224855000Y-62827503D01*
X224729097Y-62523546D01*
X224496458Y-62290907D01*
X224192501Y-62165004D01*
X223863499Y-62165004D01*
X223559542Y-62290907D01*
X223326903Y-62523546D01*
X223201000Y-62827503D01*
X223201000Y-63038359D01*
X223100360Y-63138999D01*
X214888137Y-63138999D01*
X214908039Y-63090952D01*
X214908039Y-62761950D01*
X214782136Y-62457993D01*
X214549497Y-62225354D01*
X214245540Y-62099451D01*
X213916538Y-62099451D01*
X213612581Y-62225354D01*
X213397935Y-62440000D01*
X213160365Y-62440000D01*
X213106000Y-62429186D01*
X213051635Y-62440000D01*
X212890620Y-62472028D01*
X212708030Y-62594030D01*
X212677231Y-62640124D01*
X212283343Y-63034012D01*
X205851543Y-63034012D01*
X205933097Y-62952458D01*
X206059000Y-62648501D01*
X206059000Y-62319499D01*
X205933097Y-62015542D01*
X205700458Y-61782903D01*
X205396501Y-61657000D01*
X205067499Y-61657000D01*
X204763542Y-61782903D01*
X204530903Y-62015542D01*
X204405000Y-62319499D01*
X204405000Y-62440000D01*
X196153006Y-62440000D01*
X196153006Y-62202489D01*
X196027103Y-61898532D01*
X195794464Y-61665893D01*
X195490507Y-61539990D01*
X195161505Y-61539990D01*
X194857548Y-61665893D01*
X194708451Y-61814990D01*
X191433374Y-61814990D01*
X191379009Y-61804176D01*
X191238979Y-61832030D01*
X191163630Y-61847018D01*
X190981040Y-61969020D01*
X190950243Y-62015111D01*
X189803000Y-63162354D01*
X189803000Y-63081499D01*
X189777561Y-63020083D01*
X194079644Y-58718000D01*
X205730297Y-58718000D01*
X205800903Y-58888458D01*
X206033542Y-59121097D01*
X206337499Y-59247000D01*
X206666501Y-59247000D01*
X206970458Y-59121097D01*
X207203097Y-58888458D01*
X207278287Y-58706932D01*
X209629233Y-61057879D01*
X209660030Y-61103970D01*
X209824701Y-61213999D01*
X209842620Y-61225972D01*
X210058000Y-61268814D01*
X210112365Y-61258000D01*
X227609355Y-61258000D01*
X227917233Y-61565879D01*
X227948030Y-61611970D01*
X228094785Y-61710028D01*
X228130620Y-61733972D01*
X228345999Y-61776814D01*
X228400364Y-61766000D01*
X228601150Y-61766000D01*
X228750247Y-61915097D01*
X229054204Y-62041000D01*
X229383206Y-62041000D01*
X229687163Y-61915097D01*
X229919802Y-61682458D01*
X230045705Y-61378501D01*
X230045705Y-61049499D01*
X229919802Y-60745542D01*
X229687163Y-60512903D01*
X229531929Y-60448603D01*
X229602477Y-60278284D01*
X229602477Y-59909500D01*
X229461350Y-59568789D01*
X229200580Y-59308019D01*
X228859869Y-59166892D01*
X228705898Y-59166892D01*
X228701338Y-59162332D01*
X228701337Y-59162330D01*
X227027450Y-57488444D01*
X226989676Y-57431911D01*
X226765738Y-57282281D01*
X226568264Y-57243001D01*
X226568262Y-57243001D01*
X226501586Y-57229738D01*
X226434910Y-57243001D01*
X210959124Y-57243001D01*
X210811999Y-57213736D01*
X210705098Y-57235000D01*
X210378676Y-57235000D01*
X210311999Y-57221737D01*
X210245323Y-57235000D01*
X210245322Y-57235000D01*
X210065330Y-57270803D01*
X209957296Y-57162769D01*
X234569000Y-57023720D01*
X234569000Y-62386966D01*
G36*
X206210354Y-64789001D02*
X192277645Y-64789001D01*
X192928634Y-64138012D01*
X206861343Y-64138012D01*
X206210354Y-64789001D01*
X206210354Y-64789001D01*
G37*
X206210354Y-64789001D02*
X192277645Y-64789001D01*
X192928634Y-64138012D01*
X206861343Y-64138012D01*
X206210354Y-64789001D01*
G36*
X227743915Y-60119752D02*
X227743917Y-60119753D01*
X227748477Y-60124313D01*
X227748477Y-60154000D01*
X210286646Y-60154000D01*
X209987646Y-59855000D01*
X210242392Y-59855000D01*
X210583103Y-59713873D01*
X210843873Y-59453103D01*
X210985000Y-59112392D01*
X210985000Y-58743608D01*
X210924273Y-58597001D01*
X226221165Y-58597001D01*
X227743915Y-60119752D01*
X227743915Y-60119752D01*
G37*
X227743915Y-60119752D02*
X227743917Y-60119753D01*
X227748477Y-60124313D01*
X227748477Y-60154000D01*
X210286646Y-60154000D01*
X209987646Y-59855000D01*
X210242392Y-59855000D01*
X210583103Y-59713873D01*
X210843873Y-59453103D01*
X210985000Y-59112392D01*
X210985000Y-58743608D01*
X210924273Y-58597001D01*
X226221165Y-58597001D01*
X227743915Y-60119752D01*
G04 #@! TD*
M02*
