G04 #@! TF.GenerationSoftware,KiCad,Pcbnew,5.0.0-fee4fd1~66~ubuntu18.04.1*
G04 #@! TF.CreationDate,2018-08-20T14:29:34+02:00*
G04 #@! TF.ProjectId,ESP32-li-ion-cell-monitor,45535033322D6C692D696F6E2D63656C,1.3*
G04 #@! TF.SameCoordinates,Original*
G04 #@! TF.FileFunction,Paste,Bot*
G04 #@! TF.FilePolarity,Positive*
%FSLAX46Y46*%
G04 Gerber Fmt 4.6, Leading zero omitted, Abs format (unit mm)*
G04 Created by KiCad (PCBNEW 5.0.0-fee4fd1~66~ubuntu18.04.1) date Mon Aug 20 14:29:34 2018*
%MOMM*%
%LPD*%
G01*
G04 APERTURE LIST*
%ADD10C,0.100000*%
%ADD11C,0.875000*%
%ADD12R,1.060000X0.650000*%
G04 APERTURE END LIST*
D10*
G04 #@! TO.C,R10*
G36*
X241325691Y-73440053D02*
X241346926Y-73443203D01*
X241367750Y-73448419D01*
X241387962Y-73455651D01*
X241407368Y-73464830D01*
X241425781Y-73475866D01*
X241443024Y-73488654D01*
X241458930Y-73503070D01*
X241473346Y-73518976D01*
X241486134Y-73536219D01*
X241497170Y-73554632D01*
X241506349Y-73574038D01*
X241513581Y-73594250D01*
X241518797Y-73615074D01*
X241521947Y-73636309D01*
X241523000Y-73657750D01*
X241523000Y-74170250D01*
X241521947Y-74191691D01*
X241518797Y-74212926D01*
X241513581Y-74233750D01*
X241506349Y-74253962D01*
X241497170Y-74273368D01*
X241486134Y-74291781D01*
X241473346Y-74309024D01*
X241458930Y-74324930D01*
X241443024Y-74339346D01*
X241425781Y-74352134D01*
X241407368Y-74363170D01*
X241387962Y-74372349D01*
X241367750Y-74379581D01*
X241346926Y-74384797D01*
X241325691Y-74387947D01*
X241304250Y-74389000D01*
X240866750Y-74389000D01*
X240845309Y-74387947D01*
X240824074Y-74384797D01*
X240803250Y-74379581D01*
X240783038Y-74372349D01*
X240763632Y-74363170D01*
X240745219Y-74352134D01*
X240727976Y-74339346D01*
X240712070Y-74324930D01*
X240697654Y-74309024D01*
X240684866Y-74291781D01*
X240673830Y-74273368D01*
X240664651Y-74253962D01*
X240657419Y-74233750D01*
X240652203Y-74212926D01*
X240649053Y-74191691D01*
X240648000Y-74170250D01*
X240648000Y-73657750D01*
X240649053Y-73636309D01*
X240652203Y-73615074D01*
X240657419Y-73594250D01*
X240664651Y-73574038D01*
X240673830Y-73554632D01*
X240684866Y-73536219D01*
X240697654Y-73518976D01*
X240712070Y-73503070D01*
X240727976Y-73488654D01*
X240745219Y-73475866D01*
X240763632Y-73464830D01*
X240783038Y-73455651D01*
X240803250Y-73448419D01*
X240824074Y-73443203D01*
X240845309Y-73440053D01*
X240866750Y-73439000D01*
X241304250Y-73439000D01*
X241325691Y-73440053D01*
X241325691Y-73440053D01*
G37*
D11*
X241085500Y-73914000D03*
D10*
G36*
X239750691Y-73440053D02*
X239771926Y-73443203D01*
X239792750Y-73448419D01*
X239812962Y-73455651D01*
X239832368Y-73464830D01*
X239850781Y-73475866D01*
X239868024Y-73488654D01*
X239883930Y-73503070D01*
X239898346Y-73518976D01*
X239911134Y-73536219D01*
X239922170Y-73554632D01*
X239931349Y-73574038D01*
X239938581Y-73594250D01*
X239943797Y-73615074D01*
X239946947Y-73636309D01*
X239948000Y-73657750D01*
X239948000Y-74170250D01*
X239946947Y-74191691D01*
X239943797Y-74212926D01*
X239938581Y-74233750D01*
X239931349Y-74253962D01*
X239922170Y-74273368D01*
X239911134Y-74291781D01*
X239898346Y-74309024D01*
X239883930Y-74324930D01*
X239868024Y-74339346D01*
X239850781Y-74352134D01*
X239832368Y-74363170D01*
X239812962Y-74372349D01*
X239792750Y-74379581D01*
X239771926Y-74384797D01*
X239750691Y-74387947D01*
X239729250Y-74389000D01*
X239291750Y-74389000D01*
X239270309Y-74387947D01*
X239249074Y-74384797D01*
X239228250Y-74379581D01*
X239208038Y-74372349D01*
X239188632Y-74363170D01*
X239170219Y-74352134D01*
X239152976Y-74339346D01*
X239137070Y-74324930D01*
X239122654Y-74309024D01*
X239109866Y-74291781D01*
X239098830Y-74273368D01*
X239089651Y-74253962D01*
X239082419Y-74233750D01*
X239077203Y-74212926D01*
X239074053Y-74191691D01*
X239073000Y-74170250D01*
X239073000Y-73657750D01*
X239074053Y-73636309D01*
X239077203Y-73615074D01*
X239082419Y-73594250D01*
X239089651Y-73574038D01*
X239098830Y-73554632D01*
X239109866Y-73536219D01*
X239122654Y-73518976D01*
X239137070Y-73503070D01*
X239152976Y-73488654D01*
X239170219Y-73475866D01*
X239188632Y-73464830D01*
X239208038Y-73455651D01*
X239228250Y-73448419D01*
X239249074Y-73443203D01*
X239270309Y-73440053D01*
X239291750Y-73439000D01*
X239729250Y-73439000D01*
X239750691Y-73440053D01*
X239750691Y-73440053D01*
G37*
D11*
X239510500Y-73914000D03*
G04 #@! TD*
D12*
G04 #@! TO.C,U5*
X242756000Y-73848000D03*
X242756000Y-72898000D03*
X242756000Y-71948000D03*
X244956000Y-71948000D03*
X244956000Y-73848000D03*
G04 #@! TD*
D10*
G04 #@! TO.C,C9*
G36*
X246927691Y-73249053D02*
X246948926Y-73252203D01*
X246969750Y-73257419D01*
X246989962Y-73264651D01*
X247009368Y-73273830D01*
X247027781Y-73284866D01*
X247045024Y-73297654D01*
X247060930Y-73312070D01*
X247075346Y-73327976D01*
X247088134Y-73345219D01*
X247099170Y-73363632D01*
X247108349Y-73383038D01*
X247115581Y-73403250D01*
X247120797Y-73424074D01*
X247123947Y-73445309D01*
X247125000Y-73466750D01*
X247125000Y-73904250D01*
X247123947Y-73925691D01*
X247120797Y-73946926D01*
X247115581Y-73967750D01*
X247108349Y-73987962D01*
X247099170Y-74007368D01*
X247088134Y-74025781D01*
X247075346Y-74043024D01*
X247060930Y-74058930D01*
X247045024Y-74073346D01*
X247027781Y-74086134D01*
X247009368Y-74097170D01*
X246989962Y-74106349D01*
X246969750Y-74113581D01*
X246948926Y-74118797D01*
X246927691Y-74121947D01*
X246906250Y-74123000D01*
X246393750Y-74123000D01*
X246372309Y-74121947D01*
X246351074Y-74118797D01*
X246330250Y-74113581D01*
X246310038Y-74106349D01*
X246290632Y-74097170D01*
X246272219Y-74086134D01*
X246254976Y-74073346D01*
X246239070Y-74058930D01*
X246224654Y-74043024D01*
X246211866Y-74025781D01*
X246200830Y-74007368D01*
X246191651Y-73987962D01*
X246184419Y-73967750D01*
X246179203Y-73946926D01*
X246176053Y-73925691D01*
X246175000Y-73904250D01*
X246175000Y-73466750D01*
X246176053Y-73445309D01*
X246179203Y-73424074D01*
X246184419Y-73403250D01*
X246191651Y-73383038D01*
X246200830Y-73363632D01*
X246211866Y-73345219D01*
X246224654Y-73327976D01*
X246239070Y-73312070D01*
X246254976Y-73297654D01*
X246272219Y-73284866D01*
X246290632Y-73273830D01*
X246310038Y-73264651D01*
X246330250Y-73257419D01*
X246351074Y-73252203D01*
X246372309Y-73249053D01*
X246393750Y-73248000D01*
X246906250Y-73248000D01*
X246927691Y-73249053D01*
X246927691Y-73249053D01*
G37*
D11*
X246650000Y-73685500D03*
D10*
G36*
X246927691Y-71674053D02*
X246948926Y-71677203D01*
X246969750Y-71682419D01*
X246989962Y-71689651D01*
X247009368Y-71698830D01*
X247027781Y-71709866D01*
X247045024Y-71722654D01*
X247060930Y-71737070D01*
X247075346Y-71752976D01*
X247088134Y-71770219D01*
X247099170Y-71788632D01*
X247108349Y-71808038D01*
X247115581Y-71828250D01*
X247120797Y-71849074D01*
X247123947Y-71870309D01*
X247125000Y-71891750D01*
X247125000Y-72329250D01*
X247123947Y-72350691D01*
X247120797Y-72371926D01*
X247115581Y-72392750D01*
X247108349Y-72412962D01*
X247099170Y-72432368D01*
X247088134Y-72450781D01*
X247075346Y-72468024D01*
X247060930Y-72483930D01*
X247045024Y-72498346D01*
X247027781Y-72511134D01*
X247009368Y-72522170D01*
X246989962Y-72531349D01*
X246969750Y-72538581D01*
X246948926Y-72543797D01*
X246927691Y-72546947D01*
X246906250Y-72548000D01*
X246393750Y-72548000D01*
X246372309Y-72546947D01*
X246351074Y-72543797D01*
X246330250Y-72538581D01*
X246310038Y-72531349D01*
X246290632Y-72522170D01*
X246272219Y-72511134D01*
X246254976Y-72498346D01*
X246239070Y-72483930D01*
X246224654Y-72468024D01*
X246211866Y-72450781D01*
X246200830Y-72432368D01*
X246191651Y-72412962D01*
X246184419Y-72392750D01*
X246179203Y-72371926D01*
X246176053Y-72350691D01*
X246175000Y-72329250D01*
X246175000Y-71891750D01*
X246176053Y-71870309D01*
X246179203Y-71849074D01*
X246184419Y-71828250D01*
X246191651Y-71808038D01*
X246200830Y-71788632D01*
X246211866Y-71770219D01*
X246224654Y-71752976D01*
X246239070Y-71737070D01*
X246254976Y-71722654D01*
X246272219Y-71709866D01*
X246290632Y-71698830D01*
X246310038Y-71689651D01*
X246330250Y-71682419D01*
X246351074Y-71677203D01*
X246372309Y-71674053D01*
X246393750Y-71673000D01*
X246906250Y-71673000D01*
X246927691Y-71674053D01*
X246927691Y-71674053D01*
G37*
D11*
X246650000Y-72110500D03*
G04 #@! TD*
D10*
G04 #@! TO.C,R12*
G36*
X241325691Y-71408053D02*
X241346926Y-71411203D01*
X241367750Y-71416419D01*
X241387962Y-71423651D01*
X241407368Y-71432830D01*
X241425781Y-71443866D01*
X241443024Y-71456654D01*
X241458930Y-71471070D01*
X241473346Y-71486976D01*
X241486134Y-71504219D01*
X241497170Y-71522632D01*
X241506349Y-71542038D01*
X241513581Y-71562250D01*
X241518797Y-71583074D01*
X241521947Y-71604309D01*
X241523000Y-71625750D01*
X241523000Y-72138250D01*
X241521947Y-72159691D01*
X241518797Y-72180926D01*
X241513581Y-72201750D01*
X241506349Y-72221962D01*
X241497170Y-72241368D01*
X241486134Y-72259781D01*
X241473346Y-72277024D01*
X241458930Y-72292930D01*
X241443024Y-72307346D01*
X241425781Y-72320134D01*
X241407368Y-72331170D01*
X241387962Y-72340349D01*
X241367750Y-72347581D01*
X241346926Y-72352797D01*
X241325691Y-72355947D01*
X241304250Y-72357000D01*
X240866750Y-72357000D01*
X240845309Y-72355947D01*
X240824074Y-72352797D01*
X240803250Y-72347581D01*
X240783038Y-72340349D01*
X240763632Y-72331170D01*
X240745219Y-72320134D01*
X240727976Y-72307346D01*
X240712070Y-72292930D01*
X240697654Y-72277024D01*
X240684866Y-72259781D01*
X240673830Y-72241368D01*
X240664651Y-72221962D01*
X240657419Y-72201750D01*
X240652203Y-72180926D01*
X240649053Y-72159691D01*
X240648000Y-72138250D01*
X240648000Y-71625750D01*
X240649053Y-71604309D01*
X240652203Y-71583074D01*
X240657419Y-71562250D01*
X240664651Y-71542038D01*
X240673830Y-71522632D01*
X240684866Y-71504219D01*
X240697654Y-71486976D01*
X240712070Y-71471070D01*
X240727976Y-71456654D01*
X240745219Y-71443866D01*
X240763632Y-71432830D01*
X240783038Y-71423651D01*
X240803250Y-71416419D01*
X240824074Y-71411203D01*
X240845309Y-71408053D01*
X240866750Y-71407000D01*
X241304250Y-71407000D01*
X241325691Y-71408053D01*
X241325691Y-71408053D01*
G37*
D11*
X241085500Y-71882000D03*
D10*
G36*
X239750691Y-71408053D02*
X239771926Y-71411203D01*
X239792750Y-71416419D01*
X239812962Y-71423651D01*
X239832368Y-71432830D01*
X239850781Y-71443866D01*
X239868024Y-71456654D01*
X239883930Y-71471070D01*
X239898346Y-71486976D01*
X239911134Y-71504219D01*
X239922170Y-71522632D01*
X239931349Y-71542038D01*
X239938581Y-71562250D01*
X239943797Y-71583074D01*
X239946947Y-71604309D01*
X239948000Y-71625750D01*
X239948000Y-72138250D01*
X239946947Y-72159691D01*
X239943797Y-72180926D01*
X239938581Y-72201750D01*
X239931349Y-72221962D01*
X239922170Y-72241368D01*
X239911134Y-72259781D01*
X239898346Y-72277024D01*
X239883930Y-72292930D01*
X239868024Y-72307346D01*
X239850781Y-72320134D01*
X239832368Y-72331170D01*
X239812962Y-72340349D01*
X239792750Y-72347581D01*
X239771926Y-72352797D01*
X239750691Y-72355947D01*
X239729250Y-72357000D01*
X239291750Y-72357000D01*
X239270309Y-72355947D01*
X239249074Y-72352797D01*
X239228250Y-72347581D01*
X239208038Y-72340349D01*
X239188632Y-72331170D01*
X239170219Y-72320134D01*
X239152976Y-72307346D01*
X239137070Y-72292930D01*
X239122654Y-72277024D01*
X239109866Y-72259781D01*
X239098830Y-72241368D01*
X239089651Y-72221962D01*
X239082419Y-72201750D01*
X239077203Y-72180926D01*
X239074053Y-72159691D01*
X239073000Y-72138250D01*
X239073000Y-71625750D01*
X239074053Y-71604309D01*
X239077203Y-71583074D01*
X239082419Y-71562250D01*
X239089651Y-71542038D01*
X239098830Y-71522632D01*
X239109866Y-71504219D01*
X239122654Y-71486976D01*
X239137070Y-71471070D01*
X239152976Y-71456654D01*
X239170219Y-71443866D01*
X239188632Y-71432830D01*
X239208038Y-71423651D01*
X239228250Y-71416419D01*
X239249074Y-71411203D01*
X239270309Y-71408053D01*
X239291750Y-71407000D01*
X239729250Y-71407000D01*
X239750691Y-71408053D01*
X239750691Y-71408053D01*
G37*
D11*
X239510500Y-71882000D03*
G04 #@! TD*
M02*
