G04 #@! TF.GenerationSoftware,KiCad,Pcbnew,no-vcs-found*
G04 #@! TF.CreationDate,2017-01-06T11:38:08+01:00*
G04 #@! TF.ProjectId,ESP32-HELP-Button-18650,45535033322D48454C502D427574746F,rev?*
G04 #@! TF.FileFunction,Paste,Top*
G04 #@! TF.FilePolarity,Positive*
%FSLAX46Y46*%
G04 Gerber Fmt 4.6, Leading zero omitted, Abs format (unit mm)*
G04 Created by KiCad (PCBNEW no-vcs-found) date Fri Jan  6 11:38:08 2017*
%MOMM*%
%LPD*%
G01*
G04 APERTURE LIST*
%ADD10C,0.100000*%
%ADD11R,1.300000X2.340000*%
%ADD12R,0.800000X0.800000*%
%ADD13R,1.000760X0.599440*%
%ADD14R,1.000760X0.899160*%
%ADD15R,6.000000X6.000000*%
%ADD16R,1.350000X0.900000*%
%ADD17R,0.900000X1.350000*%
%ADD18R,1.803400X1.600200*%
G04 APERTURE END LIST*
D10*
D11*
X68940000Y-64070000D03*
X68940000Y-45730000D03*
D12*
X57011000Y-54896000D03*
X57011000Y-53296000D03*
X59805000Y-53245000D03*
X59805000Y-54845000D03*
D13*
X77056640Y-53952500D03*
X74943360Y-53000000D03*
X77056640Y-52047500D03*
D14*
X81695000Y-46000000D03*
X81695000Y-44496320D03*
X57011000Y-59722000D03*
X57011000Y-58218320D03*
X59678000Y-58218320D03*
X59678000Y-59722000D03*
D15*
X93270000Y-50700000D03*
D16*
X83970000Y-42990000D03*
X83970000Y-44260000D03*
X83970000Y-45530000D03*
X83970000Y-46800000D03*
X83970000Y-48070000D03*
X83970000Y-49340000D03*
X83970000Y-50610000D03*
X83970000Y-51880000D03*
X83970000Y-53150000D03*
X83970000Y-54420000D03*
X83970000Y-55690000D03*
X83970000Y-56960000D03*
X83970000Y-58230000D03*
X83970000Y-59500000D03*
D17*
X87270000Y-61000000D03*
X88540000Y-61000000D03*
X89810000Y-61000000D03*
X91080000Y-61000000D03*
X92350000Y-61000000D03*
X93620000Y-61000000D03*
X94890000Y-61000000D03*
X96160000Y-61000000D03*
X97430000Y-61000000D03*
X98700000Y-61000000D03*
D16*
X102000000Y-59500000D03*
X102000000Y-58230000D03*
X102000000Y-56960000D03*
X102000000Y-55690000D03*
X102000000Y-54420000D03*
X102000000Y-53150000D03*
X102000000Y-51880000D03*
X102000000Y-50610000D03*
X102000000Y-49340000D03*
X102000000Y-48070000D03*
X102000000Y-46800000D03*
X102000000Y-45530000D03*
X102000000Y-44260000D03*
X102000000Y-42990000D03*
D14*
X75000000Y-46503680D03*
X75000000Y-45000000D03*
D18*
X78000000Y-47794000D03*
X78000000Y-45000000D03*
M02*
