M48
;DRILL file {KiCad no-vcs-found} date Fri Jan  6 11:38:12 2017
;FORMAT={-:-/ absolute / metric / decimal}
FMAT,2
METRIC,TZ
T1C0.300
T2C0.400
T3C1.000
T4C0.300
%
G90
G05
M71
T1
X85.902Y-43.003
X86.918Y-43.003
X87.934Y-43.003
X88.95Y-43.003
X90.093Y-43.003
X91.109Y-43.003
X91.27Y-48.7
X91.27Y-49.7
X91.27Y-50.7
X91.27Y-51.7
X91.27Y-52.7
X92.125Y-43.003
X92.27Y-48.7
X92.27Y-49.7
X92.27Y-50.7
X92.27Y-51.7
X92.27Y-52.7
X93.141Y-43.003
X93.27Y-48.7
X93.27Y-49.7
X93.27Y-50.7
X93.27Y-51.7
X93.27Y-52.7
X94.157Y-43.003
X94.27Y-48.7
X94.27Y-49.7
X94.27Y-50.7
X94.27Y-51.7
X94.27Y-52.7
X95.173Y-43.003
X95.27Y-48.7
X95.27Y-49.7
X95.27Y-50.7
X95.27Y-51.7
X95.27Y-52.7
X96.189Y-43.003
X97.205Y-43.003
X98.221Y-43.003
X99.237Y-43.003
X104.119Y-52.588
X105.135Y-60.97
X107.548Y-60.97
X110.469Y-60.97
X110.469Y-62.367
T2
X65.003Y-45.73
X80.116Y-50.302
X87.Y-46.
X106.024Y-45.857
T3
X103.84Y-66.
X106.38Y-66.
X108.92Y-66.
X111.46Y-66.
X114.Y-66.
T4
X30.Y-42.
X30.Y-68.
X30.5Y-42.
X30.5Y-68.
X31.Y-42.
X31.Y-68.
X31.5Y-42.
X31.5Y-68.
X32.Y-42.
X32.Y-68.
X112.Y-42.
X112.Y-68.
X112.5Y-42.
X112.5Y-68.
X113.Y-42.
X113.Y-68.
X113.5Y-42.
X113.5Y-68.
X114.Y-42.
X114.Y-68.
T0
M30
