G04 #@! TF.GenerationSoftware,KiCad,Pcbnew,no-vcs-found*
G04 #@! TF.CreationDate,2017-01-06T11:38:08+01:00*
G04 #@! TF.ProjectId,ESP32-HELP-Button-18650,45535033322D48454C502D427574746F,rev?*
G04 #@! TF.FileFunction,Copper,L1,Top,Signal*
G04 #@! TF.FilePolarity,Positive*
%FSLAX46Y46*%
G04 Gerber Fmt 4.6, Leading zero omitted, Abs format (unit mm)*
G04 Created by KiCad (PCBNEW no-vcs-found) date Fri Jan  6 11:38:08 2017*
%MOMM*%
%LPD*%
G01*
G04 APERTURE LIST*
%ADD10C,0.100000*%
%ADD11C,0.600000*%
%ADD12R,1.300000X2.340000*%
%ADD13R,0.800000X0.800000*%
%ADD14O,1.700000X1.700000*%
%ADD15R,1.700000X1.700000*%
%ADD16R,1.000760X0.599440*%
%ADD17R,1.000760X0.899160*%
%ADD18C,0.800000*%
%ADD19R,6.000000X6.000000*%
%ADD20R,1.350000X0.900000*%
%ADD21R,0.900000X1.350000*%
%ADD22R,1.803400X1.600200*%
%ADD23C,0.500000*%
%ADD24C,0.250000*%
%ADD25C,0.254000*%
G04 APERTURE END LIST*
D10*
D11*
X110469000Y-62367000D03*
X110469000Y-60970000D03*
X107548000Y-60970000D03*
X105135000Y-60970000D03*
X104119000Y-52588000D03*
X85902312Y-43002568D03*
X99237312Y-43002568D03*
X98221312Y-43002568D03*
X97205312Y-43002568D03*
X96189312Y-43002568D03*
X95173312Y-43002568D03*
X94157312Y-43002568D03*
X93141312Y-43002568D03*
X92125312Y-43002568D03*
X91109312Y-43002568D03*
X90093312Y-43002568D03*
X88950312Y-43002568D03*
X87934312Y-43002568D03*
X86918312Y-43002568D03*
D12*
X68940000Y-64070000D03*
X68940000Y-45730000D03*
D13*
X57011000Y-54896000D03*
X57011000Y-53296000D03*
X59805000Y-53245000D03*
X59805000Y-54845000D03*
D14*
X103840000Y-66000000D03*
X106380000Y-66000000D03*
X108920000Y-66000000D03*
X111460000Y-66000000D03*
D15*
X114000000Y-66000000D03*
D16*
X77056640Y-53952500D03*
X74943360Y-53000000D03*
X77056640Y-52047500D03*
D17*
X81695000Y-46000000D03*
X81695000Y-44496320D03*
X57011000Y-59722000D03*
X57011000Y-58218320D03*
X59678000Y-58218320D03*
X59678000Y-59722000D03*
D18*
X91270000Y-48700000D03*
D19*
X93270000Y-50700000D03*
D20*
X83970000Y-42990000D03*
X83970000Y-44260000D03*
X83970000Y-45530000D03*
X83970000Y-46800000D03*
X83970000Y-48070000D03*
X83970000Y-49340000D03*
X83970000Y-50610000D03*
X83970000Y-51880000D03*
X83970000Y-53150000D03*
X83970000Y-54420000D03*
X83970000Y-55690000D03*
X83970000Y-56960000D03*
X83970000Y-58230000D03*
X83970000Y-59500000D03*
D21*
X87270000Y-61000000D03*
X88540000Y-61000000D03*
X89810000Y-61000000D03*
X91080000Y-61000000D03*
X92350000Y-61000000D03*
X93620000Y-61000000D03*
X94890000Y-61000000D03*
X96160000Y-61000000D03*
X97430000Y-61000000D03*
X98700000Y-61000000D03*
D20*
X102000000Y-59500000D03*
X102000000Y-58230000D03*
X102000000Y-56960000D03*
X102000000Y-55690000D03*
X102000000Y-54420000D03*
X102000000Y-53150000D03*
X102000000Y-51880000D03*
X102000000Y-50610000D03*
X102000000Y-49340000D03*
X102000000Y-48070000D03*
X102000000Y-46800000D03*
X102000000Y-45530000D03*
X102000000Y-44260000D03*
X102000000Y-42990000D03*
D18*
X91270000Y-49700000D03*
X91270000Y-50700000D03*
X91270000Y-51700000D03*
X91270000Y-52700000D03*
X92270000Y-52700000D03*
X92270000Y-51700000D03*
X92270000Y-50700000D03*
X92270000Y-49700000D03*
X92270000Y-48700000D03*
X94270000Y-48700000D03*
X94270000Y-49700000D03*
X94270000Y-50700000D03*
X94270000Y-51700000D03*
X94270000Y-52700000D03*
X93270000Y-52700000D03*
X93270000Y-51700000D03*
X93270000Y-50700000D03*
X93270000Y-49700000D03*
X93270000Y-48700000D03*
X95270000Y-52700000D03*
X95270000Y-51700000D03*
X95270000Y-50700000D03*
X95270000Y-49700000D03*
X95270000Y-48700000D03*
D17*
X75000000Y-46503680D03*
X75000000Y-45000000D03*
D22*
X78000000Y-47794000D03*
X78000000Y-45000000D03*
D18*
X65003000Y-45730000D03*
X80116000Y-50302000D03*
X106024000Y-45857000D03*
X87000000Y-46000000D03*
D23*
X65003000Y-45730000D02*
X68940000Y-45730000D01*
X70210000Y-49540000D02*
X68940000Y-48270000D01*
X68940000Y-48270000D02*
X68940000Y-45730000D01*
X75348860Y-49540000D02*
X70210000Y-49540000D01*
X77056640Y-52047500D02*
X77056640Y-51247780D01*
X77056640Y-51247780D02*
X75348860Y-49540000D01*
X75000000Y-45000000D02*
X78000000Y-45000000D01*
X81695000Y-44496320D02*
X81931320Y-44260000D01*
X81931320Y-44260000D02*
X83970000Y-44260000D01*
X80116000Y-45074940D02*
X80041060Y-45000000D01*
X80041060Y-45000000D02*
X78000000Y-45000000D01*
X80116000Y-50302000D02*
X80116000Y-45074940D01*
X80116000Y-45074940D02*
X80694620Y-44496320D01*
X80694620Y-44496320D02*
X81695000Y-44496320D01*
D24*
X57011000Y-54896000D02*
X57011000Y-55546000D01*
X57011000Y-55546000D02*
X57011000Y-58218320D01*
X83970000Y-55690000D02*
X64676000Y-55690000D01*
X64676000Y-55690000D02*
X60685000Y-51699000D01*
X57011000Y-52325000D02*
X57011000Y-53296000D01*
X60685000Y-51699000D02*
X57637000Y-51699000D01*
X57637000Y-51699000D02*
X57011000Y-52325000D01*
X83970000Y-56960000D02*
X63520000Y-56960000D01*
X63520000Y-56960000D02*
X59805000Y-53245000D01*
X59805000Y-54845000D02*
X59805000Y-58091320D01*
X59805000Y-58091320D02*
X59678000Y-58218320D01*
X102000000Y-59500000D02*
X102925000Y-59500000D01*
X102925000Y-59500000D02*
X103840000Y-60415000D01*
X103840000Y-60415000D02*
X103840000Y-64797919D01*
X103840000Y-64797919D02*
X103840000Y-66000000D01*
X102000000Y-48070000D02*
X103665000Y-48070000D01*
X103665000Y-48070000D02*
X106380000Y-50785000D01*
X106380000Y-50785000D02*
X106380000Y-64797919D01*
X106380000Y-64797919D02*
X106380000Y-66000000D01*
X102000000Y-46800000D02*
X104300000Y-46800000D01*
X104300000Y-46800000D02*
X108920000Y-51420000D01*
X108920000Y-51420000D02*
X108920000Y-64797919D01*
X108920000Y-64797919D02*
X108920000Y-66000000D01*
X81695000Y-46000000D02*
X81695000Y-45929000D01*
X81695000Y-45929000D02*
X82094000Y-45530000D01*
X82094000Y-45530000D02*
X83045000Y-45530000D01*
X83045000Y-45530000D02*
X83970000Y-45530000D01*
X87000000Y-46000000D02*
X86530000Y-45530000D01*
X86530000Y-45530000D02*
X83970000Y-45530000D01*
X106423999Y-46256999D02*
X106024000Y-45857000D01*
X111460000Y-51293000D02*
X106423999Y-46256999D01*
X111460000Y-66000000D02*
X111460000Y-51293000D01*
X83970000Y-54420000D02*
X77524140Y-54420000D01*
X77524140Y-54420000D02*
X77056640Y-53952500D01*
D25*
G36*
X29554753Y-42665103D02*
X29843169Y-42784863D01*
X30155461Y-42785136D01*
X30249876Y-42746125D01*
X30343169Y-42784863D01*
X30655461Y-42785136D01*
X30749876Y-42746125D01*
X30843169Y-42784863D01*
X31155461Y-42785136D01*
X31249876Y-42746125D01*
X31343169Y-42784863D01*
X31655461Y-42785136D01*
X31749876Y-42746125D01*
X31843169Y-42784863D01*
X32155461Y-42785136D01*
X32437982Y-42668401D01*
X32661325Y-42817633D01*
X33000000Y-42885000D01*
X111000000Y-42885000D01*
X111338675Y-42817633D01*
X111562278Y-42668227D01*
X111843169Y-42784863D01*
X112155461Y-42785136D01*
X112249876Y-42746125D01*
X112343169Y-42784863D01*
X112655461Y-42785136D01*
X112749876Y-42746125D01*
X112843169Y-42784863D01*
X113155461Y-42785136D01*
X113249876Y-42746125D01*
X113343169Y-42784863D01*
X113655461Y-42785136D01*
X113749876Y-42746125D01*
X113843169Y-42784863D01*
X114155461Y-42785136D01*
X114437982Y-42668401D01*
X114661325Y-42817633D01*
X115000000Y-42885000D01*
X115912836Y-42885000D01*
X116037373Y-42909772D01*
X116069058Y-42930943D01*
X116090228Y-42962627D01*
X116115000Y-43087164D01*
X116115000Y-66912836D01*
X116090228Y-67037373D01*
X116069058Y-67069057D01*
X116037373Y-67090228D01*
X115912836Y-67115000D01*
X115427552Y-67115000D01*
X115485000Y-66976309D01*
X115485000Y-66285750D01*
X115326250Y-66127000D01*
X114127000Y-66127000D01*
X114127000Y-66147000D01*
X113873000Y-66147000D01*
X113873000Y-66127000D01*
X113853000Y-66127000D01*
X113853000Y-65873000D01*
X113873000Y-65873000D01*
X113873000Y-64673750D01*
X114127000Y-64673750D01*
X114127000Y-65873000D01*
X115326250Y-65873000D01*
X115485000Y-65714250D01*
X115485000Y-65023691D01*
X115388327Y-64790302D01*
X115209699Y-64611673D01*
X114976310Y-64515000D01*
X114285750Y-64515000D01*
X114127000Y-64673750D01*
X113873000Y-64673750D01*
X113714250Y-64515000D01*
X113023690Y-64515000D01*
X112790301Y-64611673D01*
X112611673Y-64790302D01*
X112539403Y-64964777D01*
X112510054Y-64920853D01*
X112220000Y-64727046D01*
X112220000Y-51293000D01*
X112162148Y-51002161D01*
X111997401Y-50755599D01*
X107059035Y-45817233D01*
X107059179Y-45652029D01*
X106901942Y-45271485D01*
X106611046Y-44980081D01*
X106230777Y-44822180D01*
X105819029Y-44821821D01*
X105438485Y-44979058D01*
X105147081Y-45269954D01*
X104989180Y-45650223D01*
X104988821Y-46061971D01*
X105146058Y-46442515D01*
X105436954Y-46733919D01*
X105817223Y-46891820D01*
X105984164Y-46891966D01*
X110700000Y-51607802D01*
X110700000Y-64727046D01*
X110409946Y-64920853D01*
X110190000Y-65250026D01*
X109970054Y-64920853D01*
X109680000Y-64727046D01*
X109680000Y-51420000D01*
X109622148Y-51129161D01*
X109457401Y-50882599D01*
X104837401Y-46262599D01*
X104590839Y-46097852D01*
X104300000Y-46040000D01*
X103310505Y-46040000D01*
X103322440Y-45980000D01*
X103322440Y-45080000D01*
X103285642Y-44895000D01*
X103322440Y-44710000D01*
X103322440Y-43810000D01*
X103285657Y-43625079D01*
X103310000Y-43566310D01*
X103310000Y-43275750D01*
X103151250Y-43117000D01*
X102127000Y-43117000D01*
X102127000Y-43137000D01*
X101873000Y-43137000D01*
X101873000Y-43117000D01*
X100848750Y-43117000D01*
X100690000Y-43275750D01*
X100690000Y-43566310D01*
X100714343Y-43625079D01*
X100677560Y-43810000D01*
X100677560Y-44710000D01*
X100714358Y-44895000D01*
X100677560Y-45080000D01*
X100677560Y-45980000D01*
X100714358Y-46165000D01*
X100677560Y-46350000D01*
X100677560Y-47250000D01*
X100714358Y-47435000D01*
X100677560Y-47620000D01*
X100677560Y-48520000D01*
X100714358Y-48705000D01*
X100677560Y-48890000D01*
X100677560Y-49790000D01*
X100714358Y-49975000D01*
X100677560Y-50160000D01*
X100677560Y-51060000D01*
X100714358Y-51245000D01*
X100677560Y-51430000D01*
X100677560Y-52330000D01*
X100714358Y-52515000D01*
X100677560Y-52700000D01*
X100677560Y-53600000D01*
X100714358Y-53785000D01*
X100677560Y-53970000D01*
X100677560Y-54870000D01*
X100714358Y-55055000D01*
X100677560Y-55240000D01*
X100677560Y-56140000D01*
X100714358Y-56325000D01*
X100677560Y-56510000D01*
X100677560Y-57410000D01*
X100714358Y-57595000D01*
X100677560Y-57780000D01*
X100677560Y-58680000D01*
X100714358Y-58865000D01*
X100677560Y-59050000D01*
X100677560Y-59950000D01*
X100726843Y-60197765D01*
X100867191Y-60407809D01*
X101077235Y-60548157D01*
X101325000Y-60597440D01*
X102675000Y-60597440D01*
X102902405Y-60552207D01*
X103080000Y-60729802D01*
X103080000Y-64727046D01*
X102789946Y-64920853D01*
X102468039Y-65402622D01*
X102355000Y-65970907D01*
X102355000Y-66029093D01*
X102468039Y-66597378D01*
X102789946Y-67079147D01*
X102843604Y-67115000D01*
X33000000Y-67115000D01*
X32661325Y-67182367D01*
X32437722Y-67331773D01*
X32156831Y-67215137D01*
X31844539Y-67214864D01*
X31750124Y-67253875D01*
X31656831Y-67215137D01*
X31344539Y-67214864D01*
X31250124Y-67253875D01*
X31156831Y-67215137D01*
X30844539Y-67214864D01*
X30750124Y-67253875D01*
X30656831Y-67215137D01*
X30344539Y-67214864D01*
X30250124Y-67253875D01*
X30156831Y-67215137D01*
X29844539Y-67214864D01*
X29562018Y-67331599D01*
X29338675Y-67182367D01*
X29000000Y-67115000D01*
X28087164Y-67115000D01*
X27962627Y-67090228D01*
X27930943Y-67069058D01*
X27909772Y-67037373D01*
X27867995Y-66827346D01*
X27735851Y-66508321D01*
X27710000Y-66482470D01*
X27710000Y-64355750D01*
X67655000Y-64355750D01*
X67655000Y-65366309D01*
X67751673Y-65599698D01*
X67930301Y-65778327D01*
X68163690Y-65875000D01*
X68654250Y-65875000D01*
X68813000Y-65716250D01*
X68813000Y-64197000D01*
X69067000Y-64197000D01*
X69067000Y-65716250D01*
X69225750Y-65875000D01*
X69716310Y-65875000D01*
X69949699Y-65778327D01*
X70128327Y-65599698D01*
X70225000Y-65366309D01*
X70225000Y-64355750D01*
X70066250Y-64197000D01*
X69067000Y-64197000D01*
X68813000Y-64197000D01*
X67813750Y-64197000D01*
X67655000Y-64355750D01*
X27710000Y-64355750D01*
X27710000Y-62773691D01*
X67655000Y-62773691D01*
X67655000Y-63784250D01*
X67813750Y-63943000D01*
X68813000Y-63943000D01*
X68813000Y-62423750D01*
X69067000Y-62423750D01*
X69067000Y-63943000D01*
X70066250Y-63943000D01*
X70225000Y-63784250D01*
X70225000Y-62773691D01*
X70128327Y-62540302D01*
X69949699Y-62361673D01*
X69716310Y-62265000D01*
X69225750Y-62265000D01*
X69067000Y-62423750D01*
X68813000Y-62423750D01*
X68654250Y-62265000D01*
X68163690Y-62265000D01*
X67930301Y-62361673D01*
X67751673Y-62540302D01*
X67655000Y-62773691D01*
X27710000Y-62773691D01*
X27710000Y-60007750D01*
X55875620Y-60007750D01*
X55875620Y-60297889D01*
X55972293Y-60531278D01*
X56150921Y-60709907D01*
X56384310Y-60806580D01*
X56725250Y-60806580D01*
X56884000Y-60647830D01*
X56884000Y-59849000D01*
X57138000Y-59849000D01*
X57138000Y-60647830D01*
X57296750Y-60806580D01*
X57637690Y-60806580D01*
X57871079Y-60709907D01*
X58049707Y-60531278D01*
X58146380Y-60297889D01*
X58146380Y-60007750D01*
X58542620Y-60007750D01*
X58542620Y-60297889D01*
X58639293Y-60531278D01*
X58817921Y-60709907D01*
X59051310Y-60806580D01*
X59392250Y-60806580D01*
X59551000Y-60647830D01*
X59551000Y-59849000D01*
X59805000Y-59849000D01*
X59805000Y-60647830D01*
X59963750Y-60806580D01*
X60304690Y-60806580D01*
X60538079Y-60709907D01*
X60716707Y-60531278D01*
X60813380Y-60297889D01*
X60813380Y-60007750D01*
X60654630Y-59849000D01*
X59805000Y-59849000D01*
X59551000Y-59849000D01*
X58701370Y-59849000D01*
X58542620Y-60007750D01*
X58146380Y-60007750D01*
X57987630Y-59849000D01*
X57138000Y-59849000D01*
X56884000Y-59849000D01*
X56034370Y-59849000D01*
X55875620Y-60007750D01*
X27710000Y-60007750D01*
X27710000Y-57768740D01*
X55863180Y-57768740D01*
X55863180Y-58667900D01*
X55912463Y-58915665D01*
X55948645Y-58969814D01*
X55875620Y-59146111D01*
X55875620Y-59436250D01*
X56034370Y-59595000D01*
X56884000Y-59595000D01*
X56884000Y-59575000D01*
X57138000Y-59575000D01*
X57138000Y-59595000D01*
X57987630Y-59595000D01*
X58146380Y-59436250D01*
X58146380Y-59146111D01*
X58073355Y-58969814D01*
X58109537Y-58915665D01*
X58158820Y-58667900D01*
X58158820Y-57768740D01*
X58109537Y-57520975D01*
X57969189Y-57310931D01*
X57771000Y-57178504D01*
X57771000Y-55819163D01*
X57868809Y-55753809D01*
X58009157Y-55543765D01*
X58058440Y-55296000D01*
X58058440Y-54496000D01*
X58009157Y-54248235D01*
X57907436Y-54096000D01*
X58009157Y-53943765D01*
X58058440Y-53696000D01*
X58058440Y-52896000D01*
X58009157Y-52648235D01*
X57910386Y-52500416D01*
X57951802Y-52459000D01*
X58899209Y-52459000D01*
X58806843Y-52597235D01*
X58757560Y-52845000D01*
X58757560Y-53645000D01*
X58806843Y-53892765D01*
X58908564Y-54045000D01*
X58806843Y-54197235D01*
X58757560Y-54445000D01*
X58757560Y-55245000D01*
X58806843Y-55492765D01*
X58947191Y-55702809D01*
X59045000Y-55768163D01*
X59045000Y-57147679D01*
X58929855Y-57170583D01*
X58719811Y-57310931D01*
X58579463Y-57520975D01*
X58530180Y-57768740D01*
X58530180Y-58667900D01*
X58579463Y-58915665D01*
X58615645Y-58969814D01*
X58542620Y-59146111D01*
X58542620Y-59436250D01*
X58701370Y-59595000D01*
X59551000Y-59595000D01*
X59551000Y-59575000D01*
X59805000Y-59575000D01*
X59805000Y-59595000D01*
X60654630Y-59595000D01*
X60813380Y-59436250D01*
X60813380Y-59146111D01*
X60740355Y-58969814D01*
X60776537Y-58915665D01*
X60825820Y-58667900D01*
X60825820Y-57768740D01*
X60776537Y-57520975D01*
X60636189Y-57310931D01*
X60565000Y-57263364D01*
X60565000Y-55768163D01*
X60662809Y-55702809D01*
X60803157Y-55492765D01*
X60832159Y-55346961D01*
X62982599Y-57497401D01*
X63229160Y-57662148D01*
X63520000Y-57720000D01*
X82659495Y-57720000D01*
X82647560Y-57780000D01*
X82647560Y-58680000D01*
X82684358Y-58865000D01*
X82647560Y-59050000D01*
X82647560Y-59950000D01*
X82696843Y-60197765D01*
X82837191Y-60407809D01*
X83047235Y-60548157D01*
X83295000Y-60597440D01*
X84645000Y-60597440D01*
X84892765Y-60548157D01*
X85102809Y-60407809D01*
X85158140Y-60325000D01*
X86172560Y-60325000D01*
X86172560Y-61675000D01*
X86221843Y-61922765D01*
X86362191Y-62132809D01*
X86572235Y-62273157D01*
X86820000Y-62322440D01*
X87720000Y-62322440D01*
X87905000Y-62285642D01*
X88090000Y-62322440D01*
X88990000Y-62322440D01*
X89175000Y-62285642D01*
X89360000Y-62322440D01*
X90260000Y-62322440D01*
X90445000Y-62285642D01*
X90630000Y-62322440D01*
X91530000Y-62322440D01*
X91715000Y-62285642D01*
X91900000Y-62322440D01*
X92800000Y-62322440D01*
X92985000Y-62285642D01*
X93170000Y-62322440D01*
X94070000Y-62322440D01*
X94255000Y-62285642D01*
X94440000Y-62322440D01*
X95340000Y-62322440D01*
X95525000Y-62285642D01*
X95710000Y-62322440D01*
X96610000Y-62322440D01*
X96795000Y-62285642D01*
X96980000Y-62322440D01*
X97880000Y-62322440D01*
X98065000Y-62285642D01*
X98250000Y-62322440D01*
X99150000Y-62322440D01*
X99397765Y-62273157D01*
X99607809Y-62132809D01*
X99748157Y-61922765D01*
X99797440Y-61675000D01*
X99797440Y-60325000D01*
X99748157Y-60077235D01*
X99607809Y-59867191D01*
X99397765Y-59726843D01*
X99150000Y-59677560D01*
X98250000Y-59677560D01*
X98065000Y-59714358D01*
X97880000Y-59677560D01*
X96980000Y-59677560D01*
X96795000Y-59714358D01*
X96610000Y-59677560D01*
X95710000Y-59677560D01*
X95525000Y-59714358D01*
X95340000Y-59677560D01*
X94440000Y-59677560D01*
X94255000Y-59714358D01*
X94070000Y-59677560D01*
X93170000Y-59677560D01*
X92985000Y-59714358D01*
X92800000Y-59677560D01*
X91900000Y-59677560D01*
X91715000Y-59714358D01*
X91530000Y-59677560D01*
X90630000Y-59677560D01*
X90445000Y-59714358D01*
X90260000Y-59677560D01*
X89360000Y-59677560D01*
X89175000Y-59714358D01*
X88990000Y-59677560D01*
X88090000Y-59677560D01*
X87905000Y-59714358D01*
X87720000Y-59677560D01*
X86820000Y-59677560D01*
X86572235Y-59726843D01*
X86362191Y-59867191D01*
X86221843Y-60077235D01*
X86172560Y-60325000D01*
X85158140Y-60325000D01*
X85243157Y-60197765D01*
X85292440Y-59950000D01*
X85292440Y-59050000D01*
X85255642Y-58865000D01*
X85292440Y-58680000D01*
X85292440Y-57780000D01*
X85255642Y-57595000D01*
X85292440Y-57410000D01*
X85292440Y-56510000D01*
X85255642Y-56325000D01*
X85292440Y-56140000D01*
X85292440Y-55240000D01*
X85255642Y-55055000D01*
X85292440Y-54870000D01*
X85292440Y-53970000D01*
X85255642Y-53785000D01*
X85292440Y-53600000D01*
X85292440Y-52700000D01*
X85255642Y-52515000D01*
X85292440Y-52330000D01*
X85292440Y-51430000D01*
X85255642Y-51245000D01*
X85292440Y-51060000D01*
X85292440Y-50160000D01*
X85255642Y-49975000D01*
X85292440Y-49790000D01*
X85292440Y-48890000D01*
X85255642Y-48705000D01*
X85292440Y-48520000D01*
X85292440Y-47700000D01*
X89622560Y-47700000D01*
X89622560Y-53700000D01*
X89671843Y-53947765D01*
X89812191Y-54157809D01*
X90022235Y-54298157D01*
X90270000Y-54347440D01*
X96270000Y-54347440D01*
X96517765Y-54298157D01*
X96727809Y-54157809D01*
X96868157Y-53947765D01*
X96917440Y-53700000D01*
X96917440Y-47700000D01*
X96868157Y-47452235D01*
X96727809Y-47242191D01*
X96517765Y-47101843D01*
X96270000Y-47052560D01*
X90270000Y-47052560D01*
X90022235Y-47101843D01*
X89812191Y-47242191D01*
X89671843Y-47452235D01*
X89622560Y-47700000D01*
X85292440Y-47700000D01*
X85292440Y-47620000D01*
X85255642Y-47435000D01*
X85292440Y-47250000D01*
X85292440Y-46350000D01*
X85280505Y-46290000D01*
X85999954Y-46290000D01*
X86122058Y-46585515D01*
X86412954Y-46876919D01*
X86793223Y-47034820D01*
X87204971Y-47035179D01*
X87585515Y-46877942D01*
X87876919Y-46587046D01*
X88034820Y-46206777D01*
X88035179Y-45795029D01*
X87877942Y-45414485D01*
X87587046Y-45123081D01*
X87206777Y-44965180D01*
X87026130Y-44965022D01*
X86820839Y-44827852D01*
X86530000Y-44770000D01*
X85280505Y-44770000D01*
X85292440Y-44710000D01*
X85292440Y-43810000D01*
X85255657Y-43625079D01*
X85280000Y-43566310D01*
X85280000Y-43275750D01*
X85121250Y-43117000D01*
X84097000Y-43117000D01*
X84097000Y-43137000D01*
X83843000Y-43137000D01*
X83843000Y-43117000D01*
X82818750Y-43117000D01*
X82660000Y-43275750D01*
X82660000Y-43375000D01*
X81931325Y-43375000D01*
X81931320Y-43374999D01*
X81809153Y-43399300D01*
X81194620Y-43399300D01*
X80946855Y-43448583D01*
X80736811Y-43588931D01*
X80721851Y-43611320D01*
X80694625Y-43611320D01*
X80694620Y-43611319D01*
X80355945Y-43678687D01*
X80068830Y-43870530D01*
X80068828Y-43870533D01*
X79824361Y-44115000D01*
X79532253Y-44115000D01*
X79499857Y-43952135D01*
X79359509Y-43742091D01*
X79149465Y-43601743D01*
X78901700Y-43552460D01*
X77098300Y-43552460D01*
X76850535Y-43601743D01*
X76640491Y-43742091D01*
X76500143Y-43952135D01*
X76467747Y-44115000D01*
X75973149Y-44115000D01*
X75958189Y-44092611D01*
X75748145Y-43952263D01*
X75500380Y-43902980D01*
X74499620Y-43902980D01*
X74251855Y-43952263D01*
X74041811Y-44092611D01*
X73901463Y-44302655D01*
X73852180Y-44550420D01*
X73852180Y-45449580D01*
X73901463Y-45697345D01*
X73937645Y-45751494D01*
X73864620Y-45927791D01*
X73864620Y-46217930D01*
X74023370Y-46376680D01*
X74873000Y-46376680D01*
X74873000Y-46356680D01*
X75127000Y-46356680D01*
X75127000Y-46376680D01*
X75976630Y-46376680D01*
X76135380Y-46217930D01*
X76135380Y-45927791D01*
X76117655Y-45885000D01*
X76467747Y-45885000D01*
X76500143Y-46047865D01*
X76640491Y-46257909D01*
X76850535Y-46398257D01*
X76868397Y-46401810D01*
X76738601Y-46455573D01*
X76559973Y-46634202D01*
X76463300Y-46867591D01*
X76463300Y-47508250D01*
X76622050Y-47667000D01*
X77873000Y-47667000D01*
X77873000Y-47647000D01*
X78127000Y-47647000D01*
X78127000Y-47667000D01*
X78147000Y-47667000D01*
X78147000Y-47921000D01*
X78127000Y-47921000D01*
X78127000Y-49070350D01*
X78285750Y-49229100D01*
X79028010Y-49229100D01*
X79231000Y-49145019D01*
X79231000Y-49734415D01*
X79081180Y-50095223D01*
X79080821Y-50506971D01*
X79238058Y-50887515D01*
X79528954Y-51178919D01*
X79909223Y-51336820D01*
X80320971Y-51337179D01*
X80701515Y-51179942D01*
X80992919Y-50889046D01*
X81150820Y-50508777D01*
X81151179Y-50097029D01*
X81001000Y-49733567D01*
X81001000Y-47058507D01*
X81194620Y-47097020D01*
X82195380Y-47097020D01*
X82443145Y-47047737D01*
X82647560Y-46911150D01*
X82647560Y-47250000D01*
X82684358Y-47435000D01*
X82647560Y-47620000D01*
X82647560Y-48520000D01*
X82684358Y-48705000D01*
X82647560Y-48890000D01*
X82647560Y-49790000D01*
X82684358Y-49975000D01*
X82647560Y-50160000D01*
X82647560Y-51060000D01*
X82684358Y-51245000D01*
X82647560Y-51430000D01*
X82647560Y-52330000D01*
X82684358Y-52515000D01*
X82647560Y-52700000D01*
X82647560Y-53600000D01*
X82659495Y-53660000D01*
X78204460Y-53660000D01*
X78204460Y-53652780D01*
X78155177Y-53405015D01*
X78014829Y-53194971D01*
X77804785Y-53054623D01*
X77557020Y-53005340D01*
X76556260Y-53005340D01*
X76308495Y-53054623D01*
X76098451Y-53194971D01*
X76054195Y-53261205D01*
X75919990Y-53127000D01*
X75070360Y-53127000D01*
X75070360Y-53775970D01*
X75229110Y-53934720D01*
X75570050Y-53934720D01*
X75803439Y-53838047D01*
X75908820Y-53732665D01*
X75908820Y-54252220D01*
X75958103Y-54499985D01*
X76098451Y-54710029D01*
X76308495Y-54850377D01*
X76556260Y-54899660D01*
X76928998Y-54899660D01*
X76959338Y-54930000D01*
X64990802Y-54930000D01*
X63346552Y-53285750D01*
X73807980Y-53285750D01*
X73807980Y-53426029D01*
X73904653Y-53659418D01*
X74083281Y-53838047D01*
X74316670Y-53934720D01*
X74657610Y-53934720D01*
X74816360Y-53775970D01*
X74816360Y-53127000D01*
X73966730Y-53127000D01*
X73807980Y-53285750D01*
X63346552Y-53285750D01*
X62634773Y-52573971D01*
X73807980Y-52573971D01*
X73807980Y-52714250D01*
X73966730Y-52873000D01*
X74816360Y-52873000D01*
X74816360Y-52224030D01*
X74657610Y-52065280D01*
X74316670Y-52065280D01*
X74083281Y-52161953D01*
X73904653Y-52340582D01*
X73807980Y-52573971D01*
X62634773Y-52573971D01*
X61222401Y-51161599D01*
X60975839Y-50996852D01*
X60685000Y-50939000D01*
X57637000Y-50939000D01*
X57346161Y-50996852D01*
X57099599Y-51161599D01*
X56473599Y-51787599D01*
X56308852Y-52034161D01*
X56251000Y-52325000D01*
X56251000Y-52372837D01*
X56153191Y-52438191D01*
X56012843Y-52648235D01*
X55963560Y-52896000D01*
X55963560Y-53696000D01*
X56012843Y-53943765D01*
X56114564Y-54096000D01*
X56012843Y-54248235D01*
X55963560Y-54496000D01*
X55963560Y-55296000D01*
X56012843Y-55543765D01*
X56153191Y-55753809D01*
X56251000Y-55819163D01*
X56251000Y-57178504D01*
X56052811Y-57310931D01*
X55912463Y-57520975D01*
X55863180Y-57768740D01*
X27710000Y-57768740D01*
X27710000Y-45934971D01*
X63967821Y-45934971D01*
X64125058Y-46315515D01*
X64415954Y-46606919D01*
X64796223Y-46764820D01*
X65207971Y-46765179D01*
X65571433Y-46615000D01*
X67642560Y-46615000D01*
X67642560Y-46900000D01*
X67691843Y-47147765D01*
X67832191Y-47357809D01*
X68042235Y-47498157D01*
X68055000Y-47500696D01*
X68055000Y-48269995D01*
X68054999Y-48270000D01*
X68087262Y-48432191D01*
X68122367Y-48608675D01*
X68228667Y-48767765D01*
X68314210Y-48895790D01*
X69584208Y-50165787D01*
X69584210Y-50165790D01*
X69788064Y-50302000D01*
X69871325Y-50357633D01*
X70210000Y-50425001D01*
X70210005Y-50425000D01*
X74982280Y-50425000D01*
X75997834Y-51440553D01*
X75958103Y-51500015D01*
X75908820Y-51747780D01*
X75908820Y-52267335D01*
X75803439Y-52161953D01*
X75570050Y-52065280D01*
X75229110Y-52065280D01*
X75070360Y-52224030D01*
X75070360Y-52873000D01*
X75919990Y-52873000D01*
X76054195Y-52738795D01*
X76098451Y-52805029D01*
X76308495Y-52945377D01*
X76556260Y-52994660D01*
X77557020Y-52994660D01*
X77804785Y-52945377D01*
X78014829Y-52805029D01*
X78155177Y-52594985D01*
X78204460Y-52347220D01*
X78204460Y-51747780D01*
X78155177Y-51500015D01*
X78014829Y-51289971D01*
X77940101Y-51240039D01*
X77885450Y-50965296D01*
X77874273Y-50909105D01*
X77682430Y-50621990D01*
X77682427Y-50621988D01*
X75974650Y-48914210D01*
X75836734Y-48822058D01*
X75687535Y-48722367D01*
X75631344Y-48711190D01*
X75348860Y-48654999D01*
X75348855Y-48655000D01*
X70576579Y-48655000D01*
X70001330Y-48079750D01*
X76463300Y-48079750D01*
X76463300Y-48720409D01*
X76559973Y-48953798D01*
X76738601Y-49132427D01*
X76971990Y-49229100D01*
X77714250Y-49229100D01*
X77873000Y-49070350D01*
X77873000Y-47921000D01*
X76622050Y-47921000D01*
X76463300Y-48079750D01*
X70001330Y-48079750D01*
X69825000Y-47903420D01*
X69825000Y-47500696D01*
X69837765Y-47498157D01*
X70047809Y-47357809D01*
X70188157Y-47147765D01*
X70237440Y-46900000D01*
X70237440Y-46789430D01*
X73864620Y-46789430D01*
X73864620Y-47079569D01*
X73961293Y-47312958D01*
X74139921Y-47491587D01*
X74373310Y-47588260D01*
X74714250Y-47588260D01*
X74873000Y-47429510D01*
X74873000Y-46630680D01*
X75127000Y-46630680D01*
X75127000Y-47429510D01*
X75285750Y-47588260D01*
X75626690Y-47588260D01*
X75860079Y-47491587D01*
X76038707Y-47312958D01*
X76135380Y-47079569D01*
X76135380Y-46789430D01*
X75976630Y-46630680D01*
X75127000Y-46630680D01*
X74873000Y-46630680D01*
X74023370Y-46630680D01*
X73864620Y-46789430D01*
X70237440Y-46789430D01*
X70237440Y-44560000D01*
X70188157Y-44312235D01*
X70047809Y-44102191D01*
X69837765Y-43961843D01*
X69590000Y-43912560D01*
X68290000Y-43912560D01*
X68042235Y-43961843D01*
X67832191Y-44102191D01*
X67691843Y-44312235D01*
X67642560Y-44560000D01*
X67642560Y-44845000D01*
X65570585Y-44845000D01*
X65209777Y-44695180D01*
X64798029Y-44694821D01*
X64417485Y-44852058D01*
X64126081Y-45142954D01*
X63968180Y-45523223D01*
X63967821Y-45934971D01*
X27710000Y-45934971D01*
X27710000Y-43069930D01*
X27744926Y-42894345D01*
X27804774Y-42804775D01*
X27894345Y-42744926D01*
X28069930Y-42710000D01*
X29000000Y-42710000D01*
X29271705Y-42655954D01*
X29295582Y-42640000D01*
X29529694Y-42640000D01*
X29554753Y-42665103D01*
X29554753Y-42665103D01*
G37*
X29554753Y-42665103D02*
X29843169Y-42784863D01*
X30155461Y-42785136D01*
X30249876Y-42746125D01*
X30343169Y-42784863D01*
X30655461Y-42785136D01*
X30749876Y-42746125D01*
X30843169Y-42784863D01*
X31155461Y-42785136D01*
X31249876Y-42746125D01*
X31343169Y-42784863D01*
X31655461Y-42785136D01*
X31749876Y-42746125D01*
X31843169Y-42784863D01*
X32155461Y-42785136D01*
X32437982Y-42668401D01*
X32661325Y-42817633D01*
X33000000Y-42885000D01*
X111000000Y-42885000D01*
X111338675Y-42817633D01*
X111562278Y-42668227D01*
X111843169Y-42784863D01*
X112155461Y-42785136D01*
X112249876Y-42746125D01*
X112343169Y-42784863D01*
X112655461Y-42785136D01*
X112749876Y-42746125D01*
X112843169Y-42784863D01*
X113155461Y-42785136D01*
X113249876Y-42746125D01*
X113343169Y-42784863D01*
X113655461Y-42785136D01*
X113749876Y-42746125D01*
X113843169Y-42784863D01*
X114155461Y-42785136D01*
X114437982Y-42668401D01*
X114661325Y-42817633D01*
X115000000Y-42885000D01*
X115912836Y-42885000D01*
X116037373Y-42909772D01*
X116069058Y-42930943D01*
X116090228Y-42962627D01*
X116115000Y-43087164D01*
X116115000Y-66912836D01*
X116090228Y-67037373D01*
X116069058Y-67069057D01*
X116037373Y-67090228D01*
X115912836Y-67115000D01*
X115427552Y-67115000D01*
X115485000Y-66976309D01*
X115485000Y-66285750D01*
X115326250Y-66127000D01*
X114127000Y-66127000D01*
X114127000Y-66147000D01*
X113873000Y-66147000D01*
X113873000Y-66127000D01*
X113853000Y-66127000D01*
X113853000Y-65873000D01*
X113873000Y-65873000D01*
X113873000Y-64673750D01*
X114127000Y-64673750D01*
X114127000Y-65873000D01*
X115326250Y-65873000D01*
X115485000Y-65714250D01*
X115485000Y-65023691D01*
X115388327Y-64790302D01*
X115209699Y-64611673D01*
X114976310Y-64515000D01*
X114285750Y-64515000D01*
X114127000Y-64673750D01*
X113873000Y-64673750D01*
X113714250Y-64515000D01*
X113023690Y-64515000D01*
X112790301Y-64611673D01*
X112611673Y-64790302D01*
X112539403Y-64964777D01*
X112510054Y-64920853D01*
X112220000Y-64727046D01*
X112220000Y-51293000D01*
X112162148Y-51002161D01*
X111997401Y-50755599D01*
X107059035Y-45817233D01*
X107059179Y-45652029D01*
X106901942Y-45271485D01*
X106611046Y-44980081D01*
X106230777Y-44822180D01*
X105819029Y-44821821D01*
X105438485Y-44979058D01*
X105147081Y-45269954D01*
X104989180Y-45650223D01*
X104988821Y-46061971D01*
X105146058Y-46442515D01*
X105436954Y-46733919D01*
X105817223Y-46891820D01*
X105984164Y-46891966D01*
X110700000Y-51607802D01*
X110700000Y-64727046D01*
X110409946Y-64920853D01*
X110190000Y-65250026D01*
X109970054Y-64920853D01*
X109680000Y-64727046D01*
X109680000Y-51420000D01*
X109622148Y-51129161D01*
X109457401Y-50882599D01*
X104837401Y-46262599D01*
X104590839Y-46097852D01*
X104300000Y-46040000D01*
X103310505Y-46040000D01*
X103322440Y-45980000D01*
X103322440Y-45080000D01*
X103285642Y-44895000D01*
X103322440Y-44710000D01*
X103322440Y-43810000D01*
X103285657Y-43625079D01*
X103310000Y-43566310D01*
X103310000Y-43275750D01*
X103151250Y-43117000D01*
X102127000Y-43117000D01*
X102127000Y-43137000D01*
X101873000Y-43137000D01*
X101873000Y-43117000D01*
X100848750Y-43117000D01*
X100690000Y-43275750D01*
X100690000Y-43566310D01*
X100714343Y-43625079D01*
X100677560Y-43810000D01*
X100677560Y-44710000D01*
X100714358Y-44895000D01*
X100677560Y-45080000D01*
X100677560Y-45980000D01*
X100714358Y-46165000D01*
X100677560Y-46350000D01*
X100677560Y-47250000D01*
X100714358Y-47435000D01*
X100677560Y-47620000D01*
X100677560Y-48520000D01*
X100714358Y-48705000D01*
X100677560Y-48890000D01*
X100677560Y-49790000D01*
X100714358Y-49975000D01*
X100677560Y-50160000D01*
X100677560Y-51060000D01*
X100714358Y-51245000D01*
X100677560Y-51430000D01*
X100677560Y-52330000D01*
X100714358Y-52515000D01*
X100677560Y-52700000D01*
X100677560Y-53600000D01*
X100714358Y-53785000D01*
X100677560Y-53970000D01*
X100677560Y-54870000D01*
X100714358Y-55055000D01*
X100677560Y-55240000D01*
X100677560Y-56140000D01*
X100714358Y-56325000D01*
X100677560Y-56510000D01*
X100677560Y-57410000D01*
X100714358Y-57595000D01*
X100677560Y-57780000D01*
X100677560Y-58680000D01*
X100714358Y-58865000D01*
X100677560Y-59050000D01*
X100677560Y-59950000D01*
X100726843Y-60197765D01*
X100867191Y-60407809D01*
X101077235Y-60548157D01*
X101325000Y-60597440D01*
X102675000Y-60597440D01*
X102902405Y-60552207D01*
X103080000Y-60729802D01*
X103080000Y-64727046D01*
X102789946Y-64920853D01*
X102468039Y-65402622D01*
X102355000Y-65970907D01*
X102355000Y-66029093D01*
X102468039Y-66597378D01*
X102789946Y-67079147D01*
X102843604Y-67115000D01*
X33000000Y-67115000D01*
X32661325Y-67182367D01*
X32437722Y-67331773D01*
X32156831Y-67215137D01*
X31844539Y-67214864D01*
X31750124Y-67253875D01*
X31656831Y-67215137D01*
X31344539Y-67214864D01*
X31250124Y-67253875D01*
X31156831Y-67215137D01*
X30844539Y-67214864D01*
X30750124Y-67253875D01*
X30656831Y-67215137D01*
X30344539Y-67214864D01*
X30250124Y-67253875D01*
X30156831Y-67215137D01*
X29844539Y-67214864D01*
X29562018Y-67331599D01*
X29338675Y-67182367D01*
X29000000Y-67115000D01*
X28087164Y-67115000D01*
X27962627Y-67090228D01*
X27930943Y-67069058D01*
X27909772Y-67037373D01*
X27867995Y-66827346D01*
X27735851Y-66508321D01*
X27710000Y-66482470D01*
X27710000Y-64355750D01*
X67655000Y-64355750D01*
X67655000Y-65366309D01*
X67751673Y-65599698D01*
X67930301Y-65778327D01*
X68163690Y-65875000D01*
X68654250Y-65875000D01*
X68813000Y-65716250D01*
X68813000Y-64197000D01*
X69067000Y-64197000D01*
X69067000Y-65716250D01*
X69225750Y-65875000D01*
X69716310Y-65875000D01*
X69949699Y-65778327D01*
X70128327Y-65599698D01*
X70225000Y-65366309D01*
X70225000Y-64355750D01*
X70066250Y-64197000D01*
X69067000Y-64197000D01*
X68813000Y-64197000D01*
X67813750Y-64197000D01*
X67655000Y-64355750D01*
X27710000Y-64355750D01*
X27710000Y-62773691D01*
X67655000Y-62773691D01*
X67655000Y-63784250D01*
X67813750Y-63943000D01*
X68813000Y-63943000D01*
X68813000Y-62423750D01*
X69067000Y-62423750D01*
X69067000Y-63943000D01*
X70066250Y-63943000D01*
X70225000Y-63784250D01*
X70225000Y-62773691D01*
X70128327Y-62540302D01*
X69949699Y-62361673D01*
X69716310Y-62265000D01*
X69225750Y-62265000D01*
X69067000Y-62423750D01*
X68813000Y-62423750D01*
X68654250Y-62265000D01*
X68163690Y-62265000D01*
X67930301Y-62361673D01*
X67751673Y-62540302D01*
X67655000Y-62773691D01*
X27710000Y-62773691D01*
X27710000Y-60007750D01*
X55875620Y-60007750D01*
X55875620Y-60297889D01*
X55972293Y-60531278D01*
X56150921Y-60709907D01*
X56384310Y-60806580D01*
X56725250Y-60806580D01*
X56884000Y-60647830D01*
X56884000Y-59849000D01*
X57138000Y-59849000D01*
X57138000Y-60647830D01*
X57296750Y-60806580D01*
X57637690Y-60806580D01*
X57871079Y-60709907D01*
X58049707Y-60531278D01*
X58146380Y-60297889D01*
X58146380Y-60007750D01*
X58542620Y-60007750D01*
X58542620Y-60297889D01*
X58639293Y-60531278D01*
X58817921Y-60709907D01*
X59051310Y-60806580D01*
X59392250Y-60806580D01*
X59551000Y-60647830D01*
X59551000Y-59849000D01*
X59805000Y-59849000D01*
X59805000Y-60647830D01*
X59963750Y-60806580D01*
X60304690Y-60806580D01*
X60538079Y-60709907D01*
X60716707Y-60531278D01*
X60813380Y-60297889D01*
X60813380Y-60007750D01*
X60654630Y-59849000D01*
X59805000Y-59849000D01*
X59551000Y-59849000D01*
X58701370Y-59849000D01*
X58542620Y-60007750D01*
X58146380Y-60007750D01*
X57987630Y-59849000D01*
X57138000Y-59849000D01*
X56884000Y-59849000D01*
X56034370Y-59849000D01*
X55875620Y-60007750D01*
X27710000Y-60007750D01*
X27710000Y-57768740D01*
X55863180Y-57768740D01*
X55863180Y-58667900D01*
X55912463Y-58915665D01*
X55948645Y-58969814D01*
X55875620Y-59146111D01*
X55875620Y-59436250D01*
X56034370Y-59595000D01*
X56884000Y-59595000D01*
X56884000Y-59575000D01*
X57138000Y-59575000D01*
X57138000Y-59595000D01*
X57987630Y-59595000D01*
X58146380Y-59436250D01*
X58146380Y-59146111D01*
X58073355Y-58969814D01*
X58109537Y-58915665D01*
X58158820Y-58667900D01*
X58158820Y-57768740D01*
X58109537Y-57520975D01*
X57969189Y-57310931D01*
X57771000Y-57178504D01*
X57771000Y-55819163D01*
X57868809Y-55753809D01*
X58009157Y-55543765D01*
X58058440Y-55296000D01*
X58058440Y-54496000D01*
X58009157Y-54248235D01*
X57907436Y-54096000D01*
X58009157Y-53943765D01*
X58058440Y-53696000D01*
X58058440Y-52896000D01*
X58009157Y-52648235D01*
X57910386Y-52500416D01*
X57951802Y-52459000D01*
X58899209Y-52459000D01*
X58806843Y-52597235D01*
X58757560Y-52845000D01*
X58757560Y-53645000D01*
X58806843Y-53892765D01*
X58908564Y-54045000D01*
X58806843Y-54197235D01*
X58757560Y-54445000D01*
X58757560Y-55245000D01*
X58806843Y-55492765D01*
X58947191Y-55702809D01*
X59045000Y-55768163D01*
X59045000Y-57147679D01*
X58929855Y-57170583D01*
X58719811Y-57310931D01*
X58579463Y-57520975D01*
X58530180Y-57768740D01*
X58530180Y-58667900D01*
X58579463Y-58915665D01*
X58615645Y-58969814D01*
X58542620Y-59146111D01*
X58542620Y-59436250D01*
X58701370Y-59595000D01*
X59551000Y-59595000D01*
X59551000Y-59575000D01*
X59805000Y-59575000D01*
X59805000Y-59595000D01*
X60654630Y-59595000D01*
X60813380Y-59436250D01*
X60813380Y-59146111D01*
X60740355Y-58969814D01*
X60776537Y-58915665D01*
X60825820Y-58667900D01*
X60825820Y-57768740D01*
X60776537Y-57520975D01*
X60636189Y-57310931D01*
X60565000Y-57263364D01*
X60565000Y-55768163D01*
X60662809Y-55702809D01*
X60803157Y-55492765D01*
X60832159Y-55346961D01*
X62982599Y-57497401D01*
X63229160Y-57662148D01*
X63520000Y-57720000D01*
X82659495Y-57720000D01*
X82647560Y-57780000D01*
X82647560Y-58680000D01*
X82684358Y-58865000D01*
X82647560Y-59050000D01*
X82647560Y-59950000D01*
X82696843Y-60197765D01*
X82837191Y-60407809D01*
X83047235Y-60548157D01*
X83295000Y-60597440D01*
X84645000Y-60597440D01*
X84892765Y-60548157D01*
X85102809Y-60407809D01*
X85158140Y-60325000D01*
X86172560Y-60325000D01*
X86172560Y-61675000D01*
X86221843Y-61922765D01*
X86362191Y-62132809D01*
X86572235Y-62273157D01*
X86820000Y-62322440D01*
X87720000Y-62322440D01*
X87905000Y-62285642D01*
X88090000Y-62322440D01*
X88990000Y-62322440D01*
X89175000Y-62285642D01*
X89360000Y-62322440D01*
X90260000Y-62322440D01*
X90445000Y-62285642D01*
X90630000Y-62322440D01*
X91530000Y-62322440D01*
X91715000Y-62285642D01*
X91900000Y-62322440D01*
X92800000Y-62322440D01*
X92985000Y-62285642D01*
X93170000Y-62322440D01*
X94070000Y-62322440D01*
X94255000Y-62285642D01*
X94440000Y-62322440D01*
X95340000Y-62322440D01*
X95525000Y-62285642D01*
X95710000Y-62322440D01*
X96610000Y-62322440D01*
X96795000Y-62285642D01*
X96980000Y-62322440D01*
X97880000Y-62322440D01*
X98065000Y-62285642D01*
X98250000Y-62322440D01*
X99150000Y-62322440D01*
X99397765Y-62273157D01*
X99607809Y-62132809D01*
X99748157Y-61922765D01*
X99797440Y-61675000D01*
X99797440Y-60325000D01*
X99748157Y-60077235D01*
X99607809Y-59867191D01*
X99397765Y-59726843D01*
X99150000Y-59677560D01*
X98250000Y-59677560D01*
X98065000Y-59714358D01*
X97880000Y-59677560D01*
X96980000Y-59677560D01*
X96795000Y-59714358D01*
X96610000Y-59677560D01*
X95710000Y-59677560D01*
X95525000Y-59714358D01*
X95340000Y-59677560D01*
X94440000Y-59677560D01*
X94255000Y-59714358D01*
X94070000Y-59677560D01*
X93170000Y-59677560D01*
X92985000Y-59714358D01*
X92800000Y-59677560D01*
X91900000Y-59677560D01*
X91715000Y-59714358D01*
X91530000Y-59677560D01*
X90630000Y-59677560D01*
X90445000Y-59714358D01*
X90260000Y-59677560D01*
X89360000Y-59677560D01*
X89175000Y-59714358D01*
X88990000Y-59677560D01*
X88090000Y-59677560D01*
X87905000Y-59714358D01*
X87720000Y-59677560D01*
X86820000Y-59677560D01*
X86572235Y-59726843D01*
X86362191Y-59867191D01*
X86221843Y-60077235D01*
X86172560Y-60325000D01*
X85158140Y-60325000D01*
X85243157Y-60197765D01*
X85292440Y-59950000D01*
X85292440Y-59050000D01*
X85255642Y-58865000D01*
X85292440Y-58680000D01*
X85292440Y-57780000D01*
X85255642Y-57595000D01*
X85292440Y-57410000D01*
X85292440Y-56510000D01*
X85255642Y-56325000D01*
X85292440Y-56140000D01*
X85292440Y-55240000D01*
X85255642Y-55055000D01*
X85292440Y-54870000D01*
X85292440Y-53970000D01*
X85255642Y-53785000D01*
X85292440Y-53600000D01*
X85292440Y-52700000D01*
X85255642Y-52515000D01*
X85292440Y-52330000D01*
X85292440Y-51430000D01*
X85255642Y-51245000D01*
X85292440Y-51060000D01*
X85292440Y-50160000D01*
X85255642Y-49975000D01*
X85292440Y-49790000D01*
X85292440Y-48890000D01*
X85255642Y-48705000D01*
X85292440Y-48520000D01*
X85292440Y-47700000D01*
X89622560Y-47700000D01*
X89622560Y-53700000D01*
X89671843Y-53947765D01*
X89812191Y-54157809D01*
X90022235Y-54298157D01*
X90270000Y-54347440D01*
X96270000Y-54347440D01*
X96517765Y-54298157D01*
X96727809Y-54157809D01*
X96868157Y-53947765D01*
X96917440Y-53700000D01*
X96917440Y-47700000D01*
X96868157Y-47452235D01*
X96727809Y-47242191D01*
X96517765Y-47101843D01*
X96270000Y-47052560D01*
X90270000Y-47052560D01*
X90022235Y-47101843D01*
X89812191Y-47242191D01*
X89671843Y-47452235D01*
X89622560Y-47700000D01*
X85292440Y-47700000D01*
X85292440Y-47620000D01*
X85255642Y-47435000D01*
X85292440Y-47250000D01*
X85292440Y-46350000D01*
X85280505Y-46290000D01*
X85999954Y-46290000D01*
X86122058Y-46585515D01*
X86412954Y-46876919D01*
X86793223Y-47034820D01*
X87204971Y-47035179D01*
X87585515Y-46877942D01*
X87876919Y-46587046D01*
X88034820Y-46206777D01*
X88035179Y-45795029D01*
X87877942Y-45414485D01*
X87587046Y-45123081D01*
X87206777Y-44965180D01*
X87026130Y-44965022D01*
X86820839Y-44827852D01*
X86530000Y-44770000D01*
X85280505Y-44770000D01*
X85292440Y-44710000D01*
X85292440Y-43810000D01*
X85255657Y-43625079D01*
X85280000Y-43566310D01*
X85280000Y-43275750D01*
X85121250Y-43117000D01*
X84097000Y-43117000D01*
X84097000Y-43137000D01*
X83843000Y-43137000D01*
X83843000Y-43117000D01*
X82818750Y-43117000D01*
X82660000Y-43275750D01*
X82660000Y-43375000D01*
X81931325Y-43375000D01*
X81931320Y-43374999D01*
X81809153Y-43399300D01*
X81194620Y-43399300D01*
X80946855Y-43448583D01*
X80736811Y-43588931D01*
X80721851Y-43611320D01*
X80694625Y-43611320D01*
X80694620Y-43611319D01*
X80355945Y-43678687D01*
X80068830Y-43870530D01*
X80068828Y-43870533D01*
X79824361Y-44115000D01*
X79532253Y-44115000D01*
X79499857Y-43952135D01*
X79359509Y-43742091D01*
X79149465Y-43601743D01*
X78901700Y-43552460D01*
X77098300Y-43552460D01*
X76850535Y-43601743D01*
X76640491Y-43742091D01*
X76500143Y-43952135D01*
X76467747Y-44115000D01*
X75973149Y-44115000D01*
X75958189Y-44092611D01*
X75748145Y-43952263D01*
X75500380Y-43902980D01*
X74499620Y-43902980D01*
X74251855Y-43952263D01*
X74041811Y-44092611D01*
X73901463Y-44302655D01*
X73852180Y-44550420D01*
X73852180Y-45449580D01*
X73901463Y-45697345D01*
X73937645Y-45751494D01*
X73864620Y-45927791D01*
X73864620Y-46217930D01*
X74023370Y-46376680D01*
X74873000Y-46376680D01*
X74873000Y-46356680D01*
X75127000Y-46356680D01*
X75127000Y-46376680D01*
X75976630Y-46376680D01*
X76135380Y-46217930D01*
X76135380Y-45927791D01*
X76117655Y-45885000D01*
X76467747Y-45885000D01*
X76500143Y-46047865D01*
X76640491Y-46257909D01*
X76850535Y-46398257D01*
X76868397Y-46401810D01*
X76738601Y-46455573D01*
X76559973Y-46634202D01*
X76463300Y-46867591D01*
X76463300Y-47508250D01*
X76622050Y-47667000D01*
X77873000Y-47667000D01*
X77873000Y-47647000D01*
X78127000Y-47647000D01*
X78127000Y-47667000D01*
X78147000Y-47667000D01*
X78147000Y-47921000D01*
X78127000Y-47921000D01*
X78127000Y-49070350D01*
X78285750Y-49229100D01*
X79028010Y-49229100D01*
X79231000Y-49145019D01*
X79231000Y-49734415D01*
X79081180Y-50095223D01*
X79080821Y-50506971D01*
X79238058Y-50887515D01*
X79528954Y-51178919D01*
X79909223Y-51336820D01*
X80320971Y-51337179D01*
X80701515Y-51179942D01*
X80992919Y-50889046D01*
X81150820Y-50508777D01*
X81151179Y-50097029D01*
X81001000Y-49733567D01*
X81001000Y-47058507D01*
X81194620Y-47097020D01*
X82195380Y-47097020D01*
X82443145Y-47047737D01*
X82647560Y-46911150D01*
X82647560Y-47250000D01*
X82684358Y-47435000D01*
X82647560Y-47620000D01*
X82647560Y-48520000D01*
X82684358Y-48705000D01*
X82647560Y-48890000D01*
X82647560Y-49790000D01*
X82684358Y-49975000D01*
X82647560Y-50160000D01*
X82647560Y-51060000D01*
X82684358Y-51245000D01*
X82647560Y-51430000D01*
X82647560Y-52330000D01*
X82684358Y-52515000D01*
X82647560Y-52700000D01*
X82647560Y-53600000D01*
X82659495Y-53660000D01*
X78204460Y-53660000D01*
X78204460Y-53652780D01*
X78155177Y-53405015D01*
X78014829Y-53194971D01*
X77804785Y-53054623D01*
X77557020Y-53005340D01*
X76556260Y-53005340D01*
X76308495Y-53054623D01*
X76098451Y-53194971D01*
X76054195Y-53261205D01*
X75919990Y-53127000D01*
X75070360Y-53127000D01*
X75070360Y-53775970D01*
X75229110Y-53934720D01*
X75570050Y-53934720D01*
X75803439Y-53838047D01*
X75908820Y-53732665D01*
X75908820Y-54252220D01*
X75958103Y-54499985D01*
X76098451Y-54710029D01*
X76308495Y-54850377D01*
X76556260Y-54899660D01*
X76928998Y-54899660D01*
X76959338Y-54930000D01*
X64990802Y-54930000D01*
X63346552Y-53285750D01*
X73807980Y-53285750D01*
X73807980Y-53426029D01*
X73904653Y-53659418D01*
X74083281Y-53838047D01*
X74316670Y-53934720D01*
X74657610Y-53934720D01*
X74816360Y-53775970D01*
X74816360Y-53127000D01*
X73966730Y-53127000D01*
X73807980Y-53285750D01*
X63346552Y-53285750D01*
X62634773Y-52573971D01*
X73807980Y-52573971D01*
X73807980Y-52714250D01*
X73966730Y-52873000D01*
X74816360Y-52873000D01*
X74816360Y-52224030D01*
X74657610Y-52065280D01*
X74316670Y-52065280D01*
X74083281Y-52161953D01*
X73904653Y-52340582D01*
X73807980Y-52573971D01*
X62634773Y-52573971D01*
X61222401Y-51161599D01*
X60975839Y-50996852D01*
X60685000Y-50939000D01*
X57637000Y-50939000D01*
X57346161Y-50996852D01*
X57099599Y-51161599D01*
X56473599Y-51787599D01*
X56308852Y-52034161D01*
X56251000Y-52325000D01*
X56251000Y-52372837D01*
X56153191Y-52438191D01*
X56012843Y-52648235D01*
X55963560Y-52896000D01*
X55963560Y-53696000D01*
X56012843Y-53943765D01*
X56114564Y-54096000D01*
X56012843Y-54248235D01*
X55963560Y-54496000D01*
X55963560Y-55296000D01*
X56012843Y-55543765D01*
X56153191Y-55753809D01*
X56251000Y-55819163D01*
X56251000Y-57178504D01*
X56052811Y-57310931D01*
X55912463Y-57520975D01*
X55863180Y-57768740D01*
X27710000Y-57768740D01*
X27710000Y-45934971D01*
X63967821Y-45934971D01*
X64125058Y-46315515D01*
X64415954Y-46606919D01*
X64796223Y-46764820D01*
X65207971Y-46765179D01*
X65571433Y-46615000D01*
X67642560Y-46615000D01*
X67642560Y-46900000D01*
X67691843Y-47147765D01*
X67832191Y-47357809D01*
X68042235Y-47498157D01*
X68055000Y-47500696D01*
X68055000Y-48269995D01*
X68054999Y-48270000D01*
X68087262Y-48432191D01*
X68122367Y-48608675D01*
X68228667Y-48767765D01*
X68314210Y-48895790D01*
X69584208Y-50165787D01*
X69584210Y-50165790D01*
X69788064Y-50302000D01*
X69871325Y-50357633D01*
X70210000Y-50425001D01*
X70210005Y-50425000D01*
X74982280Y-50425000D01*
X75997834Y-51440553D01*
X75958103Y-51500015D01*
X75908820Y-51747780D01*
X75908820Y-52267335D01*
X75803439Y-52161953D01*
X75570050Y-52065280D01*
X75229110Y-52065280D01*
X75070360Y-52224030D01*
X75070360Y-52873000D01*
X75919990Y-52873000D01*
X76054195Y-52738795D01*
X76098451Y-52805029D01*
X76308495Y-52945377D01*
X76556260Y-52994660D01*
X77557020Y-52994660D01*
X77804785Y-52945377D01*
X78014829Y-52805029D01*
X78155177Y-52594985D01*
X78204460Y-52347220D01*
X78204460Y-51747780D01*
X78155177Y-51500015D01*
X78014829Y-51289971D01*
X77940101Y-51240039D01*
X77885450Y-50965296D01*
X77874273Y-50909105D01*
X77682430Y-50621990D01*
X77682427Y-50621988D01*
X75974650Y-48914210D01*
X75836734Y-48822058D01*
X75687535Y-48722367D01*
X75631344Y-48711190D01*
X75348860Y-48654999D01*
X75348855Y-48655000D01*
X70576579Y-48655000D01*
X70001330Y-48079750D01*
X76463300Y-48079750D01*
X76463300Y-48720409D01*
X76559973Y-48953798D01*
X76738601Y-49132427D01*
X76971990Y-49229100D01*
X77714250Y-49229100D01*
X77873000Y-49070350D01*
X77873000Y-47921000D01*
X76622050Y-47921000D01*
X76463300Y-48079750D01*
X70001330Y-48079750D01*
X69825000Y-47903420D01*
X69825000Y-47500696D01*
X69837765Y-47498157D01*
X70047809Y-47357809D01*
X70188157Y-47147765D01*
X70237440Y-46900000D01*
X70237440Y-46789430D01*
X73864620Y-46789430D01*
X73864620Y-47079569D01*
X73961293Y-47312958D01*
X74139921Y-47491587D01*
X74373310Y-47588260D01*
X74714250Y-47588260D01*
X74873000Y-47429510D01*
X74873000Y-46630680D01*
X75127000Y-46630680D01*
X75127000Y-47429510D01*
X75285750Y-47588260D01*
X75626690Y-47588260D01*
X75860079Y-47491587D01*
X76038707Y-47312958D01*
X76135380Y-47079569D01*
X76135380Y-46789430D01*
X75976630Y-46630680D01*
X75127000Y-46630680D01*
X74873000Y-46630680D01*
X74023370Y-46630680D01*
X73864620Y-46789430D01*
X70237440Y-46789430D01*
X70237440Y-44560000D01*
X70188157Y-44312235D01*
X70047809Y-44102191D01*
X69837765Y-43961843D01*
X69590000Y-43912560D01*
X68290000Y-43912560D01*
X68042235Y-43961843D01*
X67832191Y-44102191D01*
X67691843Y-44312235D01*
X67642560Y-44560000D01*
X67642560Y-44845000D01*
X65570585Y-44845000D01*
X65209777Y-44695180D01*
X64798029Y-44694821D01*
X64417485Y-44852058D01*
X64126081Y-45142954D01*
X63968180Y-45523223D01*
X63967821Y-45934971D01*
X27710000Y-45934971D01*
X27710000Y-43069930D01*
X27744926Y-42894345D01*
X27804774Y-42804775D01*
X27894345Y-42744926D01*
X28069930Y-42710000D01*
X29000000Y-42710000D01*
X29271705Y-42655954D01*
X29295582Y-42640000D01*
X29529694Y-42640000D01*
X29554753Y-42665103D01*
G36*
X105620000Y-51099802D02*
X105620000Y-64727046D01*
X105329946Y-64920853D01*
X105110000Y-65250026D01*
X104890054Y-64920853D01*
X104600000Y-64727046D01*
X104600000Y-60415000D01*
X104542148Y-60124161D01*
X104542148Y-60124160D01*
X104377401Y-59877599D01*
X103462401Y-58962599D01*
X103289242Y-58846898D01*
X103322440Y-58680000D01*
X103322440Y-57780000D01*
X103285642Y-57595000D01*
X103322440Y-57410000D01*
X103322440Y-56510000D01*
X103285642Y-56325000D01*
X103322440Y-56140000D01*
X103322440Y-55240000D01*
X103285642Y-55055000D01*
X103322440Y-54870000D01*
X103322440Y-53970000D01*
X103285642Y-53785000D01*
X103322440Y-53600000D01*
X103322440Y-52700000D01*
X103285642Y-52515000D01*
X103322440Y-52330000D01*
X103322440Y-51430000D01*
X103285642Y-51245000D01*
X103322440Y-51060000D01*
X103322440Y-50160000D01*
X103285642Y-49975000D01*
X103322440Y-49790000D01*
X103322440Y-48890000D01*
X103310505Y-48830000D01*
X103350198Y-48830000D01*
X105620000Y-51099802D01*
X105620000Y-51099802D01*
G37*
X105620000Y-51099802D02*
X105620000Y-64727046D01*
X105329946Y-64920853D01*
X105110000Y-65250026D01*
X104890054Y-64920853D01*
X104600000Y-64727046D01*
X104600000Y-60415000D01*
X104542148Y-60124161D01*
X104542148Y-60124160D01*
X104377401Y-59877599D01*
X103462401Y-58962599D01*
X103289242Y-58846898D01*
X103322440Y-58680000D01*
X103322440Y-57780000D01*
X103285642Y-57595000D01*
X103322440Y-57410000D01*
X103322440Y-56510000D01*
X103285642Y-56325000D01*
X103322440Y-56140000D01*
X103322440Y-55240000D01*
X103285642Y-55055000D01*
X103322440Y-54870000D01*
X103322440Y-53970000D01*
X103285642Y-53785000D01*
X103322440Y-53600000D01*
X103322440Y-52700000D01*
X103285642Y-52515000D01*
X103322440Y-52330000D01*
X103322440Y-51430000D01*
X103285642Y-51245000D01*
X103322440Y-51060000D01*
X103322440Y-50160000D01*
X103285642Y-49975000D01*
X103322440Y-49790000D01*
X103322440Y-48890000D01*
X103310505Y-48830000D01*
X103350198Y-48830000D01*
X105620000Y-51099802D01*
G36*
X108160000Y-51734802D02*
X108160000Y-64727046D01*
X107869946Y-64920853D01*
X107650000Y-65250026D01*
X107430054Y-64920853D01*
X107140000Y-64727046D01*
X107140000Y-50785000D01*
X107122569Y-50697371D01*
X108160000Y-51734802D01*
X108160000Y-51734802D01*
G37*
X108160000Y-51734802D02*
X108160000Y-64727046D01*
X107869946Y-64920853D01*
X107650000Y-65250026D01*
X107430054Y-64920853D01*
X107140000Y-64727046D01*
X107140000Y-50785000D01*
X107122569Y-50697371D01*
X108160000Y-51734802D01*
M02*
