G04 #@! TF.GenerationSoftware,KiCad,Pcbnew,no-vcs-found*
G04 #@! TF.CreationDate,2017-01-06T11:38:08+01:00*
G04 #@! TF.ProjectId,ESP32-HELP-Button-18650,45535033322D48454C502D427574746F,rev?*
G04 #@! TF.FileFunction,Copper,L2,Bot,Signal*
G04 #@! TF.FilePolarity,Positive*
%FSLAX46Y46*%
G04 Gerber Fmt 4.6, Leading zero omitted, Abs format (unit mm)*
G04 Created by KiCad (PCBNEW no-vcs-found) date Fri Jan  6 11:38:08 2017*
%MOMM*%
%LPD*%
G01*
G04 APERTURE LIST*
%ADD10C,0.100000*%
%ADD11C,0.600000*%
%ADD12O,1.700000X1.700000*%
%ADD13R,1.700000X1.700000*%
%ADD14C,0.800000*%
%ADD15R,10.000000X8.000000*%
%ADD16C,0.500000*%
%ADD17C,0.250000*%
%ADD18C,0.254000*%
G04 APERTURE END LIST*
D10*
D11*
X110469000Y-62367000D03*
X110469000Y-60970000D03*
X107548000Y-60970000D03*
X105135000Y-60970000D03*
X104119000Y-52588000D03*
X85902312Y-43002568D03*
X99237312Y-43002568D03*
X98221312Y-43002568D03*
X97205312Y-43002568D03*
X96189312Y-43002568D03*
X95173312Y-43002568D03*
X94157312Y-43002568D03*
X93141312Y-43002568D03*
X92125312Y-43002568D03*
X91109312Y-43002568D03*
X90093312Y-43002568D03*
X88950312Y-43002568D03*
X87934312Y-43002568D03*
X86918312Y-43002568D03*
D12*
X103840000Y-66000000D03*
X106380000Y-66000000D03*
X108920000Y-66000000D03*
X111460000Y-66000000D03*
D13*
X114000000Y-66000000D03*
D14*
X91270000Y-48700000D03*
X91270000Y-49700000D03*
X91270000Y-50700000D03*
X91270000Y-51700000D03*
X91270000Y-52700000D03*
X92270000Y-52700000D03*
X92270000Y-51700000D03*
X92270000Y-50700000D03*
X92270000Y-49700000D03*
X92270000Y-48700000D03*
X94270000Y-48700000D03*
X94270000Y-49700000D03*
X94270000Y-50700000D03*
X94270000Y-51700000D03*
X94270000Y-52700000D03*
X93270000Y-52700000D03*
X93270000Y-51700000D03*
X93270000Y-50700000D03*
X93270000Y-49700000D03*
X93270000Y-48700000D03*
X95270000Y-52700000D03*
X95270000Y-51700000D03*
X95270000Y-50700000D03*
X95270000Y-49700000D03*
X95270000Y-48700000D03*
D15*
X111175000Y-53674000D03*
X33075000Y-53674000D03*
D14*
X65003000Y-45730000D03*
X80116000Y-50302000D03*
X106024000Y-45857000D03*
X87000000Y-46000000D03*
D16*
X36519000Y-45730000D02*
X65003000Y-45730000D01*
X33075000Y-53674000D02*
X33075000Y-49174000D01*
X33075000Y-49174000D02*
X36519000Y-45730000D01*
X80515999Y-50701999D02*
X80116000Y-50302000D01*
X87988000Y-58174000D02*
X80515999Y-50701999D01*
X105675000Y-58174000D02*
X87988000Y-58174000D01*
X110175000Y-53674000D02*
X105675000Y-58174000D01*
X111175000Y-53674000D02*
X110175000Y-53674000D01*
D17*
X87000000Y-46000000D02*
X105881000Y-46000000D01*
X105881000Y-46000000D02*
X106024000Y-45857000D01*
D18*
G36*
X116006549Y-42984188D02*
X116012102Y-42987899D01*
X116015812Y-42993451D01*
X116036000Y-43094944D01*
X116036000Y-48767584D01*
X106175000Y-48767584D01*
X105828130Y-48836581D01*
X105534067Y-49033067D01*
X105337581Y-49327130D01*
X105268584Y-49674000D01*
X105268584Y-56969626D01*
X105203210Y-57035000D01*
X88459790Y-57035000D01*
X81358543Y-49933753D01*
X81209398Y-49572794D01*
X80847113Y-49209876D01*
X80373523Y-49013224D01*
X79860727Y-49012777D01*
X79386794Y-49208602D01*
X79023876Y-49570887D01*
X78827224Y-50044477D01*
X78826777Y-50557273D01*
X79022602Y-51031206D01*
X79384887Y-51394124D01*
X79748191Y-51544981D01*
X87182605Y-58979395D01*
X87552123Y-59226299D01*
X87988000Y-59313000D01*
X105674995Y-59313000D01*
X105675000Y-59313001D01*
X106110877Y-59226299D01*
X106480395Y-58979395D01*
X106879374Y-58580416D01*
X116036000Y-58580416D01*
X116036000Y-66905056D01*
X116015812Y-67006549D01*
X116012102Y-67012101D01*
X116006549Y-67015812D01*
X115905056Y-67036000D01*
X115460275Y-67036000D01*
X115485000Y-66976309D01*
X115485000Y-66285750D01*
X115326250Y-66127000D01*
X114127000Y-66127000D01*
X114127000Y-66147000D01*
X113873000Y-66147000D01*
X113873000Y-66127000D01*
X113853000Y-66127000D01*
X113853000Y-65873000D01*
X113873000Y-65873000D01*
X113873000Y-64673750D01*
X114127000Y-64673750D01*
X114127000Y-65873000D01*
X115326250Y-65873000D01*
X115485000Y-65714250D01*
X115485000Y-65023691D01*
X115388327Y-64790302D01*
X115209699Y-64611673D01*
X114976310Y-64515000D01*
X114285750Y-64515000D01*
X114127000Y-64673750D01*
X113873000Y-64673750D01*
X113714250Y-64515000D01*
X113023690Y-64515000D01*
X112790301Y-64611673D01*
X112675298Y-64726676D01*
X112125486Y-64359304D01*
X111460000Y-64226931D01*
X110794514Y-64359304D01*
X110230341Y-64736272D01*
X110190000Y-64796647D01*
X110149659Y-64736272D01*
X109585486Y-64359304D01*
X108920000Y-64226931D01*
X108254514Y-64359304D01*
X107690341Y-64736272D01*
X107650000Y-64796647D01*
X107609659Y-64736272D01*
X107045486Y-64359304D01*
X106380000Y-64226931D01*
X105714514Y-64359304D01*
X105150341Y-64736272D01*
X105110000Y-64796647D01*
X105069659Y-64736272D01*
X104505486Y-64359304D01*
X103840000Y-64226931D01*
X103174514Y-64359304D01*
X102610341Y-64736272D01*
X102233373Y-65300445D01*
X102101000Y-65965931D01*
X102101000Y-66034069D01*
X102233373Y-66699555D01*
X102458178Y-67036000D01*
X28094944Y-67036000D01*
X27993451Y-67015812D01*
X27987899Y-67012102D01*
X27984188Y-67006549D01*
X27964000Y-66905056D01*
X27964000Y-58558337D01*
X28075000Y-58580416D01*
X38075000Y-58580416D01*
X38421870Y-58511419D01*
X38715933Y-58314933D01*
X38912419Y-58020870D01*
X38981416Y-57674000D01*
X38981416Y-49674000D01*
X38912419Y-49327130D01*
X38715933Y-49033067D01*
X38599506Y-48955273D01*
X89980777Y-48955273D01*
X90081903Y-49200016D01*
X89981224Y-49442477D01*
X89980777Y-49955273D01*
X90081903Y-50200016D01*
X89981224Y-50442477D01*
X89980777Y-50955273D01*
X90081903Y-51200016D01*
X89981224Y-51442477D01*
X89980777Y-51955273D01*
X90081903Y-52200016D01*
X89981224Y-52442477D01*
X89980777Y-52955273D01*
X90176602Y-53429206D01*
X90538887Y-53792124D01*
X91012477Y-53988776D01*
X91525273Y-53989223D01*
X91770016Y-53888097D01*
X92012477Y-53988776D01*
X92525273Y-53989223D01*
X92770016Y-53888097D01*
X93012477Y-53988776D01*
X93525273Y-53989223D01*
X93770016Y-53888097D01*
X94012477Y-53988776D01*
X94525273Y-53989223D01*
X94770016Y-53888097D01*
X95012477Y-53988776D01*
X95525273Y-53989223D01*
X95999206Y-53793398D01*
X96362124Y-53431113D01*
X96558776Y-52957523D01*
X96559223Y-52444727D01*
X96458097Y-52199984D01*
X96558776Y-51957523D01*
X96559223Y-51444727D01*
X96458097Y-51199984D01*
X96558776Y-50957523D01*
X96559223Y-50444727D01*
X96458097Y-50199984D01*
X96558776Y-49957523D01*
X96559223Y-49444727D01*
X96458097Y-49199984D01*
X96558776Y-48957523D01*
X96559223Y-48444727D01*
X96363398Y-47970794D01*
X96001113Y-47607876D01*
X95527523Y-47411224D01*
X95014727Y-47410777D01*
X94769984Y-47511903D01*
X94527523Y-47411224D01*
X94014727Y-47410777D01*
X93769984Y-47511903D01*
X93527523Y-47411224D01*
X93014727Y-47410777D01*
X92769984Y-47511903D01*
X92527523Y-47411224D01*
X92014727Y-47410777D01*
X91769984Y-47511903D01*
X91527523Y-47411224D01*
X91014727Y-47410777D01*
X90540794Y-47606602D01*
X90177876Y-47968887D01*
X89981224Y-48442477D01*
X89980777Y-48955273D01*
X38599506Y-48955273D01*
X38421870Y-48836581D01*
X38075000Y-48767584D01*
X35092206Y-48767584D01*
X36990789Y-46869000D01*
X64384777Y-46869000D01*
X64745477Y-47018776D01*
X65258273Y-47019223D01*
X65732206Y-46823398D01*
X66095124Y-46461113D01*
X66180596Y-46255273D01*
X85710777Y-46255273D01*
X85906602Y-46729206D01*
X86268887Y-47092124D01*
X86742477Y-47288776D01*
X87255273Y-47289223D01*
X87729206Y-47093398D01*
X87808743Y-47014000D01*
X105449126Y-47014000D01*
X105766477Y-47145776D01*
X106279273Y-47146223D01*
X106753206Y-46950398D01*
X107116124Y-46588113D01*
X107312776Y-46114523D01*
X107313223Y-45601727D01*
X107117398Y-45127794D01*
X106755113Y-44764876D01*
X106281523Y-44568224D01*
X105768727Y-44567777D01*
X105294794Y-44763602D01*
X105072007Y-44986000D01*
X87809101Y-44986000D01*
X87731113Y-44907876D01*
X87257523Y-44711224D01*
X86744727Y-44710777D01*
X86270794Y-44906602D01*
X85907876Y-45268887D01*
X85711224Y-45742477D01*
X85710777Y-46255273D01*
X66180596Y-46255273D01*
X66291776Y-45987523D01*
X66292223Y-45474727D01*
X66096398Y-45000794D01*
X65734113Y-44637876D01*
X65260523Y-44441224D01*
X64747727Y-44440777D01*
X64384159Y-44591000D01*
X36519005Y-44591000D01*
X36519000Y-44590999D01*
X36083123Y-44677701D01*
X35952657Y-44764876D01*
X35713605Y-44924605D01*
X35713603Y-44924608D01*
X32269605Y-48368605D01*
X32022701Y-48738123D01*
X32016841Y-48767584D01*
X28075000Y-48767584D01*
X27964000Y-48789663D01*
X27964000Y-43094944D01*
X27984188Y-42993451D01*
X27987899Y-42987898D01*
X27993451Y-42984188D01*
X28094944Y-42964000D01*
X115905056Y-42964000D01*
X116006549Y-42984188D01*
X116006549Y-42984188D01*
G37*
X116006549Y-42984188D02*
X116012102Y-42987899D01*
X116015812Y-42993451D01*
X116036000Y-43094944D01*
X116036000Y-48767584D01*
X106175000Y-48767584D01*
X105828130Y-48836581D01*
X105534067Y-49033067D01*
X105337581Y-49327130D01*
X105268584Y-49674000D01*
X105268584Y-56969626D01*
X105203210Y-57035000D01*
X88459790Y-57035000D01*
X81358543Y-49933753D01*
X81209398Y-49572794D01*
X80847113Y-49209876D01*
X80373523Y-49013224D01*
X79860727Y-49012777D01*
X79386794Y-49208602D01*
X79023876Y-49570887D01*
X78827224Y-50044477D01*
X78826777Y-50557273D01*
X79022602Y-51031206D01*
X79384887Y-51394124D01*
X79748191Y-51544981D01*
X87182605Y-58979395D01*
X87552123Y-59226299D01*
X87988000Y-59313000D01*
X105674995Y-59313000D01*
X105675000Y-59313001D01*
X106110877Y-59226299D01*
X106480395Y-58979395D01*
X106879374Y-58580416D01*
X116036000Y-58580416D01*
X116036000Y-66905056D01*
X116015812Y-67006549D01*
X116012102Y-67012101D01*
X116006549Y-67015812D01*
X115905056Y-67036000D01*
X115460275Y-67036000D01*
X115485000Y-66976309D01*
X115485000Y-66285750D01*
X115326250Y-66127000D01*
X114127000Y-66127000D01*
X114127000Y-66147000D01*
X113873000Y-66147000D01*
X113873000Y-66127000D01*
X113853000Y-66127000D01*
X113853000Y-65873000D01*
X113873000Y-65873000D01*
X113873000Y-64673750D01*
X114127000Y-64673750D01*
X114127000Y-65873000D01*
X115326250Y-65873000D01*
X115485000Y-65714250D01*
X115485000Y-65023691D01*
X115388327Y-64790302D01*
X115209699Y-64611673D01*
X114976310Y-64515000D01*
X114285750Y-64515000D01*
X114127000Y-64673750D01*
X113873000Y-64673750D01*
X113714250Y-64515000D01*
X113023690Y-64515000D01*
X112790301Y-64611673D01*
X112675298Y-64726676D01*
X112125486Y-64359304D01*
X111460000Y-64226931D01*
X110794514Y-64359304D01*
X110230341Y-64736272D01*
X110190000Y-64796647D01*
X110149659Y-64736272D01*
X109585486Y-64359304D01*
X108920000Y-64226931D01*
X108254514Y-64359304D01*
X107690341Y-64736272D01*
X107650000Y-64796647D01*
X107609659Y-64736272D01*
X107045486Y-64359304D01*
X106380000Y-64226931D01*
X105714514Y-64359304D01*
X105150341Y-64736272D01*
X105110000Y-64796647D01*
X105069659Y-64736272D01*
X104505486Y-64359304D01*
X103840000Y-64226931D01*
X103174514Y-64359304D01*
X102610341Y-64736272D01*
X102233373Y-65300445D01*
X102101000Y-65965931D01*
X102101000Y-66034069D01*
X102233373Y-66699555D01*
X102458178Y-67036000D01*
X28094944Y-67036000D01*
X27993451Y-67015812D01*
X27987899Y-67012102D01*
X27984188Y-67006549D01*
X27964000Y-66905056D01*
X27964000Y-58558337D01*
X28075000Y-58580416D01*
X38075000Y-58580416D01*
X38421870Y-58511419D01*
X38715933Y-58314933D01*
X38912419Y-58020870D01*
X38981416Y-57674000D01*
X38981416Y-49674000D01*
X38912419Y-49327130D01*
X38715933Y-49033067D01*
X38599506Y-48955273D01*
X89980777Y-48955273D01*
X90081903Y-49200016D01*
X89981224Y-49442477D01*
X89980777Y-49955273D01*
X90081903Y-50200016D01*
X89981224Y-50442477D01*
X89980777Y-50955273D01*
X90081903Y-51200016D01*
X89981224Y-51442477D01*
X89980777Y-51955273D01*
X90081903Y-52200016D01*
X89981224Y-52442477D01*
X89980777Y-52955273D01*
X90176602Y-53429206D01*
X90538887Y-53792124D01*
X91012477Y-53988776D01*
X91525273Y-53989223D01*
X91770016Y-53888097D01*
X92012477Y-53988776D01*
X92525273Y-53989223D01*
X92770016Y-53888097D01*
X93012477Y-53988776D01*
X93525273Y-53989223D01*
X93770016Y-53888097D01*
X94012477Y-53988776D01*
X94525273Y-53989223D01*
X94770016Y-53888097D01*
X95012477Y-53988776D01*
X95525273Y-53989223D01*
X95999206Y-53793398D01*
X96362124Y-53431113D01*
X96558776Y-52957523D01*
X96559223Y-52444727D01*
X96458097Y-52199984D01*
X96558776Y-51957523D01*
X96559223Y-51444727D01*
X96458097Y-51199984D01*
X96558776Y-50957523D01*
X96559223Y-50444727D01*
X96458097Y-50199984D01*
X96558776Y-49957523D01*
X96559223Y-49444727D01*
X96458097Y-49199984D01*
X96558776Y-48957523D01*
X96559223Y-48444727D01*
X96363398Y-47970794D01*
X96001113Y-47607876D01*
X95527523Y-47411224D01*
X95014727Y-47410777D01*
X94769984Y-47511903D01*
X94527523Y-47411224D01*
X94014727Y-47410777D01*
X93769984Y-47511903D01*
X93527523Y-47411224D01*
X93014727Y-47410777D01*
X92769984Y-47511903D01*
X92527523Y-47411224D01*
X92014727Y-47410777D01*
X91769984Y-47511903D01*
X91527523Y-47411224D01*
X91014727Y-47410777D01*
X90540794Y-47606602D01*
X90177876Y-47968887D01*
X89981224Y-48442477D01*
X89980777Y-48955273D01*
X38599506Y-48955273D01*
X38421870Y-48836581D01*
X38075000Y-48767584D01*
X35092206Y-48767584D01*
X36990789Y-46869000D01*
X64384777Y-46869000D01*
X64745477Y-47018776D01*
X65258273Y-47019223D01*
X65732206Y-46823398D01*
X66095124Y-46461113D01*
X66180596Y-46255273D01*
X85710777Y-46255273D01*
X85906602Y-46729206D01*
X86268887Y-47092124D01*
X86742477Y-47288776D01*
X87255273Y-47289223D01*
X87729206Y-47093398D01*
X87808743Y-47014000D01*
X105449126Y-47014000D01*
X105766477Y-47145776D01*
X106279273Y-47146223D01*
X106753206Y-46950398D01*
X107116124Y-46588113D01*
X107312776Y-46114523D01*
X107313223Y-45601727D01*
X107117398Y-45127794D01*
X106755113Y-44764876D01*
X106281523Y-44568224D01*
X105768727Y-44567777D01*
X105294794Y-44763602D01*
X105072007Y-44986000D01*
X87809101Y-44986000D01*
X87731113Y-44907876D01*
X87257523Y-44711224D01*
X86744727Y-44710777D01*
X86270794Y-44906602D01*
X85907876Y-45268887D01*
X85711224Y-45742477D01*
X85710777Y-46255273D01*
X66180596Y-46255273D01*
X66291776Y-45987523D01*
X66292223Y-45474727D01*
X66096398Y-45000794D01*
X65734113Y-44637876D01*
X65260523Y-44441224D01*
X64747727Y-44440777D01*
X64384159Y-44591000D01*
X36519005Y-44591000D01*
X36519000Y-44590999D01*
X36083123Y-44677701D01*
X35952657Y-44764876D01*
X35713605Y-44924605D01*
X35713603Y-44924608D01*
X32269605Y-48368605D01*
X32022701Y-48738123D01*
X32016841Y-48767584D01*
X28075000Y-48767584D01*
X27964000Y-48789663D01*
X27964000Y-43094944D01*
X27984188Y-42993451D01*
X27987899Y-42987898D01*
X27993451Y-42984188D01*
X28094944Y-42964000D01*
X115905056Y-42964000D01*
X116006549Y-42984188D01*
M02*
