G04 #@! TF.GenerationSoftware,KiCad,Pcbnew,no-vcs-found*
G04 #@! TF.CreationDate,2017-01-06T11:38:08+01:00*
G04 #@! TF.ProjectId,ESP32-HELP-Button-18650,45535033322D48454C502D427574746F,rev?*
G04 #@! TF.FileFunction,Legend,Top*
G04 #@! TF.FilePolarity,Positive*
%FSLAX46Y46*%
G04 Gerber Fmt 4.6, Leading zero omitted, Abs format (unit mm)*
G04 Created by KiCad (PCBNEW no-vcs-found) date Fri Jan  6 11:38:08 2017*
%MOMM*%
%LPD*%
G01*
G04 APERTURE LIST*
%ADD10C,0.100000*%
%ADD11C,0.200000*%
%ADD12C,0.010000*%
%ADD13C,0.002540*%
%ADD14C,0.075000*%
%ADD15C,0.150000*%
%ADD16C,0.050000*%
%ADD17C,0.120000*%
%ADD18C,0.127000*%
%ADD19C,0.099060*%
%ADD20C,0.040640*%
%ADD21C,0.119380*%
G04 APERTURE END LIST*
D10*
D11*
X30371714Y-66953380D02*
X30038380Y-66477190D01*
X29800285Y-66953380D02*
X29800285Y-65953380D01*
X30181238Y-65953380D01*
X30276476Y-66001000D01*
X30324095Y-66048619D01*
X30371714Y-66143857D01*
X30371714Y-66286714D01*
X30324095Y-66381952D01*
X30276476Y-66429571D01*
X30181238Y-66477190D01*
X29800285Y-66477190D01*
X30800285Y-66429571D02*
X31133619Y-66429571D01*
X31276476Y-66953380D02*
X30800285Y-66953380D01*
X30800285Y-65953380D01*
X31276476Y-65953380D01*
X32038380Y-66429571D02*
X31705047Y-66429571D01*
X31705047Y-66953380D02*
X31705047Y-65953380D01*
X32181238Y-65953380D01*
X33847904Y-66953380D02*
X33276476Y-66953380D01*
X33562190Y-66953380D02*
X33562190Y-65953380D01*
X33466952Y-66096238D01*
X33371714Y-66191476D01*
X33276476Y-66239095D01*
X35562190Y-66953380D02*
X34990761Y-66953380D01*
X35276476Y-66953380D02*
X35276476Y-65953380D01*
X35181238Y-66096238D01*
X35086000Y-66191476D01*
X34990761Y-66239095D01*
X35895523Y-65953380D02*
X36562190Y-65953380D01*
X36133619Y-66953380D01*
X37133619Y-65953380D02*
X37228857Y-65953380D01*
X37324095Y-66001000D01*
X37371714Y-66048619D01*
X37419333Y-66143857D01*
X37466952Y-66334333D01*
X37466952Y-66572428D01*
X37419333Y-66762904D01*
X37371714Y-66858142D01*
X37324095Y-66905761D01*
X37228857Y-66953380D01*
X37133619Y-66953380D01*
X37038380Y-66905761D01*
X36990761Y-66858142D01*
X36943142Y-66762904D01*
X36895523Y-66572428D01*
X36895523Y-66334333D01*
X36943142Y-66143857D01*
X36990761Y-66048619D01*
X37038380Y-66001000D01*
X37133619Y-65953380D01*
X38419333Y-66953380D02*
X37847904Y-66953380D01*
X38133619Y-66953380D02*
X38133619Y-65953380D01*
X38038380Y-66096238D01*
X37943142Y-66191476D01*
X37847904Y-66239095D01*
X67487380Y-55842238D02*
X67011190Y-56175571D01*
X67487380Y-56413666D02*
X66487380Y-56413666D01*
X66487380Y-56032714D01*
X66535000Y-55937476D01*
X66582619Y-55889857D01*
X66677857Y-55842238D01*
X66820714Y-55842238D01*
X66915952Y-55889857D01*
X66963571Y-55937476D01*
X67011190Y-56032714D01*
X67011190Y-56413666D01*
X66963571Y-55413666D02*
X66963571Y-55080333D01*
X67487380Y-54937476D02*
X67487380Y-55413666D01*
X66487380Y-55413666D01*
X66487380Y-54937476D01*
X66963571Y-54508904D02*
X66963571Y-54175571D01*
X67487380Y-54032714D02*
X67487380Y-54508904D01*
X66487380Y-54508904D01*
X66487380Y-54032714D01*
X67487380Y-53604142D02*
X66487380Y-53604142D01*
X66487380Y-53366047D01*
X66535000Y-53223190D01*
X66630238Y-53127952D01*
X66725476Y-53080333D01*
X66915952Y-53032714D01*
X67058809Y-53032714D01*
X67249285Y-53080333D01*
X67344523Y-53127952D01*
X67439761Y-53223190D01*
X67487380Y-53366047D01*
X67487380Y-53604142D01*
X112983095Y-63334000D02*
X112887857Y-63286380D01*
X112745000Y-63286380D01*
X112602142Y-63334000D01*
X112506904Y-63429238D01*
X112459285Y-63524476D01*
X112411666Y-63714952D01*
X112411666Y-63857809D01*
X112459285Y-64048285D01*
X112506904Y-64143523D01*
X112602142Y-64238761D01*
X112745000Y-64286380D01*
X112840238Y-64286380D01*
X112983095Y-64238761D01*
X113030714Y-64191142D01*
X113030714Y-63857809D01*
X112840238Y-63857809D01*
X113459285Y-64286380D02*
X113459285Y-63286380D01*
X114030714Y-64286380D01*
X114030714Y-63286380D01*
X114506904Y-64286380D02*
X114506904Y-63286380D01*
X114745000Y-63286380D01*
X114887857Y-63334000D01*
X114983095Y-63429238D01*
X115030714Y-63524476D01*
X115078333Y-63714952D01*
X115078333Y-63857809D01*
X115030714Y-64048285D01*
X114983095Y-64143523D01*
X114887857Y-64238761D01*
X114745000Y-64286380D01*
X114506904Y-64286380D01*
X110149380Y-64286380D02*
X109816047Y-63810190D01*
X109577952Y-64286380D02*
X109577952Y-63286380D01*
X109958904Y-63286380D01*
X110054142Y-63334000D01*
X110101761Y-63381619D01*
X110149380Y-63476857D01*
X110149380Y-63619714D01*
X110101761Y-63714952D01*
X110054142Y-63762571D01*
X109958904Y-63810190D01*
X109577952Y-63810190D01*
X110530333Y-64238761D02*
X110673190Y-64286380D01*
X110911285Y-64286380D01*
X111006523Y-64238761D01*
X111054142Y-64191142D01*
X111101761Y-64095904D01*
X111101761Y-64000666D01*
X111054142Y-63905428D01*
X111006523Y-63857809D01*
X110911285Y-63810190D01*
X110720809Y-63762571D01*
X110625571Y-63714952D01*
X110577952Y-63667333D01*
X110530333Y-63572095D01*
X110530333Y-63476857D01*
X110577952Y-63381619D01*
X110625571Y-63334000D01*
X110720809Y-63286380D01*
X110958904Y-63286380D01*
X111101761Y-63334000D01*
X111387476Y-63286380D02*
X111958904Y-63286380D01*
X111673190Y-64286380D02*
X111673190Y-63286380D01*
X107395095Y-63286380D02*
X107966523Y-63286380D01*
X107680809Y-64286380D02*
X107680809Y-63286380D01*
X108204619Y-63286380D02*
X108871285Y-64286380D01*
X108871285Y-63286380D02*
X108204619Y-64286380D01*
X105450333Y-64286380D02*
X105117000Y-63810190D01*
X104878904Y-64286380D02*
X104878904Y-63286380D01*
X105259857Y-63286380D01*
X105355095Y-63334000D01*
X105402714Y-63381619D01*
X105450333Y-63476857D01*
X105450333Y-63619714D01*
X105402714Y-63714952D01*
X105355095Y-63762571D01*
X105259857Y-63810190D01*
X104878904Y-63810190D01*
X105783666Y-63286380D02*
X106450333Y-64286380D01*
X106450333Y-63286380D02*
X105783666Y-64286380D01*
X102727809Y-64286380D02*
X102727809Y-63286380D01*
X103394476Y-63286380D02*
X103489714Y-63286380D01*
X103584952Y-63334000D01*
X103632571Y-63381619D01*
X103680190Y-63476857D01*
X103727809Y-63667333D01*
X103727809Y-63905428D01*
X103680190Y-64095904D01*
X103632571Y-64191142D01*
X103584952Y-64238761D01*
X103489714Y-64286380D01*
X103394476Y-64286380D01*
X103299238Y-64238761D01*
X103251619Y-64191142D01*
X103204000Y-64095904D01*
X103156380Y-63905428D01*
X103156380Y-63667333D01*
X103204000Y-63476857D01*
X103251619Y-63381619D01*
X103299238Y-63334000D01*
X103394476Y-63286380D01*
X59733571Y-51792285D02*
X59733571Y-51458952D01*
X60257380Y-51316095D02*
X60257380Y-51792285D01*
X59257380Y-51792285D01*
X59257380Y-51316095D01*
X60257380Y-50316095D02*
X59781190Y-50649428D01*
X60257380Y-50887523D02*
X59257380Y-50887523D01*
X59257380Y-50506571D01*
X59305000Y-50411333D01*
X59352619Y-50363714D01*
X59447857Y-50316095D01*
X59590714Y-50316095D01*
X59685952Y-50363714D01*
X59733571Y-50411333D01*
X59781190Y-50506571D01*
X59781190Y-50887523D01*
X60257380Y-49316095D02*
X59781190Y-49649428D01*
X60257380Y-49887523D02*
X59257380Y-49887523D01*
X59257380Y-49506571D01*
X59305000Y-49411333D01*
X59352619Y-49363714D01*
X59447857Y-49316095D01*
X59590714Y-49316095D01*
X59685952Y-49363714D01*
X59733571Y-49411333D01*
X59781190Y-49506571D01*
X59781190Y-49887523D01*
X56463380Y-51681238D02*
X56463380Y-51490761D01*
X56511000Y-51395523D01*
X56606238Y-51300285D01*
X56796714Y-51252666D01*
X57130047Y-51252666D01*
X57320523Y-51300285D01*
X57415761Y-51395523D01*
X57463380Y-51490761D01*
X57463380Y-51681238D01*
X57415761Y-51776476D01*
X57320523Y-51871714D01*
X57130047Y-51919333D01*
X56796714Y-51919333D01*
X56606238Y-51871714D01*
X56511000Y-51776476D01*
X56463380Y-51681238D01*
X57463380Y-50824095D02*
X56463380Y-50824095D01*
X57463380Y-50252666D02*
X56891952Y-50681238D01*
X56463380Y-50252666D02*
X57034809Y-50824095D01*
D12*
G36*
X42409957Y-42883571D02*
X42506232Y-42907809D01*
X42592816Y-42950641D01*
X42667627Y-43010419D01*
X42728582Y-43085494D01*
X42773601Y-43174220D01*
X42799864Y-43270530D01*
X42805714Y-43367795D01*
X42790860Y-43461654D01*
X42757160Y-43549511D01*
X42706472Y-43628770D01*
X42640655Y-43696836D01*
X42561566Y-43751112D01*
X42471066Y-43789002D01*
X42419800Y-43801426D01*
X42375302Y-43808947D01*
X42341001Y-43811919D01*
X42308040Y-43810094D01*
X42267566Y-43803225D01*
X42234469Y-43796250D01*
X42141053Y-43764741D01*
X42057381Y-43713617D01*
X41985335Y-43644429D01*
X41926800Y-43558728D01*
X41912852Y-43531489D01*
X41896414Y-43495122D01*
X41886106Y-43464582D01*
X41880540Y-43432450D01*
X41878331Y-43391307D01*
X41878052Y-43345222D01*
X41882139Y-43260865D01*
X41895554Y-43191586D01*
X41920744Y-43130961D01*
X41960154Y-43072567D01*
X41998702Y-43028302D01*
X42070594Y-42962484D01*
X42145687Y-42917053D01*
X42228438Y-42889850D01*
X42306072Y-42879576D01*
X42409957Y-42883571D01*
X42409957Y-42883571D01*
G37*
X42409957Y-42883571D02*
X42506232Y-42907809D01*
X42592816Y-42950641D01*
X42667627Y-43010419D01*
X42728582Y-43085494D01*
X42773601Y-43174220D01*
X42799864Y-43270530D01*
X42805714Y-43367795D01*
X42790860Y-43461654D01*
X42757160Y-43549511D01*
X42706472Y-43628770D01*
X42640655Y-43696836D01*
X42561566Y-43751112D01*
X42471066Y-43789002D01*
X42419800Y-43801426D01*
X42375302Y-43808947D01*
X42341001Y-43811919D01*
X42308040Y-43810094D01*
X42267566Y-43803225D01*
X42234469Y-43796250D01*
X42141053Y-43764741D01*
X42057381Y-43713617D01*
X41985335Y-43644429D01*
X41926800Y-43558728D01*
X41912852Y-43531489D01*
X41896414Y-43495122D01*
X41886106Y-43464582D01*
X41880540Y-43432450D01*
X41878331Y-43391307D01*
X41878052Y-43345222D01*
X41882139Y-43260865D01*
X41895554Y-43191586D01*
X41920744Y-43130961D01*
X41960154Y-43072567D01*
X41998702Y-43028302D01*
X42070594Y-42962484D01*
X42145687Y-42917053D01*
X42228438Y-42889850D01*
X42306072Y-42879576D01*
X42409957Y-42883571D01*
G36*
X50869507Y-45329245D02*
X50869526Y-45563662D01*
X50869552Y-45776603D01*
X50869625Y-45969168D01*
X50869782Y-46142459D01*
X50870064Y-46297576D01*
X50870509Y-46435620D01*
X50871156Y-46557692D01*
X50872045Y-46664894D01*
X50873213Y-46758326D01*
X50874701Y-46839090D01*
X50876546Y-46908286D01*
X50878789Y-46967015D01*
X50881469Y-47016379D01*
X50884623Y-47057478D01*
X50888292Y-47091413D01*
X50892513Y-47119286D01*
X50897327Y-47142198D01*
X50902773Y-47161249D01*
X50908888Y-47177540D01*
X50915712Y-47192173D01*
X50923285Y-47206249D01*
X50931645Y-47220868D01*
X50936839Y-47229974D01*
X50971104Y-47290689D01*
X50112955Y-47290689D01*
X50112955Y-47194733D01*
X50112224Y-47151370D01*
X50110272Y-47118205D01*
X50107463Y-47100424D01*
X50106221Y-47098778D01*
X50094799Y-47105662D01*
X50072084Y-47123505D01*
X50049385Y-47142879D01*
X49994800Y-47183614D01*
X49925321Y-47224617D01*
X49848270Y-47262123D01*
X49770965Y-47292364D01*
X49740113Y-47302012D01*
X49671616Y-47316578D01*
X49588764Y-47326539D01*
X49499371Y-47331583D01*
X49411248Y-47331396D01*
X49332207Y-47325666D01*
X49294511Y-47319858D01*
X49156414Y-47281797D01*
X49029113Y-47224073D01*
X48913292Y-47147211D01*
X48809637Y-47051739D01*
X48718833Y-46938179D01*
X48652031Y-46827381D01*
X48597164Y-46710625D01*
X48555163Y-46591276D01*
X48525167Y-46465283D01*
X48506311Y-46328594D01*
X48497732Y-46177158D01*
X48497006Y-46099711D01*
X48499100Y-46042934D01*
X49328217Y-46042934D01*
X49328424Y-46136002D01*
X49331337Y-46223692D01*
X49337000Y-46300772D01*
X49345455Y-46362009D01*
X49348038Y-46374350D01*
X49379840Y-46481633D01*
X49421498Y-46568658D01*
X49473363Y-46635642D01*
X49535781Y-46682805D01*
X49609100Y-46710365D01*
X49693669Y-46718541D01*
X49789835Y-46707551D01*
X49853311Y-46691829D01*
X49902454Y-46673639D01*
X49956583Y-46647791D01*
X49997244Y-46624089D01*
X50067800Y-46577721D01*
X50067800Y-45427530D01*
X50000392Y-45383962D01*
X49921867Y-45343040D01*
X49837681Y-45316389D01*
X49752557Y-45304465D01*
X49671216Y-45307722D01*
X49598380Y-45326615D01*
X49566426Y-45342184D01*
X49508501Y-45385181D01*
X49459544Y-45441953D01*
X49418390Y-45514575D01*
X49383874Y-45605121D01*
X49354833Y-45715666D01*
X49353552Y-45721533D01*
X49343381Y-45783788D01*
X49335739Y-45861594D01*
X49330670Y-45949720D01*
X49328217Y-46042934D01*
X48499100Y-46042934D01*
X48504857Y-45886895D01*
X48526802Y-45691059D01*
X48562786Y-45512332D01*
X48612759Y-45350845D01*
X48676668Y-45206726D01*
X48754462Y-45080106D01*
X48846089Y-44971115D01*
X48951497Y-44879883D01*
X48996662Y-44848932D01*
X49097611Y-44792785D01*
X49200901Y-44753174D01*
X49310989Y-44729014D01*
X49432330Y-44719219D01*
X49524836Y-44720265D01*
X49654490Y-44731231D01*
X49767084Y-44753046D01*
X49865875Y-44786714D01*
X49954121Y-44833236D01*
X50002986Y-44867448D01*
X50032353Y-44889362D01*
X50054043Y-44904333D01*
X50062253Y-44908733D01*
X50063868Y-44897904D01*
X50065159Y-44867251D01*
X50066138Y-44819526D01*
X50066817Y-44757479D01*
X50067210Y-44683862D01*
X50067330Y-44601427D01*
X50067188Y-44512925D01*
X50066797Y-44421107D01*
X50066171Y-44328724D01*
X50065320Y-44238528D01*
X50064260Y-44153271D01*
X50063001Y-44075703D01*
X50061556Y-44008576D01*
X50059938Y-43954641D01*
X50058161Y-43916650D01*
X50057669Y-43909667D01*
X50050092Y-43839251D01*
X50038531Y-43784102D01*
X50020792Y-43736981D01*
X49994682Y-43690647D01*
X49988415Y-43681067D01*
X49963983Y-43644378D01*
X50869311Y-43644378D01*
X50869507Y-45329245D01*
X50869507Y-45329245D01*
G37*
X50869507Y-45329245D02*
X50869526Y-45563662D01*
X50869552Y-45776603D01*
X50869625Y-45969168D01*
X50869782Y-46142459D01*
X50870064Y-46297576D01*
X50870509Y-46435620D01*
X50871156Y-46557692D01*
X50872045Y-46664894D01*
X50873213Y-46758326D01*
X50874701Y-46839090D01*
X50876546Y-46908286D01*
X50878789Y-46967015D01*
X50881469Y-47016379D01*
X50884623Y-47057478D01*
X50888292Y-47091413D01*
X50892513Y-47119286D01*
X50897327Y-47142198D01*
X50902773Y-47161249D01*
X50908888Y-47177540D01*
X50915712Y-47192173D01*
X50923285Y-47206249D01*
X50931645Y-47220868D01*
X50936839Y-47229974D01*
X50971104Y-47290689D01*
X50112955Y-47290689D01*
X50112955Y-47194733D01*
X50112224Y-47151370D01*
X50110272Y-47118205D01*
X50107463Y-47100424D01*
X50106221Y-47098778D01*
X50094799Y-47105662D01*
X50072084Y-47123505D01*
X50049385Y-47142879D01*
X49994800Y-47183614D01*
X49925321Y-47224617D01*
X49848270Y-47262123D01*
X49770965Y-47292364D01*
X49740113Y-47302012D01*
X49671616Y-47316578D01*
X49588764Y-47326539D01*
X49499371Y-47331583D01*
X49411248Y-47331396D01*
X49332207Y-47325666D01*
X49294511Y-47319858D01*
X49156414Y-47281797D01*
X49029113Y-47224073D01*
X48913292Y-47147211D01*
X48809637Y-47051739D01*
X48718833Y-46938179D01*
X48652031Y-46827381D01*
X48597164Y-46710625D01*
X48555163Y-46591276D01*
X48525167Y-46465283D01*
X48506311Y-46328594D01*
X48497732Y-46177158D01*
X48497006Y-46099711D01*
X48499100Y-46042934D01*
X49328217Y-46042934D01*
X49328424Y-46136002D01*
X49331337Y-46223692D01*
X49337000Y-46300772D01*
X49345455Y-46362009D01*
X49348038Y-46374350D01*
X49379840Y-46481633D01*
X49421498Y-46568658D01*
X49473363Y-46635642D01*
X49535781Y-46682805D01*
X49609100Y-46710365D01*
X49693669Y-46718541D01*
X49789835Y-46707551D01*
X49853311Y-46691829D01*
X49902454Y-46673639D01*
X49956583Y-46647791D01*
X49997244Y-46624089D01*
X50067800Y-46577721D01*
X50067800Y-45427530D01*
X50000392Y-45383962D01*
X49921867Y-45343040D01*
X49837681Y-45316389D01*
X49752557Y-45304465D01*
X49671216Y-45307722D01*
X49598380Y-45326615D01*
X49566426Y-45342184D01*
X49508501Y-45385181D01*
X49459544Y-45441953D01*
X49418390Y-45514575D01*
X49383874Y-45605121D01*
X49354833Y-45715666D01*
X49353552Y-45721533D01*
X49343381Y-45783788D01*
X49335739Y-45861594D01*
X49330670Y-45949720D01*
X49328217Y-46042934D01*
X48499100Y-46042934D01*
X48504857Y-45886895D01*
X48526802Y-45691059D01*
X48562786Y-45512332D01*
X48612759Y-45350845D01*
X48676668Y-45206726D01*
X48754462Y-45080106D01*
X48846089Y-44971115D01*
X48951497Y-44879883D01*
X48996662Y-44848932D01*
X49097611Y-44792785D01*
X49200901Y-44753174D01*
X49310989Y-44729014D01*
X49432330Y-44719219D01*
X49524836Y-44720265D01*
X49654490Y-44731231D01*
X49767084Y-44753046D01*
X49865875Y-44786714D01*
X49954121Y-44833236D01*
X50002986Y-44867448D01*
X50032353Y-44889362D01*
X50054043Y-44904333D01*
X50062253Y-44908733D01*
X50063868Y-44897904D01*
X50065159Y-44867251D01*
X50066138Y-44819526D01*
X50066817Y-44757479D01*
X50067210Y-44683862D01*
X50067330Y-44601427D01*
X50067188Y-44512925D01*
X50066797Y-44421107D01*
X50066171Y-44328724D01*
X50065320Y-44238528D01*
X50064260Y-44153271D01*
X50063001Y-44075703D01*
X50061556Y-44008576D01*
X50059938Y-43954641D01*
X50058161Y-43916650D01*
X50057669Y-43909667D01*
X50050092Y-43839251D01*
X50038531Y-43784102D01*
X50020792Y-43736981D01*
X49994682Y-43690647D01*
X49988415Y-43681067D01*
X49963983Y-43644378D01*
X50869311Y-43644378D01*
X50869507Y-45329245D01*
G36*
X47356574Y-44723552D02*
X47508492Y-44743567D01*
X47643756Y-44777202D01*
X47763239Y-44824725D01*
X47867815Y-44886405D01*
X47945424Y-44949965D01*
X48014265Y-45024099D01*
X48068006Y-45103871D01*
X48110910Y-45196091D01*
X48126384Y-45239161D01*
X48139244Y-45278142D01*
X48150446Y-45314289D01*
X48160120Y-45349434D01*
X48168396Y-45385410D01*
X48175403Y-45424050D01*
X48181272Y-45467185D01*
X48186131Y-45516649D01*
X48190110Y-45574273D01*
X48193340Y-45641891D01*
X48195949Y-45721334D01*
X48198067Y-45814436D01*
X48199824Y-45923027D01*
X48201349Y-46048942D01*
X48202772Y-46194012D01*
X48204025Y-46336778D01*
X48205351Y-46492968D01*
X48206556Y-46628239D01*
X48207766Y-46744246D01*
X48209106Y-46842645D01*
X48210700Y-46925093D01*
X48212675Y-46993246D01*
X48215156Y-47048760D01*
X48218269Y-47093292D01*
X48222138Y-47128498D01*
X48226889Y-47156034D01*
X48232648Y-47177556D01*
X48239539Y-47194722D01*
X48247689Y-47209186D01*
X48257223Y-47222606D01*
X48268266Y-47236638D01*
X48272566Y-47242071D01*
X48288386Y-47264910D01*
X48295422Y-47280463D01*
X48295444Y-47280922D01*
X48284567Y-47283121D01*
X48253582Y-47285147D01*
X48204957Y-47286942D01*
X48141163Y-47288451D01*
X48064669Y-47289616D01*
X47977944Y-47290380D01*
X47883457Y-47290686D01*
X47872550Y-47290689D01*
X47449657Y-47290689D01*
X47446395Y-47194622D01*
X47443133Y-47098556D01*
X47381044Y-47149543D01*
X47283714Y-47217057D01*
X47173813Y-47271749D01*
X47087349Y-47301978D01*
X47018278Y-47316666D01*
X46934925Y-47326659D01*
X46845159Y-47331646D01*
X46756845Y-47331313D01*
X46677851Y-47325351D01*
X46641622Y-47319638D01*
X46501603Y-47281776D01*
X46375178Y-47226932D01*
X46263260Y-47155924D01*
X46166762Y-47069568D01*
X46086600Y-46968679D01*
X46023687Y-46854076D01*
X45979312Y-46727984D01*
X45966978Y-46671401D01*
X45959368Y-46609202D01*
X45955739Y-46534363D01*
X45955245Y-46500467D01*
X45955310Y-46497282D01*
X46715248Y-46497282D01*
X46724541Y-46572333D01*
X46752728Y-46636160D01*
X46801197Y-46691798D01*
X46806254Y-46696211D01*
X46854548Y-46731037D01*
X46906257Y-46753620D01*
X46966989Y-46765540D01*
X47042352Y-46768383D01*
X47060459Y-46767978D01*
X47114278Y-46765325D01*
X47154308Y-46759909D01*
X47189324Y-46749745D01*
X47228103Y-46732850D01*
X47238745Y-46727672D01*
X47299396Y-46691844D01*
X47346215Y-46649212D01*
X47358952Y-46633973D01*
X47403622Y-46577462D01*
X47403622Y-46381586D01*
X47403086Y-46302939D01*
X47401396Y-46244988D01*
X47398428Y-46205875D01*
X47394057Y-46183741D01*
X47389972Y-46177274D01*
X47374047Y-46174111D01*
X47340264Y-46171488D01*
X47293340Y-46169655D01*
X47237993Y-46168857D01*
X47229106Y-46168842D01*
X47108330Y-46174096D01*
X47005660Y-46190263D01*
X46919106Y-46217961D01*
X46846681Y-46257808D01*
X46791751Y-46304758D01*
X46747204Y-46362645D01*
X46722480Y-46425693D01*
X46715248Y-46497282D01*
X45955310Y-46497282D01*
X45957178Y-46406712D01*
X45965522Y-46327812D01*
X45981768Y-46256590D01*
X46007405Y-46185864D01*
X46031401Y-46133493D01*
X46090020Y-46038196D01*
X46168117Y-45950170D01*
X46263315Y-45871017D01*
X46373238Y-45802340D01*
X46495510Y-45745741D01*
X46627755Y-45702821D01*
X46692422Y-45687882D01*
X46828604Y-45665777D01*
X46977049Y-45651194D01*
X47128505Y-45644813D01*
X47255064Y-45646445D01*
X47416950Y-45653224D01*
X47409530Y-45594245D01*
X47390238Y-45495092D01*
X47359104Y-45414372D01*
X47315269Y-45351466D01*
X47257871Y-45305756D01*
X47186048Y-45276622D01*
X47098941Y-45263447D01*
X46995686Y-45265611D01*
X46957711Y-45269612D01*
X46816520Y-45294780D01*
X46679707Y-45335814D01*
X46585178Y-45373815D01*
X46540018Y-45393190D01*
X46501585Y-45408760D01*
X46475234Y-45418405D01*
X46467546Y-45420452D01*
X46457802Y-45411374D01*
X46441083Y-45382405D01*
X46417232Y-45333217D01*
X46386093Y-45263484D01*
X46347507Y-45172879D01*
X46340910Y-45157089D01*
X46310853Y-45084772D01*
X46283874Y-45019425D01*
X46261136Y-44963906D01*
X46243806Y-44921072D01*
X46233048Y-44893781D01*
X46229941Y-44884942D01*
X46239940Y-44880187D01*
X46266217Y-44874910D01*
X46294489Y-44871231D01*
X46324646Y-44866474D01*
X46372433Y-44857028D01*
X46433612Y-44843820D01*
X46503946Y-44827776D01*
X46579194Y-44809820D01*
X46607755Y-44802797D01*
X46712816Y-44777209D01*
X46800480Y-44757147D01*
X46875068Y-44741969D01*
X46940903Y-44731035D01*
X47002307Y-44723704D01*
X47063602Y-44719335D01*
X47129110Y-44717287D01*
X47187128Y-44716889D01*
X47356574Y-44723552D01*
X47356574Y-44723552D01*
G37*
X47356574Y-44723552D02*
X47508492Y-44743567D01*
X47643756Y-44777202D01*
X47763239Y-44824725D01*
X47867815Y-44886405D01*
X47945424Y-44949965D01*
X48014265Y-45024099D01*
X48068006Y-45103871D01*
X48110910Y-45196091D01*
X48126384Y-45239161D01*
X48139244Y-45278142D01*
X48150446Y-45314289D01*
X48160120Y-45349434D01*
X48168396Y-45385410D01*
X48175403Y-45424050D01*
X48181272Y-45467185D01*
X48186131Y-45516649D01*
X48190110Y-45574273D01*
X48193340Y-45641891D01*
X48195949Y-45721334D01*
X48198067Y-45814436D01*
X48199824Y-45923027D01*
X48201349Y-46048942D01*
X48202772Y-46194012D01*
X48204025Y-46336778D01*
X48205351Y-46492968D01*
X48206556Y-46628239D01*
X48207766Y-46744246D01*
X48209106Y-46842645D01*
X48210700Y-46925093D01*
X48212675Y-46993246D01*
X48215156Y-47048760D01*
X48218269Y-47093292D01*
X48222138Y-47128498D01*
X48226889Y-47156034D01*
X48232648Y-47177556D01*
X48239539Y-47194722D01*
X48247689Y-47209186D01*
X48257223Y-47222606D01*
X48268266Y-47236638D01*
X48272566Y-47242071D01*
X48288386Y-47264910D01*
X48295422Y-47280463D01*
X48295444Y-47280922D01*
X48284567Y-47283121D01*
X48253582Y-47285147D01*
X48204957Y-47286942D01*
X48141163Y-47288451D01*
X48064669Y-47289616D01*
X47977944Y-47290380D01*
X47883457Y-47290686D01*
X47872550Y-47290689D01*
X47449657Y-47290689D01*
X47446395Y-47194622D01*
X47443133Y-47098556D01*
X47381044Y-47149543D01*
X47283714Y-47217057D01*
X47173813Y-47271749D01*
X47087349Y-47301978D01*
X47018278Y-47316666D01*
X46934925Y-47326659D01*
X46845159Y-47331646D01*
X46756845Y-47331313D01*
X46677851Y-47325351D01*
X46641622Y-47319638D01*
X46501603Y-47281776D01*
X46375178Y-47226932D01*
X46263260Y-47155924D01*
X46166762Y-47069568D01*
X46086600Y-46968679D01*
X46023687Y-46854076D01*
X45979312Y-46727984D01*
X45966978Y-46671401D01*
X45959368Y-46609202D01*
X45955739Y-46534363D01*
X45955245Y-46500467D01*
X45955310Y-46497282D01*
X46715248Y-46497282D01*
X46724541Y-46572333D01*
X46752728Y-46636160D01*
X46801197Y-46691798D01*
X46806254Y-46696211D01*
X46854548Y-46731037D01*
X46906257Y-46753620D01*
X46966989Y-46765540D01*
X47042352Y-46768383D01*
X47060459Y-46767978D01*
X47114278Y-46765325D01*
X47154308Y-46759909D01*
X47189324Y-46749745D01*
X47228103Y-46732850D01*
X47238745Y-46727672D01*
X47299396Y-46691844D01*
X47346215Y-46649212D01*
X47358952Y-46633973D01*
X47403622Y-46577462D01*
X47403622Y-46381586D01*
X47403086Y-46302939D01*
X47401396Y-46244988D01*
X47398428Y-46205875D01*
X47394057Y-46183741D01*
X47389972Y-46177274D01*
X47374047Y-46174111D01*
X47340264Y-46171488D01*
X47293340Y-46169655D01*
X47237993Y-46168857D01*
X47229106Y-46168842D01*
X47108330Y-46174096D01*
X47005660Y-46190263D01*
X46919106Y-46217961D01*
X46846681Y-46257808D01*
X46791751Y-46304758D01*
X46747204Y-46362645D01*
X46722480Y-46425693D01*
X46715248Y-46497282D01*
X45955310Y-46497282D01*
X45957178Y-46406712D01*
X45965522Y-46327812D01*
X45981768Y-46256590D01*
X46007405Y-46185864D01*
X46031401Y-46133493D01*
X46090020Y-46038196D01*
X46168117Y-45950170D01*
X46263315Y-45871017D01*
X46373238Y-45802340D01*
X46495510Y-45745741D01*
X46627755Y-45702821D01*
X46692422Y-45687882D01*
X46828604Y-45665777D01*
X46977049Y-45651194D01*
X47128505Y-45644813D01*
X47255064Y-45646445D01*
X47416950Y-45653224D01*
X47409530Y-45594245D01*
X47390238Y-45495092D01*
X47359104Y-45414372D01*
X47315269Y-45351466D01*
X47257871Y-45305756D01*
X47186048Y-45276622D01*
X47098941Y-45263447D01*
X46995686Y-45265611D01*
X46957711Y-45269612D01*
X46816520Y-45294780D01*
X46679707Y-45335814D01*
X46585178Y-45373815D01*
X46540018Y-45393190D01*
X46501585Y-45408760D01*
X46475234Y-45418405D01*
X46467546Y-45420452D01*
X46457802Y-45411374D01*
X46441083Y-45382405D01*
X46417232Y-45333217D01*
X46386093Y-45263484D01*
X46347507Y-45172879D01*
X46340910Y-45157089D01*
X46310853Y-45084772D01*
X46283874Y-45019425D01*
X46261136Y-44963906D01*
X46243806Y-44921072D01*
X46233048Y-44893781D01*
X46229941Y-44884942D01*
X46239940Y-44880187D01*
X46266217Y-44874910D01*
X46294489Y-44871231D01*
X46324646Y-44866474D01*
X46372433Y-44857028D01*
X46433612Y-44843820D01*
X46503946Y-44827776D01*
X46579194Y-44809820D01*
X46607755Y-44802797D01*
X46712816Y-44777209D01*
X46800480Y-44757147D01*
X46875068Y-44741969D01*
X46940903Y-44731035D01*
X47002307Y-44723704D01*
X47063602Y-44719335D01*
X47129110Y-44717287D01*
X47187128Y-44716889D01*
X47356574Y-44723552D01*
G36*
X45011429Y-43806071D02*
X45171570Y-43827245D01*
X45335510Y-43867385D01*
X45505313Y-43926889D01*
X45683043Y-44006154D01*
X45694310Y-44011699D01*
X45752005Y-44039725D01*
X45803552Y-44063802D01*
X45845191Y-44082249D01*
X45873162Y-44093386D01*
X45882733Y-44095933D01*
X45901950Y-44100941D01*
X45906561Y-44105147D01*
X45901458Y-44115580D01*
X45885418Y-44141868D01*
X45860288Y-44181257D01*
X45827914Y-44230991D01*
X45790143Y-44288315D01*
X45748822Y-44350476D01*
X45705798Y-44414718D01*
X45662917Y-44478285D01*
X45622026Y-44538425D01*
X45584971Y-44592380D01*
X45553600Y-44637397D01*
X45529759Y-44670721D01*
X45515294Y-44689597D01*
X45513309Y-44691787D01*
X45503191Y-44687138D01*
X45480850Y-44669962D01*
X45450280Y-44643440D01*
X45434536Y-44628964D01*
X45338047Y-44553682D01*
X45231336Y-44498241D01*
X45115832Y-44463141D01*
X44992962Y-44448880D01*
X44923561Y-44450051D01*
X44802423Y-44467212D01*
X44693205Y-44503094D01*
X44595582Y-44557959D01*
X44509228Y-44632070D01*
X44433815Y-44725688D01*
X44369018Y-44839076D01*
X44331601Y-44925667D01*
X44287748Y-45061366D01*
X44255428Y-45208850D01*
X44234557Y-45364314D01*
X44225051Y-45523956D01*
X44226827Y-45683973D01*
X44239803Y-45840561D01*
X44263894Y-45989918D01*
X44299018Y-46128240D01*
X44345092Y-46251724D01*
X44361373Y-46285978D01*
X44429620Y-46400064D01*
X44510079Y-46496557D01*
X44601570Y-46574670D01*
X44702911Y-46633617D01*
X44812920Y-46672612D01*
X44930415Y-46690868D01*
X44971883Y-46692211D01*
X45093441Y-46681290D01*
X45213878Y-46648474D01*
X45331666Y-46594439D01*
X45445277Y-46519865D01*
X45536685Y-46441539D01*
X45583215Y-46397008D01*
X45764483Y-46694271D01*
X45809580Y-46768433D01*
X45850819Y-46836646D01*
X45886735Y-46896459D01*
X45915866Y-46945420D01*
X45936750Y-46981079D01*
X45947924Y-47000984D01*
X45949375Y-47004079D01*
X45941146Y-47013718D01*
X45915567Y-47030999D01*
X45875873Y-47054283D01*
X45825297Y-47081934D01*
X45767074Y-47112315D01*
X45704437Y-47143790D01*
X45640621Y-47174722D01*
X45578860Y-47203473D01*
X45522388Y-47228408D01*
X45474438Y-47247889D01*
X45450986Y-47256318D01*
X45317221Y-47294133D01*
X45179327Y-47319136D01*
X45031622Y-47332140D01*
X44904833Y-47334468D01*
X44836878Y-47333373D01*
X44771277Y-47331275D01*
X44713847Y-47328434D01*
X44670403Y-47325106D01*
X44656298Y-47323422D01*
X44517284Y-47294587D01*
X44375757Y-47249468D01*
X44238275Y-47190750D01*
X44111394Y-47121120D01*
X44033889Y-47068441D01*
X43906481Y-46960239D01*
X43788178Y-46833671D01*
X43681172Y-46691866D01*
X43587652Y-46537951D01*
X43509810Y-46375053D01*
X43465956Y-46257756D01*
X43415708Y-46074128D01*
X43382209Y-45879581D01*
X43365449Y-45678325D01*
X43365416Y-45474568D01*
X43382101Y-45272521D01*
X43415493Y-45076392D01*
X43465580Y-44890391D01*
X43469397Y-44878803D01*
X43532281Y-44716750D01*
X43609028Y-44568832D01*
X43702242Y-44430865D01*
X43814527Y-44298661D01*
X43858392Y-44253399D01*
X43994534Y-44129457D01*
X44134491Y-44026915D01*
X44280411Y-43944656D01*
X44434442Y-43881564D01*
X44598732Y-43836523D01*
X44694289Y-43819033D01*
X44853023Y-43803466D01*
X45011429Y-43806071D01*
X45011429Y-43806071D01*
G37*
X45011429Y-43806071D02*
X45171570Y-43827245D01*
X45335510Y-43867385D01*
X45505313Y-43926889D01*
X45683043Y-44006154D01*
X45694310Y-44011699D01*
X45752005Y-44039725D01*
X45803552Y-44063802D01*
X45845191Y-44082249D01*
X45873162Y-44093386D01*
X45882733Y-44095933D01*
X45901950Y-44100941D01*
X45906561Y-44105147D01*
X45901458Y-44115580D01*
X45885418Y-44141868D01*
X45860288Y-44181257D01*
X45827914Y-44230991D01*
X45790143Y-44288315D01*
X45748822Y-44350476D01*
X45705798Y-44414718D01*
X45662917Y-44478285D01*
X45622026Y-44538425D01*
X45584971Y-44592380D01*
X45553600Y-44637397D01*
X45529759Y-44670721D01*
X45515294Y-44689597D01*
X45513309Y-44691787D01*
X45503191Y-44687138D01*
X45480850Y-44669962D01*
X45450280Y-44643440D01*
X45434536Y-44628964D01*
X45338047Y-44553682D01*
X45231336Y-44498241D01*
X45115832Y-44463141D01*
X44992962Y-44448880D01*
X44923561Y-44450051D01*
X44802423Y-44467212D01*
X44693205Y-44503094D01*
X44595582Y-44557959D01*
X44509228Y-44632070D01*
X44433815Y-44725688D01*
X44369018Y-44839076D01*
X44331601Y-44925667D01*
X44287748Y-45061366D01*
X44255428Y-45208850D01*
X44234557Y-45364314D01*
X44225051Y-45523956D01*
X44226827Y-45683973D01*
X44239803Y-45840561D01*
X44263894Y-45989918D01*
X44299018Y-46128240D01*
X44345092Y-46251724D01*
X44361373Y-46285978D01*
X44429620Y-46400064D01*
X44510079Y-46496557D01*
X44601570Y-46574670D01*
X44702911Y-46633617D01*
X44812920Y-46672612D01*
X44930415Y-46690868D01*
X44971883Y-46692211D01*
X45093441Y-46681290D01*
X45213878Y-46648474D01*
X45331666Y-46594439D01*
X45445277Y-46519865D01*
X45536685Y-46441539D01*
X45583215Y-46397008D01*
X45764483Y-46694271D01*
X45809580Y-46768433D01*
X45850819Y-46836646D01*
X45886735Y-46896459D01*
X45915866Y-46945420D01*
X45936750Y-46981079D01*
X45947924Y-47000984D01*
X45949375Y-47004079D01*
X45941146Y-47013718D01*
X45915567Y-47030999D01*
X45875873Y-47054283D01*
X45825297Y-47081934D01*
X45767074Y-47112315D01*
X45704437Y-47143790D01*
X45640621Y-47174722D01*
X45578860Y-47203473D01*
X45522388Y-47228408D01*
X45474438Y-47247889D01*
X45450986Y-47256318D01*
X45317221Y-47294133D01*
X45179327Y-47319136D01*
X45031622Y-47332140D01*
X44904833Y-47334468D01*
X44836878Y-47333373D01*
X44771277Y-47331275D01*
X44713847Y-47328434D01*
X44670403Y-47325106D01*
X44656298Y-47323422D01*
X44517284Y-47294587D01*
X44375757Y-47249468D01*
X44238275Y-47190750D01*
X44111394Y-47121120D01*
X44033889Y-47068441D01*
X43906481Y-46960239D01*
X43788178Y-46833671D01*
X43681172Y-46691866D01*
X43587652Y-46537951D01*
X43509810Y-46375053D01*
X43465956Y-46257756D01*
X43415708Y-46074128D01*
X43382209Y-45879581D01*
X43365449Y-45678325D01*
X43365416Y-45474568D01*
X43382101Y-45272521D01*
X43415493Y-45076392D01*
X43465580Y-44890391D01*
X43469397Y-44878803D01*
X43532281Y-44716750D01*
X43609028Y-44568832D01*
X43702242Y-44430865D01*
X43814527Y-44298661D01*
X43858392Y-44253399D01*
X43994534Y-44129457D01*
X44134491Y-44026915D01*
X44280411Y-43944656D01*
X44434442Y-43881564D01*
X44598732Y-43836523D01*
X44694289Y-43819033D01*
X44853023Y-43803466D01*
X45011429Y-43806071D01*
G36*
X41736600Y-43346054D02*
X41747465Y-43459993D01*
X41779082Y-43567616D01*
X41829985Y-43666615D01*
X41898707Y-43754684D01*
X41983781Y-43829516D01*
X42080768Y-43887384D01*
X42187036Y-43927005D01*
X42294050Y-43945573D01*
X42399700Y-43944434D01*
X42501875Y-43924930D01*
X42598466Y-43888406D01*
X42687362Y-43836205D01*
X42766454Y-43769673D01*
X42833631Y-43690152D01*
X42886783Y-43598987D01*
X42923801Y-43497523D01*
X42942573Y-43387102D01*
X42944511Y-43337206D01*
X42944511Y-43249267D01*
X42996440Y-43249267D01*
X43032747Y-43252111D01*
X43059645Y-43263911D01*
X43086751Y-43287649D01*
X43125133Y-43326031D01*
X43125133Y-45517602D01*
X43125124Y-45779739D01*
X43125092Y-46020241D01*
X43125028Y-46240048D01*
X43124924Y-46440101D01*
X43124773Y-46621344D01*
X43124566Y-46784716D01*
X43124294Y-46931160D01*
X43123950Y-47061617D01*
X43123526Y-47177029D01*
X43123013Y-47278338D01*
X43122403Y-47366484D01*
X43121688Y-47442410D01*
X43120860Y-47507057D01*
X43119911Y-47561367D01*
X43118833Y-47606280D01*
X43117617Y-47642740D01*
X43116255Y-47671687D01*
X43114739Y-47694063D01*
X43113062Y-47710809D01*
X43111214Y-47722868D01*
X43109187Y-47731180D01*
X43106975Y-47736687D01*
X43105892Y-47738537D01*
X43101729Y-47745549D01*
X43098195Y-47751996D01*
X43094365Y-47757900D01*
X43089318Y-47763286D01*
X43082129Y-47768178D01*
X43071877Y-47772598D01*
X43057636Y-47776572D01*
X43038486Y-47780121D01*
X43013501Y-47783270D01*
X42981760Y-47786042D01*
X42942338Y-47788461D01*
X42894314Y-47790551D01*
X42836763Y-47792335D01*
X42768763Y-47793837D01*
X42689390Y-47795080D01*
X42597721Y-47796089D01*
X42492834Y-47796885D01*
X42373804Y-47797494D01*
X42239710Y-47797939D01*
X42089627Y-47798243D01*
X41922633Y-47798430D01*
X41737804Y-47798524D01*
X41534217Y-47798548D01*
X41310950Y-47798525D01*
X41067078Y-47798480D01*
X40801679Y-47798437D01*
X40763296Y-47798432D01*
X40496318Y-47798389D01*
X40250998Y-47798318D01*
X40026417Y-47798213D01*
X39821655Y-47798066D01*
X39635794Y-47797869D01*
X39467912Y-47797616D01*
X39317092Y-47797300D01*
X39182413Y-47796913D01*
X39062956Y-47796447D01*
X38957801Y-47795897D01*
X38866029Y-47795253D01*
X38786721Y-47794511D01*
X38718957Y-47793661D01*
X38661818Y-47792697D01*
X38614383Y-47791611D01*
X38575734Y-47790397D01*
X38544951Y-47789047D01*
X38521115Y-47787555D01*
X38503306Y-47785911D01*
X38490605Y-47784111D01*
X38482092Y-47782145D01*
X38477734Y-47780477D01*
X38469272Y-47776906D01*
X38461503Y-47774270D01*
X38454398Y-47771634D01*
X38447927Y-47768062D01*
X38442061Y-47762621D01*
X38436771Y-47754375D01*
X38432026Y-47742390D01*
X38427798Y-47725731D01*
X38424057Y-47703463D01*
X38420773Y-47674652D01*
X38417917Y-47638363D01*
X38415460Y-47593661D01*
X38413371Y-47539611D01*
X38411622Y-47475279D01*
X38410183Y-47399730D01*
X38409024Y-47312030D01*
X38408117Y-47211243D01*
X38407431Y-47096434D01*
X38406937Y-46966670D01*
X38406605Y-46821015D01*
X38406407Y-46658535D01*
X38406313Y-46478295D01*
X38406292Y-46279360D01*
X38406315Y-46060796D01*
X38406354Y-45821668D01*
X38406378Y-45561040D01*
X38406378Y-45518889D01*
X38406364Y-45255992D01*
X38406339Y-45014732D01*
X38406329Y-44794165D01*
X38406358Y-44593352D01*
X38406452Y-44411349D01*
X38406638Y-44247216D01*
X38406941Y-44100011D01*
X38407386Y-43968792D01*
X38407966Y-43858867D01*
X38710803Y-43858867D01*
X38750593Y-43916711D01*
X38761764Y-43932479D01*
X38771834Y-43946441D01*
X38780862Y-43959784D01*
X38788903Y-43973693D01*
X38796014Y-43989356D01*
X38802253Y-44007958D01*
X38807675Y-44030686D01*
X38812338Y-44058727D01*
X38816299Y-44093267D01*
X38819615Y-44135492D01*
X38822341Y-44186589D01*
X38824536Y-44247744D01*
X38826255Y-44320144D01*
X38827556Y-44404975D01*
X38828495Y-44503422D01*
X38829130Y-44616674D01*
X38829516Y-44745916D01*
X38829712Y-44892334D01*
X38829773Y-45057116D01*
X38829757Y-45241447D01*
X38829720Y-45446513D01*
X38829711Y-45569133D01*
X38829735Y-45786082D01*
X38829769Y-45981642D01*
X38829757Y-46156999D01*
X38829642Y-46313341D01*
X38829370Y-46451857D01*
X38828882Y-46573734D01*
X38828124Y-46680160D01*
X38827038Y-46772322D01*
X38825569Y-46851409D01*
X38823660Y-46918608D01*
X38821256Y-46975107D01*
X38818299Y-47022093D01*
X38814734Y-47060755D01*
X38810505Y-47092280D01*
X38805554Y-47117855D01*
X38799827Y-47138670D01*
X38793267Y-47155911D01*
X38785817Y-47170765D01*
X38777421Y-47184422D01*
X38768024Y-47198069D01*
X38757568Y-47212893D01*
X38751477Y-47221783D01*
X38712704Y-47279400D01*
X39244268Y-47279400D01*
X39367517Y-47279365D01*
X39470013Y-47279215D01*
X39553580Y-47278878D01*
X39620044Y-47278286D01*
X39671229Y-47277367D01*
X39708959Y-47276051D01*
X39735060Y-47274269D01*
X39751356Y-47271951D01*
X39759672Y-47269026D01*
X39761832Y-47265424D01*
X39759661Y-47261075D01*
X39758465Y-47259645D01*
X39733315Y-47222573D01*
X39707417Y-47169772D01*
X39683808Y-47107770D01*
X39675539Y-47081357D01*
X39670922Y-47063416D01*
X39667021Y-47042355D01*
X39663752Y-47016089D01*
X39661034Y-46982532D01*
X39658785Y-46939599D01*
X39656923Y-46885204D01*
X39655364Y-46817262D01*
X39654028Y-46733688D01*
X39652831Y-46632395D01*
X39651692Y-46511300D01*
X39651315Y-46466600D01*
X39650298Y-46341449D01*
X39649540Y-46237082D01*
X39649097Y-46151707D01*
X39649030Y-46083533D01*
X39649395Y-46030765D01*
X39650252Y-45991614D01*
X39651659Y-45964285D01*
X39653675Y-45946986D01*
X39656357Y-45937926D01*
X39659764Y-45935312D01*
X39663956Y-45937351D01*
X39668429Y-45941667D01*
X39678784Y-45954602D01*
X39700842Y-45983676D01*
X39733043Y-46026759D01*
X39773826Y-46081718D01*
X39821630Y-46146423D01*
X39874895Y-46218742D01*
X39932060Y-46296544D01*
X39991563Y-46377698D01*
X40051845Y-46460072D01*
X40111345Y-46541536D01*
X40168502Y-46619957D01*
X40221755Y-46693204D01*
X40269543Y-46759147D01*
X40310307Y-46815654D01*
X40342484Y-46860593D01*
X40364515Y-46891834D01*
X40369083Y-46898466D01*
X40392004Y-46935369D01*
X40418812Y-46983359D01*
X40444211Y-47032897D01*
X40447432Y-47039577D01*
X40469110Y-47087772D01*
X40481696Y-47125334D01*
X40487426Y-47161160D01*
X40488544Y-47203200D01*
X40487910Y-47279400D01*
X41642349Y-47279400D01*
X41551185Y-47185669D01*
X41504388Y-47135775D01*
X41454101Y-47079295D01*
X41408056Y-47025026D01*
X41387631Y-46999673D01*
X41357193Y-46960128D01*
X41317138Y-46906916D01*
X41268639Y-46841667D01*
X41212865Y-46766011D01*
X41150989Y-46681577D01*
X41084181Y-46589994D01*
X41013613Y-46492892D01*
X40940455Y-46391901D01*
X40865879Y-46288650D01*
X40791056Y-46184768D01*
X40717157Y-46081885D01*
X40645354Y-45981631D01*
X40576816Y-45885636D01*
X40512716Y-45795527D01*
X40454225Y-45712936D01*
X40402514Y-45639492D01*
X40358753Y-45576824D01*
X40324115Y-45526561D01*
X40299770Y-45490334D01*
X40286889Y-45469771D01*
X40285131Y-45465668D01*
X40293090Y-45454342D01*
X40313885Y-45427162D01*
X40346153Y-45385829D01*
X40388530Y-45332044D01*
X40439653Y-45267506D01*
X40498159Y-45193918D01*
X40562686Y-45112978D01*
X40631869Y-45026388D01*
X40704347Y-44935848D01*
X40778754Y-44843060D01*
X40838483Y-44768702D01*
X41849489Y-44768702D01*
X41855398Y-44781659D01*
X41869728Y-44803908D01*
X41870775Y-44805391D01*
X41889562Y-44835544D01*
X41909209Y-44872375D01*
X41913108Y-44880511D01*
X41916644Y-44888940D01*
X41919770Y-44899059D01*
X41922514Y-44912260D01*
X41924908Y-44929938D01*
X41926981Y-44953484D01*
X41928765Y-44984293D01*
X41930288Y-45023757D01*
X41931581Y-45073269D01*
X41932674Y-45134223D01*
X41933597Y-45208011D01*
X41934381Y-45296028D01*
X41935055Y-45399665D01*
X41935650Y-45520316D01*
X41936195Y-45659374D01*
X41936721Y-45818232D01*
X41937255Y-45997089D01*
X41937794Y-46182207D01*
X41938228Y-46346145D01*
X41938491Y-46490303D01*
X41938516Y-46616079D01*
X41938235Y-46724871D01*
X41937581Y-46818077D01*
X41936486Y-46897097D01*
X41934882Y-46963328D01*
X41932703Y-47018170D01*
X41929881Y-47063021D01*
X41926349Y-47099278D01*
X41922039Y-47128341D01*
X41916883Y-47151609D01*
X41910815Y-47170479D01*
X41903767Y-47186351D01*
X41895671Y-47200622D01*
X41886460Y-47214691D01*
X41877960Y-47227158D01*
X41860824Y-47253452D01*
X41850678Y-47271037D01*
X41849489Y-47274257D01*
X41860396Y-47275334D01*
X41891589Y-47276335D01*
X41940777Y-47277235D01*
X42005667Y-47278010D01*
X42083970Y-47278637D01*
X42173393Y-47279091D01*
X42271644Y-47279349D01*
X42340555Y-47279400D01*
X42445548Y-47279180D01*
X42542390Y-47278548D01*
X42628893Y-47277549D01*
X42702868Y-47276227D01*
X42762126Y-47274626D01*
X42804480Y-47272791D01*
X42827740Y-47270765D01*
X42831622Y-47269493D01*
X42823924Y-47254591D01*
X42815926Y-47246560D01*
X42802754Y-47229434D01*
X42785515Y-47199183D01*
X42773593Y-47174622D01*
X42746955Y-47115711D01*
X42743880Y-45938845D01*
X42740805Y-44761978D01*
X42295147Y-44761978D01*
X42197330Y-44762142D01*
X42106936Y-44762611D01*
X42026370Y-44763347D01*
X41958038Y-44764316D01*
X41904344Y-44765480D01*
X41867695Y-44766803D01*
X41850496Y-44768249D01*
X41849489Y-44768702D01*
X40838483Y-44768702D01*
X40853730Y-44749722D01*
X40927910Y-44657537D01*
X40999931Y-44568204D01*
X41068431Y-44483424D01*
X41132045Y-44404898D01*
X41189412Y-44334326D01*
X41239167Y-44273409D01*
X41279948Y-44223847D01*
X41297112Y-44203178D01*
X41383404Y-44102516D01*
X41460003Y-44019259D01*
X41528817Y-43951438D01*
X41591752Y-43897089D01*
X41601133Y-43889722D01*
X41640644Y-43859117D01*
X40508884Y-43858867D01*
X40514173Y-43906844D01*
X40510870Y-43964188D01*
X40489339Y-44032463D01*
X40449365Y-44112212D01*
X40404057Y-44184495D01*
X40387839Y-44207140D01*
X40359786Y-44244696D01*
X40321570Y-44295021D01*
X40274863Y-44355973D01*
X40221339Y-44425411D01*
X40162669Y-44501194D01*
X40100525Y-44581180D01*
X40036579Y-44663228D01*
X39972505Y-44745196D01*
X39909973Y-44824943D01*
X39850657Y-44900327D01*
X39796229Y-44969207D01*
X39748361Y-45029442D01*
X39708725Y-45078889D01*
X39678994Y-45115408D01*
X39660839Y-45136858D01*
X39657780Y-45140156D01*
X39654921Y-45132149D01*
X39652707Y-45101855D01*
X39651143Y-45049556D01*
X39650233Y-44975531D01*
X39649980Y-44880063D01*
X39650387Y-44763434D01*
X39651296Y-44643445D01*
X39652618Y-44511333D01*
X39654143Y-44399594D01*
X39656119Y-44306025D01*
X39658794Y-44228419D01*
X39662418Y-44164574D01*
X39667239Y-44112283D01*
X39673506Y-44069344D01*
X39681468Y-44033551D01*
X39691373Y-44002700D01*
X39703469Y-43974586D01*
X39718007Y-43947005D01*
X39732689Y-43921966D01*
X39770686Y-43858867D01*
X38710803Y-43858867D01*
X38407966Y-43858867D01*
X38407999Y-43852617D01*
X38408805Y-43750544D01*
X38409830Y-43661633D01*
X38411100Y-43584941D01*
X38412640Y-43519527D01*
X38414476Y-43464449D01*
X38416633Y-43418765D01*
X38419137Y-43381534D01*
X38422013Y-43351813D01*
X38425287Y-43328662D01*
X38428985Y-43311139D01*
X38433131Y-43298301D01*
X38437753Y-43289208D01*
X38442874Y-43282918D01*
X38448522Y-43278488D01*
X38454721Y-43274978D01*
X38461496Y-43271445D01*
X38467492Y-43267876D01*
X38472725Y-43265300D01*
X38480901Y-43262972D01*
X38493114Y-43260878D01*
X38510459Y-43259007D01*
X38534031Y-43257347D01*
X38564923Y-43255884D01*
X38604232Y-43254608D01*
X38653050Y-43253504D01*
X38712473Y-43252561D01*
X38783596Y-43251767D01*
X38867512Y-43251109D01*
X38965317Y-43250575D01*
X39078106Y-43250153D01*
X39206971Y-43249829D01*
X39353009Y-43249592D01*
X39517314Y-43249430D01*
X39700980Y-43249330D01*
X39905103Y-43249280D01*
X40116247Y-43249267D01*
X41736600Y-43249267D01*
X41736600Y-43346054D01*
X41736600Y-43346054D01*
G37*
X41736600Y-43346054D02*
X41747465Y-43459993D01*
X41779082Y-43567616D01*
X41829985Y-43666615D01*
X41898707Y-43754684D01*
X41983781Y-43829516D01*
X42080768Y-43887384D01*
X42187036Y-43927005D01*
X42294050Y-43945573D01*
X42399700Y-43944434D01*
X42501875Y-43924930D01*
X42598466Y-43888406D01*
X42687362Y-43836205D01*
X42766454Y-43769673D01*
X42833631Y-43690152D01*
X42886783Y-43598987D01*
X42923801Y-43497523D01*
X42942573Y-43387102D01*
X42944511Y-43337206D01*
X42944511Y-43249267D01*
X42996440Y-43249267D01*
X43032747Y-43252111D01*
X43059645Y-43263911D01*
X43086751Y-43287649D01*
X43125133Y-43326031D01*
X43125133Y-45517602D01*
X43125124Y-45779739D01*
X43125092Y-46020241D01*
X43125028Y-46240048D01*
X43124924Y-46440101D01*
X43124773Y-46621344D01*
X43124566Y-46784716D01*
X43124294Y-46931160D01*
X43123950Y-47061617D01*
X43123526Y-47177029D01*
X43123013Y-47278338D01*
X43122403Y-47366484D01*
X43121688Y-47442410D01*
X43120860Y-47507057D01*
X43119911Y-47561367D01*
X43118833Y-47606280D01*
X43117617Y-47642740D01*
X43116255Y-47671687D01*
X43114739Y-47694063D01*
X43113062Y-47710809D01*
X43111214Y-47722868D01*
X43109187Y-47731180D01*
X43106975Y-47736687D01*
X43105892Y-47738537D01*
X43101729Y-47745549D01*
X43098195Y-47751996D01*
X43094365Y-47757900D01*
X43089318Y-47763286D01*
X43082129Y-47768178D01*
X43071877Y-47772598D01*
X43057636Y-47776572D01*
X43038486Y-47780121D01*
X43013501Y-47783270D01*
X42981760Y-47786042D01*
X42942338Y-47788461D01*
X42894314Y-47790551D01*
X42836763Y-47792335D01*
X42768763Y-47793837D01*
X42689390Y-47795080D01*
X42597721Y-47796089D01*
X42492834Y-47796885D01*
X42373804Y-47797494D01*
X42239710Y-47797939D01*
X42089627Y-47798243D01*
X41922633Y-47798430D01*
X41737804Y-47798524D01*
X41534217Y-47798548D01*
X41310950Y-47798525D01*
X41067078Y-47798480D01*
X40801679Y-47798437D01*
X40763296Y-47798432D01*
X40496318Y-47798389D01*
X40250998Y-47798318D01*
X40026417Y-47798213D01*
X39821655Y-47798066D01*
X39635794Y-47797869D01*
X39467912Y-47797616D01*
X39317092Y-47797300D01*
X39182413Y-47796913D01*
X39062956Y-47796447D01*
X38957801Y-47795897D01*
X38866029Y-47795253D01*
X38786721Y-47794511D01*
X38718957Y-47793661D01*
X38661818Y-47792697D01*
X38614383Y-47791611D01*
X38575734Y-47790397D01*
X38544951Y-47789047D01*
X38521115Y-47787555D01*
X38503306Y-47785911D01*
X38490605Y-47784111D01*
X38482092Y-47782145D01*
X38477734Y-47780477D01*
X38469272Y-47776906D01*
X38461503Y-47774270D01*
X38454398Y-47771634D01*
X38447927Y-47768062D01*
X38442061Y-47762621D01*
X38436771Y-47754375D01*
X38432026Y-47742390D01*
X38427798Y-47725731D01*
X38424057Y-47703463D01*
X38420773Y-47674652D01*
X38417917Y-47638363D01*
X38415460Y-47593661D01*
X38413371Y-47539611D01*
X38411622Y-47475279D01*
X38410183Y-47399730D01*
X38409024Y-47312030D01*
X38408117Y-47211243D01*
X38407431Y-47096434D01*
X38406937Y-46966670D01*
X38406605Y-46821015D01*
X38406407Y-46658535D01*
X38406313Y-46478295D01*
X38406292Y-46279360D01*
X38406315Y-46060796D01*
X38406354Y-45821668D01*
X38406378Y-45561040D01*
X38406378Y-45518889D01*
X38406364Y-45255992D01*
X38406339Y-45014732D01*
X38406329Y-44794165D01*
X38406358Y-44593352D01*
X38406452Y-44411349D01*
X38406638Y-44247216D01*
X38406941Y-44100011D01*
X38407386Y-43968792D01*
X38407966Y-43858867D01*
X38710803Y-43858867D01*
X38750593Y-43916711D01*
X38761764Y-43932479D01*
X38771834Y-43946441D01*
X38780862Y-43959784D01*
X38788903Y-43973693D01*
X38796014Y-43989356D01*
X38802253Y-44007958D01*
X38807675Y-44030686D01*
X38812338Y-44058727D01*
X38816299Y-44093267D01*
X38819615Y-44135492D01*
X38822341Y-44186589D01*
X38824536Y-44247744D01*
X38826255Y-44320144D01*
X38827556Y-44404975D01*
X38828495Y-44503422D01*
X38829130Y-44616674D01*
X38829516Y-44745916D01*
X38829712Y-44892334D01*
X38829773Y-45057116D01*
X38829757Y-45241447D01*
X38829720Y-45446513D01*
X38829711Y-45569133D01*
X38829735Y-45786082D01*
X38829769Y-45981642D01*
X38829757Y-46156999D01*
X38829642Y-46313341D01*
X38829370Y-46451857D01*
X38828882Y-46573734D01*
X38828124Y-46680160D01*
X38827038Y-46772322D01*
X38825569Y-46851409D01*
X38823660Y-46918608D01*
X38821256Y-46975107D01*
X38818299Y-47022093D01*
X38814734Y-47060755D01*
X38810505Y-47092280D01*
X38805554Y-47117855D01*
X38799827Y-47138670D01*
X38793267Y-47155911D01*
X38785817Y-47170765D01*
X38777421Y-47184422D01*
X38768024Y-47198069D01*
X38757568Y-47212893D01*
X38751477Y-47221783D01*
X38712704Y-47279400D01*
X39244268Y-47279400D01*
X39367517Y-47279365D01*
X39470013Y-47279215D01*
X39553580Y-47278878D01*
X39620044Y-47278286D01*
X39671229Y-47277367D01*
X39708959Y-47276051D01*
X39735060Y-47274269D01*
X39751356Y-47271951D01*
X39759672Y-47269026D01*
X39761832Y-47265424D01*
X39759661Y-47261075D01*
X39758465Y-47259645D01*
X39733315Y-47222573D01*
X39707417Y-47169772D01*
X39683808Y-47107770D01*
X39675539Y-47081357D01*
X39670922Y-47063416D01*
X39667021Y-47042355D01*
X39663752Y-47016089D01*
X39661034Y-46982532D01*
X39658785Y-46939599D01*
X39656923Y-46885204D01*
X39655364Y-46817262D01*
X39654028Y-46733688D01*
X39652831Y-46632395D01*
X39651692Y-46511300D01*
X39651315Y-46466600D01*
X39650298Y-46341449D01*
X39649540Y-46237082D01*
X39649097Y-46151707D01*
X39649030Y-46083533D01*
X39649395Y-46030765D01*
X39650252Y-45991614D01*
X39651659Y-45964285D01*
X39653675Y-45946986D01*
X39656357Y-45937926D01*
X39659764Y-45935312D01*
X39663956Y-45937351D01*
X39668429Y-45941667D01*
X39678784Y-45954602D01*
X39700842Y-45983676D01*
X39733043Y-46026759D01*
X39773826Y-46081718D01*
X39821630Y-46146423D01*
X39874895Y-46218742D01*
X39932060Y-46296544D01*
X39991563Y-46377698D01*
X40051845Y-46460072D01*
X40111345Y-46541536D01*
X40168502Y-46619957D01*
X40221755Y-46693204D01*
X40269543Y-46759147D01*
X40310307Y-46815654D01*
X40342484Y-46860593D01*
X40364515Y-46891834D01*
X40369083Y-46898466D01*
X40392004Y-46935369D01*
X40418812Y-46983359D01*
X40444211Y-47032897D01*
X40447432Y-47039577D01*
X40469110Y-47087772D01*
X40481696Y-47125334D01*
X40487426Y-47161160D01*
X40488544Y-47203200D01*
X40487910Y-47279400D01*
X41642349Y-47279400D01*
X41551185Y-47185669D01*
X41504388Y-47135775D01*
X41454101Y-47079295D01*
X41408056Y-47025026D01*
X41387631Y-46999673D01*
X41357193Y-46960128D01*
X41317138Y-46906916D01*
X41268639Y-46841667D01*
X41212865Y-46766011D01*
X41150989Y-46681577D01*
X41084181Y-46589994D01*
X41013613Y-46492892D01*
X40940455Y-46391901D01*
X40865879Y-46288650D01*
X40791056Y-46184768D01*
X40717157Y-46081885D01*
X40645354Y-45981631D01*
X40576816Y-45885636D01*
X40512716Y-45795527D01*
X40454225Y-45712936D01*
X40402514Y-45639492D01*
X40358753Y-45576824D01*
X40324115Y-45526561D01*
X40299770Y-45490334D01*
X40286889Y-45469771D01*
X40285131Y-45465668D01*
X40293090Y-45454342D01*
X40313885Y-45427162D01*
X40346153Y-45385829D01*
X40388530Y-45332044D01*
X40439653Y-45267506D01*
X40498159Y-45193918D01*
X40562686Y-45112978D01*
X40631869Y-45026388D01*
X40704347Y-44935848D01*
X40778754Y-44843060D01*
X40838483Y-44768702D01*
X41849489Y-44768702D01*
X41855398Y-44781659D01*
X41869728Y-44803908D01*
X41870775Y-44805391D01*
X41889562Y-44835544D01*
X41909209Y-44872375D01*
X41913108Y-44880511D01*
X41916644Y-44888940D01*
X41919770Y-44899059D01*
X41922514Y-44912260D01*
X41924908Y-44929938D01*
X41926981Y-44953484D01*
X41928765Y-44984293D01*
X41930288Y-45023757D01*
X41931581Y-45073269D01*
X41932674Y-45134223D01*
X41933597Y-45208011D01*
X41934381Y-45296028D01*
X41935055Y-45399665D01*
X41935650Y-45520316D01*
X41936195Y-45659374D01*
X41936721Y-45818232D01*
X41937255Y-45997089D01*
X41937794Y-46182207D01*
X41938228Y-46346145D01*
X41938491Y-46490303D01*
X41938516Y-46616079D01*
X41938235Y-46724871D01*
X41937581Y-46818077D01*
X41936486Y-46897097D01*
X41934882Y-46963328D01*
X41932703Y-47018170D01*
X41929881Y-47063021D01*
X41926349Y-47099278D01*
X41922039Y-47128341D01*
X41916883Y-47151609D01*
X41910815Y-47170479D01*
X41903767Y-47186351D01*
X41895671Y-47200622D01*
X41886460Y-47214691D01*
X41877960Y-47227158D01*
X41860824Y-47253452D01*
X41850678Y-47271037D01*
X41849489Y-47274257D01*
X41860396Y-47275334D01*
X41891589Y-47276335D01*
X41940777Y-47277235D01*
X42005667Y-47278010D01*
X42083970Y-47278637D01*
X42173393Y-47279091D01*
X42271644Y-47279349D01*
X42340555Y-47279400D01*
X42445548Y-47279180D01*
X42542390Y-47278548D01*
X42628893Y-47277549D01*
X42702868Y-47276227D01*
X42762126Y-47274626D01*
X42804480Y-47272791D01*
X42827740Y-47270765D01*
X42831622Y-47269493D01*
X42823924Y-47254591D01*
X42815926Y-47246560D01*
X42802754Y-47229434D01*
X42785515Y-47199183D01*
X42773593Y-47174622D01*
X42746955Y-47115711D01*
X42743880Y-45938845D01*
X42740805Y-44761978D01*
X42295147Y-44761978D01*
X42197330Y-44762142D01*
X42106936Y-44762611D01*
X42026370Y-44763347D01*
X41958038Y-44764316D01*
X41904344Y-44765480D01*
X41867695Y-44766803D01*
X41850496Y-44768249D01*
X41849489Y-44768702D01*
X40838483Y-44768702D01*
X40853730Y-44749722D01*
X40927910Y-44657537D01*
X40999931Y-44568204D01*
X41068431Y-44483424D01*
X41132045Y-44404898D01*
X41189412Y-44334326D01*
X41239167Y-44273409D01*
X41279948Y-44223847D01*
X41297112Y-44203178D01*
X41383404Y-44102516D01*
X41460003Y-44019259D01*
X41528817Y-43951438D01*
X41591752Y-43897089D01*
X41601133Y-43889722D01*
X41640644Y-43859117D01*
X40508884Y-43858867D01*
X40514173Y-43906844D01*
X40510870Y-43964188D01*
X40489339Y-44032463D01*
X40449365Y-44112212D01*
X40404057Y-44184495D01*
X40387839Y-44207140D01*
X40359786Y-44244696D01*
X40321570Y-44295021D01*
X40274863Y-44355973D01*
X40221339Y-44425411D01*
X40162669Y-44501194D01*
X40100525Y-44581180D01*
X40036579Y-44663228D01*
X39972505Y-44745196D01*
X39909973Y-44824943D01*
X39850657Y-44900327D01*
X39796229Y-44969207D01*
X39748361Y-45029442D01*
X39708725Y-45078889D01*
X39678994Y-45115408D01*
X39660839Y-45136858D01*
X39657780Y-45140156D01*
X39654921Y-45132149D01*
X39652707Y-45101855D01*
X39651143Y-45049556D01*
X39650233Y-44975531D01*
X39649980Y-44880063D01*
X39650387Y-44763434D01*
X39651296Y-44643445D01*
X39652618Y-44511333D01*
X39654143Y-44399594D01*
X39656119Y-44306025D01*
X39658794Y-44228419D01*
X39662418Y-44164574D01*
X39667239Y-44112283D01*
X39673506Y-44069344D01*
X39681468Y-44033551D01*
X39691373Y-44002700D01*
X39703469Y-43974586D01*
X39718007Y-43947005D01*
X39732689Y-43921966D01*
X39770686Y-43858867D01*
X38710803Y-43858867D01*
X38407966Y-43858867D01*
X38407999Y-43852617D01*
X38408805Y-43750544D01*
X38409830Y-43661633D01*
X38411100Y-43584941D01*
X38412640Y-43519527D01*
X38414476Y-43464449D01*
X38416633Y-43418765D01*
X38419137Y-43381534D01*
X38422013Y-43351813D01*
X38425287Y-43328662D01*
X38428985Y-43311139D01*
X38433131Y-43298301D01*
X38437753Y-43289208D01*
X38442874Y-43282918D01*
X38448522Y-43278488D01*
X38454721Y-43274978D01*
X38461496Y-43271445D01*
X38467492Y-43267876D01*
X38472725Y-43265300D01*
X38480901Y-43262972D01*
X38493114Y-43260878D01*
X38510459Y-43259007D01*
X38534031Y-43257347D01*
X38564923Y-43255884D01*
X38604232Y-43254608D01*
X38653050Y-43253504D01*
X38712473Y-43252561D01*
X38783596Y-43251767D01*
X38867512Y-43251109D01*
X38965317Y-43250575D01*
X39078106Y-43250153D01*
X39206971Y-43249829D01*
X39353009Y-43249592D01*
X39517314Y-43249430D01*
X39700980Y-43249330D01*
X39905103Y-43249280D01*
X40116247Y-43249267D01*
X41736600Y-43249267D01*
X41736600Y-43346054D01*
G36*
X50911823Y-48131533D02*
X50943202Y-48153776D01*
X50970911Y-48181485D01*
X50970911Y-48490920D01*
X50970838Y-48582799D01*
X50970495Y-48654840D01*
X50969692Y-48709780D01*
X50968241Y-48750360D01*
X50965952Y-48779317D01*
X50962636Y-48799391D01*
X50958105Y-48813321D01*
X50952169Y-48823845D01*
X50947514Y-48830100D01*
X50916783Y-48854673D01*
X50881496Y-48857341D01*
X50849245Y-48842271D01*
X50838588Y-48833374D01*
X50831464Y-48821557D01*
X50827167Y-48802526D01*
X50824991Y-48771992D01*
X50824228Y-48725662D01*
X50824155Y-48689871D01*
X50824155Y-48555045D01*
X50327444Y-48555045D01*
X50327444Y-48677700D01*
X50326931Y-48733787D01*
X50324876Y-48772333D01*
X50320508Y-48798361D01*
X50313056Y-48816897D01*
X50304047Y-48830100D01*
X50273144Y-48854604D01*
X50238196Y-48857506D01*
X50204738Y-48840089D01*
X50195604Y-48830959D01*
X50189152Y-48818855D01*
X50184897Y-48800001D01*
X50182352Y-48770620D01*
X50181029Y-48726937D01*
X50180443Y-48665175D01*
X50180375Y-48651000D01*
X50179891Y-48534631D01*
X50179641Y-48438727D01*
X50179723Y-48361177D01*
X50180231Y-48299869D01*
X50181262Y-48252690D01*
X50182913Y-48217530D01*
X50185279Y-48192276D01*
X50188457Y-48174817D01*
X50192544Y-48163041D01*
X50197634Y-48154835D01*
X50203266Y-48148645D01*
X50235128Y-48128844D01*
X50268357Y-48131533D01*
X50299735Y-48153776D01*
X50312433Y-48168126D01*
X50320526Y-48183978D01*
X50325042Y-48206554D01*
X50327006Y-48241078D01*
X50327444Y-48292776D01*
X50327444Y-48408289D01*
X50824155Y-48408289D01*
X50824155Y-48289756D01*
X50824662Y-48235148D01*
X50826698Y-48198275D01*
X50831035Y-48174307D01*
X50838447Y-48158415D01*
X50846733Y-48148645D01*
X50878594Y-48128844D01*
X50911823Y-48131533D01*
X50911823Y-48131533D01*
G37*
X50911823Y-48131533D02*
X50943202Y-48153776D01*
X50970911Y-48181485D01*
X50970911Y-48490920D01*
X50970838Y-48582799D01*
X50970495Y-48654840D01*
X50969692Y-48709780D01*
X50968241Y-48750360D01*
X50965952Y-48779317D01*
X50962636Y-48799391D01*
X50958105Y-48813321D01*
X50952169Y-48823845D01*
X50947514Y-48830100D01*
X50916783Y-48854673D01*
X50881496Y-48857341D01*
X50849245Y-48842271D01*
X50838588Y-48833374D01*
X50831464Y-48821557D01*
X50827167Y-48802526D01*
X50824991Y-48771992D01*
X50824228Y-48725662D01*
X50824155Y-48689871D01*
X50824155Y-48555045D01*
X50327444Y-48555045D01*
X50327444Y-48677700D01*
X50326931Y-48733787D01*
X50324876Y-48772333D01*
X50320508Y-48798361D01*
X50313056Y-48816897D01*
X50304047Y-48830100D01*
X50273144Y-48854604D01*
X50238196Y-48857506D01*
X50204738Y-48840089D01*
X50195604Y-48830959D01*
X50189152Y-48818855D01*
X50184897Y-48800001D01*
X50182352Y-48770620D01*
X50181029Y-48726937D01*
X50180443Y-48665175D01*
X50180375Y-48651000D01*
X50179891Y-48534631D01*
X50179641Y-48438727D01*
X50179723Y-48361177D01*
X50180231Y-48299869D01*
X50181262Y-48252690D01*
X50182913Y-48217530D01*
X50185279Y-48192276D01*
X50188457Y-48174817D01*
X50192544Y-48163041D01*
X50197634Y-48154835D01*
X50203266Y-48148645D01*
X50235128Y-48128844D01*
X50268357Y-48131533D01*
X50299735Y-48153776D01*
X50312433Y-48168126D01*
X50320526Y-48183978D01*
X50325042Y-48206554D01*
X50327006Y-48241078D01*
X50327444Y-48292776D01*
X50327444Y-48408289D01*
X50824155Y-48408289D01*
X50824155Y-48289756D01*
X50824662Y-48235148D01*
X50826698Y-48198275D01*
X50831035Y-48174307D01*
X50838447Y-48158415D01*
X50846733Y-48148645D01*
X50878594Y-48128844D01*
X50911823Y-48131533D01*
G36*
X49646065Y-48126163D02*
X49724772Y-48126542D01*
X49785863Y-48127333D01*
X49831817Y-48128670D01*
X49865114Y-48130683D01*
X49888236Y-48133506D01*
X49903662Y-48137269D01*
X49913871Y-48142105D01*
X49918813Y-48145822D01*
X49944457Y-48178358D01*
X49947559Y-48212138D01*
X49931711Y-48242826D01*
X49921348Y-48255089D01*
X49910196Y-48263450D01*
X49894035Y-48268657D01*
X49868642Y-48271457D01*
X49829798Y-48272596D01*
X49773280Y-48272821D01*
X49762180Y-48272822D01*
X49616244Y-48272822D01*
X49616244Y-48543756D01*
X49616148Y-48629154D01*
X49615711Y-48694864D01*
X49614712Y-48743774D01*
X49612928Y-48778773D01*
X49610137Y-48802749D01*
X49606117Y-48818593D01*
X49600645Y-48829191D01*
X49593666Y-48837267D01*
X49560734Y-48857112D01*
X49526354Y-48855548D01*
X49495176Y-48832906D01*
X49492886Y-48830100D01*
X49485429Y-48819492D01*
X49479747Y-48807081D01*
X49475601Y-48789850D01*
X49472750Y-48764784D01*
X49470954Y-48728867D01*
X49469972Y-48679083D01*
X49469564Y-48612417D01*
X49469489Y-48536589D01*
X49469489Y-48272822D01*
X49330127Y-48272822D01*
X49270322Y-48272418D01*
X49228918Y-48270840D01*
X49201748Y-48267547D01*
X49184646Y-48261992D01*
X49173443Y-48253631D01*
X49172083Y-48252178D01*
X49155725Y-48218939D01*
X49157172Y-48181362D01*
X49175978Y-48148645D01*
X49183250Y-48142298D01*
X49192627Y-48137266D01*
X49206609Y-48133396D01*
X49227696Y-48130537D01*
X49258389Y-48128535D01*
X49301189Y-48127239D01*
X49358595Y-48126498D01*
X49433110Y-48126158D01*
X49527233Y-48126068D01*
X49547260Y-48126067D01*
X49646065Y-48126163D01*
X49646065Y-48126163D01*
G37*
X49646065Y-48126163D02*
X49724772Y-48126542D01*
X49785863Y-48127333D01*
X49831817Y-48128670D01*
X49865114Y-48130683D01*
X49888236Y-48133506D01*
X49903662Y-48137269D01*
X49913871Y-48142105D01*
X49918813Y-48145822D01*
X49944457Y-48178358D01*
X49947559Y-48212138D01*
X49931711Y-48242826D01*
X49921348Y-48255089D01*
X49910196Y-48263450D01*
X49894035Y-48268657D01*
X49868642Y-48271457D01*
X49829798Y-48272596D01*
X49773280Y-48272821D01*
X49762180Y-48272822D01*
X49616244Y-48272822D01*
X49616244Y-48543756D01*
X49616148Y-48629154D01*
X49615711Y-48694864D01*
X49614712Y-48743774D01*
X49612928Y-48778773D01*
X49610137Y-48802749D01*
X49606117Y-48818593D01*
X49600645Y-48829191D01*
X49593666Y-48837267D01*
X49560734Y-48857112D01*
X49526354Y-48855548D01*
X49495176Y-48832906D01*
X49492886Y-48830100D01*
X49485429Y-48819492D01*
X49479747Y-48807081D01*
X49475601Y-48789850D01*
X49472750Y-48764784D01*
X49470954Y-48728867D01*
X49469972Y-48679083D01*
X49469564Y-48612417D01*
X49469489Y-48536589D01*
X49469489Y-48272822D01*
X49330127Y-48272822D01*
X49270322Y-48272418D01*
X49228918Y-48270840D01*
X49201748Y-48267547D01*
X49184646Y-48261992D01*
X49173443Y-48253631D01*
X49172083Y-48252178D01*
X49155725Y-48218939D01*
X49157172Y-48181362D01*
X49175978Y-48148645D01*
X49183250Y-48142298D01*
X49192627Y-48137266D01*
X49206609Y-48133396D01*
X49227696Y-48130537D01*
X49258389Y-48128535D01*
X49301189Y-48127239D01*
X49358595Y-48126498D01*
X49433110Y-48126158D01*
X49527233Y-48126068D01*
X49547260Y-48126067D01*
X49646065Y-48126163D01*
G36*
X48871614Y-48132877D02*
X48895327Y-48147647D01*
X48921978Y-48169227D01*
X48921978Y-48490773D01*
X48921893Y-48584830D01*
X48921529Y-48658932D01*
X48920724Y-48715704D01*
X48919313Y-48757768D01*
X48917133Y-48787748D01*
X48914021Y-48808267D01*
X48909814Y-48821949D01*
X48904348Y-48831416D01*
X48900472Y-48836082D01*
X48869034Y-48856575D01*
X48833233Y-48855739D01*
X48801873Y-48838264D01*
X48775222Y-48816684D01*
X48775222Y-48169227D01*
X48801873Y-48147647D01*
X48827594Y-48131949D01*
X48848600Y-48126067D01*
X48871614Y-48132877D01*
X48871614Y-48132877D01*
G37*
X48871614Y-48132877D02*
X48895327Y-48147647D01*
X48921978Y-48169227D01*
X48921978Y-48490773D01*
X48921893Y-48584830D01*
X48921529Y-48658932D01*
X48920724Y-48715704D01*
X48919313Y-48757768D01*
X48917133Y-48787748D01*
X48914021Y-48808267D01*
X48909814Y-48821949D01*
X48904348Y-48831416D01*
X48900472Y-48836082D01*
X48869034Y-48856575D01*
X48833233Y-48855739D01*
X48801873Y-48838264D01*
X48775222Y-48816684D01*
X48775222Y-48169227D01*
X48801873Y-48147647D01*
X48827594Y-48131949D01*
X48848600Y-48126067D01*
X48871614Y-48132877D01*
G36*
X48427665Y-48128034D02*
X48447255Y-48135035D01*
X48448010Y-48135377D01*
X48474613Y-48155678D01*
X48489270Y-48176561D01*
X48492138Y-48186352D01*
X48491996Y-48199361D01*
X48487961Y-48217895D01*
X48479146Y-48244257D01*
X48464669Y-48280752D01*
X48443645Y-48329687D01*
X48415188Y-48393365D01*
X48378415Y-48474093D01*
X48358175Y-48518216D01*
X48321625Y-48596985D01*
X48287315Y-48669423D01*
X48256552Y-48732880D01*
X48230648Y-48784708D01*
X48210910Y-48822259D01*
X48198650Y-48842884D01*
X48196224Y-48845733D01*
X48165183Y-48858302D01*
X48130121Y-48856619D01*
X48102000Y-48841332D01*
X48100854Y-48840089D01*
X48089668Y-48823154D01*
X48070904Y-48790170D01*
X48046875Y-48745380D01*
X48019897Y-48693032D01*
X48010201Y-48673742D01*
X47937014Y-48527150D01*
X47857240Y-48686393D01*
X47828767Y-48741415D01*
X47802350Y-48789132D01*
X47780148Y-48825893D01*
X47764319Y-48848044D01*
X47758954Y-48852741D01*
X47717257Y-48859102D01*
X47682849Y-48845733D01*
X47672728Y-48831446D01*
X47655214Y-48799692D01*
X47631735Y-48753597D01*
X47603720Y-48696285D01*
X47572599Y-48630880D01*
X47539799Y-48560507D01*
X47506750Y-48488291D01*
X47474881Y-48417355D01*
X47445619Y-48350825D01*
X47420395Y-48291826D01*
X47400636Y-48243481D01*
X47387772Y-48208915D01*
X47383231Y-48191253D01*
X47383277Y-48190613D01*
X47394326Y-48168388D01*
X47416410Y-48145753D01*
X47417710Y-48144768D01*
X47444853Y-48129425D01*
X47469958Y-48129574D01*
X47479368Y-48132466D01*
X47490834Y-48138718D01*
X47503010Y-48151014D01*
X47517357Y-48171908D01*
X47535336Y-48203949D01*
X47558407Y-48249688D01*
X47588030Y-48311677D01*
X47614745Y-48368898D01*
X47645480Y-48435226D01*
X47673021Y-48494874D01*
X47695938Y-48544725D01*
X47712798Y-48581664D01*
X47722173Y-48602573D01*
X47723540Y-48605845D01*
X47729689Y-48600497D01*
X47743822Y-48578109D01*
X47764057Y-48541946D01*
X47788515Y-48495277D01*
X47798248Y-48476022D01*
X47831217Y-48411004D01*
X47856643Y-48363654D01*
X47876612Y-48331219D01*
X47893210Y-48310946D01*
X47908524Y-48300082D01*
X47924640Y-48295875D01*
X47935143Y-48295400D01*
X47953670Y-48297042D01*
X47969904Y-48303831D01*
X47986035Y-48318566D01*
X48004251Y-48344044D01*
X48026739Y-48383061D01*
X48055689Y-48438414D01*
X48071662Y-48469903D01*
X48097570Y-48520087D01*
X48120167Y-48561704D01*
X48137458Y-48591242D01*
X48147450Y-48605189D01*
X48148809Y-48605770D01*
X48155261Y-48594793D01*
X48169708Y-48566290D01*
X48190703Y-48523244D01*
X48216797Y-48468638D01*
X48246546Y-48405454D01*
X48261180Y-48374071D01*
X48299250Y-48293078D01*
X48329905Y-48230756D01*
X48354737Y-48185071D01*
X48375337Y-48153989D01*
X48393298Y-48135478D01*
X48410210Y-48127504D01*
X48427665Y-48128034D01*
X48427665Y-48128034D01*
G37*
X48427665Y-48128034D02*
X48447255Y-48135035D01*
X48448010Y-48135377D01*
X48474613Y-48155678D01*
X48489270Y-48176561D01*
X48492138Y-48186352D01*
X48491996Y-48199361D01*
X48487961Y-48217895D01*
X48479146Y-48244257D01*
X48464669Y-48280752D01*
X48443645Y-48329687D01*
X48415188Y-48393365D01*
X48378415Y-48474093D01*
X48358175Y-48518216D01*
X48321625Y-48596985D01*
X48287315Y-48669423D01*
X48256552Y-48732880D01*
X48230648Y-48784708D01*
X48210910Y-48822259D01*
X48198650Y-48842884D01*
X48196224Y-48845733D01*
X48165183Y-48858302D01*
X48130121Y-48856619D01*
X48102000Y-48841332D01*
X48100854Y-48840089D01*
X48089668Y-48823154D01*
X48070904Y-48790170D01*
X48046875Y-48745380D01*
X48019897Y-48693032D01*
X48010201Y-48673742D01*
X47937014Y-48527150D01*
X47857240Y-48686393D01*
X47828767Y-48741415D01*
X47802350Y-48789132D01*
X47780148Y-48825893D01*
X47764319Y-48848044D01*
X47758954Y-48852741D01*
X47717257Y-48859102D01*
X47682849Y-48845733D01*
X47672728Y-48831446D01*
X47655214Y-48799692D01*
X47631735Y-48753597D01*
X47603720Y-48696285D01*
X47572599Y-48630880D01*
X47539799Y-48560507D01*
X47506750Y-48488291D01*
X47474881Y-48417355D01*
X47445619Y-48350825D01*
X47420395Y-48291826D01*
X47400636Y-48243481D01*
X47387772Y-48208915D01*
X47383231Y-48191253D01*
X47383277Y-48190613D01*
X47394326Y-48168388D01*
X47416410Y-48145753D01*
X47417710Y-48144768D01*
X47444853Y-48129425D01*
X47469958Y-48129574D01*
X47479368Y-48132466D01*
X47490834Y-48138718D01*
X47503010Y-48151014D01*
X47517357Y-48171908D01*
X47535336Y-48203949D01*
X47558407Y-48249688D01*
X47588030Y-48311677D01*
X47614745Y-48368898D01*
X47645480Y-48435226D01*
X47673021Y-48494874D01*
X47695938Y-48544725D01*
X47712798Y-48581664D01*
X47722173Y-48602573D01*
X47723540Y-48605845D01*
X47729689Y-48600497D01*
X47743822Y-48578109D01*
X47764057Y-48541946D01*
X47788515Y-48495277D01*
X47798248Y-48476022D01*
X47831217Y-48411004D01*
X47856643Y-48363654D01*
X47876612Y-48331219D01*
X47893210Y-48310946D01*
X47908524Y-48300082D01*
X47924640Y-48295875D01*
X47935143Y-48295400D01*
X47953670Y-48297042D01*
X47969904Y-48303831D01*
X47986035Y-48318566D01*
X48004251Y-48344044D01*
X48026739Y-48383061D01*
X48055689Y-48438414D01*
X48071662Y-48469903D01*
X48097570Y-48520087D01*
X48120167Y-48561704D01*
X48137458Y-48591242D01*
X48147450Y-48605189D01*
X48148809Y-48605770D01*
X48155261Y-48594793D01*
X48169708Y-48566290D01*
X48190703Y-48523244D01*
X48216797Y-48468638D01*
X48246546Y-48405454D01*
X48261180Y-48374071D01*
X48299250Y-48293078D01*
X48329905Y-48230756D01*
X48354737Y-48185071D01*
X48375337Y-48153989D01*
X48393298Y-48135478D01*
X48410210Y-48127504D01*
X48427665Y-48128034D01*
G36*
X45701309Y-48126275D02*
X45830288Y-48130636D01*
X45939991Y-48143861D01*
X46032226Y-48166741D01*
X46108802Y-48200070D01*
X46171527Y-48244638D01*
X46222212Y-48301236D01*
X46262663Y-48370658D01*
X46263459Y-48372351D01*
X46287601Y-48434483D01*
X46296203Y-48489509D01*
X46289231Y-48544887D01*
X46266654Y-48608073D01*
X46262372Y-48617689D01*
X46233172Y-48673966D01*
X46200356Y-48717451D01*
X46158002Y-48754417D01*
X46100190Y-48791135D01*
X46096831Y-48793052D01*
X46046504Y-48817227D01*
X45989621Y-48835282D01*
X45922527Y-48847839D01*
X45841565Y-48855522D01*
X45743082Y-48858953D01*
X45708286Y-48859251D01*
X45542594Y-48859845D01*
X45519197Y-48830100D01*
X45512257Y-48820319D01*
X45506842Y-48808897D01*
X45502765Y-48793095D01*
X45499837Y-48770175D01*
X45497867Y-48737396D01*
X45497225Y-48713089D01*
X45653844Y-48713089D01*
X45747726Y-48713089D01*
X45802664Y-48711483D01*
X45859060Y-48707255D01*
X45905345Y-48701292D01*
X45908139Y-48700790D01*
X45990348Y-48678736D01*
X46054114Y-48645600D01*
X46101452Y-48599847D01*
X46134382Y-48539939D01*
X46140108Y-48524061D01*
X46145721Y-48499333D01*
X46143291Y-48474902D01*
X46131467Y-48442400D01*
X46124340Y-48426434D01*
X46101000Y-48384006D01*
X46072880Y-48354240D01*
X46041940Y-48333511D01*
X45979966Y-48306537D01*
X45900651Y-48286998D01*
X45808253Y-48275746D01*
X45741333Y-48273270D01*
X45653844Y-48272822D01*
X45653844Y-48713089D01*
X45497225Y-48713089D01*
X45496668Y-48692021D01*
X45496050Y-48631311D01*
X45495825Y-48552526D01*
X45495800Y-48490920D01*
X45495800Y-48181485D01*
X45523509Y-48153776D01*
X45535806Y-48142544D01*
X45549103Y-48134853D01*
X45567672Y-48130040D01*
X45595786Y-48127446D01*
X45637717Y-48126410D01*
X45697737Y-48126270D01*
X45701309Y-48126275D01*
X45701309Y-48126275D01*
G37*
X45701309Y-48126275D02*
X45830288Y-48130636D01*
X45939991Y-48143861D01*
X46032226Y-48166741D01*
X46108802Y-48200070D01*
X46171527Y-48244638D01*
X46222212Y-48301236D01*
X46262663Y-48370658D01*
X46263459Y-48372351D01*
X46287601Y-48434483D01*
X46296203Y-48489509D01*
X46289231Y-48544887D01*
X46266654Y-48608073D01*
X46262372Y-48617689D01*
X46233172Y-48673966D01*
X46200356Y-48717451D01*
X46158002Y-48754417D01*
X46100190Y-48791135D01*
X46096831Y-48793052D01*
X46046504Y-48817227D01*
X45989621Y-48835282D01*
X45922527Y-48847839D01*
X45841565Y-48855522D01*
X45743082Y-48858953D01*
X45708286Y-48859251D01*
X45542594Y-48859845D01*
X45519197Y-48830100D01*
X45512257Y-48820319D01*
X45506842Y-48808897D01*
X45502765Y-48793095D01*
X45499837Y-48770175D01*
X45497867Y-48737396D01*
X45497225Y-48713089D01*
X45653844Y-48713089D01*
X45747726Y-48713089D01*
X45802664Y-48711483D01*
X45859060Y-48707255D01*
X45905345Y-48701292D01*
X45908139Y-48700790D01*
X45990348Y-48678736D01*
X46054114Y-48645600D01*
X46101452Y-48599847D01*
X46134382Y-48539939D01*
X46140108Y-48524061D01*
X46145721Y-48499333D01*
X46143291Y-48474902D01*
X46131467Y-48442400D01*
X46124340Y-48426434D01*
X46101000Y-48384006D01*
X46072880Y-48354240D01*
X46041940Y-48333511D01*
X45979966Y-48306537D01*
X45900651Y-48286998D01*
X45808253Y-48275746D01*
X45741333Y-48273270D01*
X45653844Y-48272822D01*
X45653844Y-48713089D01*
X45497225Y-48713089D01*
X45496668Y-48692021D01*
X45496050Y-48631311D01*
X45495825Y-48552526D01*
X45495800Y-48490920D01*
X45495800Y-48181485D01*
X45523509Y-48153776D01*
X45535806Y-48142544D01*
X45549103Y-48134853D01*
X45567672Y-48130040D01*
X45595786Y-48127446D01*
X45637717Y-48126410D01*
X45697737Y-48126270D01*
X45701309Y-48126275D01*
G36*
X44913343Y-48126260D02*
X44989701Y-48127174D01*
X45048217Y-48129311D01*
X45091255Y-48133175D01*
X45121183Y-48139267D01*
X45140368Y-48148090D01*
X45151176Y-48160146D01*
X45155973Y-48175939D01*
X45157127Y-48195970D01*
X45157133Y-48198335D01*
X45156131Y-48220992D01*
X45151396Y-48238503D01*
X45140333Y-48251574D01*
X45120348Y-48260913D01*
X45088846Y-48267227D01*
X45043232Y-48271222D01*
X44980913Y-48273606D01*
X44899293Y-48275086D01*
X44874277Y-48275414D01*
X44632200Y-48278467D01*
X44628814Y-48343378D01*
X44625429Y-48408289D01*
X44793576Y-48408289D01*
X44859266Y-48408531D01*
X44906172Y-48409556D01*
X44938083Y-48411811D01*
X44958791Y-48415742D01*
X44972084Y-48421798D01*
X44981755Y-48430424D01*
X44981817Y-48430493D01*
X44999356Y-48464112D01*
X44998722Y-48500448D01*
X44980314Y-48531423D01*
X44976671Y-48534607D01*
X44963741Y-48542812D01*
X44946024Y-48548521D01*
X44919570Y-48552162D01*
X44880432Y-48554167D01*
X44824662Y-48554964D01*
X44788994Y-48555045D01*
X44626555Y-48555045D01*
X44626555Y-48713089D01*
X44873161Y-48713089D01*
X44954580Y-48713231D01*
X45016410Y-48713814D01*
X45061637Y-48715068D01*
X45093248Y-48717227D01*
X45114231Y-48720523D01*
X45127573Y-48725189D01*
X45136261Y-48731457D01*
X45138450Y-48733733D01*
X45154614Y-48765280D01*
X45155797Y-48801168D01*
X45142536Y-48832285D01*
X45132043Y-48842271D01*
X45121129Y-48847769D01*
X45104217Y-48852022D01*
X45078633Y-48855180D01*
X45041701Y-48857392D01*
X44990746Y-48858806D01*
X44923094Y-48859572D01*
X44836069Y-48859838D01*
X44816394Y-48859845D01*
X44727911Y-48859787D01*
X44659227Y-48859467D01*
X44607564Y-48858667D01*
X44570145Y-48857167D01*
X44544190Y-48854749D01*
X44526922Y-48851194D01*
X44515562Y-48846282D01*
X44507332Y-48839795D01*
X44502817Y-48835138D01*
X44496021Y-48826889D01*
X44490712Y-48816669D01*
X44486706Y-48801800D01*
X44483821Y-48779602D01*
X44481874Y-48747393D01*
X44480681Y-48702496D01*
X44480061Y-48642228D01*
X44479829Y-48563911D01*
X44479800Y-48497994D01*
X44479871Y-48405628D01*
X44480208Y-48333117D01*
X44480998Y-48277737D01*
X44482426Y-48236765D01*
X44484679Y-48207478D01*
X44487943Y-48187153D01*
X44492404Y-48173066D01*
X44498248Y-48162495D01*
X44503197Y-48155811D01*
X44526594Y-48126067D01*
X44816774Y-48126067D01*
X44913343Y-48126260D01*
X44913343Y-48126260D01*
G37*
X44913343Y-48126260D02*
X44989701Y-48127174D01*
X45048217Y-48129311D01*
X45091255Y-48133175D01*
X45121183Y-48139267D01*
X45140368Y-48148090D01*
X45151176Y-48160146D01*
X45155973Y-48175939D01*
X45157127Y-48195970D01*
X45157133Y-48198335D01*
X45156131Y-48220992D01*
X45151396Y-48238503D01*
X45140333Y-48251574D01*
X45120348Y-48260913D01*
X45088846Y-48267227D01*
X45043232Y-48271222D01*
X44980913Y-48273606D01*
X44899293Y-48275086D01*
X44874277Y-48275414D01*
X44632200Y-48278467D01*
X44628814Y-48343378D01*
X44625429Y-48408289D01*
X44793576Y-48408289D01*
X44859266Y-48408531D01*
X44906172Y-48409556D01*
X44938083Y-48411811D01*
X44958791Y-48415742D01*
X44972084Y-48421798D01*
X44981755Y-48430424D01*
X44981817Y-48430493D01*
X44999356Y-48464112D01*
X44998722Y-48500448D01*
X44980314Y-48531423D01*
X44976671Y-48534607D01*
X44963741Y-48542812D01*
X44946024Y-48548521D01*
X44919570Y-48552162D01*
X44880432Y-48554167D01*
X44824662Y-48554964D01*
X44788994Y-48555045D01*
X44626555Y-48555045D01*
X44626555Y-48713089D01*
X44873161Y-48713089D01*
X44954580Y-48713231D01*
X45016410Y-48713814D01*
X45061637Y-48715068D01*
X45093248Y-48717227D01*
X45114231Y-48720523D01*
X45127573Y-48725189D01*
X45136261Y-48731457D01*
X45138450Y-48733733D01*
X45154614Y-48765280D01*
X45155797Y-48801168D01*
X45142536Y-48832285D01*
X45132043Y-48842271D01*
X45121129Y-48847769D01*
X45104217Y-48852022D01*
X45078633Y-48855180D01*
X45041701Y-48857392D01*
X44990746Y-48858806D01*
X44923094Y-48859572D01*
X44836069Y-48859838D01*
X44816394Y-48859845D01*
X44727911Y-48859787D01*
X44659227Y-48859467D01*
X44607564Y-48858667D01*
X44570145Y-48857167D01*
X44544190Y-48854749D01*
X44526922Y-48851194D01*
X44515562Y-48846282D01*
X44507332Y-48839795D01*
X44502817Y-48835138D01*
X44496021Y-48826889D01*
X44490712Y-48816669D01*
X44486706Y-48801800D01*
X44483821Y-48779602D01*
X44481874Y-48747393D01*
X44480681Y-48702496D01*
X44480061Y-48642228D01*
X44479829Y-48563911D01*
X44479800Y-48497994D01*
X44479871Y-48405628D01*
X44480208Y-48333117D01*
X44480998Y-48277737D01*
X44482426Y-48236765D01*
X44484679Y-48207478D01*
X44487943Y-48187153D01*
X44492404Y-48173066D01*
X44498248Y-48162495D01*
X44503197Y-48155811D01*
X44526594Y-48126067D01*
X44816774Y-48126067D01*
X44913343Y-48126260D01*
G36*
X43382886Y-48130448D02*
X43406452Y-48144273D01*
X43437265Y-48166881D01*
X43476922Y-48199338D01*
X43527020Y-48242708D01*
X43589157Y-48298058D01*
X43664928Y-48366451D01*
X43751666Y-48445084D01*
X43932289Y-48608878D01*
X43937933Y-48389029D01*
X43939971Y-48313351D01*
X43941937Y-48256994D01*
X43944266Y-48216706D01*
X43947394Y-48189235D01*
X43951755Y-48171329D01*
X43957784Y-48159737D01*
X43965916Y-48151208D01*
X43970228Y-48147623D01*
X44004759Y-48128670D01*
X44037617Y-48131441D01*
X44063682Y-48147633D01*
X44090333Y-48169199D01*
X44093648Y-48484151D01*
X44094565Y-48576779D01*
X44095032Y-48649544D01*
X44094887Y-48705161D01*
X44093968Y-48746342D01*
X44092113Y-48775803D01*
X44089161Y-48796255D01*
X44084950Y-48810413D01*
X44079318Y-48820991D01*
X44073073Y-48829474D01*
X44059561Y-48845207D01*
X44046117Y-48855636D01*
X44030876Y-48859639D01*
X44011974Y-48856094D01*
X43987545Y-48843879D01*
X43955727Y-48821871D01*
X43914652Y-48788949D01*
X43862458Y-48743991D01*
X43797278Y-48685875D01*
X43723444Y-48619099D01*
X43458155Y-48378458D01*
X43452511Y-48597589D01*
X43450469Y-48673128D01*
X43448498Y-48729354D01*
X43446161Y-48769524D01*
X43443019Y-48796896D01*
X43438636Y-48814728D01*
X43432576Y-48826279D01*
X43424400Y-48834807D01*
X43420216Y-48838282D01*
X43383235Y-48857372D01*
X43348292Y-48854493D01*
X43317864Y-48830100D01*
X43310903Y-48820286D01*
X43305477Y-48808826D01*
X43301397Y-48792968D01*
X43298471Y-48769963D01*
X43296508Y-48737062D01*
X43295317Y-48691516D01*
X43294708Y-48630573D01*
X43294489Y-48551486D01*
X43294466Y-48492956D01*
X43294540Y-48401407D01*
X43294887Y-48329687D01*
X43295699Y-48275045D01*
X43297167Y-48234732D01*
X43299481Y-48205998D01*
X43302833Y-48186093D01*
X43307412Y-48172268D01*
X43313411Y-48161772D01*
X43317864Y-48155811D01*
X43329150Y-48141691D01*
X43339699Y-48131029D01*
X43351107Y-48124892D01*
X43364970Y-48124343D01*
X43382886Y-48130448D01*
X43382886Y-48130448D01*
G37*
X43382886Y-48130448D02*
X43406452Y-48144273D01*
X43437265Y-48166881D01*
X43476922Y-48199338D01*
X43527020Y-48242708D01*
X43589157Y-48298058D01*
X43664928Y-48366451D01*
X43751666Y-48445084D01*
X43932289Y-48608878D01*
X43937933Y-48389029D01*
X43939971Y-48313351D01*
X43941937Y-48256994D01*
X43944266Y-48216706D01*
X43947394Y-48189235D01*
X43951755Y-48171329D01*
X43957784Y-48159737D01*
X43965916Y-48151208D01*
X43970228Y-48147623D01*
X44004759Y-48128670D01*
X44037617Y-48131441D01*
X44063682Y-48147633D01*
X44090333Y-48169199D01*
X44093648Y-48484151D01*
X44094565Y-48576779D01*
X44095032Y-48649544D01*
X44094887Y-48705161D01*
X44093968Y-48746342D01*
X44092113Y-48775803D01*
X44089161Y-48796255D01*
X44084950Y-48810413D01*
X44079318Y-48820991D01*
X44073073Y-48829474D01*
X44059561Y-48845207D01*
X44046117Y-48855636D01*
X44030876Y-48859639D01*
X44011974Y-48856094D01*
X43987545Y-48843879D01*
X43955727Y-48821871D01*
X43914652Y-48788949D01*
X43862458Y-48743991D01*
X43797278Y-48685875D01*
X43723444Y-48619099D01*
X43458155Y-48378458D01*
X43452511Y-48597589D01*
X43450469Y-48673128D01*
X43448498Y-48729354D01*
X43446161Y-48769524D01*
X43443019Y-48796896D01*
X43438636Y-48814728D01*
X43432576Y-48826279D01*
X43424400Y-48834807D01*
X43420216Y-48838282D01*
X43383235Y-48857372D01*
X43348292Y-48854493D01*
X43317864Y-48830100D01*
X43310903Y-48820286D01*
X43305477Y-48808826D01*
X43301397Y-48792968D01*
X43298471Y-48769963D01*
X43296508Y-48737062D01*
X43295317Y-48691516D01*
X43294708Y-48630573D01*
X43294489Y-48551486D01*
X43294466Y-48492956D01*
X43294540Y-48401407D01*
X43294887Y-48329687D01*
X43295699Y-48275045D01*
X43297167Y-48234732D01*
X43299481Y-48205998D01*
X43302833Y-48186093D01*
X43307412Y-48172268D01*
X43313411Y-48161772D01*
X43317864Y-48155811D01*
X43329150Y-48141691D01*
X43339699Y-48131029D01*
X43351107Y-48124892D01*
X43364970Y-48124343D01*
X43382886Y-48130448D01*
G36*
X42732919Y-48131599D02*
X42801435Y-48143095D01*
X42854057Y-48160967D01*
X42888292Y-48184499D01*
X42897621Y-48197924D01*
X42907107Y-48229148D01*
X42900723Y-48257395D01*
X42880570Y-48284182D01*
X42849255Y-48296713D01*
X42803817Y-48295696D01*
X42768674Y-48288906D01*
X42690581Y-48275971D01*
X42610774Y-48274742D01*
X42521445Y-48285241D01*
X42496771Y-48289690D01*
X42413709Y-48313108D01*
X42348727Y-48347945D01*
X42302539Y-48393604D01*
X42275855Y-48449494D01*
X42270337Y-48478388D01*
X42273949Y-48537012D01*
X42297271Y-48588879D01*
X42338176Y-48632978D01*
X42394541Y-48668299D01*
X42464240Y-48693829D01*
X42545148Y-48708559D01*
X42635140Y-48711478D01*
X42732090Y-48701575D01*
X42737564Y-48700641D01*
X42776125Y-48693459D01*
X42797506Y-48686521D01*
X42806773Y-48676227D01*
X42808994Y-48658976D01*
X42809044Y-48649841D01*
X42809044Y-48611489D01*
X42740569Y-48611489D01*
X42680100Y-48607347D01*
X42638835Y-48594147D01*
X42614825Y-48570730D01*
X42606123Y-48535936D01*
X42606017Y-48531394D01*
X42611108Y-48501654D01*
X42628567Y-48480419D01*
X42661061Y-48466366D01*
X42711257Y-48458173D01*
X42759877Y-48455161D01*
X42830544Y-48453433D01*
X42881802Y-48456070D01*
X42916761Y-48465800D01*
X42938530Y-48485353D01*
X42950220Y-48517456D01*
X42954940Y-48564838D01*
X42955800Y-48627071D01*
X42954391Y-48696535D01*
X42950152Y-48743786D01*
X42943064Y-48769012D01*
X42941689Y-48770988D01*
X42902772Y-48802508D01*
X42845714Y-48827470D01*
X42774131Y-48845340D01*
X42691642Y-48855586D01*
X42601861Y-48857673D01*
X42508408Y-48851068D01*
X42453444Y-48842956D01*
X42367234Y-48818554D01*
X42287108Y-48778662D01*
X42220023Y-48726887D01*
X42209827Y-48716539D01*
X42176698Y-48673035D01*
X42146806Y-48619118D01*
X42123643Y-48562592D01*
X42110702Y-48511259D01*
X42109142Y-48491544D01*
X42115782Y-48450419D01*
X42133432Y-48399252D01*
X42158703Y-48345394D01*
X42188211Y-48296195D01*
X42214281Y-48263334D01*
X42275235Y-48214452D01*
X42354031Y-48175545D01*
X42447843Y-48147494D01*
X42553850Y-48131179D01*
X42651000Y-48127192D01*
X42732919Y-48131599D01*
X42732919Y-48131599D01*
G37*
X42732919Y-48131599D02*
X42801435Y-48143095D01*
X42854057Y-48160967D01*
X42888292Y-48184499D01*
X42897621Y-48197924D01*
X42907107Y-48229148D01*
X42900723Y-48257395D01*
X42880570Y-48284182D01*
X42849255Y-48296713D01*
X42803817Y-48295696D01*
X42768674Y-48288906D01*
X42690581Y-48275971D01*
X42610774Y-48274742D01*
X42521445Y-48285241D01*
X42496771Y-48289690D01*
X42413709Y-48313108D01*
X42348727Y-48347945D01*
X42302539Y-48393604D01*
X42275855Y-48449494D01*
X42270337Y-48478388D01*
X42273949Y-48537012D01*
X42297271Y-48588879D01*
X42338176Y-48632978D01*
X42394541Y-48668299D01*
X42464240Y-48693829D01*
X42545148Y-48708559D01*
X42635140Y-48711478D01*
X42732090Y-48701575D01*
X42737564Y-48700641D01*
X42776125Y-48693459D01*
X42797506Y-48686521D01*
X42806773Y-48676227D01*
X42808994Y-48658976D01*
X42809044Y-48649841D01*
X42809044Y-48611489D01*
X42740569Y-48611489D01*
X42680100Y-48607347D01*
X42638835Y-48594147D01*
X42614825Y-48570730D01*
X42606123Y-48535936D01*
X42606017Y-48531394D01*
X42611108Y-48501654D01*
X42628567Y-48480419D01*
X42661061Y-48466366D01*
X42711257Y-48458173D01*
X42759877Y-48455161D01*
X42830544Y-48453433D01*
X42881802Y-48456070D01*
X42916761Y-48465800D01*
X42938530Y-48485353D01*
X42950220Y-48517456D01*
X42954940Y-48564838D01*
X42955800Y-48627071D01*
X42954391Y-48696535D01*
X42950152Y-48743786D01*
X42943064Y-48769012D01*
X42941689Y-48770988D01*
X42902772Y-48802508D01*
X42845714Y-48827470D01*
X42774131Y-48845340D01*
X42691642Y-48855586D01*
X42601861Y-48857673D01*
X42508408Y-48851068D01*
X42453444Y-48842956D01*
X42367234Y-48818554D01*
X42287108Y-48778662D01*
X42220023Y-48726887D01*
X42209827Y-48716539D01*
X42176698Y-48673035D01*
X42146806Y-48619118D01*
X42123643Y-48562592D01*
X42110702Y-48511259D01*
X42109142Y-48491544D01*
X42115782Y-48450419D01*
X42133432Y-48399252D01*
X42158703Y-48345394D01*
X42188211Y-48296195D01*
X42214281Y-48263334D01*
X42275235Y-48214452D01*
X42354031Y-48175545D01*
X42447843Y-48147494D01*
X42553850Y-48131179D01*
X42651000Y-48127192D01*
X42732919Y-48131599D01*
G36*
X41759178Y-48148645D02*
X41765758Y-48156218D01*
X41770921Y-48165987D01*
X41774836Y-48180571D01*
X41777676Y-48202585D01*
X41779613Y-48234648D01*
X41780817Y-48279375D01*
X41781461Y-48339385D01*
X41781716Y-48417294D01*
X41781755Y-48492956D01*
X41781686Y-48586802D01*
X41781362Y-48660689D01*
X41780614Y-48717232D01*
X41779268Y-48759049D01*
X41777154Y-48788757D01*
X41774100Y-48808973D01*
X41769934Y-48822314D01*
X41764484Y-48831398D01*
X41759178Y-48837267D01*
X41726174Y-48856947D01*
X41691009Y-48855181D01*
X41659545Y-48833717D01*
X41652316Y-48825337D01*
X41646666Y-48815614D01*
X41642401Y-48801861D01*
X41639327Y-48781389D01*
X41637248Y-48751512D01*
X41635970Y-48709541D01*
X41635299Y-48652789D01*
X41635041Y-48578567D01*
X41635000Y-48494537D01*
X41635000Y-48181485D01*
X41662709Y-48153776D01*
X41696863Y-48130463D01*
X41729994Y-48129623D01*
X41759178Y-48148645D01*
X41759178Y-48148645D01*
G37*
X41759178Y-48148645D02*
X41765758Y-48156218D01*
X41770921Y-48165987D01*
X41774836Y-48180571D01*
X41777676Y-48202585D01*
X41779613Y-48234648D01*
X41780817Y-48279375D01*
X41781461Y-48339385D01*
X41781716Y-48417294D01*
X41781755Y-48492956D01*
X41781686Y-48586802D01*
X41781362Y-48660689D01*
X41780614Y-48717232D01*
X41779268Y-48759049D01*
X41777154Y-48788757D01*
X41774100Y-48808973D01*
X41769934Y-48822314D01*
X41764484Y-48831398D01*
X41759178Y-48837267D01*
X41726174Y-48856947D01*
X41691009Y-48855181D01*
X41659545Y-48833717D01*
X41652316Y-48825337D01*
X41646666Y-48815614D01*
X41642401Y-48801861D01*
X41639327Y-48781389D01*
X41637248Y-48751512D01*
X41635970Y-48709541D01*
X41635299Y-48652789D01*
X41635041Y-48578567D01*
X41635000Y-48494537D01*
X41635000Y-48181485D01*
X41662709Y-48153776D01*
X41696863Y-48130463D01*
X41729994Y-48129623D01*
X41759178Y-48148645D01*
G36*
X40991297Y-48127351D02*
X41066112Y-48132581D01*
X41135694Y-48140750D01*
X41195998Y-48151550D01*
X41242980Y-48164673D01*
X41272594Y-48179813D01*
X41277140Y-48184269D01*
X41292946Y-48218850D01*
X41288153Y-48254351D01*
X41263636Y-48284725D01*
X41262466Y-48285596D01*
X41248046Y-48294954D01*
X41232992Y-48299876D01*
X41211995Y-48300473D01*
X41179743Y-48296861D01*
X41130927Y-48289154D01*
X41127000Y-48288505D01*
X41054261Y-48279569D01*
X40975783Y-48275161D01*
X40897073Y-48275119D01*
X40823639Y-48279279D01*
X40760989Y-48287479D01*
X40714630Y-48299557D01*
X40711584Y-48300771D01*
X40677952Y-48319615D01*
X40666136Y-48338685D01*
X40675386Y-48357439D01*
X40704953Y-48375337D01*
X40754089Y-48391837D01*
X40822043Y-48406396D01*
X40867355Y-48413406D01*
X40961544Y-48426889D01*
X41036456Y-48439214D01*
X41095283Y-48451449D01*
X41141215Y-48464661D01*
X41177445Y-48479917D01*
X41207162Y-48498285D01*
X41233558Y-48520831D01*
X41254770Y-48542971D01*
X41279935Y-48573819D01*
X41292319Y-48600345D01*
X41296192Y-48633026D01*
X41296333Y-48644995D01*
X41293424Y-48684712D01*
X41281798Y-48714259D01*
X41261677Y-48740486D01*
X41220784Y-48780576D01*
X41175183Y-48811149D01*
X41121487Y-48833203D01*
X41056308Y-48847735D01*
X40976256Y-48855741D01*
X40877943Y-48858218D01*
X40861711Y-48858177D01*
X40796151Y-48856818D01*
X40731134Y-48853730D01*
X40673748Y-48849356D01*
X40631078Y-48844140D01*
X40627628Y-48843541D01*
X40585204Y-48833491D01*
X40549220Y-48820796D01*
X40528850Y-48809190D01*
X40509893Y-48778572D01*
X40508573Y-48742918D01*
X40524915Y-48711144D01*
X40528571Y-48707551D01*
X40543685Y-48696876D01*
X40562585Y-48692276D01*
X40591838Y-48693059D01*
X40627349Y-48697127D01*
X40667030Y-48700762D01*
X40722655Y-48703828D01*
X40787594Y-48706053D01*
X40855215Y-48707164D01*
X40873000Y-48707237D01*
X40940872Y-48706964D01*
X40990546Y-48705646D01*
X41026390Y-48702827D01*
X41052776Y-48698050D01*
X41074074Y-48690857D01*
X41086874Y-48684867D01*
X41115000Y-48668233D01*
X41132932Y-48653168D01*
X41135553Y-48648897D01*
X41130024Y-48631263D01*
X41103740Y-48614192D01*
X41058522Y-48598458D01*
X40996192Y-48584838D01*
X40977829Y-48581804D01*
X40881910Y-48566738D01*
X40805359Y-48554146D01*
X40745220Y-48543111D01*
X40698540Y-48532720D01*
X40662363Y-48522056D01*
X40633735Y-48510205D01*
X40609702Y-48496251D01*
X40587308Y-48479281D01*
X40563598Y-48458378D01*
X40555620Y-48451049D01*
X40527647Y-48423699D01*
X40512840Y-48402029D01*
X40507048Y-48377232D01*
X40506111Y-48345983D01*
X40516425Y-48284705D01*
X40547248Y-48232640D01*
X40598405Y-48189958D01*
X40669717Y-48156825D01*
X40720600Y-48141964D01*
X40775900Y-48132366D01*
X40842147Y-48126936D01*
X40915294Y-48125367D01*
X40991297Y-48127351D01*
X40991297Y-48127351D01*
G37*
X40991297Y-48127351D02*
X41066112Y-48132581D01*
X41135694Y-48140750D01*
X41195998Y-48151550D01*
X41242980Y-48164673D01*
X41272594Y-48179813D01*
X41277140Y-48184269D01*
X41292946Y-48218850D01*
X41288153Y-48254351D01*
X41263636Y-48284725D01*
X41262466Y-48285596D01*
X41248046Y-48294954D01*
X41232992Y-48299876D01*
X41211995Y-48300473D01*
X41179743Y-48296861D01*
X41130927Y-48289154D01*
X41127000Y-48288505D01*
X41054261Y-48279569D01*
X40975783Y-48275161D01*
X40897073Y-48275119D01*
X40823639Y-48279279D01*
X40760989Y-48287479D01*
X40714630Y-48299557D01*
X40711584Y-48300771D01*
X40677952Y-48319615D01*
X40666136Y-48338685D01*
X40675386Y-48357439D01*
X40704953Y-48375337D01*
X40754089Y-48391837D01*
X40822043Y-48406396D01*
X40867355Y-48413406D01*
X40961544Y-48426889D01*
X41036456Y-48439214D01*
X41095283Y-48451449D01*
X41141215Y-48464661D01*
X41177445Y-48479917D01*
X41207162Y-48498285D01*
X41233558Y-48520831D01*
X41254770Y-48542971D01*
X41279935Y-48573819D01*
X41292319Y-48600345D01*
X41296192Y-48633026D01*
X41296333Y-48644995D01*
X41293424Y-48684712D01*
X41281798Y-48714259D01*
X41261677Y-48740486D01*
X41220784Y-48780576D01*
X41175183Y-48811149D01*
X41121487Y-48833203D01*
X41056308Y-48847735D01*
X40976256Y-48855741D01*
X40877943Y-48858218D01*
X40861711Y-48858177D01*
X40796151Y-48856818D01*
X40731134Y-48853730D01*
X40673748Y-48849356D01*
X40631078Y-48844140D01*
X40627628Y-48843541D01*
X40585204Y-48833491D01*
X40549220Y-48820796D01*
X40528850Y-48809190D01*
X40509893Y-48778572D01*
X40508573Y-48742918D01*
X40524915Y-48711144D01*
X40528571Y-48707551D01*
X40543685Y-48696876D01*
X40562585Y-48692276D01*
X40591838Y-48693059D01*
X40627349Y-48697127D01*
X40667030Y-48700762D01*
X40722655Y-48703828D01*
X40787594Y-48706053D01*
X40855215Y-48707164D01*
X40873000Y-48707237D01*
X40940872Y-48706964D01*
X40990546Y-48705646D01*
X41026390Y-48702827D01*
X41052776Y-48698050D01*
X41074074Y-48690857D01*
X41086874Y-48684867D01*
X41115000Y-48668233D01*
X41132932Y-48653168D01*
X41135553Y-48648897D01*
X41130024Y-48631263D01*
X41103740Y-48614192D01*
X41058522Y-48598458D01*
X40996192Y-48584838D01*
X40977829Y-48581804D01*
X40881910Y-48566738D01*
X40805359Y-48554146D01*
X40745220Y-48543111D01*
X40698540Y-48532720D01*
X40662363Y-48522056D01*
X40633735Y-48510205D01*
X40609702Y-48496251D01*
X40587308Y-48479281D01*
X40563598Y-48458378D01*
X40555620Y-48451049D01*
X40527647Y-48423699D01*
X40512840Y-48402029D01*
X40507048Y-48377232D01*
X40506111Y-48345983D01*
X40516425Y-48284705D01*
X40547248Y-48232640D01*
X40598405Y-48189958D01*
X40669717Y-48156825D01*
X40720600Y-48141964D01*
X40775900Y-48132366D01*
X40842147Y-48126936D01*
X40915294Y-48125367D01*
X40991297Y-48127351D01*
G36*
X39970206Y-48126146D02*
X40039614Y-48126518D01*
X40092003Y-48127385D01*
X40130153Y-48128946D01*
X40156841Y-48131403D01*
X40174847Y-48134957D01*
X40186951Y-48139810D01*
X40195931Y-48146161D01*
X40199182Y-48149084D01*
X40218957Y-48180142D01*
X40222518Y-48215828D01*
X40209509Y-48247510D01*
X40203494Y-48253913D01*
X40193765Y-48260121D01*
X40178099Y-48264910D01*
X40153592Y-48268514D01*
X40117339Y-48271164D01*
X40066435Y-48273095D01*
X39997974Y-48274539D01*
X39935383Y-48275418D01*
X39687666Y-48278467D01*
X39684281Y-48343378D01*
X39680895Y-48408289D01*
X39849042Y-48408289D01*
X39922041Y-48408919D01*
X39975483Y-48411553D01*
X40012372Y-48417309D01*
X40035712Y-48427304D01*
X40048506Y-48442656D01*
X40053758Y-48464482D01*
X40054555Y-48484738D01*
X40052077Y-48509592D01*
X40042723Y-48527906D01*
X40023617Y-48540637D01*
X39991882Y-48548741D01*
X39944641Y-48553176D01*
X39879017Y-48554899D01*
X39843199Y-48555045D01*
X39682022Y-48555045D01*
X39682022Y-48713089D01*
X39930378Y-48713089D01*
X40011787Y-48713202D01*
X40073658Y-48713712D01*
X40119032Y-48714870D01*
X40150946Y-48716930D01*
X40172441Y-48720146D01*
X40186557Y-48724772D01*
X40196332Y-48731059D01*
X40201311Y-48735667D01*
X40218390Y-48762560D01*
X40223889Y-48786467D01*
X40216037Y-48815667D01*
X40201311Y-48837267D01*
X40193454Y-48844066D01*
X40183312Y-48849346D01*
X40168156Y-48853298D01*
X40145259Y-48856113D01*
X40111891Y-48857982D01*
X40065325Y-48859098D01*
X40002833Y-48859651D01*
X39921686Y-48859833D01*
X39879578Y-48859845D01*
X39789402Y-48859765D01*
X39719076Y-48859398D01*
X39665871Y-48858552D01*
X39627060Y-48857036D01*
X39599913Y-48854659D01*
X39581702Y-48851229D01*
X39569700Y-48846554D01*
X39561178Y-48840444D01*
X39557844Y-48837267D01*
X39551245Y-48829670D01*
X39546073Y-48819870D01*
X39542154Y-48805239D01*
X39539316Y-48783152D01*
X39537385Y-48750982D01*
X39536188Y-48706103D01*
X39535552Y-48645889D01*
X39535303Y-48567713D01*
X39535266Y-48494923D01*
X39535300Y-48401707D01*
X39535535Y-48328431D01*
X39536170Y-48272458D01*
X39537406Y-48231151D01*
X39539444Y-48201872D01*
X39542483Y-48181984D01*
X39546723Y-48168850D01*
X39552365Y-48159832D01*
X39559609Y-48152293D01*
X39561394Y-48150612D01*
X39570055Y-48143172D01*
X39580118Y-48137409D01*
X39594375Y-48133112D01*
X39615617Y-48130064D01*
X39646636Y-48128051D01*
X39690223Y-48126860D01*
X39749169Y-48126275D01*
X39826266Y-48126083D01*
X39880999Y-48126067D01*
X39970206Y-48126146D01*
X39970206Y-48126146D01*
G37*
X39970206Y-48126146D02*
X40039614Y-48126518D01*
X40092003Y-48127385D01*
X40130153Y-48128946D01*
X40156841Y-48131403D01*
X40174847Y-48134957D01*
X40186951Y-48139810D01*
X40195931Y-48146161D01*
X40199182Y-48149084D01*
X40218957Y-48180142D01*
X40222518Y-48215828D01*
X40209509Y-48247510D01*
X40203494Y-48253913D01*
X40193765Y-48260121D01*
X40178099Y-48264910D01*
X40153592Y-48268514D01*
X40117339Y-48271164D01*
X40066435Y-48273095D01*
X39997974Y-48274539D01*
X39935383Y-48275418D01*
X39687666Y-48278467D01*
X39684281Y-48343378D01*
X39680895Y-48408289D01*
X39849042Y-48408289D01*
X39922041Y-48408919D01*
X39975483Y-48411553D01*
X40012372Y-48417309D01*
X40035712Y-48427304D01*
X40048506Y-48442656D01*
X40053758Y-48464482D01*
X40054555Y-48484738D01*
X40052077Y-48509592D01*
X40042723Y-48527906D01*
X40023617Y-48540637D01*
X39991882Y-48548741D01*
X39944641Y-48553176D01*
X39879017Y-48554899D01*
X39843199Y-48555045D01*
X39682022Y-48555045D01*
X39682022Y-48713089D01*
X39930378Y-48713089D01*
X40011787Y-48713202D01*
X40073658Y-48713712D01*
X40119032Y-48714870D01*
X40150946Y-48716930D01*
X40172441Y-48720146D01*
X40186557Y-48724772D01*
X40196332Y-48731059D01*
X40201311Y-48735667D01*
X40218390Y-48762560D01*
X40223889Y-48786467D01*
X40216037Y-48815667D01*
X40201311Y-48837267D01*
X40193454Y-48844066D01*
X40183312Y-48849346D01*
X40168156Y-48853298D01*
X40145259Y-48856113D01*
X40111891Y-48857982D01*
X40065325Y-48859098D01*
X40002833Y-48859651D01*
X39921686Y-48859833D01*
X39879578Y-48859845D01*
X39789402Y-48859765D01*
X39719076Y-48859398D01*
X39665871Y-48858552D01*
X39627060Y-48857036D01*
X39599913Y-48854659D01*
X39581702Y-48851229D01*
X39569700Y-48846554D01*
X39561178Y-48840444D01*
X39557844Y-48837267D01*
X39551245Y-48829670D01*
X39546073Y-48819870D01*
X39542154Y-48805239D01*
X39539316Y-48783152D01*
X39537385Y-48750982D01*
X39536188Y-48706103D01*
X39535552Y-48645889D01*
X39535303Y-48567713D01*
X39535266Y-48494923D01*
X39535300Y-48401707D01*
X39535535Y-48328431D01*
X39536170Y-48272458D01*
X39537406Y-48231151D01*
X39539444Y-48201872D01*
X39542483Y-48181984D01*
X39546723Y-48168850D01*
X39552365Y-48159832D01*
X39559609Y-48152293D01*
X39561394Y-48150612D01*
X39570055Y-48143172D01*
X39580118Y-48137409D01*
X39594375Y-48133112D01*
X39615617Y-48130064D01*
X39646636Y-48128051D01*
X39690223Y-48126860D01*
X39749169Y-48126275D01*
X39826266Y-48126083D01*
X39880999Y-48126067D01*
X39970206Y-48126146D01*
G36*
X38561629Y-48126066D02*
X38601111Y-48126467D01*
X38716800Y-48129259D01*
X38813689Y-48137550D01*
X38895081Y-48152232D01*
X38964277Y-48174193D01*
X39024580Y-48204322D01*
X39079292Y-48243510D01*
X39098833Y-48260532D01*
X39131250Y-48300363D01*
X39160480Y-48354413D01*
X39183009Y-48414323D01*
X39195321Y-48471739D01*
X39196600Y-48492956D01*
X39188583Y-48551769D01*
X39167101Y-48616013D01*
X39136001Y-48676821D01*
X39099134Y-48725330D01*
X39093146Y-48731182D01*
X39042421Y-48772321D01*
X38986875Y-48804435D01*
X38923304Y-48828365D01*
X38848506Y-48844953D01*
X38759278Y-48855041D01*
X38652418Y-48859469D01*
X38603472Y-48859845D01*
X38541238Y-48859545D01*
X38497472Y-48858292D01*
X38468069Y-48855554D01*
X38448921Y-48850801D01*
X38435923Y-48843501D01*
X38428955Y-48837267D01*
X38422374Y-48829694D01*
X38417212Y-48819924D01*
X38413297Y-48805340D01*
X38410457Y-48783326D01*
X38408520Y-48751264D01*
X38407316Y-48706536D01*
X38406672Y-48646526D01*
X38406417Y-48568617D01*
X38406378Y-48492956D01*
X38406130Y-48392041D01*
X38406183Y-48311427D01*
X38407143Y-48272822D01*
X38553133Y-48272822D01*
X38553133Y-48713089D01*
X38646266Y-48713004D01*
X38702307Y-48711396D01*
X38761001Y-48707256D01*
X38809972Y-48701464D01*
X38811462Y-48701226D01*
X38890608Y-48682090D01*
X38951998Y-48652287D01*
X38998695Y-48609878D01*
X39028365Y-48563961D01*
X39046647Y-48513026D01*
X39045229Y-48465200D01*
X39024012Y-48413933D01*
X38982511Y-48360899D01*
X38925002Y-48321600D01*
X38850250Y-48295331D01*
X38800292Y-48286035D01*
X38743584Y-48279507D01*
X38683481Y-48274782D01*
X38632361Y-48272817D01*
X38629333Y-48272808D01*
X38553133Y-48272822D01*
X38407143Y-48272822D01*
X38407740Y-48248851D01*
X38412002Y-48202055D01*
X38420170Y-48168778D01*
X38433444Y-48146759D01*
X38453026Y-48133739D01*
X38480117Y-48127457D01*
X38515918Y-48125653D01*
X38561629Y-48126066D01*
X38561629Y-48126066D01*
G37*
X38561629Y-48126066D02*
X38601111Y-48126467D01*
X38716800Y-48129259D01*
X38813689Y-48137550D01*
X38895081Y-48152232D01*
X38964277Y-48174193D01*
X39024580Y-48204322D01*
X39079292Y-48243510D01*
X39098833Y-48260532D01*
X39131250Y-48300363D01*
X39160480Y-48354413D01*
X39183009Y-48414323D01*
X39195321Y-48471739D01*
X39196600Y-48492956D01*
X39188583Y-48551769D01*
X39167101Y-48616013D01*
X39136001Y-48676821D01*
X39099134Y-48725330D01*
X39093146Y-48731182D01*
X39042421Y-48772321D01*
X38986875Y-48804435D01*
X38923304Y-48828365D01*
X38848506Y-48844953D01*
X38759278Y-48855041D01*
X38652418Y-48859469D01*
X38603472Y-48859845D01*
X38541238Y-48859545D01*
X38497472Y-48858292D01*
X38468069Y-48855554D01*
X38448921Y-48850801D01*
X38435923Y-48843501D01*
X38428955Y-48837267D01*
X38422374Y-48829694D01*
X38417212Y-48819924D01*
X38413297Y-48805340D01*
X38410457Y-48783326D01*
X38408520Y-48751264D01*
X38407316Y-48706536D01*
X38406672Y-48646526D01*
X38406417Y-48568617D01*
X38406378Y-48492956D01*
X38406130Y-48392041D01*
X38406183Y-48311427D01*
X38407143Y-48272822D01*
X38553133Y-48272822D01*
X38553133Y-48713089D01*
X38646266Y-48713004D01*
X38702307Y-48711396D01*
X38761001Y-48707256D01*
X38809972Y-48701464D01*
X38811462Y-48701226D01*
X38890608Y-48682090D01*
X38951998Y-48652287D01*
X38998695Y-48609878D01*
X39028365Y-48563961D01*
X39046647Y-48513026D01*
X39045229Y-48465200D01*
X39024012Y-48413933D01*
X38982511Y-48360899D01*
X38925002Y-48321600D01*
X38850250Y-48295331D01*
X38800292Y-48286035D01*
X38743584Y-48279507D01*
X38683481Y-48274782D01*
X38632361Y-48272817D01*
X38629333Y-48272808D01*
X38553133Y-48272822D01*
X38407143Y-48272822D01*
X38407740Y-48248851D01*
X38412002Y-48202055D01*
X38420170Y-48168778D01*
X38433444Y-48146759D01*
X38453026Y-48133739D01*
X38480117Y-48127457D01*
X38515918Y-48125653D01*
X38561629Y-48126066D01*
D13*
G36*
X31104160Y-63723360D02*
X31129560Y-63708120D01*
X31187980Y-63672560D01*
X31271800Y-63616680D01*
X31370860Y-63550640D01*
X31469920Y-63484600D01*
X31551200Y-63431260D01*
X31607080Y-63393160D01*
X31632480Y-63380460D01*
X31645180Y-63385540D01*
X31690900Y-63408400D01*
X31759480Y-63443960D01*
X31800120Y-63464280D01*
X31861080Y-63489680D01*
X31894100Y-63497300D01*
X31899180Y-63487140D01*
X31922040Y-63438880D01*
X31957600Y-63357600D01*
X32003320Y-63248380D01*
X32059200Y-63121380D01*
X32115080Y-62986760D01*
X32173500Y-62847060D01*
X32229380Y-62712440D01*
X32277640Y-62593060D01*
X32318280Y-62496540D01*
X32343680Y-62427960D01*
X32353840Y-62400020D01*
X32351300Y-62392400D01*
X32318280Y-62361920D01*
X32264940Y-62321280D01*
X32145560Y-62224760D01*
X32028720Y-62079980D01*
X31957600Y-61914880D01*
X31934740Y-61729460D01*
X31955060Y-61559280D01*
X32021100Y-61396720D01*
X32135400Y-61249400D01*
X32275100Y-61140180D01*
X32437660Y-61071600D01*
X32618000Y-61048740D01*
X32790720Y-61069060D01*
X32958360Y-61135100D01*
X33105680Y-61246860D01*
X33169180Y-61317980D01*
X33255540Y-61467840D01*
X33303800Y-61625320D01*
X33308880Y-61665960D01*
X33301260Y-61841220D01*
X33250460Y-62011400D01*
X33156480Y-62161260D01*
X33026940Y-62285720D01*
X33011700Y-62295880D01*
X32953280Y-62341600D01*
X32912640Y-62372080D01*
X32882160Y-62397480D01*
X33105680Y-62935960D01*
X33141240Y-63019780D01*
X33202200Y-63167100D01*
X33255540Y-63294100D01*
X33298720Y-63395700D01*
X33329200Y-63461740D01*
X33341900Y-63489680D01*
X33341900Y-63492220D01*
X33362220Y-63494760D01*
X33402860Y-63479520D01*
X33479060Y-63443960D01*
X33527320Y-63418560D01*
X33585740Y-63390620D01*
X33611140Y-63380460D01*
X33634000Y-63393160D01*
X33687340Y-63428720D01*
X33768620Y-63482060D01*
X33865140Y-63545560D01*
X33956580Y-63609060D01*
X34040400Y-63664940D01*
X34101360Y-63703040D01*
X34131840Y-63720820D01*
X34136920Y-63720820D01*
X34162320Y-63705580D01*
X34210580Y-63664940D01*
X34284240Y-63596360D01*
X34388380Y-63492220D01*
X34403620Y-63476980D01*
X34489980Y-63390620D01*
X34558560Y-63316960D01*
X34604280Y-63266160D01*
X34622060Y-63243300D01*
X34622060Y-63243300D01*
X34606820Y-63212820D01*
X34568720Y-63151860D01*
X34512840Y-63065500D01*
X34444260Y-62966440D01*
X34266460Y-62707360D01*
X34362980Y-62463520D01*
X34393460Y-62387320D01*
X34431560Y-62298420D01*
X34459500Y-62232380D01*
X34474740Y-62204440D01*
X34500140Y-62194280D01*
X34568720Y-62179040D01*
X34665240Y-62158720D01*
X34779540Y-62138400D01*
X34891300Y-62118080D01*
X34990360Y-62097760D01*
X35061480Y-62085060D01*
X35094500Y-62077440D01*
X35102120Y-62072360D01*
X35109740Y-62057120D01*
X35112280Y-62024100D01*
X35114820Y-61963140D01*
X35117360Y-61869160D01*
X35117360Y-61729460D01*
X35117360Y-61714220D01*
X35114820Y-61584680D01*
X35112280Y-61478000D01*
X35109740Y-61411960D01*
X35104660Y-61384020D01*
X35104660Y-61384020D01*
X35074180Y-61376400D01*
X35003060Y-61361160D01*
X34904000Y-61343380D01*
X34784620Y-61320520D01*
X34777000Y-61317980D01*
X34660160Y-61295120D01*
X34561100Y-61274800D01*
X34489980Y-61259560D01*
X34462040Y-61249400D01*
X34454420Y-61241780D01*
X34431560Y-61196060D01*
X34398540Y-61122400D01*
X34357900Y-61033500D01*
X34319800Y-60939520D01*
X34286780Y-60855700D01*
X34263920Y-60794740D01*
X34256300Y-60766800D01*
X34258840Y-60764260D01*
X34276620Y-60736320D01*
X34317260Y-60675360D01*
X34373140Y-60591540D01*
X34441720Y-60489940D01*
X34446800Y-60482320D01*
X34515380Y-60383260D01*
X34571260Y-60296900D01*
X34606820Y-60238480D01*
X34622060Y-60210540D01*
X34622060Y-60208000D01*
X34599200Y-60177520D01*
X34548400Y-60121640D01*
X34474740Y-60045440D01*
X34388380Y-59956540D01*
X34360440Y-59931140D01*
X34261380Y-59834620D01*
X34195340Y-59773660D01*
X34152160Y-59740640D01*
X34131840Y-59733020D01*
X34131840Y-59733020D01*
X34101360Y-59750800D01*
X34037860Y-59791440D01*
X33954040Y-59849860D01*
X33852440Y-59918440D01*
X33844820Y-59923520D01*
X33745760Y-59992100D01*
X33661940Y-60047980D01*
X33603520Y-60088620D01*
X33575580Y-60103860D01*
X33573040Y-60103860D01*
X33532400Y-60091160D01*
X33461280Y-60065760D01*
X33372380Y-60032740D01*
X33280940Y-59994640D01*
X33197120Y-59959080D01*
X33133620Y-59931140D01*
X33103140Y-59913360D01*
X33103140Y-59913360D01*
X33092980Y-59877800D01*
X33075200Y-59801600D01*
X33054880Y-59700000D01*
X33029480Y-59578080D01*
X33026940Y-59557760D01*
X33004080Y-59438380D01*
X32986300Y-59339320D01*
X32971060Y-59270740D01*
X32963440Y-59242800D01*
X32948200Y-59240260D01*
X32889780Y-59235180D01*
X32800880Y-59232640D01*
X32691660Y-59232640D01*
X32579900Y-59232640D01*
X32470680Y-59235180D01*
X32376700Y-59237720D01*
X32308120Y-59242800D01*
X32280180Y-59247880D01*
X32280180Y-59250420D01*
X32270020Y-59288520D01*
X32252240Y-59362180D01*
X32231920Y-59466320D01*
X32209060Y-59588240D01*
X32203980Y-59611100D01*
X32181120Y-59727940D01*
X32160800Y-59827000D01*
X32148100Y-59893040D01*
X32140480Y-59920980D01*
X32127780Y-59926060D01*
X32079520Y-59946380D01*
X32000780Y-59979400D01*
X31901720Y-60020040D01*
X31673120Y-60111480D01*
X31391180Y-59920980D01*
X31365780Y-59903200D01*
X31264180Y-59834620D01*
X31182900Y-59778740D01*
X31124480Y-59740640D01*
X31101620Y-59727940D01*
X31099080Y-59727940D01*
X31071140Y-59753340D01*
X31015260Y-59806680D01*
X30939060Y-59880340D01*
X30850160Y-59966700D01*
X30786660Y-60032740D01*
X30707920Y-60111480D01*
X30659660Y-60164820D01*
X30631720Y-60197840D01*
X30624100Y-60218160D01*
X30626640Y-60233400D01*
X30644420Y-60261340D01*
X30685060Y-60322300D01*
X30743480Y-60408660D01*
X30812060Y-60507720D01*
X30867940Y-60591540D01*
X30928900Y-60685520D01*
X30967000Y-60751560D01*
X30982240Y-60784580D01*
X30977160Y-60797280D01*
X30959380Y-60853160D01*
X30923820Y-60936980D01*
X30883180Y-61036040D01*
X30784120Y-61257020D01*
X30639340Y-61284960D01*
X30550440Y-61302740D01*
X30428520Y-61325600D01*
X30309140Y-61348460D01*
X30126260Y-61384020D01*
X30118640Y-62059660D01*
X30146580Y-62072360D01*
X30174520Y-62079980D01*
X30243100Y-62095220D01*
X30339620Y-62115540D01*
X30456460Y-62135860D01*
X30552980Y-62153640D01*
X30652040Y-62173960D01*
X30723160Y-62186660D01*
X30753640Y-62194280D01*
X30763800Y-62204440D01*
X30786660Y-62252700D01*
X30822220Y-62328900D01*
X30862860Y-62420340D01*
X30900960Y-62514320D01*
X30936520Y-62603220D01*
X30959380Y-62669260D01*
X30969540Y-62702280D01*
X30956840Y-62730220D01*
X30918740Y-62788640D01*
X30865400Y-62869920D01*
X30796820Y-62968980D01*
X30730780Y-63065500D01*
X30672360Y-63149320D01*
X30634260Y-63210280D01*
X30616480Y-63238220D01*
X30626640Y-63256000D01*
X30664740Y-63304260D01*
X30738400Y-63380460D01*
X30850160Y-63489680D01*
X30867940Y-63507460D01*
X30954300Y-63591280D01*
X31027960Y-63659860D01*
X31081300Y-63705580D01*
X31104160Y-63723360D01*
X31104160Y-63723360D01*
G37*
X31104160Y-63723360D02*
X31129560Y-63708120D01*
X31187980Y-63672560D01*
X31271800Y-63616680D01*
X31370860Y-63550640D01*
X31469920Y-63484600D01*
X31551200Y-63431260D01*
X31607080Y-63393160D01*
X31632480Y-63380460D01*
X31645180Y-63385540D01*
X31690900Y-63408400D01*
X31759480Y-63443960D01*
X31800120Y-63464280D01*
X31861080Y-63489680D01*
X31894100Y-63497300D01*
X31899180Y-63487140D01*
X31922040Y-63438880D01*
X31957600Y-63357600D01*
X32003320Y-63248380D01*
X32059200Y-63121380D01*
X32115080Y-62986760D01*
X32173500Y-62847060D01*
X32229380Y-62712440D01*
X32277640Y-62593060D01*
X32318280Y-62496540D01*
X32343680Y-62427960D01*
X32353840Y-62400020D01*
X32351300Y-62392400D01*
X32318280Y-62361920D01*
X32264940Y-62321280D01*
X32145560Y-62224760D01*
X32028720Y-62079980D01*
X31957600Y-61914880D01*
X31934740Y-61729460D01*
X31955060Y-61559280D01*
X32021100Y-61396720D01*
X32135400Y-61249400D01*
X32275100Y-61140180D01*
X32437660Y-61071600D01*
X32618000Y-61048740D01*
X32790720Y-61069060D01*
X32958360Y-61135100D01*
X33105680Y-61246860D01*
X33169180Y-61317980D01*
X33255540Y-61467840D01*
X33303800Y-61625320D01*
X33308880Y-61665960D01*
X33301260Y-61841220D01*
X33250460Y-62011400D01*
X33156480Y-62161260D01*
X33026940Y-62285720D01*
X33011700Y-62295880D01*
X32953280Y-62341600D01*
X32912640Y-62372080D01*
X32882160Y-62397480D01*
X33105680Y-62935960D01*
X33141240Y-63019780D01*
X33202200Y-63167100D01*
X33255540Y-63294100D01*
X33298720Y-63395700D01*
X33329200Y-63461740D01*
X33341900Y-63489680D01*
X33341900Y-63492220D01*
X33362220Y-63494760D01*
X33402860Y-63479520D01*
X33479060Y-63443960D01*
X33527320Y-63418560D01*
X33585740Y-63390620D01*
X33611140Y-63380460D01*
X33634000Y-63393160D01*
X33687340Y-63428720D01*
X33768620Y-63482060D01*
X33865140Y-63545560D01*
X33956580Y-63609060D01*
X34040400Y-63664940D01*
X34101360Y-63703040D01*
X34131840Y-63720820D01*
X34136920Y-63720820D01*
X34162320Y-63705580D01*
X34210580Y-63664940D01*
X34284240Y-63596360D01*
X34388380Y-63492220D01*
X34403620Y-63476980D01*
X34489980Y-63390620D01*
X34558560Y-63316960D01*
X34604280Y-63266160D01*
X34622060Y-63243300D01*
X34622060Y-63243300D01*
X34606820Y-63212820D01*
X34568720Y-63151860D01*
X34512840Y-63065500D01*
X34444260Y-62966440D01*
X34266460Y-62707360D01*
X34362980Y-62463520D01*
X34393460Y-62387320D01*
X34431560Y-62298420D01*
X34459500Y-62232380D01*
X34474740Y-62204440D01*
X34500140Y-62194280D01*
X34568720Y-62179040D01*
X34665240Y-62158720D01*
X34779540Y-62138400D01*
X34891300Y-62118080D01*
X34990360Y-62097760D01*
X35061480Y-62085060D01*
X35094500Y-62077440D01*
X35102120Y-62072360D01*
X35109740Y-62057120D01*
X35112280Y-62024100D01*
X35114820Y-61963140D01*
X35117360Y-61869160D01*
X35117360Y-61729460D01*
X35117360Y-61714220D01*
X35114820Y-61584680D01*
X35112280Y-61478000D01*
X35109740Y-61411960D01*
X35104660Y-61384020D01*
X35104660Y-61384020D01*
X35074180Y-61376400D01*
X35003060Y-61361160D01*
X34904000Y-61343380D01*
X34784620Y-61320520D01*
X34777000Y-61317980D01*
X34660160Y-61295120D01*
X34561100Y-61274800D01*
X34489980Y-61259560D01*
X34462040Y-61249400D01*
X34454420Y-61241780D01*
X34431560Y-61196060D01*
X34398540Y-61122400D01*
X34357900Y-61033500D01*
X34319800Y-60939520D01*
X34286780Y-60855700D01*
X34263920Y-60794740D01*
X34256300Y-60766800D01*
X34258840Y-60764260D01*
X34276620Y-60736320D01*
X34317260Y-60675360D01*
X34373140Y-60591540D01*
X34441720Y-60489940D01*
X34446800Y-60482320D01*
X34515380Y-60383260D01*
X34571260Y-60296900D01*
X34606820Y-60238480D01*
X34622060Y-60210540D01*
X34622060Y-60208000D01*
X34599200Y-60177520D01*
X34548400Y-60121640D01*
X34474740Y-60045440D01*
X34388380Y-59956540D01*
X34360440Y-59931140D01*
X34261380Y-59834620D01*
X34195340Y-59773660D01*
X34152160Y-59740640D01*
X34131840Y-59733020D01*
X34131840Y-59733020D01*
X34101360Y-59750800D01*
X34037860Y-59791440D01*
X33954040Y-59849860D01*
X33852440Y-59918440D01*
X33844820Y-59923520D01*
X33745760Y-59992100D01*
X33661940Y-60047980D01*
X33603520Y-60088620D01*
X33575580Y-60103860D01*
X33573040Y-60103860D01*
X33532400Y-60091160D01*
X33461280Y-60065760D01*
X33372380Y-60032740D01*
X33280940Y-59994640D01*
X33197120Y-59959080D01*
X33133620Y-59931140D01*
X33103140Y-59913360D01*
X33103140Y-59913360D01*
X33092980Y-59877800D01*
X33075200Y-59801600D01*
X33054880Y-59700000D01*
X33029480Y-59578080D01*
X33026940Y-59557760D01*
X33004080Y-59438380D01*
X32986300Y-59339320D01*
X32971060Y-59270740D01*
X32963440Y-59242800D01*
X32948200Y-59240260D01*
X32889780Y-59235180D01*
X32800880Y-59232640D01*
X32691660Y-59232640D01*
X32579900Y-59232640D01*
X32470680Y-59235180D01*
X32376700Y-59237720D01*
X32308120Y-59242800D01*
X32280180Y-59247880D01*
X32280180Y-59250420D01*
X32270020Y-59288520D01*
X32252240Y-59362180D01*
X32231920Y-59466320D01*
X32209060Y-59588240D01*
X32203980Y-59611100D01*
X32181120Y-59727940D01*
X32160800Y-59827000D01*
X32148100Y-59893040D01*
X32140480Y-59920980D01*
X32127780Y-59926060D01*
X32079520Y-59946380D01*
X32000780Y-59979400D01*
X31901720Y-60020040D01*
X31673120Y-60111480D01*
X31391180Y-59920980D01*
X31365780Y-59903200D01*
X31264180Y-59834620D01*
X31182900Y-59778740D01*
X31124480Y-59740640D01*
X31101620Y-59727940D01*
X31099080Y-59727940D01*
X31071140Y-59753340D01*
X31015260Y-59806680D01*
X30939060Y-59880340D01*
X30850160Y-59966700D01*
X30786660Y-60032740D01*
X30707920Y-60111480D01*
X30659660Y-60164820D01*
X30631720Y-60197840D01*
X30624100Y-60218160D01*
X30626640Y-60233400D01*
X30644420Y-60261340D01*
X30685060Y-60322300D01*
X30743480Y-60408660D01*
X30812060Y-60507720D01*
X30867940Y-60591540D01*
X30928900Y-60685520D01*
X30967000Y-60751560D01*
X30982240Y-60784580D01*
X30977160Y-60797280D01*
X30959380Y-60853160D01*
X30923820Y-60936980D01*
X30883180Y-61036040D01*
X30784120Y-61257020D01*
X30639340Y-61284960D01*
X30550440Y-61302740D01*
X30428520Y-61325600D01*
X30309140Y-61348460D01*
X30126260Y-61384020D01*
X30118640Y-62059660D01*
X30146580Y-62072360D01*
X30174520Y-62079980D01*
X30243100Y-62095220D01*
X30339620Y-62115540D01*
X30456460Y-62135860D01*
X30552980Y-62153640D01*
X30652040Y-62173960D01*
X30723160Y-62186660D01*
X30753640Y-62194280D01*
X30763800Y-62204440D01*
X30786660Y-62252700D01*
X30822220Y-62328900D01*
X30862860Y-62420340D01*
X30900960Y-62514320D01*
X30936520Y-62603220D01*
X30959380Y-62669260D01*
X30969540Y-62702280D01*
X30956840Y-62730220D01*
X30918740Y-62788640D01*
X30865400Y-62869920D01*
X30796820Y-62968980D01*
X30730780Y-63065500D01*
X30672360Y-63149320D01*
X30634260Y-63210280D01*
X30616480Y-63238220D01*
X30626640Y-63256000D01*
X30664740Y-63304260D01*
X30738400Y-63380460D01*
X30850160Y-63489680D01*
X30867940Y-63507460D01*
X30954300Y-63591280D01*
X31027960Y-63659860D01*
X31081300Y-63705580D01*
X31104160Y-63723360D01*
D14*
X29978000Y-64518000D02*
X30028000Y-64558000D01*
X29958000Y-64488000D02*
X29978000Y-64518000D01*
X29938000Y-64428000D02*
X29958000Y-64488000D01*
X29938000Y-64228000D02*
X29938000Y-64428000D01*
X30158000Y-64138000D02*
X30108000Y-64098000D01*
X30178000Y-64168000D02*
X30158000Y-64138000D01*
X30198000Y-64228000D02*
X30178000Y-64168000D01*
X30198000Y-64428000D02*
X30198000Y-64228000D01*
X30178000Y-64498000D02*
X30198000Y-64428000D01*
X30158000Y-64528000D02*
X30178000Y-64498000D01*
X30108000Y-64558000D02*
X30158000Y-64528000D01*
X30028000Y-64558000D02*
X30108000Y-64558000D01*
X29968000Y-64158000D02*
X29938000Y-64228000D01*
X29988000Y-64128000D02*
X29968000Y-64158000D01*
X30028000Y-64098000D02*
X29988000Y-64128000D01*
X30108000Y-64098000D02*
X30028000Y-64098000D01*
X30418000Y-64798000D02*
X30418000Y-64098000D01*
X30468000Y-64558000D02*
X30418000Y-64528000D01*
X30568000Y-64558000D02*
X30468000Y-64558000D01*
X30608000Y-64528000D02*
X30568000Y-64558000D01*
X30628000Y-64498000D02*
X30608000Y-64528000D01*
X30648000Y-64438000D02*
X30628000Y-64498000D01*
X30648000Y-64218000D02*
X30648000Y-64438000D01*
X30628000Y-64158000D02*
X30648000Y-64218000D01*
X30598000Y-64128000D02*
X30628000Y-64158000D01*
X30558000Y-64098000D02*
X30598000Y-64128000D01*
X30458000Y-64098000D02*
X30558000Y-64098000D01*
X30418000Y-64128000D02*
X30458000Y-64098000D01*
X31008000Y-64558000D02*
X31058000Y-64528000D01*
X30908000Y-64558000D02*
X31008000Y-64558000D01*
X30868000Y-64528000D02*
X30908000Y-64558000D01*
X30848000Y-64458000D02*
X30868000Y-64528000D01*
X30848000Y-64188000D02*
X30848000Y-64458000D01*
X30878000Y-64128000D02*
X30848000Y-64188000D01*
X30918000Y-64098000D02*
X30878000Y-64128000D01*
X31018000Y-64098000D02*
X30918000Y-64098000D01*
X31058000Y-64138000D02*
X31018000Y-64098000D01*
X31078000Y-64208000D02*
X31058000Y-64138000D01*
X31078000Y-64328000D02*
X31078000Y-64208000D01*
X31298000Y-64098000D02*
X31298000Y-64558000D01*
X31508000Y-64188000D02*
X31508000Y-64558000D01*
X31488000Y-64128000D02*
X31508000Y-64188000D01*
X31448000Y-64098000D02*
X31488000Y-64128000D01*
X31358000Y-64098000D02*
X31448000Y-64098000D01*
X31318000Y-64128000D02*
X31358000Y-64098000D01*
X31298000Y-64158000D02*
X31318000Y-64128000D01*
X31078000Y-64328000D02*
X30848000Y-64328000D01*
X32128000Y-63858000D02*
X32128000Y-64558000D01*
X32338000Y-64188000D02*
X32338000Y-64558000D01*
X32318000Y-64128000D02*
X32338000Y-64188000D01*
X32278000Y-64098000D02*
X32318000Y-64128000D01*
X32198000Y-64098000D02*
X32278000Y-64098000D01*
X32148000Y-64128000D02*
X32198000Y-64098000D01*
X32128000Y-64168000D02*
X32148000Y-64128000D01*
X32798000Y-64188000D02*
X32798000Y-64558000D01*
X32768000Y-64128000D02*
X32798000Y-64188000D01*
X32728000Y-64098000D02*
X32768000Y-64128000D01*
X32628000Y-64098000D02*
X32728000Y-64098000D01*
X32578000Y-64128000D02*
X32628000Y-64098000D01*
X32638000Y-64288000D02*
X32588000Y-64318000D01*
X32758000Y-64288000D02*
X32638000Y-64288000D01*
X32798000Y-64258000D02*
X32758000Y-64288000D01*
X32748000Y-64558000D02*
X32798000Y-64518000D01*
X32628000Y-64558000D02*
X32748000Y-64558000D01*
X32578000Y-64518000D02*
X32628000Y-64558000D01*
X32558000Y-64458000D02*
X32578000Y-64518000D01*
X32558000Y-64388000D02*
X32558000Y-64458000D01*
X32588000Y-64318000D02*
X32558000Y-64388000D01*
X33038000Y-64098000D02*
X33038000Y-64558000D01*
X33128000Y-64098000D02*
X33178000Y-64098000D01*
X33078000Y-64128000D02*
X33128000Y-64098000D01*
X33058000Y-64148000D02*
X33078000Y-64128000D01*
X33038000Y-64218000D02*
X33058000Y-64148000D01*
X33558000Y-63858000D02*
X33558000Y-64558000D01*
X33498000Y-64088000D02*
X33558000Y-64128000D01*
X33428000Y-64088000D02*
X33498000Y-64088000D01*
X33368000Y-64128000D02*
X33428000Y-64088000D01*
X33348000Y-64158000D02*
X33368000Y-64128000D01*
X33318000Y-64228000D02*
X33348000Y-64158000D01*
X33318000Y-64428000D02*
X33318000Y-64228000D01*
X33348000Y-64498000D02*
X33318000Y-64428000D01*
X33368000Y-64528000D02*
X33348000Y-64498000D01*
X33408000Y-64558000D02*
X33368000Y-64528000D01*
X33518000Y-64558000D02*
X33408000Y-64558000D01*
X33558000Y-64528000D02*
X33518000Y-64558000D01*
X34038000Y-64558000D02*
X34138000Y-64098000D01*
X33938000Y-64218000D02*
X34038000Y-64558000D01*
X33848000Y-64558000D02*
X33938000Y-64218000D01*
X33748000Y-64098000D02*
X33848000Y-64558000D01*
X34328000Y-64318000D02*
X34298000Y-64388000D01*
X34298000Y-64388000D02*
X34298000Y-64458000D01*
X34298000Y-64458000D02*
X34318000Y-64518000D01*
X34318000Y-64518000D02*
X34368000Y-64558000D01*
X34368000Y-64558000D02*
X34488000Y-64558000D01*
X34488000Y-64558000D02*
X34538000Y-64518000D01*
X34538000Y-64258000D02*
X34498000Y-64288000D01*
X34498000Y-64288000D02*
X34378000Y-64288000D01*
X34378000Y-64288000D02*
X34328000Y-64318000D01*
X34318000Y-64128000D02*
X34368000Y-64098000D01*
X34368000Y-64098000D02*
X34468000Y-64098000D01*
X34468000Y-64098000D02*
X34508000Y-64128000D01*
X34508000Y-64128000D02*
X34538000Y-64188000D01*
X34538000Y-64188000D02*
X34538000Y-64558000D01*
X35288000Y-64328000D02*
X35058000Y-64328000D01*
X35288000Y-64328000D02*
X35288000Y-64208000D01*
X35288000Y-64208000D02*
X35268000Y-64138000D01*
X35268000Y-64138000D02*
X35228000Y-64098000D01*
X35228000Y-64098000D02*
X35128000Y-64098000D01*
X35128000Y-64098000D02*
X35088000Y-64128000D01*
X35088000Y-64128000D02*
X35058000Y-64188000D01*
X35058000Y-64188000D02*
X35058000Y-64458000D01*
X35058000Y-64458000D02*
X35078000Y-64528000D01*
X35078000Y-64528000D02*
X35118000Y-64558000D01*
X35118000Y-64558000D02*
X35218000Y-64558000D01*
X35218000Y-64558000D02*
X35268000Y-64528000D01*
X34778000Y-64218000D02*
X34798000Y-64148000D01*
X34798000Y-64148000D02*
X34818000Y-64128000D01*
X34818000Y-64128000D02*
X34868000Y-64098000D01*
X34868000Y-64098000D02*
X34918000Y-64098000D01*
X34778000Y-64098000D02*
X34778000Y-64558000D01*
D15*
X29256000Y-48584000D02*
X29256000Y-43384000D01*
X34456000Y-43384000D02*
X34456000Y-48584000D01*
X34056000Y-44184000D02*
X34456000Y-44184000D01*
X34056000Y-44784000D02*
X34456000Y-44784000D01*
X34056000Y-45384000D02*
X34456000Y-45384000D01*
X34056000Y-45984000D02*
X34456000Y-45984000D01*
X34056000Y-46584000D02*
X34456000Y-46584000D01*
X34056000Y-47184000D02*
X34456000Y-47184000D01*
X34056000Y-47784000D02*
X34456000Y-47784000D01*
X29256000Y-47784000D02*
X29656000Y-47784000D01*
X29256000Y-47184000D02*
X29656000Y-47184000D01*
X29256000Y-46584000D02*
X29656000Y-46584000D01*
X29256000Y-45984000D02*
X29656000Y-45984000D01*
X29256000Y-45384000D02*
X29656000Y-45384000D01*
X29256000Y-44784000D02*
X29656000Y-44784000D01*
X29256000Y-44184000D02*
X29656000Y-44184000D01*
X33556000Y-43884000D02*
X33556000Y-43484000D01*
X32956000Y-43884000D02*
X32956000Y-43484000D01*
X32356000Y-43884000D02*
X32356000Y-43484000D01*
X31756000Y-43884000D02*
X31756000Y-43484000D01*
X31156000Y-43884000D02*
X31156000Y-43484000D01*
X30556000Y-43884000D02*
X30556000Y-43484000D01*
X29956000Y-43884000D02*
X29956000Y-43484000D01*
X29256000Y-48584000D02*
X34456000Y-48584000D01*
X29256000Y-43384000D02*
X34456000Y-43384000D01*
X29956000Y-48484000D02*
X29956000Y-48084000D01*
X30556000Y-48484000D02*
X30556000Y-48084000D01*
X31156000Y-48484000D02*
X31156000Y-48084000D01*
X31756000Y-48484000D02*
X31756000Y-48084000D01*
X32356000Y-48484000D02*
X32356000Y-48084000D01*
X32956000Y-48484000D02*
X32956000Y-48084000D01*
X33556000Y-48484000D02*
X33556000Y-48084000D01*
D16*
X68740000Y-61030000D02*
X68740000Y-62630000D01*
X67940000Y-48730000D02*
X67940000Y-61030000D01*
X69940000Y-61030000D02*
X69940000Y-48730000D01*
X69140000Y-61030000D02*
X69140000Y-62630000D01*
X68740000Y-47130000D02*
X68740000Y-48730000D01*
X69140000Y-48730000D02*
X68640000Y-48730000D01*
X69140000Y-47130000D02*
X69140000Y-48730000D01*
X67940000Y-48730000D02*
X69940000Y-48730000D01*
X69940000Y-61030000D02*
X67940000Y-61030000D01*
D17*
X56511000Y-55396000D02*
X56511000Y-53296000D01*
X57511000Y-55396000D02*
X57511000Y-53296000D01*
X56511000Y-55396000D02*
X57511000Y-55396000D01*
X59305000Y-55345000D02*
X60305000Y-55345000D01*
X60305000Y-55345000D02*
X60305000Y-53245000D01*
X59305000Y-55345000D02*
X59305000Y-53245000D01*
X115390000Y-64610000D02*
X115390000Y-66000000D01*
X114000000Y-64610000D02*
X115390000Y-64610000D01*
X112730000Y-67390000D02*
X112730000Y-64610000D01*
X102450000Y-67390000D02*
X112730000Y-67390000D01*
X102450000Y-64610000D02*
X102450000Y-67390000D01*
X112730000Y-64610000D02*
X102450000Y-64610000D01*
D18*
X76698500Y-52047500D02*
X77358900Y-52047500D01*
X76698500Y-53952500D02*
X77358900Y-53952500D01*
X75301500Y-53000000D02*
X74641100Y-53000000D01*
X75301500Y-54498600D02*
X75301500Y-51501400D01*
X75301500Y-51501400D02*
X76698500Y-51501400D01*
X76698500Y-51501400D02*
X76698500Y-54498600D01*
X76698500Y-54498600D02*
X75301500Y-54498600D01*
X81288600Y-45806960D02*
X82101400Y-45806960D01*
X82076000Y-44689360D02*
X81288600Y-44689360D01*
X82101400Y-44435360D02*
X82101400Y-46060960D01*
X82101400Y-46060960D02*
X81288600Y-46060960D01*
X81288600Y-46060960D02*
X81288600Y-44435360D01*
X81288600Y-44435360D02*
X82101400Y-44435360D01*
X57417400Y-59782960D02*
X56604600Y-59782960D01*
X57417400Y-58157360D02*
X57417400Y-59782960D01*
X56604600Y-58157360D02*
X57417400Y-58157360D01*
X56604600Y-59782960D02*
X56604600Y-58157360D01*
X56630000Y-59528960D02*
X57417400Y-59528960D01*
X57417400Y-58411360D02*
X56604600Y-58411360D01*
X60084400Y-58411360D02*
X59271600Y-58411360D01*
X59297000Y-59528960D02*
X60084400Y-59528960D01*
X59271600Y-59782960D02*
X59271600Y-58157360D01*
X59271600Y-58157360D02*
X60084400Y-58157360D01*
X60084400Y-58157360D02*
X60084400Y-59782960D01*
X60084400Y-59782960D02*
X59271600Y-59782960D01*
D16*
X101970000Y-61000000D02*
X83970000Y-61000000D01*
X101970000Y-41500000D02*
X101970000Y-61000000D01*
X83970000Y-41500000D02*
X101970000Y-41500000D01*
X83970000Y-61000000D02*
X83970000Y-41500000D01*
D18*
X74593600Y-46310640D02*
X75406400Y-46310640D01*
X75381000Y-45193040D02*
X74593600Y-45193040D01*
X75406400Y-44939040D02*
X75406400Y-46564640D01*
X75406400Y-46564640D02*
X74593600Y-46564640D01*
X74593600Y-46564640D02*
X74593600Y-44939040D01*
X74593600Y-44939040D02*
X75406400Y-44939040D01*
X77187200Y-47540000D02*
X78812800Y-47540000D01*
X78812800Y-45254000D02*
X77187200Y-45254000D01*
X78812800Y-44796800D02*
X77187200Y-44796800D01*
X77187200Y-44796800D02*
X77187200Y-47997200D01*
X77187200Y-47997200D02*
X78812800Y-47997200D01*
X78812800Y-47997200D02*
X78812800Y-44796800D01*
D10*
X30236952Y-45876857D02*
X30236952Y-46376857D01*
X30236952Y-45900666D02*
X30284571Y-45876857D01*
X30379809Y-45876857D01*
X30427428Y-45900666D01*
X30451238Y-45924476D01*
X30475047Y-45972095D01*
X30475047Y-46114952D01*
X30451238Y-46162571D01*
X30427428Y-46186380D01*
X30379809Y-46210190D01*
X30284571Y-46210190D01*
X30236952Y-46186380D01*
X30903619Y-46186380D02*
X30856000Y-46210190D01*
X30760761Y-46210190D01*
X30713142Y-46186380D01*
X30689333Y-46162571D01*
X30665523Y-46114952D01*
X30665523Y-45972095D01*
X30689333Y-45924476D01*
X30713142Y-45900666D01*
X30760761Y-45876857D01*
X30856000Y-45876857D01*
X30903619Y-45900666D01*
X31117904Y-46210190D02*
X31117904Y-45710190D01*
X31117904Y-45900666D02*
X31165523Y-45876857D01*
X31260761Y-45876857D01*
X31308380Y-45900666D01*
X31332190Y-45924476D01*
X31356000Y-45972095D01*
X31356000Y-46114952D01*
X31332190Y-46162571D01*
X31308380Y-46186380D01*
X31260761Y-46210190D01*
X31165523Y-46210190D01*
X31117904Y-46186380D01*
X31570285Y-46210190D02*
X31570285Y-45876857D01*
X31570285Y-45972095D02*
X31594095Y-45924476D01*
X31617904Y-45900666D01*
X31665523Y-45876857D01*
X31713142Y-45876857D01*
X32070285Y-46186380D02*
X32022666Y-46210190D01*
X31927428Y-46210190D01*
X31879809Y-46186380D01*
X31856000Y-46138761D01*
X31856000Y-45948285D01*
X31879809Y-45900666D01*
X31927428Y-45876857D01*
X32022666Y-45876857D01*
X32070285Y-45900666D01*
X32094095Y-45948285D01*
X32094095Y-45995904D01*
X31856000Y-46043523D01*
X32236952Y-45876857D02*
X32427428Y-45876857D01*
X32308380Y-46210190D02*
X32308380Y-45781619D01*
X32332190Y-45734000D01*
X32379809Y-45710190D01*
X32427428Y-45710190D01*
X32665523Y-46210190D02*
X32617904Y-46186380D01*
X32594095Y-46138761D01*
X32594095Y-45710190D01*
X33070285Y-45876857D02*
X33070285Y-46210190D01*
X32856000Y-45876857D02*
X32856000Y-46138761D01*
X32879809Y-46186380D01*
X32927428Y-46210190D01*
X32998857Y-46210190D01*
X33046476Y-46186380D01*
X33070285Y-46162571D01*
X33260761Y-46210190D02*
X33522666Y-45876857D01*
X33260761Y-45876857D02*
X33522666Y-46210190D01*
D15*
X69344761Y-56080333D02*
X69392380Y-55937476D01*
X69392380Y-55699380D01*
X69344761Y-55604142D01*
X69297142Y-55556523D01*
X69201904Y-55508904D01*
X69106666Y-55508904D01*
X69011428Y-55556523D01*
X68963809Y-55604142D01*
X68916190Y-55699380D01*
X68868571Y-55889857D01*
X68820952Y-55985095D01*
X68773333Y-56032714D01*
X68678095Y-56080333D01*
X68582857Y-56080333D01*
X68487619Y-56032714D01*
X68440000Y-55985095D01*
X68392380Y-55889857D01*
X68392380Y-55651761D01*
X68440000Y-55508904D01*
X68392380Y-55175571D02*
X69392380Y-54937476D01*
X68678095Y-54747000D01*
X69392380Y-54556523D01*
X68392380Y-54318428D01*
X69392380Y-53413666D02*
X69392380Y-53985095D01*
X69392380Y-53699380D02*
X68392380Y-53699380D01*
X68535238Y-53794619D01*
X68630476Y-53889857D01*
X68678095Y-53985095D01*
X56213380Y-54834095D02*
X55213380Y-54834095D01*
X55213380Y-54596000D01*
X55261000Y-54453142D01*
X55356238Y-54357904D01*
X55451476Y-54310285D01*
X55641952Y-54262666D01*
X55784809Y-54262666D01*
X55975285Y-54310285D01*
X56070523Y-54357904D01*
X56165761Y-54453142D01*
X56213380Y-54596000D01*
X56213380Y-54834095D01*
X56213380Y-53310285D02*
X56213380Y-53881714D01*
X56213380Y-53596000D02*
X55213380Y-53596000D01*
X55356238Y-53691238D01*
X55451476Y-53786476D01*
X55499095Y-53881714D01*
X59007380Y-54783095D02*
X58007380Y-54783095D01*
X58007380Y-54545000D01*
X58055000Y-54402142D01*
X58150238Y-54306904D01*
X58245476Y-54259285D01*
X58435952Y-54211666D01*
X58578809Y-54211666D01*
X58769285Y-54259285D01*
X58864523Y-54306904D01*
X58959761Y-54402142D01*
X59007380Y-54545000D01*
X59007380Y-54783095D01*
X58102619Y-53830714D02*
X58055000Y-53783095D01*
X58007380Y-53687857D01*
X58007380Y-53449761D01*
X58055000Y-53354523D01*
X58102619Y-53306904D01*
X58197857Y-53259285D01*
X58293095Y-53259285D01*
X58435952Y-53306904D01*
X59007380Y-53878333D01*
X59007380Y-53259285D01*
X116842380Y-66738095D02*
X115842380Y-66738095D01*
X115842380Y-66357142D01*
X115890000Y-66261904D01*
X115937619Y-66214285D01*
X116032857Y-66166666D01*
X116175714Y-66166666D01*
X116270952Y-66214285D01*
X116318571Y-66261904D01*
X116366190Y-66357142D01*
X116366190Y-66738095D01*
X116842380Y-65214285D02*
X116842380Y-65785714D01*
X116842380Y-65500000D02*
X115842380Y-65500000D01*
X115985238Y-65595238D01*
X116080476Y-65690476D01*
X116128095Y-65785714D01*
D19*
X76655017Y-55143155D02*
X76631190Y-55190810D01*
X76583534Y-55238465D01*
X76512051Y-55309948D01*
X76488224Y-55357603D01*
X76488224Y-55405259D01*
X76607362Y-55381431D02*
X76583534Y-55429086D01*
X76535879Y-55476741D01*
X76440569Y-55500569D01*
X76273775Y-55500569D01*
X76178465Y-55476741D01*
X76130810Y-55429086D01*
X76106982Y-55381431D01*
X76106982Y-55286120D01*
X76130810Y-55238465D01*
X76178465Y-55190810D01*
X76273775Y-55166982D01*
X76440569Y-55166982D01*
X76535879Y-55190810D01*
X76583534Y-55238465D01*
X76607362Y-55286120D01*
X76607362Y-55381431D01*
X76607362Y-54690430D02*
X76607362Y-54976361D01*
X76607362Y-54833396D02*
X76106982Y-54833396D01*
X76178465Y-54881051D01*
X76226120Y-54928706D01*
X76249948Y-54976361D01*
D20*
X80896774Y-46033443D02*
X80801222Y-46100330D01*
X80896774Y-46148106D02*
X80696114Y-46148106D01*
X80696114Y-46071664D01*
X80705670Y-46052553D01*
X80715225Y-46042998D01*
X80734335Y-46033443D01*
X80763001Y-46033443D01*
X80782111Y-46042998D01*
X80791667Y-46052553D01*
X80801222Y-46071664D01*
X80801222Y-46148106D01*
X80896774Y-45842338D02*
X80896774Y-45957001D01*
X80896774Y-45899670D02*
X80696114Y-45899670D01*
X80724780Y-45918780D01*
X80743890Y-45937890D01*
X80753446Y-45957001D01*
X56212774Y-59755443D02*
X56117222Y-59822330D01*
X56212774Y-59870106D02*
X56012114Y-59870106D01*
X56012114Y-59793664D01*
X56021670Y-59774553D01*
X56031225Y-59764998D01*
X56050335Y-59755443D01*
X56079001Y-59755443D01*
X56098111Y-59764998D01*
X56107667Y-59774553D01*
X56117222Y-59793664D01*
X56117222Y-59870106D01*
X56031225Y-59679001D02*
X56021670Y-59669446D01*
X56012114Y-59650335D01*
X56012114Y-59602559D01*
X56021670Y-59583449D01*
X56031225Y-59573893D01*
X56050335Y-59564338D01*
X56069446Y-59564338D01*
X56098111Y-59573893D01*
X56212774Y-59688556D01*
X56212774Y-59564338D01*
X58879774Y-59755443D02*
X58784222Y-59822330D01*
X58879774Y-59870106D02*
X58679114Y-59870106D01*
X58679114Y-59793664D01*
X58688670Y-59774553D01*
X58698225Y-59764998D01*
X58717335Y-59755443D01*
X58746001Y-59755443D01*
X58765111Y-59764998D01*
X58774667Y-59774553D01*
X58784222Y-59793664D01*
X58784222Y-59870106D01*
X58679114Y-59688556D02*
X58679114Y-59564338D01*
X58755556Y-59631225D01*
X58755556Y-59602559D01*
X58765111Y-59583449D01*
X58774667Y-59573893D01*
X58793777Y-59564338D01*
X58841553Y-59564338D01*
X58860664Y-59573893D01*
X58870219Y-59583449D01*
X58879774Y-59602559D01*
X58879774Y-59659890D01*
X58870219Y-59679001D01*
X58860664Y-59688556D01*
D10*
X100437971Y-61273685D02*
X100437971Y-61880828D01*
X100473685Y-61952257D01*
X100509400Y-61987971D01*
X100580828Y-62023685D01*
X100723685Y-62023685D01*
X100795114Y-61987971D01*
X100830828Y-61952257D01*
X100866542Y-61880828D01*
X100866542Y-61273685D01*
X101616542Y-62023685D02*
X101187971Y-62023685D01*
X101402257Y-62023685D02*
X101402257Y-61273685D01*
X101330828Y-61380828D01*
X101259400Y-61452257D01*
X101187971Y-61487971D01*
D20*
X75706664Y-45785283D02*
X75716219Y-45794838D01*
X75725774Y-45823504D01*
X75725774Y-45842614D01*
X75716219Y-45871280D01*
X75697109Y-45890390D01*
X75677998Y-45899946D01*
X75639777Y-45909501D01*
X75611111Y-45909501D01*
X75572890Y-45899946D01*
X75553780Y-45890390D01*
X75534670Y-45871280D01*
X75525114Y-45842614D01*
X75525114Y-45823504D01*
X75534670Y-45794838D01*
X75544225Y-45785283D01*
X75725774Y-45594178D02*
X75725774Y-45708841D01*
X75725774Y-45651510D02*
X75525114Y-45651510D01*
X75553780Y-45670620D01*
X75572890Y-45689730D01*
X75582446Y-45708841D01*
D21*
X79474107Y-46505796D02*
X79497934Y-46529624D01*
X79521762Y-46601107D01*
X79521762Y-46648762D01*
X79497934Y-46720245D01*
X79450279Y-46767900D01*
X79402624Y-46791728D01*
X79307313Y-46815555D01*
X79235830Y-46815555D01*
X79140520Y-46791728D01*
X79092865Y-46767900D01*
X79045210Y-46720245D01*
X79021382Y-46648762D01*
X79021382Y-46601107D01*
X79045210Y-46529624D01*
X79069037Y-46505796D01*
X79069037Y-46315175D02*
X79045210Y-46291348D01*
X79021382Y-46243692D01*
X79021382Y-46124554D01*
X79045210Y-46076899D01*
X79069037Y-46053071D01*
X79116692Y-46029244D01*
X79164348Y-46029244D01*
X79235830Y-46053071D01*
X79521762Y-46339003D01*
X79521762Y-46029244D01*
M02*
