G04 #@! TF.FileFunction,Soldermask,Top*
%FSLAX46Y46*%
G04 Gerber Fmt 4.6, Leading zero omitted, Abs format (unit mm)*
G04 Created by KiCad (PCBNEW no-vcs-found-undefined) date Sat Nov  5 20:33:03 2016*
%MOMM*%
%LPD*%
G01*
G04 APERTURE LIST*
%ADD10C,0.100000*%
%ADD11C,2.900000*%
%ADD12C,1.200000*%
%ADD13R,1.750000X1.300000*%
%ADD14R,1.300000X1.750000*%
%ADD15R,6.400000X6.400000*%
%ADD16R,2.432000X2.127200*%
%ADD17O,2.432000X2.127200*%
%ADD18R,1.400760X0.999440*%
%ADD19R,1.400760X1.299160*%
%ADD20R,1.299160X1.400760*%
%ADD21R,1.400760X1.400760*%
%ADD22R,2.432000X1.416000*%
%ADD23R,2.432000X4.057600*%
%ADD24R,1.901140X3.100020*%
%ADD25R,2.203400X2.000200*%
%ADD26R,2.000200X2.203400*%
%ADD27R,3.100020X1.901140*%
%ADD28R,1.416000X2.432000*%
%ADD29R,4.057600X2.432000*%
%ADD30R,0.999440X1.400760*%
%ADD31R,2.127200X2.432000*%
%ADD32O,2.127200X2.432000*%
G04 APERTURE END LIST*
D10*
D11*
X105812000Y-135517000D03*
X100812000Y-135517000D03*
X105812000Y-185555000D03*
X100812000Y-185555000D03*
X25342000Y-110183000D03*
X25342000Y-105183000D03*
X39370000Y-185547000D03*
X34370000Y-185547000D03*
X73046000Y-185555000D03*
X68046000Y-185555000D03*
D12*
X39117000Y-142108000D03*
X39117000Y-143108000D03*
X39117000Y-144108000D03*
X39117000Y-145108000D03*
X39117000Y-146108000D03*
X37117000Y-142108000D03*
X37117000Y-143108000D03*
X37117000Y-144108000D03*
X37117000Y-145108000D03*
X37117000Y-146108000D03*
X38117000Y-146108000D03*
X38117000Y-145108000D03*
X38117000Y-144108000D03*
X38117000Y-143108000D03*
X38117000Y-142108000D03*
X36117000Y-142108000D03*
X36117000Y-143108000D03*
X36117000Y-144108000D03*
X36117000Y-145108000D03*
X36117000Y-146108000D03*
X35117000Y-146108000D03*
X35117000Y-145108000D03*
X35117000Y-144108000D03*
X35117000Y-143108000D03*
D13*
X45847000Y-136398000D03*
X45847000Y-137668000D03*
X45847000Y-138938000D03*
X45847000Y-140208000D03*
X45847000Y-141478000D03*
X45847000Y-142748000D03*
X45847000Y-144018000D03*
X45847000Y-145288000D03*
X45847000Y-146558000D03*
X45847000Y-147828000D03*
X45847000Y-149098000D03*
X45847000Y-150368000D03*
X45847000Y-151638000D03*
X45847000Y-152908000D03*
D14*
X42547000Y-154408000D03*
X41277000Y-154408000D03*
X40007000Y-154408000D03*
X38737000Y-154408000D03*
X37467000Y-154408000D03*
X36197000Y-154408000D03*
X34927000Y-154408000D03*
X33657000Y-154408000D03*
X32387000Y-154408000D03*
X31117000Y-154408000D03*
D13*
X27817000Y-152908000D03*
X27817000Y-151638000D03*
X27817000Y-150368000D03*
X27817000Y-149098000D03*
X27817000Y-147828000D03*
X27817000Y-146558000D03*
X27817000Y-145288000D03*
X27817000Y-144018000D03*
X27817000Y-142748000D03*
X27817000Y-141478000D03*
X27817000Y-140208000D03*
X27817000Y-138938000D03*
X27817000Y-137668000D03*
X27817000Y-136398000D03*
D15*
X37117000Y-144108000D03*
D12*
X35117000Y-142108000D03*
X68781000Y-109930000D03*
X67781000Y-109930000D03*
X66781000Y-109930000D03*
X65781000Y-109930000D03*
X64781000Y-109930000D03*
X68781000Y-107930000D03*
X67781000Y-107930000D03*
X66781000Y-107930000D03*
X65781000Y-107930000D03*
X64781000Y-107930000D03*
X64781000Y-108930000D03*
X65781000Y-108930000D03*
X66781000Y-108930000D03*
X67781000Y-108930000D03*
X68781000Y-108930000D03*
X68781000Y-106930000D03*
X67781000Y-106930000D03*
X66781000Y-106930000D03*
X65781000Y-106930000D03*
X64781000Y-106930000D03*
X64781000Y-105930000D03*
X65781000Y-105930000D03*
X66781000Y-105930000D03*
X67781000Y-105930000D03*
D14*
X74491000Y-116660000D03*
X73221000Y-116660000D03*
X71951000Y-116660000D03*
X70681000Y-116660000D03*
X69411000Y-116660000D03*
X68141000Y-116660000D03*
X66871000Y-116660000D03*
X65601000Y-116660000D03*
X64331000Y-116660000D03*
X63061000Y-116660000D03*
X61791000Y-116660000D03*
X60521000Y-116660000D03*
X59251000Y-116660000D03*
X57981000Y-116660000D03*
D13*
X56481000Y-113360000D03*
X56481000Y-112090000D03*
X56481000Y-110820000D03*
X56481000Y-109550000D03*
X56481000Y-108280000D03*
X56481000Y-107010000D03*
X56481000Y-105740000D03*
X56481000Y-104470000D03*
X56481000Y-103200000D03*
X56481000Y-101930000D03*
D14*
X57981000Y-98630000D03*
X59251000Y-98630000D03*
X60521000Y-98630000D03*
X61791000Y-98630000D03*
X63061000Y-98630000D03*
X64331000Y-98630000D03*
X65601000Y-98630000D03*
X66871000Y-98630000D03*
X68141000Y-98630000D03*
X69411000Y-98630000D03*
X70681000Y-98630000D03*
X71951000Y-98630000D03*
X73221000Y-98630000D03*
X74491000Y-98630000D03*
D15*
X66781000Y-107930000D03*
D12*
X68781000Y-105930000D03*
D13*
X78509400Y-159891600D03*
X78509400Y-158391600D03*
X78509400Y-156891600D03*
X78509400Y-155391600D03*
X78509400Y-153891600D03*
X78509400Y-152391600D03*
X78509400Y-150891600D03*
X78509400Y-149391600D03*
X78509400Y-147891600D03*
X78509400Y-146391600D03*
X78509400Y-144891600D03*
X62509400Y-144891600D03*
X62509400Y-146391600D03*
X62509400Y-147891600D03*
X62509400Y-149391600D03*
X62509400Y-150891600D03*
X62509400Y-152391600D03*
X62509400Y-153891600D03*
X62509400Y-155391600D03*
X62509400Y-156891600D03*
X62509400Y-158391600D03*
X62509400Y-159891600D03*
D14*
X76509400Y-161391600D03*
X75009400Y-161391600D03*
X73509400Y-161391600D03*
X72009400Y-161391600D03*
X70509400Y-161391600D03*
X69009400Y-161391600D03*
X67509400Y-161391600D03*
X66009400Y-161391600D03*
X64509400Y-161391600D03*
D13*
X111275400Y-159891600D03*
X111275400Y-158391600D03*
X111275400Y-156891600D03*
X111275400Y-155391600D03*
X111275400Y-153891600D03*
X111275400Y-152391600D03*
X111275400Y-150891600D03*
X111275400Y-149391600D03*
X111275400Y-147891600D03*
X111275400Y-146391600D03*
X111275400Y-144891600D03*
X95275400Y-144891600D03*
X95275400Y-146391600D03*
X95275400Y-147891600D03*
X95275400Y-149391600D03*
X95275400Y-150891600D03*
X95275400Y-152391600D03*
X95275400Y-153891600D03*
X95275400Y-155391600D03*
X95275400Y-156891600D03*
X95275400Y-158391600D03*
X95275400Y-159891600D03*
D14*
X109275400Y-161391600D03*
X107775400Y-161391600D03*
X106275400Y-161391600D03*
X104775400Y-161391600D03*
X103275400Y-161391600D03*
X101775400Y-161391600D03*
X100275400Y-161391600D03*
X98775400Y-161391600D03*
X97275400Y-161391600D03*
D13*
X111275400Y-109853600D03*
X111275400Y-108353600D03*
X111275400Y-106853600D03*
X111275400Y-105353600D03*
X111275400Y-103853600D03*
X111275400Y-102353600D03*
X111275400Y-100853600D03*
X111275400Y-99353600D03*
X111275400Y-97853600D03*
X111275400Y-96353600D03*
X111275400Y-94853600D03*
X95275400Y-94853600D03*
X95275400Y-96353600D03*
X95275400Y-97853600D03*
X95275400Y-99353600D03*
X95275400Y-100853600D03*
X95275400Y-102353600D03*
X95275400Y-103853600D03*
X95275400Y-105353600D03*
X95275400Y-106853600D03*
X95275400Y-108353600D03*
X95275400Y-109853600D03*
D14*
X109275400Y-111353600D03*
X107775400Y-111353600D03*
X106275400Y-111353600D03*
X104775400Y-111353600D03*
X103275400Y-111353600D03*
X101775400Y-111353600D03*
X100275400Y-111353600D03*
X98775400Y-111353600D03*
X97275400Y-111353600D03*
D16*
X90576400Y-94843600D03*
D17*
X90576400Y-97383600D03*
X90576400Y-99923600D03*
X90576400Y-102463600D03*
X90576400Y-105003600D03*
X90576400Y-107543600D03*
X90576400Y-110083600D03*
X90576400Y-112623600D03*
X90576400Y-115163600D03*
X90576400Y-117703600D03*
X90576400Y-120243600D03*
X90576400Y-122783600D03*
X90576400Y-125323600D03*
X90576400Y-127863600D03*
X90576400Y-130403600D03*
X90576400Y-132943600D03*
X115976400Y-94843600D03*
X115976400Y-97383600D03*
X115976400Y-99923600D03*
X115976400Y-102463600D03*
X115976400Y-105003600D03*
X115976400Y-107543600D03*
X115976400Y-110083600D03*
X115976400Y-112623600D03*
X115976400Y-115163600D03*
X115976400Y-117703600D03*
X115976400Y-120243600D03*
X115976400Y-122783600D03*
X115976400Y-125323600D03*
X115976400Y-127863600D03*
X115976400Y-130403600D03*
D16*
X115976400Y-132943600D03*
D18*
X101793040Y-128816100D03*
X99679760Y-127863600D03*
X101793040Y-126911100D03*
D19*
X95656400Y-120995440D03*
X95656400Y-119491760D03*
D20*
X106568240Y-127863600D03*
X105064560Y-127863600D03*
D21*
X95656400Y-130192780D03*
X95656400Y-122994420D03*
X110896400Y-130192780D03*
X110896400Y-122994420D03*
D22*
X99720400Y-115417600D03*
X99720400Y-119989600D03*
X99720400Y-117703600D03*
D23*
X106324400Y-117703600D03*
D24*
X102146100Y-124053600D03*
X106946700Y-124053600D03*
D25*
X110388400Y-116306600D03*
X110388400Y-119100600D03*
X95656400Y-117322600D03*
X95656400Y-114528600D03*
X95656400Y-164566600D03*
X95656400Y-167360600D03*
X110388400Y-169138600D03*
X110388400Y-166344600D03*
D24*
X106946700Y-174091600D03*
X102146100Y-174091600D03*
D23*
X106324400Y-167741600D03*
D22*
X99720400Y-167741600D03*
X99720400Y-170027600D03*
X99720400Y-165455600D03*
D21*
X110896400Y-173032420D03*
X110896400Y-180230780D03*
X95656400Y-173032420D03*
X95656400Y-180230780D03*
D20*
X105064560Y-177901600D03*
X106568240Y-177901600D03*
D19*
X95656400Y-169529760D03*
X95656400Y-171033440D03*
D18*
X101793040Y-176949100D03*
X99679760Y-177901600D03*
X101793040Y-178854100D03*
D16*
X115976400Y-182981600D03*
D17*
X115976400Y-180441600D03*
X115976400Y-177901600D03*
X115976400Y-175361600D03*
X115976400Y-172821600D03*
X115976400Y-170281600D03*
X115976400Y-167741600D03*
X115976400Y-165201600D03*
X115976400Y-162661600D03*
X115976400Y-160121600D03*
X115976400Y-157581600D03*
X115976400Y-155041600D03*
X115976400Y-152501600D03*
X115976400Y-149961600D03*
X115976400Y-147421600D03*
X115976400Y-144881600D03*
X90576400Y-182981600D03*
X90576400Y-180441600D03*
X90576400Y-177901600D03*
X90576400Y-175361600D03*
X90576400Y-172821600D03*
X90576400Y-170281600D03*
X90576400Y-167741600D03*
X90576400Y-165201600D03*
X90576400Y-162661600D03*
X90576400Y-160121600D03*
X90576400Y-157581600D03*
X90576400Y-155041600D03*
X90576400Y-152501600D03*
X90576400Y-149961600D03*
X90576400Y-147421600D03*
D16*
X90576400Y-144881600D03*
D26*
X48456000Y-113993000D03*
X45662000Y-113993000D03*
X48456000Y-99388000D03*
X45662000Y-99388000D03*
D27*
X39312000Y-104747400D03*
X39312000Y-109548000D03*
D28*
X49218000Y-103579000D03*
X44646000Y-103579000D03*
X46932000Y-103579000D03*
D29*
X46932000Y-110183000D03*
D21*
X39101180Y-114628000D03*
X31902820Y-114628000D03*
X31902820Y-100023000D03*
X39101180Y-100023000D03*
D19*
X34232000Y-108679320D03*
X34232000Y-110183000D03*
D20*
X42593680Y-100023000D03*
X41090000Y-100023000D03*
D30*
X34232000Y-105738000D03*
X35184500Y-103624720D03*
X36137000Y-105738000D03*
D31*
X28517000Y-120343000D03*
D32*
X31057000Y-120343000D03*
X33597000Y-120343000D03*
X36137000Y-120343000D03*
X38677000Y-120343000D03*
X41217000Y-120343000D03*
X43757000Y-120343000D03*
X46297000Y-120343000D03*
X48837000Y-120343000D03*
X51377000Y-120343000D03*
X53917000Y-120343000D03*
X56457000Y-120343000D03*
X58997000Y-120343000D03*
X61537000Y-120343000D03*
X64077000Y-120343000D03*
X66617000Y-120343000D03*
X69157000Y-120343000D03*
X71697000Y-120343000D03*
X74237000Y-120343000D03*
X28517000Y-94943000D03*
X31057000Y-94943000D03*
X33597000Y-94943000D03*
X36137000Y-94943000D03*
X38677000Y-94943000D03*
X41217000Y-94943000D03*
X43757000Y-94943000D03*
X46297000Y-94943000D03*
X48837000Y-94943000D03*
X51377000Y-94943000D03*
X53917000Y-94943000D03*
X56457000Y-94943000D03*
X58997000Y-94943000D03*
X61537000Y-94943000D03*
X64077000Y-94943000D03*
X66617000Y-94943000D03*
X69157000Y-94943000D03*
X71697000Y-94943000D03*
D31*
X74237000Y-94943000D03*
D16*
X24130000Y-136652000D03*
D17*
X24130000Y-139192000D03*
X24130000Y-141732000D03*
X24130000Y-144272000D03*
X24130000Y-146812000D03*
X24130000Y-149352000D03*
X24130000Y-151892000D03*
X24130000Y-154432000D03*
X24130000Y-156972000D03*
X24130000Y-159512000D03*
X24130000Y-162052000D03*
X24130000Y-164592000D03*
X24130000Y-167132000D03*
X24130000Y-169672000D03*
X24130000Y-172212000D03*
X24130000Y-174752000D03*
X24130000Y-177292000D03*
X24130000Y-179832000D03*
X24130000Y-182372000D03*
X49530000Y-136652000D03*
X49530000Y-139192000D03*
X49530000Y-141732000D03*
X49530000Y-144272000D03*
X49530000Y-146812000D03*
X49530000Y-149352000D03*
X49530000Y-151892000D03*
X49530000Y-154432000D03*
X49530000Y-156972000D03*
X49530000Y-159512000D03*
X49530000Y-162052000D03*
X49530000Y-164592000D03*
X49530000Y-167132000D03*
X49530000Y-169672000D03*
X49530000Y-172212000D03*
X49530000Y-174752000D03*
X49530000Y-177292000D03*
X49530000Y-179832000D03*
D16*
X49530000Y-182372000D03*
X57810400Y-144881600D03*
D17*
X57810400Y-147421600D03*
X57810400Y-149961600D03*
X57810400Y-152501600D03*
X57810400Y-155041600D03*
X57810400Y-157581600D03*
X57810400Y-160121600D03*
X57810400Y-162661600D03*
X57810400Y-165201600D03*
X57810400Y-167741600D03*
X57810400Y-170281600D03*
X57810400Y-172821600D03*
X57810400Y-175361600D03*
X57810400Y-177901600D03*
X57810400Y-180441600D03*
X57810400Y-182981600D03*
X83210400Y-144881600D03*
X83210400Y-147421600D03*
X83210400Y-149961600D03*
X83210400Y-152501600D03*
X83210400Y-155041600D03*
X83210400Y-157581600D03*
X83210400Y-160121600D03*
X83210400Y-162661600D03*
X83210400Y-165201600D03*
X83210400Y-167741600D03*
X83210400Y-170281600D03*
X83210400Y-172821600D03*
X83210400Y-175361600D03*
X83210400Y-177901600D03*
X83210400Y-180441600D03*
D16*
X83210400Y-182981600D03*
D18*
X34925000Y-174752000D03*
X32811720Y-175704500D03*
X34925000Y-176657000D03*
X69027040Y-178854100D03*
X66913760Y-177901600D03*
X69027040Y-176949100D03*
D19*
X29210000Y-169799000D03*
X29210000Y-168295320D03*
D20*
X39370000Y-176657000D03*
X37866320Y-176657000D03*
D19*
X62890400Y-171033440D03*
X62890400Y-169529760D03*
D20*
X73802240Y-177901600D03*
X72298560Y-177901600D03*
D21*
X29210000Y-171787820D03*
X29210000Y-178986180D03*
X43815000Y-178986180D03*
X43815000Y-171787820D03*
X62890400Y-180230780D03*
X62890400Y-173032420D03*
X78130400Y-180230780D03*
X78130400Y-173032420D03*
D23*
X39370000Y-163957000D03*
D22*
X32766000Y-163957000D03*
X32766000Y-166243000D03*
X32766000Y-161671000D03*
X66954400Y-165455600D03*
X66954400Y-170027600D03*
X66954400Y-167741600D03*
D23*
X73558400Y-167741600D03*
D24*
X38735000Y-171577000D03*
X33934400Y-171577000D03*
X69380100Y-174091600D03*
X74180700Y-174091600D03*
D25*
X28575000Y-165227000D03*
X28575000Y-162433000D03*
X43180000Y-165227000D03*
X43180000Y-162433000D03*
X77622400Y-166344600D03*
X77622400Y-169138600D03*
X62890400Y-167360600D03*
X62890400Y-164566600D03*
M02*
