M48
;DRILL file {KiCad no-vcs-found-undefined} date Sat Nov  5 20:33:22 2016
;FORMAT={-:-/ absolute / metric / decimal}
FMAT,2
METRIC,TZ
T1C0.300
T2C0.400
T3C1.016
T4C1.300
T5C0.300
%
G90
G05
M71
T1
X27.076Y-134.417
X27.076Y-135.23
X28.753Y-154.432
X30.683Y-152.248
X30.785Y-136.855
X31.547Y-136.855
X32.36Y-136.855
X33.172Y-136.855
X33.426Y-150.47
X33.985Y-136.855
X34.747Y-136.855
X35.117Y-142.108
X35.117Y-143.108
X35.117Y-144.108
X35.117Y-145.108
X35.117Y-146.108
X35.56Y-136.855
X36.117Y-142.108
X36.117Y-143.108
X36.117Y-144.108
X36.117Y-145.108
X36.117Y-146.108
X36.322Y-136.855
X37.084Y-136.855
X37.117Y-142.108
X37.117Y-143.108
X37.117Y-144.108
X37.117Y-145.108
X37.117Y-146.108
X37.846Y-136.855
X38.117Y-142.108
X38.117Y-143.108
X38.117Y-144.108
X38.117Y-145.108
X38.117Y-146.108
X38.608Y-136.855
X39.117Y-142.108
X39.117Y-143.108
X39.117Y-144.108
X39.117Y-145.108
X39.117Y-146.108
X39.37Y-136.855
X40.132Y-136.855
X40.894Y-136.855
X41.605Y-136.855
X42.367Y-136.855
X43.129Y-136.855
X43.84Y-136.855
X46.482Y-134.518
X46.482Y-135.28
X56.457Y-99.566
X58.641Y-101.496
X60.419Y-104.239
X62.078Y-143.764
X64.781Y-105.93
X64.781Y-106.93
X64.781Y-107.93
X64.781Y-108.93
X64.781Y-109.93
X65.634Y-145.542
X65.781Y-105.93
X65.781Y-106.93
X65.781Y-107.93
X65.781Y-108.93
X65.781Y-109.93
X66.396Y-145.542
X66.781Y-105.93
X66.781Y-106.93
X66.781Y-107.93
X66.781Y-108.93
X66.781Y-109.93
X67.158Y-145.542
X67.781Y-105.93
X67.781Y-106.93
X67.781Y-107.93
X67.781Y-108.93
X67.781Y-109.93
X67.97Y-145.542
X68.781Y-105.93
X68.781Y-106.93
X68.781Y-107.93
X68.781Y-108.93
X68.781Y-109.93
X68.783Y-145.542
X69.596Y-145.542
X70.358Y-145.542
X71.12Y-145.542
X71.831Y-145.542
X72.593Y-145.542
X73.355Y-145.542
X74.034Y-101.598
X74.034Y-102.36
X74.034Y-103.173
X74.034Y-103.985
X74.034Y-104.798
X74.034Y-105.56
X74.034Y-106.373
X74.034Y-107.135
X74.034Y-107.897
X74.034Y-108.659
X74.034Y-109.421
X74.034Y-110.183
X74.034Y-110.945
X74.034Y-111.707
X74.034Y-112.418
X74.034Y-113.18
X74.034Y-113.942
X74.034Y-114.653
X74.066Y-145.542
X74.879Y-145.542
X75.59Y-145.542
X75.609Y-117.295
X75.659Y-97.889
X76.352Y-145.542
X76.371Y-117.295
X76.472Y-97.889
X79.146Y-143.612
X94.844Y-93.726
X94.844Y-143.764
X98.4Y-95.504
X98.4Y-145.542
X99.162Y-95.504
X99.162Y-145.542
X99.924Y-95.504
X99.924Y-145.542
X100.736Y-95.504
X100.736Y-145.542
X101.549Y-95.504
X101.549Y-145.542
X102.362Y-95.504
X102.362Y-145.542
X103.124Y-95.504
X103.124Y-145.542
X103.886Y-95.504
X103.886Y-145.542
X104.597Y-95.504
X104.597Y-145.542
X105.359Y-95.504
X105.359Y-145.542
X106.121Y-95.504
X106.121Y-145.542
X106.832Y-95.504
X106.832Y-145.542
X107.645Y-95.504
X107.645Y-145.542
X108.356Y-95.504
X108.356Y-145.542
X109.118Y-95.504
X109.118Y-145.542
X111.912Y-93.574
X111.912Y-143.612
T2
X29.21Y-145.288
X29.21Y-137.668
X29.21Y-138.938
X29.21Y-144.018
X29.21Y-146.558
X29.21Y-151.765
X29.21Y-152.908
X29.261Y-181.102
X29.787Y-100.074
X29.914Y-115.771
X30.353Y-163.322
X30.48Y-168.021
X30.607Y-169.926
X32.385Y-152.654
X33.655Y-152.654
X34.925Y-156.083
X36.195Y-156.083
X40.963Y-101.42
X42.868Y-101.293
X44.45Y-145.288
X44.45Y-146.558
X44.45Y-151.638
X44.45Y-152.908
X44.45Y-154.432
X44.958Y-180.975
X47.567Y-101.166
X54.806Y-105.738
X54.806Y-107.008
X56.457Y-115.263
X57.981Y-100.023
X57.981Y-115.263
X58.235Y-103.198
X58.235Y-104.468
X59.124Y-100.023
X59.251Y-115.263
X61.112Y-169.266
X62.89Y-181.966
X64.16Y-146.406
X64.16Y-158.344
X64.331Y-100.023
X64.331Y-115.263
X65.601Y-100.023
X65.601Y-115.263
X65.938Y-159.614
X66.871Y-100.023
X67.208Y-159.614
X68.986Y-159.614
X68.986Y-165.456
X70.51Y-159.614
X71.951Y-100.023
X72.034Y-162.916
X73.221Y-100.023
X73.558Y-159.614
X73.812Y-180.188
X75.082Y-162.916
X76.606Y-158.344
X76.738Y-162.784
X76.865Y-172.826
X93.878Y-119.228
X93.878Y-169.266
X95.656Y-131.928
X95.656Y-181.966
X96.926Y-96.368
X96.926Y-108.306
X96.926Y-146.406
X96.926Y-158.344
X98.704Y-109.576
X98.704Y-159.614
X99.974Y-109.576
X99.974Y-159.614
X101.752Y-109.576
X101.752Y-115.418
X101.752Y-159.614
X101.752Y-165.456
X103.276Y-109.576
X103.276Y-159.614
X104.8Y-112.878
X104.8Y-162.916
X106.324Y-109.576
X106.324Y-159.614
X106.578Y-130.15
X106.578Y-180.188
X107.848Y-112.878
X107.848Y-162.916
X109.372Y-108.306
X109.372Y-158.344
X109.504Y-112.746
X109.504Y-162.784
X109.631Y-122.788
X109.631Y-172.826
T3
X24.13Y-136.652
X24.13Y-139.192
X24.13Y-141.732
X24.13Y-144.272
X24.13Y-146.812
X24.13Y-149.352
X24.13Y-151.892
X24.13Y-154.432
X24.13Y-156.972
X24.13Y-159.512
X24.13Y-162.052
X24.13Y-164.592
X24.13Y-167.132
X24.13Y-169.672
X24.13Y-172.212
X24.13Y-174.752
X24.13Y-177.292
X24.13Y-179.832
X24.13Y-182.372
X28.517Y-94.943
X28.517Y-120.343
X31.057Y-94.943
X31.057Y-120.343
X33.597Y-94.943
X33.597Y-120.343
X36.137Y-94.943
X36.137Y-120.343
X38.677Y-94.943
X38.677Y-120.343
X41.217Y-94.943
X41.217Y-120.343
X43.757Y-94.943
X43.757Y-120.343
X46.297Y-94.943
X46.297Y-120.343
X48.837Y-94.943
X48.837Y-120.343
X49.53Y-136.652
X49.53Y-139.192
X49.53Y-141.732
X49.53Y-144.272
X49.53Y-146.812
X49.53Y-149.352
X49.53Y-151.892
X49.53Y-154.432
X49.53Y-156.972
X49.53Y-159.512
X49.53Y-162.052
X49.53Y-164.592
X49.53Y-167.132
X49.53Y-169.672
X49.53Y-172.212
X49.53Y-174.752
X49.53Y-177.292
X49.53Y-179.832
X49.53Y-182.372
X51.377Y-94.943
X51.377Y-120.343
X53.917Y-94.943
X53.917Y-120.343
X56.457Y-94.943
X56.457Y-120.343
X57.81Y-144.882
X57.81Y-147.422
X57.81Y-149.962
X57.81Y-152.502
X57.81Y-155.042
X57.81Y-157.582
X57.81Y-160.122
X57.81Y-162.662
X57.81Y-165.202
X57.81Y-167.742
X57.81Y-170.282
X57.81Y-172.822
X57.81Y-175.362
X57.81Y-177.902
X57.81Y-180.442
X57.81Y-182.982
X58.997Y-94.943
X58.997Y-120.343
X61.537Y-94.943
X61.537Y-120.343
X64.077Y-94.943
X64.077Y-120.343
X66.617Y-94.943
X66.617Y-120.343
X69.157Y-94.943
X69.157Y-120.343
X71.697Y-94.943
X71.697Y-120.343
X74.237Y-94.943
X74.237Y-120.343
X83.21Y-144.882
X83.21Y-147.422
X83.21Y-149.962
X83.21Y-152.502
X83.21Y-155.042
X83.21Y-157.582
X83.21Y-160.122
X83.21Y-162.662
X83.21Y-165.202
X83.21Y-167.742
X83.21Y-170.282
X83.21Y-172.822
X83.21Y-175.362
X83.21Y-177.902
X83.21Y-180.442
X83.21Y-182.982
X90.576Y-94.844
X90.576Y-97.384
X90.576Y-99.924
X90.576Y-102.464
X90.576Y-105.004
X90.576Y-107.544
X90.576Y-110.084
X90.576Y-112.624
X90.576Y-115.164
X90.576Y-117.704
X90.576Y-120.244
X90.576Y-122.784
X90.576Y-125.324
X90.576Y-127.864
X90.576Y-130.404
X90.576Y-132.944
X90.576Y-144.882
X90.576Y-147.422
X90.576Y-149.962
X90.576Y-152.502
X90.576Y-155.042
X90.576Y-157.582
X90.576Y-160.122
X90.576Y-162.662
X90.576Y-165.202
X90.576Y-167.742
X90.576Y-170.282
X90.576Y-172.822
X90.576Y-175.362
X90.576Y-177.902
X90.576Y-180.442
X90.576Y-182.982
X115.976Y-94.844
X115.976Y-97.384
X115.976Y-99.924
X115.976Y-102.464
X115.976Y-105.004
X115.976Y-107.544
X115.976Y-110.084
X115.976Y-112.624
X115.976Y-115.164
X115.976Y-117.704
X115.976Y-120.244
X115.976Y-122.784
X115.976Y-125.324
X115.976Y-127.864
X115.976Y-130.404
X115.976Y-132.944
X115.976Y-144.882
X115.976Y-147.422
X115.976Y-149.962
X115.976Y-152.502
X115.976Y-155.042
X115.976Y-157.582
X115.976Y-160.122
X115.976Y-162.662
X115.976Y-165.202
X115.976Y-167.742
X115.976Y-170.282
X115.976Y-172.822
X115.976Y-175.362
X115.976Y-177.902
X115.976Y-180.442
X115.976Y-182.982
T4
X25.342Y-105.183
X25.342Y-110.183
X34.37Y-185.547
X39.37Y-185.547
X68.046Y-185.555
X73.046Y-185.555
X100.812Y-135.517
X100.812Y-185.555
X105.812Y-135.517
X105.812Y-185.555
T5
X21.336Y-160.392
X21.336Y-160.892
X21.336Y-161.392
X21.336Y-161.892
X21.336Y-162.392
X22.294Y-106.651
X22.294Y-107.151
X22.294Y-107.651
X22.294Y-108.151
X22.294Y-108.651
X35.83Y-133.223
X35.838Y-188.595
X36.33Y-133.223
X36.338Y-188.595
X36.83Y-133.223
X36.838Y-188.595
X37.33Y-133.223
X37.338Y-188.595
X37.83Y-133.223
X37.838Y-188.595
X48.447Y-123.137
X48.497Y-92.149
X48.947Y-123.137
X48.997Y-92.149
X49.447Y-123.137
X49.497Y-92.149
X49.947Y-123.137
X49.997Y-92.149
X50.447Y-123.137
X50.497Y-92.149
X52.324Y-160.442
X52.324Y-160.942
X52.324Y-161.442
X52.324Y-161.942
X52.324Y-162.442
X55.016Y-169.282
X55.016Y-169.782
X55.016Y-170.282
X55.016Y-170.782
X55.016Y-171.282
X69.51Y-142.088
X69.518Y-188.57
X70.01Y-142.088
X70.018Y-188.57
X70.51Y-142.088
X70.518Y-188.57
X71.01Y-142.088
X71.018Y-188.57
X71.51Y-142.088
X71.518Y-188.57
X77.666Y-106.643
X77.666Y-107.143
X77.666Y-107.643
X77.666Y-108.143
X77.666Y-108.643
X86.004Y-169.282
X86.004Y-169.782
X86.004Y-170.282
X86.004Y-170.782
X86.004Y-171.282
X87.782Y-119.244
X87.782Y-119.744
X87.782Y-120.244
X87.782Y-120.744
X87.782Y-121.244
X87.782Y-169.282
X87.782Y-169.782
X87.782Y-170.282
X87.782Y-170.782
X87.782Y-171.282
X102.276Y-92.05
X102.276Y-142.088
X102.284Y-138.532
X102.284Y-188.57
X102.776Y-92.05
X102.776Y-142.088
X102.784Y-138.532
X102.784Y-188.57
X103.276Y-92.05
X103.276Y-142.088
X103.284Y-138.532
X103.284Y-188.57
X103.776Y-92.05
X103.776Y-142.088
X103.784Y-138.532
X103.784Y-188.57
X104.276Y-92.05
X104.276Y-142.088
X104.284Y-138.532
X104.284Y-188.57
X118.77Y-119.244
X118.77Y-119.744
X118.77Y-120.244
X118.77Y-120.744
X118.77Y-121.244
X118.77Y-169.282
X118.77Y-169.782
X118.77Y-170.282
X118.77Y-170.782
X118.77Y-171.282
T0
M30
